<?xml version="1.0" encoding="utf-8" standalone="no"?>
<!DOCTYPE svg PUBLIC "-//W3C//DTD SVG 1.1//EN"
  "http://www.w3.org/Graphics/SVG/1.1/DTD/svg11.dtd">
<svg xmlns:xlink="http://www.w3.org/1999/xlink" width="410.869849pt" height="334.908125pt" viewBox="0 0 410.869849 334.908125" xmlns="http://www.w3.org/2000/svg" version="1.1">
 <metadata>
  <rdf:RDF xmlns:dc="http://purl.org/dc/elements/1.1/" xmlns:cc="http://creativecommons.org/ns#" xmlns:rdf="http://www.w3.org/1999/02/22-rdf-syntax-ns#">
   <cc:Work>
    <dc:creator>
     <cc:Agent>
      <dc:title>カリビアンカフェ</dc:title>
     </cc:Agent>
    </dc:creator>
   </cc:Work>
  </rdf:RDF>
 </metadata>
 <defs>
  <style type="text/css">*{stroke-linejoin: round; stroke-linecap: butt}</style>
 </defs>
 <g id="figure_1">
  <g id="patch_1">
   <path d="M 0 334.908125 
L 410.869849 334.908125 
L 410.869849 0 
L 0 0 
z
" style="fill: #ffffff"/>
  </g>
  <g id="axes_1">
   <g id="patch_2">
    <path d="M 67.34 213.488372 
L 402.14 213.488372 
L 402.14 7.2 
L 67.34 7.2 
z
" style="fill: #ffffff"/>
   </g>
   <g id="patch_3">
    <path d="M 82.558182 213.488372 
L 82.558182 213.488372 
L 88.645455 213.488372 
L 88.645455 213.240935 
L 94.732727 213.240935 
L 94.732727 213.240935 
L 100.82 213.240935 
L 100.82 212.003749 
L 106.907273 212.003749 
L 106.907273 211.756312 
L 112.994545 211.756312 
L 112.994545 210.024252 
L 119.081818 210.024252 
L 119.081818 207.54988 
L 125.169091 207.54988 
L 125.169091 201.363951 
L 131.256364 201.363951 
L 131.256364 191.961338 
L 137.343636 191.961338 
L 137.343636 180.331791 
L 143.430909 180.331791 
L 143.430909 168.702244 
L 149.518182 168.702244 
L 149.518182 155.588073 
L 155.605455 155.588073 
L 155.605455 131.586667 
L 161.692727 131.586667 
L 161.692727 108.822447 
L 167.78 108.822447 
L 167.78 92.244157 
L 173.867273 92.244157 
L 173.867273 81.604358 
L 179.954545 81.604358 
L 179.954545 82.841544 
L 186.041818 82.841544 
L 186.041818 87.790288 
L 192.129091 87.790288 
L 192.129091 101.646769 
L 198.216364 101.646769 
L 198.216364 97.935212 
L 204.303636 97.935212 
L 204.303636 101.399332 
L 210.390909 101.399332 
L 210.390909 104.616015 
L 216.478182 104.616015 
L 216.478182 100.409584 
L 222.565455 100.409584 
L 222.565455 96.450589 
L 228.652727 96.450589 
L 228.652727 85.315916 
L 234.74 85.315916 
L 234.74 76.903052 
L 240.827273 76.903052 
L 240.827273 75.665866 
L 246.914545 75.665866 
L 246.914545 82.34667 
L 253.001818 82.34667 
L 253.001818 86.553102 
L 259.089091 86.553102 
L 259.089091 106.348076 
L 265.176364 106.348076 
L 265.176364 117.235311 
L 271.263636 117.235311 
L 271.263636 134.061039 
L 277.350909 134.061039 
L 277.350909 139.504657 
L 283.438182 139.504657 
L 283.438182 166.227872 
L 289.525455 166.227872 
L 289.525455 174.393299 
L 295.612727 174.393299 
L 295.612727 186.022846 
L 301.7 186.022846 
L 301.7 192.456212 
L 307.787273 192.456212 
L 307.787273 200.126765 
L 313.874545 200.126765 
L 313.874545 203.590885 
L 319.961818 203.590885 
L 319.961818 207.54988 
L 326.049091 207.54988 
L 326.049091 209.529377 
L 332.136364 209.529377 
L 332.136364 209.776814 
L 338.223636 209.776814 
L 338.223636 212.993498 
L 344.310909 212.993498 
L 344.310909 212.993498 
L 350.398182 212.993498 
L 350.398182 212.993498 
L 356.485455 212.993498 
L 356.485455 213.240935 
L 362.572727 213.240935 
L 362.572727 213.488372 
L 368.66 213.488372 
L 368.66 213.488372 
L 374.747273 213.488372 
L 374.747273 213.488372 
L 380.834545 213.488372 
L 380.834545 212.993498 
L 386.921818 212.993498 
L 386.921818 213.488372 
" clip-path="url(#pc81043a0d9)" style="fill: none; stroke: #348abd; stroke-width: 1.5; stroke-linejoin: miter"/>
   </g>
   <g id="patch_4">
    <path d="M 82.558182 213.488372 
L 82.558182 213.240935 
L 88.645455 213.240935 
L 88.645455 212.993498 
L 94.732727 212.993498 
L 94.732727 212.993498 
L 100.82 212.993498 
L 100.82 211.508875 
L 106.907273 211.508875 
L 106.907273 210.766563 
L 112.994545 210.766563 
L 112.994545 208.539629 
L 119.081818 208.539629 
L 119.081818 206.312694 
L 125.169091 206.312694 
L 125.169091 203.343448 
L 131.256364 203.343448 
L 131.256364 196.910081 
L 137.343636 196.910081 
L 137.343636 193.445961 
L 143.430909 193.445961 
L 143.430909 189.981841 
L 149.518182 189.981841 
L 149.518182 182.311288 
L 155.605455 182.311288 
L 155.605455 169.939429 
L 161.692727 169.939429 
L 161.692727 167.465058 
L 167.78 167.465058 
L 167.78 160.28938 
L 173.867273 160.28938 
L 173.867273 158.062445 
L 179.954545 158.062445 
L 179.954545 158.309882 
L 186.041818 158.309882 
L 186.041818 151.876516 
L 192.129091 151.876516 
L 192.129091 140.98928 
L 198.216364 140.98928 
L 198.216364 136.040537 
L 204.303636 136.040537 
L 204.303636 118.472497 
L 210.390909 118.472497 
L 210.390909 95.213403 
L 216.478182 95.213403 
L 216.478182 83.336418 
L 222.565455 83.336418 
L 222.565455 51.169586 
L 228.652727 51.169586 
L 228.652727 29.395115 
L 234.74 29.395115 
L 234.74 17.023256 
L 240.827273 17.023256 
L 240.827273 17.270693 
L 246.914545 17.270693 
L 246.914545 30.384863 
L 253.001818 30.384863 
L 253.001818 33.848984 
L 259.089091 33.848984 
L 259.089091 40.034913 
L 265.176364 40.034913 
L 265.176364 71.459434 
L 271.263636 71.459434 
L 271.263636 98.430086 
L 277.350909 98.430086 
L 277.350909 127.87511 
L 283.438182 127.87511 
L 283.438182 146.185461 
L 289.525455 146.185461 
L 289.525455 165.732997 
L 295.612727 165.732997 
L 295.612727 176.372796 
L 301.7 176.372796 
L 301.7 192.703649 
L 307.787273 192.703649 
L 307.787273 199.879328 
L 313.874545 199.879328 
L 313.874545 206.065257 
L 319.961818 206.065257 
L 319.961818 207.54988 
L 326.049091 207.54988 
L 326.049091 211.756312 
L 332.136364 211.756312 
L 332.136364 211.756312 
L 338.223636 211.756312 
L 338.223636 213.240935 
L 344.310909 213.240935 
L 344.310909 212.993498 
L 350.398182 212.993498 
L 350.398182 213.240935 
L 356.485455 213.240935 
L 356.485455 213.240935 
L 362.572727 213.240935 
L 362.572727 213.488372 
L 368.66 213.488372 
L 368.66 213.488372 
L 374.747273 213.488372 
L 374.747273 213.488372 
L 380.834545 213.488372 
L 380.834545 213.488372 
L 386.921818 213.488372 
L 386.921818 213.488372 
" clip-path="url(#pc81043a0d9)" style="fill: none; stroke: #e24a33; stroke-width: 1.5; stroke-linejoin: miter"/>
   </g>
   <g id="patch_5">
    <path d="M 67.34 213.488372 
L 67.34 7.2 
" style="fill: none; stroke: #000000; stroke-linejoin: miter; stroke-linecap: square"/>
   </g>
   <g id="patch_6">
    <path d="M 402.14 213.488372 
L 402.14 7.2 
" style="fill: none; stroke: #000000; stroke-linejoin: miter; stroke-linecap: square"/>
   </g>
   <g id="patch_7">
    <path d="M 67.34 213.488372 
L 402.14 213.488372 
" style="fill: none; stroke: #000000; stroke-linejoin: miter; stroke-linecap: square"/>
   </g>
   <g id="patch_8">
    <path d="M 67.34 7.2 
L 402.14 7.2 
" style="fill: none; stroke: #000000; stroke-linejoin: miter; stroke-linecap: square"/>
   </g>
   <g id="matplotlib.axis_1">
    <g id="xtick_1">
     <g id="line2d_1">
      <defs>
       <path id="m8dec1b3d1d" d="M 0 0 
L 0 -6 
" style="stroke: #1a1a1a; stroke-width: 0.8"/>
      </defs>
      <g>
       <use xlink:href="#m8dec1b3d1d" x="127.621843" y="213.488372" style="fill: #1a1a1a; stroke: #1a1a1a; stroke-width: 0.8"/>
      </g>
     </g>
    </g>
    <g id="xtick_2">
     <g id="line2d_2">
      <g>
       <use xlink:href="#m8dec1b3d1d" x="212.246031" y="213.488372" style="fill: #1a1a1a; stroke: #1a1a1a; stroke-width: 0.8"/>
      </g>
     </g>
    </g>
    <g id="xtick_3">
     <g id="line2d_3">
      <g>
       <use xlink:href="#m8dec1b3d1d" x="296.87022" y="213.488372" style="fill: #1a1a1a; stroke: #1a1a1a; stroke-width: 0.8"/>
      </g>
     </g>
    </g>
    <g id="xtick_4">
     <g id="line2d_4">
      <g>
       <use xlink:href="#m8dec1b3d1d" x="381.494408" y="213.488372" style="fill: #1a1a1a; stroke: #1a1a1a; stroke-width: 0.8"/>
      </g>
     </g>
    </g>
    <g id="xtick_5">
     <g id="line2d_5">
      <defs>
       <path id="m131efc0c90" d="M 0 0 
L 0 -3 
" style="stroke: #1a1a1a; stroke-width: 0.6"/>
      </defs>
      <g>
       <use xlink:href="#m131efc0c90" x="76.84733" y="213.488372" style="fill: #1a1a1a; stroke: #1a1a1a; stroke-width: 0.6"/>
      </g>
     </g>
    </g>
    <g id="xtick_6">
     <g id="line2d_6">
      <g>
       <use xlink:href="#m131efc0c90" x="93.772168" y="213.488372" style="fill: #1a1a1a; stroke: #1a1a1a; stroke-width: 0.6"/>
      </g>
     </g>
    </g>
    <g id="xtick_7">
     <g id="line2d_7">
      <g>
       <use xlink:href="#m131efc0c90" x="110.697005" y="213.488372" style="fill: #1a1a1a; stroke: #1a1a1a; stroke-width: 0.6"/>
      </g>
     </g>
    </g>
    <g id="xtick_8">
     <g id="line2d_8">
      <g>
       <use xlink:href="#m131efc0c90" x="144.546681" y="213.488372" style="fill: #1a1a1a; stroke: #1a1a1a; stroke-width: 0.6"/>
      </g>
     </g>
    </g>
    <g id="xtick_9">
     <g id="line2d_9">
      <g>
       <use xlink:href="#m131efc0c90" x="161.471518" y="213.488372" style="fill: #1a1a1a; stroke: #1a1a1a; stroke-width: 0.6"/>
      </g>
     </g>
    </g>
    <g id="xtick_10">
     <g id="line2d_10">
      <g>
       <use xlink:href="#m131efc0c90" x="178.396356" y="213.488372" style="fill: #1a1a1a; stroke: #1a1a1a; stroke-width: 0.6"/>
      </g>
     </g>
    </g>
    <g id="xtick_11">
     <g id="line2d_11">
      <g>
       <use xlink:href="#m131efc0c90" x="195.321194" y="213.488372" style="fill: #1a1a1a; stroke: #1a1a1a; stroke-width: 0.6"/>
      </g>
     </g>
    </g>
    <g id="xtick_12">
     <g id="line2d_12">
      <g>
       <use xlink:href="#m131efc0c90" x="229.170869" y="213.488372" style="fill: #1a1a1a; stroke: #1a1a1a; stroke-width: 0.6"/>
      </g>
     </g>
    </g>
    <g id="xtick_13">
     <g id="line2d_13">
      <g>
       <use xlink:href="#m131efc0c90" x="246.095707" y="213.488372" style="fill: #1a1a1a; stroke: #1a1a1a; stroke-width: 0.6"/>
      </g>
     </g>
    </g>
    <g id="xtick_14">
     <g id="line2d_14">
      <g>
       <use xlink:href="#m131efc0c90" x="263.020544" y="213.488372" style="fill: #1a1a1a; stroke: #1a1a1a; stroke-width: 0.6"/>
      </g>
     </g>
    </g>
    <g id="xtick_15">
     <g id="line2d_15">
      <g>
       <use xlink:href="#m131efc0c90" x="279.945382" y="213.488372" style="fill: #1a1a1a; stroke: #1a1a1a; stroke-width: 0.6"/>
      </g>
     </g>
    </g>
    <g id="xtick_16">
     <g id="line2d_16">
      <g>
       <use xlink:href="#m131efc0c90" x="313.795057" y="213.488372" style="fill: #1a1a1a; stroke: #1a1a1a; stroke-width: 0.6"/>
      </g>
     </g>
    </g>
    <g id="xtick_17">
     <g id="line2d_17">
      <g>
       <use xlink:href="#m131efc0c90" x="330.719895" y="213.488372" style="fill: #1a1a1a; stroke: #1a1a1a; stroke-width: 0.6"/>
      </g>
     </g>
    </g>
    <g id="xtick_18">
     <g id="line2d_18">
      <g>
       <use xlink:href="#m131efc0c90" x="347.644733" y="213.488372" style="fill: #1a1a1a; stroke: #1a1a1a; stroke-width: 0.6"/>
      </g>
     </g>
    </g>
    <g id="xtick_19">
     <g id="line2d_19">
      <g>
       <use xlink:href="#m131efc0c90" x="364.56957" y="213.488372" style="fill: #1a1a1a; stroke: #1a1a1a; stroke-width: 0.6"/>
      </g>
     </g>
    </g>
    <g id="xtick_20">
     <g id="line2d_20">
      <g>
       <use xlink:href="#m131efc0c90" x="398.419246" y="213.488372" style="fill: #1a1a1a; stroke: #1a1a1a; stroke-width: 0.6"/>
      </g>
     </g>
    </g>
   </g>
   <g id="matplotlib.axis_2">
    <g id="ytick_1">
     <g id="line2d_21">
      <defs>
       <path id="mc947610920" d="M 0 0 
L 6 0 
" style="stroke: #1a1a1a; stroke-width: 0.8"/>
      </defs>
      <g>
       <use xlink:href="#mc947610920" x="67.34" y="213.488372" style="fill: #1a1a1a; stroke: #1a1a1a; stroke-width: 0.8"/>
      </g>
     </g>
     <g id="text_1">
      <!-- $\mathdefault{0}$ -->
      <g style="fill: #1a1a1a" transform="translate(54.84 218.693841) scale(0.15 -0.15)">
       <defs>
        <path id="LatinModernMath-Regular-30" d="M 2944 2048 
C 2944 2560 2912 3072 2688 3546 
C 2394 4160 1869 4262 1600 4262 
C 1216 4262 749 4096 486 3501 
C 282 3059 250 2560 250 2048 
C 250 1568 275 992 538 506 
C 813 -13 1280 -141 1594 -141 
C 1939 -141 2426 -6 2707 602 
C 2912 1043 2944 1542 2944 2048 
z
M 2413 2125 
C 2413 1645 2413 1210 2342 800 
C 2246 192 1882 0 1594 0 
C 1344 0 966 160 851 774 
C 781 1158 781 1747 781 2125 
C 781 2534 781 2957 832 3302 
C 954 4064 1434 4122 1594 4122 
C 1805 4122 2227 4006 2349 3373 
C 2413 3014 2413 2528 2413 2125 
z
" transform="scale(0.015625)"/>
       </defs>
       <use xlink:href="#LatinModernMath-Regular-30" transform="translate(0 0.40625)"/>
      </g>
     </g>
    </g>
    <g id="ytick_2">
     <g id="line2d_22">
      <g>
       <use xlink:href="#mc947610920" x="67.34" y="164.000937" style="fill: #1a1a1a; stroke: #1a1a1a; stroke-width: 0.8"/>
      </g>
     </g>
     <g id="text_2">
      <!-- $\mathdefault{200}$ -->
      <g style="fill: #1a1a1a" transform="translate(39.84 169.206406) scale(0.15 -0.15)">
       <defs>
        <path id="LatinModernMath-Regular-32" d="M 2874 1114 
L 2714 1114 
C 2682 922 2637 640 2573 544 
C 2528 493 2106 493 1965 493 
L 813 493 
L 1491 1152 
C 2490 2035 2874 2381 2874 3021 
C 2874 3750 2298 4262 1517 4262 
C 794 4262 320 3674 320 3104 
C 320 2746 640 2746 659 2746 
C 768 2746 992 2822 992 3085 
C 992 3251 877 3418 653 3418 
C 602 3418 589 3418 570 3411 
C 717 3827 1062 4064 1434 4064 
C 2016 4064 2291 3546 2291 3021 
C 2291 2509 1971 2003 1619 1606 
L 390 237 
C 320 166 320 154 320 0 
L 2694 0 
L 2874 1114 
z
" transform="scale(0.015625)"/>
       </defs>
       <use xlink:href="#LatinModernMath-Regular-32" transform="translate(0 0.40625)"/>
       <use xlink:href="#LatinModernMath-Regular-30" transform="translate(49.999985 0.40625)"/>
       <use xlink:href="#LatinModernMath-Regular-30" transform="translate(99.999969 0.40625)"/>
      </g>
     </g>
    </g>
    <g id="ytick_3">
     <g id="line2d_23">
      <g>
       <use xlink:href="#mc947610920" x="67.34" y="114.513502" style="fill: #1a1a1a; stroke: #1a1a1a; stroke-width: 0.8"/>
      </g>
     </g>
     <g id="text_3">
      <!-- $\mathdefault{400}$ -->
      <g style="fill: #1a1a1a" transform="translate(39.84 119.718971) scale(0.15 -0.15)">
       <defs>
        <path id="LatinModernMath-Regular-34" d="M 3014 1056 
L 3014 1254 
L 2374 1254 
L 2374 4166 
C 2374 4294 2374 4333 2272 4333 
C 2214 4333 2195 4333 2144 4256 
L 179 1254 
L 179 1056 
L 1882 1056 
L 1882 499 
C 1882 269 1869 198 1395 198 
L 1261 198 
L 1261 0 
C 1523 19 1856 19 2125 19 
C 2394 19 2733 19 2995 0 
L 2995 198 
L 2861 198 
C 2387 198 2374 269 2374 499 
L 2374 1056 
L 3014 1056 
z
M 1920 1254 
L 358 1254 
L 1920 3642 
L 1920 1254 
z
" transform="scale(0.015625)"/>
       </defs>
       <use xlink:href="#LatinModernMath-Regular-34" transform="translate(0 0.296875)"/>
       <use xlink:href="#LatinModernMath-Regular-30" transform="translate(49.999985 0.296875)"/>
       <use xlink:href="#LatinModernMath-Regular-30" transform="translate(99.999969 0.296875)"/>
      </g>
     </g>
    </g>
    <g id="ytick_4">
     <g id="line2d_24">
      <g>
       <use xlink:href="#mc947610920" x="67.34" y="65.026068" style="fill: #1a1a1a; stroke: #1a1a1a; stroke-width: 0.8"/>
      </g>
     </g>
     <g id="text_4">
      <!-- $\mathdefault{600}$ -->
      <g style="fill: #1a1a1a" transform="translate(39.84 70.231536) scale(0.15 -0.15)">
       <defs>
        <path id="LatinModernMath-Regular-36" d="M 2925 1306 
C 2925 2118 2355 2733 1645 2733 
C 1210 2733 973 2406 845 2099 
L 845 2253 
C 845 3872 1638 4102 1965 4102 
C 2118 4102 2387 4064 2528 3846 
C 2432 3846 2176 3846 2176 3558 
C 2176 3360 2330 3264 2470 3264 
C 2573 3264 2765 3322 2765 3571 
C 2765 3955 2483 4262 1952 4262 
C 1133 4262 269 3437 269 2022 
C 269 314 1011 -141 1606 -141 
C 2317 -141 2925 461 2925 1306 
z
M 2349 1312 
C 2349 1005 2349 685 2240 454 
C 2048 70 1754 38 1606 38 
C 1203 38 1011 422 973 518 
C 858 819 858 1331 858 1446 
C 858 1946 1062 2586 1638 2586 
C 1741 2586 2035 2586 2234 2189 
C 2349 1952 2349 1626 2349 1312 
z
" transform="scale(0.015625)"/>
       </defs>
       <use xlink:href="#LatinModernMath-Regular-36" transform="translate(0 0.40625)"/>
       <use xlink:href="#LatinModernMath-Regular-30" transform="translate(49.999985 0.40625)"/>
       <use xlink:href="#LatinModernMath-Regular-30" transform="translate(99.999969 0.40625)"/>
      </g>
     </g>
    </g>
    <g id="ytick_5">
     <g id="line2d_25">
      <g>
       <use xlink:href="#mc947610920" x="67.34" y="15.538633" style="fill: #1a1a1a; stroke: #1a1a1a; stroke-width: 0.8"/>
      </g>
     </g>
     <g id="text_5">
      <!-- $\mathdefault{800}$ -->
      <g style="fill: #1a1a1a" transform="translate(39.84 20.744102) scale(0.15 -0.15)">
       <defs>
        <path id="LatinModernMath-Regular-38" d="M 2925 1075 
C 2925 1306 2854 1594 2611 1862 
C 2490 1997 2387 2061 1978 2317 
C 2438 2554 2752 2886 2752 3309 
C 2752 3898 2182 4262 1600 4262 
C 960 4262 442 3789 442 3194 
C 442 3078 454 2790 723 2490 
C 794 2413 1030 2253 1190 2144 
C 819 1958 269 1600 269 966 
C 269 288 922 -141 1594 -141 
C 2317 -141 2925 390 2925 1075 
z
M 2470 3309 
C 2470 2944 2221 2637 1837 2413 
L 1043 2925 
C 749 3117 723 3334 723 3443 
C 723 3834 1139 4102 1594 4102 
C 2061 4102 2470 3770 2470 3309 
z
M 2605 845 
C 2605 371 2125 38 1600 38 
C 1050 38 589 435 589 966 
C 589 1338 794 1747 1338 2048 
L 2125 1549 
C 2304 1427 2605 1235 2605 845 
z
" transform="scale(0.015625)"/>
       </defs>
       <use xlink:href="#LatinModernMath-Regular-38" transform="translate(0 0.40625)"/>
       <use xlink:href="#LatinModernMath-Regular-30" transform="translate(49.999985 0.40625)"/>
       <use xlink:href="#LatinModernMath-Regular-30" transform="translate(99.999969 0.40625)"/>
      </g>
     </g>
    </g>
    <g id="ytick_6">
     <g id="line2d_26">
      <defs>
       <path id="m5f9d1e6504" d="M 0 0 
L 3 0 
" style="stroke: #1a1a1a; stroke-width: 0.6"/>
      </defs>
      <g>
       <use xlink:href="#m5f9d1e6504" x="67.34" y="201.116513" style="fill: #1a1a1a; stroke: #1a1a1a; stroke-width: 0.6"/>
      </g>
     </g>
    </g>
    <g id="ytick_7">
     <g id="line2d_27">
      <g>
       <use xlink:href="#m5f9d1e6504" x="67.34" y="188.744655" style="fill: #1a1a1a; stroke: #1a1a1a; stroke-width: 0.6"/>
      </g>
     </g>
    </g>
    <g id="ytick_8">
     <g id="line2d_28">
      <g>
       <use xlink:href="#m5f9d1e6504" x="67.34" y="176.372796" style="fill: #1a1a1a; stroke: #1a1a1a; stroke-width: 0.6"/>
      </g>
     </g>
    </g>
    <g id="ytick_9">
     <g id="line2d_29">
      <g>
       <use xlink:href="#m5f9d1e6504" x="67.34" y="151.629079" style="fill: #1a1a1a; stroke: #1a1a1a; stroke-width: 0.6"/>
      </g>
     </g>
    </g>
    <g id="ytick_10">
     <g id="line2d_30">
      <g>
       <use xlink:href="#m5f9d1e6504" x="67.34" y="139.25722" style="fill: #1a1a1a; stroke: #1a1a1a; stroke-width: 0.6"/>
      </g>
     </g>
    </g>
    <g id="ytick_11">
     <g id="line2d_31">
      <g>
       <use xlink:href="#m5f9d1e6504" x="67.34" y="126.885361" style="fill: #1a1a1a; stroke: #1a1a1a; stroke-width: 0.6"/>
      </g>
     </g>
    </g>
    <g id="ytick_12">
     <g id="line2d_32">
      <g>
       <use xlink:href="#m5f9d1e6504" x="67.34" y="102.141644" style="fill: #1a1a1a; stroke: #1a1a1a; stroke-width: 0.6"/>
      </g>
     </g>
    </g>
    <g id="ytick_13">
     <g id="line2d_33">
      <g>
       <use xlink:href="#m5f9d1e6504" x="67.34" y="89.769785" style="fill: #1a1a1a; stroke: #1a1a1a; stroke-width: 0.6"/>
      </g>
     </g>
    </g>
    <g id="ytick_14">
     <g id="line2d_34">
      <g>
       <use xlink:href="#m5f9d1e6504" x="67.34" y="77.397926" style="fill: #1a1a1a; stroke: #1a1a1a; stroke-width: 0.6"/>
      </g>
     </g>
    </g>
    <g id="ytick_15">
     <g id="line2d_35">
      <g>
       <use xlink:href="#m5f9d1e6504" x="67.34" y="52.654209" style="fill: #1a1a1a; stroke: #1a1a1a; stroke-width: 0.6"/>
      </g>
     </g>
    </g>
    <g id="ytick_16">
     <g id="line2d_36">
      <g>
       <use xlink:href="#m5f9d1e6504" x="67.34" y="40.28235" style="fill: #1a1a1a; stroke: #1a1a1a; stroke-width: 0.6"/>
      </g>
     </g>
    </g>
    <g id="ytick_17">
     <g id="line2d_37">
      <g>
       <use xlink:href="#m5f9d1e6504" x="67.34" y="27.910491" style="fill: #1a1a1a; stroke: #1a1a1a; stroke-width: 0.6"/>
      </g>
     </g>
    </g>
    <g id="text_6">
     <!-- Entries -->
     <g style="fill: #1a1a1a" transform="translate(30.346875 138.550749) rotate(-90) scale(0.18 -0.18)">
      <defs>
       <path id="LatinModernMath-Regular-45" d="M 4173 1651 
L 4013 1651 
C 3853 666 3706 198 2605 198 
L 1754 198 
C 1453 198 1440 243 1440 454 
L 1440 2163 
L 2016 2163 
C 2637 2163 2707 1958 2707 1414 
L 2867 1414 
L 2867 3110 
L 2707 3110 
C 2707 2560 2637 2362 2016 2362 
L 1440 2362 
L 1440 3898 
C 1440 4109 1453 4154 1754 4154 
L 2579 4154 
C 3558 4154 3731 3802 3834 2912 
L 3994 2912 
L 3814 4352 
L 211 4352 
L 211 4154 
L 365 4154 
C 858 4154 870 4083 870 3853 
L 870 499 
C 870 269 858 198 365 198 
L 211 198 
L 211 0 
L 3904 0 
L 4173 1651 
z
" transform="scale(0.015625)"/>
       <path id="LatinModernMath-Regular-6e" d="M 3424 0 
L 3424 198 
C 3091 198 2931 198 2925 390 
L 2925 1613 
C 2925 2163 2925 2362 2726 2592 
C 2637 2701 2426 2829 2054 2829 
C 1587 2829 1286 2554 1107 2157 
L 1107 2829 
L 205 2758 
L 205 2560 
C 653 2560 704 2515 704 2202 
L 704 486 
C 704 198 634 198 205 198 
L 205 0 
L 928 19 
L 1645 0 
L 1645 198 
C 1216 198 1146 198 1146 486 
L 1146 1664 
C 1146 2330 1600 2688 2010 2688 
C 2413 2688 2483 2342 2483 1978 
L 2483 486 
C 2483 198 2413 198 1984 198 
L 1984 0 
L 2707 19 
L 3424 0 
z
" transform="scale(0.015625)"/>
       <path id="LatinModernMath-Regular-74" d="M 2125 794 
L 2125 1158 
L 1965 1158 
L 1965 806 
C 1965 333 1773 90 1536 90 
C 1107 90 1107 672 1107 781 
L 1107 2560 
L 2022 2560 
L 2022 2758 
L 1107 2758 
L 1107 3936 
L 947 3936 
C 941 3411 749 2726 122 2701 
L 122 2560 
L 666 2560 
L 666 794 
C 666 6 1261 -70 1491 -70 
C 1946 -70 2125 384 2125 794 
z
" transform="scale(0.015625)"/>
       <path id="LatinModernMath-Regular-72" d="M 2330 2438 
C 2330 2643 2131 2829 1856 2829 
C 1389 2829 1158 2400 1069 2125 
L 1069 2829 
L 179 2758 
L 179 2560 
C 627 2560 678 2515 678 2202 
L 678 486 
C 678 198 608 198 179 198 
L 179 0 
L 909 19 
C 1165 19 1466 19 1722 0 
L 1722 198 
L 1587 198 
C 1114 198 1101 269 1101 499 
L 1101 1485 
C 1101 2118 1370 2688 1856 2688 
C 1901 2688 1914 2688 1926 2682 
C 1907 2675 1779 2598 1779 2432 
C 1779 2253 1914 2157 2054 2157 
C 2170 2157 2330 2234 2330 2438 
z
" transform="scale(0.015625)"/>
       <path id="LatinModernMath-Regular-69" d="M 1581 0 
L 1581 198 
C 1158 198 1133 230 1133 480 
L 1133 2829 
L 237 2758 
L 237 2560 
C 653 2560 710 2522 710 2208 
L 710 486 
C 710 198 640 198 211 198 
L 211 0 
L 915 19 
C 1139 19 1363 6 1581 0 
z
M 1229 3866 
C 1229 4038 1082 4205 890 4205 
C 672 4205 544 4026 544 3866 
C 544 3693 691 3526 883 3526 
C 1101 3526 1229 3706 1229 3866 
z
" transform="scale(0.015625)"/>
       <path id="LatinModernMath-Regular-65" d="M 2656 762 
C 2656 826 2605 838 2573 838 
C 2515 838 2502 800 2490 749 
C 2266 90 1690 90 1626 90 
C 1306 90 1050 282 902 518 
C 710 826 710 1248 710 1478 
L 2496 1478 
C 2637 1478 2656 1478 2656 1613 
C 2656 2246 2310 2867 1510 2867 
C 768 2867 179 2208 179 1408 
C 179 550 851 -70 1587 -70 
C 2368 -70 2656 640 2656 762 
z
M 2234 1613 
L 717 1613 
C 755 2566 1293 2726 1510 2726 
C 2170 2726 2234 1862 2234 1613 
z
" transform="scale(0.015625)"/>
       <path id="LatinModernMath-Regular-73" d="M 2304 819 
C 2304 1158 2112 1350 2035 1427 
C 1824 1632 1574 1683 1306 1734 
C 947 1805 518 1888 518 2259 
C 518 2483 685 2746 1235 2746 
C 1939 2746 1971 2170 1984 1971 
C 1990 1914 2061 1914 2061 1914 
C 2144 1914 2144 1946 2144 2067 
L 2144 2714 
C 2144 2822 2144 2867 2074 2867 
C 2042 2867 2029 2867 1946 2790 
C 1926 2765 1862 2707 1837 2688 
C 1594 2867 1331 2867 1235 2867 
C 454 2867 211 2438 211 2080 
C 211 1856 314 1677 486 1536 
C 691 1370 870 1331 1331 1242 
C 1472 1216 1997 1114 1997 653 
C 1997 326 1773 70 1274 70 
C 736 70 506 435 384 979 
C 365 1062 358 1088 294 1088 
C 211 1088 211 1043 211 928 
L 211 83 
C 211 -26 211 -70 282 -70 
C 314 -70 320 -64 442 58 
C 454 70 454 83 570 205 
C 851 -64 1139 -70 1274 -70 
C 2010 -70 2304 358 2304 819 
z
" transform="scale(0.015625)"/>
      </defs>
      <use xlink:href="#LatinModernMath-Regular-45"/>
      <use xlink:href="#LatinModernMath-Regular-6e" x="68.099991"/>
      <use xlink:href="#LatinModernMath-Regular-74" x="123.699982"/>
      <use xlink:href="#LatinModernMath-Regular-72" x="162.599976"/>
      <use xlink:href="#LatinModernMath-Regular-69" x="201.799973"/>
      <use xlink:href="#LatinModernMath-Regular-65" x="229.59996"/>
      <use xlink:href="#LatinModernMath-Regular-73" x="273.999954"/>
     </g>
    </g>
   </g>
   <g id="legend_1">
    <g id="line2d_38">
     <path d="M 346.46 22.2 
L 370.46 22.2 
" style="fill: none; stroke: #348abd; stroke-width: 1.5; stroke-linecap: round"/>
    </g>
    <g id="text_7">
     <!-- $\mathbfit{h}_1$ -->
     <g style="fill: #1a1a1a" transform="translate(380.06 26.4) scale(0.12 -0.12)">
      <defs>
       <path id="STIXGeneral-BoldItalic-68" d="M 3046 909 
L 3187 813 
Q 2867 320 2640 131 
Q 2413 -58 2118 -58 
Q 1926 -58 1811 51 
Q 1696 160 1696 352 
Q 1696 544 1766 800 
Q 1837 1056 2086 1792 
L 2214 2170 
Q 2259 2304 2259 2362 
Q 2259 2496 2131 2496 
Q 1862 2496 1453 1894 
Q 1222 1555 1081 1203 
Q 941 851 691 0 
L -83 0 
L 890 3597 
Q 954 3834 954 3898 
Q 954 4109 685 4109 
L 544 4109 
L 544 4282 
Q 1178 4339 1882 4474 
L 1190 1811 
Q 1664 2483 1945 2720 
Q 2227 2957 2554 2957 
Q 2790 2957 2915 2829 
Q 3040 2701 3040 2477 
Q 3040 2298 2854 1722 
L 2477 557 
Q 2458 506 2458 480 
Q 2458 448 2493 413 
Q 2528 378 2566 378 
Q 2675 378 3046 909 
z
" transform="scale(0.015625)"/>
       <path id="LatinModernMath-Regular-31" d="M 2682 0 
L 2682 198 
L 2477 198 
C 1901 198 1882 269 1882 506 
L 1882 4096 
C 1882 4250 1882 4262 1734 4262 
C 1338 3853 774 3853 570 3853 
L 570 3654 
C 698 3654 1075 3654 1408 3821 
L 1408 506 
C 1408 275 1389 198 813 198 
L 608 198 
L 608 0 
C 832 19 1389 19 1645 19 
C 1901 19 2458 19 2682 0 
z
" transform="scale(0.015625)"/>
      </defs>
      <use xlink:href="#STIXGeneral-BoldItalic-68" transform="translate(0 0.09375)"/>
      <use xlink:href="#LatinModernMath-Regular-31" transform="translate(56.354131 -12.834375) scale(0.7)"/>
     </g>
    </g>
    <g id="line2d_39">
     <path d="M 346.46 38.92875 
L 370.46 38.92875 
" style="fill: none; stroke: #e24a33; stroke-width: 1.5; stroke-linecap: round"/>
    </g>
    <g id="text_8">
     <!-- $\mathbfit{h}_2$ -->
     <g style="fill: #1a1a1a" transform="translate(380.06 43.12875) scale(0.12 -0.12)">
      <use xlink:href="#STIXGeneral-BoldItalic-68" transform="translate(0 0.09375)"/>
      <use xlink:href="#LatinModernMath-Regular-32" transform="translate(56.354131 -12.834375) scale(0.7)"/>
     </g>
    </g>
   </g>
  </g>
  <g id="axes_2">
   <g id="patch_9">
    <path d="M 67.34 284.4 
L 402.14 284.4 
L 402.14 232.827907 
L 67.34 232.827907 
z
" style="fill: #ffffff"/>
   </g>
   <g id="LineCollection_1">
    <path d="M 70.688 320.866977 
L 70.688 247.933023 
" clip-path="url(#p0c74028b7f)" style="fill: none; stroke: #000000; stroke-width: 1.5"/>
    <path d="M 77.384 282.90219 
L 77.384 251.516414 
" clip-path="url(#p0c74028b7f)" style="fill: none; stroke: #000000; stroke-width: 1.5"/>
    <path d="M 84.08 282.90219 
L 84.08 251.516414 
" clip-path="url(#p0c74028b7f)" style="fill: none; stroke: #000000; stroke-width: 1.5"/>
    <path d="M 90.776 269.259253 
L 90.776 255.336096 
" clip-path="url(#p0c74028b7f)" style="fill: none; stroke: #000000; stroke-width: 1.5"/>
    <path d="M 97.472 270.570277 
L 97.472 258.118095 
" clip-path="url(#p0c74028b7f)" style="fill: none; stroke: #000000; stroke-width: 1.5"/>
    <path d="M 104.168 267.655034 
L 104.168 258.673831 
" clip-path="url(#p0c74028b7f)" style="fill: none; stroke: #000000; stroke-width: 1.5"/>
    <path d="M 110.864 264.604312 
L 110.864 257.488887 
" clip-path="url(#p0c74028b7f)" style="fill: none; stroke: #000000; stroke-width: 1.5"/>
    <path d="M 117.56 259.050665 
L 117.56 253.593056 
" clip-path="url(#p0c74028b7f)" style="fill: none; stroke: #000000; stroke-width: 1.5"/>
    <path d="M 124.256 257.360465 
L 124.256 253.169768 
" clip-path="url(#p0c74028b7f)" style="fill: none; stroke: #000000; stroke-width: 1.5"/>
    <path d="M 130.952 254.068632 
L 130.952 250.446154 
" clip-path="url(#p0c74028b7f)" style="fill: none; stroke: #000000; stroke-width: 1.5"/>
    <path d="M 137.648 252.204913 
L 137.648 248.953429 
" clip-path="url(#p0c74028b7f)" style="fill: none; stroke: #000000; stroke-width: 1.5"/>
    <path d="M 144.344 252.297023 
L 144.344 249.459256 
" clip-path="url(#p0c74028b7f)" style="fill: none; stroke: #000000; stroke-width: 1.5"/>
    <path d="M 151.04 251.928166 
L 151.04 249.533124 
" clip-path="url(#p0c74028b7f)" style="fill: none; stroke: #000000; stroke-width: 1.5"/>
    <path d="M 157.736 249.700229 
L 157.736 247.457751 
" clip-path="url(#p0c74028b7f)" style="fill: none; stroke: #000000; stroke-width: 1.5"/>
    <path d="M 164.432 249.597994 
L 164.432 247.513139 
" clip-path="url(#p0c74028b7f)" style="fill: none; stroke: #000000; stroke-width: 1.5"/>
    <path d="M 171.128 249.100623 
L 171.128 247.07606 
" clip-path="url(#p0c74028b7f)" style="fill: none; stroke: #000000; stroke-width: 1.5"/>
    <path d="M 177.824 249.157176 
L 177.824 247.126006 
" clip-path="url(#p0c74028b7f)" style="fill: none; stroke: #000000; stroke-width: 1.5"/>
    <path d="M 184.52 250.782062 
L 184.52 248.800968 
" clip-path="url(#p0c74028b7f)" style="fill: none; stroke: #000000; stroke-width: 1.5"/>
    <path d="M 191.216 254.076627 
L 191.216 252.144619 
" clip-path="url(#p0c74028b7f)" style="fill: none; stroke: #000000; stroke-width: 1.5"/>
    <path d="M 197.912 254.463974 
L 197.912 252.58175 
" clip-path="url(#p0c74028b7f)" style="fill: none; stroke: #000000; stroke-width: 1.5"/>
    <path d="M 204.608 257.382542 
L 204.608 255.593902 
" clip-path="url(#p0c74028b7f)" style="fill: none; stroke: #000000; stroke-width: 1.5"/>
    <path d="M 211.304 260.533145 
L 211.304 258.829555 
" clip-path="url(#p0c74028b7f)" style="fill: none; stroke: #000000; stroke-width: 1.5"/>
    <path d="M 218 261.248432 
L 218 259.59949 
" clip-path="url(#p0c74028b7f)" style="fill: none; stroke: #000000; stroke-width: 1.5"/>
    <path d="M 224.696 263.571067 
L 224.696 262.016178 
" clip-path="url(#p0c74028b7f)" style="fill: none; stroke: #000000; stroke-width: 1.5"/>
    <path d="M 231.392 263.969151 
L 231.392 262.494329 
" clip-path="url(#p0c74028b7f)" style="fill: none; stroke: #000000; stroke-width: 1.5"/>
    <path d="M 238.088 263.964197 
L 238.088 262.535959 
" clip-path="url(#p0c74028b7f)" style="fill: none; stroke: #000000; stroke-width: 1.5"/>
    <path d="M 244.784 263.834187 
L 244.784 262.409286 
" clip-path="url(#p0c74028b7f)" style="fill: none; stroke: #000000; stroke-width: 1.5"/>
    <path d="M 251.48 263.611187 
L 251.48 262.144389 
" clip-path="url(#p0c74028b7f)" style="fill: none; stroke: #000000; stroke-width: 1.5"/>
    <path d="M 258.176 263.790222 
L 258.176 262.303589 
" clip-path="url(#p0c74028b7f)" style="fill: none; stroke: #000000; stroke-width: 1.5"/>
    <path d="M 264.872 265.494838 
L 264.872 263.921182 
" clip-path="url(#p0c74028b7f)" style="fill: none; stroke: #000000; stroke-width: 1.5"/>
    <path d="M 271.568 264.413797 
L 271.568 262.721521 
" clip-path="url(#p0c74028b7f)" style="fill: none; stroke: #000000; stroke-width: 1.5"/>
    <path d="M 278.264 264.273181 
L 278.264 262.403049 
" clip-path="url(#p0c74028b7f)" style="fill: none; stroke: #000000; stroke-width: 1.5"/>
    <path d="M 284.96 261.510953 
L 284.96 259.47492 
" clip-path="url(#p0c74028b7f)" style="fill: none; stroke: #000000; stroke-width: 1.5"/>
    <path d="M 291.656 264.341699 
L 291.656 261.908539 
" clip-path="url(#p0c74028b7f)" style="fill: none; stroke: #000000; stroke-width: 1.5"/>
    <path d="M 298.352 262.568395 
L 298.352 259.802029 
" clip-path="url(#p0c74028b7f)" style="fill: none; stroke: #000000; stroke-width: 1.5"/>
    <path d="M 305.048 264.080878 
L 305.048 260.853204 
" clip-path="url(#p0c74028b7f)" style="fill: none; stroke: #000000; stroke-width: 1.5"/>
    <path d="M 311.744 260.44495 
L 311.744 256.477797 
" clip-path="url(#p0c74028b7f)" style="fill: none; stroke: #000000; stroke-width: 1.5"/>
    <path d="M 318.44 261.320482 
L 318.44 256.380563 
" clip-path="url(#p0c74028b7f)" style="fill: none; stroke: #000000; stroke-width: 1.5"/>
    <path d="M 325.136 258.043545 
L 325.136 251.81692 
" clip-path="url(#p0c74028b7f)" style="fill: none; stroke: #000000; stroke-width: 1.5"/>
    <path d="M 331.832 262.335849 
L 331.832 254.892058 
" clip-path="url(#p0c74028b7f)" style="fill: none; stroke: #000000; stroke-width: 1.5"/>
    <path d="M 338.528 254.297511 
L 338.528 242.750012 
" clip-path="url(#p0c74028b7f)" style="fill: none; stroke: #000000; stroke-width: 1.5"/>
    <path d="M 345.224 255.087009 
L 345.224 243.387409 
" clip-path="url(#p0c74028b7f)" style="fill: none; stroke: #000000; stroke-width: 1.5"/>
    <path d="M 351.92 265.711493 
L 351.92 234.325716 
" clip-path="url(#p0c74028b7f)" style="fill: none; stroke: #000000; stroke-width: 1.5"/>
    <path d="M 358.616 271.506977 
L 358.616 245.72093 
" clip-path="url(#p0c74028b7f)" style="fill: none; stroke: #000000; stroke-width: 1.5"/>
    <path d="M 365.312 265.711493 
L 365.312 234.325716 
" clip-path="url(#p0c74028b7f)" style="fill: none; stroke: #000000; stroke-width: 1.5"/>
    <path d="M 372.008 276.847442 
L 372.008 240.380465 
" clip-path="url(#p0c74028b7f)" style="fill: none; stroke: #000000; stroke-width: 1.5"/>
    <path clip-path="url(#p0c74028b7f)" style="fill: none; stroke: #000000; stroke-width: 1.5"/>
    <path clip-path="url(#p0c74028b7f)" style="fill: none; stroke: #000000; stroke-width: 1.5"/>
    <path clip-path="url(#p0c74028b7f)" style="fill: none; stroke: #000000; stroke-width: 1.5"/>
    <path d="M 398.792 258.613953 
L 398.792 207.04186 
" clip-path="url(#p0c74028b7f)" style="fill: none; stroke: #000000; stroke-width: 1.5"/>
   </g>
   <g id="line2d_40">
    <path d="M 67.34 258.613953 
L 402.14 258.613953 
" clip-path="url(#p0c74028b7f)" style="fill: none; stroke-dasharray: 3.7,1.6; stroke-dashoffset: 0; stroke: #000000"/>
   </g>
   <g id="line2d_41">
    <defs>
     <path id="meae5c0c399" d="M 0 1.5 
C 0.397805 1.5 0.77937 1.341951 1.06066 1.06066 
C 1.341951 0.77937 1.5 0.397805 1.5 0 
C 1.5 -0.397805 1.341951 -0.77937 1.06066 -1.06066 
C 0.77937 -1.341951 0.397805 -1.5 0 -1.5 
C -0.397805 -1.5 -0.77937 -1.341951 -1.06066 -1.06066 
C -1.341951 -0.77937 -1.5 -0.397805 -1.5 0 
C -1.5 0.397805 -1.341951 0.77937 -1.06066 1.06066 
C -0.77937 1.341951 -0.397805 1.5 0 1.5 
z
" style="stroke: #000000"/>
    </defs>
    <g clip-path="url(#p0c74028b7f)">
     <use xlink:href="#meae5c0c399" x="70.688" y="284.4" style="stroke: #000000"/>
     <use xlink:href="#meae5c0c399" x="77.384" y="267.209302" style="stroke: #000000"/>
     <use xlink:href="#meae5c0c399" x="84.08" y="267.209302" style="stroke: #000000"/>
     <use xlink:href="#meae5c0c399" x="90.776" y="262.297674" style="stroke: #000000"/>
     <use xlink:href="#meae5c0c399" x="97.472" y="264.344186" style="stroke: #000000"/>
     <use xlink:href="#meae5c0c399" x="104.168" y="263.164432" style="stroke: #000000"/>
     <use xlink:href="#meae5c0c399" x="110.864" y="261.046599" style="stroke: #000000"/>
     <use xlink:href="#meae5c0c399" x="117.56" y="256.32186" style="stroke: #000000"/>
     <use xlink:href="#meae5c0c399" x="124.256" y="255.265116" style="stroke: #000000"/>
     <use xlink:href="#meae5c0c399" x="130.952" y="252.257393" style="stroke: #000000"/>
     <use xlink:href="#meae5c0c399" x="137.648" y="250.579171" style="stroke: #000000"/>
     <use xlink:href="#meae5c0c399" x="144.344" y="250.87814" style="stroke: #000000"/>
     <use xlink:href="#meae5c0c399" x="151.04" y="250.730645" style="stroke: #000000"/>
     <use xlink:href="#meae5c0c399" x="157.736" y="248.57899" style="stroke: #000000"/>
     <use xlink:href="#meae5c0c399" x="164.432" y="248.555567" style="stroke: #000000"/>
     <use xlink:href="#meae5c0c399" x="171.128" y="248.088341" style="stroke: #000000"/>
     <use xlink:href="#meae5c0c399" x="177.824" y="248.141591" style="stroke: #000000"/>
     <use xlink:href="#meae5c0c399" x="184.52" y="249.791515" style="stroke: #000000"/>
     <use xlink:href="#meae5c0c399" x="191.216" y="253.110623" style="stroke: #000000"/>
     <use xlink:href="#meae5c0c399" x="197.912" y="253.522862" style="stroke: #000000"/>
     <use xlink:href="#meae5c0c399" x="204.608" y="256.488222" style="stroke: #000000"/>
     <use xlink:href="#meae5c0c399" x="211.304" y="259.68135" style="stroke: #000000"/>
     <use xlink:href="#meae5c0c399" x="218" y="260.423961" style="stroke: #000000"/>
     <use xlink:href="#meae5c0c399" x="224.696" y="262.793623" style="stroke: #000000"/>
     <use xlink:href="#meae5c0c399" x="231.392" y="263.23174" style="stroke: #000000"/>
     <use xlink:href="#meae5c0c399" x="238.088" y="263.250078" style="stroke: #000000"/>
     <use xlink:href="#meae5c0c399" x="244.784" y="263.121736" style="stroke: #000000"/>
     <use xlink:href="#meae5c0c399" x="251.48" y="262.877788" style="stroke: #000000"/>
     <use xlink:href="#meae5c0c399" x="258.176" y="263.046906" style="stroke: #000000"/>
     <use xlink:href="#meae5c0c399" x="264.872" y="264.70801" style="stroke: #000000"/>
     <use xlink:href="#meae5c0c399" x="271.568" y="263.567659" style="stroke: #000000"/>
     <use xlink:href="#meae5c0c399" x="278.264" y="263.338115" style="stroke: #000000"/>
     <use xlink:href="#meae5c0c399" x="284.96" y="260.492937" style="stroke: #000000"/>
     <use xlink:href="#meae5c0c399" x="291.656" y="263.125119" style="stroke: #000000"/>
     <use xlink:href="#meae5c0c399" x="298.352" y="261.185212" style="stroke: #000000"/>
     <use xlink:href="#meae5c0c399" x="305.048" y="262.467041" style="stroke: #000000"/>
     <use xlink:href="#meae5c0c399" x="311.744" y="258.461373" style="stroke: #000000"/>
     <use xlink:href="#meae5c0c399" x="318.44" y="258.850523" style="stroke: #000000"/>
     <use xlink:href="#meae5c0c399" x="325.136" y="254.930233" style="stroke: #000000"/>
     <use xlink:href="#meae5c0c399" x="331.832" y="258.613953" style="stroke: #000000"/>
     <use xlink:href="#meae5c0c399" x="338.528" y="248.523761" style="stroke: #000000"/>
     <use xlink:href="#meae5c0c399" x="345.224" y="249.237209" style="stroke: #000000"/>
     <use xlink:href="#meae5c0c399" x="351.92" y="250.018605" style="stroke: #000000"/>
     <use xlink:href="#meae5c0c399" x="358.616" y="258.613953" style="stroke: #000000"/>
     <use xlink:href="#meae5c0c399" x="365.312" y="250.018605" style="stroke: #000000"/>
     <use xlink:href="#meae5c0c399" x="372.008" y="258.613953" style="stroke: #000000"/>
     <use xlink:href="#meae5c0c399" x="398.792" y="232.827907" style="stroke: #000000"/>
    </g>
   </g>
   <g id="patch_10">
    <path d="M 67.34 284.4 
L 67.34 232.827907 
" style="fill: none; stroke: #000000; stroke-linejoin: miter; stroke-linecap: square"/>
   </g>
   <g id="patch_11">
    <path d="M 402.14 284.4 
L 402.14 232.827907 
" style="fill: none; stroke: #000000; stroke-linejoin: miter; stroke-linecap: square"/>
   </g>
   <g id="patch_12">
    <path d="M 67.34 284.4 
L 402.14 284.4 
" style="fill: none; stroke: #000000; stroke-linejoin: miter; stroke-linecap: square"/>
   </g>
   <g id="patch_13">
    <path d="M 67.34 232.827907 
L 402.14 232.827907 
" style="fill: none; stroke: #000000; stroke-linejoin: miter; stroke-linecap: square"/>
   </g>
   <g id="matplotlib.axis_3">
    <g id="xtick_21">
     <g id="line2d_42">
      <g>
       <use xlink:href="#m8dec1b3d1d" x="116.910027" y="284.4" style="fill: #1a1a1a; stroke: #1a1a1a; stroke-width: 0.8"/>
      </g>
     </g>
     <g id="text_9">
      <!-- $\mathdefault{−5}$ -->
      <g style="fill: #1a1a1a" transform="translate(107.310027 302.810938) scale(0.15 -0.15)">
       <defs>
        <path id="LatinModernMath-Regular-2212" d="M 4621 1600 
C 4621 1670 4563 1728 4493 1728 
L 486 1728 
C 416 1728 358 1670 358 1600 
C 358 1530 416 1472 486 1472 
L 4493 1472 
C 4563 1472 4621 1530 4621 1600 
z
" transform="scale(0.015625)"/>
        <path id="LatinModernMath-Regular-35" d="M 2874 1286 
C 2874 2048 2349 2688 1658 2688 
C 1350 2688 1075 2586 845 2362 
L 845 3610 
C 973 3571 1184 3526 1389 3526 
C 2176 3526 2624 4109 2624 4192 
C 2624 4230 2605 4262 2560 4262 
C 2560 4262 2541 4262 2509 4243 
C 2381 4186 2067 4058 1638 4058 
C 1382 4058 1088 4102 787 4237 
C 736 4256 710 4256 710 4256 
C 646 4256 646 4205 646 4102 
L 646 2208 
C 646 2093 646 2042 736 2042 
C 781 2042 794 2061 819 2099 
C 890 2202 1126 2547 1645 2547 
C 1978 2547 2138 2253 2189 2138 
C 2291 1901 2304 1651 2304 1331 
C 2304 1107 2304 723 2150 454 
C 1997 205 1760 38 1466 38 
C 998 38 634 378 525 755 
C 544 749 563 742 634 742 
C 845 742 954 902 954 1056 
C 954 1210 845 1370 634 1370 
C 544 1370 320 1325 320 1030 
C 320 480 762 -141 1478 -141 
C 2221 -141 2874 474 2874 1286 
z
" transform="scale(0.015625)"/>
       </defs>
       <use xlink:href="#LatinModernMath-Regular-2212" transform="translate(0 0.40625)"/>
       <use xlink:href="#LatinModernMath-Regular-35" transform="translate(77.799988 0.40625)"/>
      </g>
     </g>
    </g>
    <g id="xtick_22">
     <g id="line2d_43">
      <g>
       <use xlink:href="#m8dec1b3d1d" x="209.996635" y="284.4" style="fill: #1a1a1a; stroke: #1a1a1a; stroke-width: 0.8"/>
      </g>
     </g>
     <g id="text_10">
      <!-- $\mathdefault{0}$ -->
      <g style="fill: #1a1a1a" transform="translate(206.246635 302.810938) scale(0.15 -0.15)">
       <use xlink:href="#LatinModernMath-Regular-30" transform="translate(0 0.40625)"/>
      </g>
     </g>
    </g>
    <g id="xtick_23">
     <g id="line2d_44">
      <g>
       <use xlink:href="#m8dec1b3d1d" x="303.083242" y="284.4" style="fill: #1a1a1a; stroke: #1a1a1a; stroke-width: 0.8"/>
      </g>
     </g>
     <g id="text_11">
      <!-- $\mathdefault{5}$ -->
      <g style="fill: #1a1a1a" transform="translate(299.333242 302.810938) scale(0.15 -0.15)">
       <use xlink:href="#LatinModernMath-Regular-35" transform="translate(0 0.40625)"/>
      </g>
     </g>
    </g>
    <g id="xtick_24">
     <g id="line2d_45">
      <g>
       <use xlink:href="#m8dec1b3d1d" x="396.169849" y="284.4" style="fill: #1a1a1a; stroke: #1a1a1a; stroke-width: 0.8"/>
      </g>
     </g>
     <g id="text_12">
      <!-- $\mathdefault{10}$ -->
      <g style="fill: #1a1a1a" transform="translate(388.669849 302.810938) scale(0.15 -0.15)">
       <use xlink:href="#LatinModernMath-Regular-31" transform="translate(0 0.40625)"/>
       <use xlink:href="#LatinModernMath-Regular-30" transform="translate(49.999985 0.40625)"/>
      </g>
     </g>
    </g>
    <g id="xtick_25">
     <g id="line2d_46">
      <g>
       <use xlink:href="#m131efc0c90" x="79.675384" y="284.4" style="fill: #1a1a1a; stroke: #1a1a1a; stroke-width: 0.6"/>
      </g>
     </g>
    </g>
    <g id="xtick_26">
     <g id="line2d_47">
      <g>
       <use xlink:href="#m131efc0c90" x="98.292706" y="284.4" style="fill: #1a1a1a; stroke: #1a1a1a; stroke-width: 0.6"/>
      </g>
     </g>
    </g>
    <g id="xtick_27">
     <g id="line2d_48">
      <g>
       <use xlink:href="#m131efc0c90" x="135.527349" y="284.4" style="fill: #1a1a1a; stroke: #1a1a1a; stroke-width: 0.6"/>
      </g>
     </g>
    </g>
    <g id="xtick_28">
     <g id="line2d_49">
      <g>
       <use xlink:href="#m131efc0c90" x="154.14467" y="284.4" style="fill: #1a1a1a; stroke: #1a1a1a; stroke-width: 0.6"/>
      </g>
     </g>
    </g>
    <g id="xtick_29">
     <g id="line2d_50">
      <g>
       <use xlink:href="#m131efc0c90" x="172.761992" y="284.4" style="fill: #1a1a1a; stroke: #1a1a1a; stroke-width: 0.6"/>
      </g>
     </g>
    </g>
    <g id="xtick_30">
     <g id="line2d_51">
      <g>
       <use xlink:href="#m131efc0c90" x="191.379313" y="284.4" style="fill: #1a1a1a; stroke: #1a1a1a; stroke-width: 0.6"/>
      </g>
     </g>
    </g>
    <g id="xtick_31">
     <g id="line2d_52">
      <g>
       <use xlink:href="#m131efc0c90" x="228.613956" y="284.4" style="fill: #1a1a1a; stroke: #1a1a1a; stroke-width: 0.6"/>
      </g>
     </g>
    </g>
    <g id="xtick_32">
     <g id="line2d_53">
      <g>
       <use xlink:href="#m131efc0c90" x="247.231277" y="284.4" style="fill: #1a1a1a; stroke: #1a1a1a; stroke-width: 0.6"/>
      </g>
     </g>
    </g>
    <g id="xtick_33">
     <g id="line2d_54">
      <g>
       <use xlink:href="#m131efc0c90" x="265.848599" y="284.4" style="fill: #1a1a1a; stroke: #1a1a1a; stroke-width: 0.6"/>
      </g>
     </g>
    </g>
    <g id="xtick_34">
     <g id="line2d_55">
      <g>
       <use xlink:href="#m131efc0c90" x="284.46592" y="284.4" style="fill: #1a1a1a; stroke: #1a1a1a; stroke-width: 0.6"/>
      </g>
     </g>
    </g>
    <g id="xtick_35">
     <g id="line2d_56">
      <g>
       <use xlink:href="#m131efc0c90" x="321.700563" y="284.4" style="fill: #1a1a1a; stroke: #1a1a1a; stroke-width: 0.6"/>
      </g>
     </g>
    </g>
    <g id="xtick_36">
     <g id="line2d_57">
      <g>
       <use xlink:href="#m131efc0c90" x="340.317885" y="284.4" style="fill: #1a1a1a; stroke: #1a1a1a; stroke-width: 0.6"/>
      </g>
     </g>
    </g>
    <g id="xtick_37">
     <g id="line2d_58">
      <g>
       <use xlink:href="#m131efc0c90" x="358.935206" y="284.4" style="fill: #1a1a1a; stroke: #1a1a1a; stroke-width: 0.6"/>
      </g>
     </g>
    </g>
    <g id="xtick_38">
     <g id="line2d_59">
      <g>
       <use xlink:href="#m131efc0c90" x="377.552528" y="284.4" style="fill: #1a1a1a; stroke: #1a1a1a; stroke-width: 0.6"/>
      </g>
     </g>
    </g>
    <g id="text_13">
     <!-- variable_1 -->
     <g style="fill: #1a1a1a" transform="translate(195.959844 324.215) scale(0.18 -0.18)">
      <defs>
       <path id="LatinModernMath-Regular-76" d="M 3251 2560 
L 3251 2758 
C 3104 2746 2918 2739 2771 2739 
L 2214 2758 
L 2214 2560 
C 2451 2554 2522 2406 2522 2285 
C 2522 2227 2509 2202 2483 2131 
L 1830 499 
L 1114 2285 
C 1075 2368 1075 2394 1075 2394 
C 1075 2560 1325 2560 1440 2560 
L 1440 2758 
L 742 2739 
C 570 2739 314 2746 122 2758 
L 122 2560 
C 525 2560 550 2522 634 2323 
L 1555 51 
C 1594 -38 1606 -70 1690 -70 
C 1773 -70 1798 -13 1824 51 
L 2662 2131 
C 2720 2278 2829 2554 3251 2560 
z
" transform="scale(0.015625)"/>
       <path id="LatinModernMath-Regular-61" d="M 3091 570 
L 3091 928 
L 2931 928 
L 2931 570 
C 2931 198 2771 160 2701 160 
C 2490 160 2464 448 2464 480 
L 2464 1760 
C 2464 2029 2464 2278 2234 2515 
C 1984 2765 1664 2867 1357 2867 
C 832 2867 390 2566 390 2144 
C 390 1952 518 1843 685 1843 
C 864 1843 979 1971 979 2138 
C 979 2214 947 2426 653 2432 
C 826 2656 1139 2726 1344 2726 
C 1658 2726 2022 2477 2022 1907 
L 2022 1670 
C 1696 1651 1248 1632 845 1440 
C 365 1222 205 890 205 608 
C 205 90 826 -70 1229 -70 
C 1651 -70 1946 186 2067 486 
C 2093 230 2266 -38 2566 -38 
C 2701 -38 3091 51 3091 570 
z
M 2022 896 
C 2022 288 1562 70 1274 70 
C 960 70 698 294 698 614 
C 698 966 966 1498 2022 1536 
L 2022 896 
z
" transform="scale(0.015625)"/>
       <path id="LatinModernMath-Regular-62" d="M 3334 1382 
C 3334 2195 2707 2829 1978 2829 
C 1478 2829 1203 2528 1101 2413 
L 1101 4442 
L 179 4371 
L 179 4173 
C 627 4173 678 4128 678 3814 
L 678 0 
L 838 0 
L 1069 397 
C 1165 250 1434 -70 1907 -70 
C 2669 -70 3334 557 3334 1382 
z
M 2803 1389 
C 2803 1152 2790 768 2605 480 
C 2470 282 2227 70 1882 70 
C 1594 70 1363 224 1210 461 
C 1120 595 1120 614 1120 730 
L 1120 2048 
C 1120 2170 1120 2176 1190 2278 
C 1440 2637 1792 2688 1946 2688 
C 2234 2688 2464 2522 2618 2278 
C 2784 2016 2803 1651 2803 1389 
z
" transform="scale(0.015625)"/>
       <path id="LatinModernMath-Regular-6c" d="M 1632 0 
L 1632 198 
C 1203 198 1133 198 1133 486 
L 1133 4442 
L 211 4371 
L 211 4173 
C 659 4173 710 4128 710 3814 
L 710 486 
C 710 198 640 198 211 198 
L 211 0 
L 922 19 
L 1632 0 
z
" transform="scale(0.015625)"/>
       <path id="LatinModernMath-Regular-5f" d="M 2131 -896 
L 2131 -640 
L 0 -640 
L 0 -896 
L 2131 -896 
z
" transform="scale(0.015625)"/>
      </defs>
      <use xlink:href="#LatinModernMath-Regular-76"/>
      <use xlink:href="#LatinModernMath-Regular-61" x="52.799988"/>
      <use xlink:href="#LatinModernMath-Regular-72" x="102.799973"/>
      <use xlink:href="#LatinModernMath-Regular-69" x="141.999969"/>
      <use xlink:href="#LatinModernMath-Regular-61" x="169.799957"/>
      <use xlink:href="#LatinModernMath-Regular-62" x="219.799942"/>
      <use xlink:href="#LatinModernMath-Regular-6c" x="275.399933"/>
      <use xlink:href="#LatinModernMath-Regular-65" x="303.199921"/>
      <use xlink:href="#LatinModernMath-Regular-5f" x="347.599915"/>
      <use xlink:href="#LatinModernMath-Regular-31" x="380.899902"/>
     </g>
    </g>
   </g>
   <g id="matplotlib.axis_4">
    <g id="ytick_18">
     <g id="line2d_60">
      <g>
       <use xlink:href="#mc947610920" x="67.34" y="284.4" style="fill: #1a1a1a; stroke: #1a1a1a; stroke-width: 0.8"/>
      </g>
     </g>
     <g id="text_14">
      <!-- $\mathdefault{−1}$ -->
      <g style="fill: #1a1a1a" transform="translate(43.14 289.605469) scale(0.15 -0.15)">
       <use xlink:href="#LatinModernMath-Regular-2212" transform="translate(0 0.40625)"/>
       <use xlink:href="#LatinModernMath-Regular-31" transform="translate(77.799988 0.40625)"/>
      </g>
     </g>
    </g>
    <g id="ytick_19">
     <g id="line2d_61">
      <g>
       <use xlink:href="#mc947610920" x="67.34" y="258.613953" style="fill: #1a1a1a; stroke: #1a1a1a; stroke-width: 0.8"/>
      </g>
     </g>
     <g id="text_15">
      <!-- $\mathdefault{0}$ -->
      <g style="fill: #1a1a1a" transform="translate(54.84 263.819422) scale(0.15 -0.15)">
       <use xlink:href="#LatinModernMath-Regular-30" transform="translate(0 0.40625)"/>
      </g>
     </g>
    </g>
    <g id="ytick_20">
     <g id="line2d_62">
      <g>
       <use xlink:href="#mc947610920" x="67.34" y="232.827907" style="fill: #1a1a1a; stroke: #1a1a1a; stroke-width: 0.8"/>
      </g>
     </g>
     <g id="text_16">
      <!-- $\mathdefault{1}$ -->
      <g style="fill: #1a1a1a" transform="translate(54.84 238.033376) scale(0.15 -0.15)">
       <use xlink:href="#LatinModernMath-Regular-31" transform="translate(0 0.40625)"/>
      </g>
     </g>
    </g>
    <g id="ytick_21">
     <g id="line2d_63">
      <g>
       <use xlink:href="#m5f9d1e6504" x="67.34" y="279.242791" style="fill: #1a1a1a; stroke: #1a1a1a; stroke-width: 0.6"/>
      </g>
     </g>
    </g>
    <g id="ytick_22">
     <g id="line2d_64">
      <g>
       <use xlink:href="#m5f9d1e6504" x="67.34" y="274.085581" style="fill: #1a1a1a; stroke: #1a1a1a; stroke-width: 0.6"/>
      </g>
     </g>
    </g>
    <g id="ytick_23">
     <g id="line2d_65">
      <g>
       <use xlink:href="#m5f9d1e6504" x="67.34" y="268.928372" style="fill: #1a1a1a; stroke: #1a1a1a; stroke-width: 0.6"/>
      </g>
     </g>
    </g>
    <g id="ytick_24">
     <g id="line2d_66">
      <g>
       <use xlink:href="#m5f9d1e6504" x="67.34" y="263.771163" style="fill: #1a1a1a; stroke: #1a1a1a; stroke-width: 0.6"/>
      </g>
     </g>
    </g>
    <g id="ytick_25">
     <g id="line2d_67">
      <g>
       <use xlink:href="#m5f9d1e6504" x="67.34" y="253.456744" style="fill: #1a1a1a; stroke: #1a1a1a; stroke-width: 0.6"/>
      </g>
     </g>
    </g>
    <g id="ytick_26">
     <g id="line2d_68">
      <g>
       <use xlink:href="#m5f9d1e6504" x="67.34" y="248.299535" style="fill: #1a1a1a; stroke: #1a1a1a; stroke-width: 0.6"/>
      </g>
     </g>
    </g>
    <g id="ytick_27">
     <g id="line2d_69">
      <g>
       <use xlink:href="#m5f9d1e6504" x="67.34" y="243.142326" style="fill: #1a1a1a; stroke: #1a1a1a; stroke-width: 0.6"/>
      </g>
     </g>
    </g>
    <g id="ytick_28">
     <g id="line2d_70">
      <g>
       <use xlink:href="#m5f9d1e6504" x="67.34" y="237.985116" style="fill: #1a1a1a; stroke: #1a1a1a; stroke-width: 0.6"/>
      </g>
     </g>
    </g>
    <g id="text_17">
     <!-- $\frac{\mathbfit{h}_1 - \mathbfit{h}_2}{\mathbfit{h}_1 + \mathbfit{h}_2}$ -->
     <g style="fill: #1a1a1a" transform="translate(24.48 278.683953) rotate(-90) scale(0.18 -0.18)">
      <defs>
       <path id="LatinModernMath-Regular-2b" d="M 4621 1600 
C 4621 1670 4563 1728 4493 1728 
L 2618 1728 
L 2618 3603 
C 2618 3674 2560 3731 2490 3731 
C 2419 3731 2362 3674 2362 3603 
L 2362 1728 
L 486 1728 
C 416 1728 358 1670 358 1600 
C 358 1530 416 1472 486 1472 
L 2362 1472 
L 2362 -403 
C 2362 -474 2419 -531 2490 -531 
C 2560 -531 2618 -474 2618 -403 
L 2618 1472 
L 4493 1472 
C 4563 1472 4621 1530 4621 1600 
z
" transform="scale(0.015625)"/>
      </defs>
      <use xlink:href="#STIXGeneral-BoldItalic-68" transform="translate(0 47.065625) scale(0.7)"/>
      <use xlink:href="#LatinModernMath-Regular-31" transform="translate(39.447892 38.015938) scale(0.49)"/>
      <use xlink:href="#LatinModernMath-Regular-2212" transform="translate(77.747181 47.065625) scale(0.7)"/>
      <use xlink:href="#STIXGeneral-BoldItalic-68" transform="translate(144.498189 47.065625) scale(0.7)"/>
      <use xlink:href="#LatinModernMath-Regular-32" transform="translate(183.946081 38.015938) scale(0.49)"/>
      <use xlink:href="#STIXGeneral-BoldItalic-68" transform="translate(0 -42.168437) scale(0.7)"/>
      <use xlink:href="#LatinModernMath-Regular-31" transform="translate(39.447892 -51.218125) scale(0.49)"/>
      <use xlink:href="#LatinModernMath-Regular-2b" transform="translate(77.747181 -42.168437) scale(0.7)"/>
      <use xlink:href="#STIXGeneral-BoldItalic-68" transform="translate(144.498189 -42.168437) scale(0.7)"/>
      <use xlink:href="#LatinModernMath-Regular-32" transform="translate(183.946081 -51.218125) scale(0.49)"/>
      <path d="M 0 13.015938 
L 0 19.265938 
L 209.954354 19.265938 
L 209.954354 13.015938 
L 0 13.015938 
z
"/>
     </g>
    </g>
   </g>
  </g>
 </g>
 <defs>
  <clipPath id="pc81043a0d9">
   <rect x="67.34" y="7.2" width="334.8" height="206.288372"/>
  </clipPath>
  <clipPath id="p0c74028b7f">
   <rect x="67.34" y="232.827907" width="334.8" height="51.572093"/>
  </clipPath>
 </defs>
</svg>
