<?xml version="1.0" encoding="utf-8" standalone="no"?>
<!DOCTYPE svg PUBLIC "-//W3C//DTD SVG 1.1//EN"
  "http://www.w3.org/Graphics/SVG/1.1/DTD/svg11.dtd">
<svg xmlns:xlink="http://www.w3.org/1999/xlink" width="410.345091pt" height="279.598438pt" viewBox="0 0 410.345091 279.598438" xmlns="http://www.w3.org/2000/svg" version="1.1">
 <metadata>
  <rdf:RDF xmlns:dc="http://purl.org/dc/elements/1.1/" xmlns:cc="http://creativecommons.org/ns#" xmlns:rdf="http://www.w3.org/1999/02/22-rdf-syntax-ns#">
   <cc:Work>
    <dc:type rdf:resource="http://purl.org/dc/dcmitype/StillImage"/>
    <dc:date>2023-07-18T15:42:49.925409</dc:date>
    <dc:format>image/svg+xml</dc:format>
    <dc:creator>
     <cc:Agent>
      <dc:title>Matplotlib v3.7.1, https://matplotlib.org/</dc:title>
     </cc:Agent>
    </dc:creator>
   </cc:Work>
  </rdf:RDF>
 </metadata>
 <defs>
  <style type="text/css">*{stroke-linejoin: round; stroke-linecap: butt}</style>
 </defs>
 <g id="figure_1">
  <g id="patch_1">
   <path d="M 0 279.598438 
L 410.345091 279.598438 
L 410.345091 0 
L 0 0 
z
" style="fill: #ffffff"/>
  </g>
  <g id="axes_1">
   <g id="patch_2">
    <path d="M 64.270625 172.230698 
L 399.070625 172.230698 
L 399.070625 7.2 
L 64.270625 7.2 
z
" style="fill: #ffffff"/>
   </g>
   <g id="patch_3">
    <path d="M 64.270625 172.230698 
L 64.270625 172.230698 
L 70.966625 172.230698 
L 70.966625 172.230698 
L 77.662625 172.230698 
L 77.662625 172.230698 
L 84.358625 172.230698 
L 84.358625 172.230698 
L 91.054625 172.230698 
L 91.054625 172.230698 
L 97.750625 172.230698 
L 97.750625 172.047727 
L 104.446625 172.047727 
L 104.446625 171.132872 
L 111.142625 171.132872 
L 111.142625 171.315843 
L 117.838625 171.315843 
L 117.838625 169.852075 
L 124.534625 169.852075 
L 124.534625 168.022365 
L 131.230625 168.022365 
L 131.230625 165.460771 
L 137.926625 165.460771 
L 137.926625 153.750626 
L 144.622625 153.750626 
L 144.622625 146.614757 
L 151.318625 146.614757 
L 151.318625 135.453526 
L 158.014625 135.453526 
L 158.014625 121.547729 
L 164.710625 121.547729 
L 164.710625 105.812223 
L 171.406625 105.812223 
L 171.406625 79.464398 
L 178.102625 79.464398 
L 178.102625 71.962587 
L 184.798625 71.962587 
L 184.798625 70.864761 
L 191.494625 70.864761 
L 191.494625 68.120196 
L 198.190625 68.120196 
L 198.190625 80.013311 
L 204.886625 80.013311 
L 204.886625 77.817659 
L 211.582625 77.817659 
L 211.582625 87.698094 
L 218.278625 87.698094 
L 218.278625 83.48976 
L 224.974625 83.48976 
L 224.974625 81.477079 
L 231.670625 81.477079 
L 231.670625 75.439036 
L 238.366625 75.439036 
L 238.366625 69.583964 
L 245.062625 69.583964 
L 245.062625 64.460776 
L 251.758625 64.460776 
L 251.758625 62.265124 
L 258.454625 62.265124 
L 258.454625 69.766935 
L 265.150625 69.766935 
L 265.150625 75.439036 
L 271.846625 75.439036 
L 271.846625 92.272369 
L 278.542625 92.272369 
L 278.542625 103.799542 
L 285.238625 103.799542 
L 285.238625 110.75244 
L 291.934625 110.75244 
L 291.934625 129.049541 
L 298.630625 129.049541 
L 298.630625 140.759685 
L 305.326625 140.759685 
L 305.326625 148.627438 
L 312.022625 148.627438 
L 312.022625 155.580336 
L 318.718625 155.580336 
L 318.718625 161.80135 
L 325.414625 161.80135 
L 325.414625 163.997002 
L 332.110625 163.997002 
L 332.110625 168.022365 
L 338.806625 168.022365 
L 338.806625 170.218017 
L 345.502625 170.218017 
L 345.502625 170.218017 
L 352.198625 170.218017 
L 352.198625 171.681785 
L 358.894625 171.681785 
L 358.894625 171.681785 
L 365.590625 171.681785 
L 365.590625 172.047727 
L 372.286625 172.047727 
L 372.286625 172.230698 
L 378.982625 172.230698 
L 378.982625 172.230698 
L 385.678625 172.230698 
L 385.678625 172.230698 
L 392.374625 172.230698 
L 392.374625 172.047727 
L 399.070625 172.047727 
L 399.070625 172.230698 
" clip-path="url(#p6182ec2edb)" style="fill: none; stroke: #348abd; stroke-linejoin: miter"/>
   </g>
   <g id="patch_4">
    <path d="M 64.270625 172.230698 
L 64.270625 172.230698 
L 70.966625 172.230698 
L 70.966625 172.230698 
L 77.662625 172.230698 
L 77.662625 172.230698 
L 84.358625 172.230698 
L 84.358625 172.047727 
L 91.054625 172.047727 
L 91.054625 172.047727 
L 97.750625 172.047727 
L 97.750625 171.864756 
L 104.446625 171.864756 
L 104.446625 171.132872 
L 111.142625 171.132872 
L 111.142625 170.583959 
L 117.838625 170.583959 
L 117.838625 169.120191 
L 124.534625 169.120191 
L 124.534625 167.656423 
L 131.230625 167.656423 
L 131.230625 162.899176 
L 137.926625 162.899176 
L 137.926625 160.703524 
L 144.622625 160.703524 
L 144.622625 156.129249 
L 151.318625 156.129249 
L 151.318625 152.6528 
L 158.014625 152.6528 
L 158.014625 145.882873 
L 164.710625 145.882873 
L 164.710625 135.636497 
L 171.406625 135.636497 
L 171.406625 136.18541 
L 178.102625 136.18541 
L 178.102625 129.598454 
L 184.798625 129.598454 
L 184.798625 127.768744 
L 191.494625 127.768744 
L 191.494625 123.194468 
L 198.190625 123.194468 
L 198.190625 118.07128 
L 204.886625 118.07128 
L 204.886625 112.216208 
L 211.582625 112.216208 
L 211.582625 98.127441 
L 218.278625 98.127441 
L 218.278625 81.66005 
L 224.974625 81.66005 
L 224.974625 68.669109 
L 231.670625 68.669109 
L 231.670625 42.870197 
L 238.366625 42.870197 
L 238.366625 21.828532 
L 245.062625 21.828532 
L 245.062625 15.058605 
L 251.758625 15.058605 
L 251.758625 22.194474 
L 258.454625 22.194474 
L 258.454625 21.46259 
L 265.150625 21.46259 
L 265.150625 31.708966 
L 271.846625 31.708966 
L 271.846625 45.797733 
L 278.542625 45.797733 
L 278.542625 72.877442 
L 285.238625 72.877442 
L 285.238625 94.28505 
L 291.934625 94.28505 
L 291.934625 115.692657 
L 298.630625 115.692657 
L 298.630625 132.160048 
L 305.326625 132.160048 
L 305.326625 141.857511 
L 312.022625 141.857511 
L 312.022625 155.397365 
L 318.718625 155.397365 
L 318.718625 162.167292 
L 325.414625 162.167292 
L 325.414625 166.009684 
L 332.110625 166.009684 
L 332.110625 168.93722 
L 338.806625 168.93722 
L 338.806625 170.583959 
L 345.502625 170.583959 
L 345.502625 171.315843 
L 352.198625 171.315843 
L 352.198625 172.230698 
L 358.894625 172.230698 
L 358.894625 171.681785 
L 365.590625 171.681785 
L 365.590625 172.047727 
L 372.286625 172.047727 
L 372.286625 172.230698 
L 378.982625 172.230698 
L 378.982625 172.230698 
L 385.678625 172.230698 
L 385.678625 172.230698 
L 392.374625 172.230698 
L 392.374625 172.230698 
L 399.070625 172.230698 
L 399.070625 172.230698 
" clip-path="url(#p6182ec2edb)" style="fill: none; stroke: #e24a33; stroke-linejoin: miter"/>
   </g>
   <g id="patch_5">
    <path d="M 64.270625 172.230698 
L 64.270625 7.2 
" style="fill: none; stroke: #000000; stroke-linejoin: miter; stroke-linecap: square"/>
   </g>
   <g id="patch_6">
    <path d="M 399.070625 172.230698 
L 399.070625 7.2 
" style="fill: none; stroke: #000000; stroke-linejoin: miter; stroke-linecap: square"/>
   </g>
   <g id="patch_7">
    <path d="M 64.270625 172.230698 
L 399.070625 172.230698 
" style="fill: none; stroke: #000000; stroke-linejoin: miter; stroke-linecap: square"/>
   </g>
   <g id="patch_8">
    <path d="M 64.270625 7.2 
L 399.070625 7.2 
" style="fill: none; stroke: #000000; stroke-linejoin: miter; stroke-linecap: square"/>
   </g>
   <g id="matplotlib.axis_1">
    <g id="xtick_1">
     <g id="line2d_1">
      <defs>
       <path id="m54c028601f" d="M 0 0 
L 0 -6 
" style="stroke: #1a1a1a; stroke-width: 0.8"/>
      </defs>
      <g>
       <use xlink:href="#m54c028601f" x="135.08266" y="172.230698" style="fill: #1a1a1a; stroke: #1a1a1a; stroke-width: 0.8"/>
      </g>
     </g>
    </g>
    <g id="xtick_2">
     <g id="line2d_2">
      <g>
       <use xlink:href="#m54c028601f" x="221.236804" y="172.230698" style="fill: #1a1a1a; stroke: #1a1a1a; stroke-width: 0.8"/>
      </g>
     </g>
    </g>
    <g id="xtick_3">
     <g id="line2d_3">
      <g>
       <use xlink:href="#m54c028601f" x="307.390947" y="172.230698" style="fill: #1a1a1a; stroke: #1a1a1a; stroke-width: 0.8"/>
      </g>
     </g>
    </g>
    <g id="xtick_4">
     <g id="line2d_4">
      <g>
       <use xlink:href="#m54c028601f" x="393.545091" y="172.230698" style="fill: #1a1a1a; stroke: #1a1a1a; stroke-width: 0.8"/>
      </g>
     </g>
    </g>
    <g id="xtick_5">
     <g id="line2d_5">
      <defs>
       <path id="m247d41e47e" d="M 0 0 
L 0 -3 
" style="stroke: #1a1a1a; stroke-width: 0.6"/>
      </defs>
      <g>
       <use xlink:href="#m247d41e47e" x="66.159346" y="172.230698" style="fill: #1a1a1a; stroke: #1a1a1a; stroke-width: 0.6"/>
      </g>
     </g>
    </g>
    <g id="xtick_6">
     <g id="line2d_6">
      <g>
       <use xlink:href="#m247d41e47e" x="83.390174" y="172.230698" style="fill: #1a1a1a; stroke: #1a1a1a; stroke-width: 0.6"/>
      </g>
     </g>
    </g>
    <g id="xtick_7">
     <g id="line2d_7">
      <g>
       <use xlink:href="#m247d41e47e" x="100.621003" y="172.230698" style="fill: #1a1a1a; stroke: #1a1a1a; stroke-width: 0.6"/>
      </g>
     </g>
    </g>
    <g id="xtick_8">
     <g id="line2d_8">
      <g>
       <use xlink:href="#m247d41e47e" x="117.851832" y="172.230698" style="fill: #1a1a1a; stroke: #1a1a1a; stroke-width: 0.6"/>
      </g>
     </g>
    </g>
    <g id="xtick_9">
     <g id="line2d_9">
      <g>
       <use xlink:href="#m247d41e47e" x="152.313489" y="172.230698" style="fill: #1a1a1a; stroke: #1a1a1a; stroke-width: 0.6"/>
      </g>
     </g>
    </g>
    <g id="xtick_10">
     <g id="line2d_10">
      <g>
       <use xlink:href="#m247d41e47e" x="169.544318" y="172.230698" style="fill: #1a1a1a; stroke: #1a1a1a; stroke-width: 0.6"/>
      </g>
     </g>
    </g>
    <g id="xtick_11">
     <g id="line2d_11">
      <g>
       <use xlink:href="#m247d41e47e" x="186.775146" y="172.230698" style="fill: #1a1a1a; stroke: #1a1a1a; stroke-width: 0.6"/>
      </g>
     </g>
    </g>
    <g id="xtick_12">
     <g id="line2d_12">
      <g>
       <use xlink:href="#m247d41e47e" x="204.005975" y="172.230698" style="fill: #1a1a1a; stroke: #1a1a1a; stroke-width: 0.6"/>
      </g>
     </g>
    </g>
    <g id="xtick_13">
     <g id="line2d_13">
      <g>
       <use xlink:href="#m247d41e47e" x="238.467632" y="172.230698" style="fill: #1a1a1a; stroke: #1a1a1a; stroke-width: 0.6"/>
      </g>
     </g>
    </g>
    <g id="xtick_14">
     <g id="line2d_14">
      <g>
       <use xlink:href="#m247d41e47e" x="255.698461" y="172.230698" style="fill: #1a1a1a; stroke: #1a1a1a; stroke-width: 0.6"/>
      </g>
     </g>
    </g>
    <g id="xtick_15">
     <g id="line2d_15">
      <g>
       <use xlink:href="#m247d41e47e" x="272.92929" y="172.230698" style="fill: #1a1a1a; stroke: #1a1a1a; stroke-width: 0.6"/>
      </g>
     </g>
    </g>
    <g id="xtick_16">
     <g id="line2d_16">
      <g>
       <use xlink:href="#m247d41e47e" x="290.160119" y="172.230698" style="fill: #1a1a1a; stroke: #1a1a1a; stroke-width: 0.6"/>
      </g>
     </g>
    </g>
    <g id="xtick_17">
     <g id="line2d_17">
      <g>
       <use xlink:href="#m247d41e47e" x="324.621776" y="172.230698" style="fill: #1a1a1a; stroke: #1a1a1a; stroke-width: 0.6"/>
      </g>
     </g>
    </g>
    <g id="xtick_18">
     <g id="line2d_18">
      <g>
       <use xlink:href="#m247d41e47e" x="341.852605" y="172.230698" style="fill: #1a1a1a; stroke: #1a1a1a; stroke-width: 0.6"/>
      </g>
     </g>
    </g>
    <g id="xtick_19">
     <g id="line2d_19">
      <g>
       <use xlink:href="#m247d41e47e" x="359.083433" y="172.230698" style="fill: #1a1a1a; stroke: #1a1a1a; stroke-width: 0.6"/>
      </g>
     </g>
    </g>
    <g id="xtick_20">
     <g id="line2d_20">
      <g>
       <use xlink:href="#m247d41e47e" x="376.314262" y="172.230698" style="fill: #1a1a1a; stroke: #1a1a1a; stroke-width: 0.6"/>
      </g>
     </g>
    </g>
   </g>
   <g id="matplotlib.axis_2">
    <g id="ytick_1">
     <g id="line2d_21">
      <defs>
       <path id="m6fa7864d54" d="M 0 0 
L 6 0 
" style="stroke: #1a1a1a; stroke-width: 0.8"/>
      </defs>
      <g>
       <use xlink:href="#m6fa7864d54" x="64.270625" y="172.230698" style="fill: #1a1a1a; stroke: #1a1a1a; stroke-width: 0.8"/>
      </g>
     </g>
     <g id="text_1">
      <!-- $\mathdefault{0}$ -->
      <g style="fill: #1a1a1a" transform="translate(49.670625 177.929526) scale(0.15 -0.15)">
       <defs>
        <path id="DejaVuSerif-30" d="M 2034 219 
Q 2513 219 2750 744 
Q 2988 1269 2988 2328 
Q 2988 3391 2750 3916 
Q 2513 4441 2034 4441 
Q 1556 4441 1318 3916 
Q 1081 3391 1081 2328 
Q 1081 1269 1318 744 
Q 1556 219 2034 219 
z
M 2034 -91 
Q 1275 -91 848 546 
Q 422 1184 422 2328 
Q 422 3475 848 4112 
Q 1275 4750 2034 4750 
Q 2797 4750 3222 4112 
Q 3647 3475 3647 2328 
Q 3647 1184 3222 546 
Q 2797 -91 2034 -91 
z
" transform="scale(0.015625)"/>
       </defs>
       <use xlink:href="#DejaVuSerif-30" transform="translate(0 0.78125)"/>
      </g>
     </g>
    </g>
    <g id="ytick_2">
     <g id="line2d_22">
      <g>
       <use xlink:href="#m6fa7864d54" x="64.270625" y="135.636497" style="fill: #1a1a1a; stroke: #1a1a1a; stroke-width: 0.8"/>
      </g>
     </g>
     <g id="text_2">
      <!-- $\mathdefault{200}$ -->
      <g style="fill: #1a1a1a" transform="translate(30.620625 141.335325) scale(0.15 -0.15)">
       <defs>
        <path id="DejaVuSerif-32" d="M 819 3553 
L 469 3553 
L 469 4384 
Q 803 4563 1142 4656 
Q 1481 4750 1806 4750 
Q 2534 4750 2956 4397 
Q 3378 4044 3378 3438 
Q 3378 2753 2422 1800 
Q 2347 1728 2309 1691 
L 1131 513 
L 3078 513 
L 3078 1088 
L 3444 1088 
L 3444 0 
L 434 0 
L 434 341 
L 1850 1753 
Q 2319 2222 2519 2614 
Q 2719 3006 2719 3438 
Q 2719 3909 2473 4175 
Q 2228 4441 1797 4441 
Q 1350 4441 1106 4219 
Q 863 3997 819 3553 
z
" transform="scale(0.015625)"/>
       </defs>
       <use xlink:href="#DejaVuSerif-32" transform="translate(0 0.78125)"/>
       <use xlink:href="#DejaVuSerif-30" transform="translate(63.623047 0.78125)"/>
       <use xlink:href="#DejaVuSerif-30" transform="translate(127.246094 0.78125)"/>
      </g>
     </g>
    </g>
    <g id="ytick_3">
     <g id="line2d_23">
      <g>
       <use xlink:href="#m6fa7864d54" x="64.270625" y="99.042296" style="fill: #1a1a1a; stroke: #1a1a1a; stroke-width: 0.8"/>
      </g>
     </g>
     <g id="text_3">
      <!-- $\mathdefault{400}$ -->
      <g style="fill: #1a1a1a" transform="translate(30.620625 104.741124) scale(0.15 -0.15)">
       <defs>
        <path id="DejaVuSerif-34" d="M 2234 1581 
L 2234 4063 
L 641 1581 
L 2234 1581 
z
M 3609 0 
L 1484 0 
L 1484 331 
L 2234 331 
L 2234 1247 
L 197 1247 
L 197 1588 
L 2241 4750 
L 2859 4750 
L 2859 1581 
L 3750 1581 
L 3750 1247 
L 2859 1247 
L 2859 331 
L 3609 331 
L 3609 0 
z
" transform="scale(0.015625)"/>
       </defs>
       <use xlink:href="#DejaVuSerif-34" transform="translate(0 0.78125)"/>
       <use xlink:href="#DejaVuSerif-30" transform="translate(63.623047 0.78125)"/>
       <use xlink:href="#DejaVuSerif-30" transform="translate(127.246094 0.78125)"/>
      </g>
     </g>
    </g>
    <g id="ytick_4">
     <g id="line2d_24">
      <g>
       <use xlink:href="#m6fa7864d54" x="64.270625" y="62.448095" style="fill: #1a1a1a; stroke: #1a1a1a; stroke-width: 0.8"/>
      </g>
     </g>
     <g id="text_4">
      <!-- $\mathdefault{600}$ -->
      <g style="fill: #1a1a1a" transform="translate(30.620625 68.146923) scale(0.15 -0.15)">
       <defs>
        <path id="DejaVuSerif-36" d="M 2094 219 
Q 2534 219 2771 542 
Q 3009 866 3009 1472 
Q 3009 2078 2771 2401 
Q 2534 2725 2094 2725 
Q 1647 2725 1412 2412 
Q 1178 2100 1178 1509 
Q 1178 888 1415 553 
Q 1653 219 2094 219 
z
M 1075 2569 
Q 1288 2803 1556 2918 
Q 1825 3034 2163 3034 
Q 2859 3034 3264 2615 
Q 3669 2197 3669 1472 
Q 3669 763 3233 336 
Q 2797 -91 2069 -91 
Q 1278 -91 853 498 
Q 428 1088 428 2181 
Q 428 3406 931 4078 
Q 1434 4750 2350 4750 
Q 2597 4750 2869 4703 
Q 3141 4656 3425 4563 
L 3425 3794 
L 3072 3794 
Q 3034 4109 2831 4275 
Q 2628 4441 2284 4441 
Q 1678 4441 1381 3981 
Q 1084 3522 1075 2569 
z
" transform="scale(0.015625)"/>
       </defs>
       <use xlink:href="#DejaVuSerif-36" transform="translate(0 0.78125)"/>
       <use xlink:href="#DejaVuSerif-30" transform="translate(63.623047 0.78125)"/>
       <use xlink:href="#DejaVuSerif-30" transform="translate(127.246094 0.78125)"/>
      </g>
     </g>
    </g>
    <g id="ytick_5">
     <g id="line2d_25">
      <g>
       <use xlink:href="#m6fa7864d54" x="64.270625" y="25.853894" style="fill: #1a1a1a; stroke: #1a1a1a; stroke-width: 0.8"/>
      </g>
     </g>
     <g id="text_5">
      <!-- $\mathdefault{800}$ -->
      <g style="fill: #1a1a1a" transform="translate(30.620625 31.552722) scale(0.15 -0.15)">
       <defs>
        <path id="DejaVuSerif-38" d="M 2981 1275 
Q 2981 1775 2732 2051 
Q 2484 2328 2034 2328 
Q 1584 2328 1336 2051 
Q 1088 1775 1088 1275 
Q 1088 772 1336 495 
Q 1584 219 2034 219 
Q 2484 219 2732 495 
Q 2981 772 2981 1275 
z
M 2853 3541 
Q 2853 3966 2637 4203 
Q 2422 4441 2034 4441 
Q 1650 4441 1433 4203 
Q 1216 3966 1216 3541 
Q 1216 3113 1433 2875 
Q 1650 2638 2034 2638 
Q 2422 2638 2637 2875 
Q 2853 3113 2853 3541 
z
M 2516 2484 
Q 3047 2413 3344 2092 
Q 3641 1772 3641 1275 
Q 3641 619 3225 264 
Q 2809 -91 2034 -91 
Q 1263 -91 845 264 
Q 428 619 428 1275 
Q 428 1772 725 2092 
Q 1022 2413 1556 2484 
Q 1084 2569 832 2842 
Q 581 3116 581 3541 
Q 581 4103 968 4426 
Q 1356 4750 2034 4750 
Q 2713 4750 3100 4426 
Q 3488 4103 3488 3541 
Q 3488 3116 3236 2842 
Q 2984 2569 2516 2484 
z
" transform="scale(0.015625)"/>
       </defs>
       <use xlink:href="#DejaVuSerif-38" transform="translate(0 0.78125)"/>
       <use xlink:href="#DejaVuSerif-30" transform="translate(63.623047 0.78125)"/>
       <use xlink:href="#DejaVuSerif-30" transform="translate(127.246094 0.78125)"/>
      </g>
     </g>
    </g>
    <g id="ytick_6">
     <g id="line2d_26">
      <defs>
       <path id="m2250dc3e8a" d="M 0 0 
L 3 0 
" style="stroke: #1a1a1a; stroke-width: 0.6"/>
      </defs>
      <g>
       <use xlink:href="#m2250dc3e8a" x="64.270625" y="163.082147" style="fill: #1a1a1a; stroke: #1a1a1a; stroke-width: 0.6"/>
      </g>
     </g>
    </g>
    <g id="ytick_7">
     <g id="line2d_27">
      <g>
       <use xlink:href="#m2250dc3e8a" x="64.270625" y="153.933597" style="fill: #1a1a1a; stroke: #1a1a1a; stroke-width: 0.6"/>
      </g>
     </g>
    </g>
    <g id="ytick_8">
     <g id="line2d_28">
      <g>
       <use xlink:href="#m2250dc3e8a" x="64.270625" y="144.785047" style="fill: #1a1a1a; stroke: #1a1a1a; stroke-width: 0.6"/>
      </g>
     </g>
    </g>
    <g id="ytick_9">
     <g id="line2d_29">
      <g>
       <use xlink:href="#m2250dc3e8a" x="64.270625" y="126.487947" style="fill: #1a1a1a; stroke: #1a1a1a; stroke-width: 0.6"/>
      </g>
     </g>
    </g>
    <g id="ytick_10">
     <g id="line2d_30">
      <g>
       <use xlink:href="#m2250dc3e8a" x="64.270625" y="117.339396" style="fill: #1a1a1a; stroke: #1a1a1a; stroke-width: 0.6"/>
      </g>
     </g>
    </g>
    <g id="ytick_11">
     <g id="line2d_31">
      <g>
       <use xlink:href="#m2250dc3e8a" x="64.270625" y="108.190846" style="fill: #1a1a1a; stroke: #1a1a1a; stroke-width: 0.6"/>
      </g>
     </g>
    </g>
    <g id="ytick_12">
     <g id="line2d_32">
      <g>
       <use xlink:href="#m2250dc3e8a" x="64.270625" y="89.893746" style="fill: #1a1a1a; stroke: #1a1a1a; stroke-width: 0.6"/>
      </g>
     </g>
    </g>
    <g id="ytick_13">
     <g id="line2d_33">
      <g>
       <use xlink:href="#m2250dc3e8a" x="64.270625" y="80.745195" style="fill: #1a1a1a; stroke: #1a1a1a; stroke-width: 0.6"/>
      </g>
     </g>
    </g>
    <g id="ytick_14">
     <g id="line2d_34">
      <g>
       <use xlink:href="#m2250dc3e8a" x="64.270625" y="71.596645" style="fill: #1a1a1a; stroke: #1a1a1a; stroke-width: 0.6"/>
      </g>
     </g>
    </g>
    <g id="ytick_15">
     <g id="line2d_35">
      <g>
       <use xlink:href="#m2250dc3e8a" x="64.270625" y="53.299545" style="fill: #1a1a1a; stroke: #1a1a1a; stroke-width: 0.6"/>
      </g>
     </g>
    </g>
    <g id="ytick_16">
     <g id="line2d_36">
      <g>
       <use xlink:href="#m2250dc3e8a" x="64.270625" y="44.150994" style="fill: #1a1a1a; stroke: #1a1a1a; stroke-width: 0.6"/>
      </g>
     </g>
    </g>
    <g id="ytick_17">
     <g id="line2d_37">
      <g>
       <use xlink:href="#m2250dc3e8a" x="64.270625" y="35.002444" style="fill: #1a1a1a; stroke: #1a1a1a; stroke-width: 0.6"/>
      </g>
     </g>
    </g>
    <g id="ytick_18">
     <g id="line2d_38">
      <g>
       <use xlink:href="#m2250dc3e8a" x="64.270625" y="16.705344" style="fill: #1a1a1a; stroke: #1a1a1a; stroke-width: 0.6"/>
      </g>
     </g>
    </g>
    <g id="ytick_19">
     <g id="line2d_39">
      <g>
       <use xlink:href="#m2250dc3e8a" x="64.270625" y="7.556793" style="fill: #1a1a1a; stroke: #1a1a1a; stroke-width: 0.6"/>
      </g>
     </g>
    </g>
    <g id="text_6">
     <!-- Entries -->
     <g style="fill: #1a1a1a" transform="translate(20.877187 122.824099) rotate(-90) scale(0.18 -0.18)">
      <defs>
       <path id="DejaVuSerif-45" d="M 353 0 
L 353 331 
L 947 331 
L 947 4331 
L 353 4331 
L 353 4666 
L 4109 4666 
L 4109 3628 
L 3725 3628 
L 3725 4281 
L 1581 4281 
L 1581 2719 
L 3109 2719 
L 3109 3303 
L 3494 3303 
L 3494 1753 
L 3109 1753 
L 3109 2338 
L 1581 2338 
L 1581 384 
L 3775 384 
L 3775 1038 
L 4159 1038 
L 4159 0 
L 353 0 
z
" transform="scale(0.015625)"/>
       <path id="DejaVuSerif-6e" d="M 263 0 
L 263 331 
L 781 331 
L 781 2988 
L 231 2988 
L 231 3322 
L 1356 3322 
L 1356 2731 
Q 1516 3069 1770 3241 
Q 2025 3413 2363 3413 
Q 2913 3413 3172 3097 
Q 3431 2781 3431 2113 
L 3431 331 
L 3944 331 
L 3944 0 
L 2356 0 
L 2356 331 
L 2853 331 
L 2853 1931 
Q 2853 2541 2703 2767 
Q 2553 2994 2175 2994 
Q 1775 2994 1565 2701 
Q 1356 2409 1356 1850 
L 1356 331 
L 1856 331 
L 1856 0 
L 263 0 
z
" transform="scale(0.015625)"/>
       <path id="DejaVuSerif-74" d="M 691 2988 
L 184 2988 
L 184 3322 
L 691 3322 
L 691 4353 
L 1269 4353 
L 1269 3322 
L 2350 3322 
L 2350 2988 
L 1269 2988 
L 1269 878 
Q 1269 456 1350 337 
Q 1431 219 1650 219 
Q 1875 219 1978 351 
Q 2081 484 2088 781 
L 2522 781 
Q 2497 328 2275 118 
Q 2053 -91 1600 -91 
Q 1103 -91 897 129 
Q 691 350 691 878 
L 691 2988 
z
" transform="scale(0.015625)"/>
       <path id="DejaVuSerif-72" d="M 3059 3328 
L 3059 2497 
L 2728 2497 
Q 2713 2744 2591 2866 
Q 2469 2988 2234 2988 
Q 1809 2988 1582 2694 
Q 1356 2400 1356 1850 
L 1356 331 
L 2022 331 
L 2022 0 
L 263 0 
L 263 331 
L 781 331 
L 781 2994 
L 231 2994 
L 231 3322 
L 1356 3322 
L 1356 2731 
Q 1525 3078 1790 3245 
Q 2056 3413 2438 3413 
Q 2578 3413 2733 3391 
Q 2888 3369 3059 3328 
z
" transform="scale(0.015625)"/>
       <path id="DejaVuSerif-69" d="M 622 4353 
Q 622 4497 726 4603 
Q 831 4709 978 4709 
Q 1122 4709 1226 4603 
Q 1331 4497 1331 4353 
Q 1331 4206 1228 4103 
Q 1125 4000 978 4000 
Q 831 4000 726 4103 
Q 622 4206 622 4353 
z
M 1356 331 
L 1900 331 
L 1900 0 
L 231 0 
L 231 331 
L 781 331 
L 781 2988 
L 231 2988 
L 231 3322 
L 1356 3322 
L 1356 331 
z
" transform="scale(0.015625)"/>
       <path id="DejaVuSerif-65" d="M 3469 1600 
L 991 1600 
L 991 1575 
Q 991 903 1244 561 
Q 1497 219 1991 219 
Q 2369 219 2611 417 
Q 2853 616 2950 1006 
L 3413 1006 
Q 3275 459 2904 184 
Q 2534 -91 1931 -91 
Q 1203 -91 761 389 
Q 319 869 319 1663 
Q 319 2450 753 2931 
Q 1188 3413 1894 3413 
Q 2647 3413 3050 2948 
Q 3453 2484 3469 1600 
z
M 2791 1931 
Q 2772 2513 2545 2808 
Q 2319 3103 1894 3103 
Q 1497 3103 1269 2806 
Q 1041 2509 991 1931 
L 2791 1931 
z
" transform="scale(0.015625)"/>
       <path id="DejaVuSerif-73" d="M 359 184 
L 359 959 
L 691 959 
Q 703 588 923 403 
Q 1144 219 1575 219 
Q 1963 219 2166 364 
Q 2369 509 2369 788 
Q 2369 1006 2220 1140 
Q 2072 1275 1594 1428 
L 1178 1569 
Q 750 1706 558 1912 
Q 366 2119 366 2438 
Q 366 2894 700 3153 
Q 1034 3413 1625 3413 
Q 1888 3413 2178 3344 
Q 2469 3275 2778 3144 
L 2778 2419 
L 2447 2419 
Q 2434 2741 2221 2922 
Q 2009 3103 1644 3103 
Q 1281 3103 1095 2975 
Q 909 2847 909 2591 
Q 909 2381 1050 2254 
Q 1191 2128 1613 1997 
L 2069 1856 
Q 2541 1709 2748 1489 
Q 2956 1269 2956 922 
Q 2956 450 2595 179 
Q 2234 -91 1600 -91 
Q 1278 -91 972 -22 
Q 666 47 359 184 
z
" transform="scale(0.015625)"/>
      </defs>
      <use xlink:href="#DejaVuSerif-45"/>
      <use xlink:href="#DejaVuSerif-6e" x="72.998047"/>
      <use xlink:href="#DejaVuSerif-74" x="137.402344"/>
      <use xlink:href="#DejaVuSerif-72" x="177.587891"/>
      <use xlink:href="#DejaVuSerif-69" x="225.390625"/>
      <use xlink:href="#DejaVuSerif-65" x="257.373047"/>
      <use xlink:href="#DejaVuSerif-73" x="316.552734"/>
     </g>
    </g>
   </g>
   <g id="legend_1">
    <g id="patch_9">
     <path d="M 340.315625 27.118125 
L 364.315625 27.118125 
L 364.315625 18.718125 
L 340.315625 18.718125 
L 340.315625 27.118125 
z
" style="fill: none; stroke: #348abd; stroke-linejoin: miter"/>
    </g>
    <g id="text_7">
     <!-- c2 -->
     <g style="fill: #1a1a1a" transform="translate(373.915625 27.118125) scale(0.12 -0.12)">
      <defs>
       <path id="DejaVuSerif-63" d="M 3291 997 
Q 3169 466 2822 187 
Q 2475 -91 1925 -91 
Q 1200 -91 759 389 
Q 319 869 319 1663 
Q 319 2459 759 2936 
Q 1200 3413 1925 3413 
Q 2241 3413 2553 3339 
Q 2866 3266 3181 3116 
L 3181 2266 
L 2847 2266 
Q 2781 2703 2561 2903 
Q 2341 3103 1931 3103 
Q 1466 3103 1228 2742 
Q 991 2381 991 1663 
Q 991 944 1227 581 
Q 1463 219 1931 219 
Q 2303 219 2525 412 
Q 2747 606 2828 997 
L 3291 997 
z
" transform="scale(0.015625)"/>
      </defs>
      <use xlink:href="#DejaVuSerif-63"/>
      <use xlink:href="#DejaVuSerif-32" x="56.005859"/>
     </g>
    </g>
    <g id="patch_10">
     <path d="M 340.315625 44.731875 
L 364.315625 44.731875 
L 364.315625 36.331875 
L 340.315625 36.331875 
L 340.315625 44.731875 
z
" style="fill: none; stroke: #e24a33; stroke-linejoin: miter"/>
    </g>
    <g id="text_8">
     <!-- c3 -->
     <g style="fill: #1a1a1a" transform="translate(373.915625 44.731875) scale(0.12 -0.12)">
      <defs>
       <path id="DejaVuSerif-33" d="M 622 4469 
Q 988 4606 1323 4678 
Q 1659 4750 1953 4750 
Q 2638 4750 3022 4454 
Q 3406 4159 3406 3634 
Q 3406 3213 3140 2930 
Q 2875 2647 2388 2547 
Q 2963 2466 3280 2130 
Q 3597 1794 3597 1259 
Q 3597 606 3158 257 
Q 2719 -91 1894 -91 
Q 1528 -91 1179 -12 
Q 831 66 488 225 
L 488 1131 
L 838 1131 
Q 869 681 1141 450 
Q 1413 219 1906 219 
Q 2384 219 2661 495 
Q 2938 772 2938 1253 
Q 2938 1803 2653 2086 
Q 2369 2369 1819 2369 
L 1522 2369 
L 1522 2688 
L 1678 2688 
Q 2225 2688 2498 2914 
Q 2772 3141 2772 3597 
Q 2772 4006 2547 4223 
Q 2322 4441 1900 4441 
Q 1478 4441 1245 4241 
Q 1013 4041 972 3647 
L 622 3647 
L 622 4469 
z
" transform="scale(0.015625)"/>
      </defs>
      <use xlink:href="#DejaVuSerif-63"/>
      <use xlink:href="#DejaVuSerif-33" x="56.005859"/>
     </g>
    </g>
   </g>
  </g>
  <g id="axes_2">
   <g id="patch_11">
    <path d="M 64.270625 228.96 
L 399.070625 228.96 
L 399.070625 187.702326 
L 64.270625 187.702326 
z
" style="fill: #ffffff"/>
   </g>
   <g id="LineCollection_1">
    <path clip-path="url(#p001039294f)" style="fill: none; stroke: #000000; stroke-width: 1.5"/>
    <path clip-path="url(#p001039294f)" style="fill: none; stroke: #000000; stroke-width: 1.5"/>
    <path clip-path="url(#p001039294f)" style="fill: none; stroke: #000000; stroke-width: 1.5"/>
    <path d="M 87.706625 228.96 
L 87.706625 228.96 
" clip-path="url(#p001039294f)" style="fill: none; stroke: #000000; stroke-width: 1.5"/>
    <path d="M 94.402625 228.96 
L 94.402625 228.96 
" clip-path="url(#p001039294f)" style="fill: none; stroke: #000000; stroke-width: 1.5"/>
    <path d="M 101.098625 231.278113 
L 101.098625 206.01305 
" clip-path="url(#p001039294f)" style="fill: none; stroke: #000000; stroke-width: 1.5"/>
    <path d="M 107.794625 220.241228 
L 107.794625 196.421098 
" clip-path="url(#p001039294f)" style="fill: none; stroke: #000000; stroke-width: 1.5"/>
    <path d="M 114.490625 223.891877 
L 114.490625 211.107193 
" clip-path="url(#p001039294f)" style="fill: none; stroke: #000000; stroke-width: 1.5"/>
    <path d="M 121.186625 218.997115 
L 121.186625 207.372899 
" clip-path="url(#p001039294f)" style="fill: none; stroke: #000000; stroke-width: 1.5"/>
    <path d="M 127.882625 215.464861 
L 127.882625 204.498078 
" clip-path="url(#p001039294f)" style="fill: none; stroke: #000000; stroke-width: 1.5"/>
    <path d="M 134.578625 217.225909 
L 134.578625 210.762053 
" clip-path="url(#p001039294f)" style="fill: none; stroke: #000000; stroke-width: 1.5"/>
    <path d="M 141.274625 201.197785 
L 141.274625 190.578959 
" clip-path="url(#p001039294f)" style="fill: none; stroke: #000000; stroke-width: 1.5"/>
    <path d="M 147.970625 200.605992 
L 147.970625 191.676799 
" clip-path="url(#p001039294f)" style="fill: none; stroke: #000000; stroke-width: 1.5"/>
    <path d="M 154.666625 194.846011 
L 154.666625 185.571255 
" clip-path="url(#p001039294f)" style="fill: none; stroke: #000000; stroke-width: 1.5"/>
    <path d="M 161.362625 193.354869 
L 161.362625 185.20141 
" clip-path="url(#p001039294f)" style="fill: none; stroke: #000000; stroke-width: 1.5"/>
    <path d="M 168.058625 194.8158 
L 168.058625 188.221521 
" clip-path="url(#p001039294f)" style="fill: none; stroke: #000000; stroke-width: 1.5"/>
    <path d="M 174.754625 180.326778 
L 174.754625 171.412304 
" clip-path="url(#p001039294f)" style="fill: none; stroke: #000000; stroke-width: 1.5"/>
    <path d="M 181.450625 184.23691 
L 181.450625 176.647873 
" clip-path="url(#p001039294f)" style="fill: none; stroke: #000000; stroke-width: 1.5"/>
    <path d="M 188.146625 185.54832 
L 188.146625 178.310974 
" clip-path="url(#p001039294f)" style="fill: none; stroke: #000000; stroke-width: 1.5"/>
    <path d="M 194.842625 188.407034 
L 194.842625 181.917382 
" clip-path="url(#p001039294f)" style="fill: none; stroke: #000000; stroke-width: 1.5"/>
    <path d="M 201.538625 196.40738 
L 201.538625 191.263066 
" clip-path="url(#p001039294f)" style="fill: none; stroke: #000000; stroke-width: 1.5"/>
    <path d="M 208.234625 198.799029 
L 208.234625 194.215605 
" clip-path="url(#p001039294f)" style="fill: none; stroke: #000000; stroke-width: 1.5"/>
    <path d="M 214.930625 207.029698 
L 214.930625 203.825992 
" clip-path="url(#p001039294f)" style="fill: none; stroke: #000000; stroke-width: 1.5"/>
    <path d="M 221.626625 210.039277 
L 221.626625 207.456536 
" clip-path="url(#p001039294f)" style="fill: none; stroke: #000000; stroke-width: 1.5"/>
    <path d="M 228.322625 211.9943 
L 228.322625 209.770564 
" clip-path="url(#p001039294f)" style="fill: none; stroke: #000000; stroke-width: 1.5"/>
    <path d="M 235.018625 214.41217 
L 235.018625 212.63752 
" clip-path="url(#p001039294f)" style="fill: none; stroke: #000000; stroke-width: 1.5"/>
    <path d="M 241.714625 215.652204 
L 241.714625 214.110186 
" clip-path="url(#p001039294f)" style="fill: none; stroke: #000000; stroke-width: 1.5"/>
    <path d="M 248.410625 215.571903 
L 248.410625 214.058492 
" clip-path="url(#p001039294f)" style="fill: none; stroke: #000000; stroke-width: 1.5"/>
    <path d="M 255.106625 214.652445 
L 255.106625 213.028698 
" clip-path="url(#p001039294f)" style="fill: none; stroke: #000000; stroke-width: 1.5"/>
    <path d="M 261.802625 215.708198 
L 261.802625 214.172606 
" clip-path="url(#p001039294f)" style="fill: none; stroke: #000000; stroke-width: 1.5"/>
    <path d="M 268.498625 215.553657 
L 268.498625 213.947971 
" clip-path="url(#p001039294f)" style="fill: none; stroke: #000000; stroke-width: 1.5"/>
    <path d="M 275.194625 216.711334 
L 275.194625 215.11662 
" clip-path="url(#p001039294f)" style="fill: none; stroke: #000000; stroke-width: 1.5"/>
    <path d="M 281.890625 215.706319 
L 281.890625 213.796793 
" clip-path="url(#p001039294f)" style="fill: none; stroke: #000000; stroke-width: 1.5"/>
    <path d="M 288.586625 213.876523 
L 288.586625 211.502213 
" clip-path="url(#p001039294f)" style="fill: none; stroke: #000000; stroke-width: 1.5"/>
    <path d="M 295.282625 214.566687 
L 295.282625 211.842598 
" clip-path="url(#p001039294f)" style="fill: none; stroke: #000000; stroke-width: 1.5"/>
    <path d="M 301.978625 214.40903 
L 301.978625 211.107683 
" clip-path="url(#p001039294f)" style="fill: none; stroke: #000000; stroke-width: 1.5"/>
    <path d="M 308.674625 214.810718 
L 308.674625 211.047595 
" clip-path="url(#p001039294f)" style="fill: none; stroke: #000000; stroke-width: 1.5"/>
    <path d="M 315.370625 211.572139 
L 315.370625 205.53864 
" clip-path="url(#p001039294f)" style="fill: none; stroke: #000000; stroke-width: 1.5"/>
    <path d="M 322.066625 211.621914 
L 322.066625 203.540132 
" clip-path="url(#p001039294f)" style="fill: none; stroke: #000000; stroke-width: 1.5"/>
    <path d="M 328.762625 207.86119 
L 328.762625 195.453065 
" clip-path="url(#p001039294f)" style="fill: none; stroke: #000000; stroke-width: 1.5"/>
    <path d="M 335.458625 210.896034 
L 335.458625 194.305826 
" clip-path="url(#p001039294f)" style="fill: none; stroke: #000000; stroke-width: 1.5"/>
    <path d="M 342.154625 215.079388 
L 342.154625 192.414566 
" clip-path="url(#p001039294f)" style="fill: none; stroke: #000000; stroke-width: 1.5"/>
    <path d="M 348.850625 208.054566 
L 348.850625 159.09855 
" clip-path="url(#p001039294f)" style="fill: none; stroke: #000000; stroke-width: 1.5"/>
    <path clip-path="url(#p001039294f)" style="fill: none; stroke: #000000; stroke-width: 1.5"/>
    <path d="M 362.242625 225.174538 
L 362.242625 191.487788 
" clip-path="url(#p001039294f)" style="fill: none; stroke: #000000; stroke-width: 1.5"/>
    <path d="M 368.938625 237.504744 
L 368.938625 179.157581 
" clip-path="url(#p001039294f)" style="fill: none; stroke: #000000; stroke-width: 1.5"/>
    <path clip-path="url(#p001039294f)" style="fill: none; stroke: #000000; stroke-width: 1.5"/>
    <path clip-path="url(#p001039294f)" style="fill: none; stroke: #000000; stroke-width: 1.5"/>
    <path clip-path="url(#p001039294f)" style="fill: none; stroke: #000000; stroke-width: 1.5"/>
    <path clip-path="url(#p001039294f)" style="fill: none; stroke: #000000; stroke-width: 1.5"/>
   </g>
   <g id="line2d_40">
    <path d="M 64.270625 208.331163 
L 399.070625 208.331163 
" clip-path="url(#p001039294f)" style="fill: none; stroke-dasharray: 3.7,1.6; stroke-dashoffset: 0; stroke: #000000"/>
   </g>
   <g id="line2d_41">
    <defs>
     <path id="m1164ee551a" d="M 0 1.5 
C 0.397805 1.5 0.77937 1.341951 1.06066 1.06066 
C 1.341951 0.77937 1.5 0.397805 1.5 0 
C 1.5 -0.397805 1.341951 -0.77937 1.06066 -1.06066 
C 0.77937 -1.341951 0.397805 -1.5 0 -1.5 
C -0.397805 -1.5 -0.77937 -1.341951 -1.06066 -1.06066 
C -1.341951 -0.77937 -1.5 -0.397805 -1.5 0 
C -1.5 0.397805 -1.341951 0.77937 -1.06066 1.06066 
C -0.77937 1.341951 -0.397805 1.5 0 1.5 
z
" style="stroke: #000000"/>
    </defs>
    <g clip-path="url(#p001039294f)">
     <use xlink:href="#m1164ee551a" x="87.706625" y="228.96" style="stroke: #000000"/>
     <use xlink:href="#m1164ee551a" x="94.402625" y="228.96" style="stroke: #000000"/>
     <use xlink:href="#m1164ee551a" x="101.098625" y="218.645581" style="stroke: #000000"/>
     <use xlink:href="#m1164ee551a" x="107.794625" y="208.331163" style="stroke: #000000"/>
     <use xlink:href="#m1164ee551a" x="114.490625" y="217.499535" style="stroke: #000000"/>
     <use xlink:href="#m1164ee551a" x="121.186625" y="213.185007" style="stroke: #000000"/>
     <use xlink:href="#m1164ee551a" x="127.882625" y="209.98147" style="stroke: #000000"/>
     <use xlink:href="#m1164ee551a" x="134.578625" y="213.993981" style="stroke: #000000"/>
     <use xlink:href="#m1164ee551a" x="141.274625" y="195.888372" style="stroke: #000000"/>
     <use xlink:href="#m1164ee551a" x="147.970625" y="196.141395" style="stroke: #000000"/>
     <use xlink:href="#m1164ee551a" x="154.666625" y="190.208633" style="stroke: #000000"/>
     <use xlink:href="#m1164ee551a" x="161.362625" y="189.27814" style="stroke: #000000"/>
     <use xlink:href="#m1164ee551a" x="168.058625" y="191.51866" style="stroke: #000000"/>
     <use xlink:href="#m1164ee551a" x="174.754625" y="175.869541" style="stroke: #000000"/>
     <use xlink:href="#m1164ee551a" x="181.450625" y="180.442391" style="stroke: #000000"/>
     <use xlink:href="#m1164ee551a" x="188.146625" y="181.929647" style="stroke: #000000"/>
     <use xlink:href="#m1164ee551a" x="194.842625" y="185.162208" style="stroke: #000000"/>
     <use xlink:href="#m1164ee551a" x="201.538625" y="193.835223" style="stroke: #000000"/>
     <use xlink:href="#m1164ee551a" x="208.234625" y="196.507317" style="stroke: #000000"/>
     <use xlink:href="#m1164ee551a" x="214.930625" y="205.427845" style="stroke: #000000"/>
     <use xlink:href="#m1164ee551a" x="221.626625" y="208.747907" style="stroke: #000000"/>
     <use xlink:href="#m1164ee551a" x="228.322625" y="210.882432" style="stroke: #000000"/>
     <use xlink:href="#m1164ee551a" x="235.018625" y="213.524845" style="stroke: #000000"/>
     <use xlink:href="#m1164ee551a" x="241.714625" y="214.881195" style="stroke: #000000"/>
     <use xlink:href="#m1164ee551a" x="248.410625" y="214.815198" style="stroke: #000000"/>
     <use xlink:href="#m1164ee551a" x="255.106625" y="213.840572" style="stroke: #000000"/>
     <use xlink:href="#m1164ee551a" x="261.802625" y="214.940402" style="stroke: #000000"/>
     <use xlink:href="#m1164ee551a" x="268.498625" y="214.750814" style="stroke: #000000"/>
     <use xlink:href="#m1164ee551a" x="275.194625" y="215.913977" style="stroke: #000000"/>
     <use xlink:href="#m1164ee551a" x="281.890625" y="214.751556" style="stroke: #000000"/>
     <use xlink:href="#m1164ee551a" x="288.586625" y="212.689368" style="stroke: #000000"/>
     <use xlink:href="#m1164ee551a" x="295.282625" y="213.204642" style="stroke: #000000"/>
     <use xlink:href="#m1164ee551a" x="301.978625" y="212.758356" style="stroke: #000000"/>
     <use xlink:href="#m1164ee551a" x="308.674625" y="212.929157" style="stroke: #000000"/>
     <use xlink:href="#m1164ee551a" x="315.370625" y="208.555389" style="stroke: #000000"/>
     <use xlink:href="#m1164ee551a" x="322.066625" y="207.581023" style="stroke: #000000"/>
     <use xlink:href="#m1164ee551a" x="328.762625" y="201.657127" style="stroke: #000000"/>
     <use xlink:href="#m1164ee551a" x="335.458625" y="202.60093" style="stroke: #000000"/>
     <use xlink:href="#m1164ee551a" x="342.154625" y="203.746977" style="stroke: #000000"/>
     <use xlink:href="#m1164ee551a" x="348.850625" y="183.576558" style="stroke: #000000"/>
     <use xlink:href="#m1164ee551a" x="362.242625" y="208.331163" style="stroke: #000000"/>
     <use xlink:href="#m1164ee551a" x="368.938625" y="208.331163" style="stroke: #000000"/>
    </g>
   </g>
   <g id="patch_12">
    <path d="M 64.270625 228.96 
L 64.270625 187.702326 
" style="fill: none; stroke: #000000; stroke-linejoin: miter; stroke-linecap: square"/>
   </g>
   <g id="patch_13">
    <path d="M 399.070625 228.96 
L 399.070625 187.702326 
" style="fill: none; stroke: #000000; stroke-linejoin: miter; stroke-linecap: square"/>
   </g>
   <g id="patch_14">
    <path d="M 64.270625 228.96 
L 399.070625 228.96 
" style="fill: none; stroke: #000000; stroke-linejoin: miter; stroke-linecap: square"/>
   </g>
   <g id="patch_15">
    <path d="M 64.270625 187.702326 
L 399.070625 187.702326 
" style="fill: none; stroke: #000000; stroke-linejoin: miter; stroke-linecap: square"/>
   </g>
   <g id="matplotlib.axis_3">
    <g id="xtick_21">
     <g id="line2d_42">
      <g>
       <use xlink:href="#m54c028601f" x="135.08266" y="228.96" style="fill: #1a1a1a; stroke: #1a1a1a; stroke-width: 0.8"/>
      </g>
     </g>
     <g id="text_9">
      <!-- $\mathdefault{−5}$ -->
      <g style="fill: #1a1a1a" transform="translate(123.98266 245.357656) scale(0.15 -0.15)">
       <defs>
        <path id="DejaVuSerif-2212" d="M 678 2259 
L 4684 2259 
L 4684 1753 
L 678 1753 
L 678 2259 
z
" transform="scale(0.015625)"/>
        <path id="DejaVuSerif-35" d="M 3219 4666 
L 3219 4153 
L 1081 4153 
L 1081 2816 
Q 1244 2928 1461 2984 
Q 1678 3041 1947 3041 
Q 2703 3041 3140 2622 
Q 3578 2203 3578 1478 
Q 3578 738 3136 323 
Q 2694 -91 1894 -91 
Q 1572 -91 1234 -12 
Q 897 66 544 225 
L 544 1131 
L 897 1131 
Q 925 688 1179 453 
Q 1434 219 1894 219 
Q 2388 219 2653 544 
Q 2919 869 2919 1478 
Q 2919 2084 2655 2407 
Q 2391 2731 1894 2731 
Q 1613 2731 1398 2631 
Q 1184 2531 1019 2322 
L 750 2322 
L 750 4666 
L 3219 4666 
z
" transform="scale(0.015625)"/>
       </defs>
       <use xlink:href="#DejaVuSerif-2212" transform="translate(0 0.09375)"/>
       <use xlink:href="#DejaVuSerif-35" transform="translate(83.789062 0.09375)"/>
      </g>
     </g>
    </g>
    <g id="xtick_22">
     <g id="line2d_43">
      <g>
       <use xlink:href="#m54c028601f" x="221.236804" y="228.96" style="fill: #1a1a1a; stroke: #1a1a1a; stroke-width: 0.8"/>
      </g>
     </g>
     <g id="text_10">
      <!-- $\mathdefault{0}$ -->
      <g style="fill: #1a1a1a" transform="translate(216.436804 245.357656) scale(0.15 -0.15)">
       <use xlink:href="#DejaVuSerif-30" transform="translate(0 0.78125)"/>
      </g>
     </g>
    </g>
    <g id="xtick_23">
     <g id="line2d_44">
      <g>
       <use xlink:href="#m54c028601f" x="307.390947" y="228.96" style="fill: #1a1a1a; stroke: #1a1a1a; stroke-width: 0.8"/>
      </g>
     </g>
     <g id="text_11">
      <!-- $\mathdefault{5}$ -->
      <g style="fill: #1a1a1a" transform="translate(302.590947 245.357656) scale(0.15 -0.15)">
       <use xlink:href="#DejaVuSerif-35" transform="translate(0 0.09375)"/>
      </g>
     </g>
    </g>
    <g id="xtick_24">
     <g id="line2d_45">
      <g>
       <use xlink:href="#m54c028601f" x="393.545091" y="228.96" style="fill: #1a1a1a; stroke: #1a1a1a; stroke-width: 0.8"/>
      </g>
     </g>
     <g id="text_12">
      <!-- $\mathdefault{10}$ -->
      <g style="fill: #1a1a1a" transform="translate(383.945091 245.357656) scale(0.15 -0.15)">
       <defs>
        <path id="DejaVuSerif-31" d="M 909 0 
L 909 331 
L 1722 331 
L 1722 4213 
L 781 3603 
L 781 4013 
L 1919 4750 
L 2350 4750 
L 2350 331 
L 3163 331 
L 3163 0 
L 909 0 
z
" transform="scale(0.015625)"/>
       </defs>
       <use xlink:href="#DejaVuSerif-31" transform="translate(0 0.78125)"/>
       <use xlink:href="#DejaVuSerif-30" transform="translate(63.623047 0.78125)"/>
      </g>
     </g>
    </g>
    <g id="xtick_25">
     <g id="line2d_46">
      <g>
       <use xlink:href="#m247d41e47e" x="66.159346" y="228.96" style="fill: #1a1a1a; stroke: #1a1a1a; stroke-width: 0.6"/>
      </g>
     </g>
    </g>
    <g id="xtick_26">
     <g id="line2d_47">
      <g>
       <use xlink:href="#m247d41e47e" x="83.390174" y="228.96" style="fill: #1a1a1a; stroke: #1a1a1a; stroke-width: 0.6"/>
      </g>
     </g>
    </g>
    <g id="xtick_27">
     <g id="line2d_48">
      <g>
       <use xlink:href="#m247d41e47e" x="100.621003" y="228.96" style="fill: #1a1a1a; stroke: #1a1a1a; stroke-width: 0.6"/>
      </g>
     </g>
    </g>
    <g id="xtick_28">
     <g id="line2d_49">
      <g>
       <use xlink:href="#m247d41e47e" x="117.851832" y="228.96" style="fill: #1a1a1a; stroke: #1a1a1a; stroke-width: 0.6"/>
      </g>
     </g>
    </g>
    <g id="xtick_29">
     <g id="line2d_50">
      <g>
       <use xlink:href="#m247d41e47e" x="152.313489" y="228.96" style="fill: #1a1a1a; stroke: #1a1a1a; stroke-width: 0.6"/>
      </g>
     </g>
    </g>
    <g id="xtick_30">
     <g id="line2d_51">
      <g>
       <use xlink:href="#m247d41e47e" x="169.544318" y="228.96" style="fill: #1a1a1a; stroke: #1a1a1a; stroke-width: 0.6"/>
      </g>
     </g>
    </g>
    <g id="xtick_31">
     <g id="line2d_52">
      <g>
       <use xlink:href="#m247d41e47e" x="186.775146" y="228.96" style="fill: #1a1a1a; stroke: #1a1a1a; stroke-width: 0.6"/>
      </g>
     </g>
    </g>
    <g id="xtick_32">
     <g id="line2d_53">
      <g>
       <use xlink:href="#m247d41e47e" x="204.005975" y="228.96" style="fill: #1a1a1a; stroke: #1a1a1a; stroke-width: 0.6"/>
      </g>
     </g>
    </g>
    <g id="xtick_33">
     <g id="line2d_54">
      <g>
       <use xlink:href="#m247d41e47e" x="238.467632" y="228.96" style="fill: #1a1a1a; stroke: #1a1a1a; stroke-width: 0.6"/>
      </g>
     </g>
    </g>
    <g id="xtick_34">
     <g id="line2d_55">
      <g>
       <use xlink:href="#m247d41e47e" x="255.698461" y="228.96" style="fill: #1a1a1a; stroke: #1a1a1a; stroke-width: 0.6"/>
      </g>
     </g>
    </g>
    <g id="xtick_35">
     <g id="line2d_56">
      <g>
       <use xlink:href="#m247d41e47e" x="272.92929" y="228.96" style="fill: #1a1a1a; stroke: #1a1a1a; stroke-width: 0.6"/>
      </g>
     </g>
    </g>
    <g id="xtick_36">
     <g id="line2d_57">
      <g>
       <use xlink:href="#m247d41e47e" x="290.160119" y="228.96" style="fill: #1a1a1a; stroke: #1a1a1a; stroke-width: 0.6"/>
      </g>
     </g>
    </g>
    <g id="xtick_37">
     <g id="line2d_58">
      <g>
       <use xlink:href="#m247d41e47e" x="324.621776" y="228.96" style="fill: #1a1a1a; stroke: #1a1a1a; stroke-width: 0.6"/>
      </g>
     </g>
    </g>
    <g id="xtick_38">
     <g id="line2d_59">
      <g>
       <use xlink:href="#m247d41e47e" x="341.852605" y="228.96" style="fill: #1a1a1a; stroke: #1a1a1a; stroke-width: 0.6"/>
      </g>
     </g>
    </g>
    <g id="xtick_39">
     <g id="line2d_60">
      <g>
       <use xlink:href="#m247d41e47e" x="359.083433" y="228.96" style="fill: #1a1a1a; stroke: #1a1a1a; stroke-width: 0.6"/>
      </g>
     </g>
    </g>
    <g id="xtick_40">
     <g id="line2d_61">
      <g>
       <use xlink:href="#m247d41e47e" x="376.314262" y="228.96" style="fill: #1a1a1a; stroke: #1a1a1a; stroke-width: 0.6"/>
      </g>
     </g>
    </g>
    <g id="text_13">
     <!-- variable_1 -->
     <g style="fill: #1a1a1a" transform="translate(184.479688 268.154375) scale(0.18 -0.18)">
      <defs>
       <path id="DejaVuSerif-76" d="M 1581 0 
L 359 2988 
L -19 2988 
L -19 3322 
L 1509 3322 
L 1509 2988 
L 978 2988 
L 1913 703 
L 2847 2988 
L 2350 2988 
L 2350 3322 
L 3597 3322 
L 3597 2988 
L 3225 2988 
L 2003 0 
L 1581 0 
z
" transform="scale(0.015625)"/>
       <path id="DejaVuSerif-61" d="M 2547 1044 
L 2547 1747 
L 1806 1747 
Q 1378 1747 1168 1562 
Q 959 1378 959 997 
Q 959 650 1171 447 
Q 1384 244 1747 244 
Q 2106 244 2326 466 
Q 2547 688 2547 1044 
z
M 3122 2075 
L 3122 331 
L 3634 331 
L 3634 0 
L 2547 0 
L 2547 359 
Q 2356 128 2106 18 
Q 1856 -91 1522 -91 
Q 969 -91 644 203 
Q 319 497 319 997 
Q 319 1513 691 1797 
Q 1063 2081 1741 2081 
L 2547 2081 
L 2547 2309 
Q 2547 2688 2317 2895 
Q 2088 3103 1672 3103 
Q 1328 3103 1125 2947 
Q 922 2791 872 2484 
L 575 2484 
L 575 3156 
Q 875 3284 1158 3348 
Q 1441 3413 1709 3413 
Q 2400 3413 2761 3070 
Q 3122 2728 3122 2075 
z
" transform="scale(0.015625)"/>
       <path id="DejaVuSerif-62" d="M 738 331 
L 738 4531 
L 184 4531 
L 184 4863 
L 1313 4863 
L 1313 2803 
Q 1481 3116 1742 3264 
Q 2003 3413 2388 3413 
Q 3000 3413 3387 2928 
Q 3775 2444 3775 1663 
Q 3775 881 3387 395 
Q 3000 -91 2388 -91 
Q 2003 -91 1742 57 
Q 1481 206 1313 519 
L 1313 0 
L 184 0 
L 184 331 
L 738 331 
z
M 1313 1497 
Q 1313 897 1542 583 
Q 1772 269 2209 269 
Q 2650 269 2876 622 
Q 3103 975 3103 1663 
Q 3103 2353 2876 2703 
Q 2650 3053 2209 3053 
Q 1772 3053 1542 2737 
Q 1313 2422 1313 1825 
L 1313 1497 
z
" transform="scale(0.015625)"/>
       <path id="DejaVuSerif-6c" d="M 1313 331 
L 1856 331 
L 1856 0 
L 184 0 
L 184 331 
L 738 331 
L 738 4531 
L 184 4531 
L 184 4863 
L 1313 4863 
L 1313 331 
z
" transform="scale(0.015625)"/>
       <path id="DejaVuSerif-5f" d="M 3200 -1259 
L 3200 -1509 
L 0 -1509 
L 0 -1259 
L 3200 -1259 
z
" transform="scale(0.015625)"/>
      </defs>
      <use xlink:href="#DejaVuSerif-76"/>
      <use xlink:href="#DejaVuSerif-61" x="56.494141"/>
      <use xlink:href="#DejaVuSerif-72" x="116.113281"/>
      <use xlink:href="#DejaVuSerif-69" x="163.916016"/>
      <use xlink:href="#DejaVuSerif-61" x="195.898438"/>
      <use xlink:href="#DejaVuSerif-62" x="255.517578"/>
      <use xlink:href="#DejaVuSerif-6c" x="319.53125"/>
      <use xlink:href="#DejaVuSerif-65" x="351.513672"/>
      <use xlink:href="#DejaVuSerif-5f" x="410.693359"/>
      <use xlink:href="#DejaVuSerif-31" x="460.693359"/>
     </g>
    </g>
   </g>
   <g id="matplotlib.axis_4">
    <g id="ytick_20">
     <g id="line2d_62">
      <g>
       <use xlink:href="#m6fa7864d54" x="64.270625" y="228.96" style="fill: #1a1a1a; stroke: #1a1a1a; stroke-width: 0.8"/>
      </g>
     </g>
     <g id="text_14">
      <!-- $\mathdefault{0}$ -->
      <g style="fill: #1a1a1a" transform="translate(49.670625 234.658828) scale(0.15 -0.15)">
       <use xlink:href="#DejaVuSerif-30" transform="translate(0 0.78125)"/>
      </g>
     </g>
    </g>
    <g id="ytick_21">
     <g id="line2d_63">
      <g>
       <use xlink:href="#m6fa7864d54" x="64.270625" y="187.702326" style="fill: #1a1a1a; stroke: #1a1a1a; stroke-width: 0.8"/>
      </g>
     </g>
     <g id="text_15">
      <!-- $\mathdefault{2}$ -->
      <g style="fill: #1a1a1a" transform="translate(49.670625 193.401154) scale(0.15 -0.15)">
       <use xlink:href="#DejaVuSerif-32" transform="translate(0 0.78125)"/>
      </g>
     </g>
    </g>
    <g id="ytick_22">
     <g id="line2d_64">
      <g>
       <use xlink:href="#m2250dc3e8a" x="64.270625" y="218.645581" style="fill: #1a1a1a; stroke: #1a1a1a; stroke-width: 0.6"/>
      </g>
     </g>
    </g>
    <g id="ytick_23">
     <g id="line2d_65">
      <g>
       <use xlink:href="#m2250dc3e8a" x="64.270625" y="208.331163" style="fill: #1a1a1a; stroke: #1a1a1a; stroke-width: 0.6"/>
      </g>
     </g>
    </g>
    <g id="ytick_24">
     <g id="line2d_66">
      <g>
       <use xlink:href="#m2250dc3e8a" x="64.270625" y="198.016744" style="fill: #1a1a1a; stroke: #1a1a1a; stroke-width: 0.6"/>
      </g>
     </g>
    </g>
    <g id="text_16">
     <!-- $\frac{c2}{c3}$ -->
     <g style="fill: #1a1a1a" transform="translate(36.290625 217.061163) rotate(-90) scale(0.18 -0.18)">
      <use xlink:href="#DejaVuSerif-63" transform="translate(0 45.046875) scale(0.7)"/>
      <use xlink:href="#DejaVuSerif-32" transform="translate(39.204102 45.046875) scale(0.7)"/>
      <use xlink:href="#DejaVuSerif-63" transform="translate(0 -39.151563) scale(0.7)"/>
      <use xlink:href="#DejaVuSerif-33" transform="translate(39.204102 -39.151563) scale(0.7)"/>
      <path d="M 0 19.051563 
L 0 25.301563 
L 83.740234 25.301563 
L 83.740234 19.051563 
L 0 19.051563 
z
"/>
     </g>
    </g>
   </g>
  </g>
 </g>
 <defs>
  <clipPath id="p6182ec2edb">
   <rect x="64.270625" y="7.2" width="334.8" height="165.030698"/>
  </clipPath>
  <clipPath id="p001039294f">
   <rect x="64.270625" y="187.702326" width="334.8" height="41.257674"/>
  </clipPath>
 </defs>
</svg>
