<?xml version="1.0" encoding="utf-8" standalone="no"?>
<!DOCTYPE svg PUBLIC "-//W3C//DTD SVG 1.1//EN"
  "http://www.w3.org/Graphics/SVG/1.1/DTD/svg11.dtd">
<svg xmlns:xlink="http://www.w3.org/1999/xlink" width="400.216099pt" height="347.759759pt" viewBox="0 0 400.216099 347.759759" xmlns="http://www.w3.org/2000/svg" version="1.1">
 <metadata>
  <rdf:RDF xmlns:dc="http://purl.org/dc/elements/1.1/" xmlns:cc="http://creativecommons.org/ns#" xmlns:rdf="http://www.w3.org/1999/02/22-rdf-syntax-ns#">
   <cc:Work>
    <dc:creator>
     <cc:Agent>
      <dc:title>カリビアンカフェ</dc:title>
     </cc:Agent>
    </dc:creator>
   </cc:Work>
  </rdf:RDF>
 </metadata>
 <defs>
  <style type="text/css">*{stroke-linejoin: round; stroke-linecap: butt}</style>
 </defs>
 <g id="figure_1">
  <g id="patch_1">
   <path d="M 0 347.759759 
L 400.216099 347.759759 
L 400.216099 0 
L 0 0 
z
" style="fill: #ffffff"/>
  </g>
  <g id="axes_1">
   <g id="patch_2">
    <path d="M 56.68625 226.340006 
L 391.48625 226.340006 
L 391.48625 20.051634 
L 56.68625 20.051634 
z
" style="fill: #ffffff"/>
   </g>
   <g id="patch_3">
    <path d="M 56.68625 226.340006 
L 56.68625 226.340006 
L 63.38225 226.340006 
L 63.38225 226.101343 
L 70.07825 226.101343 
L 70.07825 226.101343 
L 76.77425 226.101343 
L 76.77425 224.908027 
L 83.47025 224.908027 
L 83.47025 224.669363 
L 90.16625 224.669363 
L 90.16625 222.998721 
L 96.86225 222.998721 
L 96.86225 220.612089 
L 103.55825 220.612089 
L 103.55825 214.645509 
L 110.25425 214.645509 
L 110.25425 205.576308 
L 116.95025 205.576308 
L 116.95025 194.359138 
L 123.64625 194.359138 
L 123.64625 183.141968 
L 130.34225 183.141968 
L 130.34225 170.492819 
L 137.03825 170.492819 
L 137.03825 147.342489 
L 143.73425 147.342489 
L 143.73425 125.385475 
L 150.43025 125.385475 
L 150.43025 109.395041 
L 157.12625 109.395041 
L 157.12625 99.132524 
L 163.82225 99.132524 
L 163.82225 100.32584 
L 170.51825 100.32584 
L 170.51825 105.099104 
L 177.21425 105.099104 
L 177.21425 118.464243 
L 183.91025 118.464243 
L 183.91025 114.884295 
L 190.60625 114.884295 
L 190.60625 118.225579 
L 197.30225 118.225579 
L 197.30225 121.328201 
L 203.99825 121.328201 
L 203.99825 117.270927 
L 210.69425 117.270927 
L 210.69425 113.452316 
L 217.39025 113.452316 
L 217.39025 102.712472 
L 224.08625 102.712472 
L 224.08625 94.597923 
L 230.78225 94.597923 
L 230.78225 93.404607 
L 237.47825 93.404607 
L 237.47825 99.848513 
L 244.17425 99.848513 
L 244.17425 103.905788 
L 250.87025 103.905788 
L 250.87025 122.998843 
L 257.56625 122.998843 
L 257.56625 133.500024 
L 264.26225 133.500024 
L 264.26225 149.729121 
L 270.95825 149.729121 
L 270.95825 154.979711 
L 277.65425 154.979711 
L 277.65425 180.755336 
L 284.35025 180.755336 
L 284.35025 188.631221 
L 291.04625 188.631221 
L 291.04625 199.848391 
L 297.74225 199.848391 
L 297.74225 206.053634 
L 304.43825 206.053634 
L 304.43825 213.452193 
L 311.13425 213.452193 
L 311.13425 216.793478 
L 317.83025 216.793478 
L 317.83025 220.612089 
L 324.52625 220.612089 
L 324.52625 222.521395 
L 331.22225 222.521395 
L 331.22225 222.760058 
L 337.91825 222.760058 
L 337.91825 225.862679 
L 344.61425 225.862679 
L 344.61425 225.862679 
L 351.31025 225.862679 
L 351.31025 225.862679 
L 358.00625 225.862679 
L 358.00625 226.101343 
L 364.70225 226.101343 
L 364.70225 226.340006 
L 371.39825 226.340006 
L 371.39825 226.340006 
L 378.09425 226.340006 
L 378.09425 226.340006 
L 384.79025 226.340006 
L 384.79025 225.862679 
L 391.48625 225.862679 
L 391.48625 226.340006 
" clip-path="url(#p3fc2ab84d7)" style="fill: none; stroke: #348abd; stroke-width: 1.5; stroke-linejoin: miter"/>
   </g>
   <g id="patch_4">
    <path d="M 56.68625 226.340006 
L 56.68625 226.101343 
L 63.38225 226.101343 
L 63.38225 225.862679 
L 70.07825 225.862679 
L 70.07825 225.862679 
L 76.77425 225.862679 
L 76.77425 224.4307 
L 83.47025 224.4307 
L 83.47025 223.714711 
L 90.16625 223.714711 
L 90.16625 221.566742 
L 96.86225 221.566742 
L 96.86225 219.418773 
L 103.55825 219.418773 
L 103.55825 216.554815 
L 110.25425 216.554815 
L 110.25425 210.349572 
L 116.95025 210.349572 
L 116.95025 207.008287 
L 123.64625 207.008287 
L 123.64625 203.667002 
L 130.34225 203.667002 
L 130.34225 196.268443 
L 137.03825 196.268443 
L 137.03825 184.335284 
L 143.73425 184.335284 
L 143.73425 181.948652 
L 150.43025 181.948652 
L 150.43025 175.027419 
L 157.12625 175.027419 
L 157.12625 172.879451 
L 163.82225 172.879451 
L 163.82225 173.118114 
L 170.51825 173.118114 
L 170.51825 166.912871 
L 177.21425 166.912871 
L 177.21425 156.41169 
L 183.91025 156.41169 
L 183.91025 151.638426 
L 190.60625 151.638426 
L 190.60625 134.69334 
L 197.30225 134.69334 
L 197.30225 112.259 
L 203.99825 112.259 
L 203.99825 100.803166 
L 210.69425 100.803166 
L 210.69425 69.776951 
L 217.39025 69.776951 
L 217.39025 48.77459 
L 224.08625 48.77459 
L 224.08625 36.841431 
L 230.78225 36.841431 
L 230.78225 37.080094 
L 237.47825 37.080094 
L 237.47825 49.729243 
L 244.17425 49.729243 
L 244.17425 53.070528 
L 250.87025 53.070528 
L 250.87025 59.037107 
L 257.56625 59.037107 
L 257.56625 89.347333 
L 264.26225 89.347333 
L 264.26225 115.361621 
L 270.95825 115.361621 
L 270.95825 143.762541 
L 277.65425 143.762541 
L 277.65425 161.423617 
L 284.35025 161.423617 
L 284.35025 180.27801 
L 291.04625 180.27801 
L 291.04625 190.540527 
L 297.74225 190.540527 
L 297.74225 206.292298 
L 304.43825 206.292298 
L 304.43825 213.21353 
L 311.13425 213.21353 
L 311.13425 219.18011 
L 317.83025 219.18011 
L 317.83025 220.612089 
L 324.52625 220.612089 
L 324.52625 224.669363 
L 331.22225 224.669363 
L 331.22225 224.669363 
L 337.91825 224.669363 
L 337.91825 226.101343 
L 344.61425 226.101343 
L 344.61425 225.862679 
L 351.31025 225.862679 
L 351.31025 226.101343 
L 358.00625 226.101343 
L 358.00625 226.101343 
L 364.70225 226.101343 
L 364.70225 226.340006 
L 371.39825 226.340006 
L 371.39825 226.340006 
L 378.09425 226.340006 
L 378.09425 226.340006 
L 384.79025 226.340006 
L 384.79025 226.340006 
L 391.48625 226.340006 
L 391.48625 226.340006 
" clip-path="url(#p3fc2ab84d7)" style="fill: none; stroke: #e24a33; stroke-width: 1.5; stroke-linejoin: miter"/>
   </g>
   <g id="LineCollection_1">
    <path d="M 60.03425 226.340006 
L 60.03425 225.900622 
" clip-path="url(#p3fc2ab84d7)" style="fill: none; stroke: #348abd; stroke-width: 1.5"/>
    <path d="M 66.73025 226.298776 
L 66.73025 225.55253 
" clip-path="url(#p3fc2ab84d7)" style="fill: none; stroke: #348abd; stroke-width: 1.5"/>
    <path d="M 73.42625 226.298776 
L 73.42625 225.55253 
" clip-path="url(#p3fc2ab84d7)" style="fill: none; stroke: #348abd; stroke-width: 1.5"/>
    <path d="M 80.12225 225.476029 
L 80.12225 224.052743 
" clip-path="url(#p3fc2ab84d7)" style="fill: none; stroke: #348abd; stroke-width: 1.5"/>
    <path d="M 86.81825 225.285465 
L 86.81825 223.769536 
" clip-path="url(#p3fc2ab84d7)" style="fill: none; stroke: #348abd; stroke-width: 1.5"/>
    <path d="M 93.51425 223.88094 
L 93.51425 221.845887 
" clip-path="url(#p3fc2ab84d7)" style="fill: none; stroke: #348abd; stroke-width: 1.5"/>
    <path d="M 100.21025 221.773093 
L 100.21025 219.188002 
" clip-path="url(#p3fc2ab84d7)" style="fill: none; stroke: #348abd; stroke-width: 1.5"/>
    <path d="M 106.90625 216.31043 
L 106.90625 212.724835 
" clip-path="url(#p3fc2ab84d7)" style="fill: none; stroke: #348abd; stroke-width: 1.5"/>
    <path d="M 113.60225 207.798124 
L 113.60225 203.103007 
" clip-path="url(#p3fc2ab84d7)" style="fill: none; stroke: #348abd; stroke-width: 1.5"/>
    <path d="M 120.29825 197.118414 
L 120.29825 191.35087 
" clip-path="url(#p3fc2ab84d7)" style="fill: none; stroke: #348abd; stroke-width: 1.5"/>
    <path d="M 126.99425 186.349886 
L 126.99425 179.686501 
" clip-path="url(#p3fc2ab84d7)" style="fill: none; stroke: #348abd; stroke-width: 1.5"/>
    <path d="M 133.69025 174.141055 
L 133.69025 166.598106 
" clip-path="url(#p3fc2ab84d7)" style="fill: none; stroke: #348abd; stroke-width: 1.5"/>
    <path d="M 140.38625 151.682393 
L 140.38625 142.757353 
" clip-path="url(#p3fc2ab84d7)" style="fill: none; stroke: #348abd; stroke-width: 1.5"/>
    <path d="M 147.08225 130.292114 
L 147.08225 120.234364 
" clip-path="url(#p3fc2ab84d7)" style="fill: none; stroke: #348abd; stroke-width: 1.5"/>
    <path d="M 153.77825 114.676276 
L 153.77825 103.869747 
" clip-path="url(#p3fc2ab84d7)" style="fill: none; stroke: #348abd; stroke-width: 1.5"/>
    <path d="M 160.47425 104.640765 
L 160.47425 93.380445 
" clip-path="url(#p3fc2ab84d7)" style="fill: none; stroke: #348abd; stroke-width: 1.5"/>
    <path d="M 167.17025 105.808168 
L 167.17025 94.599649 
" clip-path="url(#p3fc2ab84d7)" style="fill: none; stroke: #348abd; stroke-width: 1.5"/>
    <path d="M 173.86625 110.476531 
L 173.86625 99.477713 
" clip-path="url(#p3fc2ab84d7)" style="fill: none; stroke: #348abd; stroke-width: 1.5"/>
    <path d="M 180.56225 123.536417 
L 180.56225 113.147786 
" clip-path="url(#p3fc2ab84d7)" style="fill: none; stroke: #348abd; stroke-width: 1.5"/>
    <path d="M 187.25825 120.040005 
L 187.25825 109.484392 
" clip-path="url(#p3fc2ab84d7)" style="fill: none; stroke: #348abd; stroke-width: 1.5"/>
    <path d="M 193.95425 123.303365 
L 193.95425 112.903517 
" clip-path="url(#p3fc2ab84d7)" style="fill: none; stroke: #348abd; stroke-width: 1.5"/>
    <path d="M 200.65025 126.332542 
L 200.65025 116.079501 
" clip-path="url(#p3fc2ab84d7)" style="fill: none; stroke: #348abd; stroke-width: 1.5"/>
    <path d="M 207.34625 122.371098 
L 207.34625 111.926503 
" clip-path="url(#p3fc2ab84d7)" style="fill: none; stroke: #348abd; stroke-width: 1.5"/>
    <path d="M 214.04225 118.641064 
L 214.04225 108.01941 
" clip-path="url(#p3fc2ab84d7)" style="fill: none; stroke: #348abd; stroke-width: 1.5"/>
    <path d="M 220.73825 108.142603 
L 220.73825 97.038429 
" clip-path="url(#p3fc2ab84d7)" style="fill: none; stroke: #348abd; stroke-width: 1.5"/>
    <path d="M 227.43425 100.203542 
L 227.43425 88.748556 
" clip-path="url(#p3fc2ab84d7)" style="fill: none; stroke: #348abd; stroke-width: 1.5"/>
    <path d="M 234.13025 99.035572 
L 234.13025 87.529917 
" clip-path="url(#p3fc2ab84d7)" style="fill: none; stroke: #348abd; stroke-width: 1.5"/>
    <path d="M 240.82625 105.341222 
L 240.82625 94.111953 
" clip-path="url(#p3fc2ab84d7)" style="fill: none; stroke: #348abd; stroke-width: 1.5"/>
    <path d="M 247.52225 109.309631 
L 247.52225 98.258007 
" clip-path="url(#p3fc2ab84d7)" style="fill: none; stroke: #348abd; stroke-width: 1.5"/>
    <path d="M 254.21825 127.963187 
L 254.21825 117.790095 
" clip-path="url(#p3fc2ab84d7)" style="fill: none; stroke: #348abd; stroke-width: 1.5"/>
    <path d="M 260.91425 138.205176 
L 260.91425 128.55015 
" clip-path="url(#p3fc2ab84d7)" style="fill: none; stroke: #348abd; stroke-width: 1.5"/>
    <path d="M 267.61025 154.002898 
L 267.61025 145.210011 
" clip-path="url(#p3fc2ab84d7)" style="fill: none; stroke: #348abd; stroke-width: 1.5"/>
    <path d="M 274.30625 159.104277 
L 274.30625 150.609571 
" clip-path="url(#p3fc2ab84d7)" style="fill: none; stroke: #348abd; stroke-width: 1.5"/>
    <path d="M 281.00225 184.050839 
L 281.00225 177.21252 
" clip-path="url(#p3fc2ab84d7)" style="fill: none; stroke: #348abd; stroke-width: 1.5"/>
    <path d="M 287.69825 191.627995 
L 287.69825 185.386274 
" clip-path="url(#p3fc2ab84d7)" style="fill: none; stroke: #348abd; stroke-width: 1.5"/>
    <path d="M 294.39425 202.359072 
L 294.39425 197.087698 
" clip-path="url(#p3fc2ab84d7)" style="fill: none; stroke: #348abd; stroke-width: 1.5"/>
    <path d="M 301.09025 208.249664 
L 301.09025 203.60597 
" clip-path="url(#p3fc2ab84d7)" style="fill: none; stroke: #348abd; stroke-width: 1.5"/>
    <path d="M 307.78625 215.200554 
L 307.78625 211.44889 
" clip-path="url(#p3fc2ab84d7)" style="fill: none; stroke: #348abd; stroke-width: 1.5"/>
    <path d="M 314.48225 218.296579 
L 314.48225 215.032797 
" clip-path="url(#p3fc2ab84d7)" style="fill: none; stroke: #348abd; stroke-width: 1.5"/>
    <path d="M 321.17825 221.773093 
L 321.17825 219.188002 
" clip-path="url(#p3fc2ab84d7)" style="fill: none; stroke: #348abd; stroke-width: 1.5"/>
    <path d="M 327.87425 223.465976 
L 327.87425 221.308254 
" clip-path="url(#p3fc2ab84d7)" style="fill: none; stroke: #348abd; stroke-width: 1.5"/>
    <path d="M 334.57025 223.67399 
L 334.57025 221.57659 
" clip-path="url(#p3fc2ab84d7)" style="fill: none; stroke: #348abd; stroke-width: 1.5"/>
    <path d="M 341.26625 226.170988 
L 341.26625 225.233119 
" clip-path="url(#p3fc2ab84d7)" style="fill: none; stroke: #348abd; stroke-width: 1.5"/>
    <path d="M 347.96225 226.170988 
L 347.96225 225.233119 
" clip-path="url(#p3fc2ab84d7)" style="fill: none; stroke: #348abd; stroke-width: 1.5"/>
    <path d="M 354.65825 226.170988 
L 354.65825 225.233119 
" clip-path="url(#p3fc2ab84d7)" style="fill: none; stroke: #348abd; stroke-width: 1.5"/>
    <path d="M 361.35425 226.298776 
L 361.35425 225.55253 
" clip-path="url(#p3fc2ab84d7)" style="fill: none; stroke: #348abd; stroke-width: 1.5"/>
    <path d="M 368.05025 226.340006 
L 368.05025 225.900622 
" clip-path="url(#p3fc2ab84d7)" style="fill: none; stroke: #348abd; stroke-width: 1.5"/>
    <path d="M 374.74625 226.340006 
L 374.74625 225.900622 
" clip-path="url(#p3fc2ab84d7)" style="fill: none; stroke: #348abd; stroke-width: 1.5"/>
    <path d="M 381.44225 226.340006 
L 381.44225 225.900622 
" clip-path="url(#p3fc2ab84d7)" style="fill: none; stroke: #348abd; stroke-width: 1.5"/>
    <path d="M 388.13825 226.170988 
L 388.13825 225.233119 
" clip-path="url(#p3fc2ab84d7)" style="fill: none; stroke: #348abd; stroke-width: 1.5"/>
   </g>
   <g id="LineCollection_2"/>
   <g id="LineCollection_3">
    <path d="M 60.03425 226.298776 
L 60.03425 225.55253 
" clip-path="url(#p3fc2ab84d7)" style="fill: none; stroke: #e24a33; stroke-width: 1.5"/>
    <path d="M 66.73025 226.170988 
L 66.73025 225.233119 
" clip-path="url(#p3fc2ab84d7)" style="fill: none; stroke: #e24a33; stroke-width: 1.5"/>
    <path d="M 73.42625 226.170988 
L 73.42625 225.233119 
" clip-path="url(#p3fc2ab84d7)" style="fill: none; stroke: #e24a33; stroke-width: 1.5"/>
    <path d="M 80.12225 225.091412 
L 80.12225 223.48914 
" clip-path="url(#p3fc2ab84d7)" style="fill: none; stroke: #e24a33; stroke-width: 1.5"/>
    <path d="M 86.81825 224.494084 
L 86.81825 222.66065 
" clip-path="url(#p3fc2ab84d7)" style="fill: none; stroke: #e24a33; stroke-width: 1.5"/>
    <path d="M 93.51425 222.625081 
L 93.51425 220.242992 
" clip-path="url(#p3fc2ab84d7)" style="fill: none; stroke: #e24a33; stroke-width: 1.5"/>
    <path d="M 100.21025 220.69656 
L 100.21025 217.880107 
" clip-path="url(#p3fc2ab84d7)" style="fill: none; stroke: #e24a33; stroke-width: 1.5"/>
    <path d="M 106.90625 218.076746 
L 106.90625 214.775537 
" clip-path="url(#p3fc2ab84d7)" style="fill: none; stroke: #e24a33; stroke-width: 1.5"/>
    <path d="M 113.60225 212.298226 
L 113.60225 208.147641 
" clip-path="url(#p3fc2ab84d7)" style="fill: none; stroke: #e24a33; stroke-width: 1.5"/>
    <path d="M 120.29825 209.151813 
L 120.29825 204.612809 
" clip-path="url(#p3fc2ab84d7)" style="fill: none; stroke: #e24a33; stroke-width: 1.5"/>
    <path d="M 126.99425 205.989103 
L 126.99425 201.093969 
" clip-path="url(#p3fc2ab84d7)" style="fill: none; stroke: #e24a33; stroke-width: 1.5"/>
    <path d="M 133.69025 198.943873 
L 133.69025 193.343699 
" clip-path="url(#p3fc2ab84d7)" style="fill: none; stroke: #e24a33; stroke-width: 1.5"/>
    <path d="M 140.38625 187.4985 
L 140.38625 180.924394 
" clip-path="url(#p3fc2ab84d7)" style="fill: none; stroke: #e24a33; stroke-width: 1.5"/>
    <path d="M 147.08225 185.200657 
L 147.08225 178.449218 
" clip-path="url(#p3fc2ab84d7)" style="fill: none; stroke: #e24a33; stroke-width: 1.5"/>
    <path d="M 153.77825 178.524187 
L 153.77825 171.283836 
" clip-path="url(#p3fc2ab84d7)" style="fill: none; stroke: #e24a33; stroke-width: 1.5"/>
    <path d="M 160.47425 176.448768 
L 160.47425 169.063484 
" clip-path="url(#p3fc2ab84d7)" style="fill: none; stroke: #e24a33; stroke-width: 1.5"/>
    <path d="M 167.17025 176.679443 
L 167.17025 169.310117 
" clip-path="url(#p3fc2ab84d7)" style="fill: none; stroke: #e24a33; stroke-width: 1.5"/>
    <path d="M 173.86625 170.676384 
L 173.86625 162.90312 
" clip-path="url(#p3fc2ab84d7)" style="fill: none; stroke: #e24a33; stroke-width: 1.5"/>
    <path d="M 180.56225 160.494616 
L 180.56225 152.08312 
" clip-path="url(#p3fc2ab84d7)" style="fill: none; stroke: #e24a33; stroke-width: 1.5"/>
    <path d="M 187.25825 155.858555 
L 187.25825 147.17288 
" clip-path="url(#p3fc2ab84d7)" style="fill: none; stroke: #e24a33; stroke-width: 1.5"/>
    <path d="M 193.95425 139.368129 
L 193.95425 129.773789 
" clip-path="url(#p3fc2ab84d7)" style="fill: none; stroke: #e24a33; stroke-width: 1.5"/>
    <path d="M 200.65025 117.47512 
L 200.65025 106.798751 
" clip-path="url(#p3fc2ab84d7)" style="fill: none; stroke: #e24a33; stroke-width: 1.5"/>
    <path d="M 207.34625 106.275095 
L 207.34625 95.087366 
" clip-path="url(#p3fc2ab84d7)" style="fill: none; stroke: #e24a33; stroke-width: 1.5"/>
    <path d="M 214.04225 75.888156 
L 214.04225 63.42242 
" clip-path="url(#p3fc2ab84d7)" style="fill: none; stroke: #e24a33; stroke-width: 1.5"/>
    <path d="M 220.73825 55.282993 
L 220.73825 42.023145 
" clip-path="url(#p3fc2ab84d7)" style="fill: none; stroke: #e24a33; stroke-width: 1.5"/>
    <path d="M 227.43425 43.565069 
L 227.43425 29.87489 
" clip-path="url(#p3fc2ab84d7)" style="fill: none; stroke: #e24a33; stroke-width: 1.5"/>
    <path d="M 234.13025 43.799495 
L 234.13025 30.117787 
" clip-path="url(#p3fc2ab84d7)" style="fill: none; stroke: #e24a33; stroke-width: 1.5"/>
    <path d="M 240.82625 56.220119 
L 240.82625 42.995313 
" clip-path="url(#p3fc2ab84d7)" style="fill: none; stroke: #e24a33; stroke-width: 1.5"/>
    <path d="M 247.52225 59.499682 
L 247.52225 46.398277 
" clip-path="url(#p3fc2ab84d7)" style="fill: none; stroke: #e24a33; stroke-width: 1.5"/>
    <path d="M 254.21825 65.354546 
L 254.21825 52.476494 
" clip-path="url(#p3fc2ab84d7)" style="fill: none; stroke: #e24a33; stroke-width: 1.5"/>
    <path d="M 260.91425 95.063633 
L 260.91425 83.387383 
" clip-path="url(#p3fc2ab84d7)" style="fill: none; stroke: #e24a33; stroke-width: 1.5"/>
    <path d="M 267.61025 120.506272 
L 267.61025 109.972767 
" clip-path="url(#p3fc2ab84d7)" style="fill: none; stroke: #e24a33; stroke-width: 1.5"/>
    <path d="M 274.30625 148.199789 
L 274.30625 139.080206 
" clip-path="url(#p3fc2ab84d7)" style="fill: none; stroke: #e24a33; stroke-width: 1.5"/>
    <path d="M 281.00225 165.357333 
L 281.00225 157.243992 
" clip-path="url(#p3fc2ab84d7)" style="fill: none; stroke: #e24a33; stroke-width: 1.5"/>
    <path d="M 287.69825 183.590752 
L 287.69825 176.718 
" clip-path="url(#p3fc2ab84d7)" style="fill: none; stroke: #e24a33; stroke-width: 1.5"/>
    <path d="M 294.39425 193.460282 
L 294.39425 187.372347 
" clip-path="url(#p3fc2ab84d7)" style="fill: none; stroke: #e24a33; stroke-width: 1.5"/>
    <path d="M 301.09025 208.475319 
L 301.09025 203.857563 
" clip-path="url(#p3fc2ab84d7)" style="fill: none; stroke: #e24a33; stroke-width: 1.5"/>
    <path d="M 307.78625 214.978106 
L 307.78625 211.194161 
" clip-path="url(#p3fc2ab84d7)" style="fill: none; stroke: #e24a33; stroke-width: 1.5"/>
    <path d="M 314.48225 220.479994 
L 314.48225 217.619719 
" clip-path="url(#p3fc2ab84d7)" style="fill: none; stroke: #e24a33; stroke-width: 1.5"/>
    <path d="M 321.17825 221.773093 
L 321.17825 219.188002 
" clip-path="url(#p3fc2ab84d7)" style="fill: none; stroke: #e24a33; stroke-width: 1.5"/>
    <path d="M 327.87425 225.285465 
L 327.87425 223.769536 
" clip-path="url(#p3fc2ab84d7)" style="fill: none; stroke: #e24a33; stroke-width: 1.5"/>
    <path d="M 334.57025 225.285465 
L 334.57025 223.769536 
" clip-path="url(#p3fc2ab84d7)" style="fill: none; stroke: #e24a33; stroke-width: 1.5"/>
    <path d="M 341.26625 226.298776 
L 341.26625 225.55253 
" clip-path="url(#p3fc2ab84d7)" style="fill: none; stroke: #e24a33; stroke-width: 1.5"/>
    <path d="M 347.96225 226.170988 
L 347.96225 225.233119 
" clip-path="url(#p3fc2ab84d7)" style="fill: none; stroke: #e24a33; stroke-width: 1.5"/>
    <path d="M 354.65825 226.298776 
L 354.65825 225.55253 
" clip-path="url(#p3fc2ab84d7)" style="fill: none; stroke: #e24a33; stroke-width: 1.5"/>
    <path d="M 361.35425 226.298776 
L 361.35425 225.55253 
" clip-path="url(#p3fc2ab84d7)" style="fill: none; stroke: #e24a33; stroke-width: 1.5"/>
    <path d="M 368.05025 226.340006 
L 368.05025 225.900622 
" clip-path="url(#p3fc2ab84d7)" style="fill: none; stroke: #e24a33; stroke-width: 1.5"/>
    <path d="M 374.74625 226.340006 
L 374.74625 225.900622 
" clip-path="url(#p3fc2ab84d7)" style="fill: none; stroke: #e24a33; stroke-width: 1.5"/>
    <path d="M 381.44225 226.340006 
L 381.44225 225.900622 
" clip-path="url(#p3fc2ab84d7)" style="fill: none; stroke: #e24a33; stroke-width: 1.5"/>
    <path d="M 388.13825 226.340006 
L 388.13825 225.900622 
" clip-path="url(#p3fc2ab84d7)" style="fill: none; stroke: #e24a33; stroke-width: 1.5"/>
   </g>
   <g id="LineCollection_4"/>
   <g id="line2d_1"/>
   <g id="line2d_2"/>
   <g id="line2d_3"/>
   <g id="line2d_4"/>
   <g id="patch_5">
    <path d="M 56.68625 226.340006 
L 56.68625 20.051634 
" style="fill: none; stroke: #000000; stroke-linejoin: miter; stroke-linecap: square"/>
   </g>
   <g id="patch_6">
    <path d="M 391.48625 226.340006 
L 391.48625 20.051634 
" style="fill: none; stroke: #000000; stroke-linejoin: miter; stroke-linecap: square"/>
   </g>
   <g id="patch_7">
    <path d="M 56.68625 226.340006 
L 391.48625 226.340006 
" style="fill: none; stroke: #000000; stroke-linejoin: miter; stroke-linecap: square"/>
   </g>
   <g id="patch_8">
    <path d="M 56.68625 20.051634 
L 391.48625 20.051634 
" style="fill: none; stroke: #000000; stroke-linejoin: miter; stroke-linecap: square"/>
   </g>
   <g id="matplotlib.axis_1">
    <g id="xtick_1">
     <g id="line2d_5">
      <defs>
       <path id="m8dec1b3d1d" d="M 0 0 
L 0 -6 
" style="stroke: #1a1a1a; stroke-width: 0.8"/>
      </defs>
      <g>
       <use xlink:href="#m8dec1b3d1d" x="106.256277" y="226.340006" style="fill: #1a1a1a; stroke: #1a1a1a; stroke-width: 0.8"/>
      </g>
     </g>
    </g>
    <g id="xtick_2">
     <g id="line2d_6">
      <g>
       <use xlink:href="#m8dec1b3d1d" x="199.342885" y="226.340006" style="fill: #1a1a1a; stroke: #1a1a1a; stroke-width: 0.8"/>
      </g>
     </g>
    </g>
    <g id="xtick_3">
     <g id="line2d_7">
      <g>
       <use xlink:href="#m8dec1b3d1d" x="292.429492" y="226.340006" style="fill: #1a1a1a; stroke: #1a1a1a; stroke-width: 0.8"/>
      </g>
     </g>
    </g>
    <g id="xtick_4">
     <g id="line2d_8">
      <g>
       <use xlink:href="#m8dec1b3d1d" x="385.516099" y="226.340006" style="fill: #1a1a1a; stroke: #1a1a1a; stroke-width: 0.8"/>
      </g>
     </g>
    </g>
    <g id="xtick_5">
     <g id="line2d_9">
      <defs>
       <path id="m131efc0c90" d="M 0 0 
L 0 -3 
" style="stroke: #1a1a1a; stroke-width: 0.6"/>
      </defs>
      <g>
       <use xlink:href="#m131efc0c90" x="69.021634" y="226.340006" style="fill: #1a1a1a; stroke: #1a1a1a; stroke-width: 0.6"/>
      </g>
     </g>
    </g>
    <g id="xtick_6">
     <g id="line2d_10">
      <g>
       <use xlink:href="#m131efc0c90" x="87.638956" y="226.340006" style="fill: #1a1a1a; stroke: #1a1a1a; stroke-width: 0.6"/>
      </g>
     </g>
    </g>
    <g id="xtick_7">
     <g id="line2d_11">
      <g>
       <use xlink:href="#m131efc0c90" x="124.873599" y="226.340006" style="fill: #1a1a1a; stroke: #1a1a1a; stroke-width: 0.6"/>
      </g>
     </g>
    </g>
    <g id="xtick_8">
     <g id="line2d_12">
      <g>
       <use xlink:href="#m131efc0c90" x="143.49092" y="226.340006" style="fill: #1a1a1a; stroke: #1a1a1a; stroke-width: 0.6"/>
      </g>
     </g>
    </g>
    <g id="xtick_9">
     <g id="line2d_13">
      <g>
       <use xlink:href="#m131efc0c90" x="162.108242" y="226.340006" style="fill: #1a1a1a; stroke: #1a1a1a; stroke-width: 0.6"/>
      </g>
     </g>
    </g>
    <g id="xtick_10">
     <g id="line2d_14">
      <g>
       <use xlink:href="#m131efc0c90" x="180.725563" y="226.340006" style="fill: #1a1a1a; stroke: #1a1a1a; stroke-width: 0.6"/>
      </g>
     </g>
    </g>
    <g id="xtick_11">
     <g id="line2d_15">
      <g>
       <use xlink:href="#m131efc0c90" x="217.960206" y="226.340006" style="fill: #1a1a1a; stroke: #1a1a1a; stroke-width: 0.6"/>
      </g>
     </g>
    </g>
    <g id="xtick_12">
     <g id="line2d_16">
      <g>
       <use xlink:href="#m131efc0c90" x="236.577527" y="226.340006" style="fill: #1a1a1a; stroke: #1a1a1a; stroke-width: 0.6"/>
      </g>
     </g>
    </g>
    <g id="xtick_13">
     <g id="line2d_17">
      <g>
       <use xlink:href="#m131efc0c90" x="255.194849" y="226.340006" style="fill: #1a1a1a; stroke: #1a1a1a; stroke-width: 0.6"/>
      </g>
     </g>
    </g>
    <g id="xtick_14">
     <g id="line2d_18">
      <g>
       <use xlink:href="#m131efc0c90" x="273.81217" y="226.340006" style="fill: #1a1a1a; stroke: #1a1a1a; stroke-width: 0.6"/>
      </g>
     </g>
    </g>
    <g id="xtick_15">
     <g id="line2d_19">
      <g>
       <use xlink:href="#m131efc0c90" x="311.046813" y="226.340006" style="fill: #1a1a1a; stroke: #1a1a1a; stroke-width: 0.6"/>
      </g>
     </g>
    </g>
    <g id="xtick_16">
     <g id="line2d_20">
      <g>
       <use xlink:href="#m131efc0c90" x="329.664135" y="226.340006" style="fill: #1a1a1a; stroke: #1a1a1a; stroke-width: 0.6"/>
      </g>
     </g>
    </g>
    <g id="xtick_17">
     <g id="line2d_21">
      <g>
       <use xlink:href="#m131efc0c90" x="348.281456" y="226.340006" style="fill: #1a1a1a; stroke: #1a1a1a; stroke-width: 0.6"/>
      </g>
     </g>
    </g>
    <g id="xtick_18">
     <g id="line2d_22">
      <g>
       <use xlink:href="#m131efc0c90" x="366.898778" y="226.340006" style="fill: #1a1a1a; stroke: #1a1a1a; stroke-width: 0.6"/>
      </g>
     </g>
    </g>
   </g>
   <g id="matplotlib.axis_2">
    <g id="ytick_1">
     <g id="line2d_23">
      <defs>
       <path id="mc947610920" d="M 0 0 
L 6 0 
" style="stroke: #1a1a1a; stroke-width: 0.8"/>
      </defs>
      <g>
       <use xlink:href="#mc947610920" x="56.68625" y="226.340006" style="fill: #1a1a1a; stroke: #1a1a1a; stroke-width: 0.8"/>
      </g>
     </g>
     <g id="text_1">
      <!-- $\mathdefault{0}$ -->
      <g style="fill: #1a1a1a" transform="translate(44.18625 231.545475) scale(0.15 -0.15)">
       <defs>
        <path id="LatinModernMath-Regular-30" d="M 2944 2048 
C 2944 2560 2912 3072 2688 3546 
C 2394 4160 1869 4262 1600 4262 
C 1216 4262 749 4096 486 3501 
C 282 3059 250 2560 250 2048 
C 250 1568 275 992 538 506 
C 813 -13 1280 -141 1594 -141 
C 1939 -141 2426 -6 2707 602 
C 2912 1043 2944 1542 2944 2048 
z
M 2413 2125 
C 2413 1645 2413 1210 2342 800 
C 2246 192 1882 0 1594 0 
C 1344 0 966 160 851 774 
C 781 1158 781 1747 781 2125 
C 781 2534 781 2957 832 3302 
C 954 4064 1434 4122 1594 4122 
C 1805 4122 2227 4006 2349 3373 
C 2413 3014 2413 2528 2413 2125 
z
" transform="scale(0.015625)"/>
       </defs>
       <use xlink:href="#LatinModernMath-Regular-30" transform="translate(0 0.40625)"/>
      </g>
     </g>
    </g>
    <g id="ytick_2">
     <g id="line2d_24">
      <g>
       <use xlink:href="#mc947610920" x="56.68625" y="178.607367" style="fill: #1a1a1a; stroke: #1a1a1a; stroke-width: 0.8"/>
      </g>
     </g>
     <g id="text_2">
      <!-- $\mathdefault{200}$ -->
      <g style="fill: #1a1a1a" transform="translate(29.18625 183.812836) scale(0.15 -0.15)">
       <defs>
        <path id="LatinModernMath-Regular-32" d="M 2874 1114 
L 2714 1114 
C 2682 922 2637 640 2573 544 
C 2528 493 2106 493 1965 493 
L 813 493 
L 1491 1152 
C 2490 2035 2874 2381 2874 3021 
C 2874 3750 2298 4262 1517 4262 
C 794 4262 320 3674 320 3104 
C 320 2746 640 2746 659 2746 
C 768 2746 992 2822 992 3085 
C 992 3251 877 3418 653 3418 
C 602 3418 589 3418 570 3411 
C 717 3827 1062 4064 1434 4064 
C 2016 4064 2291 3546 2291 3021 
C 2291 2509 1971 2003 1619 1606 
L 390 237 
C 320 166 320 154 320 0 
L 2694 0 
L 2874 1114 
z
" transform="scale(0.015625)"/>
       </defs>
       <use xlink:href="#LatinModernMath-Regular-32" transform="translate(0 0.40625)"/>
       <use xlink:href="#LatinModernMath-Regular-30" transform="translate(49.999985 0.40625)"/>
       <use xlink:href="#LatinModernMath-Regular-30" transform="translate(99.999969 0.40625)"/>
      </g>
     </g>
    </g>
    <g id="ytick_3">
     <g id="line2d_25">
      <g>
       <use xlink:href="#mc947610920" x="56.68625" y="130.874729" style="fill: #1a1a1a; stroke: #1a1a1a; stroke-width: 0.8"/>
      </g>
     </g>
     <g id="text_3">
      <!-- $\mathdefault{400}$ -->
      <g style="fill: #1a1a1a" transform="translate(29.18625 136.080197) scale(0.15 -0.15)">
       <defs>
        <path id="LatinModernMath-Regular-34" d="M 3014 1056 
L 3014 1254 
L 2374 1254 
L 2374 4166 
C 2374 4294 2374 4333 2272 4333 
C 2214 4333 2195 4333 2144 4256 
L 179 1254 
L 179 1056 
L 1882 1056 
L 1882 499 
C 1882 269 1869 198 1395 198 
L 1261 198 
L 1261 0 
C 1523 19 1856 19 2125 19 
C 2394 19 2733 19 2995 0 
L 2995 198 
L 2861 198 
C 2387 198 2374 269 2374 499 
L 2374 1056 
L 3014 1056 
z
M 1920 1254 
L 358 1254 
L 1920 3642 
L 1920 1254 
z
" transform="scale(0.015625)"/>
       </defs>
       <use xlink:href="#LatinModernMath-Regular-34" transform="translate(0 0.296875)"/>
       <use xlink:href="#LatinModernMath-Regular-30" transform="translate(49.999985 0.296875)"/>
       <use xlink:href="#LatinModernMath-Regular-30" transform="translate(99.999969 0.296875)"/>
      </g>
     </g>
    </g>
    <g id="ytick_4">
     <g id="line2d_26">
      <g>
       <use xlink:href="#mc947610920" x="56.68625" y="83.14209" style="fill: #1a1a1a; stroke: #1a1a1a; stroke-width: 0.8"/>
      </g>
     </g>
     <g id="text_4">
      <!-- $\mathdefault{600}$ -->
      <g style="fill: #1a1a1a" transform="translate(29.18625 88.347559) scale(0.15 -0.15)">
       <defs>
        <path id="LatinModernMath-Regular-36" d="M 2925 1306 
C 2925 2118 2355 2733 1645 2733 
C 1210 2733 973 2406 845 2099 
L 845 2253 
C 845 3872 1638 4102 1965 4102 
C 2118 4102 2387 4064 2528 3846 
C 2432 3846 2176 3846 2176 3558 
C 2176 3360 2330 3264 2470 3264 
C 2573 3264 2765 3322 2765 3571 
C 2765 3955 2483 4262 1952 4262 
C 1133 4262 269 3437 269 2022 
C 269 314 1011 -141 1606 -141 
C 2317 -141 2925 461 2925 1306 
z
M 2349 1312 
C 2349 1005 2349 685 2240 454 
C 2048 70 1754 38 1606 38 
C 1203 38 1011 422 973 518 
C 858 819 858 1331 858 1446 
C 858 1946 1062 2586 1638 2586 
C 1741 2586 2035 2586 2234 2189 
C 2349 1952 2349 1626 2349 1312 
z
" transform="scale(0.015625)"/>
       </defs>
       <use xlink:href="#LatinModernMath-Regular-36" transform="translate(0 0.40625)"/>
       <use xlink:href="#LatinModernMath-Regular-30" transform="translate(49.999985 0.40625)"/>
       <use xlink:href="#LatinModernMath-Regular-30" transform="translate(99.999969 0.40625)"/>
      </g>
     </g>
    </g>
    <g id="ytick_5">
     <g id="line2d_27">
      <g>
       <use xlink:href="#mc947610920" x="56.68625" y="35.409451" style="fill: #1a1a1a; stroke: #1a1a1a; stroke-width: 0.8"/>
      </g>
     </g>
     <g id="text_5">
      <!-- $\mathdefault{800}$ -->
      <g style="fill: #1a1a1a" transform="translate(29.18625 40.61492) scale(0.15 -0.15)">
       <defs>
        <path id="LatinModernMath-Regular-38" d="M 2925 1075 
C 2925 1306 2854 1594 2611 1862 
C 2490 1997 2387 2061 1978 2317 
C 2438 2554 2752 2886 2752 3309 
C 2752 3898 2182 4262 1600 4262 
C 960 4262 442 3789 442 3194 
C 442 3078 454 2790 723 2490 
C 794 2413 1030 2253 1190 2144 
C 819 1958 269 1600 269 966 
C 269 288 922 -141 1594 -141 
C 2317 -141 2925 390 2925 1075 
z
M 2470 3309 
C 2470 2944 2221 2637 1837 2413 
L 1043 2925 
C 749 3117 723 3334 723 3443 
C 723 3834 1139 4102 1594 4102 
C 2061 4102 2470 3770 2470 3309 
z
M 2605 845 
C 2605 371 2125 38 1600 38 
C 1050 38 589 435 589 966 
C 589 1338 794 1747 1338 2048 
L 2125 1549 
C 2304 1427 2605 1235 2605 845 
z
" transform="scale(0.015625)"/>
       </defs>
       <use xlink:href="#LatinModernMath-Regular-38" transform="translate(0 0.40625)"/>
       <use xlink:href="#LatinModernMath-Regular-30" transform="translate(49.999985 0.40625)"/>
       <use xlink:href="#LatinModernMath-Regular-30" transform="translate(99.999969 0.40625)"/>
      </g>
     </g>
    </g>
    <g id="ytick_6">
     <g id="line2d_28">
      <defs>
       <path id="m5f9d1e6504" d="M 0 0 
L 3 0 
" style="stroke: #1a1a1a; stroke-width: 0.6"/>
      </defs>
      <g>
       <use xlink:href="#m5f9d1e6504" x="56.68625" y="214.406846" style="fill: #1a1a1a; stroke: #1a1a1a; stroke-width: 0.6"/>
      </g>
     </g>
    </g>
    <g id="ytick_7">
     <g id="line2d_29">
      <g>
       <use xlink:href="#m5f9d1e6504" x="56.68625" y="202.473687" style="fill: #1a1a1a; stroke: #1a1a1a; stroke-width: 0.6"/>
      </g>
     </g>
    </g>
    <g id="ytick_8">
     <g id="line2d_30">
      <g>
       <use xlink:href="#m5f9d1e6504" x="56.68625" y="190.540527" style="fill: #1a1a1a; stroke: #1a1a1a; stroke-width: 0.6"/>
      </g>
     </g>
    </g>
    <g id="ytick_9">
     <g id="line2d_31">
      <g>
       <use xlink:href="#m5f9d1e6504" x="56.68625" y="166.674208" style="fill: #1a1a1a; stroke: #1a1a1a; stroke-width: 0.6"/>
      </g>
     </g>
    </g>
    <g id="ytick_10">
     <g id="line2d_32">
      <g>
       <use xlink:href="#m5f9d1e6504" x="56.68625" y="154.741048" style="fill: #1a1a1a; stroke: #1a1a1a; stroke-width: 0.6"/>
      </g>
     </g>
    </g>
    <g id="ytick_11">
     <g id="line2d_33">
      <g>
       <use xlink:href="#m5f9d1e6504" x="56.68625" y="142.807888" style="fill: #1a1a1a; stroke: #1a1a1a; stroke-width: 0.6"/>
      </g>
     </g>
    </g>
    <g id="ytick_12">
     <g id="line2d_34">
      <g>
       <use xlink:href="#m5f9d1e6504" x="56.68625" y="118.941569" style="fill: #1a1a1a; stroke: #1a1a1a; stroke-width: 0.6"/>
      </g>
     </g>
    </g>
    <g id="ytick_13">
     <g id="line2d_35">
      <g>
       <use xlink:href="#m5f9d1e6504" x="56.68625" y="107.008409" style="fill: #1a1a1a; stroke: #1a1a1a; stroke-width: 0.6"/>
      </g>
     </g>
    </g>
    <g id="ytick_14">
     <g id="line2d_36">
      <g>
       <use xlink:href="#m5f9d1e6504" x="56.68625" y="95.07525" style="fill: #1a1a1a; stroke: #1a1a1a; stroke-width: 0.6"/>
      </g>
     </g>
    </g>
    <g id="ytick_15">
     <g id="line2d_37">
      <g>
       <use xlink:href="#m5f9d1e6504" x="56.68625" y="71.20893" style="fill: #1a1a1a; stroke: #1a1a1a; stroke-width: 0.6"/>
      </g>
     </g>
    </g>
    <g id="ytick_16">
     <g id="line2d_38">
      <g>
       <use xlink:href="#m5f9d1e6504" x="56.68625" y="59.275771" style="fill: #1a1a1a; stroke: #1a1a1a; stroke-width: 0.6"/>
      </g>
     </g>
    </g>
    <g id="ytick_17">
     <g id="line2d_39">
      <g>
       <use xlink:href="#m5f9d1e6504" x="56.68625" y="47.342611" style="fill: #1a1a1a; stroke: #1a1a1a; stroke-width: 0.6"/>
      </g>
     </g>
    </g>
    <g id="ytick_18">
     <g id="line2d_40">
      <g>
       <use xlink:href="#m5f9d1e6504" x="56.68625" y="23.476292" style="fill: #1a1a1a; stroke: #1a1a1a; stroke-width: 0.6"/>
      </g>
     </g>
    </g>
    <g id="text_6">
     <!-- Entries -->
     <g style="fill: #1a1a1a" transform="translate(19.693125 151.402382) rotate(-90) scale(0.18 -0.18)">
      <defs>
       <path id="LatinModernMath-Regular-45" d="M 4173 1651 
L 4013 1651 
C 3853 666 3706 198 2605 198 
L 1754 198 
C 1453 198 1440 243 1440 454 
L 1440 2163 
L 2016 2163 
C 2637 2163 2707 1958 2707 1414 
L 2867 1414 
L 2867 3110 
L 2707 3110 
C 2707 2560 2637 2362 2016 2362 
L 1440 2362 
L 1440 3898 
C 1440 4109 1453 4154 1754 4154 
L 2579 4154 
C 3558 4154 3731 3802 3834 2912 
L 3994 2912 
L 3814 4352 
L 211 4352 
L 211 4154 
L 365 4154 
C 858 4154 870 4083 870 3853 
L 870 499 
C 870 269 858 198 365 198 
L 211 198 
L 211 0 
L 3904 0 
L 4173 1651 
z
" transform="scale(0.015625)"/>
       <path id="LatinModernMath-Regular-6e" d="M 3424 0 
L 3424 198 
C 3091 198 2931 198 2925 390 
L 2925 1613 
C 2925 2163 2925 2362 2726 2592 
C 2637 2701 2426 2829 2054 2829 
C 1587 2829 1286 2554 1107 2157 
L 1107 2829 
L 205 2758 
L 205 2560 
C 653 2560 704 2515 704 2202 
L 704 486 
C 704 198 634 198 205 198 
L 205 0 
L 928 19 
L 1645 0 
L 1645 198 
C 1216 198 1146 198 1146 486 
L 1146 1664 
C 1146 2330 1600 2688 2010 2688 
C 2413 2688 2483 2342 2483 1978 
L 2483 486 
C 2483 198 2413 198 1984 198 
L 1984 0 
L 2707 19 
L 3424 0 
z
" transform="scale(0.015625)"/>
       <path id="LatinModernMath-Regular-74" d="M 2125 794 
L 2125 1158 
L 1965 1158 
L 1965 806 
C 1965 333 1773 90 1536 90 
C 1107 90 1107 672 1107 781 
L 1107 2560 
L 2022 2560 
L 2022 2758 
L 1107 2758 
L 1107 3936 
L 947 3936 
C 941 3411 749 2726 122 2701 
L 122 2560 
L 666 2560 
L 666 794 
C 666 6 1261 -70 1491 -70 
C 1946 -70 2125 384 2125 794 
z
" transform="scale(0.015625)"/>
       <path id="LatinModernMath-Regular-72" d="M 2330 2438 
C 2330 2643 2131 2829 1856 2829 
C 1389 2829 1158 2400 1069 2125 
L 1069 2829 
L 179 2758 
L 179 2560 
C 627 2560 678 2515 678 2202 
L 678 486 
C 678 198 608 198 179 198 
L 179 0 
L 909 19 
C 1165 19 1466 19 1722 0 
L 1722 198 
L 1587 198 
C 1114 198 1101 269 1101 499 
L 1101 1485 
C 1101 2118 1370 2688 1856 2688 
C 1901 2688 1914 2688 1926 2682 
C 1907 2675 1779 2598 1779 2432 
C 1779 2253 1914 2157 2054 2157 
C 2170 2157 2330 2234 2330 2438 
z
" transform="scale(0.015625)"/>
       <path id="LatinModernMath-Regular-69" d="M 1581 0 
L 1581 198 
C 1158 198 1133 230 1133 480 
L 1133 2829 
L 237 2758 
L 237 2560 
C 653 2560 710 2522 710 2208 
L 710 486 
C 710 198 640 198 211 198 
L 211 0 
L 915 19 
C 1139 19 1363 6 1581 0 
z
M 1229 3866 
C 1229 4038 1082 4205 890 4205 
C 672 4205 544 4026 544 3866 
C 544 3693 691 3526 883 3526 
C 1101 3526 1229 3706 1229 3866 
z
" transform="scale(0.015625)"/>
       <path id="LatinModernMath-Regular-65" d="M 2656 762 
C 2656 826 2605 838 2573 838 
C 2515 838 2502 800 2490 749 
C 2266 90 1690 90 1626 90 
C 1306 90 1050 282 902 518 
C 710 826 710 1248 710 1478 
L 2496 1478 
C 2637 1478 2656 1478 2656 1613 
C 2656 2246 2310 2867 1510 2867 
C 768 2867 179 2208 179 1408 
C 179 550 851 -70 1587 -70 
C 2368 -70 2656 640 2656 762 
z
M 2234 1613 
L 717 1613 
C 755 2566 1293 2726 1510 2726 
C 2170 2726 2234 1862 2234 1613 
z
" transform="scale(0.015625)"/>
       <path id="LatinModernMath-Regular-73" d="M 2304 819 
C 2304 1158 2112 1350 2035 1427 
C 1824 1632 1574 1683 1306 1734 
C 947 1805 518 1888 518 2259 
C 518 2483 685 2746 1235 2746 
C 1939 2746 1971 2170 1984 1971 
C 1990 1914 2061 1914 2061 1914 
C 2144 1914 2144 1946 2144 2067 
L 2144 2714 
C 2144 2822 2144 2867 2074 2867 
C 2042 2867 2029 2867 1946 2790 
C 1926 2765 1862 2707 1837 2688 
C 1594 2867 1331 2867 1235 2867 
C 454 2867 211 2438 211 2080 
C 211 1856 314 1677 486 1536 
C 691 1370 870 1331 1331 1242 
C 1472 1216 1997 1114 1997 653 
C 1997 326 1773 70 1274 70 
C 736 70 506 435 384 979 
C 365 1062 358 1088 294 1088 
C 211 1088 211 1043 211 928 
L 211 83 
C 211 -26 211 -70 282 -70 
C 314 -70 320 -64 442 58 
C 454 70 454 83 570 205 
C 851 -64 1139 -70 1274 -70 
C 2010 -70 2304 358 2304 819 
z
" transform="scale(0.015625)"/>
      </defs>
      <use xlink:href="#LatinModernMath-Regular-45"/>
      <use xlink:href="#LatinModernMath-Regular-6e" transform="translate(68.099991 0)"/>
      <use xlink:href="#LatinModernMath-Regular-74" transform="translate(123.699982 0)"/>
      <use xlink:href="#LatinModernMath-Regular-72" transform="translate(162.599976 0)"/>
      <use xlink:href="#LatinModernMath-Regular-69" transform="translate(201.799973 0)"/>
      <use xlink:href="#LatinModernMath-Regular-65" transform="translate(229.59996 0)"/>
      <use xlink:href="#LatinModernMath-Regular-73" transform="translate(273.999954 0)"/>
     </g>
    </g>
   </g>
   <g id="text_7">
    <!-- Comparison of two hist with difference plot -->
    <g style="fill: #1a1a1a" transform="translate(56.68625 15.66) scale(0.12 -0.12)">
     <defs>
      <path id="LatinModernMath-Regular-43" d="M 4256 1491 
C 4256 1555 4256 1600 4173 1600 
C 4102 1600 4102 1562 4096 1498 
C 4045 582 3360 58 2662 58 
C 2272 58 1018 275 1018 2182 
C 1018 4096 2266 4314 2656 4314 
C 3354 4314 3923 3731 4051 2797 
C 4064 2707 4064 2688 4154 2688 
C 4256 2688 4256 2707 4256 2842 
L 4256 4358 
C 4256 4467 4256 4512 4186 4512 
C 4160 4512 4134 4512 4083 4435 
L 3763 3962 
C 3526 4192 3200 4512 2586 4512 
C 1389 4512 358 3494 358 2189 
C 358 864 1395 -141 2586 -141 
C 3629 -141 4256 749 4256 1491 
z
" transform="scale(0.015625)"/>
      <path id="LatinModernMath-Regular-6f" d="M 3014 1370 
C 3014 2189 2374 2867 1600 2867 
C 800 2867 179 2170 179 1370 
C 179 544 845 -70 1594 -70 
C 2368 -70 3014 557 3014 1370 
z
M 2483 1421 
C 2483 1190 2483 845 2342 563 
C 2202 275 1920 90 1600 90 
C 1325 90 1043 224 870 518 
C 710 800 710 1190 710 1421 
C 710 1670 710 2016 864 2298 
C 1037 2592 1338 2726 1594 2726 
C 1875 2726 2150 2586 2317 2310 
C 2483 2035 2483 1664 2483 1421 
z
" transform="scale(0.015625)"/>
      <path id="LatinModernMath-Regular-6d" d="M 5203 0 
L 5203 198 
C 4870 198 4710 198 4704 390 
L 4704 1613 
C 4704 2163 4704 2362 4506 2592 
C 4416 2701 4205 2829 3834 2829 
C 3296 2829 3014 2445 2906 2202 
C 2816 2758 2342 2829 2054 2829 
C 1587 2829 1286 2554 1107 2157 
L 1107 2829 
L 205 2758 
L 205 2560 
C 653 2560 704 2515 704 2202 
L 704 486 
C 704 198 634 198 205 198 
L 205 0 
L 928 19 
L 1645 0 
L 1645 198 
C 1216 198 1146 198 1146 486 
L 1146 1664 
C 1146 2330 1600 2688 2010 2688 
C 2413 2688 2483 2342 2483 1978 
L 2483 486 
C 2483 198 2413 198 1984 198 
L 1984 0 
L 2707 19 
L 3424 0 
L 3424 198 
C 2995 198 2925 198 2925 486 
L 2925 1664 
C 2925 2330 3379 2688 3789 2688 
C 4192 2688 4262 2342 4262 1978 
L 4262 486 
C 4262 198 4192 198 3763 198 
L 3763 0 
L 4486 19 
L 5203 0 
z
" transform="scale(0.015625)"/>
      <path id="LatinModernMath-Regular-70" d="M 3334 1382 
C 3334 2195 2714 2829 1997 2829 
C 1498 2829 1229 2547 1101 2406 
L 1101 2829 
L 179 2758 
L 179 2560 
C 634 2560 678 2522 678 2240 
L 678 -755 
C 678 -1043 608 -1043 179 -1043 
L 179 -1242 
L 896 -1222 
L 1619 -1242 
L 1619 -1043 
C 1190 -1043 1120 -1043 1120 -755 
L 1120 320 
L 1120 378 
C 1152 275 1421 -70 1907 -70 
C 2669 -70 3334 557 3334 1382 
z
M 2803 1382 
C 2803 608 2355 70 1882 70 
C 1626 70 1382 198 1210 461 
C 1120 595 1120 602 1120 730 
L 1120 2157 
C 1306 2483 1619 2669 1946 2669 
C 2413 2669 2803 2106 2803 1382 
z
" transform="scale(0.015625)"/>
      <path id="LatinModernMath-Regular-61" d="M 3091 570 
L 3091 928 
L 2931 928 
L 2931 570 
C 2931 198 2771 160 2701 160 
C 2490 160 2464 448 2464 480 
L 2464 1760 
C 2464 2029 2464 2278 2234 2515 
C 1984 2765 1664 2867 1357 2867 
C 832 2867 390 2566 390 2144 
C 390 1952 518 1843 685 1843 
C 864 1843 979 1971 979 2138 
C 979 2214 947 2426 653 2432 
C 826 2656 1139 2726 1344 2726 
C 1658 2726 2022 2477 2022 1907 
L 2022 1670 
C 1696 1651 1248 1632 845 1440 
C 365 1222 205 890 205 608 
C 205 90 826 -70 1229 -70 
C 1651 -70 1946 186 2067 486 
C 2093 230 2266 -38 2566 -38 
C 2701 -38 3091 51 3091 570 
z
M 2022 896 
C 2022 288 1562 70 1274 70 
C 960 70 698 294 698 614 
C 698 966 966 1498 2022 1536 
L 2022 896 
z
" transform="scale(0.015625)"/>
      <path id="LatinModernMath-Regular-20" transform="scale(0.015625)"/>
      <path id="LatinModernMath-Regular-66" d="M 2285 4064 
C 2285 4301 2048 4512 1709 4512 
C 1261 4512 717 4173 717 3494 
L 717 2758 
L 211 2758 
L 211 2560 
L 717 2560 
L 717 486 
C 717 198 646 198 218 198 
L 218 0 
L 947 19 
C 1203 19 1504 19 1760 0 
L 1760 198 
L 1626 198 
C 1152 198 1139 269 1139 499 
L 1139 2560 
L 1869 2560 
L 1869 2758 
L 1120 2758 
L 1120 3501 
C 1120 4064 1427 4371 1709 4371 
C 1728 4371 1824 4371 1920 4326 
C 1843 4301 1728 4218 1728 4058 
C 1728 3910 1830 3782 2003 3782 
C 2189 3782 2285 3910 2285 4064 
z
" transform="scale(0.015625)"/>
      <path id="LatinModernMath-Regular-77" d="M 4499 2560 
L 4499 2758 
C 4358 2746 4173 2739 4032 2739 
L 3437 2758 
L 3437 2560 
C 3667 2554 3808 2438 3808 2253 
C 3808 2214 3808 2202 3776 2118 
L 3194 480 
L 2560 2266 
C 2534 2342 2528 2355 2528 2387 
C 2528 2560 2778 2560 2906 2560 
L 2906 2758 
L 2240 2739 
C 2048 2739 1862 2746 1670 2758 
L 1670 2560 
C 1907 2560 2010 2547 2074 2464 
C 2106 2426 2176 2234 2221 2112 
L 1670 563 
L 1062 2272 
C 1030 2349 1030 2362 1030 2387 
C 1030 2560 1280 2560 1408 2560 
L 1408 2758 
L 710 2739 
L 115 2758 
L 115 2560 
C 435 2560 512 2541 589 2336 
L 1395 70 
C 1427 -19 1446 -70 1530 -70 
C 1613 -70 1626 -32 1658 58 
L 2304 1869 
L 2957 51 
C 2982 -19 3002 -70 3085 -70 
C 3168 -70 3187 -13 3213 51 
L 3962 2150 
C 4077 2470 4275 2554 4499 2560 
z
" transform="scale(0.015625)"/>
      <path id="LatinModernMath-Regular-68" d="M 3424 0 
L 3424 198 
C 3091 198 2931 198 2925 390 
L 2925 1613 
C 2925 2163 2925 2362 2726 2592 
C 2637 2701 2426 2829 2054 2829 
C 1517 2829 1235 2445 1133 2214 
L 1126 2214 
L 1126 4442 
L 205 4371 
L 205 4173 
C 653 4173 704 4128 704 3814 
L 704 486 
C 704 198 634 198 205 198 
L 205 0 
L 928 19 
L 1645 0 
L 1645 198 
C 1216 198 1146 198 1146 486 
L 1146 1664 
C 1146 2330 1600 2688 2010 2688 
C 2413 2688 2483 2342 2483 1978 
L 2483 486 
C 2483 198 2413 198 1984 198 
L 1984 0 
L 2707 19 
L 3424 0 
z
" transform="scale(0.015625)"/>
      <path id="LatinModernMath-Regular-64" d="M 3373 0 
L 3373 198 
C 2925 198 2874 243 2874 557 
L 2874 4442 
L 1952 4371 
L 1952 4173 
C 2400 4173 2451 4128 2451 3814 
L 2451 2432 
C 2266 2662 1990 2829 1645 2829 
C 890 2829 218 2202 218 1376 
C 218 563 845 -70 1574 -70 
C 1984 -70 2272 147 2432 352 
L 2432 -70 
L 3373 0 
z
M 2432 755 
C 2432 640 2432 627 2362 518 
C 2170 211 1882 70 1606 70 
C 1318 70 1088 237 934 480 
C 768 742 749 1107 749 1370 
C 749 1606 762 1990 947 2278 
C 1082 2477 1325 2688 1670 2688 
C 1894 2688 2163 2592 2362 2304 
C 2432 2195 2432 2182 2432 2067 
L 2432 755 
z
" transform="scale(0.015625)"/>
      <path id="LatinModernMath-Regular-63" d="M 2656 762 
C 2656 826 2592 826 2573 826 
C 2515 826 2502 800 2490 762 
C 2304 166 1888 90 1651 90 
C 1312 90 749 365 749 1395 
C 749 2438 1274 2707 1613 2707 
C 1670 2707 2074 2701 2298 2470 
C 2035 2451 1997 2259 1997 2176 
C 1997 2010 2112 1882 2291 1882 
C 2458 1882 2586 1990 2586 2182 
C 2586 2618 2099 2867 1606 2867 
C 806 2867 218 2176 218 1382 
C 218 563 851 -70 1594 -70 
C 2451 -70 2656 698 2656 762 
z
" transform="scale(0.015625)"/>
      <path id="LatinModernMath-Regular-6c" d="M 1632 0 
L 1632 198 
C 1203 198 1133 198 1133 486 
L 1133 4442 
L 211 4371 
L 211 4173 
C 659 4173 710 4128 710 3814 
L 710 486 
C 710 198 640 198 211 198 
L 211 0 
L 922 19 
L 1632 0 
z
" transform="scale(0.015625)"/>
     </defs>
     <use xlink:href="#LatinModernMath-Regular-43"/>
     <use xlink:href="#LatinModernMath-Regular-6f" transform="translate(72.199982 0)"/>
     <use xlink:href="#LatinModernMath-Regular-6d" transform="translate(122.199966 0)"/>
     <use xlink:href="#LatinModernMath-Regular-70" transform="translate(205.499954 0)"/>
     <use xlink:href="#LatinModernMath-Regular-61" transform="translate(261.099945 0)"/>
     <use xlink:href="#LatinModernMath-Regular-72" transform="translate(311.09993 0)"/>
     <use xlink:href="#LatinModernMath-Regular-69" transform="translate(350.299927 0)"/>
     <use xlink:href="#LatinModernMath-Regular-73" transform="translate(378.099915 0)"/>
     <use xlink:href="#LatinModernMath-Regular-6f" transform="translate(417.499908 0)"/>
     <use xlink:href="#LatinModernMath-Regular-6e" transform="translate(467.499893 0)"/>
     <use xlink:href="#LatinModernMath-Regular-20" transform="translate(523.099884 0)"/>
     <use xlink:href="#LatinModernMath-Regular-6f" transform="translate(556.299881 0)"/>
     <use xlink:href="#LatinModernMath-Regular-66" transform="translate(606.299866 0)"/>
     <use xlink:href="#LatinModernMath-Regular-20" transform="translate(636.899857 0)"/>
     <use xlink:href="#LatinModernMath-Regular-74" transform="translate(670.099854 0)"/>
     <use xlink:href="#LatinModernMath-Regular-77" transform="translate(708.999847 0)"/>
     <use xlink:href="#LatinModernMath-Regular-6f" transform="translate(781.199829 0)"/>
     <use xlink:href="#LatinModernMath-Regular-20" transform="translate(831.199814 0)"/>
     <use xlink:href="#LatinModernMath-Regular-68" transform="translate(864.399811 0)"/>
     <use xlink:href="#LatinModernMath-Regular-69" transform="translate(919.999802 0)"/>
     <use xlink:href="#LatinModernMath-Regular-73" transform="translate(947.799789 0)"/>
     <use xlink:href="#LatinModernMath-Regular-74" transform="translate(987.199783 0)"/>
     <use xlink:href="#LatinModernMath-Regular-20" transform="translate(1026.099777 0)"/>
     <use xlink:href="#LatinModernMath-Regular-77" transform="translate(1059.299774 0)"/>
     <use xlink:href="#LatinModernMath-Regular-69" transform="translate(1131.499756 0)"/>
     <use xlink:href="#LatinModernMath-Regular-74" transform="translate(1159.299744 0)"/>
     <use xlink:href="#LatinModernMath-Regular-68" transform="translate(1198.199738 0)"/>
     <use xlink:href="#LatinModernMath-Regular-20" transform="translate(1253.799728 0)"/>
     <use xlink:href="#LatinModernMath-Regular-64" transform="translate(1286.999725 0)"/>
     <use xlink:href="#LatinModernMath-Regular-69" transform="translate(1342.599716 0)"/>
     <use xlink:href="#LatinModernMath-Regular-66" transform="translate(1370.399704 0)"/>
     <use xlink:href="#LatinModernMath-Regular-66" transform="translate(1400.999695 0)"/>
     <use xlink:href="#LatinModernMath-Regular-65" transform="translate(1431.599686 0)"/>
     <use xlink:href="#LatinModernMath-Regular-72" transform="translate(1475.99968 0)"/>
     <use xlink:href="#LatinModernMath-Regular-65" transform="translate(1515.199677 0)"/>
     <use xlink:href="#LatinModernMath-Regular-6e" transform="translate(1559.59967 0)"/>
     <use xlink:href="#LatinModernMath-Regular-63" transform="translate(1615.199661 0)"/>
     <use xlink:href="#LatinModernMath-Regular-65" transform="translate(1659.599655 0)"/>
     <use xlink:href="#LatinModernMath-Regular-20" transform="translate(1703.999649 0)"/>
     <use xlink:href="#LatinModernMath-Regular-70" transform="translate(1737.199646 0)"/>
     <use xlink:href="#LatinModernMath-Regular-6c" transform="translate(1792.799637 0)"/>
     <use xlink:href="#LatinModernMath-Regular-6f" transform="translate(1820.599625 0)"/>
     <use xlink:href="#LatinModernMath-Regular-74" transform="translate(1870.599609 0)"/>
    </g>
   </g>
   <g id="legend_1">
    <g id="LineCollection_5">
     <path d="M 344.32625 41.051634 
L 344.32625 29.051634 
" style="fill: none; stroke: #348abd; stroke-width: 1.5"/>
    </g>
    <g id="line2d_41">
     <path d="M 332.32625 35.051634 
L 356.32625 35.051634 
" style="fill: none; stroke: #348abd; stroke-width: 1.5; stroke-linecap: round"/>
    </g>
    <g id="line2d_42"/>
    <g id="text_8">
     <!-- $\mathcal{H}_{1}$ -->
     <g style="fill: #1a1a1a" transform="translate(365.92625 39.251634) scale(0.12 -0.12)">
      <defs>
       <path id="Cmsy10-48" d="M 884 -213 
Q 884 -197 891 -178 
Q 988 66 1117 427 
Q 1247 788 1353 1123 
Q 1459 1459 1550 1778 
L 966 1778 
Q 922 1800 922 1831 
Q 922 1938 1109 2041 
Q 1297 2144 1416 2156 
L 1650 2156 
Q 1759 2572 1842 3003 
Q 1925 3434 1925 3731 
Q 1925 3844 1840 3919 
Q 1756 3994 1644 3994 
Q 1278 3994 1061 3859 
Q 844 3725 684 3397 
Q 622 3291 472 3197 
Q 322 3103 206 3103 
L 166 3103 
Q 122 3125 122 3156 
Q 122 3175 128 3188 
Q 263 3459 470 3679 
Q 678 3900 934 4053 
Q 1191 4206 1487 4289 
Q 1784 4372 2081 4372 
L 2119 4372 
Q 2272 4372 2384 4265 
Q 2497 4159 2497 4006 
Q 2497 3644 2387 3126 
Q 2278 2609 2150 2156 
L 3809 2156 
Q 4078 3084 4459 4078 
Q 4528 4197 4665 4276 
Q 4803 4356 4941 4372 
L 4978 4372 
Q 5025 4350 5025 4319 
Q 5025 4306 5019 4288 
Q 4916 4034 4787 3675 
Q 4659 3316 4582 3078 
Q 4506 2841 4372 2388 
Q 3963 900 3963 319 
Q 3963 216 4036 139 
Q 4109 63 4219 63 
Q 4363 63 4531 103 
Q 4556 156 4572 195 
Q 4588 234 4614 265 
Q 4641 297 4697 341 
Q 4881 475 5056 500 
L 5088 500 
Q 5131 478 5131 434 
Q 5059 178 4837 11 
Q 4616 -156 4328 -234 
Q 4041 -313 3756 -313 
Q 3597 -313 3494 -209 
Q 3391 -106 3391 44 
Q 3391 616 3725 1844 
Q 3603 1784 3519 1778 
L 2041 1778 
Q 1922 1372 1776 942 
Q 1631 513 1447 31 
Q 1384 -78 1242 -162 
Q 1100 -247 959 -263 
L 928 -263 
Q 916 -256 900 -243 
Q 884 -231 884 -213 
z
" transform="scale(0.015625)"/>
       <path id="LatinModernMath-Regular-31" d="M 2682 0 
L 2682 198 
L 2477 198 
C 1901 198 1882 269 1882 506 
L 1882 4096 
C 1882 4250 1882 4262 1734 4262 
C 1338 3853 774 3853 570 3853 
L 570 3654 
C 698 3654 1075 3654 1408 3821 
L 1408 506 
C 1408 275 1389 198 813 198 
L 608 198 
L 608 0 
C 832 19 1389 19 1645 19 
C 1901 19 2458 19 2682 0 
z
" transform="scale(0.015625)"/>
      </defs>
      <use xlink:href="#Cmsy10-48" transform="translate(0 0.6875)"/>
      <use xlink:href="#LatinModernMath-Regular-31" transform="translate(85.177969 -12.240625) scale(0.7)"/>
     </g>
    </g>
    <g id="LineCollection_6">
     <path d="M 344.32625 57.780384 
L 344.32625 45.780384 
" style="fill: none; stroke: #e24a33; stroke-width: 1.5"/>
    </g>
    <g id="line2d_43">
     <path d="M 332.32625 51.780384 
L 356.32625 51.780384 
" style="fill: none; stroke: #e24a33; stroke-width: 1.5; stroke-linecap: round"/>
    </g>
    <g id="line2d_44"/>
    <g id="text_9">
     <!-- $\mathcal{H}_{2}$ -->
     <g style="fill: #1a1a1a" transform="translate(365.92625 55.980384) scale(0.12 -0.12)">
      <use xlink:href="#Cmsy10-48" transform="translate(0 0.6875)"/>
      <use xlink:href="#LatinModernMath-Regular-32" transform="translate(85.177969 -12.240625) scale(0.7)"/>
     </g>
    </g>
   </g>
  </g>
  <g id="axes_2">
   <g id="patch_9">
    <path d="M 56.68625 297.251634 
L 391.48625 297.251634 
L 391.48625 245.679541 
L 56.68625 245.679541 
z
" style="fill: #ffffff"/>
   </g>
   <g id="LineCollection_7">
    <path d="M 60.03425 294.827766 
L 60.03425 294.715078 
" clip-path="url(#pbcb9cd8483)" style="fill: none; stroke: #000000"/>
    <path d="M 66.73025 294.812668 
L 66.73025 294.617488 
" clip-path="url(#pbcb9cd8483)" style="fill: none; stroke: #000000"/>
    <path d="M 73.42625 294.812668 
L 73.42625 294.617488 
" clip-path="url(#pbcb9cd8483)" style="fill: none; stroke: #000000"/>
    <path d="M 80.12225 294.587835 
L 80.12225 294.166197 
" clip-path="url(#pbcb9cd8483)" style="fill: none; stroke: #000000"/>
    <path d="M 86.81825 294.447031 
L 86.81825 293.968939 
" clip-path="url(#pbcb9cd8483)" style="fill: none; stroke: #000000"/>
    <path d="M 93.51425 294.029429 
L 93.51425 293.372354 
" clip-path="url(#pbcb9cd8483)" style="fill: none; stroke: #000000"/>
    <path d="M 100.21025 293.603986 
L 100.21025 292.78361 
" clip-path="url(#pbcb9cd8483)" style="fill: none; stroke: #000000"/>
    <path d="M 106.90625 293.052197 
L 106.90625 291.98315 
" clip-path="url(#pbcb9cd8483)" style="fill: none; stroke: #000000"/>
    <path d="M 113.60225 291.751944 
L 113.60225 290.35353 
" clip-path="url(#pbcb9cd8483)" style="fill: none; stroke: #000000"/>
    <path d="M 120.29825 291.090086 
L 120.29825 289.437764 
" clip-path="url(#pbcb9cd8483)" style="fill: none; stroke: #000000"/>
    <path d="M 126.99425 290.411165 
L 126.99425 288.539061 
" clip-path="url(#pbcb9cd8483)" style="fill: none; stroke: #000000"/>
    <path d="M 133.69025 288.797505 
L 133.69025 286.659411 
" clip-path="url(#pbcb9cd8483)" style="fill: none; stroke: #000000"/>
    <path d="M 140.38625 286.179944 
L 140.38625 283.6426 
" clip-path="url(#pbcb9cd8483)" style="fill: none; stroke: #000000"/>
    <path d="M 147.08225 285.738281 
L 147.08225 282.957389 
" clip-path="url(#pbcb9cd8483)" style="fill: none; stroke: #000000"/>
    <path d="M 153.77825 284.209896 
L 153.77825 281.217838 
" clip-path="url(#pbcb9cd8483)" style="fill: none; stroke: #000000"/>
    <path d="M 160.47425 283.756994 
L 160.47425 280.656554 
" clip-path="url(#pbcb9cd8483)" style="fill: none; stroke: #000000"/>
    <path d="M 167.17025 283.807182 
L 167.17025 280.719053 
" clip-path="url(#pbcb9cd8483)" style="fill: none; stroke: #000000"/>
    <path d="M 173.86625 282.348401 
L 173.86625 279.247961 
" clip-path="url(#pbcb9cd8483)" style="fill: none; stroke: #000000"/>
    <path d="M 180.56225 279.856942 
L 180.56225 276.781174 
" clip-path="url(#pbcb9cd8483)" style="fill: none; stroke: #000000"/>
    <path d="M 187.25825 278.765778 
L 187.25825 275.618589 
" clip-path="url(#pbcb9cd8483)" style="fill: none; stroke: #000000"/>
    <path d="M 193.95425 274.821857 
L 193.95425 271.561703 
" clip-path="url(#pbcb9cd8483)" style="fill: none; stroke: #000000"/>
    <path d="M 200.65025 269.602602 
L 200.65025 266.18834 
" clip-path="url(#pbcb9cd8483)" style="fill: none; stroke: #000000"/>
    <path d="M 207.34625 266.957508 
L 207.34625 263.424438 
" clip-path="url(#pbcb9cd8483)" style="fill: none; stroke: #000000"/>
    <path d="M 214.04225 259.759472 
L 214.04225 255.973108 
" clip-path="url(#pbcb9cd8483)" style="fill: none; stroke: #000000"/>
    <path d="M 220.73825 254.909633 
L 220.73825 250.906453 
" clip-path="url(#pbcb9cd8483)" style="fill: none; stroke: #000000"/>
    <path d="M 227.43425 252.157989 
L 227.43425 248.023727 
" clip-path="url(#pbcb9cd8483)" style="fill: none; stroke: #000000"/>
    <path d="M 234.13025 252.217402 
L 234.13025 248.077001 
" clip-path="url(#pbcb9cd8483)" style="fill: none; stroke: #000000"/>
    <path d="M 240.82625 255.141342 
L 240.82625 251.125494 
" clip-path="url(#pbcb9cd8483)" style="fill: none; stroke: #000000"/>
    <path d="M 247.52225 255.905497 
L 247.52225 251.938963 
" clip-path="url(#pbcb9cd8483)" style="fill: none; stroke: #000000"/>
    <path d="M 254.21825 257.228193 
L 254.21825 253.433453 
" clip-path="url(#pbcb9cd8483)" style="fill: none; stroke: #000000"/>
    <path d="M 260.91425 264.234946 
L 260.91425 260.738003 
" clip-path="url(#pbcb9cd8483)" style="fill: none; stroke: #000000"/>
    <path d="M 267.61025 270.207574 
L 267.61025 267.048304 
" clip-path="url(#pbcb9cd8483)" style="fill: none; stroke: #000000"/>
    <path d="M 274.30625 276.763794 
L 274.30625 273.901888 
" clip-path="url(#pbcb9cd8483)" style="fill: none; stroke: #000000"/>
    <path d="M 281.00225 280.714648 
L 281.00225 278.289904 
" clip-path="url(#pbcb9cd8483)" style="fill: none; stroke: #000000"/>
    <path d="M 287.69825 285.009028 
L 287.69825 282.89783 
" clip-path="url(#pbcb9cd8483)" style="fill: none; stroke: #000000"/>
    <path d="M 294.39425 287.286469 
L 294.39425 285.465948 
" clip-path="url(#pbcb9cd8483)" style="fill: none; stroke: #000000"/>
    <path d="M 301.09025 290.827362 
L 301.09025 289.362425 
" clip-path="url(#pbcb9cd8483)" style="fill: none; stroke: #000000"/>
    <path d="M 307.78625 292.317107 
L 307.78625 291.140616 
" clip-path="url(#pbcb9cd8483)" style="fill: none; stroke: #000000"/>
    <path d="M 314.48225 293.60886 
L 314.48225 292.666049 
" clip-path="url(#pbcb9cd8483)" style="fill: none; stroke: #000000"/>
    <path d="M 321.17825 293.865877 
L 321.17825 293.085156 
" clip-path="url(#pbcb9cd8483)" style="fill: none; stroke: #000000"/>
    <path d="M 327.87425 294.703575 
L 327.87425 294.163145 
" clip-path="url(#pbcb9cd8483)" style="fill: none; stroke: #000000"/>
    <path d="M 334.57025 294.697635 
L 334.57025 294.169084 
" clip-path="url(#pbcb9cd8483)" style="fill: none; stroke: #000000"/>
    <path d="M 341.26625 294.869012 
L 341.26625 294.673832 
" clip-path="url(#pbcb9cd8483)" style="fill: none; stroke: #000000"/>
    <path d="M 347.96225 294.827766 
L 347.96225 294.602391 
" clip-path="url(#pbcb9cd8483)" style="fill: none; stroke: #000000"/>
    <path d="M 354.65825 294.869012 
L 354.65825 294.673832 
" clip-path="url(#pbcb9cd8483)" style="fill: none; stroke: #000000"/>
    <path d="M 361.35425 294.851104 
L 361.35425 294.69174 
" clip-path="url(#pbcb9cd8483)" style="fill: none; stroke: #000000"/>
    <path d="M 368.05025 294.827766 
L 368.05025 294.827766 
" clip-path="url(#pbcb9cd8483)" style="fill: none; stroke: #000000"/>
    <path d="M 374.74625 294.827766 
L 374.74625 294.827766 
" clip-path="url(#pbcb9cd8483)" style="fill: none; stroke: #000000"/>
    <path d="M 381.44225 294.827766 
L 381.44225 294.827766 
" clip-path="url(#pbcb9cd8483)" style="fill: none; stroke: #000000"/>
    <path d="M 388.13825 294.907448 
L 388.13825 294.748084 
" clip-path="url(#pbcb9cd8483)" style="fill: none; stroke: #000000"/>
   </g>
   <g id="line2d_45">
    <path d="M 56.68625 294.827766 
L 391.48625 294.827766 
" clip-path="url(#pbcb9cd8483)" style="fill: none; stroke-dasharray: 3.7,1.6; stroke-dashoffset: 0; stroke: #000000"/>
   </g>
   <g id="line2d_46">
    <defs>
     <path id="mb27cb91d61" d="M 0 2.5 
C 0.663008 2.5 1.29895 2.236584 1.767767 1.767767 
C 2.236584 1.29895 2.5 0.663008 2.5 0 
C 2.5 -0.663008 2.236584 -1.29895 1.767767 -1.767767 
C 1.29895 -2.236584 0.663008 -2.5 0 -2.5 
C -0.663008 -2.5 -1.29895 -2.236584 -1.767767 -1.767767 
C -2.236584 -1.29895 -2.5 -0.663008 -2.5 0 
C -2.5 0.663008 -2.236584 1.29895 -1.767767 1.767767 
C -1.29895 2.236584 -0.663008 2.5 0 2.5 
z
" style="stroke: #000000"/>
    </defs>
    <g clip-path="url(#pbcb9cd8483)">
     <use xlink:href="#mb27cb91d61" x="60.03425" y="294.771422" style="stroke: #000000"/>
     <use xlink:href="#mb27cb91d61" x="66.73025" y="294.715078" style="stroke: #000000"/>
     <use xlink:href="#mb27cb91d61" x="73.42625" y="294.715078" style="stroke: #000000"/>
     <use xlink:href="#mb27cb91d61" x="80.12225" y="294.377016" style="stroke: #000000"/>
     <use xlink:href="#mb27cb91d61" x="86.81825" y="294.207985" style="stroke: #000000"/>
     <use xlink:href="#mb27cb91d61" x="93.51425" y="293.700891" style="stroke: #000000"/>
     <use xlink:href="#mb27cb91d61" x="100.21025" y="293.193798" style="stroke: #000000"/>
     <use xlink:href="#mb27cb91d61" x="106.90625" y="292.517673" style="stroke: #000000"/>
     <use xlink:href="#mb27cb91d61" x="113.60225" y="291.052737" style="stroke: #000000"/>
     <use xlink:href="#mb27cb91d61" x="120.29825" y="290.263925" style="stroke: #000000"/>
     <use xlink:href="#mb27cb91d61" x="126.99425" y="289.475113" style="stroke: #000000"/>
     <use xlink:href="#mb27cb91d61" x="133.69025" y="287.728458" style="stroke: #000000"/>
     <use xlink:href="#mb27cb91d61" x="140.38625" y="284.911272" style="stroke: #000000"/>
     <use xlink:href="#mb27cb91d61" x="147.08225" y="284.347835" style="stroke: #000000"/>
     <use xlink:href="#mb27cb91d61" x="153.77825" y="282.713867" style="stroke: #000000"/>
     <use xlink:href="#mb27cb91d61" x="160.47425" y="282.206774" style="stroke: #000000"/>
     <use xlink:href="#mb27cb91d61" x="167.17025" y="282.263118" style="stroke: #000000"/>
     <use xlink:href="#mb27cb91d61" x="173.86625" y="280.798181" style="stroke: #000000"/>
     <use xlink:href="#mb27cb91d61" x="180.56225" y="278.319058" style="stroke: #000000"/>
     <use xlink:href="#mb27cb91d61" x="187.25825" y="277.192184" style="stroke: #000000"/>
     <use xlink:href="#mb27cb91d61" x="193.95425" y="273.19178" style="stroke: #000000"/>
     <use xlink:href="#mb27cb91d61" x="200.65025" y="267.895471" style="stroke: #000000"/>
     <use xlink:href="#mb27cb91d61" x="207.34625" y="265.190973" style="stroke: #000000"/>
     <use xlink:href="#mb27cb91d61" x="214.04225" y="257.86629" style="stroke: #000000"/>
     <use xlink:href="#mb27cb91d61" x="220.73825" y="252.908043" style="stroke: #000000"/>
     <use xlink:href="#mb27cb91d61" x="227.43425" y="250.090858" style="stroke: #000000"/>
     <use xlink:href="#mb27cb91d61" x="234.13025" y="250.147201" style="stroke: #000000"/>
     <use xlink:href="#mb27cb91d61" x="240.82625" y="253.133418" style="stroke: #000000"/>
     <use xlink:href="#mb27cb91d61" x="247.52225" y="253.92223" style="stroke: #000000"/>
     <use xlink:href="#mb27cb91d61" x="254.21825" y="255.330823" style="stroke: #000000"/>
     <use xlink:href="#mb27cb91d61" x="260.91425" y="262.486475" style="stroke: #000000"/>
     <use xlink:href="#mb27cb91d61" x="267.61025" y="268.627939" style="stroke: #000000"/>
     <use xlink:href="#mb27cb91d61" x="274.30625" y="275.332841" style="stroke: #000000"/>
     <use xlink:href="#mb27cb91d61" x="281.00225" y="279.502276" style="stroke: #000000"/>
     <use xlink:href="#mb27cb91d61" x="287.69825" y="283.953429" style="stroke: #000000"/>
     <use xlink:href="#mb27cb91d61" x="294.39425" y="286.376209" style="stroke: #000000"/>
     <use xlink:href="#mb27cb91d61" x="301.09025" y="290.094894" style="stroke: #000000"/>
     <use xlink:href="#mb27cb91d61" x="307.78625" y="291.728861" style="stroke: #000000"/>
     <use xlink:href="#mb27cb91d61" x="314.48225" y="293.137454" style="stroke: #000000"/>
     <use xlink:href="#mb27cb91d61" x="321.17825" y="293.475517" style="stroke: #000000"/>
     <use xlink:href="#mb27cb91d61" x="327.87425" y="294.43336" style="stroke: #000000"/>
     <use xlink:href="#mb27cb91d61" x="334.57025" y="294.43336" style="stroke: #000000"/>
     <use xlink:href="#mb27cb91d61" x="341.26625" y="294.771422" style="stroke: #000000"/>
     <use xlink:href="#mb27cb91d61" x="347.96225" y="294.715078" style="stroke: #000000"/>
     <use xlink:href="#mb27cb91d61" x="354.65825" y="294.771422" style="stroke: #000000"/>
     <use xlink:href="#mb27cb91d61" x="361.35425" y="294.771422" style="stroke: #000000"/>
     <use xlink:href="#mb27cb91d61" x="368.05025" y="294.827766" style="stroke: #000000"/>
     <use xlink:href="#mb27cb91d61" x="374.74625" y="294.827766" style="stroke: #000000"/>
     <use xlink:href="#mb27cb91d61" x="381.44225" y="294.827766" style="stroke: #000000"/>
     <use xlink:href="#mb27cb91d61" x="388.13825" y="294.827766" style="stroke: #000000"/>
    </g>
   </g>
   <g id="patch_10">
    <path d="M 56.68625 297.251634 
L 56.68625 245.679541 
" style="fill: none; stroke: #000000; stroke-linejoin: miter; stroke-linecap: square"/>
   </g>
   <g id="patch_11">
    <path d="M 391.48625 297.251634 
L 391.48625 245.679541 
" style="fill: none; stroke: #000000; stroke-linejoin: miter; stroke-linecap: square"/>
   </g>
   <g id="patch_12">
    <path d="M 56.68625 297.251634 
L 391.48625 297.251634 
" style="fill: none; stroke: #000000; stroke-linejoin: miter; stroke-linecap: square"/>
   </g>
   <g id="patch_13">
    <path d="M 56.68625 245.679541 
L 391.48625 245.679541 
" style="fill: none; stroke: #000000; stroke-linejoin: miter; stroke-linecap: square"/>
   </g>
   <g id="matplotlib.axis_3">
    <g id="xtick_19">
     <g id="line2d_47">
      <g>
       <use xlink:href="#m8dec1b3d1d" x="106.256277" y="297.251634" style="fill: #1a1a1a; stroke: #1a1a1a; stroke-width: 0.8"/>
      </g>
     </g>
     <g id="text_10">
      <!-- $\mathdefault{−5}$ -->
      <g style="fill: #1a1a1a" transform="translate(96.656277 315.662571) scale(0.15 -0.15)">
       <defs>
        <path id="LatinModernMath-Regular-2212" d="M 4621 1600 
C 4621 1670 4563 1728 4493 1728 
L 486 1728 
C 416 1728 358 1670 358 1600 
C 358 1530 416 1472 486 1472 
L 4493 1472 
C 4563 1472 4621 1530 4621 1600 
z
" transform="scale(0.015625)"/>
        <path id="LatinModernMath-Regular-35" d="M 2874 1286 
C 2874 2048 2349 2688 1658 2688 
C 1350 2688 1075 2586 845 2362 
L 845 3610 
C 973 3571 1184 3526 1389 3526 
C 2176 3526 2624 4109 2624 4192 
C 2624 4230 2605 4262 2560 4262 
C 2560 4262 2541 4262 2509 4243 
C 2381 4186 2067 4058 1638 4058 
C 1382 4058 1088 4102 787 4237 
C 736 4256 710 4256 710 4256 
C 646 4256 646 4205 646 4102 
L 646 2208 
C 646 2093 646 2042 736 2042 
C 781 2042 794 2061 819 2099 
C 890 2202 1126 2547 1645 2547 
C 1978 2547 2138 2253 2189 2138 
C 2291 1901 2304 1651 2304 1331 
C 2304 1107 2304 723 2150 454 
C 1997 205 1760 38 1466 38 
C 998 38 634 378 525 755 
C 544 749 563 742 634 742 
C 845 742 954 902 954 1056 
C 954 1210 845 1370 634 1370 
C 544 1370 320 1325 320 1030 
C 320 480 762 -141 1478 -141 
C 2221 -141 2874 474 2874 1286 
z
" transform="scale(0.015625)"/>
       </defs>
       <use xlink:href="#LatinModernMath-Regular-2212" transform="translate(0 0.40625)"/>
       <use xlink:href="#LatinModernMath-Regular-35" transform="translate(77.799988 0.40625)"/>
      </g>
     </g>
    </g>
    <g id="xtick_20">
     <g id="line2d_48">
      <g>
       <use xlink:href="#m8dec1b3d1d" x="199.342885" y="297.251634" style="fill: #1a1a1a; stroke: #1a1a1a; stroke-width: 0.8"/>
      </g>
     </g>
     <g id="text_11">
      <!-- $\mathdefault{0}$ -->
      <g style="fill: #1a1a1a" transform="translate(195.592885 315.662571) scale(0.15 -0.15)">
       <use xlink:href="#LatinModernMath-Regular-30" transform="translate(0 0.40625)"/>
      </g>
     </g>
    </g>
    <g id="xtick_21">
     <g id="line2d_49">
      <g>
       <use xlink:href="#m8dec1b3d1d" x="292.429492" y="297.251634" style="fill: #1a1a1a; stroke: #1a1a1a; stroke-width: 0.8"/>
      </g>
     </g>
     <g id="text_12">
      <!-- $\mathdefault{5}$ -->
      <g style="fill: #1a1a1a" transform="translate(288.679492 315.662571) scale(0.15 -0.15)">
       <use xlink:href="#LatinModernMath-Regular-35" transform="translate(0 0.40625)"/>
      </g>
     </g>
    </g>
    <g id="xtick_22">
     <g id="line2d_50">
      <g>
       <use xlink:href="#m8dec1b3d1d" x="385.516099" y="297.251634" style="fill: #1a1a1a; stroke: #1a1a1a; stroke-width: 0.8"/>
      </g>
     </g>
     <g id="text_13">
      <!-- $\mathdefault{10}$ -->
      <g style="fill: #1a1a1a" transform="translate(378.016099 315.662571) scale(0.15 -0.15)">
       <use xlink:href="#LatinModernMath-Regular-31" transform="translate(0 0.40625)"/>
       <use xlink:href="#LatinModernMath-Regular-30" transform="translate(49.999985 0.40625)"/>
      </g>
     </g>
    </g>
    <g id="xtick_23">
     <g id="line2d_51">
      <g>
       <use xlink:href="#m131efc0c90" x="69.021634" y="297.251634" style="fill: #1a1a1a; stroke: #1a1a1a; stroke-width: 0.6"/>
      </g>
     </g>
    </g>
    <g id="xtick_24">
     <g id="line2d_52">
      <g>
       <use xlink:href="#m131efc0c90" x="87.638956" y="297.251634" style="fill: #1a1a1a; stroke: #1a1a1a; stroke-width: 0.6"/>
      </g>
     </g>
    </g>
    <g id="xtick_25">
     <g id="line2d_53">
      <g>
       <use xlink:href="#m131efc0c90" x="124.873599" y="297.251634" style="fill: #1a1a1a; stroke: #1a1a1a; stroke-width: 0.6"/>
      </g>
     </g>
    </g>
    <g id="xtick_26">
     <g id="line2d_54">
      <g>
       <use xlink:href="#m131efc0c90" x="143.49092" y="297.251634" style="fill: #1a1a1a; stroke: #1a1a1a; stroke-width: 0.6"/>
      </g>
     </g>
    </g>
    <g id="xtick_27">
     <g id="line2d_55">
      <g>
       <use xlink:href="#m131efc0c90" x="162.108242" y="297.251634" style="fill: #1a1a1a; stroke: #1a1a1a; stroke-width: 0.6"/>
      </g>
     </g>
    </g>
    <g id="xtick_28">
     <g id="line2d_56">
      <g>
       <use xlink:href="#m131efc0c90" x="180.725563" y="297.251634" style="fill: #1a1a1a; stroke: #1a1a1a; stroke-width: 0.6"/>
      </g>
     </g>
    </g>
    <g id="xtick_29">
     <g id="line2d_57">
      <g>
       <use xlink:href="#m131efc0c90" x="217.960206" y="297.251634" style="fill: #1a1a1a; stroke: #1a1a1a; stroke-width: 0.6"/>
      </g>
     </g>
    </g>
    <g id="xtick_30">
     <g id="line2d_58">
      <g>
       <use xlink:href="#m131efc0c90" x="236.577527" y="297.251634" style="fill: #1a1a1a; stroke: #1a1a1a; stroke-width: 0.6"/>
      </g>
     </g>
    </g>
    <g id="xtick_31">
     <g id="line2d_59">
      <g>
       <use xlink:href="#m131efc0c90" x="255.194849" y="297.251634" style="fill: #1a1a1a; stroke: #1a1a1a; stroke-width: 0.6"/>
      </g>
     </g>
    </g>
    <g id="xtick_32">
     <g id="line2d_60">
      <g>
       <use xlink:href="#m131efc0c90" x="273.81217" y="297.251634" style="fill: #1a1a1a; stroke: #1a1a1a; stroke-width: 0.6"/>
      </g>
     </g>
    </g>
    <g id="xtick_33">
     <g id="line2d_61">
      <g>
       <use xlink:href="#m131efc0c90" x="311.046813" y="297.251634" style="fill: #1a1a1a; stroke: #1a1a1a; stroke-width: 0.6"/>
      </g>
     </g>
    </g>
    <g id="xtick_34">
     <g id="line2d_62">
      <g>
       <use xlink:href="#m131efc0c90" x="329.664135" y="297.251634" style="fill: #1a1a1a; stroke: #1a1a1a; stroke-width: 0.6"/>
      </g>
     </g>
    </g>
    <g id="xtick_35">
     <g id="line2d_63">
      <g>
       <use xlink:href="#m131efc0c90" x="348.281456" y="297.251634" style="fill: #1a1a1a; stroke: #1a1a1a; stroke-width: 0.6"/>
      </g>
     </g>
    </g>
    <g id="xtick_36">
     <g id="line2d_64">
      <g>
       <use xlink:href="#m131efc0c90" x="366.898778" y="297.251634" style="fill: #1a1a1a; stroke: #1a1a1a; stroke-width: 0.6"/>
      </g>
     </g>
    </g>
    <g id="text_14">
     <!-- variable_1 -->
     <g style="fill: #1a1a1a" transform="translate(185.306094 337.066634) scale(0.18 -0.18)">
      <defs>
       <path id="LatinModernMath-Regular-76" d="M 3251 2560 
L 3251 2758 
C 3104 2746 2918 2739 2771 2739 
L 2214 2758 
L 2214 2560 
C 2451 2554 2522 2406 2522 2285 
C 2522 2227 2509 2202 2483 2131 
L 1830 499 
L 1114 2285 
C 1075 2368 1075 2394 1075 2394 
C 1075 2560 1325 2560 1440 2560 
L 1440 2758 
L 742 2739 
C 570 2739 314 2746 122 2758 
L 122 2560 
C 525 2560 550 2522 634 2323 
L 1555 51 
C 1594 -38 1606 -70 1690 -70 
C 1773 -70 1798 -13 1824 51 
L 2662 2131 
C 2720 2278 2829 2554 3251 2560 
z
" transform="scale(0.015625)"/>
       <path id="LatinModernMath-Regular-62" d="M 3334 1382 
C 3334 2195 2707 2829 1978 2829 
C 1478 2829 1203 2528 1101 2413 
L 1101 4442 
L 179 4371 
L 179 4173 
C 627 4173 678 4128 678 3814 
L 678 0 
L 838 0 
L 1069 397 
C 1165 250 1434 -70 1907 -70 
C 2669 -70 3334 557 3334 1382 
z
M 2803 1389 
C 2803 1152 2790 768 2605 480 
C 2470 282 2227 70 1882 70 
C 1594 70 1363 224 1210 461 
C 1120 595 1120 614 1120 730 
L 1120 2048 
C 1120 2170 1120 2176 1190 2278 
C 1440 2637 1792 2688 1946 2688 
C 2234 2688 2464 2522 2618 2278 
C 2784 2016 2803 1651 2803 1389 
z
" transform="scale(0.015625)"/>
       <path id="LatinModernMath-Regular-5f" d="M 2131 -896 
L 2131 -640 
L 0 -640 
L 0 -896 
L 2131 -896 
z
" transform="scale(0.015625)"/>
      </defs>
      <use xlink:href="#LatinModernMath-Regular-76"/>
      <use xlink:href="#LatinModernMath-Regular-61" transform="translate(52.799988 0)"/>
      <use xlink:href="#LatinModernMath-Regular-72" transform="translate(102.799973 0)"/>
      <use xlink:href="#LatinModernMath-Regular-69" transform="translate(141.999969 0)"/>
      <use xlink:href="#LatinModernMath-Regular-61" transform="translate(169.799957 0)"/>
      <use xlink:href="#LatinModernMath-Regular-62" transform="translate(219.799942 0)"/>
      <use xlink:href="#LatinModernMath-Regular-6c" transform="translate(275.399933 0)"/>
      <use xlink:href="#LatinModernMath-Regular-65" transform="translate(303.199921 0)"/>
      <use xlink:href="#LatinModernMath-Regular-5f" transform="translate(347.599915 0)"/>
      <use xlink:href="#LatinModernMath-Regular-31" transform="translate(380.899902 0)"/>
     </g>
    </g>
   </g>
   <g id="matplotlib.axis_4">
    <g id="ytick_19">
     <g id="line2d_65">
      <g>
       <use xlink:href="#mc947610920" x="56.68625" y="294.827766" style="fill: #1a1a1a; stroke: #1a1a1a; stroke-width: 0.8"/>
      </g>
     </g>
     <g id="text_15">
      <!-- $\mathdefault{0}$ -->
      <g style="fill: #1a1a1a" transform="translate(44.18625 300.033234) scale(0.15 -0.15)">
       <use xlink:href="#LatinModernMath-Regular-30" transform="translate(0 0.40625)"/>
      </g>
     </g>
    </g>
    <g id="ytick_20">
     <g id="line2d_66">
      <g>
       <use xlink:href="#mc947610920" x="56.68625" y="266.655909" style="fill: #1a1a1a; stroke: #1a1a1a; stroke-width: 0.8"/>
      </g>
     </g>
     <g id="text_16">
      <!-- $\mathdefault{500}$ -->
      <g style="fill: #1a1a1a" transform="translate(29.18625 271.861378) scale(0.15 -0.15)">
       <use xlink:href="#LatinModernMath-Regular-35" transform="translate(0 0.40625)"/>
       <use xlink:href="#LatinModernMath-Regular-30" transform="translate(49.999985 0.40625)"/>
       <use xlink:href="#LatinModernMath-Regular-30" transform="translate(99.999969 0.40625)"/>
      </g>
     </g>
    </g>
    <g id="ytick_21">
     <g id="line2d_67">
      <g>
       <use xlink:href="#m5f9d1e6504" x="56.68625" y="289.193394" style="fill: #1a1a1a; stroke: #1a1a1a; stroke-width: 0.6"/>
      </g>
     </g>
    </g>
    <g id="ytick_22">
     <g id="line2d_68">
      <g>
       <use xlink:href="#m5f9d1e6504" x="56.68625" y="283.559023" style="fill: #1a1a1a; stroke: #1a1a1a; stroke-width: 0.6"/>
      </g>
     </g>
    </g>
    <g id="ytick_23">
     <g id="line2d_69">
      <g>
       <use xlink:href="#m5f9d1e6504" x="56.68625" y="277.924652" style="fill: #1a1a1a; stroke: #1a1a1a; stroke-width: 0.6"/>
      </g>
     </g>
    </g>
    <g id="ytick_24">
     <g id="line2d_70">
      <g>
       <use xlink:href="#m5f9d1e6504" x="56.68625" y="272.290281" style="fill: #1a1a1a; stroke: #1a1a1a; stroke-width: 0.6"/>
      </g>
     </g>
    </g>
    <g id="ytick_25">
     <g id="line2d_71">
      <g>
       <use xlink:href="#m5f9d1e6504" x="56.68625" y="261.021538" style="fill: #1a1a1a; stroke: #1a1a1a; stroke-width: 0.6"/>
      </g>
     </g>
    </g>
    <g id="ytick_26">
     <g id="line2d_72">
      <g>
       <use xlink:href="#m5f9d1e6504" x="56.68625" y="255.387167" style="fill: #1a1a1a; stroke: #1a1a1a; stroke-width: 0.6"/>
      </g>
     </g>
    </g>
    <g id="ytick_27">
     <g id="line2d_73">
      <g>
       <use xlink:href="#m5f9d1e6504" x="56.68625" y="249.752795" style="fill: #1a1a1a; stroke: #1a1a1a; stroke-width: 0.6"/>
      </g>
     </g>
    </g>
    <g id="text_17">
     <!-- $\mathcal{H}_{1} - \mathcal{H}_{2}$ -->
     <g style="fill: #1a1a1a" transform="translate(19.693125 303.685587) rotate(-90) scale(0.18 -0.18)">
      <use xlink:href="#Cmsy10-48" transform="translate(0 0.6875)"/>
      <use xlink:href="#LatinModernMath-Regular-31" transform="translate(85.177969 -12.240625) scale(0.7)"/>
      <use xlink:href="#LatinModernMath-Regular-2212" transform="translate(139.891239 0.6875)"/>
      <use xlink:href="#Cmsy10-48" transform="translate(235.249821 0.6875)"/>
      <use xlink:href="#LatinModernMath-Regular-32" transform="translate(320.42779 -12.240625) scale(0.7)"/>
     </g>
    </g>
   </g>
   <g id="text_18">
    <!-- Difference ax -->
    <g style="fill: #1a1a1a" transform="translate(322.62875 242.83507) scale(0.12 -0.12)">
     <defs>
      <path id="LatinModernMath-Regular-44" d="M 4525 2150 
C 4525 3366 3661 4371 2566 4371 
L 224 4371 
L 224 4173 
L 378 4173 
C 870 4173 883 4102 883 3872 
L 883 499 
C 883 269 870 198 378 198 
L 224 198 
L 224 0 
L 2566 0 
C 3642 0 4525 947 4525 2150 
z
M 3885 2150 
C 3885 1440 3763 1056 3533 742 
C 3405 570 3040 198 2394 198 
L 1747 198 
C 1446 198 1434 243 1434 454 
L 1434 3917 
C 1434 4128 1446 4173 1747 4173 
L 2387 4173 
C 2784 4173 3226 4032 3552 3578 
C 3827 3200 3885 2650 3885 2150 
z
" transform="scale(0.015625)"/>
      <path id="LatinModernMath-Regular-78" d="M 3302 0 
L 3302 198 
C 2957 198 2842 211 2694 397 
L 1837 1504 
C 2029 1747 2272 2061 2426 2227 
C 2624 2458 2886 2554 3187 2560 
L 3187 2758 
C 3021 2746 2829 2739 2662 2739 
C 2470 2739 2131 2752 2048 2758 
L 2048 2560 
C 2182 2547 2234 2464 2234 2362 
C 2234 2259 2170 2176 2138 2138 
L 1741 1638 
L 1242 2285 
C 1184 2349 1184 2362 1184 2400 
C 1184 2496 1280 2554 1408 2560 
L 1408 2758 
L 717 2739 
C 582 2739 282 2746 109 2758 
L 109 2560 
C 557 2560 563 2554 864 2170 
L 1498 1344 
C 1197 960 1197 947 896 582 
C 589 211 211 198 77 198 
L 77 0 
C 243 13 442 19 608 19 
L 1216 0 
L 1216 198 
C 1075 218 1030 301 1030 397 
C 1030 538 1216 749 1606 1210 
L 2093 570 
C 2144 499 2227 397 2227 358 
C 2227 301 2170 205 1997 198 
L 1997 0 
L 2688 19 
C 2861 19 3110 13 3302 0 
z
" transform="scale(0.015625)"/>
     </defs>
     <use xlink:href="#LatinModernMath-Regular-44"/>
     <use xlink:href="#LatinModernMath-Regular-69" transform="translate(76.399994 0)"/>
     <use xlink:href="#LatinModernMath-Regular-66" transform="translate(104.199982 0)"/>
     <use xlink:href="#LatinModernMath-Regular-66" transform="translate(134.799973 0)"/>
     <use xlink:href="#LatinModernMath-Regular-65" transform="translate(165.399963 0)"/>
     <use xlink:href="#LatinModernMath-Regular-72" transform="translate(209.799957 0)"/>
     <use xlink:href="#LatinModernMath-Regular-65" transform="translate(248.999954 0)"/>
     <use xlink:href="#LatinModernMath-Regular-6e" transform="translate(293.399948 0)"/>
     <use xlink:href="#LatinModernMath-Regular-63" transform="translate(348.999939 0)"/>
     <use xlink:href="#LatinModernMath-Regular-65" transform="translate(393.399933 0)"/>
     <use xlink:href="#LatinModernMath-Regular-20" transform="translate(437.799927 0)"/>
     <use xlink:href="#LatinModernMath-Regular-61" transform="translate(470.999924 0)"/>
     <use xlink:href="#LatinModernMath-Regular-78" transform="translate(520.999908 0)"/>
    </g>
   </g>
  </g>
 </g>
 <defs>
  <clipPath id="p3fc2ab84d7">
   <rect x="56.68625" y="20.051634" width="334.8" height="206.288372"/>
  </clipPath>
  <clipPath id="pbcb9cd8483">
   <rect x="56.68625" y="245.679541" width="334.8" height="51.572093"/>
  </clipPath>
 </defs>
</svg>
