<?xml version="1.0" encoding="utf-8" standalone="no"?>
<!DOCTYPE svg PUBLIC "-//W3C//DTD SVG 1.1//EN"
  "http://www.w3.org/Graphics/SVG/1.1/DTD/svg11.dtd">
<svg xmlns:xlink="http://www.w3.org/1999/xlink" width="411.916099pt" height="347.759759pt" viewBox="0 0 411.916099 347.759759" xmlns="http://www.w3.org/2000/svg" version="1.1">
 <metadata>
  <rdf:RDF xmlns:dc="http://purl.org/dc/elements/1.1/" xmlns:cc="http://creativecommons.org/ns#" xmlns:rdf="http://www.w3.org/1999/02/22-rdf-syntax-ns#">
   <cc:Work>
    <dc:creator>
     <cc:Agent>
      <dc:title>カリビアンカフェ</dc:title>
     </cc:Agent>
    </dc:creator>
   </cc:Work>
  </rdf:RDF>
 </metadata>
 <defs>
  <style type="text/css">*{stroke-linejoin: round; stroke-linecap: butt}</style>
 </defs>
 <g id="figure_1">
  <g id="patch_1">
   <path d="M 0 347.759759 
L 411.916099 347.759759 
L 411.916099 0 
L 0 0 
z
" style="fill: #ffffff"/>
  </g>
  <g id="axes_1">
   <g id="patch_2">
    <path d="M 68.38625 226.340006 
L 403.18625 226.340006 
L 403.18625 20.051634 
L 68.38625 20.051634 
z
" style="fill: #ffffff"/>
   </g>
   <g id="patch_3">
    <path d="M 83.604432 226.340006 
L 83.604432 226.340006 
L 89.691705 226.340006 
L 89.691705 226.092569 
L 95.778977 226.092569 
L 95.778977 226.092569 
L 101.86625 226.092569 
L 101.86625 224.855383 
L 107.953523 224.855383 
L 107.953523 224.607946 
L 114.040795 224.607946 
L 114.040795 222.875885 
L 120.128068 222.875885 
L 120.128068 220.401514 
L 126.215341 220.401514 
L 126.215341 214.215584 
L 132.302614 214.215584 
L 132.302614 204.812972 
L 138.389886 204.812972 
L 138.389886 193.183424 
L 144.477159 193.183424 
L 144.477159 181.553877 
L 150.564432 181.553877 
L 150.564432 168.439707 
L 156.651705 168.439707 
L 156.651705 144.438301 
L 162.738977 144.438301 
L 162.738977 121.674081 
L 168.82625 121.674081 
L 168.82625 105.09579 
L 174.913523 105.09579 
L 174.913523 94.455992 
L 181.000795 94.455992 
L 181.000795 95.693178 
L 187.088068 95.693178 
L 187.088068 100.641921 
L 193.175341 100.641921 
L 193.175341 114.498403 
L 199.262614 114.498403 
L 199.262614 110.786845 
L 205.349886 110.786845 
L 205.349886 114.250966 
L 211.437159 114.250966 
L 211.437159 117.467649 
L 217.524432 117.467649 
L 217.524432 113.261217 
L 223.611705 113.261217 
L 223.611705 109.302222 
L 229.698977 109.302222 
L 229.698977 98.16755 
L 235.78625 98.16755 
L 235.78625 89.754686 
L 241.873523 89.754686 
L 241.873523 88.5175 
L 247.960795 88.5175 
L 247.960795 95.198304 
L 254.048068 95.198304 
L 254.048068 99.404735 
L 260.135341 99.404735 
L 260.135341 119.199709 
L 266.222614 119.199709 
L 266.222614 130.086945 
L 272.309886 130.086945 
L 272.309886 146.912673 
L 278.397159 146.912673 
L 278.397159 152.356291 
L 284.484432 152.356291 
L 284.484432 179.079506 
L 290.571705 179.079506 
L 290.571705 187.244932 
L 296.658977 187.244932 
L 296.658977 198.874479 
L 302.74625 198.874479 
L 302.74625 205.307846 
L 308.833523 205.307846 
L 308.833523 212.978398 
L 314.920795 212.978398 
L 314.920795 216.442519 
L 321.008068 216.442519 
L 321.008068 220.401514 
L 327.095341 220.401514 
L 327.095341 222.381011 
L 333.182614 222.381011 
L 333.182614 222.628448 
L 339.269886 222.628448 
L 339.269886 225.845131 
L 345.357159 225.845131 
L 345.357159 225.845131 
L 351.444432 225.845131 
L 351.444432 225.845131 
L 357.531705 225.845131 
L 357.531705 226.092569 
L 363.618977 226.092569 
L 363.618977 226.340006 
L 369.70625 226.340006 
L 369.70625 226.340006 
L 375.793523 226.340006 
L 375.793523 226.340006 
L 381.880795 226.340006 
L 381.880795 225.845131 
L 387.968068 225.845131 
L 387.968068 226.340006 
" clip-path="url(#p3bd1dfd82c)" style="fill: none; stroke: #348abd; stroke-linejoin: miter"/>
   </g>
   <g id="patch_4">
    <path d="M 83.604432 226.340006 
L 83.604432 226.092569 
L 89.691705 226.092569 
L 89.691705 225.845131 
L 95.778977 225.845131 
L 95.778977 225.845131 
L 101.86625 225.845131 
L 101.86625 224.360508 
L 107.953523 224.360508 
L 107.953523 223.618197 
L 114.040795 223.618197 
L 114.040795 221.391262 
L 120.128068 221.391262 
L 120.128068 219.164328 
L 126.215341 219.164328 
L 126.215341 216.195082 
L 132.302614 216.195082 
L 132.302614 209.761715 
L 138.389886 209.761715 
L 138.389886 206.297595 
L 144.477159 206.297595 
L 144.477159 202.833474 
L 150.564432 202.833474 
L 150.564432 195.162922 
L 156.651705 195.162922 
L 156.651705 182.791063 
L 162.738977 182.791063 
L 162.738977 180.316691 
L 168.82625 180.316691 
L 168.82625 173.141013 
L 174.913523 173.141013 
L 174.913523 170.914079 
L 181.000795 170.914079 
L 181.000795 171.161516 
L 187.088068 171.161516 
L 187.088068 164.728149 
L 193.175341 164.728149 
L 193.175341 153.840914 
L 199.262614 153.840914 
L 199.262614 148.89217 
L 205.349886 148.89217 
L 205.349886 131.324131 
L 211.437159 131.324131 
L 211.437159 108.065037 
L 217.524432 108.065037 
L 217.524432 96.188052 
L 223.611705 96.188052 
L 223.611705 64.02122 
L 229.698977 64.02122 
L 229.698977 42.246748 
L 235.78625 42.246748 
L 235.78625 29.87489 
L 241.873523 29.87489 
L 241.873523 30.122327 
L 247.960795 30.122327 
L 247.960795 43.236497 
L 254.048068 43.236497 
L 254.048068 46.700617 
L 260.135341 46.700617 
L 260.135341 52.886547 
L 266.222614 52.886547 
L 266.222614 84.311068 
L 272.309886 84.311068 
L 272.309886 111.28172 
L 278.397159 111.28172 
L 278.397159 140.726744 
L 284.484432 140.726744 
L 284.484432 159.037094 
L 290.571705 159.037094 
L 290.571705 178.584631 
L 296.658977 178.584631 
L 296.658977 189.22443 
L 302.74625 189.22443 
L 302.74625 205.555283 
L 308.833523 205.555283 
L 308.833523 212.730961 
L 314.920795 212.730961 
L 314.920795 218.916891 
L 321.008068 218.916891 
L 321.008068 220.401514 
L 327.095341 220.401514 
L 327.095341 224.607946 
L 333.182614 224.607946 
L 333.182614 224.607946 
L 339.269886 224.607946 
L 339.269886 226.092569 
L 345.357159 226.092569 
L 345.357159 225.845131 
L 351.444432 225.845131 
L 351.444432 226.092569 
L 357.531705 226.092569 
L 357.531705 226.092569 
L 363.618977 226.092569 
L 363.618977 226.340006 
L 369.70625 226.340006 
L 369.70625 226.340006 
L 375.793523 226.340006 
L 375.793523 226.340006 
L 381.880795 226.340006 
L 381.880795 226.340006 
L 387.968068 226.340006 
L 387.968068 226.340006 
" clip-path="url(#p3bd1dfd82c)" style="fill: none; stroke: #e24a33; stroke-linejoin: miter"/>
   </g>
   <g id="patch_5">
    <path d="M 68.38625 226.340006 
L 68.38625 20.051634 
" style="fill: none; stroke: #000000; stroke-linejoin: miter; stroke-linecap: square"/>
   </g>
   <g id="patch_6">
    <path d="M 403.18625 226.340006 
L 403.18625 20.051634 
" style="fill: none; stroke: #000000; stroke-linejoin: miter; stroke-linecap: square"/>
   </g>
   <g id="patch_7">
    <path d="M 68.38625 226.340006 
L 403.18625 226.340006 
" style="fill: none; stroke: #000000; stroke-linejoin: miter; stroke-linecap: square"/>
   </g>
   <g id="patch_8">
    <path d="M 68.38625 20.051634 
L 403.18625 20.051634 
" style="fill: none; stroke: #000000; stroke-linejoin: miter; stroke-linecap: square"/>
   </g>
   <g id="matplotlib.axis_1">
    <g id="xtick_1">
     <g id="line2d_1">
      <defs>
       <path id="m8dec1b3d1d" d="M 0 0 
L 0 -6 
" style="stroke: #1a1a1a; stroke-width: 0.8"/>
      </defs>
      <g>
       <use xlink:href="#m8dec1b3d1d" x="128.668093" y="226.340006" style="fill: #1a1a1a; stroke: #1a1a1a; stroke-width: 0.8"/>
      </g>
     </g>
    </g>
    <g id="xtick_2">
     <g id="line2d_2">
      <g>
       <use xlink:href="#m8dec1b3d1d" x="213.292281" y="226.340006" style="fill: #1a1a1a; stroke: #1a1a1a; stroke-width: 0.8"/>
      </g>
     </g>
    </g>
    <g id="xtick_3">
     <g id="line2d_3">
      <g>
       <use xlink:href="#m8dec1b3d1d" x="297.91647" y="226.340006" style="fill: #1a1a1a; stroke: #1a1a1a; stroke-width: 0.8"/>
      </g>
     </g>
    </g>
    <g id="xtick_4">
     <g id="line2d_4">
      <g>
       <use xlink:href="#m8dec1b3d1d" x="382.540658" y="226.340006" style="fill: #1a1a1a; stroke: #1a1a1a; stroke-width: 0.8"/>
      </g>
     </g>
    </g>
    <g id="xtick_5">
     <g id="line2d_5">
      <defs>
       <path id="m131efc0c90" d="M 0 0 
L 0 -3 
" style="stroke: #1a1a1a; stroke-width: 0.6"/>
      </defs>
      <g>
       <use xlink:href="#m131efc0c90" x="77.89358" y="226.340006" style="fill: #1a1a1a; stroke: #1a1a1a; stroke-width: 0.6"/>
      </g>
     </g>
    </g>
    <g id="xtick_6">
     <g id="line2d_6">
      <g>
       <use xlink:href="#m131efc0c90" x="94.818418" y="226.340006" style="fill: #1a1a1a; stroke: #1a1a1a; stroke-width: 0.6"/>
      </g>
     </g>
    </g>
    <g id="xtick_7">
     <g id="line2d_7">
      <g>
       <use xlink:href="#m131efc0c90" x="111.743255" y="226.340006" style="fill: #1a1a1a; stroke: #1a1a1a; stroke-width: 0.6"/>
      </g>
     </g>
    </g>
    <g id="xtick_8">
     <g id="line2d_8">
      <g>
       <use xlink:href="#m131efc0c90" x="145.592931" y="226.340006" style="fill: #1a1a1a; stroke: #1a1a1a; stroke-width: 0.6"/>
      </g>
     </g>
    </g>
    <g id="xtick_9">
     <g id="line2d_9">
      <g>
       <use xlink:href="#m131efc0c90" x="162.517768" y="226.340006" style="fill: #1a1a1a; stroke: #1a1a1a; stroke-width: 0.6"/>
      </g>
     </g>
    </g>
    <g id="xtick_10">
     <g id="line2d_10">
      <g>
       <use xlink:href="#m131efc0c90" x="179.442606" y="226.340006" style="fill: #1a1a1a; stroke: #1a1a1a; stroke-width: 0.6"/>
      </g>
     </g>
    </g>
    <g id="xtick_11">
     <g id="line2d_11">
      <g>
       <use xlink:href="#m131efc0c90" x="196.367444" y="226.340006" style="fill: #1a1a1a; stroke: #1a1a1a; stroke-width: 0.6"/>
      </g>
     </g>
    </g>
    <g id="xtick_12">
     <g id="line2d_12">
      <g>
       <use xlink:href="#m131efc0c90" x="230.217119" y="226.340006" style="fill: #1a1a1a; stroke: #1a1a1a; stroke-width: 0.6"/>
      </g>
     </g>
    </g>
    <g id="xtick_13">
     <g id="line2d_13">
      <g>
       <use xlink:href="#m131efc0c90" x="247.141957" y="226.340006" style="fill: #1a1a1a; stroke: #1a1a1a; stroke-width: 0.6"/>
      </g>
     </g>
    </g>
    <g id="xtick_14">
     <g id="line2d_14">
      <g>
       <use xlink:href="#m131efc0c90" x="264.066794" y="226.340006" style="fill: #1a1a1a; stroke: #1a1a1a; stroke-width: 0.6"/>
      </g>
     </g>
    </g>
    <g id="xtick_15">
     <g id="line2d_15">
      <g>
       <use xlink:href="#m131efc0c90" x="280.991632" y="226.340006" style="fill: #1a1a1a; stroke: #1a1a1a; stroke-width: 0.6"/>
      </g>
     </g>
    </g>
    <g id="xtick_16">
     <g id="line2d_16">
      <g>
       <use xlink:href="#m131efc0c90" x="314.841307" y="226.340006" style="fill: #1a1a1a; stroke: #1a1a1a; stroke-width: 0.6"/>
      </g>
     </g>
    </g>
    <g id="xtick_17">
     <g id="line2d_17">
      <g>
       <use xlink:href="#m131efc0c90" x="331.766145" y="226.340006" style="fill: #1a1a1a; stroke: #1a1a1a; stroke-width: 0.6"/>
      </g>
     </g>
    </g>
    <g id="xtick_18">
     <g id="line2d_18">
      <g>
       <use xlink:href="#m131efc0c90" x="348.690983" y="226.340006" style="fill: #1a1a1a; stroke: #1a1a1a; stroke-width: 0.6"/>
      </g>
     </g>
    </g>
    <g id="xtick_19">
     <g id="line2d_19">
      <g>
       <use xlink:href="#m131efc0c90" x="365.61582" y="226.340006" style="fill: #1a1a1a; stroke: #1a1a1a; stroke-width: 0.6"/>
      </g>
     </g>
    </g>
    <g id="xtick_20">
     <g id="line2d_20">
      <g>
       <use xlink:href="#m131efc0c90" x="399.465496" y="226.340006" style="fill: #1a1a1a; stroke: #1a1a1a; stroke-width: 0.6"/>
      </g>
     </g>
    </g>
   </g>
   <g id="matplotlib.axis_2">
    <g id="ytick_1">
     <g id="line2d_21">
      <defs>
       <path id="mc947610920" d="M 0 0 
L 6 0 
" style="stroke: #1a1a1a; stroke-width: 0.8"/>
      </defs>
      <g>
       <use xlink:href="#mc947610920" x="68.38625" y="226.340006" style="fill: #1a1a1a; stroke: #1a1a1a; stroke-width: 0.8"/>
      </g>
     </g>
     <g id="text_1">
      <!-- $\mathdefault{0}$ -->
      <g style="fill: #1a1a1a" transform="translate(55.88625 231.545475) scale(0.15 -0.15)">
       <defs>
        <path id="LatinModernMath-Regular-30" d="M 2944 2048 
C 2944 2560 2912 3072 2688 3546 
C 2394 4160 1869 4262 1600 4262 
C 1216 4262 749 4096 486 3501 
C 282 3059 250 2560 250 2048 
C 250 1568 275 992 538 506 
C 813 -13 1280 -141 1594 -141 
C 1939 -141 2426 -6 2707 602 
C 2912 1043 2944 1542 2944 2048 
z
M 2413 2125 
C 2413 1645 2413 1210 2342 800 
C 2246 192 1882 0 1594 0 
C 1344 0 966 160 851 774 
C 781 1158 781 1747 781 2125 
C 781 2534 781 2957 832 3302 
C 954 4064 1434 4122 1594 4122 
C 1805 4122 2227 4006 2349 3373 
C 2413 3014 2413 2528 2413 2125 
z
" transform="scale(0.015625)"/>
       </defs>
       <use xlink:href="#LatinModernMath-Regular-30" transform="translate(0 0.40625)"/>
      </g>
     </g>
    </g>
    <g id="ytick_2">
     <g id="line2d_22">
      <g>
       <use xlink:href="#mc947610920" x="68.38625" y="176.852571" style="fill: #1a1a1a; stroke: #1a1a1a; stroke-width: 0.8"/>
      </g>
     </g>
     <g id="text_2">
      <!-- $\mathdefault{200}$ -->
      <g style="fill: #1a1a1a" transform="translate(40.88625 182.05804) scale(0.15 -0.15)">
       <defs>
        <path id="LatinModernMath-Regular-32" d="M 2874 1114 
L 2714 1114 
C 2682 922 2637 640 2573 544 
C 2528 493 2106 493 1965 493 
L 813 493 
L 1491 1152 
C 2490 2035 2874 2381 2874 3021 
C 2874 3750 2298 4262 1517 4262 
C 794 4262 320 3674 320 3104 
C 320 2746 640 2746 659 2746 
C 768 2746 992 2822 992 3085 
C 992 3251 877 3418 653 3418 
C 602 3418 589 3418 570 3411 
C 717 3827 1062 4064 1434 4064 
C 2016 4064 2291 3546 2291 3021 
C 2291 2509 1971 2003 1619 1606 
L 390 237 
C 320 166 320 154 320 0 
L 2694 0 
L 2874 1114 
z
" transform="scale(0.015625)"/>
       </defs>
       <use xlink:href="#LatinModernMath-Regular-32" transform="translate(0 0.40625)"/>
       <use xlink:href="#LatinModernMath-Regular-30" transform="translate(49.999985 0.40625)"/>
       <use xlink:href="#LatinModernMath-Regular-30" transform="translate(99.999969 0.40625)"/>
      </g>
     </g>
    </g>
    <g id="ytick_3">
     <g id="line2d_23">
      <g>
       <use xlink:href="#mc947610920" x="68.38625" y="127.365136" style="fill: #1a1a1a; stroke: #1a1a1a; stroke-width: 0.8"/>
      </g>
     </g>
     <g id="text_3">
      <!-- $\mathdefault{400}$ -->
      <g style="fill: #1a1a1a" transform="translate(40.88625 132.570605) scale(0.15 -0.15)">
       <defs>
        <path id="LatinModernMath-Regular-34" d="M 3014 1056 
L 3014 1254 
L 2374 1254 
L 2374 4166 
C 2374 4294 2374 4333 2272 4333 
C 2214 4333 2195 4333 2144 4256 
L 179 1254 
L 179 1056 
L 1882 1056 
L 1882 499 
C 1882 269 1869 198 1395 198 
L 1261 198 
L 1261 0 
C 1523 19 1856 19 2125 19 
C 2394 19 2733 19 2995 0 
L 2995 198 
L 2861 198 
C 2387 198 2374 269 2374 499 
L 2374 1056 
L 3014 1056 
z
M 1920 1254 
L 358 1254 
L 1920 3642 
L 1920 1254 
z
" transform="scale(0.015625)"/>
       </defs>
       <use xlink:href="#LatinModernMath-Regular-34" transform="translate(0 0.296875)"/>
       <use xlink:href="#LatinModernMath-Regular-30" transform="translate(49.999985 0.296875)"/>
       <use xlink:href="#LatinModernMath-Regular-30" transform="translate(99.999969 0.296875)"/>
      </g>
     </g>
    </g>
    <g id="ytick_4">
     <g id="line2d_24">
      <g>
       <use xlink:href="#mc947610920" x="68.38625" y="77.877701" style="fill: #1a1a1a; stroke: #1a1a1a; stroke-width: 0.8"/>
      </g>
     </g>
     <g id="text_4">
      <!-- $\mathdefault{600}$ -->
      <g style="fill: #1a1a1a" transform="translate(40.88625 83.08317) scale(0.15 -0.15)">
       <defs>
        <path id="LatinModernMath-Regular-36" d="M 2925 1306 
C 2925 2118 2355 2733 1645 2733 
C 1210 2733 973 2406 845 2099 
L 845 2253 
C 845 3872 1638 4102 1965 4102 
C 2118 4102 2387 4064 2528 3846 
C 2432 3846 2176 3846 2176 3558 
C 2176 3360 2330 3264 2470 3264 
C 2573 3264 2765 3322 2765 3571 
C 2765 3955 2483 4262 1952 4262 
C 1133 4262 269 3437 269 2022 
C 269 314 1011 -141 1606 -141 
C 2317 -141 2925 461 2925 1306 
z
M 2349 1312 
C 2349 1005 2349 685 2240 454 
C 2048 70 1754 38 1606 38 
C 1203 38 1011 422 973 518 
C 858 819 858 1331 858 1446 
C 858 1946 1062 2586 1638 2586 
C 1741 2586 2035 2586 2234 2189 
C 2349 1952 2349 1626 2349 1312 
z
" transform="scale(0.015625)"/>
       </defs>
       <use xlink:href="#LatinModernMath-Regular-36" transform="translate(0 0.40625)"/>
       <use xlink:href="#LatinModernMath-Regular-30" transform="translate(49.999985 0.40625)"/>
       <use xlink:href="#LatinModernMath-Regular-30" transform="translate(99.999969 0.40625)"/>
      </g>
     </g>
    </g>
    <g id="ytick_5">
     <g id="line2d_25">
      <g>
       <use xlink:href="#mc947610920" x="68.38625" y="28.390266" style="fill: #1a1a1a; stroke: #1a1a1a; stroke-width: 0.8"/>
      </g>
     </g>
     <g id="text_5">
      <!-- $\mathdefault{800}$ -->
      <g style="fill: #1a1a1a" transform="translate(40.88625 33.595735) scale(0.15 -0.15)">
       <defs>
        <path id="LatinModernMath-Regular-38" d="M 2925 1075 
C 2925 1306 2854 1594 2611 1862 
C 2490 1997 2387 2061 1978 2317 
C 2438 2554 2752 2886 2752 3309 
C 2752 3898 2182 4262 1600 4262 
C 960 4262 442 3789 442 3194 
C 442 3078 454 2790 723 2490 
C 794 2413 1030 2253 1190 2144 
C 819 1958 269 1600 269 966 
C 269 288 922 -141 1594 -141 
C 2317 -141 2925 390 2925 1075 
z
M 2470 3309 
C 2470 2944 2221 2637 1837 2413 
L 1043 2925 
C 749 3117 723 3334 723 3443 
C 723 3834 1139 4102 1594 4102 
C 2061 4102 2470 3770 2470 3309 
z
M 2605 845 
C 2605 371 2125 38 1600 38 
C 1050 38 589 435 589 966 
C 589 1338 794 1747 1338 2048 
L 2125 1549 
C 2304 1427 2605 1235 2605 845 
z
" transform="scale(0.015625)"/>
       </defs>
       <use xlink:href="#LatinModernMath-Regular-38" transform="translate(0 0.40625)"/>
       <use xlink:href="#LatinModernMath-Regular-30" transform="translate(49.999985 0.40625)"/>
       <use xlink:href="#LatinModernMath-Regular-30" transform="translate(99.999969 0.40625)"/>
      </g>
     </g>
    </g>
    <g id="ytick_6">
     <g id="line2d_26">
      <defs>
       <path id="m5f9d1e6504" d="M 0 0 
L 3 0 
" style="stroke: #1a1a1a; stroke-width: 0.6"/>
      </defs>
      <g>
       <use xlink:href="#m5f9d1e6504" x="68.38625" y="213.968147" style="fill: #1a1a1a; stroke: #1a1a1a; stroke-width: 0.6"/>
      </g>
     </g>
    </g>
    <g id="ytick_7">
     <g id="line2d_27">
      <g>
       <use xlink:href="#m5f9d1e6504" x="68.38625" y="201.596288" style="fill: #1a1a1a; stroke: #1a1a1a; stroke-width: 0.6"/>
      </g>
     </g>
    </g>
    <g id="ytick_8">
     <g id="line2d_28">
      <g>
       <use xlink:href="#m5f9d1e6504" x="68.38625" y="189.22443" style="fill: #1a1a1a; stroke: #1a1a1a; stroke-width: 0.6"/>
      </g>
     </g>
    </g>
    <g id="ytick_9">
     <g id="line2d_29">
      <g>
       <use xlink:href="#m5f9d1e6504" x="68.38625" y="164.480712" style="fill: #1a1a1a; stroke: #1a1a1a; stroke-width: 0.6"/>
      </g>
     </g>
    </g>
    <g id="ytick_10">
     <g id="line2d_30">
      <g>
       <use xlink:href="#m5f9d1e6504" x="68.38625" y="152.108854" style="fill: #1a1a1a; stroke: #1a1a1a; stroke-width: 0.6"/>
      </g>
     </g>
    </g>
    <g id="ytick_11">
     <g id="line2d_31">
      <g>
       <use xlink:href="#m5f9d1e6504" x="68.38625" y="139.736995" style="fill: #1a1a1a; stroke: #1a1a1a; stroke-width: 0.6"/>
      </g>
     </g>
    </g>
    <g id="ytick_12">
     <g id="line2d_32">
      <g>
       <use xlink:href="#m5f9d1e6504" x="68.38625" y="114.993277" style="fill: #1a1a1a; stroke: #1a1a1a; stroke-width: 0.6"/>
      </g>
     </g>
    </g>
    <g id="ytick_13">
     <g id="line2d_33">
      <g>
       <use xlink:href="#m5f9d1e6504" x="68.38625" y="102.621419" style="fill: #1a1a1a; stroke: #1a1a1a; stroke-width: 0.6"/>
      </g>
     </g>
    </g>
    <g id="ytick_14">
     <g id="line2d_34">
      <g>
       <use xlink:href="#m5f9d1e6504" x="68.38625" y="90.24956" style="fill: #1a1a1a; stroke: #1a1a1a; stroke-width: 0.6"/>
      </g>
     </g>
    </g>
    <g id="ytick_15">
     <g id="line2d_35">
      <g>
       <use xlink:href="#m5f9d1e6504" x="68.38625" y="65.505843" style="fill: #1a1a1a; stroke: #1a1a1a; stroke-width: 0.6"/>
      </g>
     </g>
    </g>
    <g id="ytick_16">
     <g id="line2d_36">
      <g>
       <use xlink:href="#m5f9d1e6504" x="68.38625" y="53.133984" style="fill: #1a1a1a; stroke: #1a1a1a; stroke-width: 0.6"/>
      </g>
     </g>
    </g>
    <g id="ytick_17">
     <g id="line2d_37">
      <g>
       <use xlink:href="#m5f9d1e6504" x="68.38625" y="40.762125" style="fill: #1a1a1a; stroke: #1a1a1a; stroke-width: 0.6"/>
      </g>
     </g>
    </g>
    <g id="text_6">
     <!-- Entries -->
     <g style="fill: #1a1a1a" transform="translate(19.693125 151.402382) rotate(-90) scale(0.18 -0.18)">
      <defs>
       <path id="LatinModernMath-Regular-45" d="M 4173 1651 
L 4013 1651 
C 3853 666 3706 198 2605 198 
L 1754 198 
C 1453 198 1440 243 1440 454 
L 1440 2163 
L 2016 2163 
C 2637 2163 2707 1958 2707 1414 
L 2867 1414 
L 2867 3110 
L 2707 3110 
C 2707 2560 2637 2362 2016 2362 
L 1440 2362 
L 1440 3898 
C 1440 4109 1453 4154 1754 4154 
L 2579 4154 
C 3558 4154 3731 3802 3834 2912 
L 3994 2912 
L 3814 4352 
L 211 4352 
L 211 4154 
L 365 4154 
C 858 4154 870 4083 870 3853 
L 870 499 
C 870 269 858 198 365 198 
L 211 198 
L 211 0 
L 3904 0 
L 4173 1651 
z
" transform="scale(0.015625)"/>
       <path id="LatinModernMath-Regular-6e" d="M 3424 0 
L 3424 198 
C 3091 198 2931 198 2925 390 
L 2925 1613 
C 2925 2163 2925 2362 2726 2592 
C 2637 2701 2426 2829 2054 2829 
C 1587 2829 1286 2554 1107 2157 
L 1107 2829 
L 205 2758 
L 205 2560 
C 653 2560 704 2515 704 2202 
L 704 486 
C 704 198 634 198 205 198 
L 205 0 
L 928 19 
L 1645 0 
L 1645 198 
C 1216 198 1146 198 1146 486 
L 1146 1664 
C 1146 2330 1600 2688 2010 2688 
C 2413 2688 2483 2342 2483 1978 
L 2483 486 
C 2483 198 2413 198 1984 198 
L 1984 0 
L 2707 19 
L 3424 0 
z
" transform="scale(0.015625)"/>
       <path id="LatinModernMath-Regular-74" d="M 2125 794 
L 2125 1158 
L 1965 1158 
L 1965 806 
C 1965 333 1773 90 1536 90 
C 1107 90 1107 672 1107 781 
L 1107 2560 
L 2022 2560 
L 2022 2758 
L 1107 2758 
L 1107 3936 
L 947 3936 
C 941 3411 749 2726 122 2701 
L 122 2560 
L 666 2560 
L 666 794 
C 666 6 1261 -70 1491 -70 
C 1946 -70 2125 384 2125 794 
z
" transform="scale(0.015625)"/>
       <path id="LatinModernMath-Regular-72" d="M 2330 2438 
C 2330 2643 2131 2829 1856 2829 
C 1389 2829 1158 2400 1069 2125 
L 1069 2829 
L 179 2758 
L 179 2560 
C 627 2560 678 2515 678 2202 
L 678 486 
C 678 198 608 198 179 198 
L 179 0 
L 909 19 
C 1165 19 1466 19 1722 0 
L 1722 198 
L 1587 198 
C 1114 198 1101 269 1101 499 
L 1101 1485 
C 1101 2118 1370 2688 1856 2688 
C 1901 2688 1914 2688 1926 2682 
C 1907 2675 1779 2598 1779 2432 
C 1779 2253 1914 2157 2054 2157 
C 2170 2157 2330 2234 2330 2438 
z
" transform="scale(0.015625)"/>
       <path id="LatinModernMath-Regular-69" d="M 1581 0 
L 1581 198 
C 1158 198 1133 230 1133 480 
L 1133 2829 
L 237 2758 
L 237 2560 
C 653 2560 710 2522 710 2208 
L 710 486 
C 710 198 640 198 211 198 
L 211 0 
L 915 19 
C 1139 19 1363 6 1581 0 
z
M 1229 3866 
C 1229 4038 1082 4205 890 4205 
C 672 4205 544 4026 544 3866 
C 544 3693 691 3526 883 3526 
C 1101 3526 1229 3706 1229 3866 
z
" transform="scale(0.015625)"/>
       <path id="LatinModernMath-Regular-65" d="M 2656 762 
C 2656 826 2605 838 2573 838 
C 2515 838 2502 800 2490 749 
C 2266 90 1690 90 1626 90 
C 1306 90 1050 282 902 518 
C 710 826 710 1248 710 1478 
L 2496 1478 
C 2637 1478 2656 1478 2656 1613 
C 2656 2246 2310 2867 1510 2867 
C 768 2867 179 2208 179 1408 
C 179 550 851 -70 1587 -70 
C 2368 -70 2656 640 2656 762 
z
M 2234 1613 
L 717 1613 
C 755 2566 1293 2726 1510 2726 
C 2170 2726 2234 1862 2234 1613 
z
" transform="scale(0.015625)"/>
       <path id="LatinModernMath-Regular-73" d="M 2304 819 
C 2304 1158 2112 1350 2035 1427 
C 1824 1632 1574 1683 1306 1734 
C 947 1805 518 1888 518 2259 
C 518 2483 685 2746 1235 2746 
C 1939 2746 1971 2170 1984 1971 
C 1990 1914 2061 1914 2061 1914 
C 2144 1914 2144 1946 2144 2067 
L 2144 2714 
C 2144 2822 2144 2867 2074 2867 
C 2042 2867 2029 2867 1946 2790 
C 1926 2765 1862 2707 1837 2688 
C 1594 2867 1331 2867 1235 2867 
C 454 2867 211 2438 211 2080 
C 211 1856 314 1677 486 1536 
C 691 1370 870 1331 1331 1242 
C 1472 1216 1997 1114 1997 653 
C 1997 326 1773 70 1274 70 
C 736 70 506 435 384 979 
C 365 1062 358 1088 294 1088 
C 211 1088 211 1043 211 928 
L 211 83 
C 211 -26 211 -70 282 -70 
C 314 -70 320 -64 442 58 
C 454 70 454 83 570 205 
C 851 -64 1139 -70 1274 -70 
C 2010 -70 2304 358 2304 819 
z
" transform="scale(0.015625)"/>
      </defs>
      <use xlink:href="#LatinModernMath-Regular-45"/>
      <use xlink:href="#LatinModernMath-Regular-6e" x="68.099991"/>
      <use xlink:href="#LatinModernMath-Regular-74" x="123.699982"/>
      <use xlink:href="#LatinModernMath-Regular-72" x="162.599976"/>
      <use xlink:href="#LatinModernMath-Regular-69" x="201.799973"/>
      <use xlink:href="#LatinModernMath-Regular-65" x="229.59996"/>
      <use xlink:href="#LatinModernMath-Regular-73" x="273.999954"/>
     </g>
    </g>
   </g>
   <g id="text_7">
    <!-- Comparison of two hist with difference plot -->
    <g style="fill: #1a1a1a" transform="translate(68.38625 15.66) scale(0.12 -0.12)">
     <defs>
      <path id="LatinModernMath-Regular-43" d="M 4256 1491 
C 4256 1555 4256 1600 4173 1600 
C 4102 1600 4102 1562 4096 1498 
C 4045 582 3360 58 2662 58 
C 2272 58 1018 275 1018 2182 
C 1018 4096 2266 4314 2656 4314 
C 3354 4314 3923 3731 4051 2797 
C 4064 2707 4064 2688 4154 2688 
C 4256 2688 4256 2707 4256 2842 
L 4256 4358 
C 4256 4467 4256 4512 4186 4512 
C 4160 4512 4134 4512 4083 4435 
L 3763 3962 
C 3526 4192 3200 4512 2586 4512 
C 1389 4512 358 3494 358 2189 
C 358 864 1395 -141 2586 -141 
C 3629 -141 4256 749 4256 1491 
z
" transform="scale(0.015625)"/>
      <path id="LatinModernMath-Regular-6f" d="M 3014 1370 
C 3014 2189 2374 2867 1600 2867 
C 800 2867 179 2170 179 1370 
C 179 544 845 -70 1594 -70 
C 2368 -70 3014 557 3014 1370 
z
M 2483 1421 
C 2483 1190 2483 845 2342 563 
C 2202 275 1920 90 1600 90 
C 1325 90 1043 224 870 518 
C 710 800 710 1190 710 1421 
C 710 1670 710 2016 864 2298 
C 1037 2592 1338 2726 1594 2726 
C 1875 2726 2150 2586 2317 2310 
C 2483 2035 2483 1664 2483 1421 
z
" transform="scale(0.015625)"/>
      <path id="LatinModernMath-Regular-6d" d="M 5203 0 
L 5203 198 
C 4870 198 4710 198 4704 390 
L 4704 1613 
C 4704 2163 4704 2362 4506 2592 
C 4416 2701 4205 2829 3834 2829 
C 3296 2829 3014 2445 2906 2202 
C 2816 2758 2342 2829 2054 2829 
C 1587 2829 1286 2554 1107 2157 
L 1107 2829 
L 205 2758 
L 205 2560 
C 653 2560 704 2515 704 2202 
L 704 486 
C 704 198 634 198 205 198 
L 205 0 
L 928 19 
L 1645 0 
L 1645 198 
C 1216 198 1146 198 1146 486 
L 1146 1664 
C 1146 2330 1600 2688 2010 2688 
C 2413 2688 2483 2342 2483 1978 
L 2483 486 
C 2483 198 2413 198 1984 198 
L 1984 0 
L 2707 19 
L 3424 0 
L 3424 198 
C 2995 198 2925 198 2925 486 
L 2925 1664 
C 2925 2330 3379 2688 3789 2688 
C 4192 2688 4262 2342 4262 1978 
L 4262 486 
C 4262 198 4192 198 3763 198 
L 3763 0 
L 4486 19 
L 5203 0 
z
" transform="scale(0.015625)"/>
      <path id="LatinModernMath-Regular-70" d="M 3334 1382 
C 3334 2195 2714 2829 1997 2829 
C 1498 2829 1229 2547 1101 2406 
L 1101 2829 
L 179 2758 
L 179 2560 
C 634 2560 678 2522 678 2240 
L 678 -755 
C 678 -1043 608 -1043 179 -1043 
L 179 -1242 
L 896 -1222 
L 1619 -1242 
L 1619 -1043 
C 1190 -1043 1120 -1043 1120 -755 
L 1120 320 
L 1120 378 
C 1152 275 1421 -70 1907 -70 
C 2669 -70 3334 557 3334 1382 
z
M 2803 1382 
C 2803 608 2355 70 1882 70 
C 1626 70 1382 198 1210 461 
C 1120 595 1120 602 1120 730 
L 1120 2157 
C 1306 2483 1619 2669 1946 2669 
C 2413 2669 2803 2106 2803 1382 
z
" transform="scale(0.015625)"/>
      <path id="LatinModernMath-Regular-61" d="M 3091 570 
L 3091 928 
L 2931 928 
L 2931 570 
C 2931 198 2771 160 2701 160 
C 2490 160 2464 448 2464 480 
L 2464 1760 
C 2464 2029 2464 2278 2234 2515 
C 1984 2765 1664 2867 1357 2867 
C 832 2867 390 2566 390 2144 
C 390 1952 518 1843 685 1843 
C 864 1843 979 1971 979 2138 
C 979 2214 947 2426 653 2432 
C 826 2656 1139 2726 1344 2726 
C 1658 2726 2022 2477 2022 1907 
L 2022 1670 
C 1696 1651 1248 1632 845 1440 
C 365 1222 205 890 205 608 
C 205 90 826 -70 1229 -70 
C 1651 -70 1946 186 2067 486 
C 2093 230 2266 -38 2566 -38 
C 2701 -38 3091 51 3091 570 
z
M 2022 896 
C 2022 288 1562 70 1274 70 
C 960 70 698 294 698 614 
C 698 966 966 1498 2022 1536 
L 2022 896 
z
" transform="scale(0.015625)"/>
      <path id="LatinModernMath-Regular-20" transform="scale(0.015625)"/>
      <path id="LatinModernMath-Regular-66" d="M 2285 4064 
C 2285 4301 2048 4512 1709 4512 
C 1261 4512 717 4173 717 3494 
L 717 2758 
L 211 2758 
L 211 2560 
L 717 2560 
L 717 486 
C 717 198 646 198 218 198 
L 218 0 
L 947 19 
C 1203 19 1504 19 1760 0 
L 1760 198 
L 1626 198 
C 1152 198 1139 269 1139 499 
L 1139 2560 
L 1869 2560 
L 1869 2758 
L 1120 2758 
L 1120 3501 
C 1120 4064 1427 4371 1709 4371 
C 1728 4371 1824 4371 1920 4326 
C 1843 4301 1728 4218 1728 4058 
C 1728 3910 1830 3782 2003 3782 
C 2189 3782 2285 3910 2285 4064 
z
" transform="scale(0.015625)"/>
      <path id="LatinModernMath-Regular-77" d="M 4499 2560 
L 4499 2758 
C 4358 2746 4173 2739 4032 2739 
L 3437 2758 
L 3437 2560 
C 3667 2554 3808 2438 3808 2253 
C 3808 2214 3808 2202 3776 2118 
L 3194 480 
L 2560 2266 
C 2534 2342 2528 2355 2528 2387 
C 2528 2560 2778 2560 2906 2560 
L 2906 2758 
L 2240 2739 
C 2048 2739 1862 2746 1670 2758 
L 1670 2560 
C 1907 2560 2010 2547 2074 2464 
C 2106 2426 2176 2234 2221 2112 
L 1670 563 
L 1062 2272 
C 1030 2349 1030 2362 1030 2387 
C 1030 2560 1280 2560 1408 2560 
L 1408 2758 
L 710 2739 
L 115 2758 
L 115 2560 
C 435 2560 512 2541 589 2336 
L 1395 70 
C 1427 -19 1446 -70 1530 -70 
C 1613 -70 1626 -32 1658 58 
L 2304 1869 
L 2957 51 
C 2982 -19 3002 -70 3085 -70 
C 3168 -70 3187 -13 3213 51 
L 3962 2150 
C 4077 2470 4275 2554 4499 2560 
z
" transform="scale(0.015625)"/>
      <path id="LatinModernMath-Regular-68" d="M 3424 0 
L 3424 198 
C 3091 198 2931 198 2925 390 
L 2925 1613 
C 2925 2163 2925 2362 2726 2592 
C 2637 2701 2426 2829 2054 2829 
C 1517 2829 1235 2445 1133 2214 
L 1126 2214 
L 1126 4442 
L 205 4371 
L 205 4173 
C 653 4173 704 4128 704 3814 
L 704 486 
C 704 198 634 198 205 198 
L 205 0 
L 928 19 
L 1645 0 
L 1645 198 
C 1216 198 1146 198 1146 486 
L 1146 1664 
C 1146 2330 1600 2688 2010 2688 
C 2413 2688 2483 2342 2483 1978 
L 2483 486 
C 2483 198 2413 198 1984 198 
L 1984 0 
L 2707 19 
L 3424 0 
z
" transform="scale(0.015625)"/>
      <path id="LatinModernMath-Regular-64" d="M 3373 0 
L 3373 198 
C 2925 198 2874 243 2874 557 
L 2874 4442 
L 1952 4371 
L 1952 4173 
C 2400 4173 2451 4128 2451 3814 
L 2451 2432 
C 2266 2662 1990 2829 1645 2829 
C 890 2829 218 2202 218 1376 
C 218 563 845 -70 1574 -70 
C 1984 -70 2272 147 2432 352 
L 2432 -70 
L 3373 0 
z
M 2432 755 
C 2432 640 2432 627 2362 518 
C 2170 211 1882 70 1606 70 
C 1318 70 1088 237 934 480 
C 768 742 749 1107 749 1370 
C 749 1606 762 1990 947 2278 
C 1082 2477 1325 2688 1670 2688 
C 1894 2688 2163 2592 2362 2304 
C 2432 2195 2432 2182 2432 2067 
L 2432 755 
z
" transform="scale(0.015625)"/>
      <path id="LatinModernMath-Regular-63" d="M 2656 762 
C 2656 826 2592 826 2573 826 
C 2515 826 2502 800 2490 762 
C 2304 166 1888 90 1651 90 
C 1312 90 749 365 749 1395 
C 749 2438 1274 2707 1613 2707 
C 1670 2707 2074 2701 2298 2470 
C 2035 2451 1997 2259 1997 2176 
C 1997 2010 2112 1882 2291 1882 
C 2458 1882 2586 1990 2586 2182 
C 2586 2618 2099 2867 1606 2867 
C 806 2867 218 2176 218 1382 
C 218 563 851 -70 1594 -70 
C 2451 -70 2656 698 2656 762 
z
" transform="scale(0.015625)"/>
      <path id="LatinModernMath-Regular-6c" d="M 1632 0 
L 1632 198 
C 1203 198 1133 198 1133 486 
L 1133 4442 
L 211 4371 
L 211 4173 
C 659 4173 710 4128 710 3814 
L 710 486 
C 710 198 640 198 211 198 
L 211 0 
L 922 19 
L 1632 0 
z
" transform="scale(0.015625)"/>
     </defs>
     <use xlink:href="#LatinModernMath-Regular-43"/>
     <use xlink:href="#LatinModernMath-Regular-6f" x="72.199982"/>
     <use xlink:href="#LatinModernMath-Regular-6d" x="122.199966"/>
     <use xlink:href="#LatinModernMath-Regular-70" x="205.499954"/>
     <use xlink:href="#LatinModernMath-Regular-61" x="261.099945"/>
     <use xlink:href="#LatinModernMath-Regular-72" x="311.09993"/>
     <use xlink:href="#LatinModernMath-Regular-69" x="350.299927"/>
     <use xlink:href="#LatinModernMath-Regular-73" x="378.099915"/>
     <use xlink:href="#LatinModernMath-Regular-6f" x="417.499908"/>
     <use xlink:href="#LatinModernMath-Regular-6e" x="467.499893"/>
     <use xlink:href="#LatinModernMath-Regular-20" x="523.099884"/>
     <use xlink:href="#LatinModernMath-Regular-6f" x="556.299881"/>
     <use xlink:href="#LatinModernMath-Regular-66" x="606.299866"/>
     <use xlink:href="#LatinModernMath-Regular-20" x="636.899857"/>
     <use xlink:href="#LatinModernMath-Regular-74" x="670.099854"/>
     <use xlink:href="#LatinModernMath-Regular-77" x="708.999847"/>
     <use xlink:href="#LatinModernMath-Regular-6f" x="781.199829"/>
     <use xlink:href="#LatinModernMath-Regular-20" x="831.199814"/>
     <use xlink:href="#LatinModernMath-Regular-68" x="864.399811"/>
     <use xlink:href="#LatinModernMath-Regular-69" x="919.999802"/>
     <use xlink:href="#LatinModernMath-Regular-73" x="947.799789"/>
     <use xlink:href="#LatinModernMath-Regular-74" x="987.199783"/>
     <use xlink:href="#LatinModernMath-Regular-20" x="1026.099777"/>
     <use xlink:href="#LatinModernMath-Regular-77" x="1059.299774"/>
     <use xlink:href="#LatinModernMath-Regular-69" x="1131.499756"/>
     <use xlink:href="#LatinModernMath-Regular-74" x="1159.299744"/>
     <use xlink:href="#LatinModernMath-Regular-68" x="1198.199738"/>
     <use xlink:href="#LatinModernMath-Regular-20" x="1253.799728"/>
     <use xlink:href="#LatinModernMath-Regular-64" x="1286.999725"/>
     <use xlink:href="#LatinModernMath-Regular-69" x="1342.599716"/>
     <use xlink:href="#LatinModernMath-Regular-66" x="1370.399704"/>
     <use xlink:href="#LatinModernMath-Regular-66" x="1400.999695"/>
     <use xlink:href="#LatinModernMath-Regular-65" x="1431.599686"/>
     <use xlink:href="#LatinModernMath-Regular-72" x="1475.99968"/>
     <use xlink:href="#LatinModernMath-Regular-65" x="1515.199677"/>
     <use xlink:href="#LatinModernMath-Regular-6e" x="1559.59967"/>
     <use xlink:href="#LatinModernMath-Regular-63" x="1615.199661"/>
     <use xlink:href="#LatinModernMath-Regular-65" x="1659.599655"/>
     <use xlink:href="#LatinModernMath-Regular-20" x="1703.999649"/>
     <use xlink:href="#LatinModernMath-Regular-70" x="1737.199646"/>
     <use xlink:href="#LatinModernMath-Regular-6c" x="1792.799637"/>
     <use xlink:href="#LatinModernMath-Regular-6f" x="1820.599625"/>
     <use xlink:href="#LatinModernMath-Regular-74" x="1870.599609"/>
    </g>
   </g>
   <g id="legend_1">
    <g id="patch_9">
     <path d="M 344.02625 39.251634 
L 368.02625 39.251634 
L 368.02625 30.851634 
L 344.02625 30.851634 
L 344.02625 39.251634 
z
" style="fill: none; stroke: #348abd; stroke-linejoin: miter"/>
    </g>
    <g id="text_8">
     <!-- $\mathcal{H}_{1}$ -->
     <g style="fill: #1a1a1a" transform="translate(377.62625 39.251634) scale(0.12 -0.12)">
      <defs>
       <path id="Cmsy10-48" d="M 884 -213 
Q 884 -197 891 -178 
Q 988 66 1117 427 
Q 1247 788 1353 1123 
Q 1459 1459 1550 1778 
L 966 1778 
Q 922 1800 922 1831 
Q 922 1938 1109 2041 
Q 1297 2144 1416 2156 
L 1650 2156 
Q 1759 2572 1842 3003 
Q 1925 3434 1925 3731 
Q 1925 3844 1840 3919 
Q 1756 3994 1644 3994 
Q 1278 3994 1061 3859 
Q 844 3725 684 3397 
Q 622 3291 472 3197 
Q 322 3103 206 3103 
L 166 3103 
Q 122 3125 122 3156 
Q 122 3175 128 3188 
Q 263 3459 470 3679 
Q 678 3900 934 4053 
Q 1191 4206 1487 4289 
Q 1784 4372 2081 4372 
L 2119 4372 
Q 2272 4372 2384 4265 
Q 2497 4159 2497 4006 
Q 2497 3644 2387 3126 
Q 2278 2609 2150 2156 
L 3809 2156 
Q 4078 3084 4459 4078 
Q 4528 4197 4665 4276 
Q 4803 4356 4941 4372 
L 4978 4372 
Q 5025 4350 5025 4319 
Q 5025 4306 5019 4288 
Q 4916 4034 4787 3675 
Q 4659 3316 4582 3078 
Q 4506 2841 4372 2388 
Q 3963 900 3963 319 
Q 3963 216 4036 139 
Q 4109 63 4219 63 
Q 4363 63 4531 103 
Q 4556 156 4572 195 
Q 4588 234 4614 265 
Q 4641 297 4697 341 
Q 4881 475 5056 500 
L 5088 500 
Q 5131 478 5131 434 
Q 5059 178 4837 11 
Q 4616 -156 4328 -234 
Q 4041 -313 3756 -313 
Q 3597 -313 3494 -209 
Q 3391 -106 3391 44 
Q 3391 616 3725 1844 
Q 3603 1784 3519 1778 
L 2041 1778 
Q 1922 1372 1776 942 
Q 1631 513 1447 31 
Q 1384 -78 1242 -162 
Q 1100 -247 959 -263 
L 928 -263 
Q 916 -256 900 -243 
Q 884 -231 884 -213 
z
" transform="scale(0.015625)"/>
       <path id="LatinModernMath-Regular-31" d="M 2682 0 
L 2682 198 
L 2477 198 
C 1901 198 1882 269 1882 506 
L 1882 4096 
C 1882 4250 1882 4262 1734 4262 
C 1338 3853 774 3853 570 3853 
L 570 3654 
C 698 3654 1075 3654 1408 3821 
L 1408 506 
C 1408 275 1389 198 813 198 
L 608 198 
L 608 0 
C 832 19 1389 19 1645 19 
C 1901 19 2458 19 2682 0 
z
" transform="scale(0.015625)"/>
      </defs>
      <use xlink:href="#Cmsy10-48" transform="translate(0 0.6875)"/>
      <use xlink:href="#LatinModernMath-Regular-31" transform="translate(85.177969 -12.240625) scale(0.7)"/>
     </g>
    </g>
    <g id="patch_10">
     <path d="M 344.02625 55.980384 
L 368.02625 55.980384 
L 368.02625 47.580384 
L 344.02625 47.580384 
L 344.02625 55.980384 
z
" style="fill: none; stroke: #e24a33; stroke-linejoin: miter"/>
    </g>
    <g id="text_9">
     <!-- $\mathcal{H}_{2}$ -->
     <g style="fill: #1a1a1a" transform="translate(377.62625 55.980384) scale(0.12 -0.12)">
      <use xlink:href="#Cmsy10-48" transform="translate(0 0.6875)"/>
      <use xlink:href="#LatinModernMath-Regular-32" transform="translate(85.177969 -12.240625) scale(0.7)"/>
     </g>
    </g>
   </g>
  </g>
  <g id="axes_2">
   <g id="patch_11">
    <path d="M 68.38625 297.251634 
L 403.18625 297.251634 
L 403.18625 245.679541 
L 68.38625 245.679541 
z
" style="fill: #ffffff"/>
   </g>
   <g id="LineCollection_1">
    <path d="M 71.73425 272.892206 
L 71.73425 272.745279 
" clip-path="url(#pa1d5f1a6f2)" style="fill: none; stroke: #000000; stroke-width: 1.5"/>
    <path d="M 78.43025 272.945985 
L 78.43025 272.691499 
" clip-path="url(#pa1d5f1a6f2)" style="fill: none; stroke: #000000; stroke-width: 1.5"/>
    <path d="M 85.12625 272.945985 
L 85.12625 272.691499 
" clip-path="url(#pa1d5f1a6f2)" style="fill: none; stroke: #000000; stroke-width: 1.5"/>
    <path d="M 91.82225 273.167082 
L 91.82225 272.61733 
" clip-path="url(#pa1d5f1a6f2)" style="fill: none; stroke: #000000; stroke-width: 1.5"/>
    <path d="M 98.51825 273.350814 
L 98.51825 272.727453 
" clip-path="url(#pa1d5f1a6f2)" style="fill: none; stroke: #000000; stroke-width: 1.5"/>
    <path d="M 105.21425 273.614425 
L 105.21425 272.757697 
" clip-path="url(#pa1d5f1a6f2)" style="fill: none; stroke: #000000; stroke-width: 1.5"/>
    <path d="M 111.91025 273.647421 
L 111.91025 272.577773 
" clip-path="url(#pa1d5f1a6f2)" style="fill: none; stroke: #000000; stroke-width: 1.5"/>
    <path d="M 118.60625 272.854507 
L 118.60625 271.46063 
" clip-path="url(#pa1d5f1a6f2)" style="fill: none; stroke: #000000; stroke-width: 1.5"/>
    <path d="M 125.30225 272.187665 
L 125.30225 270.364343 
" clip-path="url(#pa1d5f1a6f2)" style="fill: none; stroke: #000000; stroke-width: 1.5"/>
    <path d="M 131.99825 269.92889 
L 131.99825 267.77451 
" clip-path="url(#pa1d5f1a6f2)" style="fill: none; stroke: #000000; stroke-width: 1.5"/>
    <path d="M 138.69425 267.647868 
L 138.69425 265.206925 
" clip-path="url(#pa1d5f1a6f2)" style="fill: none; stroke: #000000; stroke-width: 1.5"/>
    <path d="M 145.39025 266.205071 
L 145.39025 263.417317 
" clip-path="url(#pa1d5f1a6f2)" style="fill: none; stroke: #000000; stroke-width: 1.5"/>
    <path d="M 152.08625 263.012556 
L 152.08625 259.70424 
" clip-path="url(#pa1d5f1a6f2)" style="fill: none; stroke: #000000; stroke-width: 1.5"/>
    <path d="M 158.78225 257.147304 
L 158.78225 253.521438 
" clip-path="url(#pa1d5f1a6f2)" style="fill: none; stroke: #000000; stroke-width: 1.5"/>
    <path d="M 165.47825 254.493346 
L 165.47825 250.592151 
" clip-path="url(#pa1d5f1a6f2)" style="fill: none; stroke: #000000; stroke-width: 1.5"/>
    <path d="M 172.17425 252.066236 
L 172.17425 248.023727 
" clip-path="url(#pa1d5f1a6f2)" style="fill: none; stroke: #000000; stroke-width: 1.5"/>
    <path d="M 178.87025 252.352065 
L 178.87025 248.325608 
" clip-path="url(#pa1d5f1a6f2)" style="fill: none; stroke: #000000; stroke-width: 1.5"/>
    <path d="M 185.56625 255.739423 
L 185.56625 251.696914 
" clip-path="url(#pa1d5f1a6f2)" style="fill: none; stroke: #000000; stroke-width: 1.5"/>
    <path d="M 192.26225 263.069713 
L 192.26225 259.059373 
" clip-path="url(#pa1d5f1a6f2)" style="fill: none; stroke: #000000; stroke-width: 1.5"/>
    <path d="M 198.95825 263.483592 
L 198.95825 259.380131 
" clip-path="url(#pa1d5f1a6f2)" style="fill: none; stroke: #000000; stroke-width: 1.5"/>
    <path d="M 205.65425 269.801656 
L 205.65425 265.550904 
" clip-path="url(#pa1d5f1a6f2)" style="fill: none; stroke: #000000; stroke-width: 1.5"/>
    <path d="M 212.35025 277.762743 
L 212.35025 273.311058 
" clip-path="url(#pa1d5f1a6f2)" style="fill: none; stroke: #000000; stroke-width: 1.5"/>
    <path d="M 219.04625 280.117573 
L 219.04625 275.510981 
" clip-path="url(#pa1d5f1a6f2)" style="fill: none; stroke: #000000; stroke-width: 1.5"/>
    <path d="M 225.74225 288.657569 
L 225.74225 283.720718 
" clip-path="url(#pa1d5f1a6f2)" style="fill: none; stroke: #000000; stroke-width: 1.5"/>
    <path d="M 232.43825 291.957858 
L 232.43825 286.738312 
" clip-path="url(#pa1d5f1a6f2)" style="fill: none; stroke: #000000; stroke-width: 1.5"/>
    <path d="M 239.13425 293.218733 
L 239.13425 287.828276 
" clip-path="url(#pa1d5f1a6f2)" style="fill: none; stroke: #000000; stroke-width: 1.5"/>
    <path d="M 245.83025 292.781953 
L 245.83025 287.383492 
" clip-path="url(#pa1d5f1a6f2)" style="fill: none; stroke: #000000; stroke-width: 1.5"/>
    <path d="M 252.52625 290.790697 
L 252.52625 285.554633 
" clip-path="url(#pa1d5f1a6f2)" style="fill: none; stroke: #000000; stroke-width: 1.5"/>
    <path d="M 259.22225 290.978938 
L 259.22225 285.807174 
" clip-path="url(#pa1d5f1a6f2)" style="fill: none; stroke: #000000; stroke-width: 1.5"/>
    <path d="M 265.91825 294.907448 
L 265.91825 289.959677 
" clip-path="url(#pa1d5f1a6f2)" style="fill: none; stroke: #000000; stroke-width: 1.5"/>
    <path d="M 272.61425 288.615816 
L 272.61425 284.056327 
" clip-path="url(#pa1d5f1a6f2)" style="fill: none; stroke: #000000; stroke-width: 1.5"/>
    <path d="M 279.31025 285.383665 
L 279.31025 281.264451 
" clip-path="url(#pa1d5f1a6f2)" style="fill: none; stroke: #000000; stroke-width: 1.5"/>
    <path d="M 286.00625 278.063822 
L 286.00625 274.332327 
" clip-path="url(#pa1d5f1a6f2)" style="fill: none; stroke: #000000; stroke-width: 1.5"/>
    <path d="M 292.70225 280.276593 
L 292.70225 277.115091 
" clip-path="url(#pa1d5f1a6f2)" style="fill: none; stroke: #000000; stroke-width: 1.5"/>
    <path d="M 299.39825 276.692852 
L 299.39825 273.940167 
" clip-path="url(#pa1d5f1a6f2)" style="fill: none; stroke: #000000; stroke-width: 1.5"/>
    <path d="M 306.09425 276.797208 
L 306.09425 274.423521 
" clip-path="url(#pa1d5f1a6f2)" style="fill: none; stroke: #000000; stroke-width: 1.5"/>
    <path d="M 312.79025 273.626843 
L 312.79025 271.716786 
" clip-path="url(#pa1d5f1a6f2)" style="fill: none; stroke: #000000; stroke-width: 1.5"/>
    <path d="M 319.48625 273.585726 
L 319.48625 272.051758 
" clip-path="url(#pa1d5f1a6f2)" style="fill: none; stroke: #000000; stroke-width: 1.5"/>
    <path d="M 326.18225 272.625283 
L 326.18225 271.395999 
" clip-path="url(#pa1d5f1a6f2)" style="fill: none; stroke: #000000; stroke-width: 1.5"/>
    <path d="M 332.87825 273.25425 
L 332.87825 272.236307 
" clip-path="url(#pa1d5f1a6f2)" style="fill: none; stroke: #000000; stroke-width: 1.5"/>
    <path d="M 339.57425 272.436425 
L 339.57425 271.731785 
" clip-path="url(#pa1d5f1a6f2)" style="fill: none; stroke: #000000; stroke-width: 1.5"/>
    <path d="M 346.27025 272.502144 
L 346.27025 271.812993 
" clip-path="url(#pa1d5f1a6f2)" style="fill: none; stroke: #000000; stroke-width: 1.5"/>
    <path d="M 352.96625 272.799058 
L 352.96625 272.544572 
" clip-path="url(#pa1d5f1a6f2)" style="fill: none; stroke: #000000; stroke-width: 1.5"/>
    <path d="M 359.66225 272.892206 
L 359.66225 272.598351 
" clip-path="url(#pa1d5f1a6f2)" style="fill: none; stroke: #000000; stroke-width: 1.5"/>
    <path d="M 366.35825 272.799058 
L 366.35825 272.544572 
" clip-path="url(#pa1d5f1a6f2)" style="fill: none; stroke: #000000; stroke-width: 1.5"/>
    <path d="M 373.05425 272.849172 
L 373.05425 272.641385 
" clip-path="url(#pa1d5f1a6f2)" style="fill: none; stroke: #000000; stroke-width: 1.5"/>
    <path d="M 379.75025 272.745279 
L 379.75025 272.745279 
" clip-path="url(#pa1d5f1a6f2)" style="fill: none; stroke: #000000; stroke-width: 1.5"/>
    <path d="M 386.44625 272.745279 
L 386.44625 272.745279 
" clip-path="url(#pa1d5f1a6f2)" style="fill: none; stroke: #000000; stroke-width: 1.5"/>
    <path d="M 393.14225 272.745279 
L 393.14225 272.745279 
" clip-path="url(#pa1d5f1a6f2)" style="fill: none; stroke: #000000; stroke-width: 1.5"/>
    <path d="M 399.83825 272.702244 
L 399.83825 272.494458 
" clip-path="url(#pa1d5f1a6f2)" style="fill: none; stroke: #000000; stroke-width: 1.5"/>
   </g>
   <g id="line2d_38">
    <path d="M 68.38625 272.745279 
L 403.18625 272.745279 
" clip-path="url(#pa1d5f1a6f2)" style="fill: none; stroke-dasharray: 3.7,1.6; stroke-dashoffset: 0; stroke: #000000"/>
   </g>
   <g id="line2d_39">
    <defs>
     <path id="meae5c0c399" d="M 0 1.5 
C 0.397805 1.5 0.77937 1.341951 1.06066 1.06066 
C 1.341951 0.77937 1.5 0.397805 1.5 0 
C 1.5 -0.397805 1.341951 -0.77937 1.06066 -1.06066 
C 0.77937 -1.341951 0.397805 -1.5 0 -1.5 
C -0.397805 -1.5 -0.77937 -1.341951 -1.06066 -1.06066 
C -1.341951 -0.77937 -1.5 -0.397805 -1.5 0 
C -1.5 0.397805 -1.341951 0.77937 -1.06066 1.06066 
C -0.77937 1.341951 -0.397805 1.5 0 1.5 
z
" style="stroke: #000000"/>
    </defs>
    <g clip-path="url(#pa1d5f1a6f2)">
     <use xlink:href="#meae5c0c399" x="71.73425" y="272.818742" style="stroke: #000000"/>
     <use xlink:href="#meae5c0c399" x="78.43025" y="272.818742" style="stroke: #000000"/>
     <use xlink:href="#meae5c0c399" x="85.12625" y="272.818742" style="stroke: #000000"/>
     <use xlink:href="#meae5c0c399" x="91.82225" y="272.892206" style="stroke: #000000"/>
     <use xlink:href="#meae5c0c399" x="98.51825" y="273.039133" style="stroke: #000000"/>
     <use xlink:href="#meae5c0c399" x="105.21425" y="273.186061" style="stroke: #000000"/>
     <use xlink:href="#meae5c0c399" x="111.91025" y="273.112597" style="stroke: #000000"/>
     <use xlink:href="#meae5c0c399" x="118.60625" y="272.157569" style="stroke: #000000"/>
     <use xlink:href="#meae5c0c399" x="125.30225" y="271.276004" style="stroke: #000000"/>
     <use xlink:href="#meae5c0c399" x="131.99825" y="268.8517" style="stroke: #000000"/>
     <use xlink:href="#meae5c0c399" x="138.69425" y="266.427396" style="stroke: #000000"/>
     <use xlink:href="#meae5c0c399" x="145.39025" y="264.811194" style="stroke: #000000"/>
     <use xlink:href="#meae5c0c399" x="152.08625" y="261.358398" style="stroke: #000000"/>
     <use xlink:href="#meae5c0c399" x="158.78225" y="255.334371" style="stroke: #000000"/>
     <use xlink:href="#meae5c0c399" x="165.47825" y="252.542749" style="stroke: #000000"/>
     <use xlink:href="#meae5c0c399" x="172.17425" y="250.044981" style="stroke: #000000"/>
     <use xlink:href="#meae5c0c399" x="178.87025" y="250.338836" style="stroke: #000000"/>
     <use xlink:href="#meae5c0c399" x="185.56625" y="253.718169" style="stroke: #000000"/>
     <use xlink:href="#meae5c0c399" x="192.26225" y="261.064543" style="stroke: #000000"/>
     <use xlink:href="#meae5c0c399" x="198.95825" y="261.431862" style="stroke: #000000"/>
     <use xlink:href="#meae5c0c399" x="205.65425" y="267.67628" style="stroke: #000000"/>
     <use xlink:href="#meae5c0c399" x="212.35025" y="275.536901" style="stroke: #000000"/>
     <use xlink:href="#meae5c0c399" x="219.04625" y="277.814277" style="stroke: #000000"/>
     <use xlink:href="#meae5c0c399" x="225.74225" y="286.189144" style="stroke: #000000"/>
     <use xlink:href="#meae5c0c399" x="232.43825" y="289.348085" style="stroke: #000000"/>
     <use xlink:href="#meae5c0c399" x="239.13425" y="290.523505" style="stroke: #000000"/>
     <use xlink:href="#meae5c0c399" x="245.83025" y="290.082722" style="stroke: #000000"/>
     <use xlink:href="#meae5c0c399" x="252.52625" y="288.172665" style="stroke: #000000"/>
     <use xlink:href="#meae5c0c399" x="259.22225" y="288.393056" style="stroke: #000000"/>
     <use xlink:href="#meae5c0c399" x="265.91825" y="292.433562" style="stroke: #000000"/>
     <use xlink:href="#meae5c0c399" x="272.61425" y="286.336071" style="stroke: #000000"/>
     <use xlink:href="#meae5c0c399" x="279.31025" y="283.324058" style="stroke: #000000"/>
     <use xlink:href="#meae5c0c399" x="286.00625" y="276.198075" style="stroke: #000000"/>
     <use xlink:href="#meae5c0c399" x="292.70225" y="278.695842" style="stroke: #000000"/>
     <use xlink:href="#meae5c0c399" x="299.39825" y="275.31651" style="stroke: #000000"/>
     <use xlink:href="#meae5c0c399" x="306.09425" y="275.610365" style="stroke: #000000"/>
     <use xlink:href="#meae5c0c399" x="312.79025" y="272.671815" style="stroke: #000000"/>
     <use xlink:href="#meae5c0c399" x="319.48625" y="272.818742" style="stroke: #000000"/>
     <use xlink:href="#meae5c0c399" x="326.18225" y="272.010641" style="stroke: #000000"/>
     <use xlink:href="#meae5c0c399" x="332.87825" y="272.745279" style="stroke: #000000"/>
     <use xlink:href="#meae5c0c399" x="339.57425" y="272.084105" style="stroke: #000000"/>
     <use xlink:href="#meae5c0c399" x="346.27025" y="272.157569" style="stroke: #000000"/>
     <use xlink:href="#meae5c0c399" x="352.96625" y="272.671815" style="stroke: #000000"/>
     <use xlink:href="#meae5c0c399" x="359.66225" y="272.745279" style="stroke: #000000"/>
     <use xlink:href="#meae5c0c399" x="366.35825" y="272.671815" style="stroke: #000000"/>
     <use xlink:href="#meae5c0c399" x="373.05425" y="272.745279" style="stroke: #000000"/>
     <use xlink:href="#meae5c0c399" x="379.75025" y="272.745279" style="stroke: #000000"/>
     <use xlink:href="#meae5c0c399" x="386.44625" y="272.745279" style="stroke: #000000"/>
     <use xlink:href="#meae5c0c399" x="393.14225" y="272.745279" style="stroke: #000000"/>
     <use xlink:href="#meae5c0c399" x="399.83825" y="272.598351" style="stroke: #000000"/>
    </g>
   </g>
   <g id="patch_12">
    <path d="M 68.38625 297.251634 
L 68.38625 245.679541 
" style="fill: none; stroke: #000000; stroke-linejoin: miter; stroke-linecap: square"/>
   </g>
   <g id="patch_13">
    <path d="M 403.18625 297.251634 
L 403.18625 245.679541 
" style="fill: none; stroke: #000000; stroke-linejoin: miter; stroke-linecap: square"/>
   </g>
   <g id="patch_14">
    <path d="M 68.38625 297.251634 
L 403.18625 297.251634 
" style="fill: none; stroke: #000000; stroke-linejoin: miter; stroke-linecap: square"/>
   </g>
   <g id="patch_15">
    <path d="M 68.38625 245.679541 
L 403.18625 245.679541 
" style="fill: none; stroke: #000000; stroke-linejoin: miter; stroke-linecap: square"/>
   </g>
   <g id="matplotlib.axis_3">
    <g id="xtick_21">
     <g id="line2d_40">
      <g>
       <use xlink:href="#m8dec1b3d1d" x="117.956277" y="297.251634" style="fill: #1a1a1a; stroke: #1a1a1a; stroke-width: 0.8"/>
      </g>
     </g>
     <g id="text_10">
      <!-- $\mathdefault{−5}$ -->
      <g style="fill: #1a1a1a" transform="translate(108.356277 315.662571) scale(0.15 -0.15)">
       <defs>
        <path id="LatinModernMath-Regular-2212" d="M 4621 1600 
C 4621 1670 4563 1728 4493 1728 
L 486 1728 
C 416 1728 358 1670 358 1600 
C 358 1530 416 1472 486 1472 
L 4493 1472 
C 4563 1472 4621 1530 4621 1600 
z
" transform="scale(0.015625)"/>
        <path id="LatinModernMath-Regular-35" d="M 2874 1286 
C 2874 2048 2349 2688 1658 2688 
C 1350 2688 1075 2586 845 2362 
L 845 3610 
C 973 3571 1184 3526 1389 3526 
C 2176 3526 2624 4109 2624 4192 
C 2624 4230 2605 4262 2560 4262 
C 2560 4262 2541 4262 2509 4243 
C 2381 4186 2067 4058 1638 4058 
C 1382 4058 1088 4102 787 4237 
C 736 4256 710 4256 710 4256 
C 646 4256 646 4205 646 4102 
L 646 2208 
C 646 2093 646 2042 736 2042 
C 781 2042 794 2061 819 2099 
C 890 2202 1126 2547 1645 2547 
C 1978 2547 2138 2253 2189 2138 
C 2291 1901 2304 1651 2304 1331 
C 2304 1107 2304 723 2150 454 
C 1997 205 1760 38 1466 38 
C 998 38 634 378 525 755 
C 544 749 563 742 634 742 
C 845 742 954 902 954 1056 
C 954 1210 845 1370 634 1370 
C 544 1370 320 1325 320 1030 
C 320 480 762 -141 1478 -141 
C 2221 -141 2874 474 2874 1286 
z
" transform="scale(0.015625)"/>
       </defs>
       <use xlink:href="#LatinModernMath-Regular-2212" transform="translate(0 0.40625)"/>
       <use xlink:href="#LatinModernMath-Regular-35" transform="translate(77.799988 0.40625)"/>
      </g>
     </g>
    </g>
    <g id="xtick_22">
     <g id="line2d_41">
      <g>
       <use xlink:href="#m8dec1b3d1d" x="211.042885" y="297.251634" style="fill: #1a1a1a; stroke: #1a1a1a; stroke-width: 0.8"/>
      </g>
     </g>
     <g id="text_11">
      <!-- $\mathdefault{0}$ -->
      <g style="fill: #1a1a1a" transform="translate(207.292885 315.662571) scale(0.15 -0.15)">
       <use xlink:href="#LatinModernMath-Regular-30" transform="translate(0 0.40625)"/>
      </g>
     </g>
    </g>
    <g id="xtick_23">
     <g id="line2d_42">
      <g>
       <use xlink:href="#m8dec1b3d1d" x="304.129492" y="297.251634" style="fill: #1a1a1a; stroke: #1a1a1a; stroke-width: 0.8"/>
      </g>
     </g>
     <g id="text_12">
      <!-- $\mathdefault{5}$ -->
      <g style="fill: #1a1a1a" transform="translate(300.379492 315.662571) scale(0.15 -0.15)">
       <use xlink:href="#LatinModernMath-Regular-35" transform="translate(0 0.40625)"/>
      </g>
     </g>
    </g>
    <g id="xtick_24">
     <g id="line2d_43">
      <g>
       <use xlink:href="#m8dec1b3d1d" x="397.216099" y="297.251634" style="fill: #1a1a1a; stroke: #1a1a1a; stroke-width: 0.8"/>
      </g>
     </g>
     <g id="text_13">
      <!-- $\mathdefault{10}$ -->
      <g style="fill: #1a1a1a" transform="translate(389.716099 315.662571) scale(0.15 -0.15)">
       <use xlink:href="#LatinModernMath-Regular-31" transform="translate(0 0.40625)"/>
       <use xlink:href="#LatinModernMath-Regular-30" transform="translate(49.999985 0.40625)"/>
      </g>
     </g>
    </g>
    <g id="xtick_25">
     <g id="line2d_44">
      <g>
       <use xlink:href="#m131efc0c90" x="80.721634" y="297.251634" style="fill: #1a1a1a; stroke: #1a1a1a; stroke-width: 0.6"/>
      </g>
     </g>
    </g>
    <g id="xtick_26">
     <g id="line2d_45">
      <g>
       <use xlink:href="#m131efc0c90" x="99.338956" y="297.251634" style="fill: #1a1a1a; stroke: #1a1a1a; stroke-width: 0.6"/>
      </g>
     </g>
    </g>
    <g id="xtick_27">
     <g id="line2d_46">
      <g>
       <use xlink:href="#m131efc0c90" x="136.573599" y="297.251634" style="fill: #1a1a1a; stroke: #1a1a1a; stroke-width: 0.6"/>
      </g>
     </g>
    </g>
    <g id="xtick_28">
     <g id="line2d_47">
      <g>
       <use xlink:href="#m131efc0c90" x="155.19092" y="297.251634" style="fill: #1a1a1a; stroke: #1a1a1a; stroke-width: 0.6"/>
      </g>
     </g>
    </g>
    <g id="xtick_29">
     <g id="line2d_48">
      <g>
       <use xlink:href="#m131efc0c90" x="173.808242" y="297.251634" style="fill: #1a1a1a; stroke: #1a1a1a; stroke-width: 0.6"/>
      </g>
     </g>
    </g>
    <g id="xtick_30">
     <g id="line2d_49">
      <g>
       <use xlink:href="#m131efc0c90" x="192.425563" y="297.251634" style="fill: #1a1a1a; stroke: #1a1a1a; stroke-width: 0.6"/>
      </g>
     </g>
    </g>
    <g id="xtick_31">
     <g id="line2d_50">
      <g>
       <use xlink:href="#m131efc0c90" x="229.660206" y="297.251634" style="fill: #1a1a1a; stroke: #1a1a1a; stroke-width: 0.6"/>
      </g>
     </g>
    </g>
    <g id="xtick_32">
     <g id="line2d_51">
      <g>
       <use xlink:href="#m131efc0c90" x="248.277527" y="297.251634" style="fill: #1a1a1a; stroke: #1a1a1a; stroke-width: 0.6"/>
      </g>
     </g>
    </g>
    <g id="xtick_33">
     <g id="line2d_52">
      <g>
       <use xlink:href="#m131efc0c90" x="266.894849" y="297.251634" style="fill: #1a1a1a; stroke: #1a1a1a; stroke-width: 0.6"/>
      </g>
     </g>
    </g>
    <g id="xtick_34">
     <g id="line2d_53">
      <g>
       <use xlink:href="#m131efc0c90" x="285.51217" y="297.251634" style="fill: #1a1a1a; stroke: #1a1a1a; stroke-width: 0.6"/>
      </g>
     </g>
    </g>
    <g id="xtick_35">
     <g id="line2d_54">
      <g>
       <use xlink:href="#m131efc0c90" x="322.746813" y="297.251634" style="fill: #1a1a1a; stroke: #1a1a1a; stroke-width: 0.6"/>
      </g>
     </g>
    </g>
    <g id="xtick_36">
     <g id="line2d_55">
      <g>
       <use xlink:href="#m131efc0c90" x="341.364135" y="297.251634" style="fill: #1a1a1a; stroke: #1a1a1a; stroke-width: 0.6"/>
      </g>
     </g>
    </g>
    <g id="xtick_37">
     <g id="line2d_56">
      <g>
       <use xlink:href="#m131efc0c90" x="359.981456" y="297.251634" style="fill: #1a1a1a; stroke: #1a1a1a; stroke-width: 0.6"/>
      </g>
     </g>
    </g>
    <g id="xtick_38">
     <g id="line2d_57">
      <g>
       <use xlink:href="#m131efc0c90" x="378.598778" y="297.251634" style="fill: #1a1a1a; stroke: #1a1a1a; stroke-width: 0.6"/>
      </g>
     </g>
    </g>
    <g id="text_14">
     <!-- variable_1 -->
     <g style="fill: #1a1a1a" transform="translate(197.006094 337.066634) scale(0.18 -0.18)">
      <defs>
       <path id="LatinModernMath-Regular-76" d="M 3251 2560 
L 3251 2758 
C 3104 2746 2918 2739 2771 2739 
L 2214 2758 
L 2214 2560 
C 2451 2554 2522 2406 2522 2285 
C 2522 2227 2509 2202 2483 2131 
L 1830 499 
L 1114 2285 
C 1075 2368 1075 2394 1075 2394 
C 1075 2560 1325 2560 1440 2560 
L 1440 2758 
L 742 2739 
C 570 2739 314 2746 122 2758 
L 122 2560 
C 525 2560 550 2522 634 2323 
L 1555 51 
C 1594 -38 1606 -70 1690 -70 
C 1773 -70 1798 -13 1824 51 
L 2662 2131 
C 2720 2278 2829 2554 3251 2560 
z
" transform="scale(0.015625)"/>
       <path id="LatinModernMath-Regular-62" d="M 3334 1382 
C 3334 2195 2707 2829 1978 2829 
C 1478 2829 1203 2528 1101 2413 
L 1101 4442 
L 179 4371 
L 179 4173 
C 627 4173 678 4128 678 3814 
L 678 0 
L 838 0 
L 1069 397 
C 1165 250 1434 -70 1907 -70 
C 2669 -70 3334 557 3334 1382 
z
M 2803 1389 
C 2803 1152 2790 768 2605 480 
C 2470 282 2227 70 1882 70 
C 1594 70 1363 224 1210 461 
C 1120 595 1120 614 1120 730 
L 1120 2048 
C 1120 2170 1120 2176 1190 2278 
C 1440 2637 1792 2688 1946 2688 
C 2234 2688 2464 2522 2618 2278 
C 2784 2016 2803 1651 2803 1389 
z
" transform="scale(0.015625)"/>
       <path id="LatinModernMath-Regular-5f" d="M 2131 -896 
L 2131 -640 
L 0 -640 
L 0 -896 
L 2131 -896 
z
" transform="scale(0.015625)"/>
      </defs>
      <use xlink:href="#LatinModernMath-Regular-76"/>
      <use xlink:href="#LatinModernMath-Regular-61" x="52.799988"/>
      <use xlink:href="#LatinModernMath-Regular-72" x="102.799973"/>
      <use xlink:href="#LatinModernMath-Regular-69" x="141.999969"/>
      <use xlink:href="#LatinModernMath-Regular-61" x="169.799957"/>
      <use xlink:href="#LatinModernMath-Regular-62" x="219.799942"/>
      <use xlink:href="#LatinModernMath-Regular-6c" x="275.399933"/>
      <use xlink:href="#LatinModernMath-Regular-65" x="303.199921"/>
      <use xlink:href="#LatinModernMath-Regular-5f" x="347.599915"/>
      <use xlink:href="#LatinModernMath-Regular-31" x="380.899902"/>
     </g>
    </g>
   </g>
   <g id="matplotlib.axis_4">
    <g id="ytick_18">
     <g id="line2d_58">
      <g>
       <use xlink:href="#mc947610920" x="68.38625" y="291.111215" style="fill: #1a1a1a; stroke: #1a1a1a; stroke-width: 0.8"/>
      </g>
     </g>
     <g id="text_15">
      <!-- $\mathdefault{−250}$ -->
      <g style="fill: #1a1a1a" transform="translate(29.18625 296.316684) scale(0.15 -0.15)">
       <use xlink:href="#LatinModernMath-Regular-2212" transform="translate(0 0.40625)"/>
       <use xlink:href="#LatinModernMath-Regular-32" transform="translate(77.799988 0.40625)"/>
       <use xlink:href="#LatinModernMath-Regular-35" transform="translate(127.799973 0.40625)"/>
       <use xlink:href="#LatinModernMath-Regular-30" transform="translate(177.799957 0.40625)"/>
      </g>
     </g>
    </g>
    <g id="ytick_19">
     <g id="line2d_59">
      <g>
       <use xlink:href="#mc947610920" x="68.38625" y="272.745279" style="fill: #1a1a1a; stroke: #1a1a1a; stroke-width: 0.8"/>
      </g>
     </g>
     <g id="text_16">
      <!-- $\mathdefault{0}$ -->
      <g style="fill: #1a1a1a" transform="translate(55.88625 277.950747) scale(0.15 -0.15)">
       <use xlink:href="#LatinModernMath-Regular-30" transform="translate(0 0.40625)"/>
      </g>
     </g>
    </g>
    <g id="ytick_20">
     <g id="line2d_60">
      <g>
       <use xlink:href="#mc947610920" x="68.38625" y="254.379342" style="fill: #1a1a1a; stroke: #1a1a1a; stroke-width: 0.8"/>
      </g>
     </g>
     <g id="text_17">
      <!-- $\mathdefault{250}$ -->
      <g style="fill: #1a1a1a" transform="translate(40.88625 259.584811) scale(0.15 -0.15)">
       <use xlink:href="#LatinModernMath-Regular-32" transform="translate(0 0.40625)"/>
       <use xlink:href="#LatinModernMath-Regular-35" transform="translate(49.999985 0.40625)"/>
       <use xlink:href="#LatinModernMath-Regular-30" transform="translate(99.999969 0.40625)"/>
      </g>
     </g>
    </g>
    <g id="ytick_21">
     <g id="line2d_61">
      <g>
       <use xlink:href="#m5f9d1e6504" x="68.38625" y="294.784402" style="fill: #1a1a1a; stroke: #1a1a1a; stroke-width: 0.6"/>
      </g>
     </g>
    </g>
    <g id="ytick_22">
     <g id="line2d_62">
      <g>
       <use xlink:href="#m5f9d1e6504" x="68.38625" y="287.438028" style="fill: #1a1a1a; stroke: #1a1a1a; stroke-width: 0.6"/>
      </g>
     </g>
    </g>
    <g id="ytick_23">
     <g id="line2d_63">
      <g>
       <use xlink:href="#m5f9d1e6504" x="68.38625" y="283.76484" style="fill: #1a1a1a; stroke: #1a1a1a; stroke-width: 0.6"/>
      </g>
     </g>
    </g>
    <g id="ytick_24">
     <g id="line2d_64">
      <g>
       <use xlink:href="#m5f9d1e6504" x="68.38625" y="280.091653" style="fill: #1a1a1a; stroke: #1a1a1a; stroke-width: 0.6"/>
      </g>
     </g>
    </g>
    <g id="ytick_25">
     <g id="line2d_65">
      <g>
       <use xlink:href="#m5f9d1e6504" x="68.38625" y="276.418466" style="fill: #1a1a1a; stroke: #1a1a1a; stroke-width: 0.6"/>
      </g>
     </g>
    </g>
    <g id="ytick_26">
     <g id="line2d_66">
      <g>
       <use xlink:href="#m5f9d1e6504" x="68.38625" y="269.072091" style="fill: #1a1a1a; stroke: #1a1a1a; stroke-width: 0.6"/>
      </g>
     </g>
    </g>
    <g id="ytick_27">
     <g id="line2d_67">
      <g>
       <use xlink:href="#m5f9d1e6504" x="68.38625" y="265.398904" style="fill: #1a1a1a; stroke: #1a1a1a; stroke-width: 0.6"/>
      </g>
     </g>
    </g>
    <g id="ytick_28">
     <g id="line2d_68">
      <g>
       <use xlink:href="#m5f9d1e6504" x="68.38625" y="261.725717" style="fill: #1a1a1a; stroke: #1a1a1a; stroke-width: 0.6"/>
      </g>
     </g>
    </g>
    <g id="ytick_29">
     <g id="line2d_69">
      <g>
       <use xlink:href="#m5f9d1e6504" x="68.38625" y="258.052529" style="fill: #1a1a1a; stroke: #1a1a1a; stroke-width: 0.6"/>
      </g>
     </g>
    </g>
    <g id="ytick_30">
     <g id="line2d_70">
      <g>
       <use xlink:href="#m5f9d1e6504" x="68.38625" y="250.706155" style="fill: #1a1a1a; stroke: #1a1a1a; stroke-width: 0.6"/>
      </g>
     </g>
    </g>
    <g id="ytick_31">
     <g id="line2d_71">
      <g>
       <use xlink:href="#m5f9d1e6504" x="68.38625" y="247.032968" style="fill: #1a1a1a; stroke: #1a1a1a; stroke-width: 0.6"/>
      </g>
     </g>
    </g>
    <g id="text_18">
     <!-- $\mathcal{H}_{1} - \mathcal{H}_{2}$ -->
     <g style="fill: #1a1a1a" transform="translate(19.693125 303.685587) rotate(-90) scale(0.18 -0.18)">
      <use xlink:href="#Cmsy10-48" transform="translate(0 0.6875)"/>
      <use xlink:href="#LatinModernMath-Regular-31" transform="translate(85.177969 -12.240625) scale(0.7)"/>
      <use xlink:href="#LatinModernMath-Regular-2212" transform="translate(139.891239 0.6875)"/>
      <use xlink:href="#Cmsy10-48" transform="translate(235.249821 0.6875)"/>
      <use xlink:href="#LatinModernMath-Regular-32" transform="translate(320.42779 -12.240625) scale(0.7)"/>
     </g>
    </g>
   </g>
   <g id="text_19">
    <!-- Difference ax -->
    <g style="fill: #1a1a1a" transform="translate(334.32875 242.83507) scale(0.12 -0.12)">
     <defs>
      <path id="LatinModernMath-Regular-44" d="M 4525 2150 
C 4525 3366 3661 4371 2566 4371 
L 224 4371 
L 224 4173 
L 378 4173 
C 870 4173 883 4102 883 3872 
L 883 499 
C 883 269 870 198 378 198 
L 224 198 
L 224 0 
L 2566 0 
C 3642 0 4525 947 4525 2150 
z
M 3885 2150 
C 3885 1440 3763 1056 3533 742 
C 3405 570 3040 198 2394 198 
L 1747 198 
C 1446 198 1434 243 1434 454 
L 1434 3917 
C 1434 4128 1446 4173 1747 4173 
L 2387 4173 
C 2784 4173 3226 4032 3552 3578 
C 3827 3200 3885 2650 3885 2150 
z
" transform="scale(0.015625)"/>
      <path id="LatinModernMath-Regular-78" d="M 3302 0 
L 3302 198 
C 2957 198 2842 211 2694 397 
L 1837 1504 
C 2029 1747 2272 2061 2426 2227 
C 2624 2458 2886 2554 3187 2560 
L 3187 2758 
C 3021 2746 2829 2739 2662 2739 
C 2470 2739 2131 2752 2048 2758 
L 2048 2560 
C 2182 2547 2234 2464 2234 2362 
C 2234 2259 2170 2176 2138 2138 
L 1741 1638 
L 1242 2285 
C 1184 2349 1184 2362 1184 2400 
C 1184 2496 1280 2554 1408 2560 
L 1408 2758 
L 717 2739 
C 582 2739 282 2746 109 2758 
L 109 2560 
C 557 2560 563 2554 864 2170 
L 1498 1344 
C 1197 960 1197 947 896 582 
C 589 211 211 198 77 198 
L 77 0 
C 243 13 442 19 608 19 
L 1216 0 
L 1216 198 
C 1075 218 1030 301 1030 397 
C 1030 538 1216 749 1606 1210 
L 2093 570 
C 2144 499 2227 397 2227 358 
C 2227 301 2170 205 1997 198 
L 1997 0 
L 2688 19 
C 2861 19 3110 13 3302 0 
z
" transform="scale(0.015625)"/>
     </defs>
     <use xlink:href="#LatinModernMath-Regular-44"/>
     <use xlink:href="#LatinModernMath-Regular-69" x="76.399994"/>
     <use xlink:href="#LatinModernMath-Regular-66" x="104.199982"/>
     <use xlink:href="#LatinModernMath-Regular-66" x="134.799973"/>
     <use xlink:href="#LatinModernMath-Regular-65" x="165.399963"/>
     <use xlink:href="#LatinModernMath-Regular-72" x="209.799957"/>
     <use xlink:href="#LatinModernMath-Regular-65" x="248.999954"/>
     <use xlink:href="#LatinModernMath-Regular-6e" x="293.399948"/>
     <use xlink:href="#LatinModernMath-Regular-63" x="348.999939"/>
     <use xlink:href="#LatinModernMath-Regular-65" x="393.399933"/>
     <use xlink:href="#LatinModernMath-Regular-20" x="437.799927"/>
     <use xlink:href="#LatinModernMath-Regular-61" x="470.999924"/>
     <use xlink:href="#LatinModernMath-Regular-78" x="520.999908"/>
    </g>
   </g>
  </g>
 </g>
 <defs>
  <clipPath id="p3bd1dfd82c">
   <rect x="68.38625" y="20.051634" width="334.8" height="206.288372"/>
  </clipPath>
  <clipPath id="pa1d5f1a6f2">
   <rect x="68.38625" y="245.679541" width="334.8" height="51.572093"/>
  </clipPath>
 </defs>
</svg>
