<?xml version="1.0" encoding="utf-8" standalone="no"?>
<!DOCTYPE svg PUBLIC "-//W3C//DTD SVG 1.1//EN"
  "http://www.w3.org/Graphics/SVG/1.1/DTD/svg11.dtd">
<svg xmlns:xlink="http://www.w3.org/1999/xlink" width="407.089849pt" height="334.908125pt" viewBox="0 0 407.089849 334.908125" xmlns="http://www.w3.org/2000/svg" version="1.1">
 <metadata>
  <rdf:RDF xmlns:dc="http://purl.org/dc/elements/1.1/" xmlns:cc="http://creativecommons.org/ns#" xmlns:rdf="http://www.w3.org/1999/02/22-rdf-syntax-ns#">
   <cc:Work>
    <dc:creator>
     <cc:Agent>
      <dc:title>カリビアンカフェ</dc:title>
     </cc:Agent>
    </dc:creator>
   </cc:Work>
  </rdf:RDF>
 </metadata>
 <defs>
  <style type="text/css">*{stroke-linejoin: round; stroke-linecap: butt}</style>
 </defs>
 <g id="figure_1">
  <g id="patch_1">
   <path d="M 0 334.908125 
L 407.089849 334.908125 
L 407.089849 0 
L 0 0 
z
" style="fill: #ffffff"/>
  </g>
  <g id="axes_1">
   <g id="patch_2">
    <path d="M 63.56 213.488372 
L 398.36 213.488372 
L 398.36 7.2 
L 63.56 7.2 
z
" style="fill: #ffffff"/>
   </g>
   <g id="patch_3">
    <path d="M 63.56 213.488372 
L 63.56 213.488372 
L 70.256 213.488372 
L 70.256 213.240935 
L 76.952 213.240935 
L 76.952 213.240935 
L 83.648 213.240935 
L 83.648 212.003749 
L 90.344 212.003749 
L 90.344 211.756312 
L 97.04 211.756312 
L 97.04 210.024252 
L 103.736 210.024252 
L 103.736 207.54988 
L 110.432 207.54988 
L 110.432 201.363951 
L 117.128 201.363951 
L 117.128 191.961338 
L 123.824 191.961338 
L 123.824 180.331791 
L 130.52 180.331791 
L 130.52 168.702244 
L 137.216 168.702244 
L 137.216 155.588073 
L 143.912 155.588073 
L 143.912 131.586667 
L 150.608 131.586667 
L 150.608 108.822447 
L 157.304 108.822447 
L 157.304 92.244157 
L 164 92.244157 
L 164 81.604358 
L 170.696 81.604358 
L 170.696 82.841544 
L 177.392 82.841544 
L 177.392 87.790288 
L 184.088 87.790288 
L 184.088 101.646769 
L 190.784 101.646769 
L 190.784 97.935212 
L 197.48 97.935212 
L 197.48 101.399332 
L 204.176 101.399332 
L 204.176 104.616015 
L 210.872 104.616015 
L 210.872 100.409584 
L 217.568 100.409584 
L 217.568 96.450589 
L 224.264 96.450589 
L 224.264 85.315916 
L 230.96 85.315916 
L 230.96 76.903052 
L 237.656 76.903052 
L 237.656 75.665866 
L 244.352 75.665866 
L 244.352 82.34667 
L 251.048 82.34667 
L 251.048 86.553102 
L 257.744 86.553102 
L 257.744 106.348076 
L 264.44 106.348076 
L 264.44 117.235311 
L 271.136 117.235311 
L 271.136 134.061039 
L 277.832 134.061039 
L 277.832 139.504657 
L 284.528 139.504657 
L 284.528 166.227872 
L 291.224 166.227872 
L 291.224 174.393299 
L 297.92 174.393299 
L 297.92 186.022846 
L 304.616 186.022846 
L 304.616 192.456212 
L 311.312 192.456212 
L 311.312 200.126765 
L 318.008 200.126765 
L 318.008 203.590885 
L 324.704 203.590885 
L 324.704 207.54988 
L 331.4 207.54988 
L 331.4 209.529377 
L 338.096 209.529377 
L 338.096 209.776814 
L 344.792 209.776814 
L 344.792 212.993498 
L 351.488 212.993498 
L 351.488 212.993498 
L 358.184 212.993498 
L 358.184 212.993498 
L 364.88 212.993498 
L 364.88 213.240935 
L 371.576 213.240935 
L 371.576 213.488372 
L 378.272 213.488372 
L 378.272 213.488372 
L 384.968 213.488372 
L 384.968 213.488372 
L 391.664 213.488372 
L 391.664 212.993498 
L 398.36 212.993498 
L 398.36 213.488372 
" clip-path="url(#pf20c1ec86f)" style="fill: none; stroke: #348abd; stroke-linejoin: miter"/>
   </g>
   <g id="patch_4">
    <path d="M 63.56 213.488372 
L 63.56 213.240935 
L 70.256 213.240935 
L 70.256 212.993498 
L 76.952 212.993498 
L 76.952 212.993498 
L 83.648 212.993498 
L 83.648 211.508875 
L 90.344 211.508875 
L 90.344 210.766563 
L 97.04 210.766563 
L 97.04 208.539629 
L 103.736 208.539629 
L 103.736 206.312694 
L 110.432 206.312694 
L 110.432 203.343448 
L 117.128 203.343448 
L 117.128 196.910081 
L 123.824 196.910081 
L 123.824 193.445961 
L 130.52 193.445961 
L 130.52 189.981841 
L 137.216 189.981841 
L 137.216 182.311288 
L 143.912 182.311288 
L 143.912 169.939429 
L 150.608 169.939429 
L 150.608 167.465058 
L 157.304 167.465058 
L 157.304 160.28938 
L 164 160.28938 
L 164 158.062445 
L 170.696 158.062445 
L 170.696 158.309882 
L 177.392 158.309882 
L 177.392 151.876516 
L 184.088 151.876516 
L 184.088 140.98928 
L 190.784 140.98928 
L 190.784 136.040537 
L 197.48 136.040537 
L 197.48 118.472497 
L 204.176 118.472497 
L 204.176 95.213403 
L 210.872 95.213403 
L 210.872 83.336418 
L 217.568 83.336418 
L 217.568 51.169586 
L 224.264 51.169586 
L 224.264 29.395115 
L 230.96 29.395115 
L 230.96 17.023256 
L 237.656 17.023256 
L 237.656 17.270693 
L 244.352 17.270693 
L 244.352 30.384863 
L 251.048 30.384863 
L 251.048 33.848984 
L 257.744 33.848984 
L 257.744 40.034913 
L 264.44 40.034913 
L 264.44 71.459434 
L 271.136 71.459434 
L 271.136 98.430086 
L 277.832 98.430086 
L 277.832 127.87511 
L 284.528 127.87511 
L 284.528 146.185461 
L 291.224 146.185461 
L 291.224 165.732997 
L 297.92 165.732997 
L 297.92 176.372796 
L 304.616 176.372796 
L 304.616 192.703649 
L 311.312 192.703649 
L 311.312 199.879328 
L 318.008 199.879328 
L 318.008 206.065257 
L 324.704 206.065257 
L 324.704 207.54988 
L 331.4 207.54988 
L 331.4 211.756312 
L 338.096 211.756312 
L 338.096 211.756312 
L 344.792 211.756312 
L 344.792 213.240935 
L 351.488 213.240935 
L 351.488 212.993498 
L 358.184 212.993498 
L 358.184 213.240935 
L 364.88 213.240935 
L 364.88 213.240935 
L 371.576 213.240935 
L 371.576 213.488372 
L 378.272 213.488372 
L 378.272 213.488372 
L 384.968 213.488372 
L 384.968 213.488372 
L 391.664 213.488372 
L 391.664 213.488372 
L 398.36 213.488372 
L 398.36 213.488372 
" clip-path="url(#pf20c1ec86f)" style="fill: none; stroke: #e24a33; stroke-linejoin: miter"/>
   </g>
   <g id="patch_5">
    <path d="M 63.56 213.488372 
L 63.56 7.2 
" style="fill: none; stroke: #000000; stroke-linejoin: miter; stroke-linecap: square"/>
   </g>
   <g id="patch_6">
    <path d="M 398.36 213.488372 
L 398.36 7.2 
" style="fill: none; stroke: #000000; stroke-linejoin: miter; stroke-linecap: square"/>
   </g>
   <g id="patch_7">
    <path d="M 63.56 213.488372 
L 398.36 213.488372 
" style="fill: none; stroke: #000000; stroke-linejoin: miter; stroke-linecap: square"/>
   </g>
   <g id="patch_8">
    <path d="M 63.56 7.2 
L 398.36 7.2 
" style="fill: none; stroke: #000000; stroke-linejoin: miter; stroke-linecap: square"/>
   </g>
   <g id="matplotlib.axis_1">
    <g id="xtick_1">
     <g id="line2d_1">
      <defs>
       <path id="m8dec1b3d1d" d="M 0 0 
L 0 -6 
" style="stroke: #1a1a1a; stroke-width: 0.8"/>
      </defs>
      <g>
       <use xlink:href="#m8dec1b3d1d" x="113.130027" y="213.488372" style="fill: #1a1a1a; stroke: #1a1a1a; stroke-width: 0.8"/>
      </g>
     </g>
    </g>
    <g id="xtick_2">
     <g id="line2d_2">
      <g>
       <use xlink:href="#m8dec1b3d1d" x="206.216635" y="213.488372" style="fill: #1a1a1a; stroke: #1a1a1a; stroke-width: 0.8"/>
      </g>
     </g>
    </g>
    <g id="xtick_3">
     <g id="line2d_3">
      <g>
       <use xlink:href="#m8dec1b3d1d" x="299.303242" y="213.488372" style="fill: #1a1a1a; stroke: #1a1a1a; stroke-width: 0.8"/>
      </g>
     </g>
    </g>
    <g id="xtick_4">
     <g id="line2d_4">
      <g>
       <use xlink:href="#m8dec1b3d1d" x="392.389849" y="213.488372" style="fill: #1a1a1a; stroke: #1a1a1a; stroke-width: 0.8"/>
      </g>
     </g>
    </g>
    <g id="xtick_5">
     <g id="line2d_5">
      <defs>
       <path id="m131efc0c90" d="M 0 0 
L 0 -3 
" style="stroke: #1a1a1a; stroke-width: 0.6"/>
      </defs>
      <g>
       <use xlink:href="#m131efc0c90" x="75.895384" y="213.488372" style="fill: #1a1a1a; stroke: #1a1a1a; stroke-width: 0.6"/>
      </g>
     </g>
    </g>
    <g id="xtick_6">
     <g id="line2d_6">
      <g>
       <use xlink:href="#m131efc0c90" x="94.512706" y="213.488372" style="fill: #1a1a1a; stroke: #1a1a1a; stroke-width: 0.6"/>
      </g>
     </g>
    </g>
    <g id="xtick_7">
     <g id="line2d_7">
      <g>
       <use xlink:href="#m131efc0c90" x="131.747349" y="213.488372" style="fill: #1a1a1a; stroke: #1a1a1a; stroke-width: 0.6"/>
      </g>
     </g>
    </g>
    <g id="xtick_8">
     <g id="line2d_8">
      <g>
       <use xlink:href="#m131efc0c90" x="150.36467" y="213.488372" style="fill: #1a1a1a; stroke: #1a1a1a; stroke-width: 0.6"/>
      </g>
     </g>
    </g>
    <g id="xtick_9">
     <g id="line2d_9">
      <g>
       <use xlink:href="#m131efc0c90" x="168.981992" y="213.488372" style="fill: #1a1a1a; stroke: #1a1a1a; stroke-width: 0.6"/>
      </g>
     </g>
    </g>
    <g id="xtick_10">
     <g id="line2d_10">
      <g>
       <use xlink:href="#m131efc0c90" x="187.599313" y="213.488372" style="fill: #1a1a1a; stroke: #1a1a1a; stroke-width: 0.6"/>
      </g>
     </g>
    </g>
    <g id="xtick_11">
     <g id="line2d_11">
      <g>
       <use xlink:href="#m131efc0c90" x="224.833956" y="213.488372" style="fill: #1a1a1a; stroke: #1a1a1a; stroke-width: 0.6"/>
      </g>
     </g>
    </g>
    <g id="xtick_12">
     <g id="line2d_12">
      <g>
       <use xlink:href="#m131efc0c90" x="243.451277" y="213.488372" style="fill: #1a1a1a; stroke: #1a1a1a; stroke-width: 0.6"/>
      </g>
     </g>
    </g>
    <g id="xtick_13">
     <g id="line2d_13">
      <g>
       <use xlink:href="#m131efc0c90" x="262.068599" y="213.488372" style="fill: #1a1a1a; stroke: #1a1a1a; stroke-width: 0.6"/>
      </g>
     </g>
    </g>
    <g id="xtick_14">
     <g id="line2d_14">
      <g>
       <use xlink:href="#m131efc0c90" x="280.68592" y="213.488372" style="fill: #1a1a1a; stroke: #1a1a1a; stroke-width: 0.6"/>
      </g>
     </g>
    </g>
    <g id="xtick_15">
     <g id="line2d_15">
      <g>
       <use xlink:href="#m131efc0c90" x="317.920563" y="213.488372" style="fill: #1a1a1a; stroke: #1a1a1a; stroke-width: 0.6"/>
      </g>
     </g>
    </g>
    <g id="xtick_16">
     <g id="line2d_16">
      <g>
       <use xlink:href="#m131efc0c90" x="336.537885" y="213.488372" style="fill: #1a1a1a; stroke: #1a1a1a; stroke-width: 0.6"/>
      </g>
     </g>
    </g>
    <g id="xtick_17">
     <g id="line2d_17">
      <g>
       <use xlink:href="#m131efc0c90" x="355.155206" y="213.488372" style="fill: #1a1a1a; stroke: #1a1a1a; stroke-width: 0.6"/>
      </g>
     </g>
    </g>
    <g id="xtick_18">
     <g id="line2d_18">
      <g>
       <use xlink:href="#m131efc0c90" x="373.772528" y="213.488372" style="fill: #1a1a1a; stroke: #1a1a1a; stroke-width: 0.6"/>
      </g>
     </g>
    </g>
   </g>
   <g id="matplotlib.axis_2">
    <g id="ytick_1">
     <g id="line2d_19">
      <defs>
       <path id="mc947610920" d="M 0 0 
L 6 0 
" style="stroke: #1a1a1a; stroke-width: 0.8"/>
      </defs>
      <g>
       <use xlink:href="#mc947610920" x="63.56" y="213.488372" style="fill: #1a1a1a; stroke: #1a1a1a; stroke-width: 0.8"/>
      </g>
     </g>
     <g id="text_1">
      <!-- $\mathdefault{0}$ -->
      <g style="fill: #1a1a1a" transform="translate(51.06 218.693841) scale(0.15 -0.15)">
       <defs>
        <path id="LatinModernMath-Regular-30" d="M 2944 2048 
C 2944 2560 2912 3072 2688 3546 
C 2394 4160 1869 4262 1600 4262 
C 1216 4262 749 4096 486 3501 
C 282 3059 250 2560 250 2048 
C 250 1568 275 992 538 506 
C 813 -13 1280 -141 1594 -141 
C 1939 -141 2426 -6 2707 602 
C 2912 1043 2944 1542 2944 2048 
z
M 2413 2125 
C 2413 1645 2413 1210 2342 800 
C 2246 192 1882 0 1594 0 
C 1344 0 966 160 851 774 
C 781 1158 781 1747 781 2125 
C 781 2534 781 2957 832 3302 
C 954 4064 1434 4122 1594 4122 
C 1805 4122 2227 4006 2349 3373 
C 2413 3014 2413 2528 2413 2125 
z
" transform="scale(0.015625)"/>
       </defs>
       <use xlink:href="#LatinModernMath-Regular-30" transform="translate(0 0.40625)"/>
      </g>
     </g>
    </g>
    <g id="ytick_2">
     <g id="line2d_20">
      <g>
       <use xlink:href="#mc947610920" x="63.56" y="164.000937" style="fill: #1a1a1a; stroke: #1a1a1a; stroke-width: 0.8"/>
      </g>
     </g>
     <g id="text_2">
      <!-- $\mathdefault{200}$ -->
      <g style="fill: #1a1a1a" transform="translate(36.06 169.206406) scale(0.15 -0.15)">
       <defs>
        <path id="LatinModernMath-Regular-32" d="M 2874 1114 
L 2714 1114 
C 2682 922 2637 640 2573 544 
C 2528 493 2106 493 1965 493 
L 813 493 
L 1491 1152 
C 2490 2035 2874 2381 2874 3021 
C 2874 3750 2298 4262 1517 4262 
C 794 4262 320 3674 320 3104 
C 320 2746 640 2746 659 2746 
C 768 2746 992 2822 992 3085 
C 992 3251 877 3418 653 3418 
C 602 3418 589 3418 570 3411 
C 717 3827 1062 4064 1434 4064 
C 2016 4064 2291 3546 2291 3021 
C 2291 2509 1971 2003 1619 1606 
L 390 237 
C 320 166 320 154 320 0 
L 2694 0 
L 2874 1114 
z
" transform="scale(0.015625)"/>
       </defs>
       <use xlink:href="#LatinModernMath-Regular-32" transform="translate(0 0.40625)"/>
       <use xlink:href="#LatinModernMath-Regular-30" transform="translate(49.999985 0.40625)"/>
       <use xlink:href="#LatinModernMath-Regular-30" transform="translate(99.999969 0.40625)"/>
      </g>
     </g>
    </g>
    <g id="ytick_3">
     <g id="line2d_21">
      <g>
       <use xlink:href="#mc947610920" x="63.56" y="114.513502" style="fill: #1a1a1a; stroke: #1a1a1a; stroke-width: 0.8"/>
      </g>
     </g>
     <g id="text_3">
      <!-- $\mathdefault{400}$ -->
      <g style="fill: #1a1a1a" transform="translate(36.06 119.718971) scale(0.15 -0.15)">
       <defs>
        <path id="LatinModernMath-Regular-34" d="M 3014 1056 
L 3014 1254 
L 2374 1254 
L 2374 4166 
C 2374 4294 2374 4333 2272 4333 
C 2214 4333 2195 4333 2144 4256 
L 179 1254 
L 179 1056 
L 1882 1056 
L 1882 499 
C 1882 269 1869 198 1395 198 
L 1261 198 
L 1261 0 
C 1523 19 1856 19 2125 19 
C 2394 19 2733 19 2995 0 
L 2995 198 
L 2861 198 
C 2387 198 2374 269 2374 499 
L 2374 1056 
L 3014 1056 
z
M 1920 1254 
L 358 1254 
L 1920 3642 
L 1920 1254 
z
" transform="scale(0.015625)"/>
       </defs>
       <use xlink:href="#LatinModernMath-Regular-34" transform="translate(0 0.296875)"/>
       <use xlink:href="#LatinModernMath-Regular-30" transform="translate(49.999985 0.296875)"/>
       <use xlink:href="#LatinModernMath-Regular-30" transform="translate(99.999969 0.296875)"/>
      </g>
     </g>
    </g>
    <g id="ytick_4">
     <g id="line2d_22">
      <g>
       <use xlink:href="#mc947610920" x="63.56" y="65.026068" style="fill: #1a1a1a; stroke: #1a1a1a; stroke-width: 0.8"/>
      </g>
     </g>
     <g id="text_4">
      <!-- $\mathdefault{600}$ -->
      <g style="fill: #1a1a1a" transform="translate(36.06 70.231536) scale(0.15 -0.15)">
       <defs>
        <path id="LatinModernMath-Regular-36" d="M 2925 1306 
C 2925 2118 2355 2733 1645 2733 
C 1210 2733 973 2406 845 2099 
L 845 2253 
C 845 3872 1638 4102 1965 4102 
C 2118 4102 2387 4064 2528 3846 
C 2432 3846 2176 3846 2176 3558 
C 2176 3360 2330 3264 2470 3264 
C 2573 3264 2765 3322 2765 3571 
C 2765 3955 2483 4262 1952 4262 
C 1133 4262 269 3437 269 2022 
C 269 314 1011 -141 1606 -141 
C 2317 -141 2925 461 2925 1306 
z
M 2349 1312 
C 2349 1005 2349 685 2240 454 
C 2048 70 1754 38 1606 38 
C 1203 38 1011 422 973 518 
C 858 819 858 1331 858 1446 
C 858 1946 1062 2586 1638 2586 
C 1741 2586 2035 2586 2234 2189 
C 2349 1952 2349 1626 2349 1312 
z
" transform="scale(0.015625)"/>
       </defs>
       <use xlink:href="#LatinModernMath-Regular-36" transform="translate(0 0.40625)"/>
       <use xlink:href="#LatinModernMath-Regular-30" transform="translate(49.999985 0.40625)"/>
       <use xlink:href="#LatinModernMath-Regular-30" transform="translate(99.999969 0.40625)"/>
      </g>
     </g>
    </g>
    <g id="ytick_5">
     <g id="line2d_23">
      <g>
       <use xlink:href="#mc947610920" x="63.56" y="15.538633" style="fill: #1a1a1a; stroke: #1a1a1a; stroke-width: 0.8"/>
      </g>
     </g>
     <g id="text_5">
      <!-- $\mathdefault{800}$ -->
      <g style="fill: #1a1a1a" transform="translate(36.06 20.744102) scale(0.15 -0.15)">
       <defs>
        <path id="LatinModernMath-Regular-38" d="M 2925 1075 
C 2925 1306 2854 1594 2611 1862 
C 2490 1997 2387 2061 1978 2317 
C 2438 2554 2752 2886 2752 3309 
C 2752 3898 2182 4262 1600 4262 
C 960 4262 442 3789 442 3194 
C 442 3078 454 2790 723 2490 
C 794 2413 1030 2253 1190 2144 
C 819 1958 269 1600 269 966 
C 269 288 922 -141 1594 -141 
C 2317 -141 2925 390 2925 1075 
z
M 2470 3309 
C 2470 2944 2221 2637 1837 2413 
L 1043 2925 
C 749 3117 723 3334 723 3443 
C 723 3834 1139 4102 1594 4102 
C 2061 4102 2470 3770 2470 3309 
z
M 2605 845 
C 2605 371 2125 38 1600 38 
C 1050 38 589 435 589 966 
C 589 1338 794 1747 1338 2048 
L 2125 1549 
C 2304 1427 2605 1235 2605 845 
z
" transform="scale(0.015625)"/>
       </defs>
       <use xlink:href="#LatinModernMath-Regular-38" transform="translate(0 0.40625)"/>
       <use xlink:href="#LatinModernMath-Regular-30" transform="translate(49.999985 0.40625)"/>
       <use xlink:href="#LatinModernMath-Regular-30" transform="translate(99.999969 0.40625)"/>
      </g>
     </g>
    </g>
    <g id="ytick_6">
     <g id="line2d_24">
      <defs>
       <path id="m5f9d1e6504" d="M 0 0 
L 3 0 
" style="stroke: #1a1a1a; stroke-width: 0.6"/>
      </defs>
      <g>
       <use xlink:href="#m5f9d1e6504" x="63.56" y="201.116513" style="fill: #1a1a1a; stroke: #1a1a1a; stroke-width: 0.6"/>
      </g>
     </g>
    </g>
    <g id="ytick_7">
     <g id="line2d_25">
      <g>
       <use xlink:href="#m5f9d1e6504" x="63.56" y="188.744655" style="fill: #1a1a1a; stroke: #1a1a1a; stroke-width: 0.6"/>
      </g>
     </g>
    </g>
    <g id="ytick_8">
     <g id="line2d_26">
      <g>
       <use xlink:href="#m5f9d1e6504" x="63.56" y="176.372796" style="fill: #1a1a1a; stroke: #1a1a1a; stroke-width: 0.6"/>
      </g>
     </g>
    </g>
    <g id="ytick_9">
     <g id="line2d_27">
      <g>
       <use xlink:href="#m5f9d1e6504" x="63.56" y="151.629079" style="fill: #1a1a1a; stroke: #1a1a1a; stroke-width: 0.6"/>
      </g>
     </g>
    </g>
    <g id="ytick_10">
     <g id="line2d_28">
      <g>
       <use xlink:href="#m5f9d1e6504" x="63.56" y="139.25722" style="fill: #1a1a1a; stroke: #1a1a1a; stroke-width: 0.6"/>
      </g>
     </g>
    </g>
    <g id="ytick_11">
     <g id="line2d_29">
      <g>
       <use xlink:href="#m5f9d1e6504" x="63.56" y="126.885361" style="fill: #1a1a1a; stroke: #1a1a1a; stroke-width: 0.6"/>
      </g>
     </g>
    </g>
    <g id="ytick_12">
     <g id="line2d_30">
      <g>
       <use xlink:href="#m5f9d1e6504" x="63.56" y="102.141644" style="fill: #1a1a1a; stroke: #1a1a1a; stroke-width: 0.6"/>
      </g>
     </g>
    </g>
    <g id="ytick_13">
     <g id="line2d_31">
      <g>
       <use xlink:href="#m5f9d1e6504" x="63.56" y="89.769785" style="fill: #1a1a1a; stroke: #1a1a1a; stroke-width: 0.6"/>
      </g>
     </g>
    </g>
    <g id="ytick_14">
     <g id="line2d_32">
      <g>
       <use xlink:href="#m5f9d1e6504" x="63.56" y="77.397926" style="fill: #1a1a1a; stroke: #1a1a1a; stroke-width: 0.6"/>
      </g>
     </g>
    </g>
    <g id="ytick_15">
     <g id="line2d_33">
      <g>
       <use xlink:href="#m5f9d1e6504" x="63.56" y="52.654209" style="fill: #1a1a1a; stroke: #1a1a1a; stroke-width: 0.6"/>
      </g>
     </g>
    </g>
    <g id="ytick_16">
     <g id="line2d_34">
      <g>
       <use xlink:href="#m5f9d1e6504" x="63.56" y="40.28235" style="fill: #1a1a1a; stroke: #1a1a1a; stroke-width: 0.6"/>
      </g>
     </g>
    </g>
    <g id="ytick_17">
     <g id="line2d_35">
      <g>
       <use xlink:href="#m5f9d1e6504" x="63.56" y="27.910491" style="fill: #1a1a1a; stroke: #1a1a1a; stroke-width: 0.6"/>
      </g>
     </g>
    </g>
    <g id="text_6">
     <!-- Entries -->
     <g style="fill: #1a1a1a" transform="translate(26.566875 138.550749) rotate(-90) scale(0.18 -0.18)">
      <defs>
       <path id="LatinModernMath-Regular-45" d="M 4173 1651 
L 4013 1651 
C 3853 666 3706 198 2605 198 
L 1754 198 
C 1453 198 1440 243 1440 454 
L 1440 2163 
L 2016 2163 
C 2637 2163 2707 1958 2707 1414 
L 2867 1414 
L 2867 3110 
L 2707 3110 
C 2707 2560 2637 2362 2016 2362 
L 1440 2362 
L 1440 3898 
C 1440 4109 1453 4154 1754 4154 
L 2579 4154 
C 3558 4154 3731 3802 3834 2912 
L 3994 2912 
L 3814 4352 
L 211 4352 
L 211 4154 
L 365 4154 
C 858 4154 870 4083 870 3853 
L 870 499 
C 870 269 858 198 365 198 
L 211 198 
L 211 0 
L 3904 0 
L 4173 1651 
z
" transform="scale(0.015625)"/>
       <path id="LatinModernMath-Regular-6e" d="M 3424 0 
L 3424 198 
C 3091 198 2931 198 2925 390 
L 2925 1613 
C 2925 2163 2925 2362 2726 2592 
C 2637 2701 2426 2829 2054 2829 
C 1587 2829 1286 2554 1107 2157 
L 1107 2829 
L 205 2758 
L 205 2560 
C 653 2560 704 2515 704 2202 
L 704 486 
C 704 198 634 198 205 198 
L 205 0 
L 928 19 
L 1645 0 
L 1645 198 
C 1216 198 1146 198 1146 486 
L 1146 1664 
C 1146 2330 1600 2688 2010 2688 
C 2413 2688 2483 2342 2483 1978 
L 2483 486 
C 2483 198 2413 198 1984 198 
L 1984 0 
L 2707 19 
L 3424 0 
z
" transform="scale(0.015625)"/>
       <path id="LatinModernMath-Regular-74" d="M 2125 794 
L 2125 1158 
L 1965 1158 
L 1965 806 
C 1965 333 1773 90 1536 90 
C 1107 90 1107 672 1107 781 
L 1107 2560 
L 2022 2560 
L 2022 2758 
L 1107 2758 
L 1107 3936 
L 947 3936 
C 941 3411 749 2726 122 2701 
L 122 2560 
L 666 2560 
L 666 794 
C 666 6 1261 -70 1491 -70 
C 1946 -70 2125 384 2125 794 
z
" transform="scale(0.015625)"/>
       <path id="LatinModernMath-Regular-72" d="M 2330 2438 
C 2330 2643 2131 2829 1856 2829 
C 1389 2829 1158 2400 1069 2125 
L 1069 2829 
L 179 2758 
L 179 2560 
C 627 2560 678 2515 678 2202 
L 678 486 
C 678 198 608 198 179 198 
L 179 0 
L 909 19 
C 1165 19 1466 19 1722 0 
L 1722 198 
L 1587 198 
C 1114 198 1101 269 1101 499 
L 1101 1485 
C 1101 2118 1370 2688 1856 2688 
C 1901 2688 1914 2688 1926 2682 
C 1907 2675 1779 2598 1779 2432 
C 1779 2253 1914 2157 2054 2157 
C 2170 2157 2330 2234 2330 2438 
z
" transform="scale(0.015625)"/>
       <path id="LatinModernMath-Regular-69" d="M 1581 0 
L 1581 198 
C 1158 198 1133 230 1133 480 
L 1133 2829 
L 237 2758 
L 237 2560 
C 653 2560 710 2522 710 2208 
L 710 486 
C 710 198 640 198 211 198 
L 211 0 
L 915 19 
C 1139 19 1363 6 1581 0 
z
M 1229 3866 
C 1229 4038 1082 4205 890 4205 
C 672 4205 544 4026 544 3866 
C 544 3693 691 3526 883 3526 
C 1101 3526 1229 3706 1229 3866 
z
" transform="scale(0.015625)"/>
       <path id="LatinModernMath-Regular-65" d="M 2656 762 
C 2656 826 2605 838 2573 838 
C 2515 838 2502 800 2490 749 
C 2266 90 1690 90 1626 90 
C 1306 90 1050 282 902 518 
C 710 826 710 1248 710 1478 
L 2496 1478 
C 2637 1478 2656 1478 2656 1613 
C 2656 2246 2310 2867 1510 2867 
C 768 2867 179 2208 179 1408 
C 179 550 851 -70 1587 -70 
C 2368 -70 2656 640 2656 762 
z
M 2234 1613 
L 717 1613 
C 755 2566 1293 2726 1510 2726 
C 2170 2726 2234 1862 2234 1613 
z
" transform="scale(0.015625)"/>
       <path id="LatinModernMath-Regular-73" d="M 2304 819 
C 2304 1158 2112 1350 2035 1427 
C 1824 1632 1574 1683 1306 1734 
C 947 1805 518 1888 518 2259 
C 518 2483 685 2746 1235 2746 
C 1939 2746 1971 2170 1984 1971 
C 1990 1914 2061 1914 2061 1914 
C 2144 1914 2144 1946 2144 2067 
L 2144 2714 
C 2144 2822 2144 2867 2074 2867 
C 2042 2867 2029 2867 1946 2790 
C 1926 2765 1862 2707 1837 2688 
C 1594 2867 1331 2867 1235 2867 
C 454 2867 211 2438 211 2080 
C 211 1856 314 1677 486 1536 
C 691 1370 870 1331 1331 1242 
C 1472 1216 1997 1114 1997 653 
C 1997 326 1773 70 1274 70 
C 736 70 506 435 384 979 
C 365 1062 358 1088 294 1088 
C 211 1088 211 1043 211 928 
L 211 83 
C 211 -26 211 -70 282 -70 
C 314 -70 320 -64 442 58 
C 454 70 454 83 570 205 
C 851 -64 1139 -70 1274 -70 
C 2010 -70 2304 358 2304 819 
z
" transform="scale(0.015625)"/>
      </defs>
      <use xlink:href="#LatinModernMath-Regular-45"/>
      <use xlink:href="#LatinModernMath-Regular-6e" x="68.099991"/>
      <use xlink:href="#LatinModernMath-Regular-74" x="123.699982"/>
      <use xlink:href="#LatinModernMath-Regular-72" x="162.599976"/>
      <use xlink:href="#LatinModernMath-Regular-69" x="201.799973"/>
      <use xlink:href="#LatinModernMath-Regular-65" x="229.59996"/>
      <use xlink:href="#LatinModernMath-Regular-73" x="273.999954"/>
     </g>
    </g>
   </g>
   <g id="legend_1">
    <g id="patch_9">
     <path d="M 342.63125 26.4 
L 366.63125 26.4 
L 366.63125 18 
L 342.63125 18 
L 342.63125 26.4 
z
" style="fill: none; stroke: #348abd; stroke-linejoin: miter"/>
    </g>
    <g id="text_7">
     <!-- c2 -->
     <g style="fill: #1a1a1a" transform="translate(376.23125 26.4) scale(0.12 -0.12)">
      <defs>
       <path id="LatinModernMath-Regular-63" d="M 2656 762 
C 2656 826 2592 826 2573 826 
C 2515 826 2502 800 2490 762 
C 2304 166 1888 90 1651 90 
C 1312 90 749 365 749 1395 
C 749 2438 1274 2707 1613 2707 
C 1670 2707 2074 2701 2298 2470 
C 2035 2451 1997 2259 1997 2176 
C 1997 2010 2112 1882 2291 1882 
C 2458 1882 2586 1990 2586 2182 
C 2586 2618 2099 2867 1606 2867 
C 806 2867 218 2176 218 1382 
C 218 563 851 -70 1594 -70 
C 2451 -70 2656 698 2656 762 
z
" transform="scale(0.015625)"/>
      </defs>
      <use xlink:href="#LatinModernMath-Regular-63"/>
      <use xlink:href="#LatinModernMath-Regular-32" x="44.399994"/>
     </g>
    </g>
    <g id="patch_10">
     <path d="M 342.63125 43.12875 
L 366.63125 43.12875 
L 366.63125 34.72875 
L 342.63125 34.72875 
L 342.63125 43.12875 
z
" style="fill: none; stroke: #e24a33; stroke-linejoin: miter"/>
    </g>
    <g id="text_8">
     <!-- c3 -->
     <g style="fill: #1a1a1a" transform="translate(376.23125 43.12875) scale(0.12 -0.12)">
      <defs>
       <path id="LatinModernMath-Regular-33" d="M 2925 1094 
C 2925 1619 2522 2118 1856 2253 
C 2381 2426 2752 2874 2752 3379 
C 2752 3904 2189 4262 1574 4262 
C 928 4262 442 3878 442 3392 
C 442 3181 582 3059 768 3059 
C 966 3059 1094 3200 1094 3386 
C 1094 3706 794 3706 698 3706 
C 896 4019 1318 4102 1549 4102 
C 1811 4102 2163 3962 2163 3386 
C 2163 3309 2150 2938 1984 2656 
C 1792 2349 1574 2330 1414 2323 
C 1363 2317 1210 2304 1165 2304 
C 1114 2298 1069 2291 1069 2227 
C 1069 2157 1114 2157 1222 2157 
L 1504 2157 
C 2029 2157 2266 1722 2266 1094 
C 2266 224 1824 38 1542 38 
C 1267 38 787 147 563 525 
C 787 493 986 634 986 877 
C 986 1107 813 1235 627 1235 
C 474 1235 269 1146 269 864 
C 269 282 864 -141 1562 -141 
C 2342 -141 2925 442 2925 1094 
z
" transform="scale(0.015625)"/>
      </defs>
      <use xlink:href="#LatinModernMath-Regular-63"/>
      <use xlink:href="#LatinModernMath-Regular-33" x="44.399994"/>
     </g>
    </g>
   </g>
  </g>
  <g id="axes_2">
   <g id="patch_11">
    <path d="M 63.56 284.4 
L 398.36 284.4 
L 398.36 232.827907 
L 63.56 232.827907 
z
" style="fill: #ffffff"/>
   </g>
   <g id="LineCollection_1">
    <path d="M 66.908 284.4 
L 66.908 284.4 
" clip-path="url(#pa26b41f047)" style="fill: none; stroke: #000000; stroke-width: 1.5"/>
    <path d="M 73.604 287.297641 
L 73.604 255.716313 
" clip-path="url(#pa26b41f047)" style="fill: none; stroke: #000000; stroke-width: 1.5"/>
    <path d="M 80.3 287.297641 
L 80.3 255.716313 
" clip-path="url(#pa26b41f047)" style="fill: none; stroke: #000000; stroke-width: 1.5"/>
    <path d="M 86.996 275.505008 
L 86.996 254.615923 
" clip-path="url(#pa26b41f047)" style="fill: none; stroke: #000000; stroke-width: 1.5"/>
    <path d="M 93.692 275.924493 
L 93.692 260.056902 
" clip-path="url(#pa26b41f047)" style="fill: none; stroke: #000000; stroke-width: 1.5"/>
    <path d="M 100.388 272.63966 
L 100.388 260.059875 
" clip-path="url(#pa26b41f047)" style="fill: none; stroke: #000000; stroke-width: 1.5"/>
    <path d="M 107.084 268.948685 
L 107.084 257.170962 
" clip-path="url(#pa26b41f047)" style="fill: none; stroke: #000000; stroke-width: 1.5"/>
    <path d="M 113.78 260.105243 
L 113.78 247.059817 
" clip-path="url(#pa26b41f047)" style="fill: none; stroke: #000000; stroke-width: 1.5"/>
    <path d="M 120.476 256.359052 
L 120.476 245.4742 
" clip-path="url(#pa26b41f047)" style="fill: none; stroke: #000000; stroke-width: 1.5"/>
    <path d="M 127.172 247.745439 
L 127.172 235.737765 
" clip-path="url(#pa26b41f047)" style="fill: none; stroke: #000000; stroke-width: 1.5"/>
    <path d="M 133.868 241.495134 
L 133.868 229.046457 
" clip-path="url(#pa26b41f047)" style="fill: none; stroke: #000000; stroke-width: 1.5"/>
    <path d="M 140.564 241.803241 
L 140.564 231.220014 
" clip-path="url(#pa26b41f047)" style="fill: none; stroke: #000000; stroke-width: 1.5"/>
    <path d="M 147.26 240.428767 
L 147.26 231.380535 
" clip-path="url(#pa26b41f047)" style="fill: none; stroke: #000000; stroke-width: 1.5"/>
    <path d="M 153.956 230.91688 
L 153.956 220.598199 
" clip-path="url(#pa26b41f047)" style="fill: none; stroke: #000000; stroke-width: 1.5"/>
    <path d="M 160.652 230.439305 
L 160.652 220.824297 
" clip-path="url(#pa26b41f047)" style="fill: none; stroke: #000000; stroke-width: 1.5"/>
    <path d="M 167.348 227.928695 
L 167.348 218.157352 
" clip-path="url(#pa26b41f047)" style="fill: none; stroke: #000000; stroke-width: 1.5"/>
    <path d="M 174.044 228.22205 
L 174.044 218.470034 
" clip-path="url(#pa26b41f047)" style="fill: none; stroke: #000000; stroke-width: 1.5"/>
    <path d="M 180.74 235.862052 
L 180.74 227.722593 
" clip-path="url(#pa26b41f047)" style="fill: none; stroke: #000000; stroke-width: 1.5"/>
    <path d="M 187.436 247.604375 
L 187.436 241.637311 
" clip-path="url(#pa26b41f047)" style="fill: none; stroke: #000000; stroke-width: 1.5"/>
    <path d="M 194.132 248.737327 
L 194.132 243.116451 
" clip-path="url(#pa26b41f047)" style="fill: none; stroke: #000000; stroke-width: 1.5"/>
    <path d="M 200.828 256.090607 
L 200.828 251.870439 
" clip-path="url(#pa26b41f047)" style="fill: none; stroke: #000000; stroke-width: 1.5"/>
    <path d="M 207.524 262.232051 
L 207.524 259.095729 
" clip-path="url(#pa26b41f047)" style="fill: none; stroke: #000000; stroke-width: 1.5"/>
    <path d="M 214.22 263.429187 
L 214.22 260.563881 
" clip-path="url(#pa26b41f047)" style="fill: none; stroke: #000000; stroke-width: 1.5"/>
    <path d="M 220.916 266.928836 
L 220.916 264.685798 
" clip-path="url(#pa26b41f047)" style="fill: none; stroke: #000000; stroke-width: 1.5"/>
    <path d="M 227.612 267.474165 
L 227.612 265.419458 
" clip-path="url(#pa26b41f047)" style="fill: none; stroke: #000000; stroke-width: 1.5"/>
    <path d="M 234.308 267.466627 
L 234.308 265.479727 
" clip-path="url(#pa26b41f047)" style="fill: none; stroke: #000000; stroke-width: 1.5"/>
    <path d="M 241.004 267.289297 
L 241.004 265.286673 
" clip-path="url(#pa26b41f047)" style="fill: none; stroke: #000000; stroke-width: 1.5"/>
    <path d="M 247.7 266.982553 
L 247.7 264.880678 
" clip-path="url(#pa26b41f047)" style="fill: none; stroke: #000000; stroke-width: 1.5"/>
    <path d="M 254.396 267.230212 
L 254.396 265.12835 
" clip-path="url(#pa26b41f047)" style="fill: none; stroke: #000000; stroke-width: 1.5"/>
    <path d="M 261.092 269.445792 
L 261.092 267.498692 
" clip-path="url(#pa26b41f047)" style="fill: none; stroke: #000000; stroke-width: 1.5"/>
    <path d="M 267.788 268.072425 
L 267.788 265.777149 
" clip-path="url(#pa26b41f047)" style="fill: none; stroke: #000000; stroke-width: 1.5"/>
    <path d="M 274.484 267.891032 
L 274.484 265.307588 
" clip-path="url(#pa26b41f047)" style="fill: none; stroke: #000000; stroke-width: 1.5"/>
    <path d="M 281.18 263.876169 
L 281.18 260.357195 
" clip-path="url(#pa26b41f047)" style="fill: none; stroke: #000000; stroke-width: 1.5"/>
    <path d="M 287.876 268.002266 
L 287.876 264.583507 
" clip-path="url(#pa26b41f047)" style="fill: none; stroke: #000000; stroke-width: 1.5"/>
    <path d="M 294.572 265.554985 
L 294.572 261.025374 
" clip-path="url(#pa26b41f047)" style="fill: none; stroke: #000000; stroke-width: 1.5"/>
    <path d="M 301.268 267.7074 
L 301.268 262.929252 
" clip-path="url(#pa26b41f047)" style="fill: none; stroke: #000000; stroke-width: 1.5"/>
    <path d="M 307.964 262.321358 
L 307.964 254.292595 
" clip-path="url(#pa26b41f047)" style="fill: none; stroke: #000000; stroke-width: 1.5"/>
    <path d="M 314.66 263.932893 
L 314.66 254.232689 
" clip-path="url(#pa26b41f047)" style="fill: none; stroke: #000000; stroke-width: 1.5"/>
    <path d="M 321.356 258.322501 
L 321.356 241.714709 
" clip-path="url(#pa26b41f047)" style="fill: none; stroke: #000000; stroke-width: 1.5"/>
    <path d="M 328.052 266.057744 
L 328.052 251.170163 
" clip-path="url(#pa26b41f047)" style="fill: none; stroke: #000000; stroke-width: 1.5"/>
    <path d="M 334.748 252.16971 
L 334.748 198.75122 
" clip-path="url(#pa26b41f047)" style="fill: none; stroke: #000000; stroke-width: 1.5"/>
    <path d="M 341.444 254.436856 
L 341.444 203.851516 
" clip-path="url(#pa26b41f047)" style="fill: none; stroke: #000000; stroke-width: 1.5"/>
    <path d="M 348.14 295.990563 
L 348.14 169.665251 
" clip-path="url(#pa26b41f047)" style="fill: none; stroke: #000000; stroke-width: 1.5"/>
    <path d="M 354.836 284.4 
L 354.836 232.827907 
" clip-path="url(#pa26b41f047)" style="fill: none; stroke: #000000; stroke-width: 1.5"/>
    <path d="M 361.532 295.990563 
L 361.532 169.665251 
" clip-path="url(#pa26b41f047)" style="fill: none; stroke: #000000; stroke-width: 1.5"/>
    <path d="M 368.228 295.08093 
L 368.228 222.146977 
" clip-path="url(#pa26b41f047)" style="fill: none; stroke: #000000; stroke-width: 1.5"/>
    <path clip-path="url(#pa26b41f047)" style="fill: none; stroke: #000000; stroke-width: 1.5"/>
    <path clip-path="url(#pa26b41f047)" style="fill: none; stroke: #000000; stroke-width: 1.5"/>
    <path clip-path="url(#pa26b41f047)" style="fill: none; stroke: #000000; stroke-width: 1.5"/>
    <path clip-path="url(#pa26b41f047)" style="fill: none; stroke: #000000; stroke-width: 1.5"/>
   </g>
   <g id="line2d_36">
    <path d="M 63.56 258.613953 
L 398.36 258.613953 
" clip-path="url(#pa26b41f047)" style="fill: none; stroke-dasharray: 3.7,1.6; stroke-dashoffset: 0; stroke: #000000"/>
   </g>
   <g id="line2d_37">
    <defs>
     <path id="meae5c0c399" d="M 0 1.5 
C 0.397805 1.5 0.77937 1.341951 1.06066 1.06066 
C 1.341951 0.77937 1.5 0.397805 1.5 0 
C 1.5 -0.397805 1.341951 -0.77937 1.06066 -1.06066 
C 0.77937 -1.341951 0.397805 -1.5 0 -1.5 
C -0.397805 -1.5 -0.77937 -1.341951 -1.06066 -1.06066 
C -1.341951 -0.77937 -1.5 -0.397805 -1.5 0 
C -1.5 0.397805 -1.341951 0.77937 -1.06066 1.06066 
C -0.77937 1.341951 -0.397805 1.5 0 1.5 
z
" style="stroke: #000000"/>
    </defs>
    <g clip-path="url(#pa26b41f047)">
     <use xlink:href="#meae5c0c399" x="66.908" y="284.4" style="stroke: #000000"/>
     <use xlink:href="#meae5c0c399" x="73.604" y="271.506977" style="stroke: #000000"/>
     <use xlink:href="#meae5c0c399" x="80.3" y="271.506977" style="stroke: #000000"/>
     <use xlink:href="#meae5c0c399" x="86.996" y="265.060465" style="stroke: #000000"/>
     <use xlink:href="#meae5c0c399" x="93.692" y="267.990698" style="stroke: #000000"/>
     <use xlink:href="#meae5c0c399" x="100.388" y="266.349767" style="stroke: #000000"/>
     <use xlink:href="#meae5c0c399" x="107.084" y="263.059824" style="stroke: #000000"/>
     <use xlink:href="#meae5c0c399" x="113.78" y="253.58253" style="stroke: #000000"/>
     <use xlink:href="#meae5c0c399" x="120.476" y="250.916626" style="stroke: #000000"/>
     <use xlink:href="#meae5c0c399" x="127.172" y="241.741602" style="stroke: #000000"/>
     <use xlink:href="#meae5c0c399" x="133.868" y="235.270796" style="stroke: #000000"/>
     <use xlink:href="#meae5c0c399" x="140.564" y="236.511628" style="stroke: #000000"/>
     <use xlink:href="#meae5c0c399" x="147.26" y="235.904651" style="stroke: #000000"/>
     <use xlink:href="#meae5c0c399" x="153.956" y="225.757539" style="stroke: #000000"/>
     <use xlink:href="#meae5c0c399" x="160.652" y="225.631801" style="stroke: #000000"/>
     <use xlink:href="#meae5c0c399" x="167.348" y="223.043023" style="stroke: #000000"/>
     <use xlink:href="#meae5c0c399" x="174.044" y="223.346042" style="stroke: #000000"/>
     <use xlink:href="#meae5c0c399" x="180.74" y="231.792323" style="stroke: #000000"/>
     <use xlink:href="#meae5c0c399" x="187.436" y="244.620843" style="stroke: #000000"/>
     <use xlink:href="#meae5c0c399" x="194.132" y="245.926889" style="stroke: #000000"/>
     <use xlink:href="#meae5c0c399" x="200.828" y="253.980523" style="stroke: #000000"/>
     <use xlink:href="#meae5c0c399" x="207.524" y="260.66389" style="stroke: #000000"/>
     <use xlink:href="#meae5c0c399" x="214.22" y="261.996534" style="stroke: #000000"/>
     <use xlink:href="#meae5c0c399" x="220.916" y="265.807317" style="stroke: #000000"/>
     <use xlink:href="#meae5c0c399" x="227.612" y="266.446812" style="stroke: #000000"/>
     <use xlink:href="#meae5c0c399" x="234.308" y="266.473177" style="stroke: #000000"/>
     <use xlink:href="#meae5c0c399" x="241.004" y="266.287985" style="stroke: #000000"/>
     <use xlink:href="#meae5c0c399" x="247.7" y="265.931615" style="stroke: #000000"/>
     <use xlink:href="#meae5c0c399" x="254.396" y="266.179281" style="stroke: #000000"/>
     <use xlink:href="#meae5c0c399" x="261.092" y="268.472242" style="stroke: #000000"/>
     <use xlink:href="#meae5c0c399" x="267.788" y="266.924787" style="stroke: #000000"/>
     <use xlink:href="#meae5c0c399" x="274.484" y="266.59931" style="stroke: #000000"/>
     <use xlink:href="#meae5c0c399" x="281.18" y="262.116682" style="stroke: #000000"/>
     <use xlink:href="#meae5c0c399" x="287.876" y="266.292886" style="stroke: #000000"/>
     <use xlink:href="#meae5c0c399" x="294.572" y="263.29018" style="stroke: #000000"/>
     <use xlink:href="#meae5c0c399" x="301.268" y="265.318326" style="stroke: #000000"/>
     <use xlink:href="#meae5c0c399" x="307.964" y="258.306977" style="stroke: #000000"/>
     <use xlink:href="#meae5c0c399" x="314.66" y="259.082791" style="stroke: #000000"/>
     <use xlink:href="#meae5c0c399" x="321.356" y="250.018605" style="stroke: #000000"/>
     <use xlink:href="#meae5c0c399" x="328.052" y="258.613953" style="stroke: #000000"/>
     <use xlink:href="#meae5c0c399" x="334.748" y="225.460465" style="stroke: #000000"/>
     <use xlink:href="#meae5c0c399" x="341.444" y="229.144186" style="stroke: #000000"/>
     <use xlink:href="#meae5c0c399" x="348.14" y="232.827907" style="stroke: #000000"/>
     <use xlink:href="#meae5c0c399" x="354.836" y="258.613953" style="stroke: #000000"/>
     <use xlink:href="#meae5c0c399" x="361.532" y="232.827907" style="stroke: #000000"/>
     <use xlink:href="#meae5c0c399" x="368.228" y="258.613953" style="stroke: #000000"/>
    </g>
   </g>
   <g id="patch_12">
    <path d="M 63.56 284.4 
L 63.56 232.827907 
" style="fill: none; stroke: #000000; stroke-linejoin: miter; stroke-linecap: square"/>
   </g>
   <g id="patch_13">
    <path d="M 398.36 284.4 
L 398.36 232.827907 
" style="fill: none; stroke: #000000; stroke-linejoin: miter; stroke-linecap: square"/>
   </g>
   <g id="patch_14">
    <path d="M 63.56 284.4 
L 398.36 284.4 
" style="fill: none; stroke: #000000; stroke-linejoin: miter; stroke-linecap: square"/>
   </g>
   <g id="patch_15">
    <path d="M 63.56 232.827907 
L 398.36 232.827907 
" style="fill: none; stroke: #000000; stroke-linejoin: miter; stroke-linecap: square"/>
   </g>
   <g id="matplotlib.axis_3">
    <g id="xtick_19">
     <g id="line2d_38">
      <g>
       <use xlink:href="#m8dec1b3d1d" x="113.130027" y="284.4" style="fill: #1a1a1a; stroke: #1a1a1a; stroke-width: 0.8"/>
      </g>
     </g>
     <g id="text_9">
      <!-- $\mathdefault{−5}$ -->
      <g style="fill: #1a1a1a" transform="translate(103.530027 302.810938) scale(0.15 -0.15)">
       <defs>
        <path id="LatinModernMath-Regular-2212" d="M 4621 1600 
C 4621 1670 4563 1728 4493 1728 
L 486 1728 
C 416 1728 358 1670 358 1600 
C 358 1530 416 1472 486 1472 
L 4493 1472 
C 4563 1472 4621 1530 4621 1600 
z
" transform="scale(0.015625)"/>
        <path id="LatinModernMath-Regular-35" d="M 2874 1286 
C 2874 2048 2349 2688 1658 2688 
C 1350 2688 1075 2586 845 2362 
L 845 3610 
C 973 3571 1184 3526 1389 3526 
C 2176 3526 2624 4109 2624 4192 
C 2624 4230 2605 4262 2560 4262 
C 2560 4262 2541 4262 2509 4243 
C 2381 4186 2067 4058 1638 4058 
C 1382 4058 1088 4102 787 4237 
C 736 4256 710 4256 710 4256 
C 646 4256 646 4205 646 4102 
L 646 2208 
C 646 2093 646 2042 736 2042 
C 781 2042 794 2061 819 2099 
C 890 2202 1126 2547 1645 2547 
C 1978 2547 2138 2253 2189 2138 
C 2291 1901 2304 1651 2304 1331 
C 2304 1107 2304 723 2150 454 
C 1997 205 1760 38 1466 38 
C 998 38 634 378 525 755 
C 544 749 563 742 634 742 
C 845 742 954 902 954 1056 
C 954 1210 845 1370 634 1370 
C 544 1370 320 1325 320 1030 
C 320 480 762 -141 1478 -141 
C 2221 -141 2874 474 2874 1286 
z
" transform="scale(0.015625)"/>
       </defs>
       <use xlink:href="#LatinModernMath-Regular-2212" transform="translate(0 0.40625)"/>
       <use xlink:href="#LatinModernMath-Regular-35" transform="translate(77.799988 0.40625)"/>
      </g>
     </g>
    </g>
    <g id="xtick_20">
     <g id="line2d_39">
      <g>
       <use xlink:href="#m8dec1b3d1d" x="206.216635" y="284.4" style="fill: #1a1a1a; stroke: #1a1a1a; stroke-width: 0.8"/>
      </g>
     </g>
     <g id="text_10">
      <!-- $\mathdefault{0}$ -->
      <g style="fill: #1a1a1a" transform="translate(202.466635 302.810938) scale(0.15 -0.15)">
       <use xlink:href="#LatinModernMath-Regular-30" transform="translate(0 0.40625)"/>
      </g>
     </g>
    </g>
    <g id="xtick_21">
     <g id="line2d_40">
      <g>
       <use xlink:href="#m8dec1b3d1d" x="299.303242" y="284.4" style="fill: #1a1a1a; stroke: #1a1a1a; stroke-width: 0.8"/>
      </g>
     </g>
     <g id="text_11">
      <!-- $\mathdefault{5}$ -->
      <g style="fill: #1a1a1a" transform="translate(295.553242 302.810938) scale(0.15 -0.15)">
       <use xlink:href="#LatinModernMath-Regular-35" transform="translate(0 0.40625)"/>
      </g>
     </g>
    </g>
    <g id="xtick_22">
     <g id="line2d_41">
      <g>
       <use xlink:href="#m8dec1b3d1d" x="392.389849" y="284.4" style="fill: #1a1a1a; stroke: #1a1a1a; stroke-width: 0.8"/>
      </g>
     </g>
     <g id="text_12">
      <!-- $\mathdefault{10}$ -->
      <g style="fill: #1a1a1a" transform="translate(384.889849 302.810938) scale(0.15 -0.15)">
       <defs>
        <path id="LatinModernMath-Regular-31" d="M 2682 0 
L 2682 198 
L 2477 198 
C 1901 198 1882 269 1882 506 
L 1882 4096 
C 1882 4250 1882 4262 1734 4262 
C 1338 3853 774 3853 570 3853 
L 570 3654 
C 698 3654 1075 3654 1408 3821 
L 1408 506 
C 1408 275 1389 198 813 198 
L 608 198 
L 608 0 
C 832 19 1389 19 1645 19 
C 1901 19 2458 19 2682 0 
z
" transform="scale(0.015625)"/>
       </defs>
       <use xlink:href="#LatinModernMath-Regular-31" transform="translate(0 0.40625)"/>
       <use xlink:href="#LatinModernMath-Regular-30" transform="translate(49.999985 0.40625)"/>
      </g>
     </g>
    </g>
    <g id="xtick_23">
     <g id="line2d_42">
      <g>
       <use xlink:href="#m131efc0c90" x="75.895384" y="284.4" style="fill: #1a1a1a; stroke: #1a1a1a; stroke-width: 0.6"/>
      </g>
     </g>
    </g>
    <g id="xtick_24">
     <g id="line2d_43">
      <g>
       <use xlink:href="#m131efc0c90" x="94.512706" y="284.4" style="fill: #1a1a1a; stroke: #1a1a1a; stroke-width: 0.6"/>
      </g>
     </g>
    </g>
    <g id="xtick_25">
     <g id="line2d_44">
      <g>
       <use xlink:href="#m131efc0c90" x="131.747349" y="284.4" style="fill: #1a1a1a; stroke: #1a1a1a; stroke-width: 0.6"/>
      </g>
     </g>
    </g>
    <g id="xtick_26">
     <g id="line2d_45">
      <g>
       <use xlink:href="#m131efc0c90" x="150.36467" y="284.4" style="fill: #1a1a1a; stroke: #1a1a1a; stroke-width: 0.6"/>
      </g>
     </g>
    </g>
    <g id="xtick_27">
     <g id="line2d_46">
      <g>
       <use xlink:href="#m131efc0c90" x="168.981992" y="284.4" style="fill: #1a1a1a; stroke: #1a1a1a; stroke-width: 0.6"/>
      </g>
     </g>
    </g>
    <g id="xtick_28">
     <g id="line2d_47">
      <g>
       <use xlink:href="#m131efc0c90" x="187.599313" y="284.4" style="fill: #1a1a1a; stroke: #1a1a1a; stroke-width: 0.6"/>
      </g>
     </g>
    </g>
    <g id="xtick_29">
     <g id="line2d_48">
      <g>
       <use xlink:href="#m131efc0c90" x="224.833956" y="284.4" style="fill: #1a1a1a; stroke: #1a1a1a; stroke-width: 0.6"/>
      </g>
     </g>
    </g>
    <g id="xtick_30">
     <g id="line2d_49">
      <g>
       <use xlink:href="#m131efc0c90" x="243.451277" y="284.4" style="fill: #1a1a1a; stroke: #1a1a1a; stroke-width: 0.6"/>
      </g>
     </g>
    </g>
    <g id="xtick_31">
     <g id="line2d_50">
      <g>
       <use xlink:href="#m131efc0c90" x="262.068599" y="284.4" style="fill: #1a1a1a; stroke: #1a1a1a; stroke-width: 0.6"/>
      </g>
     </g>
    </g>
    <g id="xtick_32">
     <g id="line2d_51">
      <g>
       <use xlink:href="#m131efc0c90" x="280.68592" y="284.4" style="fill: #1a1a1a; stroke: #1a1a1a; stroke-width: 0.6"/>
      </g>
     </g>
    </g>
    <g id="xtick_33">
     <g id="line2d_52">
      <g>
       <use xlink:href="#m131efc0c90" x="317.920563" y="284.4" style="fill: #1a1a1a; stroke: #1a1a1a; stroke-width: 0.6"/>
      </g>
     </g>
    </g>
    <g id="xtick_34">
     <g id="line2d_53">
      <g>
       <use xlink:href="#m131efc0c90" x="336.537885" y="284.4" style="fill: #1a1a1a; stroke: #1a1a1a; stroke-width: 0.6"/>
      </g>
     </g>
    </g>
    <g id="xtick_35">
     <g id="line2d_54">
      <g>
       <use xlink:href="#m131efc0c90" x="355.155206" y="284.4" style="fill: #1a1a1a; stroke: #1a1a1a; stroke-width: 0.6"/>
      </g>
     </g>
    </g>
    <g id="xtick_36">
     <g id="line2d_55">
      <g>
       <use xlink:href="#m131efc0c90" x="373.772528" y="284.4" style="fill: #1a1a1a; stroke: #1a1a1a; stroke-width: 0.6"/>
      </g>
     </g>
    </g>
    <g id="text_13">
     <!-- variable_1 -->
     <g style="fill: #1a1a1a" transform="translate(192.179844 324.215) scale(0.18 -0.18)">
      <defs>
       <path id="LatinModernMath-Regular-76" d="M 3251 2560 
L 3251 2758 
C 3104 2746 2918 2739 2771 2739 
L 2214 2758 
L 2214 2560 
C 2451 2554 2522 2406 2522 2285 
C 2522 2227 2509 2202 2483 2131 
L 1830 499 
L 1114 2285 
C 1075 2368 1075 2394 1075 2394 
C 1075 2560 1325 2560 1440 2560 
L 1440 2758 
L 742 2739 
C 570 2739 314 2746 122 2758 
L 122 2560 
C 525 2560 550 2522 634 2323 
L 1555 51 
C 1594 -38 1606 -70 1690 -70 
C 1773 -70 1798 -13 1824 51 
L 2662 2131 
C 2720 2278 2829 2554 3251 2560 
z
" transform="scale(0.015625)"/>
       <path id="LatinModernMath-Regular-61" d="M 3091 570 
L 3091 928 
L 2931 928 
L 2931 570 
C 2931 198 2771 160 2701 160 
C 2490 160 2464 448 2464 480 
L 2464 1760 
C 2464 2029 2464 2278 2234 2515 
C 1984 2765 1664 2867 1357 2867 
C 832 2867 390 2566 390 2144 
C 390 1952 518 1843 685 1843 
C 864 1843 979 1971 979 2138 
C 979 2214 947 2426 653 2432 
C 826 2656 1139 2726 1344 2726 
C 1658 2726 2022 2477 2022 1907 
L 2022 1670 
C 1696 1651 1248 1632 845 1440 
C 365 1222 205 890 205 608 
C 205 90 826 -70 1229 -70 
C 1651 -70 1946 186 2067 486 
C 2093 230 2266 -38 2566 -38 
C 2701 -38 3091 51 3091 570 
z
M 2022 896 
C 2022 288 1562 70 1274 70 
C 960 70 698 294 698 614 
C 698 966 966 1498 2022 1536 
L 2022 896 
z
" transform="scale(0.015625)"/>
       <path id="LatinModernMath-Regular-62" d="M 3334 1382 
C 3334 2195 2707 2829 1978 2829 
C 1478 2829 1203 2528 1101 2413 
L 1101 4442 
L 179 4371 
L 179 4173 
C 627 4173 678 4128 678 3814 
L 678 0 
L 838 0 
L 1069 397 
C 1165 250 1434 -70 1907 -70 
C 2669 -70 3334 557 3334 1382 
z
M 2803 1389 
C 2803 1152 2790 768 2605 480 
C 2470 282 2227 70 1882 70 
C 1594 70 1363 224 1210 461 
C 1120 595 1120 614 1120 730 
L 1120 2048 
C 1120 2170 1120 2176 1190 2278 
C 1440 2637 1792 2688 1946 2688 
C 2234 2688 2464 2522 2618 2278 
C 2784 2016 2803 1651 2803 1389 
z
" transform="scale(0.015625)"/>
       <path id="LatinModernMath-Regular-6c" d="M 1632 0 
L 1632 198 
C 1203 198 1133 198 1133 486 
L 1133 4442 
L 211 4371 
L 211 4173 
C 659 4173 710 4128 710 3814 
L 710 486 
C 710 198 640 198 211 198 
L 211 0 
L 922 19 
L 1632 0 
z
" transform="scale(0.015625)"/>
       <path id="LatinModernMath-Regular-5f" d="M 2131 -896 
L 2131 -640 
L 0 -640 
L 0 -896 
L 2131 -896 
z
" transform="scale(0.015625)"/>
      </defs>
      <use xlink:href="#LatinModernMath-Regular-76"/>
      <use xlink:href="#LatinModernMath-Regular-61" x="52.799988"/>
      <use xlink:href="#LatinModernMath-Regular-72" x="102.799973"/>
      <use xlink:href="#LatinModernMath-Regular-69" x="141.999969"/>
      <use xlink:href="#LatinModernMath-Regular-61" x="169.799957"/>
      <use xlink:href="#LatinModernMath-Regular-62" x="219.799942"/>
      <use xlink:href="#LatinModernMath-Regular-6c" x="275.399933"/>
      <use xlink:href="#LatinModernMath-Regular-65" x="303.199921"/>
      <use xlink:href="#LatinModernMath-Regular-5f" x="347.599915"/>
      <use xlink:href="#LatinModernMath-Regular-31" x="380.899902"/>
     </g>
    </g>
   </g>
   <g id="matplotlib.axis_4">
    <g id="ytick_18">
     <g id="line2d_56">
      <g>
       <use xlink:href="#mc947610920" x="63.56" y="284.4" style="fill: #1a1a1a; stroke: #1a1a1a; stroke-width: 0.8"/>
      </g>
     </g>
     <g id="text_14">
      <!-- $\mathdefault{0}$ -->
      <g style="fill: #1a1a1a" transform="translate(51.06 289.605469) scale(0.15 -0.15)">
       <use xlink:href="#LatinModernMath-Regular-30" transform="translate(0 0.40625)"/>
      </g>
     </g>
    </g>
    <g id="ytick_19">
     <g id="line2d_57">
      <g>
       <use xlink:href="#mc947610920" x="63.56" y="232.827907" style="fill: #1a1a1a; stroke: #1a1a1a; stroke-width: 0.8"/>
      </g>
     </g>
     <g id="text_15">
      <!-- $\mathdefault{2}$ -->
      <g style="fill: #1a1a1a" transform="translate(51.06 238.033376) scale(0.15 -0.15)">
       <use xlink:href="#LatinModernMath-Regular-32" transform="translate(0 0.40625)"/>
      </g>
     </g>
    </g>
    <g id="ytick_20">
     <g id="line2d_58">
      <g>
       <use xlink:href="#m5f9d1e6504" x="63.56" y="271.506977" style="fill: #1a1a1a; stroke: #1a1a1a; stroke-width: 0.6"/>
      </g>
     </g>
    </g>
    <g id="ytick_21">
     <g id="line2d_59">
      <g>
       <use xlink:href="#m5f9d1e6504" x="63.56" y="258.613953" style="fill: #1a1a1a; stroke: #1a1a1a; stroke-width: 0.6"/>
      </g>
     </g>
    </g>
    <g id="ytick_22">
     <g id="line2d_60">
      <g>
       <use xlink:href="#m5f9d1e6504" x="63.56" y="245.72093" style="fill: #1a1a1a; stroke: #1a1a1a; stroke-width: 0.6"/>
      </g>
     </g>
    </g>
    <g id="text_16">
     <!-- $\frac{c2}{c3}$ -->
     <g style="fill: #1a1a1a" transform="translate(22.5 265.723953) rotate(-90) scale(0.18 -0.18)">
      <use xlink:href="#LatinModernMath-Regular-63" transform="translate(0 38.384375) scale(0.7)"/>
      <use xlink:href="#LatinModernMath-Regular-32" transform="translate(31.079996 38.384375) scale(0.7)"/>
      <use xlink:href="#LatinModernMath-Regular-63" transform="translate(0 -40.246875) scale(0.7)"/>
      <use xlink:href="#LatinModernMath-Regular-33" transform="translate(31.079996 -40.246875) scale(0.7)"/>
      <path d="M 0 12.61875 
L 0 18.86875 
L 66.079985 18.86875 
L 66.079985 12.61875 
L 0 12.61875 
z
"/>
     </g>
    </g>
   </g>
  </g>
 </g>
 <defs>
  <clipPath id="pf20c1ec86f">
   <rect x="63.56" y="7.2" width="334.8" height="206.288372"/>
  </clipPath>
  <clipPath id="pa26b41f047">
   <rect x="63.56" y="232.827907" width="334.8" height="51.572093"/>
  </clipPath>
 </defs>
</svg>
