<?xml version="1.0" encoding="utf-8" standalone="no"?>
<!DOCTYPE svg PUBLIC "-//W3C//DTD SVG 1.1//EN"
  "http://www.w3.org/Graphics/SVG/1.1/DTD/svg11.dtd">
<svg xmlns:xlink="http://www.w3.org/1999/xlink" width="411.314466pt" height="334.908125pt" viewBox="0 0 411.314466 334.908125" xmlns="http://www.w3.org/2000/svg" version="1.1">
 <metadata>
  <rdf:RDF xmlns:dc="http://purl.org/dc/elements/1.1/" xmlns:cc="http://creativecommons.org/ns#" xmlns:rdf="http://www.w3.org/1999/02/22-rdf-syntax-ns#">
   <cc:Work>
    <dc:creator>
     <cc:Agent>
      <dc:title>カリビアンカフェ</dc:title>
     </cc:Agent>
    </dc:creator>
   </cc:Work>
  </rdf:RDF>
 </metadata>
 <defs>
  <style type="text/css">*{stroke-linejoin: round; stroke-linecap: butt}</style>
 </defs>
 <g id="figure_1">
  <g id="patch_1">
   <path d="M 0 334.908125 
L 411.314466 334.908125 
L 411.314466 0 
L 0 0 
z
" style="fill: #ffffff"/>
  </g>
  <g id="axes_1">
   <g id="patch_2">
    <path d="M 67.34 213.488372 
L 402.14 213.488372 
L 402.14 7.2 
L 67.34 7.2 
z
" style="fill: #ffffff"/>
   </g>
   <g id="patch_3">
    <path d="M 67.34 213.488372 
L 67.34 213.488372 
L 74.036 213.488372 
L 74.036 213.488372 
L 80.732 213.488372 
L 80.732 213.488372 
L 87.428 213.488372 
L 87.428 213.488372 
L 94.124 213.488372 
L 94.124 213.488372 
L 100.82 213.488372 
L 100.82 213.259658 
L 107.516 213.259658 
L 107.516 212.11609 
L 114.212 212.11609 
L 114.212 212.344803 
L 120.908 212.344803 
L 120.908 210.515093 
L 127.604 210.515093 
L 127.604 208.227956 
L 134.3 208.227956 
L 134.3 205.025963 
L 140.996 205.025963 
L 140.996 190.388283 
L 147.692 190.388283 
L 147.692 181.468446 
L 154.388 181.468446 
L 154.388 167.516907 
L 161.084 167.516907 
L 161.084 150.134662 
L 167.78 150.134662 
L 167.78 130.465279 
L 174.476 130.465279 
L 174.476 97.530498 
L 181.172 97.530498 
L 181.172 88.153234 
L 187.868 88.153234 
L 187.868 86.780951 
L 194.564 86.780951 
L 194.564 83.350245 
L 201.26 83.350245 
L 201.26 98.216639 
L 207.956 98.216639 
L 207.956 95.472074 
L 214.652 95.472074 
L 214.652 107.822617 
L 221.348 107.822617 
L 221.348 102.562201 
L 228.044 102.562201 
L 228.044 100.046349 
L 234.74 100.046349 
L 234.74 92.498795 
L 241.436 92.498795 
L 241.436 85.179955 
L 248.132 85.179955 
L 248.132 78.77597 
L 254.828 78.77597 
L 254.828 76.031405 
L 261.524 76.031405 
L 261.524 85.408669 
L 268.22 85.408669 
L 268.22 92.498795 
L 274.916 92.498795 
L 274.916 113.540461 
L 281.612 113.540461 
L 281.612 127.949427 
L 288.308 127.949427 
L 288.308 136.64055 
L 295.004 136.64055 
L 295.004 159.511926 
L 301.7 159.511926 
L 301.7 174.149606 
L 308.396 174.149606 
L 308.396 183.984298 
L 315.092 183.984298 
L 315.092 192.67542 
L 321.788 192.67542 
L 321.788 200.451688 
L 328.484 200.451688 
L 328.484 203.196253 
L 335.18 203.196253 
L 335.18 208.227956 
L 341.876 208.227956 
L 341.876 210.972521 
L 348.572 210.972521 
L 348.572 210.972521 
L 355.268 210.972521 
L 355.268 212.802231 
L 361.964 212.802231 
L 361.964 212.802231 
L 368.66 212.802231 
L 368.66 213.259658 
L 375.356 213.259658 
L 375.356 213.488372 
L 382.052 213.488372 
L 382.052 213.488372 
L 388.748 213.488372 
L 388.748 213.488372 
L 395.444 213.488372 
L 395.444 213.259658 
L 402.14 213.259658 
L 402.14 213.488372 
" clip-path="url(#p8930bc2050)" style="fill: none; stroke: #348abd; stroke-linejoin: miter"/>
   </g>
   <g id="patch_4">
    <path d="M 67.34 213.488372 
L 67.34 213.488372 
L 74.036 213.488372 
L 74.036 213.488372 
L 80.732 213.488372 
L 80.732 213.488372 
L 87.428 213.488372 
L 87.428 213.259658 
L 94.124 213.259658 
L 94.124 213.259658 
L 100.82 213.259658 
L 100.82 213.030945 
L 107.516 213.030945 
L 107.516 212.11609 
L 114.212 212.11609 
L 114.212 211.429948 
L 120.908 211.429948 
L 120.908 209.600238 
L 127.604 209.600238 
L 127.604 207.770528 
L 134.3 207.770528 
L 134.3 201.823971 
L 140.996 201.823971 
L 140.996 199.079405 
L 147.692 199.079405 
L 147.692 193.361562 
L 154.388 193.361562 
L 154.388 189.016 
L 161.084 189.016 
L 161.084 180.553591 
L 167.78 180.553591 
L 167.78 167.745621 
L 174.476 167.745621 
L 174.476 168.431762 
L 181.172 168.431762 
L 181.172 160.198067 
L 187.868 160.198067 
L 187.868 157.910929 
L 194.564 157.910929 
L 194.564 152.193086 
L 201.26 152.193086 
L 201.26 145.7891 
L 207.956 145.7891 
L 207.956 138.47026 
L 214.652 138.47026 
L 214.652 120.859301 
L 221.348 120.859301 
L 221.348 100.275063 
L 228.044 100.275063 
L 228.044 84.036386 
L 234.74 84.036386 
L 234.74 51.787747 
L 241.436 51.787747 
L 241.436 25.485665 
L 248.132 25.485665 
L 248.132 17.023256 
L 254.828 17.023256 
L 254.828 25.943092 
L 261.524 25.943092 
L 261.524 25.028237 
L 268.22 25.028237 
L 268.22 37.836208 
L 274.916 37.836208 
L 274.916 55.447167 
L 281.612 55.447167 
L 281.612 89.296803 
L 288.308 89.296803 
L 288.308 116.056312 
L 295.004 116.056312 
L 295.004 142.815822 
L 301.7 142.815822 
L 301.7 163.40006 
L 308.396 163.40006 
L 308.396 175.521889 
L 315.092 175.521889 
L 315.092 192.446707 
L 321.788 192.446707 
L 321.788 200.909116 
L 328.484 200.909116 
L 328.484 205.712104 
L 335.18 205.712104 
L 335.18 209.371524 
L 341.876 209.371524 
L 341.876 211.429948 
L 348.572 211.429948 
L 348.572 212.344803 
L 355.268 212.344803 
L 355.268 213.488372 
L 361.964 213.488372 
L 361.964 212.802231 
L 368.66 212.802231 
L 368.66 213.259658 
L 375.356 213.259658 
L 375.356 213.488372 
L 382.052 213.488372 
L 382.052 213.488372 
L 388.748 213.488372 
L 388.748 213.488372 
L 395.444 213.488372 
L 395.444 213.488372 
L 402.14 213.488372 
L 402.14 213.488372 
" clip-path="url(#p8930bc2050)" style="fill: none; stroke: #e24a33; stroke-linejoin: miter"/>
   </g>
   <g id="patch_5">
    <path d="M 67.34 213.488372 
L 67.34 7.2 
" style="fill: none; stroke: #000000; stroke-linejoin: miter; stroke-linecap: square"/>
   </g>
   <g id="patch_6">
    <path d="M 402.14 213.488372 
L 402.14 7.2 
" style="fill: none; stroke: #000000; stroke-linejoin: miter; stroke-linecap: square"/>
   </g>
   <g id="patch_7">
    <path d="M 67.34 213.488372 
L 402.14 213.488372 
" style="fill: none; stroke: #000000; stroke-linejoin: miter; stroke-linecap: square"/>
   </g>
   <g id="patch_8">
    <path d="M 67.34 7.2 
L 402.14 7.2 
" style="fill: none; stroke: #000000; stroke-linejoin: miter; stroke-linecap: square"/>
   </g>
   <g id="matplotlib.axis_1">
    <g id="xtick_1">
     <g id="line2d_1">
      <defs>
       <path id="m8dec1b3d1d" d="M 0 0 
L 0 -6 
" style="stroke: #1a1a1a; stroke-width: 0.8"/>
      </defs>
      <g>
       <use xlink:href="#m8dec1b3d1d" x="138.152035" y="213.488372" style="fill: #1a1a1a; stroke: #1a1a1a; stroke-width: 0.8"/>
      </g>
     </g>
    </g>
    <g id="xtick_2">
     <g id="line2d_2">
      <g>
       <use xlink:href="#m8dec1b3d1d" x="224.306179" y="213.488372" style="fill: #1a1a1a; stroke: #1a1a1a; stroke-width: 0.8"/>
      </g>
     </g>
    </g>
    <g id="xtick_3">
     <g id="line2d_3">
      <g>
       <use xlink:href="#m8dec1b3d1d" x="310.460322" y="213.488372" style="fill: #1a1a1a; stroke: #1a1a1a; stroke-width: 0.8"/>
      </g>
     </g>
    </g>
    <g id="xtick_4">
     <g id="line2d_4">
      <g>
       <use xlink:href="#m8dec1b3d1d" x="396.614466" y="213.488372" style="fill: #1a1a1a; stroke: #1a1a1a; stroke-width: 0.8"/>
      </g>
     </g>
    </g>
    <g id="xtick_5">
     <g id="line2d_5">
      <defs>
       <path id="m131efc0c90" d="M 0 0 
L 0 -3 
" style="stroke: #1a1a1a; stroke-width: 0.6"/>
      </defs>
      <g>
       <use xlink:href="#m131efc0c90" x="69.228721" y="213.488372" style="fill: #1a1a1a; stroke: #1a1a1a; stroke-width: 0.6"/>
      </g>
     </g>
    </g>
    <g id="xtick_6">
     <g id="line2d_6">
      <g>
       <use xlink:href="#m131efc0c90" x="86.459549" y="213.488372" style="fill: #1a1a1a; stroke: #1a1a1a; stroke-width: 0.6"/>
      </g>
     </g>
    </g>
    <g id="xtick_7">
     <g id="line2d_7">
      <g>
       <use xlink:href="#m131efc0c90" x="103.690378" y="213.488372" style="fill: #1a1a1a; stroke: #1a1a1a; stroke-width: 0.6"/>
      </g>
     </g>
    </g>
    <g id="xtick_8">
     <g id="line2d_8">
      <g>
       <use xlink:href="#m131efc0c90" x="120.921207" y="213.488372" style="fill: #1a1a1a; stroke: #1a1a1a; stroke-width: 0.6"/>
      </g>
     </g>
    </g>
    <g id="xtick_9">
     <g id="line2d_9">
      <g>
       <use xlink:href="#m131efc0c90" x="155.382864" y="213.488372" style="fill: #1a1a1a; stroke: #1a1a1a; stroke-width: 0.6"/>
      </g>
     </g>
    </g>
    <g id="xtick_10">
     <g id="line2d_10">
      <g>
       <use xlink:href="#m131efc0c90" x="172.613693" y="213.488372" style="fill: #1a1a1a; stroke: #1a1a1a; stroke-width: 0.6"/>
      </g>
     </g>
    </g>
    <g id="xtick_11">
     <g id="line2d_11">
      <g>
       <use xlink:href="#m131efc0c90" x="189.844521" y="213.488372" style="fill: #1a1a1a; stroke: #1a1a1a; stroke-width: 0.6"/>
      </g>
     </g>
    </g>
    <g id="xtick_12">
     <g id="line2d_12">
      <g>
       <use xlink:href="#m131efc0c90" x="207.07535" y="213.488372" style="fill: #1a1a1a; stroke: #1a1a1a; stroke-width: 0.6"/>
      </g>
     </g>
    </g>
    <g id="xtick_13">
     <g id="line2d_13">
      <g>
       <use xlink:href="#m131efc0c90" x="241.537007" y="213.488372" style="fill: #1a1a1a; stroke: #1a1a1a; stroke-width: 0.6"/>
      </g>
     </g>
    </g>
    <g id="xtick_14">
     <g id="line2d_14">
      <g>
       <use xlink:href="#m131efc0c90" x="258.767836" y="213.488372" style="fill: #1a1a1a; stroke: #1a1a1a; stroke-width: 0.6"/>
      </g>
     </g>
    </g>
    <g id="xtick_15">
     <g id="line2d_15">
      <g>
       <use xlink:href="#m131efc0c90" x="275.998665" y="213.488372" style="fill: #1a1a1a; stroke: #1a1a1a; stroke-width: 0.6"/>
      </g>
     </g>
    </g>
    <g id="xtick_16">
     <g id="line2d_16">
      <g>
       <use xlink:href="#m131efc0c90" x="293.229494" y="213.488372" style="fill: #1a1a1a; stroke: #1a1a1a; stroke-width: 0.6"/>
      </g>
     </g>
    </g>
    <g id="xtick_17">
     <g id="line2d_17">
      <g>
       <use xlink:href="#m131efc0c90" x="327.691151" y="213.488372" style="fill: #1a1a1a; stroke: #1a1a1a; stroke-width: 0.6"/>
      </g>
     </g>
    </g>
    <g id="xtick_18">
     <g id="line2d_18">
      <g>
       <use xlink:href="#m131efc0c90" x="344.92198" y="213.488372" style="fill: #1a1a1a; stroke: #1a1a1a; stroke-width: 0.6"/>
      </g>
     </g>
    </g>
    <g id="xtick_19">
     <g id="line2d_19">
      <g>
       <use xlink:href="#m131efc0c90" x="362.152808" y="213.488372" style="fill: #1a1a1a; stroke: #1a1a1a; stroke-width: 0.6"/>
      </g>
     </g>
    </g>
    <g id="xtick_20">
     <g id="line2d_20">
      <g>
       <use xlink:href="#m131efc0c90" x="379.383637" y="213.488372" style="fill: #1a1a1a; stroke: #1a1a1a; stroke-width: 0.6"/>
      </g>
     </g>
    </g>
   </g>
   <g id="matplotlib.axis_2">
    <g id="ytick_1">
     <g id="line2d_21">
      <defs>
       <path id="mc947610920" d="M 0 0 
L 6 0 
" style="stroke: #1a1a1a; stroke-width: 0.8"/>
      </defs>
      <g>
       <use xlink:href="#mc947610920" x="67.34" y="213.488372" style="fill: #1a1a1a; stroke: #1a1a1a; stroke-width: 0.8"/>
      </g>
     </g>
     <g id="text_1">
      <!-- $\mathdefault{0}$ -->
      <g style="fill: #1a1a1a" transform="translate(54.84 218.693841) scale(0.15 -0.15)">
       <defs>
        <path id="LatinModernMath-Regular-30" d="M 2944 2048 
C 2944 2560 2912 3072 2688 3546 
C 2394 4160 1869 4262 1600 4262 
C 1216 4262 749 4096 486 3501 
C 282 3059 250 2560 250 2048 
C 250 1568 275 992 538 506 
C 813 -13 1280 -141 1594 -141 
C 1939 -141 2426 -6 2707 602 
C 2912 1043 2944 1542 2944 2048 
z
M 2413 2125 
C 2413 1645 2413 1210 2342 800 
C 2246 192 1882 0 1594 0 
C 1344 0 966 160 851 774 
C 781 1158 781 1747 781 2125 
C 781 2534 781 2957 832 3302 
C 954 4064 1434 4122 1594 4122 
C 1805 4122 2227 4006 2349 3373 
C 2413 3014 2413 2528 2413 2125 
z
" transform="scale(0.015625)"/>
       </defs>
       <use xlink:href="#LatinModernMath-Regular-30" transform="translate(0 0.40625)"/>
      </g>
     </g>
    </g>
    <g id="ytick_2">
     <g id="line2d_22">
      <g>
       <use xlink:href="#mc947610920" x="67.34" y="167.745621" style="fill: #1a1a1a; stroke: #1a1a1a; stroke-width: 0.8"/>
      </g>
     </g>
     <g id="text_2">
      <!-- $\mathdefault{200}$ -->
      <g style="fill: #1a1a1a" transform="translate(39.84 172.95109) scale(0.15 -0.15)">
       <defs>
        <path id="LatinModernMath-Regular-32" d="M 2874 1114 
L 2714 1114 
C 2682 922 2637 640 2573 544 
C 2528 493 2106 493 1965 493 
L 813 493 
L 1491 1152 
C 2490 2035 2874 2381 2874 3021 
C 2874 3750 2298 4262 1517 4262 
C 794 4262 320 3674 320 3104 
C 320 2746 640 2746 659 2746 
C 768 2746 992 2822 992 3085 
C 992 3251 877 3418 653 3418 
C 602 3418 589 3418 570 3411 
C 717 3827 1062 4064 1434 4064 
C 2016 4064 2291 3546 2291 3021 
C 2291 2509 1971 2003 1619 1606 
L 390 237 
C 320 166 320 154 320 0 
L 2694 0 
L 2874 1114 
z
" transform="scale(0.015625)"/>
       </defs>
       <use xlink:href="#LatinModernMath-Regular-32" transform="translate(0 0.40625)"/>
       <use xlink:href="#LatinModernMath-Regular-30" transform="translate(49.999985 0.40625)"/>
       <use xlink:href="#LatinModernMath-Regular-30" transform="translate(99.999969 0.40625)"/>
      </g>
     </g>
    </g>
    <g id="ytick_3">
     <g id="line2d_23">
      <g>
       <use xlink:href="#mc947610920" x="67.34" y="122.00287" style="fill: #1a1a1a; stroke: #1a1a1a; stroke-width: 0.8"/>
      </g>
     </g>
     <g id="text_3">
      <!-- $\mathdefault{400}$ -->
      <g style="fill: #1a1a1a" transform="translate(39.84 127.208339) scale(0.15 -0.15)">
       <defs>
        <path id="LatinModernMath-Regular-34" d="M 3014 1056 
L 3014 1254 
L 2374 1254 
L 2374 4166 
C 2374 4294 2374 4333 2272 4333 
C 2214 4333 2195 4333 2144 4256 
L 179 1254 
L 179 1056 
L 1882 1056 
L 1882 499 
C 1882 269 1869 198 1395 198 
L 1261 198 
L 1261 0 
C 1523 19 1856 19 2125 19 
C 2394 19 2733 19 2995 0 
L 2995 198 
L 2861 198 
C 2387 198 2374 269 2374 499 
L 2374 1056 
L 3014 1056 
z
M 1920 1254 
L 358 1254 
L 1920 3642 
L 1920 1254 
z
" transform="scale(0.015625)"/>
       </defs>
       <use xlink:href="#LatinModernMath-Regular-34" transform="translate(0 0.296875)"/>
       <use xlink:href="#LatinModernMath-Regular-30" transform="translate(49.999985 0.296875)"/>
       <use xlink:href="#LatinModernMath-Regular-30" transform="translate(99.999969 0.296875)"/>
      </g>
     </g>
    </g>
    <g id="ytick_4">
     <g id="line2d_24">
      <g>
       <use xlink:href="#mc947610920" x="67.34" y="76.260119" style="fill: #1a1a1a; stroke: #1a1a1a; stroke-width: 0.8"/>
      </g>
     </g>
     <g id="text_4">
      <!-- $\mathdefault{600}$ -->
      <g style="fill: #1a1a1a" transform="translate(39.84 81.465587) scale(0.15 -0.15)">
       <defs>
        <path id="LatinModernMath-Regular-36" d="M 2925 1306 
C 2925 2118 2355 2733 1645 2733 
C 1210 2733 973 2406 845 2099 
L 845 2253 
C 845 3872 1638 4102 1965 4102 
C 2118 4102 2387 4064 2528 3846 
C 2432 3846 2176 3846 2176 3558 
C 2176 3360 2330 3264 2470 3264 
C 2573 3264 2765 3322 2765 3571 
C 2765 3955 2483 4262 1952 4262 
C 1133 4262 269 3437 269 2022 
C 269 314 1011 -141 1606 -141 
C 2317 -141 2925 461 2925 1306 
z
M 2349 1312 
C 2349 1005 2349 685 2240 454 
C 2048 70 1754 38 1606 38 
C 1203 38 1011 422 973 518 
C 858 819 858 1331 858 1446 
C 858 1946 1062 2586 1638 2586 
C 1741 2586 2035 2586 2234 2189 
C 2349 1952 2349 1626 2349 1312 
z
" transform="scale(0.015625)"/>
       </defs>
       <use xlink:href="#LatinModernMath-Regular-36" transform="translate(0 0.40625)"/>
       <use xlink:href="#LatinModernMath-Regular-30" transform="translate(49.999985 0.40625)"/>
       <use xlink:href="#LatinModernMath-Regular-30" transform="translate(99.999969 0.40625)"/>
      </g>
     </g>
    </g>
    <g id="ytick_5">
     <g id="line2d_25">
      <g>
       <use xlink:href="#mc947610920" x="67.34" y="30.517367" style="fill: #1a1a1a; stroke: #1a1a1a; stroke-width: 0.8"/>
      </g>
     </g>
     <g id="text_5">
      <!-- $\mathdefault{800}$ -->
      <g style="fill: #1a1a1a" transform="translate(39.84 35.722836) scale(0.15 -0.15)">
       <defs>
        <path id="LatinModernMath-Regular-38" d="M 2925 1075 
C 2925 1306 2854 1594 2611 1862 
C 2490 1997 2387 2061 1978 2317 
C 2438 2554 2752 2886 2752 3309 
C 2752 3898 2182 4262 1600 4262 
C 960 4262 442 3789 442 3194 
C 442 3078 454 2790 723 2490 
C 794 2413 1030 2253 1190 2144 
C 819 1958 269 1600 269 966 
C 269 288 922 -141 1594 -141 
C 2317 -141 2925 390 2925 1075 
z
M 2470 3309 
C 2470 2944 2221 2637 1837 2413 
L 1043 2925 
C 749 3117 723 3334 723 3443 
C 723 3834 1139 4102 1594 4102 
C 2061 4102 2470 3770 2470 3309 
z
M 2605 845 
C 2605 371 2125 38 1600 38 
C 1050 38 589 435 589 966 
C 589 1338 794 1747 1338 2048 
L 2125 1549 
C 2304 1427 2605 1235 2605 845 
z
" transform="scale(0.015625)"/>
       </defs>
       <use xlink:href="#LatinModernMath-Regular-38" transform="translate(0 0.40625)"/>
       <use xlink:href="#LatinModernMath-Regular-30" transform="translate(49.999985 0.40625)"/>
       <use xlink:href="#LatinModernMath-Regular-30" transform="translate(99.999969 0.40625)"/>
      </g>
     </g>
    </g>
    <g id="ytick_6">
     <g id="line2d_26">
      <defs>
       <path id="m5f9d1e6504" d="M 0 0 
L 3 0 
" style="stroke: #1a1a1a; stroke-width: 0.6"/>
      </defs>
      <g>
       <use xlink:href="#m5f9d1e6504" x="67.34" y="202.052684" style="fill: #1a1a1a; stroke: #1a1a1a; stroke-width: 0.6"/>
      </g>
     </g>
    </g>
    <g id="ytick_7">
     <g id="line2d_27">
      <g>
       <use xlink:href="#m5f9d1e6504" x="67.34" y="190.616997" style="fill: #1a1a1a; stroke: #1a1a1a; stroke-width: 0.6"/>
      </g>
     </g>
    </g>
    <g id="ytick_8">
     <g id="line2d_28">
      <g>
       <use xlink:href="#m5f9d1e6504" x="67.34" y="179.181309" style="fill: #1a1a1a; stroke: #1a1a1a; stroke-width: 0.6"/>
      </g>
     </g>
    </g>
    <g id="ytick_9">
     <g id="line2d_29">
      <g>
       <use xlink:href="#m5f9d1e6504" x="67.34" y="156.309933" style="fill: #1a1a1a; stroke: #1a1a1a; stroke-width: 0.6"/>
      </g>
     </g>
    </g>
    <g id="ytick_10">
     <g id="line2d_30">
      <g>
       <use xlink:href="#m5f9d1e6504" x="67.34" y="144.874245" style="fill: #1a1a1a; stroke: #1a1a1a; stroke-width: 0.6"/>
      </g>
     </g>
    </g>
    <g id="ytick_11">
     <g id="line2d_31">
      <g>
       <use xlink:href="#m5f9d1e6504" x="67.34" y="133.438558" style="fill: #1a1a1a; stroke: #1a1a1a; stroke-width: 0.6"/>
      </g>
     </g>
    </g>
    <g id="ytick_12">
     <g id="line2d_32">
      <g>
       <use xlink:href="#m5f9d1e6504" x="67.34" y="110.567182" style="fill: #1a1a1a; stroke: #1a1a1a; stroke-width: 0.6"/>
      </g>
     </g>
    </g>
    <g id="ytick_13">
     <g id="line2d_33">
      <g>
       <use xlink:href="#m5f9d1e6504" x="67.34" y="99.131494" style="fill: #1a1a1a; stroke: #1a1a1a; stroke-width: 0.6"/>
      </g>
     </g>
    </g>
    <g id="ytick_14">
     <g id="line2d_34">
      <g>
       <use xlink:href="#m5f9d1e6504" x="67.34" y="87.695806" style="fill: #1a1a1a; stroke: #1a1a1a; stroke-width: 0.6"/>
      </g>
     </g>
    </g>
    <g id="ytick_15">
     <g id="line2d_35">
      <g>
       <use xlink:href="#m5f9d1e6504" x="67.34" y="64.824431" style="fill: #1a1a1a; stroke: #1a1a1a; stroke-width: 0.6"/>
      </g>
     </g>
    </g>
    <g id="ytick_16">
     <g id="line2d_36">
      <g>
       <use xlink:href="#m5f9d1e6504" x="67.34" y="53.388743" style="fill: #1a1a1a; stroke: #1a1a1a; stroke-width: 0.6"/>
      </g>
     </g>
    </g>
    <g id="ytick_17">
     <g id="line2d_37">
      <g>
       <use xlink:href="#m5f9d1e6504" x="67.34" y="41.953055" style="fill: #1a1a1a; stroke: #1a1a1a; stroke-width: 0.6"/>
      </g>
     </g>
    </g>
    <g id="ytick_18">
     <g id="line2d_38">
      <g>
       <use xlink:href="#m5f9d1e6504" x="67.34" y="19.08168" style="fill: #1a1a1a; stroke: #1a1a1a; stroke-width: 0.6"/>
      </g>
     </g>
    </g>
    <g id="ytick_19">
     <g id="line2d_39">
      <g>
       <use xlink:href="#m5f9d1e6504" x="67.34" y="7.645992" style="fill: #1a1a1a; stroke: #1a1a1a; stroke-width: 0.6"/>
      </g>
     </g>
    </g>
    <g id="text_6">
     <!-- Entries -->
     <g style="fill: #1a1a1a" transform="translate(30.346875 138.550749) rotate(-90) scale(0.18 -0.18)">
      <defs>
       <path id="LatinModernMath-Regular-45" d="M 4173 1651 
L 4013 1651 
C 3853 666 3706 198 2605 198 
L 1754 198 
C 1453 198 1440 243 1440 454 
L 1440 2163 
L 2016 2163 
C 2637 2163 2707 1958 2707 1414 
L 2867 1414 
L 2867 3110 
L 2707 3110 
C 2707 2560 2637 2362 2016 2362 
L 1440 2362 
L 1440 3898 
C 1440 4109 1453 4154 1754 4154 
L 2579 4154 
C 3558 4154 3731 3802 3834 2912 
L 3994 2912 
L 3814 4352 
L 211 4352 
L 211 4154 
L 365 4154 
C 858 4154 870 4083 870 3853 
L 870 499 
C 870 269 858 198 365 198 
L 211 198 
L 211 0 
L 3904 0 
L 4173 1651 
z
" transform="scale(0.015625)"/>
       <path id="LatinModernMath-Regular-6e" d="M 3424 0 
L 3424 198 
C 3091 198 2931 198 2925 390 
L 2925 1613 
C 2925 2163 2925 2362 2726 2592 
C 2637 2701 2426 2829 2054 2829 
C 1587 2829 1286 2554 1107 2157 
L 1107 2829 
L 205 2758 
L 205 2560 
C 653 2560 704 2515 704 2202 
L 704 486 
C 704 198 634 198 205 198 
L 205 0 
L 928 19 
L 1645 0 
L 1645 198 
C 1216 198 1146 198 1146 486 
L 1146 1664 
C 1146 2330 1600 2688 2010 2688 
C 2413 2688 2483 2342 2483 1978 
L 2483 486 
C 2483 198 2413 198 1984 198 
L 1984 0 
L 2707 19 
L 3424 0 
z
" transform="scale(0.015625)"/>
       <path id="LatinModernMath-Regular-74" d="M 2125 794 
L 2125 1158 
L 1965 1158 
L 1965 806 
C 1965 333 1773 90 1536 90 
C 1107 90 1107 672 1107 781 
L 1107 2560 
L 2022 2560 
L 2022 2758 
L 1107 2758 
L 1107 3936 
L 947 3936 
C 941 3411 749 2726 122 2701 
L 122 2560 
L 666 2560 
L 666 794 
C 666 6 1261 -70 1491 -70 
C 1946 -70 2125 384 2125 794 
z
" transform="scale(0.015625)"/>
       <path id="LatinModernMath-Regular-72" d="M 2330 2438 
C 2330 2643 2131 2829 1856 2829 
C 1389 2829 1158 2400 1069 2125 
L 1069 2829 
L 179 2758 
L 179 2560 
C 627 2560 678 2515 678 2202 
L 678 486 
C 678 198 608 198 179 198 
L 179 0 
L 909 19 
C 1165 19 1466 19 1722 0 
L 1722 198 
L 1587 198 
C 1114 198 1101 269 1101 499 
L 1101 1485 
C 1101 2118 1370 2688 1856 2688 
C 1901 2688 1914 2688 1926 2682 
C 1907 2675 1779 2598 1779 2432 
C 1779 2253 1914 2157 2054 2157 
C 2170 2157 2330 2234 2330 2438 
z
" transform="scale(0.015625)"/>
       <path id="LatinModernMath-Regular-69" d="M 1581 0 
L 1581 198 
C 1158 198 1133 230 1133 480 
L 1133 2829 
L 237 2758 
L 237 2560 
C 653 2560 710 2522 710 2208 
L 710 486 
C 710 198 640 198 211 198 
L 211 0 
L 915 19 
C 1139 19 1363 6 1581 0 
z
M 1229 3866 
C 1229 4038 1082 4205 890 4205 
C 672 4205 544 4026 544 3866 
C 544 3693 691 3526 883 3526 
C 1101 3526 1229 3706 1229 3866 
z
" transform="scale(0.015625)"/>
       <path id="LatinModernMath-Regular-65" d="M 2656 762 
C 2656 826 2605 838 2573 838 
C 2515 838 2502 800 2490 749 
C 2266 90 1690 90 1626 90 
C 1306 90 1050 282 902 518 
C 710 826 710 1248 710 1478 
L 2496 1478 
C 2637 1478 2656 1478 2656 1613 
C 2656 2246 2310 2867 1510 2867 
C 768 2867 179 2208 179 1408 
C 179 550 851 -70 1587 -70 
C 2368 -70 2656 640 2656 762 
z
M 2234 1613 
L 717 1613 
C 755 2566 1293 2726 1510 2726 
C 2170 2726 2234 1862 2234 1613 
z
" transform="scale(0.015625)"/>
       <path id="LatinModernMath-Regular-73" d="M 2304 819 
C 2304 1158 2112 1350 2035 1427 
C 1824 1632 1574 1683 1306 1734 
C 947 1805 518 1888 518 2259 
C 518 2483 685 2746 1235 2746 
C 1939 2746 1971 2170 1984 1971 
C 1990 1914 2061 1914 2061 1914 
C 2144 1914 2144 1946 2144 2067 
L 2144 2714 
C 2144 2822 2144 2867 2074 2867 
C 2042 2867 2029 2867 1946 2790 
C 1926 2765 1862 2707 1837 2688 
C 1594 2867 1331 2867 1235 2867 
C 454 2867 211 2438 211 2080 
C 211 1856 314 1677 486 1536 
C 691 1370 870 1331 1331 1242 
C 1472 1216 1997 1114 1997 653 
C 1997 326 1773 70 1274 70 
C 736 70 506 435 384 979 
C 365 1062 358 1088 294 1088 
C 211 1088 211 1043 211 928 
L 211 83 
C 211 -26 211 -70 282 -70 
C 314 -70 320 -64 442 58 
C 454 70 454 83 570 205 
C 851 -64 1139 -70 1274 -70 
C 2010 -70 2304 358 2304 819 
z
" transform="scale(0.015625)"/>
      </defs>
      <use xlink:href="#LatinModernMath-Regular-45"/>
      <use xlink:href="#LatinModernMath-Regular-6e" x="68.099991"/>
      <use xlink:href="#LatinModernMath-Regular-74" x="123.699982"/>
      <use xlink:href="#LatinModernMath-Regular-72" x="162.599976"/>
      <use xlink:href="#LatinModernMath-Regular-69" x="201.799973"/>
      <use xlink:href="#LatinModernMath-Regular-65" x="229.59996"/>
      <use xlink:href="#LatinModernMath-Regular-73" x="273.999954"/>
     </g>
    </g>
   </g>
   <g id="legend_1">
    <g id="patch_9">
     <path d="M 346.46 26.4 
L 370.46 26.4 
L 370.46 18 
L 346.46 18 
L 346.46 26.4 
z
" style="fill: none; stroke: #348abd; stroke-linejoin: miter"/>
    </g>
    <g id="text_7">
     <!-- $h_1$ -->
     <g style="fill: #1a1a1a" transform="translate(380.06 26.4) scale(0.12 -0.12)">
      <defs>
       <path id="LatinModernMath-Regular-68" d="M 3424 0 
L 3424 198 
C 3091 198 2931 198 2925 390 
L 2925 1613 
C 2925 2163 2925 2362 2726 2592 
C 2637 2701 2426 2829 2054 2829 
C 1517 2829 1235 2445 1133 2214 
L 1126 2214 
L 1126 4442 
L 205 4371 
L 205 4173 
C 653 4173 704 4128 704 3814 
L 704 486 
C 704 198 634 198 205 198 
L 205 0 
L 928 19 
L 1645 0 
L 1645 198 
C 1216 198 1146 198 1146 486 
L 1146 1664 
C 1146 2330 1600 2688 2010 2688 
C 2413 2688 2483 2342 2483 1978 
L 2483 486 
C 2483 198 2413 198 1984 198 
L 1984 0 
L 2707 19 
L 3424 0 
z
" transform="scale(0.015625)"/>
       <path id="LatinModernMath-Regular-31" d="M 2682 0 
L 2682 198 
L 2477 198 
C 1901 198 1882 269 1882 506 
L 1882 4096 
C 1882 4250 1882 4262 1734 4262 
C 1338 3853 774 3853 570 3853 
L 570 3654 
C 698 3654 1075 3654 1408 3821 
L 1408 506 
C 1408 275 1389 198 813 198 
L 608 198 
L 608 0 
C 832 19 1389 19 1645 19 
C 1901 19 2458 19 2682 0 
z
" transform="scale(0.015625)"/>
      </defs>
      <use xlink:href="#LatinModernMath-Regular-68" transform="translate(0 0.59375)"/>
      <use xlink:href="#LatinModernMath-Regular-31" transform="translate(56.354131 -12.334375) scale(0.7)"/>
     </g>
    </g>
    <g id="patch_10">
     <path d="M 346.46 43.12875 
L 370.46 43.12875 
L 370.46 34.72875 
L 346.46 34.72875 
L 346.46 43.12875 
z
" style="fill: none; stroke: #e24a33; stroke-linejoin: miter"/>
    </g>
    <g id="text_8">
     <!-- $h_2$ -->
     <g style="fill: #1a1a1a" transform="translate(380.06 43.12875) scale(0.12 -0.12)">
      <use xlink:href="#LatinModernMath-Regular-68" transform="translate(0 0.59375)"/>
      <use xlink:href="#LatinModernMath-Regular-32" transform="translate(56.354131 -12.334375) scale(0.7)"/>
     </g>
    </g>
   </g>
  </g>
  <g id="axes_2">
   <g id="patch_11">
    <path d="M 67.34 284.4 
L 402.14 284.4 
L 402.14 232.827907 
L 67.34 232.827907 
z
" style="fill: #ffffff"/>
   </g>
   <g id="LineCollection_1">
    <path clip-path="url(#paea68d8b47)" style="fill: none; stroke: #000000; stroke-width: 1.5"/>
    <path clip-path="url(#paea68d8b47)" style="fill: none; stroke: #000000; stroke-width: 1.5"/>
    <path clip-path="url(#paea68d8b47)" style="fill: none; stroke: #000000; stroke-width: 1.5"/>
    <path d="M 90.776 320.866977 
L 90.776 247.933023 
" clip-path="url(#paea68d8b47)" style="fill: none; stroke: #000000; stroke-width: 1.5"/>
    <path d="M 97.472 320.866977 
L 97.472 247.933023 
" clip-path="url(#paea68d8b47)" style="fill: none; stroke: #000000; stroke-width: 1.5"/>
    <path d="M 104.168 282.90219 
L 104.168 251.516414 
" clip-path="url(#paea68d8b47)" style="fill: none; stroke: #000000; stroke-width: 1.5"/>
    <path d="M 110.864 266.057744 
L 110.864 251.170163 
" clip-path="url(#paea68d8b47)" style="fill: none; stroke: #000000; stroke-width: 1.5"/>
    <path d="M 117.56 273.148779 
L 117.56 258.814012 
" clip-path="url(#paea68d8b47)" style="fill: none; stroke: #000000; stroke-width: 1.5"/>
    <path d="M 124.256 266.801623 
L 124.256 257.302563 
" clip-path="url(#paea68d8b47)" style="fill: none; stroke: #000000; stroke-width: 1.5"/>
    <path d="M 130.952 263.413497 
L 130.952 255.963247 
" clip-path="url(#paea68d8b47)" style="fill: none; stroke: #000000; stroke-width: 1.5"/>
    <path d="M 137.648 265.499649 
L 137.648 259.932909 
" clip-path="url(#paea68d8b47)" style="fill: none; stroke: #000000; stroke-width: 1.5"/>
    <path d="M 144.344 254.706035 
L 144.344 250.57224 
" clip-path="url(#paea68d8b47)" style="fill: none; stroke: #000000; stroke-width: 1.5"/>
    <path d="M 151.04 254.484499 
L 151.04 250.981351 
" clip-path="url(#paea68d8b47)" style="fill: none; stroke: #000000; stroke-width: 1.5"/>
    <path d="M 157.736 252.280387 
L 157.736 249.207985 
" clip-path="url(#paea68d8b47)" style="fill: none; stroke: #000000; stroke-width: 1.5"/>
    <path d="M 164.432 251.785724 
L 164.432 249.149812 
" clip-path="url(#paea68d8b47)" style="fill: none; stroke: #000000; stroke-width: 1.5"/>
    <path d="M 171.128 252.279749 
L 171.128 250.016984 
" clip-path="url(#paea68d8b47)" style="fill: none; stroke: #000000; stroke-width: 1.5"/>
    <path d="M 177.824 248.321199 
L 177.824 246.197405 
" clip-path="url(#paea68d8b47)" style="fill: none; stroke: #000000; stroke-width: 1.5"/>
    <path d="M 184.52 249.208612 
L 184.52 247.218771 
" clip-path="url(#paea68d8b47)" style="fill: none; stroke: #000000; stroke-width: 1.5"/>
    <path d="M 191.216 249.53236 
L 191.216 247.57143 
" clip-path="url(#paea68d8b47)" style="fill: none; stroke: #000000; stroke-width: 1.5"/>
    <path d="M 197.912 250.288013 
L 197.912 248.393657 
" clip-path="url(#paea68d8b47)" style="fill: none; stroke: #000000; stroke-width: 1.5"/>
    <path d="M 204.608 252.851567 
L 204.608 250.967596 
" clip-path="url(#paea68d8b47)" style="fill: none; stroke: #000000; stroke-width: 1.5"/>
    <path d="M 211.304 253.779488 
L 211.304 251.960797 
" clip-path="url(#paea68d8b47)" style="fill: none; stroke: #000000; stroke-width: 1.5"/>
    <path d="M 218 257.796308 
L 218 256.041046 
" clip-path="url(#paea68d8b47)" style="fill: none; stroke: #000000; stroke-width: 1.5"/>
    <path d="M 224.696 259.700824 
L 224.696 258.053328 
" clip-path="url(#paea68d8b47)" style="fill: none; stroke: #000000; stroke-width: 1.5"/>
    <path d="M 231.392 261.106582 
L 231.392 259.520616 
" clip-path="url(#paea68d8b47)" style="fill: none; stroke: #000000; stroke-width: 1.5"/>
    <path d="M 238.088 263.068503 
L 238.088 261.586453 
" clip-path="url(#paea68d8b47)" style="fill: none; stroke: #000000; stroke-width: 1.5"/>
    <path d="M 244.784 264.185924 
L 244.784 262.774677 
" clip-path="url(#paea68d8b47)" style="fill: none; stroke: #000000; stroke-width: 1.5"/>
    <path d="M 251.48 264.111447 
L 251.48 262.732803 
" clip-path="url(#paea68d8b47)" style="fill: none; stroke: #000000; stroke-width: 1.5"/>
    <path d="M 258.176 263.280143 
L 258.176 261.895891 
" clip-path="url(#paea68d8b47)" style="fill: none; stroke: #000000; stroke-width: 1.5"/>
    <path d="M 264.872 264.23831 
L 264.872 262.827048 
" clip-path="url(#paea68d8b47)" style="fill: none; stroke: #000000; stroke-width: 1.5"/>
    <path d="M 271.568 264.093642 
L 271.568 262.637527 
" clip-path="url(#paea68d8b47)" style="fill: none; stroke: #000000; stroke-width: 1.5"/>
    <path d="M 278.264 265.207378 
L 278.264 263.633393 
" clip-path="url(#paea68d8b47)" style="fill: none; stroke: #000000; stroke-width: 1.5"/>
    <path d="M 284.96 264.232105 
L 284.96 262.500364 
" clip-path="url(#paea68d8b47)" style="fill: none; stroke: #000000; stroke-width: 1.5"/>
    <path d="M 291.656 262.600172 
L 291.656 260.718927 
" clip-path="url(#paea68d8b47)" style="fill: none; stroke: #000000; stroke-width: 1.5"/>
    <path d="M 298.352 263.182282 
L 298.352 260.953447 
" clip-path="url(#paea68d8b47)" style="fill: none; stroke: #000000; stroke-width: 1.5"/>
    <path d="M 305.048 263.026999 
L 305.048 260.400111 
" clip-path="url(#paea68d8b47)" style="fill: none; stroke: #000000; stroke-width: 1.5"/>
    <path d="M 311.744 263.36122 
L 311.744 260.335051 
" clip-path="url(#paea68d8b47)" style="fill: none; stroke: #000000; stroke-width: 1.5"/>
    <path d="M 318.44 260.661049 
L 318.44 256.848673 
" clip-path="url(#paea68d8b47)" style="fill: none; stroke: #000000; stroke-width: 1.5"/>
    <path d="M 325.136 260.590429 
L 325.136 255.716548 
" clip-path="url(#paea68d8b47)" style="fill: none; stroke: #000000; stroke-width: 1.5"/>
    <path d="M 331.832 257.952637 
L 331.832 252.094346 
" clip-path="url(#paea68d8b47)" style="fill: none; stroke: #000000; stroke-width: 1.5"/>
    <path d="M 338.528 259.526253 
L 338.528 251.412375 
" clip-path="url(#paea68d8b47)" style="fill: none; stroke: #000000; stroke-width: 1.5"/>
    <path d="M 345.224 261.830042 
L 345.224 250.240656 
" clip-path="url(#paea68d8b47)" style="fill: none; stroke: #000000; stroke-width: 1.5"/>
    <path d="M 351.92 255.829063 
L 351.92 242.059309 
" clip-path="url(#paea68d8b47)" style="fill: none; stroke: #000000; stroke-width: 1.5"/>
    <path d="M 358.616 253.882126 
L 358.616 211.773688 
" clip-path="url(#paea68d8b47)" style="fill: none; stroke: #000000; stroke-width: 1.5"/>
    <path d="M 365.312 269.141063 
L 365.312 248.086844 
" clip-path="url(#paea68d8b47)" style="fill: none; stroke: #000000; stroke-width: 1.5"/>
    <path d="M 372.008 276.847442 
L 372.008 240.380465 
" clip-path="url(#paea68d8b47)" style="fill: none; stroke: #000000; stroke-width: 1.5"/>
    <path clip-path="url(#paea68d8b47)" style="fill: none; stroke: #000000; stroke-width: 1.5"/>
    <path clip-path="url(#paea68d8b47)" style="fill: none; stroke: #000000; stroke-width: 1.5"/>
    <path clip-path="url(#paea68d8b47)" style="fill: none; stroke: #000000; stroke-width: 1.5"/>
    <path d="M 398.792 269.294884 
L 398.792 196.36093 
" clip-path="url(#paea68d8b47)" style="fill: none; stroke: #000000; stroke-width: 1.5"/>
   </g>
   <g id="line2d_40">
    <path d="M 67.34 258.613953 
L 402.14 258.613953 
" clip-path="url(#paea68d8b47)" style="fill: none; stroke-dasharray: 3.7,1.6; stroke-dashoffset: 0; stroke: #000000"/>
   </g>
   <g id="line2d_41">
    <defs>
     <path id="meae5c0c399" d="M 0 1.5 
C 0.397805 1.5 0.77937 1.341951 1.06066 1.06066 
C 1.341951 0.77937 1.5 0.397805 1.5 0 
C 1.5 -0.397805 1.341951 -0.77937 1.06066 -1.06066 
C 0.77937 -1.341951 0.397805 -1.5 0 -1.5 
C -0.397805 -1.5 -0.77937 -1.341951 -1.06066 -1.06066 
C -1.341951 -0.77937 -1.5 -0.397805 -1.5 0 
C -1.5 0.397805 -1.341951 0.77937 -1.06066 1.06066 
C -0.77937 1.341951 -0.397805 1.5 0 1.5 
z
" style="stroke: #000000"/>
    </defs>
    <g clip-path="url(#paea68d8b47)">
     <use xlink:href="#meae5c0c399" x="90.776" y="284.4" style="stroke: #000000"/>
     <use xlink:href="#meae5c0c399" x="97.472" y="284.4" style="stroke: #000000"/>
     <use xlink:href="#meae5c0c399" x="104.168" y="267.209302" style="stroke: #000000"/>
     <use xlink:href="#meae5c0c399" x="110.864" y="258.613953" style="stroke: #000000"/>
     <use xlink:href="#meae5c0c399" x="117.56" y="265.981395" style="stroke: #000000"/>
     <use xlink:href="#meae5c0c399" x="124.256" y="262.052093" style="stroke: #000000"/>
     <use xlink:href="#meae5c0c399" x="130.952" y="259.688372" style="stroke: #000000"/>
     <use xlink:href="#meae5c0c399" x="137.648" y="262.716279" style="stroke: #000000"/>
     <use xlink:href="#meae5c0c399" x="144.344" y="252.639138" style="stroke: #000000"/>
     <use xlink:href="#meae5c0c399" x="151.04" y="252.732925" style="stroke: #000000"/>
     <use xlink:href="#meae5c0c399" x="157.736" y="250.744186" style="stroke: #000000"/>
     <use xlink:href="#meae5c0c399" x="164.432" y="250.467768" style="stroke: #000000"/>
     <use xlink:href="#meae5c0c399" x="171.128" y="251.148366" style="stroke: #000000"/>
     <use xlink:href="#meae5c0c399" x="177.824" y="247.259302" style="stroke: #000000"/>
     <use xlink:href="#meae5c0c399" x="184.52" y="248.213691" style="stroke: #000000"/>
     <use xlink:href="#meae5c0c399" x="191.216" y="248.551895" style="stroke: #000000"/>
     <use xlink:href="#meae5c0c399" x="197.912" y="249.340835" style="stroke: #000000"/>
     <use xlink:href="#meae5c0c399" x="204.608" y="251.909581" style="stroke: #000000"/>
     <use xlink:href="#meae5c0c399" x="211.304" y="252.870142" style="stroke: #000000"/>
     <use xlink:href="#meae5c0c399" x="218" y="256.918677" style="stroke: #000000"/>
     <use xlink:href="#meae5c0c399" x="224.696" y="258.877076" style="stroke: #000000"/>
     <use xlink:href="#meae5c0c399" x="231.392" y="260.313599" style="stroke: #000000"/>
     <use xlink:href="#meae5c0c399" x="238.088" y="262.327478" style="stroke: #000000"/>
     <use xlink:href="#meae5c0c399" x="244.784" y="263.480301" style="stroke: #000000"/>
     <use xlink:href="#meae5c0c399" x="251.48" y="263.422125" style="stroke: #000000"/>
     <use xlink:href="#meae5c0c399" x="258.176" y="262.588017" style="stroke: #000000"/>
     <use xlink:href="#meae5c0c399" x="264.872" y="263.532679" style="stroke: #000000"/>
     <use xlink:href="#meae5c0c399" x="271.568" y="263.365584" style="stroke: #000000"/>
     <use xlink:href="#meae5c0c399" x="278.264" y="264.420386" style="stroke: #000000"/>
     <use xlink:href="#meae5c0c399" x="284.96" y="263.366235" style="stroke: #000000"/>
     <use xlink:href="#meae5c0c399" x="291.656" y="261.65955" style="stroke: #000000"/>
     <use xlink:href="#meae5c0c399" x="298.352" y="262.067864" style="stroke: #000000"/>
     <use xlink:href="#meae5c0c399" x="305.048" y="261.713555" style="stroke: #000000"/>
     <use xlink:href="#meae5c0c399" x="311.744" y="261.848136" style="stroke: #000000"/>
     <use xlink:href="#meae5c0c399" x="318.44" y="258.754861" style="stroke: #000000"/>
     <use xlink:href="#meae5c0c399" x="325.136" y="258.153488" style="stroke: #000000"/>
     <use xlink:href="#meae5c0c399" x="331.832" y="255.023491" style="stroke: #000000"/>
     <use xlink:href="#meae5c0c399" x="338.528" y="255.469314" style="stroke: #000000"/>
     <use xlink:href="#meae5c0c399" x="345.224" y="256.035349" style="stroke: #000000"/>
     <use xlink:href="#meae5c0c399" x="351.92" y="248.944186" style="stroke: #000000"/>
     <use xlink:href="#meae5c0c399" x="358.616" y="232.827907" style="stroke: #000000"/>
     <use xlink:href="#meae5c0c399" x="365.312" y="258.613953" style="stroke: #000000"/>
     <use xlink:href="#meae5c0c399" x="372.008" y="258.613953" style="stroke: #000000"/>
     <use xlink:href="#meae5c0c399" x="398.792" y="232.827907" style="stroke: #000000"/>
    </g>
   </g>
   <g id="patch_12">
    <path d="M 67.34 284.4 
L 67.34 232.827907 
" style="fill: none; stroke: #000000; stroke-linejoin: miter; stroke-linecap: square"/>
   </g>
   <g id="patch_13">
    <path d="M 402.14 284.4 
L 402.14 232.827907 
" style="fill: none; stroke: #000000; stroke-linejoin: miter; stroke-linecap: square"/>
   </g>
   <g id="patch_14">
    <path d="M 67.34 284.4 
L 402.14 284.4 
" style="fill: none; stroke: #000000; stroke-linejoin: miter; stroke-linecap: square"/>
   </g>
   <g id="patch_15">
    <path d="M 67.34 232.827907 
L 402.14 232.827907 
" style="fill: none; stroke: #000000; stroke-linejoin: miter; stroke-linecap: square"/>
   </g>
   <g id="matplotlib.axis_3">
    <g id="xtick_21">
     <g id="line2d_42">
      <g>
       <use xlink:href="#m8dec1b3d1d" x="138.152035" y="284.4" style="fill: #1a1a1a; stroke: #1a1a1a; stroke-width: 0.8"/>
      </g>
     </g>
     <g id="text_9">
      <!-- $\mathdefault{−5}$ -->
      <g style="fill: #1a1a1a" transform="translate(128.552035 302.810938) scale(0.15 -0.15)">
       <defs>
        <path id="LatinModernMath-Regular-2212" d="M 4621 1600 
C 4621 1670 4563 1728 4493 1728 
L 486 1728 
C 416 1728 358 1670 358 1600 
C 358 1530 416 1472 486 1472 
L 4493 1472 
C 4563 1472 4621 1530 4621 1600 
z
" transform="scale(0.015625)"/>
        <path id="LatinModernMath-Regular-35" d="M 2874 1286 
C 2874 2048 2349 2688 1658 2688 
C 1350 2688 1075 2586 845 2362 
L 845 3610 
C 973 3571 1184 3526 1389 3526 
C 2176 3526 2624 4109 2624 4192 
C 2624 4230 2605 4262 2560 4262 
C 2560 4262 2541 4262 2509 4243 
C 2381 4186 2067 4058 1638 4058 
C 1382 4058 1088 4102 787 4237 
C 736 4256 710 4256 710 4256 
C 646 4256 646 4205 646 4102 
L 646 2208 
C 646 2093 646 2042 736 2042 
C 781 2042 794 2061 819 2099 
C 890 2202 1126 2547 1645 2547 
C 1978 2547 2138 2253 2189 2138 
C 2291 1901 2304 1651 2304 1331 
C 2304 1107 2304 723 2150 454 
C 1997 205 1760 38 1466 38 
C 998 38 634 378 525 755 
C 544 749 563 742 634 742 
C 845 742 954 902 954 1056 
C 954 1210 845 1370 634 1370 
C 544 1370 320 1325 320 1030 
C 320 480 762 -141 1478 -141 
C 2221 -141 2874 474 2874 1286 
z
" transform="scale(0.015625)"/>
       </defs>
       <use xlink:href="#LatinModernMath-Regular-2212" transform="translate(0 0.40625)"/>
       <use xlink:href="#LatinModernMath-Regular-35" transform="translate(77.799988 0.40625)"/>
      </g>
     </g>
    </g>
    <g id="xtick_22">
     <g id="line2d_43">
      <g>
       <use xlink:href="#m8dec1b3d1d" x="224.306179" y="284.4" style="fill: #1a1a1a; stroke: #1a1a1a; stroke-width: 0.8"/>
      </g>
     </g>
     <g id="text_10">
      <!-- $\mathdefault{0}$ -->
      <g style="fill: #1a1a1a" transform="translate(220.556179 302.810938) scale(0.15 -0.15)">
       <use xlink:href="#LatinModernMath-Regular-30" transform="translate(0 0.40625)"/>
      </g>
     </g>
    </g>
    <g id="xtick_23">
     <g id="line2d_44">
      <g>
       <use xlink:href="#m8dec1b3d1d" x="310.460322" y="284.4" style="fill: #1a1a1a; stroke: #1a1a1a; stroke-width: 0.8"/>
      </g>
     </g>
     <g id="text_11">
      <!-- $\mathdefault{5}$ -->
      <g style="fill: #1a1a1a" transform="translate(306.710322 302.810938) scale(0.15 -0.15)">
       <use xlink:href="#LatinModernMath-Regular-35" transform="translate(0 0.40625)"/>
      </g>
     </g>
    </g>
    <g id="xtick_24">
     <g id="line2d_45">
      <g>
       <use xlink:href="#m8dec1b3d1d" x="396.614466" y="284.4" style="fill: #1a1a1a; stroke: #1a1a1a; stroke-width: 0.8"/>
      </g>
     </g>
     <g id="text_12">
      <!-- $\mathdefault{10}$ -->
      <g style="fill: #1a1a1a" transform="translate(389.114466 302.810938) scale(0.15 -0.15)">
       <use xlink:href="#LatinModernMath-Regular-31" transform="translate(0 0.40625)"/>
       <use xlink:href="#LatinModernMath-Regular-30" transform="translate(49.999985 0.40625)"/>
      </g>
     </g>
    </g>
    <g id="xtick_25">
     <g id="line2d_46">
      <g>
       <use xlink:href="#m131efc0c90" x="69.228721" y="284.4" style="fill: #1a1a1a; stroke: #1a1a1a; stroke-width: 0.6"/>
      </g>
     </g>
    </g>
    <g id="xtick_26">
     <g id="line2d_47">
      <g>
       <use xlink:href="#m131efc0c90" x="86.459549" y="284.4" style="fill: #1a1a1a; stroke: #1a1a1a; stroke-width: 0.6"/>
      </g>
     </g>
    </g>
    <g id="xtick_27">
     <g id="line2d_48">
      <g>
       <use xlink:href="#m131efc0c90" x="103.690378" y="284.4" style="fill: #1a1a1a; stroke: #1a1a1a; stroke-width: 0.6"/>
      </g>
     </g>
    </g>
    <g id="xtick_28">
     <g id="line2d_49">
      <g>
       <use xlink:href="#m131efc0c90" x="120.921207" y="284.4" style="fill: #1a1a1a; stroke: #1a1a1a; stroke-width: 0.6"/>
      </g>
     </g>
    </g>
    <g id="xtick_29">
     <g id="line2d_50">
      <g>
       <use xlink:href="#m131efc0c90" x="155.382864" y="284.4" style="fill: #1a1a1a; stroke: #1a1a1a; stroke-width: 0.6"/>
      </g>
     </g>
    </g>
    <g id="xtick_30">
     <g id="line2d_51">
      <g>
       <use xlink:href="#m131efc0c90" x="172.613693" y="284.4" style="fill: #1a1a1a; stroke: #1a1a1a; stroke-width: 0.6"/>
      </g>
     </g>
    </g>
    <g id="xtick_31">
     <g id="line2d_52">
      <g>
       <use xlink:href="#m131efc0c90" x="189.844521" y="284.4" style="fill: #1a1a1a; stroke: #1a1a1a; stroke-width: 0.6"/>
      </g>
     </g>
    </g>
    <g id="xtick_32">
     <g id="line2d_53">
      <g>
       <use xlink:href="#m131efc0c90" x="207.07535" y="284.4" style="fill: #1a1a1a; stroke: #1a1a1a; stroke-width: 0.6"/>
      </g>
     </g>
    </g>
    <g id="xtick_33">
     <g id="line2d_54">
      <g>
       <use xlink:href="#m131efc0c90" x="241.537007" y="284.4" style="fill: #1a1a1a; stroke: #1a1a1a; stroke-width: 0.6"/>
      </g>
     </g>
    </g>
    <g id="xtick_34">
     <g id="line2d_55">
      <g>
       <use xlink:href="#m131efc0c90" x="258.767836" y="284.4" style="fill: #1a1a1a; stroke: #1a1a1a; stroke-width: 0.6"/>
      </g>
     </g>
    </g>
    <g id="xtick_35">
     <g id="line2d_56">
      <g>
       <use xlink:href="#m131efc0c90" x="275.998665" y="284.4" style="fill: #1a1a1a; stroke: #1a1a1a; stroke-width: 0.6"/>
      </g>
     </g>
    </g>
    <g id="xtick_36">
     <g id="line2d_57">
      <g>
       <use xlink:href="#m131efc0c90" x="293.229494" y="284.4" style="fill: #1a1a1a; stroke: #1a1a1a; stroke-width: 0.6"/>
      </g>
     </g>
    </g>
    <g id="xtick_37">
     <g id="line2d_58">
      <g>
       <use xlink:href="#m131efc0c90" x="327.691151" y="284.4" style="fill: #1a1a1a; stroke: #1a1a1a; stroke-width: 0.6"/>
      </g>
     </g>
    </g>
    <g id="xtick_38">
     <g id="line2d_59">
      <g>
       <use xlink:href="#m131efc0c90" x="344.92198" y="284.4" style="fill: #1a1a1a; stroke: #1a1a1a; stroke-width: 0.6"/>
      </g>
     </g>
    </g>
    <g id="xtick_39">
     <g id="line2d_60">
      <g>
       <use xlink:href="#m131efc0c90" x="362.152808" y="284.4" style="fill: #1a1a1a; stroke: #1a1a1a; stroke-width: 0.6"/>
      </g>
     </g>
    </g>
    <g id="xtick_40">
     <g id="line2d_61">
      <g>
       <use xlink:href="#m131efc0c90" x="379.383637" y="284.4" style="fill: #1a1a1a; stroke: #1a1a1a; stroke-width: 0.6"/>
      </g>
     </g>
    </g>
    <g id="text_13">
     <!-- variable_1 -->
     <g style="fill: #1a1a1a" transform="translate(195.959844 324.215) scale(0.18 -0.18)">
      <defs>
       <path id="LatinModernMath-Regular-76" d="M 3251 2560 
L 3251 2758 
C 3104 2746 2918 2739 2771 2739 
L 2214 2758 
L 2214 2560 
C 2451 2554 2522 2406 2522 2285 
C 2522 2227 2509 2202 2483 2131 
L 1830 499 
L 1114 2285 
C 1075 2368 1075 2394 1075 2394 
C 1075 2560 1325 2560 1440 2560 
L 1440 2758 
L 742 2739 
C 570 2739 314 2746 122 2758 
L 122 2560 
C 525 2560 550 2522 634 2323 
L 1555 51 
C 1594 -38 1606 -70 1690 -70 
C 1773 -70 1798 -13 1824 51 
L 2662 2131 
C 2720 2278 2829 2554 3251 2560 
z
" transform="scale(0.015625)"/>
       <path id="LatinModernMath-Regular-61" d="M 3091 570 
L 3091 928 
L 2931 928 
L 2931 570 
C 2931 198 2771 160 2701 160 
C 2490 160 2464 448 2464 480 
L 2464 1760 
C 2464 2029 2464 2278 2234 2515 
C 1984 2765 1664 2867 1357 2867 
C 832 2867 390 2566 390 2144 
C 390 1952 518 1843 685 1843 
C 864 1843 979 1971 979 2138 
C 979 2214 947 2426 653 2432 
C 826 2656 1139 2726 1344 2726 
C 1658 2726 2022 2477 2022 1907 
L 2022 1670 
C 1696 1651 1248 1632 845 1440 
C 365 1222 205 890 205 608 
C 205 90 826 -70 1229 -70 
C 1651 -70 1946 186 2067 486 
C 2093 230 2266 -38 2566 -38 
C 2701 -38 3091 51 3091 570 
z
M 2022 896 
C 2022 288 1562 70 1274 70 
C 960 70 698 294 698 614 
C 698 966 966 1498 2022 1536 
L 2022 896 
z
" transform="scale(0.015625)"/>
       <path id="LatinModernMath-Regular-62" d="M 3334 1382 
C 3334 2195 2707 2829 1978 2829 
C 1478 2829 1203 2528 1101 2413 
L 1101 4442 
L 179 4371 
L 179 4173 
C 627 4173 678 4128 678 3814 
L 678 0 
L 838 0 
L 1069 397 
C 1165 250 1434 -70 1907 -70 
C 2669 -70 3334 557 3334 1382 
z
M 2803 1389 
C 2803 1152 2790 768 2605 480 
C 2470 282 2227 70 1882 70 
C 1594 70 1363 224 1210 461 
C 1120 595 1120 614 1120 730 
L 1120 2048 
C 1120 2170 1120 2176 1190 2278 
C 1440 2637 1792 2688 1946 2688 
C 2234 2688 2464 2522 2618 2278 
C 2784 2016 2803 1651 2803 1389 
z
" transform="scale(0.015625)"/>
       <path id="LatinModernMath-Regular-6c" d="M 1632 0 
L 1632 198 
C 1203 198 1133 198 1133 486 
L 1133 4442 
L 211 4371 
L 211 4173 
C 659 4173 710 4128 710 3814 
L 710 486 
C 710 198 640 198 211 198 
L 211 0 
L 922 19 
L 1632 0 
z
" transform="scale(0.015625)"/>
       <path id="LatinModernMath-Regular-5f" d="M 2131 -896 
L 2131 -640 
L 0 -640 
L 0 -896 
L 2131 -896 
z
" transform="scale(0.015625)"/>
      </defs>
      <use xlink:href="#LatinModernMath-Regular-76"/>
      <use xlink:href="#LatinModernMath-Regular-61" x="52.799988"/>
      <use xlink:href="#LatinModernMath-Regular-72" x="102.799973"/>
      <use xlink:href="#LatinModernMath-Regular-69" x="141.999969"/>
      <use xlink:href="#LatinModernMath-Regular-61" x="169.799957"/>
      <use xlink:href="#LatinModernMath-Regular-62" x="219.799942"/>
      <use xlink:href="#LatinModernMath-Regular-6c" x="275.399933"/>
      <use xlink:href="#LatinModernMath-Regular-65" x="303.199921"/>
      <use xlink:href="#LatinModernMath-Regular-5f" x="347.599915"/>
      <use xlink:href="#LatinModernMath-Regular-31" x="380.899902"/>
     </g>
    </g>
   </g>
   <g id="matplotlib.axis_4">
    <g id="ytick_20">
     <g id="line2d_62">
      <g>
       <use xlink:href="#mc947610920" x="67.34" y="284.4" style="fill: #1a1a1a; stroke: #1a1a1a; stroke-width: 0.8"/>
      </g>
     </g>
     <g id="text_14">
      <!-- $\mathdefault{−1}$ -->
      <g style="fill: #1a1a1a" transform="translate(43.14 289.605469) scale(0.15 -0.15)">
       <use xlink:href="#LatinModernMath-Regular-2212" transform="translate(0 0.40625)"/>
       <use xlink:href="#LatinModernMath-Regular-31" transform="translate(77.799988 0.40625)"/>
      </g>
     </g>
    </g>
    <g id="ytick_21">
     <g id="line2d_63">
      <g>
       <use xlink:href="#mc947610920" x="67.34" y="258.613953" style="fill: #1a1a1a; stroke: #1a1a1a; stroke-width: 0.8"/>
      </g>
     </g>
     <g id="text_15">
      <!-- $\mathdefault{0}$ -->
      <g style="fill: #1a1a1a" transform="translate(54.84 263.819422) scale(0.15 -0.15)">
       <use xlink:href="#LatinModernMath-Regular-30" transform="translate(0 0.40625)"/>
      </g>
     </g>
    </g>
    <g id="ytick_22">
     <g id="line2d_64">
      <g>
       <use xlink:href="#mc947610920" x="67.34" y="232.827907" style="fill: #1a1a1a; stroke: #1a1a1a; stroke-width: 0.8"/>
      </g>
     </g>
     <g id="text_16">
      <!-- $\mathdefault{1}$ -->
      <g style="fill: #1a1a1a" transform="translate(54.84 238.033376) scale(0.15 -0.15)">
       <use xlink:href="#LatinModernMath-Regular-31" transform="translate(0 0.40625)"/>
      </g>
     </g>
    </g>
    <g id="ytick_23">
     <g id="line2d_65">
      <g>
       <use xlink:href="#m5f9d1e6504" x="67.34" y="279.242791" style="fill: #1a1a1a; stroke: #1a1a1a; stroke-width: 0.6"/>
      </g>
     </g>
    </g>
    <g id="ytick_24">
     <g id="line2d_66">
      <g>
       <use xlink:href="#m5f9d1e6504" x="67.34" y="274.085581" style="fill: #1a1a1a; stroke: #1a1a1a; stroke-width: 0.6"/>
      </g>
     </g>
    </g>
    <g id="ytick_25">
     <g id="line2d_67">
      <g>
       <use xlink:href="#m5f9d1e6504" x="67.34" y="268.928372" style="fill: #1a1a1a; stroke: #1a1a1a; stroke-width: 0.6"/>
      </g>
     </g>
    </g>
    <g id="ytick_26">
     <g id="line2d_68">
      <g>
       <use xlink:href="#m5f9d1e6504" x="67.34" y="263.771163" style="fill: #1a1a1a; stroke: #1a1a1a; stroke-width: 0.6"/>
      </g>
     </g>
    </g>
    <g id="ytick_27">
     <g id="line2d_69">
      <g>
       <use xlink:href="#m5f9d1e6504" x="67.34" y="253.456744" style="fill: #1a1a1a; stroke: #1a1a1a; stroke-width: 0.6"/>
      </g>
     </g>
    </g>
    <g id="ytick_28">
     <g id="line2d_70">
      <g>
       <use xlink:href="#m5f9d1e6504" x="67.34" y="248.299535" style="fill: #1a1a1a; stroke: #1a1a1a; stroke-width: 0.6"/>
      </g>
     </g>
    </g>
    <g id="ytick_29">
     <g id="line2d_71">
      <g>
       <use xlink:href="#m5f9d1e6504" x="67.34" y="243.142326" style="fill: #1a1a1a; stroke: #1a1a1a; stroke-width: 0.6"/>
      </g>
     </g>
    </g>
    <g id="ytick_30">
     <g id="line2d_72">
      <g>
       <use xlink:href="#m5f9d1e6504" x="67.34" y="237.985116" style="fill: #1a1a1a; stroke: #1a1a1a; stroke-width: 0.6"/>
      </g>
     </g>
    </g>
    <g id="text_17">
     <!-- $\frac{h_1 - h_2}{h_1 + h_2}$ -->
     <g style="fill: #1a1a1a" transform="translate(24.48 278.683953) rotate(-90) scale(0.18 -0.18)">
      <defs>
       <path id="LatinModernMath-Regular-2b" d="M 4621 1600 
C 4621 1670 4563 1728 4493 1728 
L 2618 1728 
L 2618 3603 
C 2618 3674 2560 3731 2490 3731 
C 2419 3731 2362 3674 2362 3603 
L 2362 1728 
L 486 1728 
C 416 1728 358 1670 358 1600 
C 358 1530 416 1472 486 1472 
L 2362 1472 
L 2362 -403 
C 2362 -474 2419 -531 2490 -531 
C 2560 -531 2618 -474 2618 -403 
L 2618 1472 
L 4493 1472 
C 4563 1472 4621 1530 4621 1600 
z
" transform="scale(0.015625)"/>
      </defs>
      <use xlink:href="#LatinModernMath-Regular-68" transform="translate(0 47.415625) scale(0.7)"/>
      <use xlink:href="#LatinModernMath-Regular-31" transform="translate(39.447892 38.365938) scale(0.49)"/>
      <use xlink:href="#LatinModernMath-Regular-2212" transform="translate(77.747181 47.415625) scale(0.7)"/>
      <use xlink:href="#LatinModernMath-Regular-68" transform="translate(144.498189 47.415625) scale(0.7)"/>
      <use xlink:href="#LatinModernMath-Regular-32" transform="translate(183.946081 38.365938) scale(0.49)"/>
      <use xlink:href="#LatinModernMath-Regular-68" transform="translate(0 -41.468437) scale(0.7)"/>
      <use xlink:href="#LatinModernMath-Regular-31" transform="translate(39.447892 -50.518125) scale(0.49)"/>
      <use xlink:href="#LatinModernMath-Regular-2b" transform="translate(77.747181 -41.468437) scale(0.7)"/>
      <use xlink:href="#LatinModernMath-Regular-68" transform="translate(144.498189 -41.468437) scale(0.7)"/>
      <use xlink:href="#LatinModernMath-Regular-32" transform="translate(183.946081 -50.518125) scale(0.49)"/>
      <path d="M 0 13.365938 
L 0 19.615938 
L 209.954354 19.615938 
L 209.954354 13.365938 
L 0 13.365938 
z
"/>
     </g>
    </g>
   </g>
  </g>
 </g>
 <defs>
  <clipPath id="p8930bc2050">
   <rect x="67.34" y="7.2" width="334.8" height="206.288372"/>
  </clipPath>
  <clipPath id="paea68d8b47">
   <rect x="67.34" y="232.827907" width="334.8" height="51.572093"/>
  </clipPath>
 </defs>
</svg>
