<?xml version="1.0" encoding="utf-8" standalone="no"?>
<!DOCTYPE svg PUBLIC "-//W3C//DTD SVG 1.1//EN"
  "http://www.w3.org/Graphics/SVG/1.1/DTD/svg11.dtd">
<svg xmlns:xlink="http://www.w3.org/1999/xlink" width="419.869849pt" height="334.908125pt" viewBox="0 0 419.869849 334.908125" xmlns="http://www.w3.org/2000/svg" version="1.1">
 <metadata>
  <rdf:RDF xmlns:dc="http://purl.org/dc/elements/1.1/" xmlns:cc="http://creativecommons.org/ns#" xmlns:rdf="http://www.w3.org/1999/02/22-rdf-syntax-ns#">
   <cc:Work>
    <dc:creator>
     <cc:Agent>
      <dc:title>カリビアンカフェ</dc:title>
     </cc:Agent>
    </dc:creator>
   </cc:Work>
  </rdf:RDF>
 </metadata>
 <defs>
  <style type="text/css">*{stroke-linejoin: round; stroke-linecap: butt}</style>
 </defs>
 <g id="figure_1">
  <g id="patch_1">
   <path d="M 0 334.908125 
L 419.869849 334.908125 
L 419.869849 0 
L 0 0 
z
" style="fill: #ffffff"/>
  </g>
  <g id="axes_1">
   <g id="patch_2">
    <path d="M 76.34 213.488372 
L 411.14 213.488372 
L 411.14 7.2 
L 76.34 7.2 
z
" style="fill: #ffffff"/>
   </g>
   <g id="patch_3">
    <path d="M 76.34 213.488372 
L 76.34 213.488372 
L 83.036 213.488372 
L 83.036 213.249709 
L 89.732 213.249709 
L 89.732 213.249709 
L 96.428 213.249709 
L 96.428 212.056393 
L 103.124 212.056393 
L 103.124 211.81773 
L 109.82 211.81773 
L 109.82 210.147087 
L 116.516 210.147087 
L 116.516 207.760455 
L 123.212 207.760455 
L 123.212 201.793876 
L 129.908 201.793876 
L 129.908 192.724674 
L 136.604 192.724674 
L 136.604 181.507504 
L 143.3 181.507504 
L 143.3 170.290334 
L 149.996 170.290334 
L 149.996 157.641185 
L 156.692 157.641185 
L 156.692 134.490855 
L 163.388 134.490855 
L 163.388 112.533841 
L 170.084 112.533841 
L 170.084 96.543407 
L 176.78 96.543407 
L 176.78 86.28089 
L 183.476 86.28089 
L 183.476 87.474206 
L 190.172 87.474206 
L 190.172 92.24747 
L 196.868 92.24747 
L 196.868 105.612609 
L 203.564 105.612609 
L 203.564 102.032661 
L 210.26 102.032661 
L 210.26 105.373946 
L 216.956 105.373946 
L 216.956 108.476567 
L 223.652 108.476567 
L 223.652 104.419293 
L 230.348 104.419293 
L 230.348 100.600682 
L 237.044 100.600682 
L 237.044 89.860838 
L 243.74 89.860838 
L 243.74 81.74629 
L 250.436 81.74629 
L 250.436 80.552974 
L 257.132 80.552974 
L 257.132 86.99688 
L 263.828 86.99688 
L 263.828 91.054154 
L 270.524 91.054154 
L 270.524 110.14721 
L 277.22 110.14721 
L 277.22 120.64839 
L 283.916 120.64839 
L 283.916 136.877487 
L 290.612 136.877487 
L 290.612 142.128077 
L 297.308 142.128077 
L 297.308 167.903702 
L 304.004 167.903702 
L 304.004 175.779588 
L 310.7 175.779588 
L 310.7 186.996758 
L 317.396 186.996758 
L 317.396 193.202001 
L 324.092 193.202001 
L 324.092 200.60056 
L 330.788 200.60056 
L 330.788 203.941844 
L 337.484 203.941844 
L 337.484 207.760455 
L 344.18 207.760455 
L 344.18 209.669761 
L 350.876 209.669761 
L 350.876 209.908424 
L 357.572 209.908424 
L 357.572 213.011046 
L 364.268 213.011046 
L 364.268 213.011046 
L 370.964 213.011046 
L 370.964 213.011046 
L 377.66 213.011046 
L 377.66 213.249709 
L 384.356 213.249709 
L 384.356 213.488372 
L 391.052 213.488372 
L 391.052 213.488372 
L 397.748 213.488372 
L 397.748 213.488372 
L 404.444 213.488372 
L 404.444 213.011046 
L 411.14 213.011046 
L 411.14 213.488372 
" clip-path="url(#p6aa36ef497)" style="fill: none; stroke: #348abd; stroke-width: 1.5; stroke-linejoin: miter"/>
   </g>
   <g id="patch_4">
    <path d="M 76.34 213.488372 
L 76.34 213.249709 
L 83.036 213.249709 
L 83.036 213.011046 
L 89.732 213.011046 
L 89.732 213.011046 
L 96.428 213.011046 
L 96.428 211.579067 
L 103.124 211.579067 
L 103.124 210.863077 
L 109.82 210.863077 
L 109.82 208.715108 
L 116.516 208.715108 
L 116.516 206.567139 
L 123.212 206.567139 
L 123.212 203.703181 
L 129.908 203.703181 
L 129.908 197.497938 
L 136.604 197.497938 
L 136.604 194.156653 
L 143.3 194.156653 
L 143.3 190.815369 
L 149.996 190.815369 
L 149.996 183.41681 
L 156.692 183.41681 
L 156.692 171.48365 
L 163.388 171.48365 
L 163.388 169.097018 
L 170.084 169.097018 
L 170.084 162.175786 
L 176.78 162.175786 
L 176.78 160.027817 
L 183.476 160.027817 
L 183.476 160.26648 
L 190.172 160.26648 
L 190.172 154.061237 
L 196.868 154.061237 
L 196.868 143.560057 
L 203.564 143.560057 
L 203.564 138.786793 
L 210.26 138.786793 
L 210.26 121.841706 
L 216.956 121.841706 
L 216.956 99.407366 
L 223.652 99.407366 
L 223.652 87.951533 
L 230.348 87.951533 
L 230.348 56.925317 
L 237.044 56.925317 
L 237.044 35.922956 
L 243.74 35.922956 
L 243.74 23.989797 
L 250.436 23.989797 
L 250.436 24.22846 
L 257.132 24.22846 
L 257.132 36.877609 
L 263.828 36.877609 
L 263.828 40.218894 
L 270.524 40.218894 
L 270.524 46.185474 
L 277.22 46.185474 
L 277.22 76.495699 
L 283.916 76.495699 
L 283.916 102.509987 
L 290.612 102.509987 
L 290.612 130.910907 
L 297.308 130.910907 
L 297.308 148.571984 
L 304.004 148.571984 
L 304.004 167.426376 
L 310.7 167.426376 
L 310.7 177.688893 
L 317.396 177.688893 
L 317.396 193.440664 
L 324.092 193.440664 
L 324.092 200.361896 
L 330.788 200.361896 
L 330.788 206.328476 
L 337.484 206.328476 
L 337.484 207.760455 
L 344.18 207.760455 
L 344.18 211.81773 
L 350.876 211.81773 
L 350.876 211.81773 
L 357.572 211.81773 
L 357.572 213.249709 
L 364.268 213.249709 
L 364.268 213.011046 
L 370.964 213.011046 
L 370.964 213.249709 
L 377.66 213.249709 
L 377.66 213.249709 
L 384.356 213.249709 
L 384.356 213.488372 
L 391.052 213.488372 
L 391.052 213.488372 
L 397.748 213.488372 
L 397.748 213.488372 
L 404.444 213.488372 
L 404.444 213.488372 
L 411.14 213.488372 
L 411.14 213.488372 
" clip-path="url(#p6aa36ef497)" style="fill: none; stroke: #e24a33; stroke-width: 1.5; stroke-linejoin: miter"/>
   </g>
   <g id="LineCollection_1">
    <path d="M 79.688 213.488372 
L 79.688 213.048988 
" clip-path="url(#p6aa36ef497)" style="fill: none; stroke: #348abd; stroke-width: 1.5"/>
    <path d="M 86.384 213.447142 
L 86.384 212.700897 
" clip-path="url(#p6aa36ef497)" style="fill: none; stroke: #348abd; stroke-width: 1.5"/>
    <path d="M 93.08 213.447142 
L 93.08 212.700897 
" clip-path="url(#p6aa36ef497)" style="fill: none; stroke: #348abd; stroke-width: 1.5"/>
    <path d="M 99.776 212.624395 
L 99.776 211.20111 
" clip-path="url(#p6aa36ef497)" style="fill: none; stroke: #348abd; stroke-width: 1.5"/>
    <path d="M 106.472 212.433832 
L 106.472 210.917903 
" clip-path="url(#p6aa36ef497)" style="fill: none; stroke: #348abd; stroke-width: 1.5"/>
    <path d="M 113.168 211.029306 
L 113.168 208.994253 
" clip-path="url(#p6aa36ef497)" style="fill: none; stroke: #348abd; stroke-width: 1.5"/>
    <path d="M 119.864 208.921459 
L 119.864 206.336368 
" clip-path="url(#p6aa36ef497)" style="fill: none; stroke: #348abd; stroke-width: 1.5"/>
    <path d="M 126.56 203.458796 
L 126.56 199.873202 
" clip-path="url(#p6aa36ef497)" style="fill: none; stroke: #348abd; stroke-width: 1.5"/>
    <path d="M 133.256 194.94649 
L 133.256 190.251373 
" clip-path="url(#p6aa36ef497)" style="fill: none; stroke: #348abd; stroke-width: 1.5"/>
    <path d="M 139.952 184.26678 
L 139.952 178.499236 
" clip-path="url(#p6aa36ef497)" style="fill: none; stroke: #348abd; stroke-width: 1.5"/>
    <path d="M 146.648 173.498252 
L 146.648 166.834868 
" clip-path="url(#p6aa36ef497)" style="fill: none; stroke: #348abd; stroke-width: 1.5"/>
    <path d="M 153.344 161.289422 
L 153.344 153.746472 
" clip-path="url(#p6aa36ef497)" style="fill: none; stroke: #348abd; stroke-width: 1.5"/>
    <path d="M 160.04 138.83076 
L 160.04 129.90572 
" clip-path="url(#p6aa36ef497)" style="fill: none; stroke: #348abd; stroke-width: 1.5"/>
    <path d="M 166.736 117.44048 
L 166.736 107.38273 
" clip-path="url(#p6aa36ef497)" style="fill: none; stroke: #348abd; stroke-width: 1.5"/>
    <path d="M 173.432 101.824642 
L 173.432 91.018113 
" clip-path="url(#p6aa36ef497)" style="fill: none; stroke: #348abd; stroke-width: 1.5"/>
    <path d="M 180.128 91.789132 
L 180.128 80.528811 
" clip-path="url(#p6aa36ef497)" style="fill: none; stroke: #348abd; stroke-width: 1.5"/>
    <path d="M 186.824 92.956534 
L 186.824 81.748016 
" clip-path="url(#p6aa36ef497)" style="fill: none; stroke: #348abd; stroke-width: 1.5"/>
    <path d="M 193.52 97.624897 
L 193.52 86.626079 
" clip-path="url(#p6aa36ef497)" style="fill: none; stroke: #348abd; stroke-width: 1.5"/>
    <path d="M 200.216 110.684783 
L 200.216 100.296152 
" clip-path="url(#p6aa36ef497)" style="fill: none; stroke: #348abd; stroke-width: 1.5"/>
    <path d="M 206.912 107.188372 
L 206.912 96.632758 
" clip-path="url(#p6aa36ef497)" style="fill: none; stroke: #348abd; stroke-width: 1.5"/>
    <path d="M 213.608 110.451732 
L 213.608 100.051883 
" clip-path="url(#p6aa36ef497)" style="fill: none; stroke: #348abd; stroke-width: 1.5"/>
    <path d="M 220.304 113.480908 
L 220.304 103.227867 
" clip-path="url(#p6aa36ef497)" style="fill: none; stroke: #348abd; stroke-width: 1.5"/>
    <path d="M 227 109.519465 
L 227 99.074869 
" clip-path="url(#p6aa36ef497)" style="fill: none; stroke: #348abd; stroke-width: 1.5"/>
    <path d="M 233.696 105.789431 
L 233.696 95.167776 
" clip-path="url(#p6aa36ef497)" style="fill: none; stroke: #348abd; stroke-width: 1.5"/>
    <path d="M 240.392 95.290969 
L 240.392 84.186795 
" clip-path="url(#p6aa36ef497)" style="fill: none; stroke: #348abd; stroke-width: 1.5"/>
    <path d="M 247.088 87.351909 
L 247.088 75.896923 
" clip-path="url(#p6aa36ef497)" style="fill: none; stroke: #348abd; stroke-width: 1.5"/>
    <path d="M 253.784 86.183939 
L 253.784 74.678284 
" clip-path="url(#p6aa36ef497)" style="fill: none; stroke: #348abd; stroke-width: 1.5"/>
    <path d="M 260.48 92.489588 
L 260.48 81.260319 
" clip-path="url(#p6aa36ef497)" style="fill: none; stroke: #348abd; stroke-width: 1.5"/>
    <path d="M 267.176 96.457997 
L 267.176 85.406373 
" clip-path="url(#p6aa36ef497)" style="fill: none; stroke: #348abd; stroke-width: 1.5"/>
    <path d="M 273.872 115.111553 
L 273.872 104.938461 
" clip-path="url(#p6aa36ef497)" style="fill: none; stroke: #348abd; stroke-width: 1.5"/>
    <path d="M 280.568 125.353542 
L 280.568 115.698516 
" clip-path="url(#p6aa36ef497)" style="fill: none; stroke: #348abd; stroke-width: 1.5"/>
    <path d="M 287.264 141.151264 
L 287.264 132.358377 
" clip-path="url(#p6aa36ef497)" style="fill: none; stroke: #348abd; stroke-width: 1.5"/>
    <path d="M 293.96 146.252643 
L 293.96 137.757937 
" clip-path="url(#p6aa36ef497)" style="fill: none; stroke: #348abd; stroke-width: 1.5"/>
    <path d="M 300.656 171.199205 
L 300.656 164.360887 
" clip-path="url(#p6aa36ef497)" style="fill: none; stroke: #348abd; stroke-width: 1.5"/>
    <path d="M 307.352 178.776361 
L 307.352 172.53464 
" clip-path="url(#p6aa36ef497)" style="fill: none; stroke: #348abd; stroke-width: 1.5"/>
    <path d="M 314.048 189.507438 
L 314.048 184.236064 
" clip-path="url(#p6aa36ef497)" style="fill: none; stroke: #348abd; stroke-width: 1.5"/>
    <path d="M 320.744 195.39803 
L 320.744 190.754336 
" clip-path="url(#p6aa36ef497)" style="fill: none; stroke: #348abd; stroke-width: 1.5"/>
    <path d="M 327.44 202.34892 
L 327.44 198.597257 
" clip-path="url(#p6aa36ef497)" style="fill: none; stroke: #348abd; stroke-width: 1.5"/>
    <path d="M 334.136 205.444945 
L 334.136 202.181164 
" clip-path="url(#p6aa36ef497)" style="fill: none; stroke: #348abd; stroke-width: 1.5"/>
    <path d="M 340.832 208.921459 
L 340.832 206.336368 
" clip-path="url(#p6aa36ef497)" style="fill: none; stroke: #348abd; stroke-width: 1.5"/>
    <path d="M 347.528 210.614342 
L 347.528 208.45662 
" clip-path="url(#p6aa36ef497)" style="fill: none; stroke: #348abd; stroke-width: 1.5"/>
    <path d="M 354.224 210.822356 
L 354.224 208.724956 
" clip-path="url(#p6aa36ef497)" style="fill: none; stroke: #348abd; stroke-width: 1.5"/>
    <path d="M 360.92 213.319354 
L 360.92 212.381486 
" clip-path="url(#p6aa36ef497)" style="fill: none; stroke: #348abd; stroke-width: 1.5"/>
    <path d="M 367.616 213.319354 
L 367.616 212.381486 
" clip-path="url(#p6aa36ef497)" style="fill: none; stroke: #348abd; stroke-width: 1.5"/>
    <path d="M 374.312 213.319354 
L 374.312 212.381486 
" clip-path="url(#p6aa36ef497)" style="fill: none; stroke: #348abd; stroke-width: 1.5"/>
    <path d="M 381.008 213.447142 
L 381.008 212.700897 
" clip-path="url(#p6aa36ef497)" style="fill: none; stroke: #348abd; stroke-width: 1.5"/>
    <path d="M 387.704 213.488372 
L 387.704 213.048988 
" clip-path="url(#p6aa36ef497)" style="fill: none; stroke: #348abd; stroke-width: 1.5"/>
    <path d="M 394.4 213.488372 
L 394.4 213.048988 
" clip-path="url(#p6aa36ef497)" style="fill: none; stroke: #348abd; stroke-width: 1.5"/>
    <path d="M 401.096 213.488372 
L 401.096 213.048988 
" clip-path="url(#p6aa36ef497)" style="fill: none; stroke: #348abd; stroke-width: 1.5"/>
    <path d="M 407.792 213.319354 
L 407.792 212.381486 
" clip-path="url(#p6aa36ef497)" style="fill: none; stroke: #348abd; stroke-width: 1.5"/>
   </g>
   <g id="LineCollection_2"/>
   <g id="LineCollection_3">
    <path d="M 79.688 213.447142 
L 79.688 212.700897 
" clip-path="url(#p6aa36ef497)" style="fill: none; stroke: #e24a33; stroke-width: 1.5"/>
    <path d="M 86.384 213.319354 
L 86.384 212.381486 
" clip-path="url(#p6aa36ef497)" style="fill: none; stroke: #e24a33; stroke-width: 1.5"/>
    <path d="M 93.08 213.319354 
L 93.08 212.381486 
" clip-path="url(#p6aa36ef497)" style="fill: none; stroke: #e24a33; stroke-width: 1.5"/>
    <path d="M 99.776 212.239778 
L 99.776 210.637506 
" clip-path="url(#p6aa36ef497)" style="fill: none; stroke: #e24a33; stroke-width: 1.5"/>
    <path d="M 106.472 211.642451 
L 106.472 209.809016 
" clip-path="url(#p6aa36ef497)" style="fill: none; stroke: #e24a33; stroke-width: 1.5"/>
    <path d="M 113.168 209.773448 
L 113.168 207.391358 
" clip-path="url(#p6aa36ef497)" style="fill: none; stroke: #e24a33; stroke-width: 1.5"/>
    <path d="M 119.864 207.844926 
L 119.864 205.028473 
" clip-path="url(#p6aa36ef497)" style="fill: none; stroke: #e24a33; stroke-width: 1.5"/>
    <path d="M 126.56 205.225112 
L 126.56 201.923903 
" clip-path="url(#p6aa36ef497)" style="fill: none; stroke: #e24a33; stroke-width: 1.5"/>
    <path d="M 133.256 199.446593 
L 133.256 195.296007 
" clip-path="url(#p6aa36ef497)" style="fill: none; stroke: #e24a33; stroke-width: 1.5"/>
    <path d="M 139.952 196.300179 
L 139.952 191.761176 
" clip-path="url(#p6aa36ef497)" style="fill: none; stroke: #e24a33; stroke-width: 1.5"/>
    <path d="M 146.648 193.137469 
L 146.648 188.242336 
" clip-path="url(#p6aa36ef497)" style="fill: none; stroke: #e24a33; stroke-width: 1.5"/>
    <path d="M 153.344 186.092239 
L 153.344 180.492065 
" clip-path="url(#p6aa36ef497)" style="fill: none; stroke: #e24a33; stroke-width: 1.5"/>
    <path d="M 160.04 174.646866 
L 160.04 168.07276 
" clip-path="url(#p6aa36ef497)" style="fill: none; stroke: #e24a33; stroke-width: 1.5"/>
    <path d="M 166.736 172.349024 
L 166.736 165.597585 
" clip-path="url(#p6aa36ef497)" style="fill: none; stroke: #e24a33; stroke-width: 1.5"/>
    <path d="M 173.432 165.672554 
L 173.432 158.432203 
" clip-path="url(#p6aa36ef497)" style="fill: none; stroke: #e24a33; stroke-width: 1.5"/>
    <path d="M 180.128 163.597135 
L 180.128 156.21185 
" clip-path="url(#p6aa36ef497)" style="fill: none; stroke: #e24a33; stroke-width: 1.5"/>
    <path d="M 186.824 163.82781 
L 186.824 156.458483 
" clip-path="url(#p6aa36ef497)" style="fill: none; stroke: #e24a33; stroke-width: 1.5"/>
    <path d="M 193.52 157.824751 
L 193.52 150.051486 
" clip-path="url(#p6aa36ef497)" style="fill: none; stroke: #e24a33; stroke-width: 1.5"/>
    <path d="M 200.216 147.642982 
L 200.216 139.231486 
" clip-path="url(#p6aa36ef497)" style="fill: none; stroke: #e24a33; stroke-width: 1.5"/>
    <path d="M 206.912 143.006921 
L 206.912 134.321246 
" clip-path="url(#p6aa36ef497)" style="fill: none; stroke: #e24a33; stroke-width: 1.5"/>
    <path d="M 213.608 126.516496 
L 213.608 116.922156 
" clip-path="url(#p6aa36ef497)" style="fill: none; stroke: #e24a33; stroke-width: 1.5"/>
    <path d="M 220.304 104.623486 
L 220.304 93.947117 
" clip-path="url(#p6aa36ef497)" style="fill: none; stroke: #e24a33; stroke-width: 1.5"/>
    <path d="M 227 93.423461 
L 227 82.235732 
" clip-path="url(#p6aa36ef497)" style="fill: none; stroke: #e24a33; stroke-width: 1.5"/>
    <path d="M 233.696 63.036522 
L 233.696 50.570786 
" clip-path="url(#p6aa36ef497)" style="fill: none; stroke: #e24a33; stroke-width: 1.5"/>
    <path d="M 240.392 42.43136 
L 240.392 29.171511 
" clip-path="url(#p6aa36ef497)" style="fill: none; stroke: #e24a33; stroke-width: 1.5"/>
    <path d="M 247.088 30.713436 
L 247.088 17.023256 
" clip-path="url(#p6aa36ef497)" style="fill: none; stroke: #e24a33; stroke-width: 1.5"/>
    <path d="M 253.784 30.947862 
L 253.784 17.266153 
" clip-path="url(#p6aa36ef497)" style="fill: none; stroke: #e24a33; stroke-width: 1.5"/>
    <path d="M 260.48 43.368485 
L 260.48 30.143679 
" clip-path="url(#p6aa36ef497)" style="fill: none; stroke: #e24a33; stroke-width: 1.5"/>
    <path d="M 267.176 46.648049 
L 267.176 33.546643 
" clip-path="url(#p6aa36ef497)" style="fill: none; stroke: #e24a33; stroke-width: 1.5"/>
    <path d="M 273.872 52.502912 
L 273.872 39.624861 
" clip-path="url(#p6aa36ef497)" style="fill: none; stroke: #e24a33; stroke-width: 1.5"/>
    <path d="M 280.568 82.212 
L 280.568 70.53575 
" clip-path="url(#p6aa36ef497)" style="fill: none; stroke: #e24a33; stroke-width: 1.5"/>
    <path d="M 287.264 107.654638 
L 287.264 97.121133 
" clip-path="url(#p6aa36ef497)" style="fill: none; stroke: #e24a33; stroke-width: 1.5"/>
    <path d="M 293.96 135.348156 
L 293.96 126.228572 
" clip-path="url(#p6aa36ef497)" style="fill: none; stroke: #e24a33; stroke-width: 1.5"/>
    <path d="M 300.656 152.505699 
L 300.656 144.392358 
" clip-path="url(#p6aa36ef497)" style="fill: none; stroke: #e24a33; stroke-width: 1.5"/>
    <path d="M 307.352 170.739118 
L 307.352 163.866366 
" clip-path="url(#p6aa36ef497)" style="fill: none; stroke: #e24a33; stroke-width: 1.5"/>
    <path d="M 314.048 180.608648 
L 314.048 174.520713 
" clip-path="url(#p6aa36ef497)" style="fill: none; stroke: #e24a33; stroke-width: 1.5"/>
    <path d="M 320.744 195.623686 
L 320.744 191.00593 
" clip-path="url(#p6aa36ef497)" style="fill: none; stroke: #e24a33; stroke-width: 1.5"/>
    <path d="M 327.44 202.126472 
L 327.44 198.342528 
" clip-path="url(#p6aa36ef497)" style="fill: none; stroke: #e24a33; stroke-width: 1.5"/>
    <path d="M 334.136 207.628361 
L 334.136 204.768085 
" clip-path="url(#p6aa36ef497)" style="fill: none; stroke: #e24a33; stroke-width: 1.5"/>
    <path d="M 340.832 208.921459 
L 340.832 206.336368 
" clip-path="url(#p6aa36ef497)" style="fill: none; stroke: #e24a33; stroke-width: 1.5"/>
    <path d="M 347.528 212.433832 
L 347.528 210.917903 
" clip-path="url(#p6aa36ef497)" style="fill: none; stroke: #e24a33; stroke-width: 1.5"/>
    <path d="M 354.224 212.433832 
L 354.224 210.917903 
" clip-path="url(#p6aa36ef497)" style="fill: none; stroke: #e24a33; stroke-width: 1.5"/>
    <path d="M 360.92 213.447142 
L 360.92 212.700897 
" clip-path="url(#p6aa36ef497)" style="fill: none; stroke: #e24a33; stroke-width: 1.5"/>
    <path d="M 367.616 213.319354 
L 367.616 212.381486 
" clip-path="url(#p6aa36ef497)" style="fill: none; stroke: #e24a33; stroke-width: 1.5"/>
    <path d="M 374.312 213.447142 
L 374.312 212.700897 
" clip-path="url(#p6aa36ef497)" style="fill: none; stroke: #e24a33; stroke-width: 1.5"/>
    <path d="M 381.008 213.447142 
L 381.008 212.700897 
" clip-path="url(#p6aa36ef497)" style="fill: none; stroke: #e24a33; stroke-width: 1.5"/>
    <path d="M 387.704 213.488372 
L 387.704 213.048988 
" clip-path="url(#p6aa36ef497)" style="fill: none; stroke: #e24a33; stroke-width: 1.5"/>
    <path d="M 394.4 213.488372 
L 394.4 213.048988 
" clip-path="url(#p6aa36ef497)" style="fill: none; stroke: #e24a33; stroke-width: 1.5"/>
    <path d="M 401.096 213.488372 
L 401.096 213.048988 
" clip-path="url(#p6aa36ef497)" style="fill: none; stroke: #e24a33; stroke-width: 1.5"/>
    <path d="M 407.792 213.488372 
L 407.792 213.048988 
" clip-path="url(#p6aa36ef497)" style="fill: none; stroke: #e24a33; stroke-width: 1.5"/>
   </g>
   <g id="LineCollection_4"/>
   <g id="line2d_1"/>
   <g id="line2d_2"/>
   <g id="line2d_3"/>
   <g id="line2d_4"/>
   <g id="patch_5">
    <path d="M 76.34 213.488372 
L 76.34 7.2 
" style="fill: none; stroke: #000000; stroke-linejoin: miter; stroke-linecap: square"/>
   </g>
   <g id="patch_6">
    <path d="M 411.14 213.488372 
L 411.14 7.2 
" style="fill: none; stroke: #000000; stroke-linejoin: miter; stroke-linecap: square"/>
   </g>
   <g id="patch_7">
    <path d="M 76.34 213.488372 
L 411.14 213.488372 
" style="fill: none; stroke: #000000; stroke-linejoin: miter; stroke-linecap: square"/>
   </g>
   <g id="patch_8">
    <path d="M 76.34 7.2 
L 411.14 7.2 
" style="fill: none; stroke: #000000; stroke-linejoin: miter; stroke-linecap: square"/>
   </g>
   <g id="matplotlib.axis_1">
    <g id="xtick_1">
     <g id="line2d_5">
      <defs>
       <path id="m8dec1b3d1d" d="M 0 0 
L 0 -6 
" style="stroke: #1a1a1a; stroke-width: 0.8"/>
      </defs>
      <g>
       <use xlink:href="#m8dec1b3d1d" x="125.910027" y="213.488372" style="fill: #1a1a1a; stroke: #1a1a1a; stroke-width: 0.8"/>
      </g>
     </g>
    </g>
    <g id="xtick_2">
     <g id="line2d_6">
      <g>
       <use xlink:href="#m8dec1b3d1d" x="218.996635" y="213.488372" style="fill: #1a1a1a; stroke: #1a1a1a; stroke-width: 0.8"/>
      </g>
     </g>
    </g>
    <g id="xtick_3">
     <g id="line2d_7">
      <g>
       <use xlink:href="#m8dec1b3d1d" x="312.083242" y="213.488372" style="fill: #1a1a1a; stroke: #1a1a1a; stroke-width: 0.8"/>
      </g>
     </g>
    </g>
    <g id="xtick_4">
     <g id="line2d_8">
      <g>
       <use xlink:href="#m8dec1b3d1d" x="405.169849" y="213.488372" style="fill: #1a1a1a; stroke: #1a1a1a; stroke-width: 0.8"/>
      </g>
     </g>
    </g>
    <g id="xtick_5">
     <g id="line2d_9">
      <defs>
       <path id="m131efc0c90" d="M 0 0 
L 0 -3 
" style="stroke: #1a1a1a; stroke-width: 0.6"/>
      </defs>
      <g>
       <use xlink:href="#m131efc0c90" x="88.675384" y="213.488372" style="fill: #1a1a1a; stroke: #1a1a1a; stroke-width: 0.6"/>
      </g>
     </g>
    </g>
    <g id="xtick_6">
     <g id="line2d_10">
      <g>
       <use xlink:href="#m131efc0c90" x="107.292706" y="213.488372" style="fill: #1a1a1a; stroke: #1a1a1a; stroke-width: 0.6"/>
      </g>
     </g>
    </g>
    <g id="xtick_7">
     <g id="line2d_11">
      <g>
       <use xlink:href="#m131efc0c90" x="144.527349" y="213.488372" style="fill: #1a1a1a; stroke: #1a1a1a; stroke-width: 0.6"/>
      </g>
     </g>
    </g>
    <g id="xtick_8">
     <g id="line2d_12">
      <g>
       <use xlink:href="#m131efc0c90" x="163.14467" y="213.488372" style="fill: #1a1a1a; stroke: #1a1a1a; stroke-width: 0.6"/>
      </g>
     </g>
    </g>
    <g id="xtick_9">
     <g id="line2d_13">
      <g>
       <use xlink:href="#m131efc0c90" x="181.761992" y="213.488372" style="fill: #1a1a1a; stroke: #1a1a1a; stroke-width: 0.6"/>
      </g>
     </g>
    </g>
    <g id="xtick_10">
     <g id="line2d_14">
      <g>
       <use xlink:href="#m131efc0c90" x="200.379313" y="213.488372" style="fill: #1a1a1a; stroke: #1a1a1a; stroke-width: 0.6"/>
      </g>
     </g>
    </g>
    <g id="xtick_11">
     <g id="line2d_15">
      <g>
       <use xlink:href="#m131efc0c90" x="237.613956" y="213.488372" style="fill: #1a1a1a; stroke: #1a1a1a; stroke-width: 0.6"/>
      </g>
     </g>
    </g>
    <g id="xtick_12">
     <g id="line2d_16">
      <g>
       <use xlink:href="#m131efc0c90" x="256.231277" y="213.488372" style="fill: #1a1a1a; stroke: #1a1a1a; stroke-width: 0.6"/>
      </g>
     </g>
    </g>
    <g id="xtick_13">
     <g id="line2d_17">
      <g>
       <use xlink:href="#m131efc0c90" x="274.848599" y="213.488372" style="fill: #1a1a1a; stroke: #1a1a1a; stroke-width: 0.6"/>
      </g>
     </g>
    </g>
    <g id="xtick_14">
     <g id="line2d_18">
      <g>
       <use xlink:href="#m131efc0c90" x="293.46592" y="213.488372" style="fill: #1a1a1a; stroke: #1a1a1a; stroke-width: 0.6"/>
      </g>
     </g>
    </g>
    <g id="xtick_15">
     <g id="line2d_19">
      <g>
       <use xlink:href="#m131efc0c90" x="330.700563" y="213.488372" style="fill: #1a1a1a; stroke: #1a1a1a; stroke-width: 0.6"/>
      </g>
     </g>
    </g>
    <g id="xtick_16">
     <g id="line2d_20">
      <g>
       <use xlink:href="#m131efc0c90" x="349.317885" y="213.488372" style="fill: #1a1a1a; stroke: #1a1a1a; stroke-width: 0.6"/>
      </g>
     </g>
    </g>
    <g id="xtick_17">
     <g id="line2d_21">
      <g>
       <use xlink:href="#m131efc0c90" x="367.935206" y="213.488372" style="fill: #1a1a1a; stroke: #1a1a1a; stroke-width: 0.6"/>
      </g>
     </g>
    </g>
    <g id="xtick_18">
     <g id="line2d_22">
      <g>
       <use xlink:href="#m131efc0c90" x="386.552528" y="213.488372" style="fill: #1a1a1a; stroke: #1a1a1a; stroke-width: 0.6"/>
      </g>
     </g>
    </g>
   </g>
   <g id="matplotlib.axis_2">
    <g id="ytick_1">
     <g id="line2d_23">
      <defs>
       <path id="mc947610920" d="M 0 0 
L 6 0 
" style="stroke: #1a1a1a; stroke-width: 0.8"/>
      </defs>
      <g>
       <use xlink:href="#mc947610920" x="76.34" y="213.488372" style="fill: #1a1a1a; stroke: #1a1a1a; stroke-width: 0.8"/>
      </g>
     </g>
     <g id="text_1">
      <!-- $\mathdefault{0}$ -->
      <g style="fill: #1a1a1a" transform="translate(63.84 218.693841) scale(0.15 -0.15)">
       <defs>
        <path id="LatinModernMath-Regular-30" d="M 2944 2048 
C 2944 2560 2912 3072 2688 3546 
C 2394 4160 1869 4262 1600 4262 
C 1216 4262 749 4096 486 3501 
C 282 3059 250 2560 250 2048 
C 250 1568 275 992 538 506 
C 813 -13 1280 -141 1594 -141 
C 1939 -141 2426 -6 2707 602 
C 2912 1043 2944 1542 2944 2048 
z
M 2413 2125 
C 2413 1645 2413 1210 2342 800 
C 2246 192 1882 0 1594 0 
C 1344 0 966 160 851 774 
C 781 1158 781 1747 781 2125 
C 781 2534 781 2957 832 3302 
C 954 4064 1434 4122 1594 4122 
C 1805 4122 2227 4006 2349 3373 
C 2413 3014 2413 2528 2413 2125 
z
" transform="scale(0.015625)"/>
       </defs>
       <use xlink:href="#LatinModernMath-Regular-30" transform="translate(0 0.40625)"/>
      </g>
     </g>
    </g>
    <g id="ytick_2">
     <g id="line2d_24">
      <g>
       <use xlink:href="#mc947610920" x="76.34" y="165.755733" style="fill: #1a1a1a; stroke: #1a1a1a; stroke-width: 0.8"/>
      </g>
     </g>
     <g id="text_2">
      <!-- $\mathdefault{200}$ -->
      <g style="fill: #1a1a1a" transform="translate(48.84 170.961202) scale(0.15 -0.15)">
       <defs>
        <path id="LatinModernMath-Regular-32" d="M 2874 1114 
L 2714 1114 
C 2682 922 2637 640 2573 544 
C 2528 493 2106 493 1965 493 
L 813 493 
L 1491 1152 
C 2490 2035 2874 2381 2874 3021 
C 2874 3750 2298 4262 1517 4262 
C 794 4262 320 3674 320 3104 
C 320 2746 640 2746 659 2746 
C 768 2746 992 2822 992 3085 
C 992 3251 877 3418 653 3418 
C 602 3418 589 3418 570 3411 
C 717 3827 1062 4064 1434 4064 
C 2016 4064 2291 3546 2291 3021 
C 2291 2509 1971 2003 1619 1606 
L 390 237 
C 320 166 320 154 320 0 
L 2694 0 
L 2874 1114 
z
" transform="scale(0.015625)"/>
       </defs>
       <use xlink:href="#LatinModernMath-Regular-32" transform="translate(0 0.40625)"/>
       <use xlink:href="#LatinModernMath-Regular-30" transform="translate(49.999985 0.40625)"/>
       <use xlink:href="#LatinModernMath-Regular-30" transform="translate(99.999969 0.40625)"/>
      </g>
     </g>
    </g>
    <g id="ytick_3">
     <g id="line2d_25">
      <g>
       <use xlink:href="#mc947610920" x="76.34" y="118.023095" style="fill: #1a1a1a; stroke: #1a1a1a; stroke-width: 0.8"/>
      </g>
     </g>
     <g id="text_3">
      <!-- $\mathdefault{400}$ -->
      <g style="fill: #1a1a1a" transform="translate(48.84 123.228564) scale(0.15 -0.15)">
       <defs>
        <path id="LatinModernMath-Regular-34" d="M 3014 1056 
L 3014 1254 
L 2374 1254 
L 2374 4166 
C 2374 4294 2374 4333 2272 4333 
C 2214 4333 2195 4333 2144 4256 
L 179 1254 
L 179 1056 
L 1882 1056 
L 1882 499 
C 1882 269 1869 198 1395 198 
L 1261 198 
L 1261 0 
C 1523 19 1856 19 2125 19 
C 2394 19 2733 19 2995 0 
L 2995 198 
L 2861 198 
C 2387 198 2374 269 2374 499 
L 2374 1056 
L 3014 1056 
z
M 1920 1254 
L 358 1254 
L 1920 3642 
L 1920 1254 
z
" transform="scale(0.015625)"/>
       </defs>
       <use xlink:href="#LatinModernMath-Regular-34" transform="translate(0 0.296875)"/>
       <use xlink:href="#LatinModernMath-Regular-30" transform="translate(49.999985 0.296875)"/>
       <use xlink:href="#LatinModernMath-Regular-30" transform="translate(99.999969 0.296875)"/>
      </g>
     </g>
    </g>
    <g id="ytick_4">
     <g id="line2d_26">
      <g>
       <use xlink:href="#mc947610920" x="76.34" y="70.290456" style="fill: #1a1a1a; stroke: #1a1a1a; stroke-width: 0.8"/>
      </g>
     </g>
     <g id="text_4">
      <!-- $\mathdefault{600}$ -->
      <g style="fill: #1a1a1a" transform="translate(48.84 75.495925) scale(0.15 -0.15)">
       <defs>
        <path id="LatinModernMath-Regular-36" d="M 2925 1306 
C 2925 2118 2355 2733 1645 2733 
C 1210 2733 973 2406 845 2099 
L 845 2253 
C 845 3872 1638 4102 1965 4102 
C 2118 4102 2387 4064 2528 3846 
C 2432 3846 2176 3846 2176 3558 
C 2176 3360 2330 3264 2470 3264 
C 2573 3264 2765 3322 2765 3571 
C 2765 3955 2483 4262 1952 4262 
C 1133 4262 269 3437 269 2022 
C 269 314 1011 -141 1606 -141 
C 2317 -141 2925 461 2925 1306 
z
M 2349 1312 
C 2349 1005 2349 685 2240 454 
C 2048 70 1754 38 1606 38 
C 1203 38 1011 422 973 518 
C 858 819 858 1331 858 1446 
C 858 1946 1062 2586 1638 2586 
C 1741 2586 2035 2586 2234 2189 
C 2349 1952 2349 1626 2349 1312 
z
" transform="scale(0.015625)"/>
       </defs>
       <use xlink:href="#LatinModernMath-Regular-36" transform="translate(0 0.40625)"/>
       <use xlink:href="#LatinModernMath-Regular-30" transform="translate(49.999985 0.40625)"/>
       <use xlink:href="#LatinModernMath-Regular-30" transform="translate(99.999969 0.40625)"/>
      </g>
     </g>
    </g>
    <g id="ytick_5">
     <g id="line2d_27">
      <g>
       <use xlink:href="#mc947610920" x="76.34" y="22.557818" style="fill: #1a1a1a; stroke: #1a1a1a; stroke-width: 0.8"/>
      </g>
     </g>
     <g id="text_5">
      <!-- $\mathdefault{800}$ -->
      <g style="fill: #1a1a1a" transform="translate(48.84 27.763286) scale(0.15 -0.15)">
       <defs>
        <path id="LatinModernMath-Regular-38" d="M 2925 1075 
C 2925 1306 2854 1594 2611 1862 
C 2490 1997 2387 2061 1978 2317 
C 2438 2554 2752 2886 2752 3309 
C 2752 3898 2182 4262 1600 4262 
C 960 4262 442 3789 442 3194 
C 442 3078 454 2790 723 2490 
C 794 2413 1030 2253 1190 2144 
C 819 1958 269 1600 269 966 
C 269 288 922 -141 1594 -141 
C 2317 -141 2925 390 2925 1075 
z
M 2470 3309 
C 2470 2944 2221 2637 1837 2413 
L 1043 2925 
C 749 3117 723 3334 723 3443 
C 723 3834 1139 4102 1594 4102 
C 2061 4102 2470 3770 2470 3309 
z
M 2605 845 
C 2605 371 2125 38 1600 38 
C 1050 38 589 435 589 966 
C 589 1338 794 1747 1338 2048 
L 2125 1549 
C 2304 1427 2605 1235 2605 845 
z
" transform="scale(0.015625)"/>
       </defs>
       <use xlink:href="#LatinModernMath-Regular-38" transform="translate(0 0.40625)"/>
       <use xlink:href="#LatinModernMath-Regular-30" transform="translate(49.999985 0.40625)"/>
       <use xlink:href="#LatinModernMath-Regular-30" transform="translate(99.999969 0.40625)"/>
      </g>
     </g>
    </g>
    <g id="ytick_6">
     <g id="line2d_28">
      <defs>
       <path id="m5f9d1e6504" d="M 0 0 
L 3 0 
" style="stroke: #1a1a1a; stroke-width: 0.6"/>
      </defs>
      <g>
       <use xlink:href="#m5f9d1e6504" x="76.34" y="201.555212" style="fill: #1a1a1a; stroke: #1a1a1a; stroke-width: 0.6"/>
      </g>
     </g>
    </g>
    <g id="ytick_7">
     <g id="line2d_29">
      <g>
       <use xlink:href="#m5f9d1e6504" x="76.34" y="189.622053" style="fill: #1a1a1a; stroke: #1a1a1a; stroke-width: 0.6"/>
      </g>
     </g>
    </g>
    <g id="ytick_8">
     <g id="line2d_30">
      <g>
       <use xlink:href="#m5f9d1e6504" x="76.34" y="177.688893" style="fill: #1a1a1a; stroke: #1a1a1a; stroke-width: 0.6"/>
      </g>
     </g>
    </g>
    <g id="ytick_9">
     <g id="line2d_31">
      <g>
       <use xlink:href="#m5f9d1e6504" x="76.34" y="153.822574" style="fill: #1a1a1a; stroke: #1a1a1a; stroke-width: 0.6"/>
      </g>
     </g>
    </g>
    <g id="ytick_10">
     <g id="line2d_32">
      <g>
       <use xlink:href="#m5f9d1e6504" x="76.34" y="141.889414" style="fill: #1a1a1a; stroke: #1a1a1a; stroke-width: 0.6"/>
      </g>
     </g>
    </g>
    <g id="ytick_11">
     <g id="line2d_33">
      <g>
       <use xlink:href="#m5f9d1e6504" x="76.34" y="129.956255" style="fill: #1a1a1a; stroke: #1a1a1a; stroke-width: 0.6"/>
      </g>
     </g>
    </g>
    <g id="ytick_12">
     <g id="line2d_34">
      <g>
       <use xlink:href="#m5f9d1e6504" x="76.34" y="106.089935" style="fill: #1a1a1a; stroke: #1a1a1a; stroke-width: 0.6"/>
      </g>
     </g>
    </g>
    <g id="ytick_13">
     <g id="line2d_35">
      <g>
       <use xlink:href="#m5f9d1e6504" x="76.34" y="94.156776" style="fill: #1a1a1a; stroke: #1a1a1a; stroke-width: 0.6"/>
      </g>
     </g>
    </g>
    <g id="ytick_14">
     <g id="line2d_36">
      <g>
       <use xlink:href="#m5f9d1e6504" x="76.34" y="82.223616" style="fill: #1a1a1a; stroke: #1a1a1a; stroke-width: 0.6"/>
      </g>
     </g>
    </g>
    <g id="ytick_15">
     <g id="line2d_37">
      <g>
       <use xlink:href="#m5f9d1e6504" x="76.34" y="58.357297" style="fill: #1a1a1a; stroke: #1a1a1a; stroke-width: 0.6"/>
      </g>
     </g>
    </g>
    <g id="ytick_16">
     <g id="line2d_38">
      <g>
       <use xlink:href="#m5f9d1e6504" x="76.34" y="46.424137" style="fill: #1a1a1a; stroke: #1a1a1a; stroke-width: 0.6"/>
      </g>
     </g>
    </g>
    <g id="ytick_17">
     <g id="line2d_39">
      <g>
       <use xlink:href="#m5f9d1e6504" x="76.34" y="34.490977" style="fill: #1a1a1a; stroke: #1a1a1a; stroke-width: 0.6"/>
      </g>
     </g>
    </g>
    <g id="ytick_18">
     <g id="line2d_40">
      <g>
       <use xlink:href="#m5f9d1e6504" x="76.34" y="10.624658" style="fill: #1a1a1a; stroke: #1a1a1a; stroke-width: 0.6"/>
      </g>
     </g>
    </g>
    <g id="text_6">
     <!-- Entries -->
     <g style="fill: #1a1a1a" transform="translate(39.346875 138.550749) rotate(-90) scale(0.18 -0.18)">
      <defs>
       <path id="LatinModernMath-Regular-45" d="M 4173 1651 
L 4013 1651 
C 3853 666 3706 198 2605 198 
L 1754 198 
C 1453 198 1440 243 1440 454 
L 1440 2163 
L 2016 2163 
C 2637 2163 2707 1958 2707 1414 
L 2867 1414 
L 2867 3110 
L 2707 3110 
C 2707 2560 2637 2362 2016 2362 
L 1440 2362 
L 1440 3898 
C 1440 4109 1453 4154 1754 4154 
L 2579 4154 
C 3558 4154 3731 3802 3834 2912 
L 3994 2912 
L 3814 4352 
L 211 4352 
L 211 4154 
L 365 4154 
C 858 4154 870 4083 870 3853 
L 870 499 
C 870 269 858 198 365 198 
L 211 198 
L 211 0 
L 3904 0 
L 4173 1651 
z
" transform="scale(0.015625)"/>
       <path id="LatinModernMath-Regular-6e" d="M 3424 0 
L 3424 198 
C 3091 198 2931 198 2925 390 
L 2925 1613 
C 2925 2163 2925 2362 2726 2592 
C 2637 2701 2426 2829 2054 2829 
C 1587 2829 1286 2554 1107 2157 
L 1107 2829 
L 205 2758 
L 205 2560 
C 653 2560 704 2515 704 2202 
L 704 486 
C 704 198 634 198 205 198 
L 205 0 
L 928 19 
L 1645 0 
L 1645 198 
C 1216 198 1146 198 1146 486 
L 1146 1664 
C 1146 2330 1600 2688 2010 2688 
C 2413 2688 2483 2342 2483 1978 
L 2483 486 
C 2483 198 2413 198 1984 198 
L 1984 0 
L 2707 19 
L 3424 0 
z
" transform="scale(0.015625)"/>
       <path id="LatinModernMath-Regular-74" d="M 2125 794 
L 2125 1158 
L 1965 1158 
L 1965 806 
C 1965 333 1773 90 1536 90 
C 1107 90 1107 672 1107 781 
L 1107 2560 
L 2022 2560 
L 2022 2758 
L 1107 2758 
L 1107 3936 
L 947 3936 
C 941 3411 749 2726 122 2701 
L 122 2560 
L 666 2560 
L 666 794 
C 666 6 1261 -70 1491 -70 
C 1946 -70 2125 384 2125 794 
z
" transform="scale(0.015625)"/>
       <path id="LatinModernMath-Regular-72" d="M 2330 2438 
C 2330 2643 2131 2829 1856 2829 
C 1389 2829 1158 2400 1069 2125 
L 1069 2829 
L 179 2758 
L 179 2560 
C 627 2560 678 2515 678 2202 
L 678 486 
C 678 198 608 198 179 198 
L 179 0 
L 909 19 
C 1165 19 1466 19 1722 0 
L 1722 198 
L 1587 198 
C 1114 198 1101 269 1101 499 
L 1101 1485 
C 1101 2118 1370 2688 1856 2688 
C 1901 2688 1914 2688 1926 2682 
C 1907 2675 1779 2598 1779 2432 
C 1779 2253 1914 2157 2054 2157 
C 2170 2157 2330 2234 2330 2438 
z
" transform="scale(0.015625)"/>
       <path id="LatinModernMath-Regular-69" d="M 1581 0 
L 1581 198 
C 1158 198 1133 230 1133 480 
L 1133 2829 
L 237 2758 
L 237 2560 
C 653 2560 710 2522 710 2208 
L 710 486 
C 710 198 640 198 211 198 
L 211 0 
L 915 19 
C 1139 19 1363 6 1581 0 
z
M 1229 3866 
C 1229 4038 1082 4205 890 4205 
C 672 4205 544 4026 544 3866 
C 544 3693 691 3526 883 3526 
C 1101 3526 1229 3706 1229 3866 
z
" transform="scale(0.015625)"/>
       <path id="LatinModernMath-Regular-65" d="M 2656 762 
C 2656 826 2605 838 2573 838 
C 2515 838 2502 800 2490 749 
C 2266 90 1690 90 1626 90 
C 1306 90 1050 282 902 518 
C 710 826 710 1248 710 1478 
L 2496 1478 
C 2637 1478 2656 1478 2656 1613 
C 2656 2246 2310 2867 1510 2867 
C 768 2867 179 2208 179 1408 
C 179 550 851 -70 1587 -70 
C 2368 -70 2656 640 2656 762 
z
M 2234 1613 
L 717 1613 
C 755 2566 1293 2726 1510 2726 
C 2170 2726 2234 1862 2234 1613 
z
" transform="scale(0.015625)"/>
       <path id="LatinModernMath-Regular-73" d="M 2304 819 
C 2304 1158 2112 1350 2035 1427 
C 1824 1632 1574 1683 1306 1734 
C 947 1805 518 1888 518 2259 
C 518 2483 685 2746 1235 2746 
C 1939 2746 1971 2170 1984 1971 
C 1990 1914 2061 1914 2061 1914 
C 2144 1914 2144 1946 2144 2067 
L 2144 2714 
C 2144 2822 2144 2867 2074 2867 
C 2042 2867 2029 2867 1946 2790 
C 1926 2765 1862 2707 1837 2688 
C 1594 2867 1331 2867 1235 2867 
C 454 2867 211 2438 211 2080 
C 211 1856 314 1677 486 1536 
C 691 1370 870 1331 1331 1242 
C 1472 1216 1997 1114 1997 653 
C 1997 326 1773 70 1274 70 
C 736 70 506 435 384 979 
C 365 1062 358 1088 294 1088 
C 211 1088 211 1043 211 928 
L 211 83 
C 211 -26 211 -70 282 -70 
C 314 -70 320 -64 442 58 
C 454 70 454 83 570 205 
C 851 -64 1139 -70 1274 -70 
C 2010 -70 2304 358 2304 819 
z
" transform="scale(0.015625)"/>
      </defs>
      <use xlink:href="#LatinModernMath-Regular-45"/>
      <use xlink:href="#LatinModernMath-Regular-6e" transform="translate(68.099991 0)"/>
      <use xlink:href="#LatinModernMath-Regular-74" transform="translate(123.699982 0)"/>
      <use xlink:href="#LatinModernMath-Regular-72" transform="translate(162.599976 0)"/>
      <use xlink:href="#LatinModernMath-Regular-69" transform="translate(201.799973 0)"/>
      <use xlink:href="#LatinModernMath-Regular-65" transform="translate(229.59996 0)"/>
      <use xlink:href="#LatinModernMath-Regular-73" transform="translate(273.999954 0)"/>
     </g>
    </g>
   </g>
   <g id="legend_1">
    <g id="LineCollection_5">
     <path d="M 367.46 28.2 
L 367.46 16.2 
" style="fill: none; stroke: #348abd; stroke-width: 1.5"/>
    </g>
    <g id="line2d_41">
     <path d="M 355.46 22.2 
L 379.46 22.2 
" style="fill: none; stroke: #348abd; stroke-width: 1.5; stroke-linecap: round"/>
    </g>
    <g id="line2d_42"/>
    <g id="text_7">
     <!-- $h_1$ -->
     <g style="fill: #1a1a1a" transform="translate(389.06 26.4) scale(0.12 -0.12)">
      <defs>
       <path id="LatinModernMath-Regular-68" d="M 3424 0 
L 3424 198 
C 3091 198 2931 198 2925 390 
L 2925 1613 
C 2925 2163 2925 2362 2726 2592 
C 2637 2701 2426 2829 2054 2829 
C 1517 2829 1235 2445 1133 2214 
L 1126 2214 
L 1126 4442 
L 205 4371 
L 205 4173 
C 653 4173 704 4128 704 3814 
L 704 486 
C 704 198 634 198 205 198 
L 205 0 
L 928 19 
L 1645 0 
L 1645 198 
C 1216 198 1146 198 1146 486 
L 1146 1664 
C 1146 2330 1600 2688 2010 2688 
C 2413 2688 2483 2342 2483 1978 
L 2483 486 
C 2483 198 2413 198 1984 198 
L 1984 0 
L 2707 19 
L 3424 0 
z
" transform="scale(0.015625)"/>
       <path id="LatinModernMath-Regular-31" d="M 2682 0 
L 2682 198 
L 2477 198 
C 1901 198 1882 269 1882 506 
L 1882 4096 
C 1882 4250 1882 4262 1734 4262 
C 1338 3853 774 3853 570 3853 
L 570 3654 
C 698 3654 1075 3654 1408 3821 
L 1408 506 
C 1408 275 1389 198 813 198 
L 608 198 
L 608 0 
C 832 19 1389 19 1645 19 
C 1901 19 2458 19 2682 0 
z
" transform="scale(0.015625)"/>
      </defs>
      <use xlink:href="#LatinModernMath-Regular-68" transform="translate(0 0.59375)"/>
      <use xlink:href="#LatinModernMath-Regular-31" transform="translate(56.354131 -12.334375) scale(0.7)"/>
     </g>
    </g>
    <g id="LineCollection_6">
     <path d="M 367.46 44.92875 
L 367.46 32.92875 
" style="fill: none; stroke: #e24a33; stroke-width: 1.5"/>
    </g>
    <g id="line2d_43">
     <path d="M 355.46 38.92875 
L 379.46 38.92875 
" style="fill: none; stroke: #e24a33; stroke-width: 1.5; stroke-linecap: round"/>
    </g>
    <g id="line2d_44"/>
    <g id="text_8">
     <!-- $h_2$ -->
     <g style="fill: #1a1a1a" transform="translate(389.06 43.12875) scale(0.12 -0.12)">
      <use xlink:href="#LatinModernMath-Regular-68" transform="translate(0 0.59375)"/>
      <use xlink:href="#LatinModernMath-Regular-32" transform="translate(56.354131 -12.334375) scale(0.7)"/>
     </g>
    </g>
   </g>
  </g>
  <g id="axes_2">
   <g id="patch_9">
    <path d="M 76.34 284.4 
L 411.14 284.4 
L 411.14 232.827907 
L 76.34 232.827907 
z
" style="fill: #ffffff"/>
   </g>
   <g id="patch_10">
    <path d="M 76.34 258.613953 
L 76.34 253.456744 
L 83.036 253.456744 
L 83.036 248.299535 
L 89.732 248.299535 
L 89.732 248.299535 
L 96.428 248.299535 
L 96.428 217.356279 
L 103.124 217.356279 
L 103.124 201.884651 
L 109.82 201.884651 
L 109.82 155.469767 
L 116.516 155.469767 
L 116.516 109.054884 
L 123.212 109.054884 
L 123.212 47.168372 
L 129.908 47.168372 
L 129.908 -86.91907 
L 136.604 -86.91907 
L 136.604 -159.12 
L 143.3 -159.12 
L 143.3 -231.32093 
L 149.996 -231.32093 
L 149.996 -391.194419 
L 156.692 -391.194419 
L 156.692 -649.054884 
L 163.388 -649.054884 
L 163.388 -700.626977 
L 170.084 -700.626977 
L 170.084 -850.186047 
L 176.78 -850.186047 
L 176.78 -896.60093 
L 183.476 -896.60093 
L 183.476 -891.443721 
L 190.172 -891.443721 
L 190.172 -1025.531163 
L 196.868 -1025.531163 
L 196.868 -1252.448372 
L 203.564 -1252.448372 
L 203.564 -1355.592558 
L 210.26 -1355.592558 
L 210.26 -1721.754419 
L 216.956 -1721.754419 
L 216.956 -2206.532093 
L 223.652 -2206.532093 
L 223.652 -2454.07814 
L 230.348 -2454.07814 
L 230.348 -3124.515349 
L 237.044 -3124.515349 
L 237.044 -3578.349767 
L 243.74 -3578.349767 
L 243.74 -3836.210233 
L 250.436 -3836.210233 
L 250.436 -3831.053023 
L 257.132 -3831.053023 
L 257.132 -3557.72093 
L 263.828 -3557.72093 
L 263.828 -3485.52 
L 270.524 -3485.52 
L 270.524 -3356.589767 
L 277.22 -3356.589767 
L 277.22 -2701.624186 
L 283.916 -2701.624186 
L 283.916 -2139.488372 
L 290.612 -2139.488372 
L 290.612 -1525.780465 
L 297.308 -1525.780465 
L 297.308 -1144.146977 
L 304.004 -1144.146977 
L 304.004 -736.727442 
L 310.7 -736.727442 
L 310.7 -514.967442 
L 317.396 -514.967442 
L 317.396 -174.591628 
L 324.092 -174.591628 
L 324.092 -25.032558 
L 330.788 -25.032558 
L 330.788 103.897674 
L 337.484 103.897674 
L 337.484 134.84093 
L 344.18 134.84093 
L 344.18 222.513488 
L 350.876 222.513488 
L 350.876 222.513488 
L 357.572 222.513488 
L 357.572 253.456744 
L 364.268 253.456744 
L 364.268 248.299535 
L 370.964 248.299535 
L 370.964 253.456744 
L 377.66 253.456744 
L 377.66 253.456744 
L 384.356 253.456744 
L 384.356 258.613953 
L 391.052 258.613953 
L 391.052 258.613953 
L 397.748 258.613953 
L 397.748 258.613953 
L 404.444 258.613953 
L 404.444 258.613953 
L 411.14 258.613953 
L 411.14 258.613953 
L 411.14 258.613953 
L 411.14 258.613953 
L 404.444 258.613953 
L 404.444 258.613953 
L 397.748 258.613953 
L 397.748 258.613953 
L 391.052 258.613953 
L 391.052 258.613953 
L 384.356 258.613953 
L 384.356 258.613953 
L 377.66 258.613953 
L 377.66 258.613953 
L 370.964 258.613953 
L 370.964 258.613953 
L 364.268 258.613953 
L 364.268 258.613953 
L 357.572 258.613953 
L 357.572 258.613953 
L 350.876 258.613953 
L 350.876 258.613953 
L 344.18 258.613953 
L 344.18 258.613953 
L 337.484 258.613953 
L 337.484 258.613953 
L 330.788 258.613953 
L 330.788 258.613953 
L 324.092 258.613953 
L 324.092 258.613953 
L 317.396 258.613953 
L 317.396 258.613953 
L 310.7 258.613953 
L 310.7 258.613953 
L 304.004 258.613953 
L 304.004 258.613953 
L 297.308 258.613953 
L 297.308 258.613953 
L 290.612 258.613953 
L 290.612 258.613953 
L 283.916 258.613953 
L 283.916 258.613953 
L 277.22 258.613953 
L 277.22 258.613953 
L 270.524 258.613953 
L 270.524 258.613953 
L 263.828 258.613953 
L 263.828 258.613953 
L 257.132 258.613953 
L 257.132 258.613953 
L 250.436 258.613953 
L 250.436 258.613953 
L 243.74 258.613953 
L 243.74 258.613953 
L 237.044 258.613953 
L 237.044 258.613953 
L 230.348 258.613953 
L 230.348 258.613953 
L 223.652 258.613953 
L 223.652 258.613953 
L 216.956 258.613953 
L 216.956 258.613953 
L 210.26 258.613953 
L 210.26 258.613953 
L 203.564 258.613953 
L 203.564 258.613953 
L 196.868 258.613953 
L 196.868 258.613953 
L 190.172 258.613953 
L 190.172 258.613953 
L 183.476 258.613953 
L 183.476 258.613953 
L 176.78 258.613953 
L 176.78 258.613953 
L 170.084 258.613953 
L 170.084 258.613953 
L 163.388 258.613953 
L 163.388 258.613953 
L 156.692 258.613953 
L 156.692 258.613953 
L 149.996 258.613953 
L 149.996 258.613953 
L 143.3 258.613953 
L 143.3 258.613953 
L 136.604 258.613953 
L 136.604 258.613953 
L 129.908 258.613953 
L 129.908 258.613953 
L 123.212 258.613953 
L 123.212 258.613953 
L 116.516 258.613953 
L 116.516 258.613953 
L 109.82 258.613953 
L 109.82 258.613953 
L 103.124 258.613953 
L 103.124 258.613953 
L 96.428 258.613953 
L 96.428 258.613953 
L 89.732 258.613953 
L 89.732 258.613953 
L 83.036 258.613953 
L 83.036 258.613953 
L 76.34 258.613953 
L 76.34 258.613953 
" clip-path="url(#pee3d6b9900)" style="fill: #a9a9a9"/>
   </g>
   <g id="line2d_45">
    <path d="M 76.34 258.613953 
L 411.14 258.613953 
" clip-path="url(#pee3d6b9900)" style="fill: none; stroke-dasharray: 3.7,1.6; stroke-dashoffset: 0; stroke: #000000"/>
   </g>
   <g id="patch_11">
    <path d="M 76.34 284.4 
L 76.34 232.827907 
" style="fill: none; stroke: #000000; stroke-linejoin: miter; stroke-linecap: square"/>
   </g>
   <g id="patch_12">
    <path d="M 411.14 284.4 
L 411.14 232.827907 
" style="fill: none; stroke: #000000; stroke-linejoin: miter; stroke-linecap: square"/>
   </g>
   <g id="patch_13">
    <path d="M 76.34 284.4 
L 411.14 284.4 
" style="fill: none; stroke: #000000; stroke-linejoin: miter; stroke-linecap: square"/>
   </g>
   <g id="patch_14">
    <path d="M 76.34 232.827907 
L 411.14 232.827907 
" style="fill: none; stroke: #000000; stroke-linejoin: miter; stroke-linecap: square"/>
   </g>
   <g id="matplotlib.axis_3">
    <g id="xtick_19">
     <g id="line2d_46">
      <g>
       <use xlink:href="#m8dec1b3d1d" x="125.910027" y="284.4" style="fill: #1a1a1a; stroke: #1a1a1a; stroke-width: 0.8"/>
      </g>
     </g>
     <g id="text_9">
      <!-- $\mathdefault{−5}$ -->
      <g style="fill: #1a1a1a" transform="translate(116.310027 302.810938) scale(0.15 -0.15)">
       <defs>
        <path id="LatinModernMath-Regular-2212" d="M 4621 1600 
C 4621 1670 4563 1728 4493 1728 
L 486 1728 
C 416 1728 358 1670 358 1600 
C 358 1530 416 1472 486 1472 
L 4493 1472 
C 4563 1472 4621 1530 4621 1600 
z
" transform="scale(0.015625)"/>
        <path id="LatinModernMath-Regular-35" d="M 2874 1286 
C 2874 2048 2349 2688 1658 2688 
C 1350 2688 1075 2586 845 2362 
L 845 3610 
C 973 3571 1184 3526 1389 3526 
C 2176 3526 2624 4109 2624 4192 
C 2624 4230 2605 4262 2560 4262 
C 2560 4262 2541 4262 2509 4243 
C 2381 4186 2067 4058 1638 4058 
C 1382 4058 1088 4102 787 4237 
C 736 4256 710 4256 710 4256 
C 646 4256 646 4205 646 4102 
L 646 2208 
C 646 2093 646 2042 736 2042 
C 781 2042 794 2061 819 2099 
C 890 2202 1126 2547 1645 2547 
C 1978 2547 2138 2253 2189 2138 
C 2291 1901 2304 1651 2304 1331 
C 2304 1107 2304 723 2150 454 
C 1997 205 1760 38 1466 38 
C 998 38 634 378 525 755 
C 544 749 563 742 634 742 
C 845 742 954 902 954 1056 
C 954 1210 845 1370 634 1370 
C 544 1370 320 1325 320 1030 
C 320 480 762 -141 1478 -141 
C 2221 -141 2874 474 2874 1286 
z
" transform="scale(0.015625)"/>
       </defs>
       <use xlink:href="#LatinModernMath-Regular-2212" transform="translate(0 0.40625)"/>
       <use xlink:href="#LatinModernMath-Regular-35" transform="translate(77.799988 0.40625)"/>
      </g>
     </g>
    </g>
    <g id="xtick_20">
     <g id="line2d_47">
      <g>
       <use xlink:href="#m8dec1b3d1d" x="218.996635" y="284.4" style="fill: #1a1a1a; stroke: #1a1a1a; stroke-width: 0.8"/>
      </g>
     </g>
     <g id="text_10">
      <!-- $\mathdefault{0}$ -->
      <g style="fill: #1a1a1a" transform="translate(215.246635 302.810938) scale(0.15 -0.15)">
       <use xlink:href="#LatinModernMath-Regular-30" transform="translate(0 0.40625)"/>
      </g>
     </g>
    </g>
    <g id="xtick_21">
     <g id="line2d_48">
      <g>
       <use xlink:href="#m8dec1b3d1d" x="312.083242" y="284.4" style="fill: #1a1a1a; stroke: #1a1a1a; stroke-width: 0.8"/>
      </g>
     </g>
     <g id="text_11">
      <!-- $\mathdefault{5}$ -->
      <g style="fill: #1a1a1a" transform="translate(308.333242 302.810938) scale(0.15 -0.15)">
       <use xlink:href="#LatinModernMath-Regular-35" transform="translate(0 0.40625)"/>
      </g>
     </g>
    </g>
    <g id="xtick_22">
     <g id="line2d_49">
      <g>
       <use xlink:href="#m8dec1b3d1d" x="405.169849" y="284.4" style="fill: #1a1a1a; stroke: #1a1a1a; stroke-width: 0.8"/>
      </g>
     </g>
     <g id="text_12">
      <!-- $\mathdefault{10}$ -->
      <g style="fill: #1a1a1a" transform="translate(397.669849 302.810938) scale(0.15 -0.15)">
       <use xlink:href="#LatinModernMath-Regular-31" transform="translate(0 0.40625)"/>
       <use xlink:href="#LatinModernMath-Regular-30" transform="translate(49.999985 0.40625)"/>
      </g>
     </g>
    </g>
    <g id="xtick_23">
     <g id="line2d_50">
      <g>
       <use xlink:href="#m131efc0c90" x="88.675384" y="284.4" style="fill: #1a1a1a; stroke: #1a1a1a; stroke-width: 0.6"/>
      </g>
     </g>
    </g>
    <g id="xtick_24">
     <g id="line2d_51">
      <g>
       <use xlink:href="#m131efc0c90" x="107.292706" y="284.4" style="fill: #1a1a1a; stroke: #1a1a1a; stroke-width: 0.6"/>
      </g>
     </g>
    </g>
    <g id="xtick_25">
     <g id="line2d_52">
      <g>
       <use xlink:href="#m131efc0c90" x="144.527349" y="284.4" style="fill: #1a1a1a; stroke: #1a1a1a; stroke-width: 0.6"/>
      </g>
     </g>
    </g>
    <g id="xtick_26">
     <g id="line2d_53">
      <g>
       <use xlink:href="#m131efc0c90" x="163.14467" y="284.4" style="fill: #1a1a1a; stroke: #1a1a1a; stroke-width: 0.6"/>
      </g>
     </g>
    </g>
    <g id="xtick_27">
     <g id="line2d_54">
      <g>
       <use xlink:href="#m131efc0c90" x="181.761992" y="284.4" style="fill: #1a1a1a; stroke: #1a1a1a; stroke-width: 0.6"/>
      </g>
     </g>
    </g>
    <g id="xtick_28">
     <g id="line2d_55">
      <g>
       <use xlink:href="#m131efc0c90" x="200.379313" y="284.4" style="fill: #1a1a1a; stroke: #1a1a1a; stroke-width: 0.6"/>
      </g>
     </g>
    </g>
    <g id="xtick_29">
     <g id="line2d_56">
      <g>
       <use xlink:href="#m131efc0c90" x="237.613956" y="284.4" style="fill: #1a1a1a; stroke: #1a1a1a; stroke-width: 0.6"/>
      </g>
     </g>
    </g>
    <g id="xtick_30">
     <g id="line2d_57">
      <g>
       <use xlink:href="#m131efc0c90" x="256.231277" y="284.4" style="fill: #1a1a1a; stroke: #1a1a1a; stroke-width: 0.6"/>
      </g>
     </g>
    </g>
    <g id="xtick_31">
     <g id="line2d_58">
      <g>
       <use xlink:href="#m131efc0c90" x="274.848599" y="284.4" style="fill: #1a1a1a; stroke: #1a1a1a; stroke-width: 0.6"/>
      </g>
     </g>
    </g>
    <g id="xtick_32">
     <g id="line2d_59">
      <g>
       <use xlink:href="#m131efc0c90" x="293.46592" y="284.4" style="fill: #1a1a1a; stroke: #1a1a1a; stroke-width: 0.6"/>
      </g>
     </g>
    </g>
    <g id="xtick_33">
     <g id="line2d_60">
      <g>
       <use xlink:href="#m131efc0c90" x="330.700563" y="284.4" style="fill: #1a1a1a; stroke: #1a1a1a; stroke-width: 0.6"/>
      </g>
     </g>
    </g>
    <g id="xtick_34">
     <g id="line2d_61">
      <g>
       <use xlink:href="#m131efc0c90" x="349.317885" y="284.4" style="fill: #1a1a1a; stroke: #1a1a1a; stroke-width: 0.6"/>
      </g>
     </g>
    </g>
    <g id="xtick_35">
     <g id="line2d_62">
      <g>
       <use xlink:href="#m131efc0c90" x="367.935206" y="284.4" style="fill: #1a1a1a; stroke: #1a1a1a; stroke-width: 0.6"/>
      </g>
     </g>
    </g>
    <g id="xtick_36">
     <g id="line2d_63">
      <g>
       <use xlink:href="#m131efc0c90" x="386.552528" y="284.4" style="fill: #1a1a1a; stroke: #1a1a1a; stroke-width: 0.6"/>
      </g>
     </g>
    </g>
    <g id="text_13">
     <!-- variable_1 -->
     <g style="fill: #1a1a1a" transform="translate(204.959844 324.215) scale(0.18 -0.18)">
      <defs>
       <path id="LatinModernMath-Regular-76" d="M 3251 2560 
L 3251 2758 
C 3104 2746 2918 2739 2771 2739 
L 2214 2758 
L 2214 2560 
C 2451 2554 2522 2406 2522 2285 
C 2522 2227 2509 2202 2483 2131 
L 1830 499 
L 1114 2285 
C 1075 2368 1075 2394 1075 2394 
C 1075 2560 1325 2560 1440 2560 
L 1440 2758 
L 742 2739 
C 570 2739 314 2746 122 2758 
L 122 2560 
C 525 2560 550 2522 634 2323 
L 1555 51 
C 1594 -38 1606 -70 1690 -70 
C 1773 -70 1798 -13 1824 51 
L 2662 2131 
C 2720 2278 2829 2554 3251 2560 
z
" transform="scale(0.015625)"/>
       <path id="LatinModernMath-Regular-61" d="M 3091 570 
L 3091 928 
L 2931 928 
L 2931 570 
C 2931 198 2771 160 2701 160 
C 2490 160 2464 448 2464 480 
L 2464 1760 
C 2464 2029 2464 2278 2234 2515 
C 1984 2765 1664 2867 1357 2867 
C 832 2867 390 2566 390 2144 
C 390 1952 518 1843 685 1843 
C 864 1843 979 1971 979 2138 
C 979 2214 947 2426 653 2432 
C 826 2656 1139 2726 1344 2726 
C 1658 2726 2022 2477 2022 1907 
L 2022 1670 
C 1696 1651 1248 1632 845 1440 
C 365 1222 205 890 205 608 
C 205 90 826 -70 1229 -70 
C 1651 -70 1946 186 2067 486 
C 2093 230 2266 -38 2566 -38 
C 2701 -38 3091 51 3091 570 
z
M 2022 896 
C 2022 288 1562 70 1274 70 
C 960 70 698 294 698 614 
C 698 966 966 1498 2022 1536 
L 2022 896 
z
" transform="scale(0.015625)"/>
       <path id="LatinModernMath-Regular-62" d="M 3334 1382 
C 3334 2195 2707 2829 1978 2829 
C 1478 2829 1203 2528 1101 2413 
L 1101 4442 
L 179 4371 
L 179 4173 
C 627 4173 678 4128 678 3814 
L 678 0 
L 838 0 
L 1069 397 
C 1165 250 1434 -70 1907 -70 
C 2669 -70 3334 557 3334 1382 
z
M 2803 1389 
C 2803 1152 2790 768 2605 480 
C 2470 282 2227 70 1882 70 
C 1594 70 1363 224 1210 461 
C 1120 595 1120 614 1120 730 
L 1120 2048 
C 1120 2170 1120 2176 1190 2278 
C 1440 2637 1792 2688 1946 2688 
C 2234 2688 2464 2522 2618 2278 
C 2784 2016 2803 1651 2803 1389 
z
" transform="scale(0.015625)"/>
       <path id="LatinModernMath-Regular-6c" d="M 1632 0 
L 1632 198 
C 1203 198 1133 198 1133 486 
L 1133 4442 
L 211 4371 
L 211 4173 
C 659 4173 710 4128 710 3814 
L 710 486 
C 710 198 640 198 211 198 
L 211 0 
L 922 19 
L 1632 0 
z
" transform="scale(0.015625)"/>
       <path id="LatinModernMath-Regular-5f" d="M 2131 -896 
L 2131 -640 
L 0 -640 
L 0 -896 
L 2131 -896 
z
" transform="scale(0.015625)"/>
      </defs>
      <use xlink:href="#LatinModernMath-Regular-76"/>
      <use xlink:href="#LatinModernMath-Regular-61" transform="translate(52.799988 0)"/>
      <use xlink:href="#LatinModernMath-Regular-72" transform="translate(102.799973 0)"/>
      <use xlink:href="#LatinModernMath-Regular-69" transform="translate(141.999969 0)"/>
      <use xlink:href="#LatinModernMath-Regular-61" transform="translate(169.799957 0)"/>
      <use xlink:href="#LatinModernMath-Regular-62" transform="translate(219.799942 0)"/>
      <use xlink:href="#LatinModernMath-Regular-6c" transform="translate(275.399933 0)"/>
      <use xlink:href="#LatinModernMath-Regular-65" transform="translate(303.199921 0)"/>
      <use xlink:href="#LatinModernMath-Regular-5f" transform="translate(347.599915 0)"/>
      <use xlink:href="#LatinModernMath-Regular-31" transform="translate(380.899902 0)"/>
     </g>
    </g>
   </g>
   <g id="matplotlib.axis_4">
    <g id="ytick_19">
     <g id="line2d_64">
      <g>
       <use xlink:href="#mc947610920" x="76.34" y="284.4" style="fill: #1a1a1a; stroke: #1a1a1a; stroke-width: 0.8"/>
      </g>
     </g>
     <g id="text_14">
      <!-- $\mathdefault{−5}$ -->
      <g style="fill: #1a1a1a" transform="translate(52.14 289.605469) scale(0.15 -0.15)">
       <use xlink:href="#LatinModernMath-Regular-2212" transform="translate(0 0.40625)"/>
       <use xlink:href="#LatinModernMath-Regular-35" transform="translate(77.799988 0.40625)"/>
      </g>
     </g>
    </g>
    <g id="ytick_20">
     <g id="line2d_65">
      <g>
       <use xlink:href="#mc947610920" x="76.34" y="258.613953" style="fill: #1a1a1a; stroke: #1a1a1a; stroke-width: 0.8"/>
      </g>
     </g>
     <g id="text_15">
      <!-- $\mathdefault{0}$ -->
      <g style="fill: #1a1a1a" transform="translate(63.84 263.819422) scale(0.15 -0.15)">
       <use xlink:href="#LatinModernMath-Regular-30" transform="translate(0 0.40625)"/>
      </g>
     </g>
    </g>
    <g id="ytick_21">
     <g id="line2d_66">
      <g>
       <use xlink:href="#mc947610920" x="76.34" y="232.827907" style="fill: #1a1a1a; stroke: #1a1a1a; stroke-width: 0.8"/>
      </g>
     </g>
     <g id="text_16">
      <!-- $\mathdefault{5}$ -->
      <g style="fill: #1a1a1a" transform="translate(63.84 238.033376) scale(0.15 -0.15)">
       <use xlink:href="#LatinModernMath-Regular-35" transform="translate(0 0.40625)"/>
      </g>
     </g>
    </g>
    <g id="ytick_22">
     <g id="line2d_67">
      <g>
       <use xlink:href="#m5f9d1e6504" x="76.34" y="279.242791" style="fill: #1a1a1a; stroke: #1a1a1a; stroke-width: 0.6"/>
      </g>
     </g>
    </g>
    <g id="ytick_23">
     <g id="line2d_68">
      <g>
       <use xlink:href="#m5f9d1e6504" x="76.34" y="274.085581" style="fill: #1a1a1a; stroke: #1a1a1a; stroke-width: 0.6"/>
      </g>
     </g>
    </g>
    <g id="ytick_24">
     <g id="line2d_69">
      <g>
       <use xlink:href="#m5f9d1e6504" x="76.34" y="268.928372" style="fill: #1a1a1a; stroke: #1a1a1a; stroke-width: 0.6"/>
      </g>
     </g>
    </g>
    <g id="ytick_25">
     <g id="line2d_70">
      <g>
       <use xlink:href="#m5f9d1e6504" x="76.34" y="263.771163" style="fill: #1a1a1a; stroke: #1a1a1a; stroke-width: 0.6"/>
      </g>
     </g>
    </g>
    <g id="ytick_26">
     <g id="line2d_71">
      <g>
       <use xlink:href="#m5f9d1e6504" x="76.34" y="253.456744" style="fill: #1a1a1a; stroke: #1a1a1a; stroke-width: 0.6"/>
      </g>
     </g>
    </g>
    <g id="ytick_27">
     <g id="line2d_72">
      <g>
       <use xlink:href="#m5f9d1e6504" x="76.34" y="248.299535" style="fill: #1a1a1a; stroke: #1a1a1a; stroke-width: 0.6"/>
      </g>
     </g>
    </g>
    <g id="ytick_28">
     <g id="line2d_73">
      <g>
       <use xlink:href="#m5f9d1e6504" x="76.34" y="243.142326" style="fill: #1a1a1a; stroke: #1a1a1a; stroke-width: 0.6"/>
      </g>
     </g>
    </g>
    <g id="ytick_29">
     <g id="line2d_74">
      <g>
       <use xlink:href="#m5f9d1e6504" x="76.34" y="237.985116" style="fill: #1a1a1a; stroke: #1a1a1a; stroke-width: 0.6"/>
      </g>
     </g>
    </g>
    <g id="text_17">
     <!-- $\frac{ h_1 - h_2 }{ \sqrt{\sigma^2_{h_1} + \sigma^2_{h_2}} } $ -->
     <g style="fill: #1a1a1a" transform="translate(24.48 289.843953) rotate(-90) scale(0.18 -0.18)">
      <defs>
       <path id="Cmex10-71" d="M 2713 -11263 
L 1259 -6188 
L 819 -6700 
L 703 -6578 
L 1619 -5503 
L 2981 -10266 
L 6284 178 
Q 6306 256 6400 256 
Q 6453 256 6490 218 
Q 6528 181 6528 128 
L 6528 103 
L 2963 -11188 
Q 2925 -11263 2853 -11263 
L 2713 -11263 
z
" transform="scale(0.015625)"/>
       <path id="LatinModernMath-Regular-3c3" d="M 3379 2605 
C 3341 2758 3206 2758 3091 2758 
L 1632 2758 
C 666 2758 224 1702 410 941 
C 550 378 1043 -70 1626 -70 
C 2381 -70 3040 704 2790 1690 
C 2765 1798 2688 2106 2419 2387 
L 3123 2387 
C 3206 2387 3437 2387 3379 2605 
z
M 2362 1766 
C 2438 1466 2438 941 2304 614 
C 2150 237 1843 70 1594 70 
C 1280 70 966 301 851 762 
C 806 954 749 1478 883 1856 
C 1037 2298 1402 2387 1619 2387 
C 2157 2387 2310 1965 2362 1766 
z
" transform="scale(0.015625)"/>
       <path id="LatinModernMath-Regular-2b" d="M 4621 1600 
C 4621 1670 4563 1728 4493 1728 
L 2618 1728 
L 2618 3603 
C 2618 3674 2560 3731 2490 3731 
C 2419 3731 2362 3674 2362 3603 
L 2362 1728 
L 486 1728 
C 416 1728 358 1670 358 1600 
C 358 1530 416 1472 486 1472 
L 2362 1472 
L 2362 -403 
C 2362 -474 2419 -531 2490 -531 
C 2560 -531 2618 -474 2618 -403 
L 2618 1472 
L 4493 1472 
C 4563 1472 4621 1530 4621 1600 
z
" transform="scale(0.015625)"/>
      </defs>
      <use xlink:href="#LatinModernMath-Regular-68" transform="translate(62 47.415625) scale(0.7)"/>
      <use xlink:href="#LatinModernMath-Regular-31" transform="translate(101.447892 38.365938) scale(0.49)"/>
      <use xlink:href="#LatinModernMath-Regular-2212" transform="translate(139.747181 47.415625) scale(0.7)"/>
      <use xlink:href="#LatinModernMath-Regular-68" transform="translate(206.498189 47.415625) scale(0.7)"/>
      <use xlink:href="#LatinModernMath-Regular-32" transform="translate(245.946081 38.365938) scale(0.49)"/>
      <use xlink:href="#Cmex10-71" transform="translate(0 0.594844) scale(0.575604)"/>
      <use xlink:href="#LatinModernMath-Regular-3c3" transform="translate(66.303125 -79.56625) scale(0.7)"/>
      <use xlink:href="#LatinModernMath-Regular-32" transform="translate(108.761019 -51.89) scale(0.49)"/>
      <use xlink:href="#LatinModernMath-Regular-68" transform="translate(108.761019 -94.649063) scale(0.49)"/>
      <use xlink:href="#LatinModernMath-Regular-31" transform="translate(136.374544 -100.983844) scale(0.343)"/>
      <use xlink:href="#LatinModernMath-Regular-2b" transform="translate(168.379632 -79.56625) scale(0.7)"/>
      <use xlink:href="#LatinModernMath-Regular-3c3" transform="translate(235.130639 -79.56625) scale(0.7)"/>
      <use xlink:href="#LatinModernMath-Regular-32" transform="translate(277.588533 -51.89) scale(0.49)"/>
      <use xlink:href="#LatinModernMath-Regular-68" transform="translate(277.588533 -94.649063) scale(0.49)"/>
      <use xlink:href="#LatinModernMath-Regular-32" transform="translate(305.202058 -100.983844) scale(0.343)"/>
      <path d="M 0 13.365938 
L 0 19.615938 
L 333.666131 19.615938 
L 333.666131 13.365938 
L 0 13.365938 
z
"/>
      <path d="M 57.553125 -1.634062 
L 57.553125 2.740938 
L 333.666131 2.740938 
L 333.666131 -1.634062 
L 57.553125 -1.634062 
z
"/>
     </g>
    </g>
   </g>
  </g>
 </g>
 <defs>
  <clipPath id="p6aa36ef497">
   <rect x="76.34" y="7.2" width="334.8" height="206.288372"/>
  </clipPath>
  <clipPath id="pee3d6b9900">
   <rect x="76.34" y="232.827907" width="334.8" height="51.572093"/>
  </clipPath>
 </defs>
</svg>
