<?xml version="1.0" encoding="utf-8" standalone="no"?>
<!DOCTYPE svg PUBLIC "-//W3C//DTD SVG 1.1//EN"
  "http://www.w3.org/Graphics/SVG/1.1/DTD/svg11.dtd">
<svg xmlns:xlink="http://www.w3.org/1999/xlink" width="407.629849pt" height="334.908125pt" viewBox="0 0 407.629849 334.908125" xmlns="http://www.w3.org/2000/svg" version="1.1">
 <metadata>
  <rdf:RDF xmlns:dc="http://purl.org/dc/elements/1.1/" xmlns:cc="http://creativecommons.org/ns#" xmlns:rdf="http://www.w3.org/1999/02/22-rdf-syntax-ns#">
   <cc:Work>
    <dc:creator>
     <cc:Agent>
      <dc:title>カリビアンカフェ</dc:title>
     </cc:Agent>
    </dc:creator>
   </cc:Work>
  </rdf:RDF>
 </metadata>
 <defs>
  <style type="text/css">*{stroke-linejoin: round; stroke-linecap: butt}</style>
 </defs>
 <g id="figure_1">
  <g id="patch_1">
   <path d="M 0 334.908125 
L 407.629849 334.908125 
L 407.629849 0 
L 0 0 
z
" style="fill: #ffffff"/>
  </g>
  <g id="axes_1">
   <g id="patch_2">
    <path d="M 64.1 213.488372 
L 398.9 213.488372 
L 398.9 7.2 
L 64.1 7.2 
z
" style="fill: #ffffff"/>
   </g>
   <g id="patch_3">
    <path d="M 64.1 213.488372 
L 64.1 213.488372 
L 70.796 213.488372 
L 70.796 213.240935 
L 77.492 213.240935 
L 77.492 213.240935 
L 84.188 213.240935 
L 84.188 212.003749 
L 90.884 212.003749 
L 90.884 211.756312 
L 97.58 211.756312 
L 97.58 210.024252 
L 104.276 210.024252 
L 104.276 207.54988 
L 110.972 207.54988 
L 110.972 201.363951 
L 117.668 201.363951 
L 117.668 191.961338 
L 124.364 191.961338 
L 124.364 180.331791 
L 131.06 180.331791 
L 131.06 168.702244 
L 137.756 168.702244 
L 137.756 155.588073 
L 144.452 155.588073 
L 144.452 131.586667 
L 151.148 131.586667 
L 151.148 108.822447 
L 157.844 108.822447 
L 157.844 92.244157 
L 164.54 92.244157 
L 164.54 81.604358 
L 171.236 81.604358 
L 171.236 82.841544 
L 177.932 82.841544 
L 177.932 87.790288 
L 184.628 87.790288 
L 184.628 101.646769 
L 191.324 101.646769 
L 191.324 97.935212 
L 198.02 97.935212 
L 198.02 101.399332 
L 204.716 101.399332 
L 204.716 104.616015 
L 211.412 104.616015 
L 211.412 100.409584 
L 218.108 100.409584 
L 218.108 96.450589 
L 224.804 96.450589 
L 224.804 85.315916 
L 231.5 85.315916 
L 231.5 76.903052 
L 238.196 76.903052 
L 238.196 75.665866 
L 244.892 75.665866 
L 244.892 82.34667 
L 251.588 82.34667 
L 251.588 86.553102 
L 258.284 86.553102 
L 258.284 106.348076 
L 264.98 106.348076 
L 264.98 117.235311 
L 271.676 117.235311 
L 271.676 134.061039 
L 278.372 134.061039 
L 278.372 139.504657 
L 285.068 139.504657 
L 285.068 166.227872 
L 291.764 166.227872 
L 291.764 174.393299 
L 298.46 174.393299 
L 298.46 186.022846 
L 305.156 186.022846 
L 305.156 192.456212 
L 311.852 192.456212 
L 311.852 200.126765 
L 318.548 200.126765 
L 318.548 203.590885 
L 325.244 203.590885 
L 325.244 207.54988 
L 331.94 207.54988 
L 331.94 209.529377 
L 338.636 209.529377 
L 338.636 209.776814 
L 345.332 209.776814 
L 345.332 212.993498 
L 352.028 212.993498 
L 352.028 212.993498 
L 358.724 212.993498 
L 358.724 212.993498 
L 365.42 212.993498 
L 365.42 213.240935 
L 372.116 213.240935 
L 372.116 213.488372 
L 378.812 213.488372 
L 378.812 213.488372 
L 385.508 213.488372 
L 385.508 213.488372 
L 392.204 213.488372 
L 392.204 212.993498 
L 398.9 212.993498 
L 398.9 213.488372 
" clip-path="url(#pc47c9758c4)" style="fill: none; stroke: #348abd; stroke-linejoin: miter"/>
   </g>
   <g id="patch_4">
    <path d="M 64.1 213.488372 
L 64.1 213.240935 
L 70.796 213.240935 
L 70.796 212.993498 
L 77.492 212.993498 
L 77.492 212.993498 
L 84.188 212.993498 
L 84.188 211.508875 
L 90.884 211.508875 
L 90.884 210.766563 
L 97.58 210.766563 
L 97.58 208.539629 
L 104.276 208.539629 
L 104.276 206.312694 
L 110.972 206.312694 
L 110.972 203.343448 
L 117.668 203.343448 
L 117.668 196.910081 
L 124.364 196.910081 
L 124.364 193.445961 
L 131.06 193.445961 
L 131.06 189.981841 
L 137.756 189.981841 
L 137.756 182.311288 
L 144.452 182.311288 
L 144.452 169.939429 
L 151.148 169.939429 
L 151.148 167.465058 
L 157.844 167.465058 
L 157.844 160.28938 
L 164.54 160.28938 
L 164.54 158.062445 
L 171.236 158.062445 
L 171.236 158.309882 
L 177.932 158.309882 
L 177.932 151.876516 
L 184.628 151.876516 
L 184.628 140.98928 
L 191.324 140.98928 
L 191.324 136.040537 
L 198.02 136.040537 
L 198.02 118.472497 
L 204.716 118.472497 
L 204.716 95.213403 
L 211.412 95.213403 
L 211.412 83.336418 
L 218.108 83.336418 
L 218.108 51.169586 
L 224.804 51.169586 
L 224.804 29.395115 
L 231.5 29.395115 
L 231.5 17.023256 
L 238.196 17.023256 
L 238.196 17.270693 
L 244.892 17.270693 
L 244.892 30.384863 
L 251.588 30.384863 
L 251.588 33.848984 
L 258.284 33.848984 
L 258.284 40.034913 
L 264.98 40.034913 
L 264.98 71.459434 
L 271.676 71.459434 
L 271.676 98.430086 
L 278.372 98.430086 
L 278.372 127.87511 
L 285.068 127.87511 
L 285.068 146.185461 
L 291.764 146.185461 
L 291.764 165.732997 
L 298.46 165.732997 
L 298.46 176.372796 
L 305.156 176.372796 
L 305.156 192.703649 
L 311.852 192.703649 
L 311.852 199.879328 
L 318.548 199.879328 
L 318.548 206.065257 
L 325.244 206.065257 
L 325.244 207.54988 
L 331.94 207.54988 
L 331.94 211.756312 
L 338.636 211.756312 
L 338.636 211.756312 
L 345.332 211.756312 
L 345.332 213.240935 
L 352.028 213.240935 
L 352.028 212.993498 
L 358.724 212.993498 
L 358.724 213.240935 
L 365.42 213.240935 
L 365.42 213.240935 
L 372.116 213.240935 
L 372.116 213.488372 
L 378.812 213.488372 
L 378.812 213.488372 
L 385.508 213.488372 
L 385.508 213.488372 
L 392.204 213.488372 
L 392.204 213.488372 
L 398.9 213.488372 
L 398.9 213.488372 
" clip-path="url(#pc47c9758c4)" style="fill: none; stroke: #e24a33; stroke-linejoin: miter"/>
   </g>
   <g id="patch_5">
    <path d="M 64.1 213.488372 
L 64.1 7.2 
" style="fill: none; stroke: #000000; stroke-linejoin: miter; stroke-linecap: square"/>
   </g>
   <g id="patch_6">
    <path d="M 398.9 213.488372 
L 398.9 7.2 
" style="fill: none; stroke: #000000; stroke-linejoin: miter; stroke-linecap: square"/>
   </g>
   <g id="patch_7">
    <path d="M 64.1 213.488372 
L 398.9 213.488372 
" style="fill: none; stroke: #000000; stroke-linejoin: miter; stroke-linecap: square"/>
   </g>
   <g id="patch_8">
    <path d="M 64.1 7.2 
L 398.9 7.2 
" style="fill: none; stroke: #000000; stroke-linejoin: miter; stroke-linecap: square"/>
   </g>
   <g id="matplotlib.axis_1">
    <g id="xtick_1">
     <g id="line2d_1">
      <defs>
       <path id="m8dec1b3d1d" d="M 0 0 
L 0 -6 
" style="stroke: #1a1a1a; stroke-width: 0.8"/>
      </defs>
      <g>
       <use xlink:href="#m8dec1b3d1d" x="113.670027" y="213.488372" style="fill: #1a1a1a; stroke: #1a1a1a; stroke-width: 0.8"/>
      </g>
     </g>
    </g>
    <g id="xtick_2">
     <g id="line2d_2">
      <g>
       <use xlink:href="#m8dec1b3d1d" x="206.756635" y="213.488372" style="fill: #1a1a1a; stroke: #1a1a1a; stroke-width: 0.8"/>
      </g>
     </g>
    </g>
    <g id="xtick_3">
     <g id="line2d_3">
      <g>
       <use xlink:href="#m8dec1b3d1d" x="299.843242" y="213.488372" style="fill: #1a1a1a; stroke: #1a1a1a; stroke-width: 0.8"/>
      </g>
     </g>
    </g>
    <g id="xtick_4">
     <g id="line2d_4">
      <g>
       <use xlink:href="#m8dec1b3d1d" x="392.929849" y="213.488372" style="fill: #1a1a1a; stroke: #1a1a1a; stroke-width: 0.8"/>
      </g>
     </g>
    </g>
    <g id="xtick_5">
     <g id="line2d_5">
      <defs>
       <path id="m131efc0c90" d="M 0 0 
L 0 -3 
" style="stroke: #1a1a1a; stroke-width: 0.6"/>
      </defs>
      <g>
       <use xlink:href="#m131efc0c90" x="76.435384" y="213.488372" style="fill: #1a1a1a; stroke: #1a1a1a; stroke-width: 0.6"/>
      </g>
     </g>
    </g>
    <g id="xtick_6">
     <g id="line2d_6">
      <g>
       <use xlink:href="#m131efc0c90" x="95.052706" y="213.488372" style="fill: #1a1a1a; stroke: #1a1a1a; stroke-width: 0.6"/>
      </g>
     </g>
    </g>
    <g id="xtick_7">
     <g id="line2d_7">
      <g>
       <use xlink:href="#m131efc0c90" x="132.287349" y="213.488372" style="fill: #1a1a1a; stroke: #1a1a1a; stroke-width: 0.6"/>
      </g>
     </g>
    </g>
    <g id="xtick_8">
     <g id="line2d_8">
      <g>
       <use xlink:href="#m131efc0c90" x="150.90467" y="213.488372" style="fill: #1a1a1a; stroke: #1a1a1a; stroke-width: 0.6"/>
      </g>
     </g>
    </g>
    <g id="xtick_9">
     <g id="line2d_9">
      <g>
       <use xlink:href="#m131efc0c90" x="169.521992" y="213.488372" style="fill: #1a1a1a; stroke: #1a1a1a; stroke-width: 0.6"/>
      </g>
     </g>
    </g>
    <g id="xtick_10">
     <g id="line2d_10">
      <g>
       <use xlink:href="#m131efc0c90" x="188.139313" y="213.488372" style="fill: #1a1a1a; stroke: #1a1a1a; stroke-width: 0.6"/>
      </g>
     </g>
    </g>
    <g id="xtick_11">
     <g id="line2d_11">
      <g>
       <use xlink:href="#m131efc0c90" x="225.373956" y="213.488372" style="fill: #1a1a1a; stroke: #1a1a1a; stroke-width: 0.6"/>
      </g>
     </g>
    </g>
    <g id="xtick_12">
     <g id="line2d_12">
      <g>
       <use xlink:href="#m131efc0c90" x="243.991277" y="213.488372" style="fill: #1a1a1a; stroke: #1a1a1a; stroke-width: 0.6"/>
      </g>
     </g>
    </g>
    <g id="xtick_13">
     <g id="line2d_13">
      <g>
       <use xlink:href="#m131efc0c90" x="262.608599" y="213.488372" style="fill: #1a1a1a; stroke: #1a1a1a; stroke-width: 0.6"/>
      </g>
     </g>
    </g>
    <g id="xtick_14">
     <g id="line2d_14">
      <g>
       <use xlink:href="#m131efc0c90" x="281.22592" y="213.488372" style="fill: #1a1a1a; stroke: #1a1a1a; stroke-width: 0.6"/>
      </g>
     </g>
    </g>
    <g id="xtick_15">
     <g id="line2d_15">
      <g>
       <use xlink:href="#m131efc0c90" x="318.460563" y="213.488372" style="fill: #1a1a1a; stroke: #1a1a1a; stroke-width: 0.6"/>
      </g>
     </g>
    </g>
    <g id="xtick_16">
     <g id="line2d_16">
      <g>
       <use xlink:href="#m131efc0c90" x="337.077885" y="213.488372" style="fill: #1a1a1a; stroke: #1a1a1a; stroke-width: 0.6"/>
      </g>
     </g>
    </g>
    <g id="xtick_17">
     <g id="line2d_17">
      <g>
       <use xlink:href="#m131efc0c90" x="355.695206" y="213.488372" style="fill: #1a1a1a; stroke: #1a1a1a; stroke-width: 0.6"/>
      </g>
     </g>
    </g>
    <g id="xtick_18">
     <g id="line2d_18">
      <g>
       <use xlink:href="#m131efc0c90" x="374.312528" y="213.488372" style="fill: #1a1a1a; stroke: #1a1a1a; stroke-width: 0.6"/>
      </g>
     </g>
    </g>
   </g>
   <g id="matplotlib.axis_2">
    <g id="ytick_1">
     <g id="line2d_19">
      <defs>
       <path id="mc947610920" d="M 0 0 
L 6 0 
" style="stroke: #1a1a1a; stroke-width: 0.8"/>
      </defs>
      <g>
       <use xlink:href="#mc947610920" x="64.1" y="213.488372" style="fill: #1a1a1a; stroke: #1a1a1a; stroke-width: 0.8"/>
      </g>
     </g>
     <g id="text_1">
      <!-- $\mathdefault{0}$ -->
      <g style="fill: #1a1a1a" transform="translate(51.6 218.693841) scale(0.15 -0.15)">
       <defs>
        <path id="LatinModernMath-Regular-30" d="M 2944 2048 
C 2944 2560 2912 3072 2688 3546 
C 2394 4160 1869 4262 1600 4262 
C 1216 4262 749 4096 486 3501 
C 282 3059 250 2560 250 2048 
C 250 1568 275 992 538 506 
C 813 -13 1280 -141 1594 -141 
C 1939 -141 2426 -6 2707 602 
C 2912 1043 2944 1542 2944 2048 
z
M 2413 2125 
C 2413 1645 2413 1210 2342 800 
C 2246 192 1882 0 1594 0 
C 1344 0 966 160 851 774 
C 781 1158 781 1747 781 2125 
C 781 2534 781 2957 832 3302 
C 954 4064 1434 4122 1594 4122 
C 1805 4122 2227 4006 2349 3373 
C 2413 3014 2413 2528 2413 2125 
z
" transform="scale(0.015625)"/>
       </defs>
       <use xlink:href="#LatinModernMath-Regular-30" transform="translate(0 0.40625)"/>
      </g>
     </g>
    </g>
    <g id="ytick_2">
     <g id="line2d_20">
      <g>
       <use xlink:href="#mc947610920" x="64.1" y="164.000937" style="fill: #1a1a1a; stroke: #1a1a1a; stroke-width: 0.8"/>
      </g>
     </g>
     <g id="text_2">
      <!-- $\mathdefault{200}$ -->
      <g style="fill: #1a1a1a" transform="translate(36.6 169.206406) scale(0.15 -0.15)">
       <defs>
        <path id="LatinModernMath-Regular-32" d="M 2874 1114 
L 2714 1114 
C 2682 922 2637 640 2573 544 
C 2528 493 2106 493 1965 493 
L 813 493 
L 1491 1152 
C 2490 2035 2874 2381 2874 3021 
C 2874 3750 2298 4262 1517 4262 
C 794 4262 320 3674 320 3104 
C 320 2746 640 2746 659 2746 
C 768 2746 992 2822 992 3085 
C 992 3251 877 3418 653 3418 
C 602 3418 589 3418 570 3411 
C 717 3827 1062 4064 1434 4064 
C 2016 4064 2291 3546 2291 3021 
C 2291 2509 1971 2003 1619 1606 
L 390 237 
C 320 166 320 154 320 0 
L 2694 0 
L 2874 1114 
z
" transform="scale(0.015625)"/>
       </defs>
       <use xlink:href="#LatinModernMath-Regular-32" transform="translate(0 0.40625)"/>
       <use xlink:href="#LatinModernMath-Regular-30" transform="translate(49.999985 0.40625)"/>
       <use xlink:href="#LatinModernMath-Regular-30" transform="translate(99.999969 0.40625)"/>
      </g>
     </g>
    </g>
    <g id="ytick_3">
     <g id="line2d_21">
      <g>
       <use xlink:href="#mc947610920" x="64.1" y="114.513502" style="fill: #1a1a1a; stroke: #1a1a1a; stroke-width: 0.8"/>
      </g>
     </g>
     <g id="text_3">
      <!-- $\mathdefault{400}$ -->
      <g style="fill: #1a1a1a" transform="translate(36.6 119.718971) scale(0.15 -0.15)">
       <defs>
        <path id="LatinModernMath-Regular-34" d="M 3014 1056 
L 3014 1254 
L 2374 1254 
L 2374 4166 
C 2374 4294 2374 4333 2272 4333 
C 2214 4333 2195 4333 2144 4256 
L 179 1254 
L 179 1056 
L 1882 1056 
L 1882 499 
C 1882 269 1869 198 1395 198 
L 1261 198 
L 1261 0 
C 1523 19 1856 19 2125 19 
C 2394 19 2733 19 2995 0 
L 2995 198 
L 2861 198 
C 2387 198 2374 269 2374 499 
L 2374 1056 
L 3014 1056 
z
M 1920 1254 
L 358 1254 
L 1920 3642 
L 1920 1254 
z
" transform="scale(0.015625)"/>
       </defs>
       <use xlink:href="#LatinModernMath-Regular-34" transform="translate(0 0.296875)"/>
       <use xlink:href="#LatinModernMath-Regular-30" transform="translate(49.999985 0.296875)"/>
       <use xlink:href="#LatinModernMath-Regular-30" transform="translate(99.999969 0.296875)"/>
      </g>
     </g>
    </g>
    <g id="ytick_4">
     <g id="line2d_22">
      <g>
       <use xlink:href="#mc947610920" x="64.1" y="65.026068" style="fill: #1a1a1a; stroke: #1a1a1a; stroke-width: 0.8"/>
      </g>
     </g>
     <g id="text_4">
      <!-- $\mathdefault{600}$ -->
      <g style="fill: #1a1a1a" transform="translate(36.6 70.231536) scale(0.15 -0.15)">
       <defs>
        <path id="LatinModernMath-Regular-36" d="M 2925 1306 
C 2925 2118 2355 2733 1645 2733 
C 1210 2733 973 2406 845 2099 
L 845 2253 
C 845 3872 1638 4102 1965 4102 
C 2118 4102 2387 4064 2528 3846 
C 2432 3846 2176 3846 2176 3558 
C 2176 3360 2330 3264 2470 3264 
C 2573 3264 2765 3322 2765 3571 
C 2765 3955 2483 4262 1952 4262 
C 1133 4262 269 3437 269 2022 
C 269 314 1011 -141 1606 -141 
C 2317 -141 2925 461 2925 1306 
z
M 2349 1312 
C 2349 1005 2349 685 2240 454 
C 2048 70 1754 38 1606 38 
C 1203 38 1011 422 973 518 
C 858 819 858 1331 858 1446 
C 858 1946 1062 2586 1638 2586 
C 1741 2586 2035 2586 2234 2189 
C 2349 1952 2349 1626 2349 1312 
z
" transform="scale(0.015625)"/>
       </defs>
       <use xlink:href="#LatinModernMath-Regular-36" transform="translate(0 0.40625)"/>
       <use xlink:href="#LatinModernMath-Regular-30" transform="translate(49.999985 0.40625)"/>
       <use xlink:href="#LatinModernMath-Regular-30" transform="translate(99.999969 0.40625)"/>
      </g>
     </g>
    </g>
    <g id="ytick_5">
     <g id="line2d_23">
      <g>
       <use xlink:href="#mc947610920" x="64.1" y="15.538633" style="fill: #1a1a1a; stroke: #1a1a1a; stroke-width: 0.8"/>
      </g>
     </g>
     <g id="text_5">
      <!-- $\mathdefault{800}$ -->
      <g style="fill: #1a1a1a" transform="translate(36.6 20.744102) scale(0.15 -0.15)">
       <defs>
        <path id="LatinModernMath-Regular-38" d="M 2925 1075 
C 2925 1306 2854 1594 2611 1862 
C 2490 1997 2387 2061 1978 2317 
C 2438 2554 2752 2886 2752 3309 
C 2752 3898 2182 4262 1600 4262 
C 960 4262 442 3789 442 3194 
C 442 3078 454 2790 723 2490 
C 794 2413 1030 2253 1190 2144 
C 819 1958 269 1600 269 966 
C 269 288 922 -141 1594 -141 
C 2317 -141 2925 390 2925 1075 
z
M 2470 3309 
C 2470 2944 2221 2637 1837 2413 
L 1043 2925 
C 749 3117 723 3334 723 3443 
C 723 3834 1139 4102 1594 4102 
C 2061 4102 2470 3770 2470 3309 
z
M 2605 845 
C 2605 371 2125 38 1600 38 
C 1050 38 589 435 589 966 
C 589 1338 794 1747 1338 2048 
L 2125 1549 
C 2304 1427 2605 1235 2605 845 
z
" transform="scale(0.015625)"/>
       </defs>
       <use xlink:href="#LatinModernMath-Regular-38" transform="translate(0 0.40625)"/>
       <use xlink:href="#LatinModernMath-Regular-30" transform="translate(49.999985 0.40625)"/>
       <use xlink:href="#LatinModernMath-Regular-30" transform="translate(99.999969 0.40625)"/>
      </g>
     </g>
    </g>
    <g id="ytick_6">
     <g id="line2d_24">
      <defs>
       <path id="m5f9d1e6504" d="M 0 0 
L 3 0 
" style="stroke: #1a1a1a; stroke-width: 0.6"/>
      </defs>
      <g>
       <use xlink:href="#m5f9d1e6504" x="64.1" y="201.116513" style="fill: #1a1a1a; stroke: #1a1a1a; stroke-width: 0.6"/>
      </g>
     </g>
    </g>
    <g id="ytick_7">
     <g id="line2d_25">
      <g>
       <use xlink:href="#m5f9d1e6504" x="64.1" y="188.744655" style="fill: #1a1a1a; stroke: #1a1a1a; stroke-width: 0.6"/>
      </g>
     </g>
    </g>
    <g id="ytick_8">
     <g id="line2d_26">
      <g>
       <use xlink:href="#m5f9d1e6504" x="64.1" y="176.372796" style="fill: #1a1a1a; stroke: #1a1a1a; stroke-width: 0.6"/>
      </g>
     </g>
    </g>
    <g id="ytick_9">
     <g id="line2d_27">
      <g>
       <use xlink:href="#m5f9d1e6504" x="64.1" y="151.629079" style="fill: #1a1a1a; stroke: #1a1a1a; stroke-width: 0.6"/>
      </g>
     </g>
    </g>
    <g id="ytick_10">
     <g id="line2d_28">
      <g>
       <use xlink:href="#m5f9d1e6504" x="64.1" y="139.25722" style="fill: #1a1a1a; stroke: #1a1a1a; stroke-width: 0.6"/>
      </g>
     </g>
    </g>
    <g id="ytick_11">
     <g id="line2d_29">
      <g>
       <use xlink:href="#m5f9d1e6504" x="64.1" y="126.885361" style="fill: #1a1a1a; stroke: #1a1a1a; stroke-width: 0.6"/>
      </g>
     </g>
    </g>
    <g id="ytick_12">
     <g id="line2d_30">
      <g>
       <use xlink:href="#m5f9d1e6504" x="64.1" y="102.141644" style="fill: #1a1a1a; stroke: #1a1a1a; stroke-width: 0.6"/>
      </g>
     </g>
    </g>
    <g id="ytick_13">
     <g id="line2d_31">
      <g>
       <use xlink:href="#m5f9d1e6504" x="64.1" y="89.769785" style="fill: #1a1a1a; stroke: #1a1a1a; stroke-width: 0.6"/>
      </g>
     </g>
    </g>
    <g id="ytick_14">
     <g id="line2d_32">
      <g>
       <use xlink:href="#m5f9d1e6504" x="64.1" y="77.397926" style="fill: #1a1a1a; stroke: #1a1a1a; stroke-width: 0.6"/>
      </g>
     </g>
    </g>
    <g id="ytick_15">
     <g id="line2d_33">
      <g>
       <use xlink:href="#m5f9d1e6504" x="64.1" y="52.654209" style="fill: #1a1a1a; stroke: #1a1a1a; stroke-width: 0.6"/>
      </g>
     </g>
    </g>
    <g id="ytick_16">
     <g id="line2d_34">
      <g>
       <use xlink:href="#m5f9d1e6504" x="64.1" y="40.28235" style="fill: #1a1a1a; stroke: #1a1a1a; stroke-width: 0.6"/>
      </g>
     </g>
    </g>
    <g id="ytick_17">
     <g id="line2d_35">
      <g>
       <use xlink:href="#m5f9d1e6504" x="64.1" y="27.910491" style="fill: #1a1a1a; stroke: #1a1a1a; stroke-width: 0.6"/>
      </g>
     </g>
    </g>
    <g id="text_6">
     <!-- Entries -->
     <g style="fill: #1a1a1a" transform="translate(27.106875 138.550749) rotate(-90) scale(0.18 -0.18)">
      <defs>
       <path id="LatinModernMath-Regular-45" d="M 4173 1651 
L 4013 1651 
C 3853 666 3706 198 2605 198 
L 1754 198 
C 1453 198 1440 243 1440 454 
L 1440 2163 
L 2016 2163 
C 2637 2163 2707 1958 2707 1414 
L 2867 1414 
L 2867 3110 
L 2707 3110 
C 2707 2560 2637 2362 2016 2362 
L 1440 2362 
L 1440 3898 
C 1440 4109 1453 4154 1754 4154 
L 2579 4154 
C 3558 4154 3731 3802 3834 2912 
L 3994 2912 
L 3814 4352 
L 211 4352 
L 211 4154 
L 365 4154 
C 858 4154 870 4083 870 3853 
L 870 499 
C 870 269 858 198 365 198 
L 211 198 
L 211 0 
L 3904 0 
L 4173 1651 
z
" transform="scale(0.015625)"/>
       <path id="LatinModernMath-Regular-6e" d="M 3424 0 
L 3424 198 
C 3091 198 2931 198 2925 390 
L 2925 1613 
C 2925 2163 2925 2362 2726 2592 
C 2637 2701 2426 2829 2054 2829 
C 1587 2829 1286 2554 1107 2157 
L 1107 2829 
L 205 2758 
L 205 2560 
C 653 2560 704 2515 704 2202 
L 704 486 
C 704 198 634 198 205 198 
L 205 0 
L 928 19 
L 1645 0 
L 1645 198 
C 1216 198 1146 198 1146 486 
L 1146 1664 
C 1146 2330 1600 2688 2010 2688 
C 2413 2688 2483 2342 2483 1978 
L 2483 486 
C 2483 198 2413 198 1984 198 
L 1984 0 
L 2707 19 
L 3424 0 
z
" transform="scale(0.015625)"/>
       <path id="LatinModernMath-Regular-74" d="M 2125 794 
L 2125 1158 
L 1965 1158 
L 1965 806 
C 1965 333 1773 90 1536 90 
C 1107 90 1107 672 1107 781 
L 1107 2560 
L 2022 2560 
L 2022 2758 
L 1107 2758 
L 1107 3936 
L 947 3936 
C 941 3411 749 2726 122 2701 
L 122 2560 
L 666 2560 
L 666 794 
C 666 6 1261 -70 1491 -70 
C 1946 -70 2125 384 2125 794 
z
" transform="scale(0.015625)"/>
       <path id="LatinModernMath-Regular-72" d="M 2330 2438 
C 2330 2643 2131 2829 1856 2829 
C 1389 2829 1158 2400 1069 2125 
L 1069 2829 
L 179 2758 
L 179 2560 
C 627 2560 678 2515 678 2202 
L 678 486 
C 678 198 608 198 179 198 
L 179 0 
L 909 19 
C 1165 19 1466 19 1722 0 
L 1722 198 
L 1587 198 
C 1114 198 1101 269 1101 499 
L 1101 1485 
C 1101 2118 1370 2688 1856 2688 
C 1901 2688 1914 2688 1926 2682 
C 1907 2675 1779 2598 1779 2432 
C 1779 2253 1914 2157 2054 2157 
C 2170 2157 2330 2234 2330 2438 
z
" transform="scale(0.015625)"/>
       <path id="LatinModernMath-Regular-69" d="M 1581 0 
L 1581 198 
C 1158 198 1133 230 1133 480 
L 1133 2829 
L 237 2758 
L 237 2560 
C 653 2560 710 2522 710 2208 
L 710 486 
C 710 198 640 198 211 198 
L 211 0 
L 915 19 
C 1139 19 1363 6 1581 0 
z
M 1229 3866 
C 1229 4038 1082 4205 890 4205 
C 672 4205 544 4026 544 3866 
C 544 3693 691 3526 883 3526 
C 1101 3526 1229 3706 1229 3866 
z
" transform="scale(0.015625)"/>
       <path id="LatinModernMath-Regular-65" d="M 2656 762 
C 2656 826 2605 838 2573 838 
C 2515 838 2502 800 2490 749 
C 2266 90 1690 90 1626 90 
C 1306 90 1050 282 902 518 
C 710 826 710 1248 710 1478 
L 2496 1478 
C 2637 1478 2656 1478 2656 1613 
C 2656 2246 2310 2867 1510 2867 
C 768 2867 179 2208 179 1408 
C 179 550 851 -70 1587 -70 
C 2368 -70 2656 640 2656 762 
z
M 2234 1613 
L 717 1613 
C 755 2566 1293 2726 1510 2726 
C 2170 2726 2234 1862 2234 1613 
z
" transform="scale(0.015625)"/>
       <path id="LatinModernMath-Regular-73" d="M 2304 819 
C 2304 1158 2112 1350 2035 1427 
C 1824 1632 1574 1683 1306 1734 
C 947 1805 518 1888 518 2259 
C 518 2483 685 2746 1235 2746 
C 1939 2746 1971 2170 1984 1971 
C 1990 1914 2061 1914 2061 1914 
C 2144 1914 2144 1946 2144 2067 
L 2144 2714 
C 2144 2822 2144 2867 2074 2867 
C 2042 2867 2029 2867 1946 2790 
C 1926 2765 1862 2707 1837 2688 
C 1594 2867 1331 2867 1235 2867 
C 454 2867 211 2438 211 2080 
C 211 1856 314 1677 486 1536 
C 691 1370 870 1331 1331 1242 
C 1472 1216 1997 1114 1997 653 
C 1997 326 1773 70 1274 70 
C 736 70 506 435 384 979 
C 365 1062 358 1088 294 1088 
C 211 1088 211 1043 211 928 
L 211 83 
C 211 -26 211 -70 282 -70 
C 314 -70 320 -64 442 58 
C 454 70 454 83 570 205 
C 851 -64 1139 -70 1274 -70 
C 2010 -70 2304 358 2304 819 
z
" transform="scale(0.015625)"/>
      </defs>
      <use xlink:href="#LatinModernMath-Regular-45"/>
      <use xlink:href="#LatinModernMath-Regular-6e" x="68.099991"/>
      <use xlink:href="#LatinModernMath-Regular-74" x="123.699982"/>
      <use xlink:href="#LatinModernMath-Regular-72" x="162.599976"/>
      <use xlink:href="#LatinModernMath-Regular-69" x="201.799973"/>
      <use xlink:href="#LatinModernMath-Regular-65" x="229.59996"/>
      <use xlink:href="#LatinModernMath-Regular-73" x="273.999954"/>
     </g>
    </g>
   </g>
   <g id="legend_1">
    <g id="patch_9">
     <path d="M 341.78 26.4 
L 365.78 26.4 
L 365.78 18 
L 341.78 18 
L 341.78 26.4 
z
" style="fill: none; stroke: #348abd; stroke-linejoin: miter"/>
    </g>
    <g id="text_7">
     <!-- $\mathbf{h1}$ -->
     <g style="fill: #1a1a1a" transform="translate(375.38 26.4) scale(0.12 -0.12)">
      <defs>
       <path id="Cmb10-68" d="M 141 0 
L 141 325 
L 581 325 
L 581 3884 
Q 581 4003 456 4033 
Q 331 4063 141 4063 
L 141 4391 
L 1300 4441 
L 1300 2316 
Q 1450 2575 1694 2728 
Q 1938 2881 2228 2881 
Q 2541 2881 2733 2782 
Q 2925 2684 3017 2482 
Q 3109 2281 3109 1966 
L 3109 325 
L 3553 325 
L 3553 0 
L 1966 0 
L 1966 325 
L 2356 325 
L 2356 1947 
L 2356 1966 
Q 2356 2625 2150 2625 
Q 1969 2625 1817 2545 
Q 1666 2466 1558 2327 
Q 1450 2188 1394 2020 
Q 1338 1853 1338 1672 
L 1338 325 
L 1778 325 
L 1778 0 
L 141 0 
z
" transform="scale(0.015625)"/>
       <path id="Cmr10-31" d="M 594 0 
L 594 225 
Q 1394 225 1394 428 
L 1394 3788 
Q 1063 3628 556 3628 
L 556 3853 
Q 1341 3853 1741 4263 
L 1831 4263 
Q 1853 4263 1873 4245 
Q 1894 4228 1894 4206 
L 1894 428 
Q 1894 225 2694 225 
L 2694 0 
L 594 0 
z
" transform="scale(0.015625)"/>
      </defs>
      <use xlink:href="#Cmb10-68" transform="translate(0 0.609375)"/>
      <use xlink:href="#Cmr10-31" transform="translate(55.517578 0.609375)"/>
     </g>
    </g>
    <g id="patch_10">
     <path d="M 341.78 43.12875 
L 365.78 43.12875 
L 365.78 34.72875 
L 341.78 34.72875 
L 341.78 43.12875 
z
" style="fill: none; stroke: #e24a33; stroke-linejoin: miter"/>
    </g>
    <g id="text_8">
     <!-- $\mathbf{h2}$ -->
     <g style="fill: #1a1a1a" transform="translate(375.38 43.12875) scale(0.12 -0.12)">
      <defs>
       <path id="Cmr10-32" d="M 319 0 
L 319 172 
Q 319 188 331 206 
L 1325 1306 
Q 1550 1550 1690 1715 
Q 1831 1881 1968 2097 
Q 2106 2313 2186 2536 
Q 2266 2759 2266 3009 
Q 2266 3272 2169 3511 
Q 2072 3750 1880 3894 
Q 1688 4038 1416 4038 
Q 1138 4038 916 3870 
Q 694 3703 603 3438 
Q 628 3444 672 3444 
Q 816 3444 917 3347 
Q 1019 3250 1019 3097 
Q 1019 2950 917 2848 
Q 816 2747 672 2747 
Q 522 2747 420 2851 
Q 319 2956 319 3097 
Q 319 3338 409 3548 
Q 500 3759 670 3923 
Q 841 4088 1055 4175 
Q 1269 4263 1509 4263 
Q 1875 4263 2190 4108 
Q 2506 3953 2690 3670 
Q 2875 3388 2875 3009 
Q 2875 2731 2753 2481 
Q 2631 2231 2440 2026 
Q 2250 1822 1953 1562 
Q 1656 1303 1563 1216 
L 838 519 
L 1453 519 
Q 1906 519 2211 526 
Q 2516 534 2534 550 
Q 2609 631 2688 1141 
L 2875 1141 
L 2694 0 
L 319 0 
z
" transform="scale(0.015625)"/>
      </defs>
      <use xlink:href="#Cmb10-68" transform="translate(0 0.609375)"/>
      <use xlink:href="#Cmr10-32" transform="translate(55.517578 0.609375)"/>
     </g>
    </g>
   </g>
  </g>
  <g id="axes_2">
   <g id="patch_11">
    <path d="M 64.1 284.4 
L 398.9 284.4 
L 398.9 232.827907 
L 64.1 232.827907 
z
" style="fill: #ffffff"/>
   </g>
   <g id="patch_12">
    <path d="M 64.1 284.4 
L 70.796 284.4 
L 70.796 232.827907 
L 64.1 232.827907 
z
" clip-path="url(#p41d8fdbf77)" style="fill: url(#hcddca885b2)"/>
   </g>
   <g id="patch_13">
    <path d="M 70.796 276.847442 
L 77.492 276.847442 
L 77.492 240.380465 
L 70.796 240.380465 
z
" clip-path="url(#p41d8fdbf77)" style="fill: url(#hcddca885b2)"/>
   </g>
   <g id="patch_14">
    <path d="M 77.492 276.847442 
L 84.188 276.847442 
L 84.188 240.380465 
L 77.492 240.380465 
z
" clip-path="url(#p41d8fdbf77)" style="fill: url(#hcddca885b2)"/>
   </g>
   <g id="patch_15">
    <path d="M 84.188 267.730698 
L 90.884 267.730698 
L 90.884 249.497209 
L 84.188 249.497209 
z
" clip-path="url(#p41d8fdbf77)" style="fill: url(#hcddca885b2)"/>
   </g>
   <g id="patch_16">
    <path d="M 90.884 266.388739 
L 97.58 266.388739 
L 97.58 250.839168 
L 90.884 250.839168 
z
" clip-path="url(#p41d8fdbf77)" style="fill: url(#hcddca885b2)"/>
   </g>
   <g id="patch_17">
    <path d="M 97.58 264.379889 
L 104.276 264.379889 
L 104.276 252.848018 
L 97.58 252.848018 
z
" clip-path="url(#p41d8fdbf77)" style="fill: url(#hcddca885b2)"/>
   </g>
   <g id="patch_18">
    <path d="M 104.276 263.402302 
L 110.972 263.402302 
L 110.972 253.825605 
L 104.276 253.825605 
z
" clip-path="url(#p41d8fdbf77)" style="fill: url(#hcddca885b2)"/>
   </g>
   <g id="patch_19">
    <path d="M 110.972 262.641057 
L 117.668 262.641057 
L 117.668 254.58685 
L 110.972 254.58685 
z
" clip-path="url(#p41d8fdbf77)" style="fill: url(#hcddca885b2)"/>
   </g>
   <g id="patch_20">
    <path d="M 117.668 261.76422 
L 124.364 261.76422 
L 124.364 255.463687 
L 117.668 255.463687 
z
" clip-path="url(#p41d8fdbf77)" style="fill: url(#hcddca885b2)"/>
   </g>
   <g id="patch_21">
    <path d="M 124.364 261.47907 
L 131.06 261.47907 
L 131.06 255.748837 
L 124.364 255.748837 
z
" clip-path="url(#p41d8fdbf77)" style="fill: url(#hcddca885b2)"/>
   </g>
   <g id="patch_22">
    <path d="M 131.06 261.259546 
L 137.756 261.259546 
L 137.756 255.968361 
L 131.06 255.968361 
z
" clip-path="url(#p41d8fdbf77)" style="fill: url(#hcddca885b2)"/>
   </g>
   <g id="patch_23">
    <path d="M 137.756 260.911157 
L 144.452 260.911157 
L 144.452 256.31675 
L 137.756 256.31675 
z
" clip-path="url(#p41d8fdbf77)" style="fill: url(#hcddca885b2)"/>
   </g>
   <g id="patch_24">
    <path d="M 144.452 260.55765 
L 151.148 260.55765 
L 151.148 256.670257 
L 144.452 256.670257 
z
" clip-path="url(#p41d8fdbf77)" style="fill: url(#hcddca885b2)"/>
   </g>
   <g id="patch_25">
    <path d="M 151.148 260.504678 
L 157.844 260.504678 
L 157.844 256.723229 
L 151.148 256.723229 
z
" clip-path="url(#p41d8fdbf77)" style="fill: url(#hcddca885b2)"/>
   </g>
   <g id="patch_26">
    <path d="M 157.844 260.372547 
L 164.54 260.372547 
L 164.54 256.85536 
L 157.844 256.85536 
z
" clip-path="url(#p41d8fdbf77)" style="fill: url(#hcddca885b2)"/>
   </g>
   <g id="patch_27">
    <path d="M 164.54 260.336856 
L 171.236 260.336856 
L 171.236 256.891051 
L 164.54 256.891051 
z
" clip-path="url(#p41d8fdbf77)" style="fill: url(#hcddca885b2)"/>
   </g>
   <g id="patch_28">
    <path d="M 171.236 260.340715 
L 177.932 260.340715 
L 177.932 256.887192 
L 171.236 256.887192 
z
" clip-path="url(#p41d8fdbf77)" style="fill: url(#hcddca885b2)"/>
   </g>
   <g id="patch_29">
    <path d="M 177.932 260.248078 
L 184.628 260.248078 
L 184.628 256.979829 
L 177.932 256.979829 
z
" clip-path="url(#p41d8fdbf77)" style="fill: url(#hcddca885b2)"/>
   </g>
   <g id="patch_30">
    <path d="M 184.628 260.12039 
L 191.324 260.12039 
L 191.324 257.107517 
L 184.628 257.107517 
z
" clip-path="url(#p41d8fdbf77)" style="fill: url(#hcddca885b2)"/>
   </g>
   <g id="patch_31">
    <path d="M 191.324 260.071467 
L 198.02 260.071467 
L 198.02 257.15644 
L 191.324 257.15644 
z
" clip-path="url(#p41d8fdbf77)" style="fill: url(#hcddca885b2)"/>
   </g>
   <g id="patch_32">
    <path d="M 198.02 259.929842 
L 204.716 259.929842 
L 204.716 257.298065 
L 198.02 257.298065 
z
" clip-path="url(#p41d8fdbf77)" style="fill: url(#hcddca885b2)"/>
   </g>
   <g id="patch_33">
    <path d="M 204.716 259.79338 
L 211.412 259.79338 
L 211.412 257.434527 
L 204.716 257.434527 
z
" clip-path="url(#p41d8fdbf77)" style="fill: url(#hcddca885b2)"/>
   </g>
   <g id="patch_34">
    <path d="M 211.412 259.738279 
L 218.108 259.738279 
L 218.108 257.489628 
L 211.412 257.489628 
z
" clip-path="url(#p41d8fdbf77)" style="fill: url(#hcddca885b2)"/>
   </g>
   <g id="patch_35">
    <path d="M 218.108 259.620729 
L 224.804 259.620729 
L 224.804 257.607178 
L 218.108 257.607178 
z
" clip-path="url(#p41d8fdbf77)" style="fill: url(#hcddca885b2)"/>
   </g>
   <g id="patch_36">
    <path d="M 224.804 259.559316 
L 231.5 259.559316 
L 231.5 257.668591 
L 224.804 257.668591 
z
" clip-path="url(#p41d8fdbf77)" style="fill: url(#hcddca885b2)"/>
   </g>
   <g id="patch_37">
    <path d="M 231.5 259.529066 
L 238.196 259.529066 
L 238.196 257.698841 
L 231.5 257.698841 
z
" clip-path="url(#p41d8fdbf77)" style="fill: url(#hcddca885b2)"/>
   </g>
   <g id="patch_38">
    <path d="M 238.196 259.529643 
L 244.892 259.529643 
L 244.892 257.698264 
L 238.196 257.698264 
z
" clip-path="url(#p41d8fdbf77)" style="fill: url(#hcddca885b2)"/>
   </g>
   <g id="patch_39">
    <path d="M 244.892 259.561867 
L 251.588 259.561867 
L 251.588 257.66604 
L 244.892 257.66604 
z
" clip-path="url(#p41d8fdbf77)" style="fill: url(#hcddca885b2)"/>
   </g>
   <g id="patch_40">
    <path d="M 251.588 259.570963 
L 258.284 259.570963 
L 258.284 257.656944 
L 251.588 257.656944 
z
" clip-path="url(#p41d8fdbf77)" style="fill: url(#hcddca885b2)"/>
   </g>
   <g id="patch_41">
    <path d="M 258.284 259.587879 
L 264.98 259.587879 
L 264.98 257.640028 
L 258.284 257.640028 
z
" clip-path="url(#p41d8fdbf77)" style="fill: url(#hcddca885b2)"/>
   </g>
   <g id="patch_42">
    <path d="M 264.98 259.690242 
L 271.676 259.690242 
L 271.676 257.537665 
L 264.98 257.537665 
z
" clip-path="url(#p41d8fdbf77)" style="fill: url(#hcddca885b2)"/>
   </g>
   <g id="patch_43">
    <path d="M 271.676 259.809753 
L 278.372 259.809753 
L 278.372 257.418154 
L 271.676 257.418154 
z
" clip-path="url(#p41d8fdbf77)" style="fill: url(#hcddca885b2)"/>
   </g>
   <g id="patch_44">
    <path d="M 278.372 260.00022 
L 285.068 260.00022 
L 285.068 257.227687 
L 278.372 257.227687 
z
" clip-path="url(#p41d8fdbf77)" style="fill: url(#hcddca885b2)"/>
   </g>
   <g id="patch_45">
    <path d="M 285.068 260.177462 
L 291.764 260.177462 
L 291.764 257.050445 
L 285.068 257.050445 
z
" clip-path="url(#p41d8fdbf77)" style="fill: url(#hcddca885b2)"/>
   </g>
   <g id="patch_46">
    <path d="M 291.764 260.470074 
L 298.46 260.470074 
L 298.46 256.757833 
L 291.764 256.757833 
z
" clip-path="url(#p41d8fdbf77)" style="fill: url(#hcddca885b2)"/>
   </g>
   <g id="patch_47">
    <path d="M 298.46 260.719375 
L 305.156 260.719375 
L 305.156 256.508532 
L 298.46 256.508532 
z
" clip-path="url(#p41d8fdbf77)" style="fill: url(#hcddca885b2)"/>
   </g>
   <g id="patch_48">
    <path d="M 305.156 261.427442 
L 311.852 261.427442 
L 311.852 255.800465 
L 305.156 255.800465 
z
" clip-path="url(#p41d8fdbf77)" style="fill: url(#hcddca885b2)"/>
   </g>
   <g id="patch_49">
    <path d="M 311.852 262.090943 
L 318.548 262.090943 
L 318.548 255.136964 
L 311.852 255.136964 
z
" clip-path="url(#p41d8fdbf77)" style="fill: url(#hcddca885b2)"/>
   </g>
   <g id="patch_50">
    <path d="M 318.548 263.32182 
L 325.244 263.32182 
L 325.244 253.906087 
L 318.548 253.906087 
z
" clip-path="url(#p41d8fdbf77)" style="fill: url(#hcddca885b2)"/>
   </g>
   <g id="patch_51">
    <path d="M 325.244 263.877508 
L 331.94 263.877508 
L 331.94 253.350399 
L 325.244 253.350399 
z
" clip-path="url(#p41d8fdbf77)" style="fill: url(#hcddca885b2)"/>
   </g>
   <g id="patch_52">
    <path d="M 331.94 268.360163 
L 338.636 268.360163 
L 338.636 248.867744 
L 331.94 248.867744 
z
" clip-path="url(#p41d8fdbf77)" style="fill: url(#hcddca885b2)"/>
   </g>
   <g id="patch_53">
    <path d="M 338.636 268.360163 
L 345.332 268.360163 
L 345.332 248.867744 
L 338.636 248.867744 
z
" clip-path="url(#p41d8fdbf77)" style="fill: url(#hcddca885b2)"/>
   </g>
   <g id="patch_54">
    <path d="M 345.332 284.4 
L 352.028 284.4 
L 352.028 232.827907 
L 345.332 232.827907 
z
" clip-path="url(#p41d8fdbf77)" style="fill: url(#hcddca885b2)"/>
   </g>
   <g id="patch_55">
    <path d="M 352.028 276.847442 
L 358.724 276.847442 
L 358.724 240.380465 
L 352.028 240.380465 
z
" clip-path="url(#p41d8fdbf77)" style="fill: url(#hcddca885b2)"/>
   </g>
   <g id="patch_56">
    <path d="M 358.724 284.4 
L 365.42 284.4 
L 365.42 232.827907 
L 358.724 232.827907 
z
" clip-path="url(#p41d8fdbf77)" style="fill: url(#hcddca885b2)"/>
   </g>
   <g id="patch_57">
    <path d="M 365.42 284.4 
L 372.116 284.4 
L 372.116 232.827907 
L 365.42 232.827907 
z
" clip-path="url(#p41d8fdbf77)" style="fill: url(#hcddca885b2)"/>
   </g>
   <g id="patch_58">
    <path d="M 372.116 284.4 
L 378.812 284.4 
L 378.812 232.827907 
L 372.116 232.827907 
z
" clip-path="url(#p41d8fdbf77)" style="fill: url(#hcddca885b2)"/>
   </g>
   <g id="patch_59">
    <path d="M 378.812 284.4 
L 385.508 284.4 
L 385.508 232.827907 
L 378.812 232.827907 
z
" clip-path="url(#p41d8fdbf77)" style="fill: url(#hcddca885b2)"/>
   </g>
   <g id="patch_60">
    <path d="M 385.508 284.4 
L 392.204 284.4 
L 392.204 232.827907 
L 385.508 232.827907 
z
" clip-path="url(#p41d8fdbf77)" style="fill: url(#hcddca885b2)"/>
   </g>
   <g id="patch_61">
    <path d="M 392.204 284.4 
L 398.9 284.4 
L 398.9 232.827907 
L 392.204 232.827907 
z
" clip-path="url(#p41d8fdbf77)" style="fill: url(#hcddca885b2)"/>
   </g>
   <g id="LineCollection_1">
    <path d="M 67.448 284.4 
L 67.448 284.4 
" clip-path="url(#p41d8fdbf77)" style="fill: none; stroke: #000000; stroke-width: 1.5"/>
    <path d="M 74.144 284.4 
L 74.144 258.613953 
" clip-path="url(#p41d8fdbf77)" style="fill: none; stroke: #000000; stroke-width: 1.5"/>
    <path d="M 80.84 284.4 
L 80.84 258.613953 
" clip-path="url(#p41d8fdbf77)" style="fill: none; stroke: #000000; stroke-width: 1.5"/>
    <path d="M 87.536 272.955797 
L 87.536 257.165133 
" clip-path="url(#p41d8fdbf77)" style="fill: none; stroke: #000000; stroke-width: 1.5"/>
    <path d="M 94.232 274.192831 
L 94.232 261.788564 
" clip-path="url(#p41d8fdbf77)" style="fill: none; stroke: #000000; stroke-width: 1.5"/>
    <path d="M 100.928 271.173895 
L 100.928 261.52564 
" clip-path="url(#p41d8fdbf77)" style="fill: none; stroke: #000000; stroke-width: 1.5"/>
    <path d="M 107.624 267.415869 
L 107.624 258.703778 
" clip-path="url(#p41d8fdbf77)" style="fill: none; stroke: #000000; stroke-width: 1.5"/>
    <path d="M 114.32 257.985026 
L 114.32 249.180034 
" clip-path="url(#p41d8fdbf77)" style="fill: none; stroke: #000000; stroke-width: 1.5"/>
    <path d="M 121.016 254.506421 
L 121.016 247.326832 
" clip-path="url(#p41d8fdbf77)" style="fill: none; stroke: #000000; stroke-width: 1.5"/>
    <path d="M 127.712 245.426726 
L 127.712 238.056478 
" clip-path="url(#p41d8fdbf77)" style="fill: none; stroke: #000000; stroke-width: 1.5"/>
    <path d="M 134.408 238.922541 
L 134.408 231.619051 
" clip-path="url(#p41d8fdbf77)" style="fill: none; stroke: #000000; stroke-width: 1.5"/>
    <path d="M 141.104 239.642189 
L 141.104 233.381067 
" clip-path="url(#p41d8fdbf77)" style="fill: none; stroke: #000000; stroke-width: 1.5"/>
    <path d="M 147.8 238.570197 
L 147.8 233.239106 
" clip-path="url(#p41d8fdbf77)" style="fill: none; stroke: #000000; stroke-width: 1.5"/>
    <path d="M 154.496 228.608833 
L 154.496 222.906245 
" clip-path="url(#p41d8fdbf77)" style="fill: none; stroke: #000000; stroke-width: 1.5"/>
    <path d="M 161.192 228.286678 
L 161.192 222.976924 
" clip-path="url(#p41d8fdbf77)" style="fill: none; stroke: #000000; stroke-width: 1.5"/>
    <path d="M 167.888 225.700689 
L 167.888 220.385358 
" clip-path="url(#p41d8fdbf77)" style="fill: none; stroke: #000000; stroke-width: 1.5"/>
    <path d="M 174.584 226.003075 
L 174.584 220.68901 
" clip-path="url(#p41d8fdbf77)" style="fill: none; stroke: #000000; stroke-width: 1.5"/>
    <path d="M 181.28 234.126411 
L 181.28 229.458235 
" clip-path="url(#p41d8fdbf77)" style="fill: none; stroke: #000000; stroke-width: 1.5"/>
    <path d="M 187.976 246.491897 
L 187.976 242.749789 
" clip-path="url(#p41d8fdbf77)" style="fill: none; stroke: #000000; stroke-width: 1.5"/>
    <path d="M 194.672 247.707212 
L 194.672 244.146566 
" clip-path="url(#p41d8fdbf77)" style="fill: none; stroke: #000000; stroke-width: 1.5"/>
    <path d="M 201.368 255.409755 
L 201.368 252.551292 
" clip-path="url(#p41d8fdbf77)" style="fill: none; stroke: #000000; stroke-width: 1.5"/>
    <path d="M 208.064 261.795465 
L 208.064 259.532316 
" clip-path="url(#p41d8fdbf77)" style="fill: none; stroke: #000000; stroke-width: 1.5"/>
    <path d="M 214.76 263.044524 
L 214.76 260.948544 
" clip-path="url(#p41d8fdbf77)" style="fill: none; stroke: #000000; stroke-width: 1.5"/>
    <path d="M 221.456 266.66221 
L 221.456 264.952425 
" clip-path="url(#p41d8fdbf77)" style="fill: none; stroke: #000000; stroke-width: 1.5"/>
    <path d="M 228.152 267.23563 
L 228.152 265.657994 
" clip-path="url(#p41d8fdbf77)" style="fill: none; stroke: #000000; stroke-width: 1.5"/>
    <path d="M 234.848 267.236193 
L 234.848 265.71016 
" clip-path="url(#p41d8fdbf77)" style="fill: none; stroke: #000000; stroke-width: 1.5"/>
    <path d="M 241.544 267.055416 
L 241.544 265.520554 
" clip-path="url(#p41d8fdbf77)" style="fill: none; stroke: #000000; stroke-width: 1.5"/>
    <path d="M 248.24 266.733831 
L 248.24 265.1294 
" clip-path="url(#p41d8fdbf77)" style="fill: none; stroke: #000000; stroke-width: 1.5"/>
    <path d="M 254.936 266.983746 
L 254.936 265.374817 
" clip-path="url(#p41d8fdbf77)" style="fill: none; stroke: #000000; stroke-width: 1.5"/>
    <path d="M 261.632 269.237681 
L 261.632 267.706803 
" clip-path="url(#p41d8fdbf77)" style="fill: none; stroke: #000000; stroke-width: 1.5"/>
    <path d="M 268.328 267.810816 
L 268.328 266.038759 
" clip-path="url(#p41d8fdbf77)" style="fill: none; stroke: #000000; stroke-width: 1.5"/>
    <path d="M 275.024 267.592847 
L 275.024 265.605772 
" clip-path="url(#p41d8fdbf77)" style="fill: none; stroke: #000000; stroke-width: 1.5"/>
    <path d="M 281.72 263.40536 
L 281.72 260.828005 
" clip-path="url(#p41d8fdbf77)" style="fill: none; stroke: #000000; stroke-width: 1.5"/>
    <path d="M 288.416 267.603071 
L 288.416 264.982702 
" clip-path="url(#p41d8fdbf77)" style="fill: none; stroke: #000000; stroke-width: 1.5"/>
    <path d="M 295.112 264.969587 
L 295.112 261.610772 
" clip-path="url(#p41d8fdbf77)" style="fill: none; stroke: #000000; stroke-width: 1.5"/>
    <path d="M 301.808 267.129478 
L 301.808 263.507173 
" clip-path="url(#p41d8fdbf77)" style="fill: none; stroke: #000000; stroke-width: 1.5"/>
    <path d="M 308.504 261.137162 
L 308.504 255.476791 
" clip-path="url(#p41d8fdbf77)" style="fill: none; stroke: #000000; stroke-width: 1.5"/>
    <path d="M 315.2 262.528027 
L 315.2 255.637555 
" clip-path="url(#p41d8fdbf77)" style="fill: none; stroke: #000000; stroke-width: 1.5"/>
    <path d="M 321.896 255.454781 
L 321.896 244.582429 
" clip-path="url(#p41d8fdbf77)" style="fill: none; stroke: #000000; stroke-width: 1.5"/>
    <path d="M 328.592 263.877508 
L 328.592 253.350399 
" clip-path="url(#p41d8fdbf77)" style="fill: none; stroke: #000000; stroke-width: 1.5"/>
    <path d="M 335.288 240.195349 
L 335.288 210.725581 
" clip-path="url(#p41d8fdbf77)" style="fill: none; stroke: #000000; stroke-width: 1.5"/>
    <path d="M 341.984 243.411176 
L 341.984 214.877196 
" clip-path="url(#p41d8fdbf77)" style="fill: none; stroke: #000000; stroke-width: 1.5"/>
    <path d="M 348.68 269.294884 
L 348.68 196.36093 
" clip-path="url(#p41d8fdbf77)" style="fill: none; stroke: #000000; stroke-width: 1.5"/>
    <path d="M 355.376 276.847442 
L 355.376 240.380465 
" clip-path="url(#p41d8fdbf77)" style="fill: none; stroke: #000000; stroke-width: 1.5"/>
    <path d="M 362.072 269.294884 
L 362.072 196.36093 
" clip-path="url(#p41d8fdbf77)" style="fill: none; stroke: #000000; stroke-width: 1.5"/>
    <path d="M 368.768 284.4 
L 368.768 232.827907 
" clip-path="url(#p41d8fdbf77)" style="fill: none; stroke: #000000; stroke-width: 1.5"/>
    <path clip-path="url(#p41d8fdbf77)" style="fill: none; stroke: #000000; stroke-width: 1.5"/>
    <path clip-path="url(#p41d8fdbf77)" style="fill: none; stroke: #000000; stroke-width: 1.5"/>
    <path clip-path="url(#p41d8fdbf77)" style="fill: none; stroke: #000000; stroke-width: 1.5"/>
    <path clip-path="url(#p41d8fdbf77)" style="fill: none; stroke: #000000; stroke-width: 1.5"/>
   </g>
   <g id="line2d_36">
    <path d="M 64.1 258.613953 
L 398.9 258.613953 
" clip-path="url(#p41d8fdbf77)" style="fill: none; stroke-dasharray: 3.7,1.6; stroke-dashoffset: 0; stroke: #000000"/>
   </g>
   <g id="line2d_37">
    <defs>
     <path id="meae5c0c399" d="M 0 1.5 
C 0.397805 1.5 0.77937 1.341951 1.06066 1.06066 
C 1.341951 0.77937 1.5 0.397805 1.5 0 
C 1.5 -0.397805 1.341951 -0.77937 1.06066 -1.06066 
C 0.77937 -1.341951 0.397805 -1.5 0 -1.5 
C -0.397805 -1.5 -0.77937 -1.341951 -1.06066 -1.06066 
C -1.341951 -0.77937 -1.5 -0.397805 -1.5 0 
C -1.5 0.397805 -1.341951 0.77937 -1.06066 1.06066 
C -0.77937 1.341951 -0.397805 1.5 0 1.5 
z
" style="stroke: #000000"/>
    </defs>
    <g clip-path="url(#p41d8fdbf77)">
     <use xlink:href="#meae5c0c399" x="67.448" y="284.4" style="stroke: #000000"/>
     <use xlink:href="#meae5c0c399" x="74.144" y="271.506977" style="stroke: #000000"/>
     <use xlink:href="#meae5c0c399" x="80.84" y="271.506977" style="stroke: #000000"/>
     <use xlink:href="#meae5c0c399" x="87.536" y="265.060465" style="stroke: #000000"/>
     <use xlink:href="#meae5c0c399" x="94.232" y="267.990698" style="stroke: #000000"/>
     <use xlink:href="#meae5c0c399" x="100.928" y="266.349767" style="stroke: #000000"/>
     <use xlink:href="#meae5c0c399" x="107.624" y="263.059824" style="stroke: #000000"/>
     <use xlink:href="#meae5c0c399" x="114.32" y="253.58253" style="stroke: #000000"/>
     <use xlink:href="#meae5c0c399" x="121.016" y="250.916626" style="stroke: #000000"/>
     <use xlink:href="#meae5c0c399" x="127.712" y="241.741602" style="stroke: #000000"/>
     <use xlink:href="#meae5c0c399" x="134.408" y="235.270796" style="stroke: #000000"/>
     <use xlink:href="#meae5c0c399" x="141.104" y="236.511628" style="stroke: #000000"/>
     <use xlink:href="#meae5c0c399" x="147.8" y="235.904651" style="stroke: #000000"/>
     <use xlink:href="#meae5c0c399" x="154.496" y="225.757539" style="stroke: #000000"/>
     <use xlink:href="#meae5c0c399" x="161.192" y="225.631801" style="stroke: #000000"/>
     <use xlink:href="#meae5c0c399" x="167.888" y="223.043023" style="stroke: #000000"/>
     <use xlink:href="#meae5c0c399" x="174.584" y="223.346042" style="stroke: #000000"/>
     <use xlink:href="#meae5c0c399" x="181.28" y="231.792323" style="stroke: #000000"/>
     <use xlink:href="#meae5c0c399" x="187.976" y="244.620843" style="stroke: #000000"/>
     <use xlink:href="#meae5c0c399" x="194.672" y="245.926889" style="stroke: #000000"/>
     <use xlink:href="#meae5c0c399" x="201.368" y="253.980523" style="stroke: #000000"/>
     <use xlink:href="#meae5c0c399" x="208.064" y="260.66389" style="stroke: #000000"/>
     <use xlink:href="#meae5c0c399" x="214.76" y="261.996534" style="stroke: #000000"/>
     <use xlink:href="#meae5c0c399" x="221.456" y="265.807317" style="stroke: #000000"/>
     <use xlink:href="#meae5c0c399" x="228.152" y="266.446812" style="stroke: #000000"/>
     <use xlink:href="#meae5c0c399" x="234.848" y="266.473177" style="stroke: #000000"/>
     <use xlink:href="#meae5c0c399" x="241.544" y="266.287985" style="stroke: #000000"/>
     <use xlink:href="#meae5c0c399" x="248.24" y="265.931615" style="stroke: #000000"/>
     <use xlink:href="#meae5c0c399" x="254.936" y="266.179281" style="stroke: #000000"/>
     <use xlink:href="#meae5c0c399" x="261.632" y="268.472242" style="stroke: #000000"/>
     <use xlink:href="#meae5c0c399" x="268.328" y="266.924787" style="stroke: #000000"/>
     <use xlink:href="#meae5c0c399" x="275.024" y="266.59931" style="stroke: #000000"/>
     <use xlink:href="#meae5c0c399" x="281.72" y="262.116682" style="stroke: #000000"/>
     <use xlink:href="#meae5c0c399" x="288.416" y="266.292886" style="stroke: #000000"/>
     <use xlink:href="#meae5c0c399" x="295.112" y="263.29018" style="stroke: #000000"/>
     <use xlink:href="#meae5c0c399" x="301.808" y="265.318326" style="stroke: #000000"/>
     <use xlink:href="#meae5c0c399" x="308.504" y="258.306977" style="stroke: #000000"/>
     <use xlink:href="#meae5c0c399" x="315.2" y="259.082791" style="stroke: #000000"/>
     <use xlink:href="#meae5c0c399" x="321.896" y="250.018605" style="stroke: #000000"/>
     <use xlink:href="#meae5c0c399" x="328.592" y="258.613953" style="stroke: #000000"/>
     <use xlink:href="#meae5c0c399" x="335.288" y="225.460465" style="stroke: #000000"/>
     <use xlink:href="#meae5c0c399" x="341.984" y="229.144186" style="stroke: #000000"/>
     <use xlink:href="#meae5c0c399" x="348.68" y="232.827907" style="stroke: #000000"/>
     <use xlink:href="#meae5c0c399" x="355.376" y="258.613953" style="stroke: #000000"/>
     <use xlink:href="#meae5c0c399" x="362.072" y="232.827907" style="stroke: #000000"/>
     <use xlink:href="#meae5c0c399" x="368.768" y="258.613953" style="stroke: #000000"/>
    </g>
   </g>
   <g id="patch_62">
    <path d="M 64.1 284.4 
L 64.1 232.827907 
" style="fill: none; stroke: #000000; stroke-linejoin: miter; stroke-linecap: square"/>
   </g>
   <g id="patch_63">
    <path d="M 398.9 284.4 
L 398.9 232.827907 
" style="fill: none; stroke: #000000; stroke-linejoin: miter; stroke-linecap: square"/>
   </g>
   <g id="patch_64">
    <path d="M 64.1 284.4 
L 398.9 284.4 
" style="fill: none; stroke: #000000; stroke-linejoin: miter; stroke-linecap: square"/>
   </g>
   <g id="patch_65">
    <path d="M 64.1 232.827907 
L 398.9 232.827907 
" style="fill: none; stroke: #000000; stroke-linejoin: miter; stroke-linecap: square"/>
   </g>
   <g id="matplotlib.axis_3">
    <g id="xtick_19">
     <g id="line2d_38">
      <g>
       <use xlink:href="#m8dec1b3d1d" x="113.670027" y="284.4" style="fill: #1a1a1a; stroke: #1a1a1a; stroke-width: 0.8"/>
      </g>
     </g>
     <g id="text_9">
      <!-- $\mathdefault{−5}$ -->
      <g style="fill: #1a1a1a" transform="translate(104.070027 302.810938) scale(0.15 -0.15)">
       <defs>
        <path id="LatinModernMath-Regular-2212" d="M 4621 1600 
C 4621 1670 4563 1728 4493 1728 
L 486 1728 
C 416 1728 358 1670 358 1600 
C 358 1530 416 1472 486 1472 
L 4493 1472 
C 4563 1472 4621 1530 4621 1600 
z
" transform="scale(0.015625)"/>
        <path id="LatinModernMath-Regular-35" d="M 2874 1286 
C 2874 2048 2349 2688 1658 2688 
C 1350 2688 1075 2586 845 2362 
L 845 3610 
C 973 3571 1184 3526 1389 3526 
C 2176 3526 2624 4109 2624 4192 
C 2624 4230 2605 4262 2560 4262 
C 2560 4262 2541 4262 2509 4243 
C 2381 4186 2067 4058 1638 4058 
C 1382 4058 1088 4102 787 4237 
C 736 4256 710 4256 710 4256 
C 646 4256 646 4205 646 4102 
L 646 2208 
C 646 2093 646 2042 736 2042 
C 781 2042 794 2061 819 2099 
C 890 2202 1126 2547 1645 2547 
C 1978 2547 2138 2253 2189 2138 
C 2291 1901 2304 1651 2304 1331 
C 2304 1107 2304 723 2150 454 
C 1997 205 1760 38 1466 38 
C 998 38 634 378 525 755 
C 544 749 563 742 634 742 
C 845 742 954 902 954 1056 
C 954 1210 845 1370 634 1370 
C 544 1370 320 1325 320 1030 
C 320 480 762 -141 1478 -141 
C 2221 -141 2874 474 2874 1286 
z
" transform="scale(0.015625)"/>
       </defs>
       <use xlink:href="#LatinModernMath-Regular-2212" transform="translate(0 0.40625)"/>
       <use xlink:href="#LatinModernMath-Regular-35" transform="translate(77.799988 0.40625)"/>
      </g>
     </g>
    </g>
    <g id="xtick_20">
     <g id="line2d_39">
      <g>
       <use xlink:href="#m8dec1b3d1d" x="206.756635" y="284.4" style="fill: #1a1a1a; stroke: #1a1a1a; stroke-width: 0.8"/>
      </g>
     </g>
     <g id="text_10">
      <!-- $\mathdefault{0}$ -->
      <g style="fill: #1a1a1a" transform="translate(203.006635 302.810938) scale(0.15 -0.15)">
       <use xlink:href="#LatinModernMath-Regular-30" transform="translate(0 0.40625)"/>
      </g>
     </g>
    </g>
    <g id="xtick_21">
     <g id="line2d_40">
      <g>
       <use xlink:href="#m8dec1b3d1d" x="299.843242" y="284.4" style="fill: #1a1a1a; stroke: #1a1a1a; stroke-width: 0.8"/>
      </g>
     </g>
     <g id="text_11">
      <!-- $\mathdefault{5}$ -->
      <g style="fill: #1a1a1a" transform="translate(296.093242 302.810938) scale(0.15 -0.15)">
       <use xlink:href="#LatinModernMath-Regular-35" transform="translate(0 0.40625)"/>
      </g>
     </g>
    </g>
    <g id="xtick_22">
     <g id="line2d_41">
      <g>
       <use xlink:href="#m8dec1b3d1d" x="392.929849" y="284.4" style="fill: #1a1a1a; stroke: #1a1a1a; stroke-width: 0.8"/>
      </g>
     </g>
     <g id="text_12">
      <!-- $\mathdefault{10}$ -->
      <g style="fill: #1a1a1a" transform="translate(385.429849 302.810938) scale(0.15 -0.15)">
       <defs>
        <path id="LatinModernMath-Regular-31" d="M 2682 0 
L 2682 198 
L 2477 198 
C 1901 198 1882 269 1882 506 
L 1882 4096 
C 1882 4250 1882 4262 1734 4262 
C 1338 3853 774 3853 570 3853 
L 570 3654 
C 698 3654 1075 3654 1408 3821 
L 1408 506 
C 1408 275 1389 198 813 198 
L 608 198 
L 608 0 
C 832 19 1389 19 1645 19 
C 1901 19 2458 19 2682 0 
z
" transform="scale(0.015625)"/>
       </defs>
       <use xlink:href="#LatinModernMath-Regular-31" transform="translate(0 0.40625)"/>
       <use xlink:href="#LatinModernMath-Regular-30" transform="translate(49.999985 0.40625)"/>
      </g>
     </g>
    </g>
    <g id="xtick_23">
     <g id="line2d_42">
      <g>
       <use xlink:href="#m131efc0c90" x="76.435384" y="284.4" style="fill: #1a1a1a; stroke: #1a1a1a; stroke-width: 0.6"/>
      </g>
     </g>
    </g>
    <g id="xtick_24">
     <g id="line2d_43">
      <g>
       <use xlink:href="#m131efc0c90" x="95.052706" y="284.4" style="fill: #1a1a1a; stroke: #1a1a1a; stroke-width: 0.6"/>
      </g>
     </g>
    </g>
    <g id="xtick_25">
     <g id="line2d_44">
      <g>
       <use xlink:href="#m131efc0c90" x="132.287349" y="284.4" style="fill: #1a1a1a; stroke: #1a1a1a; stroke-width: 0.6"/>
      </g>
     </g>
    </g>
    <g id="xtick_26">
     <g id="line2d_45">
      <g>
       <use xlink:href="#m131efc0c90" x="150.90467" y="284.4" style="fill: #1a1a1a; stroke: #1a1a1a; stroke-width: 0.6"/>
      </g>
     </g>
    </g>
    <g id="xtick_27">
     <g id="line2d_46">
      <g>
       <use xlink:href="#m131efc0c90" x="169.521992" y="284.4" style="fill: #1a1a1a; stroke: #1a1a1a; stroke-width: 0.6"/>
      </g>
     </g>
    </g>
    <g id="xtick_28">
     <g id="line2d_47">
      <g>
       <use xlink:href="#m131efc0c90" x="188.139313" y="284.4" style="fill: #1a1a1a; stroke: #1a1a1a; stroke-width: 0.6"/>
      </g>
     </g>
    </g>
    <g id="xtick_29">
     <g id="line2d_48">
      <g>
       <use xlink:href="#m131efc0c90" x="225.373956" y="284.4" style="fill: #1a1a1a; stroke: #1a1a1a; stroke-width: 0.6"/>
      </g>
     </g>
    </g>
    <g id="xtick_30">
     <g id="line2d_49">
      <g>
       <use xlink:href="#m131efc0c90" x="243.991277" y="284.4" style="fill: #1a1a1a; stroke: #1a1a1a; stroke-width: 0.6"/>
      </g>
     </g>
    </g>
    <g id="xtick_31">
     <g id="line2d_50">
      <g>
       <use xlink:href="#m131efc0c90" x="262.608599" y="284.4" style="fill: #1a1a1a; stroke: #1a1a1a; stroke-width: 0.6"/>
      </g>
     </g>
    </g>
    <g id="xtick_32">
     <g id="line2d_51">
      <g>
       <use xlink:href="#m131efc0c90" x="281.22592" y="284.4" style="fill: #1a1a1a; stroke: #1a1a1a; stroke-width: 0.6"/>
      </g>
     </g>
    </g>
    <g id="xtick_33">
     <g id="line2d_52">
      <g>
       <use xlink:href="#m131efc0c90" x="318.460563" y="284.4" style="fill: #1a1a1a; stroke: #1a1a1a; stroke-width: 0.6"/>
      </g>
     </g>
    </g>
    <g id="xtick_34">
     <g id="line2d_53">
      <g>
       <use xlink:href="#m131efc0c90" x="337.077885" y="284.4" style="fill: #1a1a1a; stroke: #1a1a1a; stroke-width: 0.6"/>
      </g>
     </g>
    </g>
    <g id="xtick_35">
     <g id="line2d_54">
      <g>
       <use xlink:href="#m131efc0c90" x="355.695206" y="284.4" style="fill: #1a1a1a; stroke: #1a1a1a; stroke-width: 0.6"/>
      </g>
     </g>
    </g>
    <g id="xtick_36">
     <g id="line2d_55">
      <g>
       <use xlink:href="#m131efc0c90" x="374.312528" y="284.4" style="fill: #1a1a1a; stroke: #1a1a1a; stroke-width: 0.6"/>
      </g>
     </g>
    </g>
    <g id="text_13">
     <!-- variable_1 -->
     <g style="fill: #1a1a1a" transform="translate(192.719844 324.215) scale(0.18 -0.18)">
      <defs>
       <path id="LatinModernMath-Regular-76" d="M 3251 2560 
L 3251 2758 
C 3104 2746 2918 2739 2771 2739 
L 2214 2758 
L 2214 2560 
C 2451 2554 2522 2406 2522 2285 
C 2522 2227 2509 2202 2483 2131 
L 1830 499 
L 1114 2285 
C 1075 2368 1075 2394 1075 2394 
C 1075 2560 1325 2560 1440 2560 
L 1440 2758 
L 742 2739 
C 570 2739 314 2746 122 2758 
L 122 2560 
C 525 2560 550 2522 634 2323 
L 1555 51 
C 1594 -38 1606 -70 1690 -70 
C 1773 -70 1798 -13 1824 51 
L 2662 2131 
C 2720 2278 2829 2554 3251 2560 
z
" transform="scale(0.015625)"/>
       <path id="LatinModernMath-Regular-61" d="M 3091 570 
L 3091 928 
L 2931 928 
L 2931 570 
C 2931 198 2771 160 2701 160 
C 2490 160 2464 448 2464 480 
L 2464 1760 
C 2464 2029 2464 2278 2234 2515 
C 1984 2765 1664 2867 1357 2867 
C 832 2867 390 2566 390 2144 
C 390 1952 518 1843 685 1843 
C 864 1843 979 1971 979 2138 
C 979 2214 947 2426 653 2432 
C 826 2656 1139 2726 1344 2726 
C 1658 2726 2022 2477 2022 1907 
L 2022 1670 
C 1696 1651 1248 1632 845 1440 
C 365 1222 205 890 205 608 
C 205 90 826 -70 1229 -70 
C 1651 -70 1946 186 2067 486 
C 2093 230 2266 -38 2566 -38 
C 2701 -38 3091 51 3091 570 
z
M 2022 896 
C 2022 288 1562 70 1274 70 
C 960 70 698 294 698 614 
C 698 966 966 1498 2022 1536 
L 2022 896 
z
" transform="scale(0.015625)"/>
       <path id="LatinModernMath-Regular-62" d="M 3334 1382 
C 3334 2195 2707 2829 1978 2829 
C 1478 2829 1203 2528 1101 2413 
L 1101 4442 
L 179 4371 
L 179 4173 
C 627 4173 678 4128 678 3814 
L 678 0 
L 838 0 
L 1069 397 
C 1165 250 1434 -70 1907 -70 
C 2669 -70 3334 557 3334 1382 
z
M 2803 1389 
C 2803 1152 2790 768 2605 480 
C 2470 282 2227 70 1882 70 
C 1594 70 1363 224 1210 461 
C 1120 595 1120 614 1120 730 
L 1120 2048 
C 1120 2170 1120 2176 1190 2278 
C 1440 2637 1792 2688 1946 2688 
C 2234 2688 2464 2522 2618 2278 
C 2784 2016 2803 1651 2803 1389 
z
" transform="scale(0.015625)"/>
       <path id="LatinModernMath-Regular-6c" d="M 1632 0 
L 1632 198 
C 1203 198 1133 198 1133 486 
L 1133 4442 
L 211 4371 
L 211 4173 
C 659 4173 710 4128 710 3814 
L 710 486 
C 710 198 640 198 211 198 
L 211 0 
L 922 19 
L 1632 0 
z
" transform="scale(0.015625)"/>
       <path id="LatinModernMath-Regular-5f" d="M 2131 -896 
L 2131 -640 
L 0 -640 
L 0 -896 
L 2131 -896 
z
" transform="scale(0.015625)"/>
      </defs>
      <use xlink:href="#LatinModernMath-Regular-76"/>
      <use xlink:href="#LatinModernMath-Regular-61" x="52.799988"/>
      <use xlink:href="#LatinModernMath-Regular-72" x="102.799973"/>
      <use xlink:href="#LatinModernMath-Regular-69" x="141.999969"/>
      <use xlink:href="#LatinModernMath-Regular-61" x="169.799957"/>
      <use xlink:href="#LatinModernMath-Regular-62" x="219.799942"/>
      <use xlink:href="#LatinModernMath-Regular-6c" x="275.399933"/>
      <use xlink:href="#LatinModernMath-Regular-65" x="303.199921"/>
      <use xlink:href="#LatinModernMath-Regular-5f" x="347.599915"/>
      <use xlink:href="#LatinModernMath-Regular-31" x="380.899902"/>
     </g>
    </g>
   </g>
   <g id="matplotlib.axis_4">
    <g id="ytick_18">
     <g id="line2d_56">
      <g>
       <use xlink:href="#mc947610920" x="64.1" y="284.4" style="fill: #1a1a1a; stroke: #1a1a1a; stroke-width: 0.8"/>
      </g>
     </g>
     <g id="text_14">
      <!-- $\mathdefault{0}$ -->
      <g style="fill: #1a1a1a" transform="translate(51.6 289.605469) scale(0.15 -0.15)">
       <use xlink:href="#LatinModernMath-Regular-30" transform="translate(0 0.40625)"/>
      </g>
     </g>
    </g>
    <g id="ytick_19">
     <g id="line2d_57">
      <g>
       <use xlink:href="#mc947610920" x="64.1" y="232.827907" style="fill: #1a1a1a; stroke: #1a1a1a; stroke-width: 0.8"/>
      </g>
     </g>
     <g id="text_15">
      <!-- $\mathdefault{2}$ -->
      <g style="fill: #1a1a1a" transform="translate(51.6 238.033376) scale(0.15 -0.15)">
       <use xlink:href="#LatinModernMath-Regular-32" transform="translate(0 0.40625)"/>
      </g>
     </g>
    </g>
    <g id="ytick_20">
     <g id="line2d_58">
      <g>
       <use xlink:href="#m5f9d1e6504" x="64.1" y="271.506977" style="fill: #1a1a1a; stroke: #1a1a1a; stroke-width: 0.6"/>
      </g>
     </g>
    </g>
    <g id="ytick_21">
     <g id="line2d_59">
      <g>
       <use xlink:href="#m5f9d1e6504" x="64.1" y="258.613953" style="fill: #1a1a1a; stroke: #1a1a1a; stroke-width: 0.6"/>
      </g>
     </g>
    </g>
    <g id="ytick_22">
     <g id="line2d_60">
      <g>
       <use xlink:href="#m5f9d1e6504" x="64.1" y="245.72093" style="fill: #1a1a1a; stroke: #1a1a1a; stroke-width: 0.6"/>
      </g>
     </g>
    </g>
    <g id="text_16">
     <!-- $\frac{\mathbf{h1}}{\mathbf{h2}}$ -->
     <g style="fill: #1a1a1a" transform="translate(22.86 266.443953) rotate(-90) scale(0.18 -0.18)">
      <use xlink:href="#Cmb10-68" transform="translate(0 38.426563) scale(0.7)"/>
      <use xlink:href="#Cmr10-31" transform="translate(38.862305 38.426563) scale(0.7)"/>
      <use xlink:href="#Cmb10-68" transform="translate(0 -41.396875) scale(0.7)"/>
      <use xlink:href="#Cmr10-32" transform="translate(38.862305 -41.396875) scale(0.7)"/>
      <path d="M 0 13.426563 
L 0 19.676563 
L 73.862305 19.676563 
L 73.862305 13.426563 
L 0 13.426563 
z
"/>
     </g>
    </g>
   </g>
  </g>
 </g>
 <defs>
  <clipPath id="pc47c9758c4">
   <rect x="64.1" y="7.2" width="334.8" height="206.288372"/>
  </clipPath>
  <clipPath id="p41d8fdbf77">
   <rect x="64.1" y="232.827907" width="334.8" height="51.572093"/>
  </clipPath>
 </defs>
 <defs>
  <pattern id="hcddca885b2" patternUnits="userSpaceOnUse" x="0" y="0" width="72" height="72">
   <rect x="0" y="0" width="73" height="73" fill="none"/>
   <path d="M -36 36 
L 36 -36 
M -33 39 
L 39 -33 
M -30 42 
L 42 -30 
M -27 45 
L 45 -27 
M -24 48 
L 48 -24 
M -21 51 
L 51 -21 
M -18 54 
L 54 -18 
M -15 57 
L 57 -15 
M -12 60 
L 60 -12 
M -9 63 
L 63 -9 
M -6 66 
L 66 -6 
M -3 69 
L 69 -3 
M 0 72 
L 72 0 
M 3 75 
L 75 3 
M 6 78 
L 78 6 
M 9 81 
L 81 9 
M 12 84 
L 84 12 
M 15 87 
L 87 15 
M 18 90 
L 90 18 
M 21 93 
L 93 21 
M 24 96 
L 96 24 
M 27 99 
L 99 27 
M 30 102 
L 102 30 
M 33 105 
L 105 33 
M 36 108 
L 108 36 
" style="fill: #696969; stroke: #696969; stroke-width: 1.0; stroke-linecap: butt; stroke-linejoin: miter"/>
  </pattern>
 </defs>
</svg>
