<?xml version="1.0" encoding="utf-8" standalone="no"?>
<!DOCTYPE svg PUBLIC "-//W3C//DTD SVG 1.1//EN"
  "http://www.w3.org/Graphics/SVG/1.1/DTD/svg11.dtd">
<svg xmlns:xlink="http://www.w3.org/1999/xlink" width="412.360716pt" height="347.759759pt" viewBox="0 0 412.360716 347.759759" xmlns="http://www.w3.org/2000/svg" version="1.1">
 <metadata>
  <rdf:RDF xmlns:dc="http://purl.org/dc/elements/1.1/" xmlns:cc="http://creativecommons.org/ns#" xmlns:rdf="http://www.w3.org/1999/02/22-rdf-syntax-ns#">
   <cc:Work>
    <dc:creator>
     <cc:Agent>
      <dc:title>カリビアンカフェ</dc:title>
     </cc:Agent>
    </dc:creator>
   </cc:Work>
  </rdf:RDF>
 </metadata>
 <defs>
  <style type="text/css">*{stroke-linejoin: round; stroke-linecap: butt}</style>
 </defs>
 <g id="figure_1">
  <g id="patch_1">
   <path d="M 0 347.759759 
L 412.360716 347.759759 
L 412.360716 0 
L 0 0 
z
" style="fill: #ffffff"/>
  </g>
  <g id="axes_1">
   <g id="patch_2">
    <path d="M 68.38625 226.340006 
L 403.18625 226.340006 
L 403.18625 20.051634 
L 68.38625 20.051634 
z
" style="fill: #ffffff"/>
   </g>
   <g id="patch_3">
    <path d="M 68.38625 226.340006 
L 68.38625 226.340006 
L 75.08225 226.340006 
L 75.08225 226.340006 
L 81.77825 226.340006 
L 81.77825 226.340006 
L 88.47425 226.340006 
L 88.47425 226.340006 
L 95.17025 226.340006 
L 95.17025 226.340006 
L 101.86625 226.340006 
L 101.86625 226.111292 
L 108.56225 226.111292 
L 108.56225 224.967723 
L 115.25825 224.967723 
L 115.25825 225.196437 
L 121.95425 225.196437 
L 121.95425 223.366727 
L 128.65025 223.366727 
L 128.65025 221.079589 
L 135.34625 221.079589 
L 135.34625 217.877597 
L 142.04225 217.877597 
L 142.04225 203.239916 
L 148.73825 203.239916 
L 148.73825 194.32008 
L 155.43425 194.32008 
L 155.43425 180.368541 
L 162.13025 180.368541 
L 162.13025 162.986295 
L 168.82625 162.986295 
L 168.82625 143.316912 
L 175.52225 143.316912 
L 175.52225 110.382132 
L 182.21825 110.382132 
L 182.21825 101.004868 
L 188.91425 101.004868 
L 188.91425 99.632585 
L 195.61025 99.632585 
L 195.61025 96.201879 
L 202.30625 96.201879 
L 202.30625 111.068273 
L 209.00225 111.068273 
L 209.00225 108.323708 
L 215.69825 108.323708 
L 215.69825 120.674251 
L 222.39425 120.674251 
L 222.39425 115.413834 
L 229.09025 115.413834 
L 229.09025 112.897983 
L 235.78625 112.897983 
L 235.78625 105.350429 
L 242.48225 105.350429 
L 242.48225 98.031589 
L 249.17825 98.031589 
L 249.17825 91.627604 
L 255.87425 91.627604 
L 255.87425 88.883039 
L 262.57025 88.883039 
L 262.57025 98.260303 
L 269.26625 98.260303 
L 269.26625 105.350429 
L 275.96225 105.350429 
L 275.96225 126.392095 
L 282.65825 126.392095 
L 282.65825 140.801061 
L 289.35425 140.801061 
L 289.35425 149.492184 
L 296.05025 149.492184 
L 296.05025 172.363559 
L 302.74625 172.363559 
L 302.74625 187.00124 
L 309.44225 187.00124 
L 309.44225 196.835931 
L 316.13825 196.835931 
L 316.13825 205.527054 
L 322.83425 205.527054 
L 322.83425 213.303322 
L 329.53025 213.303322 
L 329.53025 216.047887 
L 336.22625 216.047887 
L 336.22625 221.079589 
L 342.92225 221.079589 
L 342.92225 223.824154 
L 349.61825 223.824154 
L 349.61825 223.824154 
L 356.31425 223.824154 
L 356.31425 225.653865 
L 363.01025 225.653865 
L 363.01025 225.653865 
L 369.70625 225.653865 
L 369.70625 226.111292 
L 376.40225 226.111292 
L 376.40225 226.340006 
L 383.09825 226.340006 
L 383.09825 226.340006 
L 389.79425 226.340006 
L 389.79425 226.340006 
L 396.49025 226.340006 
L 396.49025 226.111292 
L 403.18625 226.111292 
L 403.18625 226.340006 
" clip-path="url(#p482aa6d7a9)" style="fill: none; stroke: #348abd; stroke-linejoin: miter"/>
   </g>
   <g id="patch_4">
    <path d="M 68.38625 226.340006 
L 68.38625 226.340006 
L 75.08225 226.340006 
L 75.08225 226.340006 
L 81.77825 226.340006 
L 81.77825 226.340006 
L 88.47425 226.340006 
L 88.47425 226.111292 
L 95.17025 226.111292 
L 95.17025 226.111292 
L 101.86625 226.111292 
L 101.86625 225.882578 
L 108.56225 225.882578 
L 108.56225 224.967723 
L 115.25825 224.967723 
L 115.25825 224.281582 
L 121.95425 224.281582 
L 121.95425 222.451872 
L 128.65025 222.451872 
L 128.65025 220.622162 
L 135.34625 220.622162 
L 135.34625 214.675604 
L 142.04225 214.675604 
L 142.04225 211.931039 
L 148.73825 211.931039 
L 148.73825 206.213195 
L 155.43425 206.213195 
L 155.43425 201.867634 
L 162.13025 201.867634 
L 162.13025 193.405225 
L 168.82625 193.405225 
L 168.82625 180.597255 
L 175.52225 180.597255 
L 175.52225 181.283396 
L 182.21825 181.283396 
L 182.21825 173.049701 
L 188.91425 173.049701 
L 188.91425 170.762563 
L 195.61025 170.762563 
L 195.61025 165.044719 
L 202.30625 165.044719 
L 202.30625 158.640734 
L 209.00225 158.640734 
L 209.00225 151.321894 
L 215.69825 151.321894 
L 215.69825 133.710935 
L 222.39425 133.710935 
L 222.39425 113.126697 
L 229.09025 113.126697 
L 229.09025 96.88802 
L 235.78625 96.88802 
L 235.78625 64.63938 
L 242.48225 64.63938 
L 242.48225 38.337299 
L 249.17825 38.337299 
L 249.17825 29.87489 
L 255.87425 29.87489 
L 255.87425 38.794726 
L 262.57025 38.794726 
L 262.57025 37.879871 
L 269.26625 37.879871 
L 269.26625 50.687841 
L 275.96225 50.687841 
L 275.96225 68.298801 
L 282.65825 68.298801 
L 282.65825 102.148436 
L 289.35425 102.148436 
L 289.35425 128.907946 
L 296.05025 128.907946 
L 296.05025 155.667455 
L 302.74625 155.667455 
L 302.74625 176.251693 
L 309.44225 176.251693 
L 309.44225 188.373522 
L 316.13825 188.373522 
L 316.13825 205.29834 
L 322.83425 205.29834 
L 322.83425 213.760749 
L 329.53025 213.760749 
L 329.53025 218.563738 
L 336.22625 218.563738 
L 336.22625 222.223158 
L 342.92225 222.223158 
L 342.92225 224.281582 
L 349.61825 224.281582 
L 349.61825 225.196437 
L 356.31425 225.196437 
L 356.31425 226.340006 
L 363.01025 226.340006 
L 363.01025 225.653865 
L 369.70625 225.653865 
L 369.70625 226.111292 
L 376.40225 226.111292 
L 376.40225 226.340006 
L 383.09825 226.340006 
L 383.09825 226.340006 
L 389.79425 226.340006 
L 389.79425 226.340006 
L 396.49025 226.340006 
L 396.49025 226.340006 
L 403.18625 226.340006 
L 403.18625 226.340006 
" clip-path="url(#p482aa6d7a9)" style="fill: none; stroke: #e24a33; stroke-linejoin: miter"/>
   </g>
   <g id="patch_5">
    <path d="M 68.38625 226.340006 
L 68.38625 20.051634 
" style="fill: none; stroke: #000000; stroke-linejoin: miter; stroke-linecap: square"/>
   </g>
   <g id="patch_6">
    <path d="M 403.18625 226.340006 
L 403.18625 20.051634 
" style="fill: none; stroke: #000000; stroke-linejoin: miter; stroke-linecap: square"/>
   </g>
   <g id="patch_7">
    <path d="M 68.38625 226.340006 
L 403.18625 226.340006 
" style="fill: none; stroke: #000000; stroke-linejoin: miter; stroke-linecap: square"/>
   </g>
   <g id="patch_8">
    <path d="M 68.38625 20.051634 
L 403.18625 20.051634 
" style="fill: none; stroke: #000000; stroke-linejoin: miter; stroke-linecap: square"/>
   </g>
   <g id="matplotlib.axis_1">
    <g id="xtick_1">
     <g id="line2d_1">
      <defs>
       <path id="m8dec1b3d1d" d="M 0 0 
L 0 -6 
" style="stroke: #1a1a1a; stroke-width: 0.8"/>
      </defs>
      <g>
       <use xlink:href="#m8dec1b3d1d" x="139.198285" y="226.340006" style="fill: #1a1a1a; stroke: #1a1a1a; stroke-width: 0.8"/>
      </g>
     </g>
    </g>
    <g id="xtick_2">
     <g id="line2d_2">
      <g>
       <use xlink:href="#m8dec1b3d1d" x="225.352429" y="226.340006" style="fill: #1a1a1a; stroke: #1a1a1a; stroke-width: 0.8"/>
      </g>
     </g>
    </g>
    <g id="xtick_3">
     <g id="line2d_3">
      <g>
       <use xlink:href="#m8dec1b3d1d" x="311.506572" y="226.340006" style="fill: #1a1a1a; stroke: #1a1a1a; stroke-width: 0.8"/>
      </g>
     </g>
    </g>
    <g id="xtick_4">
     <g id="line2d_4">
      <g>
       <use xlink:href="#m8dec1b3d1d" x="397.660716" y="226.340006" style="fill: #1a1a1a; stroke: #1a1a1a; stroke-width: 0.8"/>
      </g>
     </g>
    </g>
    <g id="xtick_5">
     <g id="line2d_5">
      <defs>
       <path id="m131efc0c90" d="M 0 0 
L 0 -3 
" style="stroke: #1a1a1a; stroke-width: 0.6"/>
      </defs>
      <g>
       <use xlink:href="#m131efc0c90" x="70.274971" y="226.340006" style="fill: #1a1a1a; stroke: #1a1a1a; stroke-width: 0.6"/>
      </g>
     </g>
    </g>
    <g id="xtick_6">
     <g id="line2d_6">
      <g>
       <use xlink:href="#m131efc0c90" x="87.505799" y="226.340006" style="fill: #1a1a1a; stroke: #1a1a1a; stroke-width: 0.6"/>
      </g>
     </g>
    </g>
    <g id="xtick_7">
     <g id="line2d_7">
      <g>
       <use xlink:href="#m131efc0c90" x="104.736628" y="226.340006" style="fill: #1a1a1a; stroke: #1a1a1a; stroke-width: 0.6"/>
      </g>
     </g>
    </g>
    <g id="xtick_8">
     <g id="line2d_8">
      <g>
       <use xlink:href="#m131efc0c90" x="121.967457" y="226.340006" style="fill: #1a1a1a; stroke: #1a1a1a; stroke-width: 0.6"/>
      </g>
     </g>
    </g>
    <g id="xtick_9">
     <g id="line2d_9">
      <g>
       <use xlink:href="#m131efc0c90" x="156.429114" y="226.340006" style="fill: #1a1a1a; stroke: #1a1a1a; stroke-width: 0.6"/>
      </g>
     </g>
    </g>
    <g id="xtick_10">
     <g id="line2d_10">
      <g>
       <use xlink:href="#m131efc0c90" x="173.659943" y="226.340006" style="fill: #1a1a1a; stroke: #1a1a1a; stroke-width: 0.6"/>
      </g>
     </g>
    </g>
    <g id="xtick_11">
     <g id="line2d_11">
      <g>
       <use xlink:href="#m131efc0c90" x="190.890771" y="226.340006" style="fill: #1a1a1a; stroke: #1a1a1a; stroke-width: 0.6"/>
      </g>
     </g>
    </g>
    <g id="xtick_12">
     <g id="line2d_12">
      <g>
       <use xlink:href="#m131efc0c90" x="208.1216" y="226.340006" style="fill: #1a1a1a; stroke: #1a1a1a; stroke-width: 0.6"/>
      </g>
     </g>
    </g>
    <g id="xtick_13">
     <g id="line2d_13">
      <g>
       <use xlink:href="#m131efc0c90" x="242.583257" y="226.340006" style="fill: #1a1a1a; stroke: #1a1a1a; stroke-width: 0.6"/>
      </g>
     </g>
    </g>
    <g id="xtick_14">
     <g id="line2d_14">
      <g>
       <use xlink:href="#m131efc0c90" x="259.814086" y="226.340006" style="fill: #1a1a1a; stroke: #1a1a1a; stroke-width: 0.6"/>
      </g>
     </g>
    </g>
    <g id="xtick_15">
     <g id="line2d_15">
      <g>
       <use xlink:href="#m131efc0c90" x="277.044915" y="226.340006" style="fill: #1a1a1a; stroke: #1a1a1a; stroke-width: 0.6"/>
      </g>
     </g>
    </g>
    <g id="xtick_16">
     <g id="line2d_16">
      <g>
       <use xlink:href="#m131efc0c90" x="294.275744" y="226.340006" style="fill: #1a1a1a; stroke: #1a1a1a; stroke-width: 0.6"/>
      </g>
     </g>
    </g>
    <g id="xtick_17">
     <g id="line2d_17">
      <g>
       <use xlink:href="#m131efc0c90" x="328.737401" y="226.340006" style="fill: #1a1a1a; stroke: #1a1a1a; stroke-width: 0.6"/>
      </g>
     </g>
    </g>
    <g id="xtick_18">
     <g id="line2d_18">
      <g>
       <use xlink:href="#m131efc0c90" x="345.96823" y="226.340006" style="fill: #1a1a1a; stroke: #1a1a1a; stroke-width: 0.6"/>
      </g>
     </g>
    </g>
    <g id="xtick_19">
     <g id="line2d_19">
      <g>
       <use xlink:href="#m131efc0c90" x="363.199058" y="226.340006" style="fill: #1a1a1a; stroke: #1a1a1a; stroke-width: 0.6"/>
      </g>
     </g>
    </g>
    <g id="xtick_20">
     <g id="line2d_20">
      <g>
       <use xlink:href="#m131efc0c90" x="380.429887" y="226.340006" style="fill: #1a1a1a; stroke: #1a1a1a; stroke-width: 0.6"/>
      </g>
     </g>
    </g>
   </g>
   <g id="matplotlib.axis_2">
    <g id="ytick_1">
     <g id="line2d_21">
      <defs>
       <path id="mc947610920" d="M 0 0 
L 6 0 
" style="stroke: #1a1a1a; stroke-width: 0.8"/>
      </defs>
      <g>
       <use xlink:href="#mc947610920" x="68.38625" y="226.340006" style="fill: #1a1a1a; stroke: #1a1a1a; stroke-width: 0.8"/>
      </g>
     </g>
     <g id="text_1">
      <!-- $\mathdefault{0}$ -->
      <g style="fill: #1a1a1a" transform="translate(55.88625 231.545475) scale(0.15 -0.15)">
       <defs>
        <path id="LatinModernMath-Regular-30" d="M 2944 2048 
C 2944 2560 2912 3072 2688 3546 
C 2394 4160 1869 4262 1600 4262 
C 1216 4262 749 4096 486 3501 
C 282 3059 250 2560 250 2048 
C 250 1568 275 992 538 506 
C 813 -13 1280 -141 1594 -141 
C 1939 -141 2426 -6 2707 602 
C 2912 1043 2944 1542 2944 2048 
z
M 2413 2125 
C 2413 1645 2413 1210 2342 800 
C 2246 192 1882 0 1594 0 
C 1344 0 966 160 851 774 
C 781 1158 781 1747 781 2125 
C 781 2534 781 2957 832 3302 
C 954 4064 1434 4122 1594 4122 
C 1805 4122 2227 4006 2349 3373 
C 2413 3014 2413 2528 2413 2125 
z
" transform="scale(0.015625)"/>
       </defs>
       <use xlink:href="#LatinModernMath-Regular-30" transform="translate(0 0.40625)"/>
      </g>
     </g>
    </g>
    <g id="ytick_2">
     <g id="line2d_22">
      <g>
       <use xlink:href="#mc947610920" x="68.38625" y="180.597255" style="fill: #1a1a1a; stroke: #1a1a1a; stroke-width: 0.8"/>
      </g>
     </g>
     <g id="text_2">
      <!-- $\mathdefault{200}$ -->
      <g style="fill: #1a1a1a" transform="translate(40.88625 185.802723) scale(0.15 -0.15)">
       <defs>
        <path id="LatinModernMath-Regular-32" d="M 2874 1114 
L 2714 1114 
C 2682 922 2637 640 2573 544 
C 2528 493 2106 493 1965 493 
L 813 493 
L 1491 1152 
C 2490 2035 2874 2381 2874 3021 
C 2874 3750 2298 4262 1517 4262 
C 794 4262 320 3674 320 3104 
C 320 2746 640 2746 659 2746 
C 768 2746 992 2822 992 3085 
C 992 3251 877 3418 653 3418 
C 602 3418 589 3418 570 3411 
C 717 3827 1062 4064 1434 4064 
C 2016 4064 2291 3546 2291 3021 
C 2291 2509 1971 2003 1619 1606 
L 390 237 
C 320 166 320 154 320 0 
L 2694 0 
L 2874 1114 
z
" transform="scale(0.015625)"/>
       </defs>
       <use xlink:href="#LatinModernMath-Regular-32" transform="translate(0 0.40625)"/>
       <use xlink:href="#LatinModernMath-Regular-30" transform="translate(49.999985 0.40625)"/>
       <use xlink:href="#LatinModernMath-Regular-30" transform="translate(99.999969 0.40625)"/>
      </g>
     </g>
    </g>
    <g id="ytick_3">
     <g id="line2d_23">
      <g>
       <use xlink:href="#mc947610920" x="68.38625" y="134.854503" style="fill: #1a1a1a; stroke: #1a1a1a; stroke-width: 0.8"/>
      </g>
     </g>
     <g id="text_3">
      <!-- $\mathdefault{400}$ -->
      <g style="fill: #1a1a1a" transform="translate(40.88625 140.059972) scale(0.15 -0.15)">
       <defs>
        <path id="LatinModernMath-Regular-34" d="M 3014 1056 
L 3014 1254 
L 2374 1254 
L 2374 4166 
C 2374 4294 2374 4333 2272 4333 
C 2214 4333 2195 4333 2144 4256 
L 179 1254 
L 179 1056 
L 1882 1056 
L 1882 499 
C 1882 269 1869 198 1395 198 
L 1261 198 
L 1261 0 
C 1523 19 1856 19 2125 19 
C 2394 19 2733 19 2995 0 
L 2995 198 
L 2861 198 
C 2387 198 2374 269 2374 499 
L 2374 1056 
L 3014 1056 
z
M 1920 1254 
L 358 1254 
L 1920 3642 
L 1920 1254 
z
" transform="scale(0.015625)"/>
       </defs>
       <use xlink:href="#LatinModernMath-Regular-34" transform="translate(0 0.296875)"/>
       <use xlink:href="#LatinModernMath-Regular-30" transform="translate(49.999985 0.296875)"/>
       <use xlink:href="#LatinModernMath-Regular-30" transform="translate(99.999969 0.296875)"/>
      </g>
     </g>
    </g>
    <g id="ytick_4">
     <g id="line2d_24">
      <g>
       <use xlink:href="#mc947610920" x="68.38625" y="89.111752" style="fill: #1a1a1a; stroke: #1a1a1a; stroke-width: 0.8"/>
      </g>
     </g>
     <g id="text_4">
      <!-- $\mathdefault{600}$ -->
      <g style="fill: #1a1a1a" transform="translate(40.88625 94.317221) scale(0.15 -0.15)">
       <defs>
        <path id="LatinModernMath-Regular-36" d="M 2925 1306 
C 2925 2118 2355 2733 1645 2733 
C 1210 2733 973 2406 845 2099 
L 845 2253 
C 845 3872 1638 4102 1965 4102 
C 2118 4102 2387 4064 2528 3846 
C 2432 3846 2176 3846 2176 3558 
C 2176 3360 2330 3264 2470 3264 
C 2573 3264 2765 3322 2765 3571 
C 2765 3955 2483 4262 1952 4262 
C 1133 4262 269 3437 269 2022 
C 269 314 1011 -141 1606 -141 
C 2317 -141 2925 461 2925 1306 
z
M 2349 1312 
C 2349 1005 2349 685 2240 454 
C 2048 70 1754 38 1606 38 
C 1203 38 1011 422 973 518 
C 858 819 858 1331 858 1446 
C 858 1946 1062 2586 1638 2586 
C 1741 2586 2035 2586 2234 2189 
C 2349 1952 2349 1626 2349 1312 
z
" transform="scale(0.015625)"/>
       </defs>
       <use xlink:href="#LatinModernMath-Regular-36" transform="translate(0 0.40625)"/>
       <use xlink:href="#LatinModernMath-Regular-30" transform="translate(49.999985 0.40625)"/>
       <use xlink:href="#LatinModernMath-Regular-30" transform="translate(99.999969 0.40625)"/>
      </g>
     </g>
    </g>
    <g id="ytick_5">
     <g id="line2d_25">
      <g>
       <use xlink:href="#mc947610920" x="68.38625" y="43.369001" style="fill: #1a1a1a; stroke: #1a1a1a; stroke-width: 0.8"/>
      </g>
     </g>
     <g id="text_5">
      <!-- $\mathdefault{800}$ -->
      <g style="fill: #1a1a1a" transform="translate(40.88625 48.57447) scale(0.15 -0.15)">
       <defs>
        <path id="LatinModernMath-Regular-38" d="M 2925 1075 
C 2925 1306 2854 1594 2611 1862 
C 2490 1997 2387 2061 1978 2317 
C 2438 2554 2752 2886 2752 3309 
C 2752 3898 2182 4262 1600 4262 
C 960 4262 442 3789 442 3194 
C 442 3078 454 2790 723 2490 
C 794 2413 1030 2253 1190 2144 
C 819 1958 269 1600 269 966 
C 269 288 922 -141 1594 -141 
C 2317 -141 2925 390 2925 1075 
z
M 2470 3309 
C 2470 2944 2221 2637 1837 2413 
L 1043 2925 
C 749 3117 723 3334 723 3443 
C 723 3834 1139 4102 1594 4102 
C 2061 4102 2470 3770 2470 3309 
z
M 2605 845 
C 2605 371 2125 38 1600 38 
C 1050 38 589 435 589 966 
C 589 1338 794 1747 1338 2048 
L 2125 1549 
C 2304 1427 2605 1235 2605 845 
z
" transform="scale(0.015625)"/>
       </defs>
       <use xlink:href="#LatinModernMath-Regular-38" transform="translate(0 0.40625)"/>
       <use xlink:href="#LatinModernMath-Regular-30" transform="translate(49.999985 0.40625)"/>
       <use xlink:href="#LatinModernMath-Regular-30" transform="translate(99.999969 0.40625)"/>
      </g>
     </g>
    </g>
    <g id="ytick_6">
     <g id="line2d_26">
      <defs>
       <path id="m5f9d1e6504" d="M 0 0 
L 3 0 
" style="stroke: #1a1a1a; stroke-width: 0.6"/>
      </defs>
      <g>
       <use xlink:href="#m5f9d1e6504" x="68.38625" y="214.904318" style="fill: #1a1a1a; stroke: #1a1a1a; stroke-width: 0.6"/>
      </g>
     </g>
    </g>
    <g id="ytick_7">
     <g id="line2d_27">
      <g>
       <use xlink:href="#m5f9d1e6504" x="68.38625" y="203.46863" style="fill: #1a1a1a; stroke: #1a1a1a; stroke-width: 0.6"/>
      </g>
     </g>
    </g>
    <g id="ytick_8">
     <g id="line2d_28">
      <g>
       <use xlink:href="#m5f9d1e6504" x="68.38625" y="192.032942" style="fill: #1a1a1a; stroke: #1a1a1a; stroke-width: 0.6"/>
      </g>
     </g>
    </g>
    <g id="ytick_9">
     <g id="line2d_29">
      <g>
       <use xlink:href="#m5f9d1e6504" x="68.38625" y="169.161567" style="fill: #1a1a1a; stroke: #1a1a1a; stroke-width: 0.6"/>
      </g>
     </g>
    </g>
    <g id="ytick_10">
     <g id="line2d_30">
      <g>
       <use xlink:href="#m5f9d1e6504" x="68.38625" y="157.725879" style="fill: #1a1a1a; stroke: #1a1a1a; stroke-width: 0.6"/>
      </g>
     </g>
    </g>
    <g id="ytick_11">
     <g id="line2d_31">
      <g>
       <use xlink:href="#m5f9d1e6504" x="68.38625" y="146.290191" style="fill: #1a1a1a; stroke: #1a1a1a; stroke-width: 0.6"/>
      </g>
     </g>
    </g>
    <g id="ytick_12">
     <g id="line2d_32">
      <g>
       <use xlink:href="#m5f9d1e6504" x="68.38625" y="123.418816" style="fill: #1a1a1a; stroke: #1a1a1a; stroke-width: 0.6"/>
      </g>
     </g>
    </g>
    <g id="ytick_13">
     <g id="line2d_33">
      <g>
       <use xlink:href="#m5f9d1e6504" x="68.38625" y="111.983128" style="fill: #1a1a1a; stroke: #1a1a1a; stroke-width: 0.6"/>
      </g>
     </g>
    </g>
    <g id="ytick_14">
     <g id="line2d_34">
      <g>
       <use xlink:href="#m5f9d1e6504" x="68.38625" y="100.54744" style="fill: #1a1a1a; stroke: #1a1a1a; stroke-width: 0.6"/>
      </g>
     </g>
    </g>
    <g id="ytick_15">
     <g id="line2d_35">
      <g>
       <use xlink:href="#m5f9d1e6504" x="68.38625" y="77.676065" style="fill: #1a1a1a; stroke: #1a1a1a; stroke-width: 0.6"/>
      </g>
     </g>
    </g>
    <g id="ytick_16">
     <g id="line2d_36">
      <g>
       <use xlink:href="#m5f9d1e6504" x="68.38625" y="66.240377" style="fill: #1a1a1a; stroke: #1a1a1a; stroke-width: 0.6"/>
      </g>
     </g>
    </g>
    <g id="ytick_17">
     <g id="line2d_37">
      <g>
       <use xlink:href="#m5f9d1e6504" x="68.38625" y="54.804689" style="fill: #1a1a1a; stroke: #1a1a1a; stroke-width: 0.6"/>
      </g>
     </g>
    </g>
    <g id="ytick_18">
     <g id="line2d_38">
      <g>
       <use xlink:href="#m5f9d1e6504" x="68.38625" y="31.933313" style="fill: #1a1a1a; stroke: #1a1a1a; stroke-width: 0.6"/>
      </g>
     </g>
    </g>
    <g id="ytick_19">
     <g id="line2d_39">
      <g>
       <use xlink:href="#m5f9d1e6504" x="68.38625" y="20.497626" style="fill: #1a1a1a; stroke: #1a1a1a; stroke-width: 0.6"/>
      </g>
     </g>
    </g>
    <g id="text_6">
     <!-- Entries -->
     <g style="fill: #1a1a1a" transform="translate(19.693125 151.402382) rotate(-90) scale(0.18 -0.18)">
      <defs>
       <path id="LatinModernMath-Regular-45" d="M 4173 1651 
L 4013 1651 
C 3853 666 3706 198 2605 198 
L 1754 198 
C 1453 198 1440 243 1440 454 
L 1440 2163 
L 2016 2163 
C 2637 2163 2707 1958 2707 1414 
L 2867 1414 
L 2867 3110 
L 2707 3110 
C 2707 2560 2637 2362 2016 2362 
L 1440 2362 
L 1440 3898 
C 1440 4109 1453 4154 1754 4154 
L 2579 4154 
C 3558 4154 3731 3802 3834 2912 
L 3994 2912 
L 3814 4352 
L 211 4352 
L 211 4154 
L 365 4154 
C 858 4154 870 4083 870 3853 
L 870 499 
C 870 269 858 198 365 198 
L 211 198 
L 211 0 
L 3904 0 
L 4173 1651 
z
" transform="scale(0.015625)"/>
       <path id="LatinModernMath-Regular-6e" d="M 3424 0 
L 3424 198 
C 3091 198 2931 198 2925 390 
L 2925 1613 
C 2925 2163 2925 2362 2726 2592 
C 2637 2701 2426 2829 2054 2829 
C 1587 2829 1286 2554 1107 2157 
L 1107 2829 
L 205 2758 
L 205 2560 
C 653 2560 704 2515 704 2202 
L 704 486 
C 704 198 634 198 205 198 
L 205 0 
L 928 19 
L 1645 0 
L 1645 198 
C 1216 198 1146 198 1146 486 
L 1146 1664 
C 1146 2330 1600 2688 2010 2688 
C 2413 2688 2483 2342 2483 1978 
L 2483 486 
C 2483 198 2413 198 1984 198 
L 1984 0 
L 2707 19 
L 3424 0 
z
" transform="scale(0.015625)"/>
       <path id="LatinModernMath-Regular-74" d="M 2125 794 
L 2125 1158 
L 1965 1158 
L 1965 806 
C 1965 333 1773 90 1536 90 
C 1107 90 1107 672 1107 781 
L 1107 2560 
L 2022 2560 
L 2022 2758 
L 1107 2758 
L 1107 3936 
L 947 3936 
C 941 3411 749 2726 122 2701 
L 122 2560 
L 666 2560 
L 666 794 
C 666 6 1261 -70 1491 -70 
C 1946 -70 2125 384 2125 794 
z
" transform="scale(0.015625)"/>
       <path id="LatinModernMath-Regular-72" d="M 2330 2438 
C 2330 2643 2131 2829 1856 2829 
C 1389 2829 1158 2400 1069 2125 
L 1069 2829 
L 179 2758 
L 179 2560 
C 627 2560 678 2515 678 2202 
L 678 486 
C 678 198 608 198 179 198 
L 179 0 
L 909 19 
C 1165 19 1466 19 1722 0 
L 1722 198 
L 1587 198 
C 1114 198 1101 269 1101 499 
L 1101 1485 
C 1101 2118 1370 2688 1856 2688 
C 1901 2688 1914 2688 1926 2682 
C 1907 2675 1779 2598 1779 2432 
C 1779 2253 1914 2157 2054 2157 
C 2170 2157 2330 2234 2330 2438 
z
" transform="scale(0.015625)"/>
       <path id="LatinModernMath-Regular-69" d="M 1581 0 
L 1581 198 
C 1158 198 1133 230 1133 480 
L 1133 2829 
L 237 2758 
L 237 2560 
C 653 2560 710 2522 710 2208 
L 710 486 
C 710 198 640 198 211 198 
L 211 0 
L 915 19 
C 1139 19 1363 6 1581 0 
z
M 1229 3866 
C 1229 4038 1082 4205 890 4205 
C 672 4205 544 4026 544 3866 
C 544 3693 691 3526 883 3526 
C 1101 3526 1229 3706 1229 3866 
z
" transform="scale(0.015625)"/>
       <path id="LatinModernMath-Regular-65" d="M 2656 762 
C 2656 826 2605 838 2573 838 
C 2515 838 2502 800 2490 749 
C 2266 90 1690 90 1626 90 
C 1306 90 1050 282 902 518 
C 710 826 710 1248 710 1478 
L 2496 1478 
C 2637 1478 2656 1478 2656 1613 
C 2656 2246 2310 2867 1510 2867 
C 768 2867 179 2208 179 1408 
C 179 550 851 -70 1587 -70 
C 2368 -70 2656 640 2656 762 
z
M 2234 1613 
L 717 1613 
C 755 2566 1293 2726 1510 2726 
C 2170 2726 2234 1862 2234 1613 
z
" transform="scale(0.015625)"/>
       <path id="LatinModernMath-Regular-73" d="M 2304 819 
C 2304 1158 2112 1350 2035 1427 
C 1824 1632 1574 1683 1306 1734 
C 947 1805 518 1888 518 2259 
C 518 2483 685 2746 1235 2746 
C 1939 2746 1971 2170 1984 1971 
C 1990 1914 2061 1914 2061 1914 
C 2144 1914 2144 1946 2144 2067 
L 2144 2714 
C 2144 2822 2144 2867 2074 2867 
C 2042 2867 2029 2867 1946 2790 
C 1926 2765 1862 2707 1837 2688 
C 1594 2867 1331 2867 1235 2867 
C 454 2867 211 2438 211 2080 
C 211 1856 314 1677 486 1536 
C 691 1370 870 1331 1331 1242 
C 1472 1216 1997 1114 1997 653 
C 1997 326 1773 70 1274 70 
C 736 70 506 435 384 979 
C 365 1062 358 1088 294 1088 
C 211 1088 211 1043 211 928 
L 211 83 
C 211 -26 211 -70 282 -70 
C 314 -70 320 -64 442 58 
C 454 70 454 83 570 205 
C 851 -64 1139 -70 1274 -70 
C 2010 -70 2304 358 2304 819 
z
" transform="scale(0.015625)"/>
      </defs>
      <use xlink:href="#LatinModernMath-Regular-45"/>
      <use xlink:href="#LatinModernMath-Regular-6e" x="68.099991"/>
      <use xlink:href="#LatinModernMath-Regular-74" x="123.699982"/>
      <use xlink:href="#LatinModernMath-Regular-72" x="162.599976"/>
      <use xlink:href="#LatinModernMath-Regular-69" x="201.799973"/>
      <use xlink:href="#LatinModernMath-Regular-65" x="229.59996"/>
      <use xlink:href="#LatinModernMath-Regular-73" x="273.999954"/>
     </g>
    </g>
   </g>
   <g id="text_7">
    <!-- Comparison of two hist with difference plot -->
    <g style="fill: #1a1a1a" transform="translate(68.38625 15.66) scale(0.12 -0.12)">
     <defs>
      <path id="LatinModernMath-Regular-43" d="M 4256 1491 
C 4256 1555 4256 1600 4173 1600 
C 4102 1600 4102 1562 4096 1498 
C 4045 582 3360 58 2662 58 
C 2272 58 1018 275 1018 2182 
C 1018 4096 2266 4314 2656 4314 
C 3354 4314 3923 3731 4051 2797 
C 4064 2707 4064 2688 4154 2688 
C 4256 2688 4256 2707 4256 2842 
L 4256 4358 
C 4256 4467 4256 4512 4186 4512 
C 4160 4512 4134 4512 4083 4435 
L 3763 3962 
C 3526 4192 3200 4512 2586 4512 
C 1389 4512 358 3494 358 2189 
C 358 864 1395 -141 2586 -141 
C 3629 -141 4256 749 4256 1491 
z
" transform="scale(0.015625)"/>
      <path id="LatinModernMath-Regular-6f" d="M 3014 1370 
C 3014 2189 2374 2867 1600 2867 
C 800 2867 179 2170 179 1370 
C 179 544 845 -70 1594 -70 
C 2368 -70 3014 557 3014 1370 
z
M 2483 1421 
C 2483 1190 2483 845 2342 563 
C 2202 275 1920 90 1600 90 
C 1325 90 1043 224 870 518 
C 710 800 710 1190 710 1421 
C 710 1670 710 2016 864 2298 
C 1037 2592 1338 2726 1594 2726 
C 1875 2726 2150 2586 2317 2310 
C 2483 2035 2483 1664 2483 1421 
z
" transform="scale(0.015625)"/>
      <path id="LatinModernMath-Regular-6d" d="M 5203 0 
L 5203 198 
C 4870 198 4710 198 4704 390 
L 4704 1613 
C 4704 2163 4704 2362 4506 2592 
C 4416 2701 4205 2829 3834 2829 
C 3296 2829 3014 2445 2906 2202 
C 2816 2758 2342 2829 2054 2829 
C 1587 2829 1286 2554 1107 2157 
L 1107 2829 
L 205 2758 
L 205 2560 
C 653 2560 704 2515 704 2202 
L 704 486 
C 704 198 634 198 205 198 
L 205 0 
L 928 19 
L 1645 0 
L 1645 198 
C 1216 198 1146 198 1146 486 
L 1146 1664 
C 1146 2330 1600 2688 2010 2688 
C 2413 2688 2483 2342 2483 1978 
L 2483 486 
C 2483 198 2413 198 1984 198 
L 1984 0 
L 2707 19 
L 3424 0 
L 3424 198 
C 2995 198 2925 198 2925 486 
L 2925 1664 
C 2925 2330 3379 2688 3789 2688 
C 4192 2688 4262 2342 4262 1978 
L 4262 486 
C 4262 198 4192 198 3763 198 
L 3763 0 
L 4486 19 
L 5203 0 
z
" transform="scale(0.015625)"/>
      <path id="LatinModernMath-Regular-70" d="M 3334 1382 
C 3334 2195 2714 2829 1997 2829 
C 1498 2829 1229 2547 1101 2406 
L 1101 2829 
L 179 2758 
L 179 2560 
C 634 2560 678 2522 678 2240 
L 678 -755 
C 678 -1043 608 -1043 179 -1043 
L 179 -1242 
L 896 -1222 
L 1619 -1242 
L 1619 -1043 
C 1190 -1043 1120 -1043 1120 -755 
L 1120 320 
L 1120 378 
C 1152 275 1421 -70 1907 -70 
C 2669 -70 3334 557 3334 1382 
z
M 2803 1382 
C 2803 608 2355 70 1882 70 
C 1626 70 1382 198 1210 461 
C 1120 595 1120 602 1120 730 
L 1120 2157 
C 1306 2483 1619 2669 1946 2669 
C 2413 2669 2803 2106 2803 1382 
z
" transform="scale(0.015625)"/>
      <path id="LatinModernMath-Regular-61" d="M 3091 570 
L 3091 928 
L 2931 928 
L 2931 570 
C 2931 198 2771 160 2701 160 
C 2490 160 2464 448 2464 480 
L 2464 1760 
C 2464 2029 2464 2278 2234 2515 
C 1984 2765 1664 2867 1357 2867 
C 832 2867 390 2566 390 2144 
C 390 1952 518 1843 685 1843 
C 864 1843 979 1971 979 2138 
C 979 2214 947 2426 653 2432 
C 826 2656 1139 2726 1344 2726 
C 1658 2726 2022 2477 2022 1907 
L 2022 1670 
C 1696 1651 1248 1632 845 1440 
C 365 1222 205 890 205 608 
C 205 90 826 -70 1229 -70 
C 1651 -70 1946 186 2067 486 
C 2093 230 2266 -38 2566 -38 
C 2701 -38 3091 51 3091 570 
z
M 2022 896 
C 2022 288 1562 70 1274 70 
C 960 70 698 294 698 614 
C 698 966 966 1498 2022 1536 
L 2022 896 
z
" transform="scale(0.015625)"/>
      <path id="LatinModernMath-Regular-20" transform="scale(0.015625)"/>
      <path id="LatinModernMath-Regular-66" d="M 2285 4064 
C 2285 4301 2048 4512 1709 4512 
C 1261 4512 717 4173 717 3494 
L 717 2758 
L 211 2758 
L 211 2560 
L 717 2560 
L 717 486 
C 717 198 646 198 218 198 
L 218 0 
L 947 19 
C 1203 19 1504 19 1760 0 
L 1760 198 
L 1626 198 
C 1152 198 1139 269 1139 499 
L 1139 2560 
L 1869 2560 
L 1869 2758 
L 1120 2758 
L 1120 3501 
C 1120 4064 1427 4371 1709 4371 
C 1728 4371 1824 4371 1920 4326 
C 1843 4301 1728 4218 1728 4058 
C 1728 3910 1830 3782 2003 3782 
C 2189 3782 2285 3910 2285 4064 
z
" transform="scale(0.015625)"/>
      <path id="LatinModernMath-Regular-77" d="M 4499 2560 
L 4499 2758 
C 4358 2746 4173 2739 4032 2739 
L 3437 2758 
L 3437 2560 
C 3667 2554 3808 2438 3808 2253 
C 3808 2214 3808 2202 3776 2118 
L 3194 480 
L 2560 2266 
C 2534 2342 2528 2355 2528 2387 
C 2528 2560 2778 2560 2906 2560 
L 2906 2758 
L 2240 2739 
C 2048 2739 1862 2746 1670 2758 
L 1670 2560 
C 1907 2560 2010 2547 2074 2464 
C 2106 2426 2176 2234 2221 2112 
L 1670 563 
L 1062 2272 
C 1030 2349 1030 2362 1030 2387 
C 1030 2560 1280 2560 1408 2560 
L 1408 2758 
L 710 2739 
L 115 2758 
L 115 2560 
C 435 2560 512 2541 589 2336 
L 1395 70 
C 1427 -19 1446 -70 1530 -70 
C 1613 -70 1626 -32 1658 58 
L 2304 1869 
L 2957 51 
C 2982 -19 3002 -70 3085 -70 
C 3168 -70 3187 -13 3213 51 
L 3962 2150 
C 4077 2470 4275 2554 4499 2560 
z
" transform="scale(0.015625)"/>
      <path id="LatinModernMath-Regular-68" d="M 3424 0 
L 3424 198 
C 3091 198 2931 198 2925 390 
L 2925 1613 
C 2925 2163 2925 2362 2726 2592 
C 2637 2701 2426 2829 2054 2829 
C 1517 2829 1235 2445 1133 2214 
L 1126 2214 
L 1126 4442 
L 205 4371 
L 205 4173 
C 653 4173 704 4128 704 3814 
L 704 486 
C 704 198 634 198 205 198 
L 205 0 
L 928 19 
L 1645 0 
L 1645 198 
C 1216 198 1146 198 1146 486 
L 1146 1664 
C 1146 2330 1600 2688 2010 2688 
C 2413 2688 2483 2342 2483 1978 
L 2483 486 
C 2483 198 2413 198 1984 198 
L 1984 0 
L 2707 19 
L 3424 0 
z
" transform="scale(0.015625)"/>
      <path id="LatinModernMath-Regular-64" d="M 3373 0 
L 3373 198 
C 2925 198 2874 243 2874 557 
L 2874 4442 
L 1952 4371 
L 1952 4173 
C 2400 4173 2451 4128 2451 3814 
L 2451 2432 
C 2266 2662 1990 2829 1645 2829 
C 890 2829 218 2202 218 1376 
C 218 563 845 -70 1574 -70 
C 1984 -70 2272 147 2432 352 
L 2432 -70 
L 3373 0 
z
M 2432 755 
C 2432 640 2432 627 2362 518 
C 2170 211 1882 70 1606 70 
C 1318 70 1088 237 934 480 
C 768 742 749 1107 749 1370 
C 749 1606 762 1990 947 2278 
C 1082 2477 1325 2688 1670 2688 
C 1894 2688 2163 2592 2362 2304 
C 2432 2195 2432 2182 2432 2067 
L 2432 755 
z
" transform="scale(0.015625)"/>
      <path id="LatinModernMath-Regular-63" d="M 2656 762 
C 2656 826 2592 826 2573 826 
C 2515 826 2502 800 2490 762 
C 2304 166 1888 90 1651 90 
C 1312 90 749 365 749 1395 
C 749 2438 1274 2707 1613 2707 
C 1670 2707 2074 2701 2298 2470 
C 2035 2451 1997 2259 1997 2176 
C 1997 2010 2112 1882 2291 1882 
C 2458 1882 2586 1990 2586 2182 
C 2586 2618 2099 2867 1606 2867 
C 806 2867 218 2176 218 1382 
C 218 563 851 -70 1594 -70 
C 2451 -70 2656 698 2656 762 
z
" transform="scale(0.015625)"/>
      <path id="LatinModernMath-Regular-6c" d="M 1632 0 
L 1632 198 
C 1203 198 1133 198 1133 486 
L 1133 4442 
L 211 4371 
L 211 4173 
C 659 4173 710 4128 710 3814 
L 710 486 
C 710 198 640 198 211 198 
L 211 0 
L 922 19 
L 1632 0 
z
" transform="scale(0.015625)"/>
     </defs>
     <use xlink:href="#LatinModernMath-Regular-43"/>
     <use xlink:href="#LatinModernMath-Regular-6f" x="72.199982"/>
     <use xlink:href="#LatinModernMath-Regular-6d" x="122.199966"/>
     <use xlink:href="#LatinModernMath-Regular-70" x="205.499954"/>
     <use xlink:href="#LatinModernMath-Regular-61" x="261.099945"/>
     <use xlink:href="#LatinModernMath-Regular-72" x="311.09993"/>
     <use xlink:href="#LatinModernMath-Regular-69" x="350.299927"/>
     <use xlink:href="#LatinModernMath-Regular-73" x="378.099915"/>
     <use xlink:href="#LatinModernMath-Regular-6f" x="417.499908"/>
     <use xlink:href="#LatinModernMath-Regular-6e" x="467.499893"/>
     <use xlink:href="#LatinModernMath-Regular-20" x="523.099884"/>
     <use xlink:href="#LatinModernMath-Regular-6f" x="556.299881"/>
     <use xlink:href="#LatinModernMath-Regular-66" x="606.299866"/>
     <use xlink:href="#LatinModernMath-Regular-20" x="636.899857"/>
     <use xlink:href="#LatinModernMath-Regular-74" x="670.099854"/>
     <use xlink:href="#LatinModernMath-Regular-77" x="708.999847"/>
     <use xlink:href="#LatinModernMath-Regular-6f" x="781.199829"/>
     <use xlink:href="#LatinModernMath-Regular-20" x="831.199814"/>
     <use xlink:href="#LatinModernMath-Regular-68" x="864.399811"/>
     <use xlink:href="#LatinModernMath-Regular-69" x="919.999802"/>
     <use xlink:href="#LatinModernMath-Regular-73" x="947.799789"/>
     <use xlink:href="#LatinModernMath-Regular-74" x="987.199783"/>
     <use xlink:href="#LatinModernMath-Regular-20" x="1026.099777"/>
     <use xlink:href="#LatinModernMath-Regular-77" x="1059.299774"/>
     <use xlink:href="#LatinModernMath-Regular-69" x="1131.499756"/>
     <use xlink:href="#LatinModernMath-Regular-74" x="1159.299744"/>
     <use xlink:href="#LatinModernMath-Regular-68" x="1198.199738"/>
     <use xlink:href="#LatinModernMath-Regular-20" x="1253.799728"/>
     <use xlink:href="#LatinModernMath-Regular-64" x="1286.999725"/>
     <use xlink:href="#LatinModernMath-Regular-69" x="1342.599716"/>
     <use xlink:href="#LatinModernMath-Regular-66" x="1370.399704"/>
     <use xlink:href="#LatinModernMath-Regular-66" x="1400.999695"/>
     <use xlink:href="#LatinModernMath-Regular-65" x="1431.599686"/>
     <use xlink:href="#LatinModernMath-Regular-72" x="1475.99968"/>
     <use xlink:href="#LatinModernMath-Regular-65" x="1515.199677"/>
     <use xlink:href="#LatinModernMath-Regular-6e" x="1559.59967"/>
     <use xlink:href="#LatinModernMath-Regular-63" x="1615.199661"/>
     <use xlink:href="#LatinModernMath-Regular-65" x="1659.599655"/>
     <use xlink:href="#LatinModernMath-Regular-20" x="1703.999649"/>
     <use xlink:href="#LatinModernMath-Regular-70" x="1737.199646"/>
     <use xlink:href="#LatinModernMath-Regular-6c" x="1792.799637"/>
     <use xlink:href="#LatinModernMath-Regular-6f" x="1820.599625"/>
     <use xlink:href="#LatinModernMath-Regular-74" x="1870.599609"/>
    </g>
   </g>
   <g id="legend_1">
    <g id="patch_9">
     <path d="M 347.86625 39.251634 
L 371.86625 39.251634 
L 371.86625 30.851634 
L 347.86625 30.851634 
L 347.86625 39.251634 
z
" style="fill: none; stroke: #348abd; stroke-linejoin: miter"/>
    </g>
    <g id="text_8">
     <!-- $\mathcal{C}_{2}$ -->
     <g style="fill: #1a1a1a" transform="translate(381.46625 39.251634) scale(0.12 -0.12)">
      <defs>
       <path id="Cmsy10-43" d="M 1259 -153 
Q 956 -153 732 -36 
Q 509 81 361 292 
Q 213 503 145 756 
Q 78 1009 78 1300 
Q 78 1872 289 2455 
Q 500 3038 881 3502 
Q 1263 3966 1786 4239 
Q 2309 4513 2913 4513 
L 2950 4513 
Q 3159 4513 3289 4406 
Q 3419 4300 3419 4097 
Q 3419 3919 3316 3678 
Q 3213 3438 3066 3175 
Q 2997 3059 2858 2975 
Q 2719 2891 2572 2875 
L 2541 2875 
Q 2497 2897 2497 2919 
Q 2497 2947 2598 3147 
Q 2700 3347 2773 3523 
Q 2847 3700 2847 3828 
Q 2847 3984 2748 4059 
Q 2650 4134 2484 4134 
Q 2013 4134 1692 3909 
Q 1372 3684 1113 3244 
Q 897 2872 772 2439 
Q 647 2006 647 1575 
Q 647 1222 759 911 
Q 872 600 1115 412 
Q 1359 225 1728 225 
Q 2116 225 2419 513 
Q 2459 556 2586 723 
Q 2713 891 2822 969 
Q 2931 1047 3103 1063 
L 3138 1063 
Q 3181 1041 3181 1013 
Q 3181 988 3163 959 
Q 2981 659 2675 403 
Q 2369 147 2003 -3 
Q 1638 -153 1300 -153 
L 1259 -153 
z
" transform="scale(0.015625)"/>
      </defs>
      <use xlink:href="#Cmsy10-43" transform="translate(0 0.484375)"/>
      <use xlink:href="#LatinModernMath-Regular-32" transform="translate(53.342031 -12.44375) scale(0.7)"/>
     </g>
    </g>
    <g id="patch_10">
     <path d="M 347.86625 55.980384 
L 371.86625 55.980384 
L 371.86625 47.580384 
L 347.86625 47.580384 
L 347.86625 55.980384 
z
" style="fill: none; stroke: #e24a33; stroke-linejoin: miter"/>
    </g>
    <g id="text_9">
     <!-- $\mathcal{C}_{3}$ -->
     <g style="fill: #1a1a1a" transform="translate(381.46625 55.980384) scale(0.12 -0.12)">
      <defs>
       <path id="LatinModernMath-Regular-33" d="M 2925 1094 
C 2925 1619 2522 2118 1856 2253 
C 2381 2426 2752 2874 2752 3379 
C 2752 3904 2189 4262 1574 4262 
C 928 4262 442 3878 442 3392 
C 442 3181 582 3059 768 3059 
C 966 3059 1094 3200 1094 3386 
C 1094 3706 794 3706 698 3706 
C 896 4019 1318 4102 1549 4102 
C 1811 4102 2163 3962 2163 3386 
C 2163 3309 2150 2938 1984 2656 
C 1792 2349 1574 2330 1414 2323 
C 1363 2317 1210 2304 1165 2304 
C 1114 2298 1069 2291 1069 2227 
C 1069 2157 1114 2157 1222 2157 
L 1504 2157 
C 2029 2157 2266 1722 2266 1094 
C 2266 224 1824 38 1542 38 
C 1267 38 787 147 563 525 
C 787 493 986 634 986 877 
C 986 1107 813 1235 627 1235 
C 474 1235 269 1146 269 864 
C 269 282 864 -141 1562 -141 
C 2342 -141 2925 442 2925 1094 
z
" transform="scale(0.015625)"/>
      </defs>
      <use xlink:href="#Cmsy10-43" transform="translate(0 0.484375)"/>
      <use xlink:href="#LatinModernMath-Regular-33" transform="translate(53.342031 -12.44375) scale(0.7)"/>
     </g>
    </g>
   </g>
  </g>
  <g id="axes_2">
   <g id="patch_11">
    <path d="M 68.38625 297.251634 
L 403.18625 297.251634 
L 403.18625 245.679541 
L 68.38625 245.679541 
z
" style="fill: #ffffff"/>
   </g>
   <g id="LineCollection_1">
    <path d="M 71.73425 272.722079 
L 71.73425 272.722079 
" clip-path="url(#pd1a3aa7504)" style="fill: none; stroke: #000000; stroke-width: 1.5"/>
    <path d="M 78.43025 272.722079 
L 78.43025 272.722079 
" clip-path="url(#pd1a3aa7504)" style="fill: none; stroke: #000000; stroke-width: 1.5"/>
    <path d="M 85.12625 272.722079 
L 85.12625 272.722079 
" clip-path="url(#pd1a3aa7504)" style="fill: none; stroke: #000000; stroke-width: 1.5"/>
    <path d="M 91.82225 272.866116 
L 91.82225 272.722079 
" clip-path="url(#pd1a3aa7504)" style="fill: none; stroke: #000000; stroke-width: 1.5"/>
    <path d="M 98.51825 272.866116 
L 98.51825 272.722079 
" clip-path="url(#pd1a3aa7504)" style="fill: none; stroke: #000000; stroke-width: 1.5"/>
    <path d="M 105.21425 272.918837 
L 105.21425 272.669359 
" clip-path="url(#pd1a3aa7504)" style="fill: none; stroke: #000000; stroke-width: 1.5"/>
    <path d="M 111.91025 272.971558 
L 111.91025 272.472601 
" clip-path="url(#pd1a3aa7504)" style="fill: none; stroke: #000000; stroke-width: 1.5"/>
    <path d="M 118.60625 273.279619 
L 118.60625 272.740685 
" clip-path="url(#pd1a3aa7504)" style="fill: none; stroke: #000000; stroke-width: 1.5"/>
    <path d="M 125.30225 273.404611 
L 125.30225 272.615692 
" clip-path="url(#pd1a3aa7504)" style="fill: none; stroke: #000000; stroke-width: 1.5"/>
    <path d="M 131.99825 273.365072 
L 131.99825 272.36716 
" clip-path="url(#pd1a3aa7504)" style="fill: none; stroke: #000000; stroke-width: 1.5"/>
    <path d="M 138.69425 274.405923 
L 138.69425 273.054743 
" clip-path="url(#pd1a3aa7504)" style="fill: none; stroke: #000000; stroke-width: 1.5"/>
    <path d="M 145.39025 270.907673 
L 145.39025 269.063109 
" clip-path="url(#pd1a3aa7504)" style="fill: none; stroke: #000000; stroke-width: 1.5"/>
    <path d="M 152.08625 270.064587 
L 152.08625 267.889688 
" clip-path="url(#pd1a3aa7504)" style="fill: none; stroke: #000000; stroke-width: 1.5"/>
    <path d="M 158.78225 267.216289 
L 158.78225 264.688464 
" clip-path="url(#pd1a3aa7504)" style="fill: none; stroke: #000000; stroke-width: 1.5"/>
    <path d="M 165.47825 264.621358 
L 165.47825 261.665982 
" clip-path="url(#pd1a3aa7504)" style="fill: none; stroke: #000000; stroke-width: 1.5"/>
    <path d="M 172.17425 262.691945 
L 172.17425 259.274308 
" clip-path="url(#pd1a3aa7504)" style="fill: none; stroke: #000000; stroke-width: 1.5"/>
    <path d="M 178.87025 252.307319 
L 178.87025 248.485606 
" clip-path="url(#pd1a3aa7504)" style="fill: none; stroke: #000000; stroke-width: 1.5"/>
    <path d="M 185.56625 252.049018 
L 185.56625 248.023727 
" clip-path="url(#pd1a3aa7504)" style="fill: none; stroke: #000000; stroke-width: 1.5"/>
    <path d="M 192.26225 252.357602 
L 192.26225 248.291288 
" clip-path="url(#pd1a3aa7504)" style="fill: none; stroke: #000000; stroke-width: 1.5"/>
    <path d="M 198.95825 253.128179 
L 198.95825 248.961073 
" clip-path="url(#pd1a3aa7504)" style="fill: none; stroke: #000000; stroke-width: 1.5"/>
    <path d="M 205.65425 259.779291 
L 205.65425 255.705331 
" clip-path="url(#pd1a3aa7504)" style="fill: none; stroke: #000000; stroke-width: 1.5"/>
    <path d="M 212.35025 261.27492 
L 212.35025 257.090426 
" clip-path="url(#pd1a3aa7504)" style="fill: none; stroke: #000000; stroke-width: 1.5"/>
    <path d="M 219.04625 270.73761 
L 219.04625 266.496483 
" clip-path="url(#pd1a3aa7504)" style="fill: none; stroke: #000000; stroke-width: 1.5"/>
    <path d="M 225.74225 275.696784 
L 225.74225 271.187737 
" clip-path="url(#pd1a3aa7504)" style="fill: none; stroke: #000000; stroke-width: 1.5"/>
    <path d="M 232.43825 280.110299 
L 232.43825 275.416397 
" clip-path="url(#pd1a3aa7504)" style="fill: none; stroke: #000000; stroke-width: 1.5"/>
    <path d="M 239.13425 288.07323 
L 239.13425 283.009379 
" clip-path="url(#pd1a3aa7504)" style="fill: none; stroke: #000000; stroke-width: 1.5"/>
    <path d="M 245.83025 294.197069 
L 245.83025 288.840548 
" clip-path="url(#pd1a3aa7504)" style="fill: none; stroke: #000000; stroke-width: 1.5"/>
    <path d="M 252.52625 294.907448 
L 252.52625 289.426495 
" clip-path="url(#pd1a3aa7504)" style="fill: none; stroke: #000000; stroke-width: 1.5"/>
    <path d="M 259.22225 291.208853 
L 259.22225 285.779241 
" clip-path="url(#pd1a3aa7504)" style="fill: none; stroke: #000000; stroke-width: 1.5"/>
    <path d="M 265.91825 294.414092 
L 265.91825 289.055634 
" clip-path="url(#pd1a3aa7504)" style="fill: none; stroke: #000000; stroke-width: 1.5"/>
    <path d="M 272.61425 292.528062 
L 272.61425 287.340757 
" clip-path="url(#pd1a3aa7504)" style="fill: none; stroke: #000000; stroke-width: 1.5"/>
    <path d="M 279.31025 293.433461 
L 279.31025 288.595902 
" clip-path="url(#pd1a3aa7504)" style="fill: none; stroke: #000000; stroke-width: 1.5"/>
    <path d="M 286.00625 287.073995 
L 286.00625 282.712288 
" clip-path="url(#pd1a3aa7504)" style="fill: none; stroke: #000000; stroke-width: 1.5"/>
    <path d="M 292.70225 281.191723 
L 292.70225 277.215697 
" clip-path="url(#pd1a3aa7504)" style="fill: none; stroke: #000000; stroke-width: 1.5"/>
    <path d="M 299.39825 279.660682 
L 299.39825 276.298122 
" clip-path="url(#pd1a3aa7504)" style="fill: none; stroke: #000000; stroke-width: 1.5"/>
    <path d="M 306.09425 277.530997 
L 306.09425 274.682865 
" clip-path="url(#pd1a3aa7504)" style="fill: none; stroke: #000000; stroke-width: 1.5"/>
    <path d="M 312.79025 276.623702 
L 312.79025 274.149798 
" clip-path="url(#pd1a3aa7504)" style="fill: none; stroke: #000000; stroke-width: 1.5"/>
    <path d="M 319.48625 273.768341 
L 319.48625 271.819855 
" clip-path="url(#pd1a3aa7504)" style="fill: none; stroke: #000000; stroke-width: 1.5"/>
    <path d="M 326.18225 273.340211 
L 326.18225 271.815875 
" clip-path="url(#pd1a3aa7504)" style="fill: none; stroke: #000000; stroke-width: 1.5"/>
    <path d="M 332.87825 272.569991 
L 332.87825 271.289769 
" clip-path="url(#pd1a3aa7504)" style="fill: none; stroke: #000000; stroke-width: 1.5"/>
    <path d="M 339.57425 272.82313 
L 339.57425 271.900848 
" clip-path="url(#pd1a3aa7504)" style="fill: none; stroke: #000000; stroke-width: 1.5"/>
    <path d="M 346.27025 272.900118 
L 346.27025 272.255968 
" clip-path="url(#pd1a3aa7504)" style="fill: none; stroke: #000000; stroke-width: 1.5"/>
    <path d="M 352.96625 272.578043 
L 352.96625 272.001898 
" clip-path="url(#pd1a3aa7504)" style="fill: none; stroke: #000000; stroke-width: 1.5"/>
    <path d="M 359.66225 272.630764 
L 359.66225 272.381286 
" clip-path="url(#pd1a3aa7504)" style="fill: none; stroke: #000000; stroke-width: 1.5"/>
    <path d="M 366.35825 272.898487 
L 366.35825 272.545672 
" clip-path="url(#pd1a3aa7504)" style="fill: none; stroke: #000000; stroke-width: 1.5"/>
    <path d="M 373.05425 272.823928 
L 373.05425 272.62023 
" clip-path="url(#pd1a3aa7504)" style="fill: none; stroke: #000000; stroke-width: 1.5"/>
    <path d="M 379.75025 272.722079 
L 379.75025 272.722079 
" clip-path="url(#pd1a3aa7504)" style="fill: none; stroke: #000000; stroke-width: 1.5"/>
    <path d="M 386.44625 272.722079 
L 386.44625 272.722079 
" clip-path="url(#pd1a3aa7504)" style="fill: none; stroke: #000000; stroke-width: 1.5"/>
    <path d="M 393.14225 272.722079 
L 393.14225 272.722079 
" clip-path="url(#pd1a3aa7504)" style="fill: none; stroke: #000000; stroke-width: 1.5"/>
    <path d="M 399.83825 272.722079 
L 399.83825 272.578043 
" clip-path="url(#pd1a3aa7504)" style="fill: none; stroke: #000000; stroke-width: 1.5"/>
   </g>
   <g id="line2d_40">
    <path d="M 68.38625 272.722079 
L 403.18625 272.722079 
" clip-path="url(#pd1a3aa7504)" style="fill: none; stroke-dasharray: 3.7,1.6; stroke-dashoffset: 0; stroke: #000000"/>
   </g>
   <g id="line2d_41">
    <defs>
     <path id="meae5c0c399" d="M 0 1.5 
C 0.397805 1.5 0.77937 1.341951 1.06066 1.06066 
C 1.341951 0.77937 1.5 0.397805 1.5 0 
C 1.5 -0.397805 1.341951 -0.77937 1.06066 -1.06066 
C 0.77937 -1.341951 0.397805 -1.5 0 -1.5 
C -0.397805 -1.5 -0.77937 -1.341951 -1.06066 -1.06066 
C -1.341951 -0.77937 -1.5 -0.397805 -1.5 0 
C -1.5 0.397805 -1.341951 0.77937 -1.06066 1.06066 
C -0.77937 1.341951 -0.397805 1.5 0 1.5 
z
" style="stroke: #000000"/>
    </defs>
    <g clip-path="url(#pd1a3aa7504)">
     <use xlink:href="#meae5c0c399" x="71.73425" y="272.722079" style="stroke: #000000"/>
     <use xlink:href="#meae5c0c399" x="78.43025" y="272.722079" style="stroke: #000000"/>
     <use xlink:href="#meae5c0c399" x="85.12625" y="272.722079" style="stroke: #000000"/>
     <use xlink:href="#meae5c0c399" x="91.82225" y="272.794098" style="stroke: #000000"/>
     <use xlink:href="#meae5c0c399" x="98.51825" y="272.794098" style="stroke: #000000"/>
     <use xlink:href="#meae5c0c399" x="105.21425" y="272.794098" style="stroke: #000000"/>
     <use xlink:href="#meae5c0c399" x="111.91025" y="272.722079" style="stroke: #000000"/>
     <use xlink:href="#meae5c0c399" x="118.60625" y="273.010152" style="stroke: #000000"/>
     <use xlink:href="#meae5c0c399" x="125.30225" y="273.010152" style="stroke: #000000"/>
     <use xlink:href="#meae5c0c399" x="131.99825" y="272.866116" style="stroke: #000000"/>
     <use xlink:href="#meae5c0c399" x="138.69425" y="273.730333" style="stroke: #000000"/>
     <use xlink:href="#meae5c0c399" x="145.39025" y="269.985391" style="stroke: #000000"/>
     <use xlink:href="#meae5c0c399" x="152.08625" y="268.977137" style="stroke: #000000"/>
     <use xlink:href="#meae5c0c399" x="158.78225" y="265.952376" style="stroke: #000000"/>
     <use xlink:href="#meae5c0c399" x="165.47825" y="263.14367" style="stroke: #000000"/>
     <use xlink:href="#meae5c0c399" x="172.17425" y="260.983126" style="stroke: #000000"/>
     <use xlink:href="#meae5c0c399" x="178.87025" y="250.396463" style="stroke: #000000"/>
     <use xlink:href="#meae5c0c399" x="185.56625" y="250.036372" style="stroke: #000000"/>
     <use xlink:href="#meae5c0c399" x="192.26225" y="250.324445" style="stroke: #000000"/>
     <use xlink:href="#meae5c0c399" x="198.95825" y="251.044626" style="stroke: #000000"/>
     <use xlink:href="#meae5c0c399" x="205.65425" y="257.742311" style="stroke: #000000"/>
     <use xlink:href="#meae5c0c399" x="212.35025" y="259.182673" style="stroke: #000000"/>
     <use xlink:href="#meae5c0c399" x="219.04625" y="268.617047" style="stroke: #000000"/>
     <use xlink:href="#meae5c0c399" x="225.74225" y="273.442261" style="stroke: #000000"/>
     <use xlink:href="#meae5c0c399" x="232.43825" y="277.763348" style="stroke: #000000"/>
     <use xlink:href="#meae5c0c399" x="239.13425" y="285.541305" style="stroke: #000000"/>
     <use xlink:href="#meae5c0c399" x="245.83025" y="291.518808" style="stroke: #000000"/>
     <use xlink:href="#meae5c0c399" x="252.52625" y="292.166971" style="stroke: #000000"/>
     <use xlink:href="#meae5c0c399" x="259.22225" y="288.494047" style="stroke: #000000"/>
     <use xlink:href="#meae5c0c399" x="265.91825" y="291.734863" style="stroke: #000000"/>
     <use xlink:href="#meae5c0c399" x="272.61425" y="289.93441" style="stroke: #000000"/>
     <use xlink:href="#meae5c0c399" x="279.31025" y="291.014681" style="stroke: #000000"/>
     <use xlink:href="#meae5c0c399" x="286.00625" y="284.893141" style="stroke: #000000"/>
     <use xlink:href="#meae5c0c399" x="292.70225" y="279.20371" style="stroke: #000000"/>
     <use xlink:href="#meae5c0c399" x="299.39825" y="277.979402" style="stroke: #000000"/>
     <use xlink:href="#meae5c0c399" x="306.09425" y="276.106931" style="stroke: #000000"/>
     <use xlink:href="#meae5c0c399" x="312.79025" y="275.38675" style="stroke: #000000"/>
     <use xlink:href="#meae5c0c399" x="319.48625" y="272.794098" style="stroke: #000000"/>
     <use xlink:href="#meae5c0c399" x="326.18225" y="272.578043" style="stroke: #000000"/>
     <use xlink:href="#meae5c0c399" x="332.87825" y="271.92988" style="stroke: #000000"/>
     <use xlink:href="#meae5c0c399" x="339.57425" y="272.361989" style="stroke: #000000"/>
     <use xlink:href="#meae5c0c399" x="346.27025" y="272.578043" style="stroke: #000000"/>
     <use xlink:href="#meae5c0c399" x="352.96625" y="272.289971" style="stroke: #000000"/>
     <use xlink:href="#meae5c0c399" x="359.66225" y="272.506025" style="stroke: #000000"/>
     <use xlink:href="#meae5c0c399" x="366.35825" y="272.722079" style="stroke: #000000"/>
     <use xlink:href="#meae5c0c399" x="373.05425" y="272.722079" style="stroke: #000000"/>
     <use xlink:href="#meae5c0c399" x="379.75025" y="272.722079" style="stroke: #000000"/>
     <use xlink:href="#meae5c0c399" x="386.44625" y="272.722079" style="stroke: #000000"/>
     <use xlink:href="#meae5c0c399" x="393.14225" y="272.722079" style="stroke: #000000"/>
     <use xlink:href="#meae5c0c399" x="399.83825" y="272.650061" style="stroke: #000000"/>
    </g>
   </g>
   <g id="patch_12">
    <path d="M 68.38625 297.251634 
L 68.38625 245.679541 
" style="fill: none; stroke: #000000; stroke-linejoin: miter; stroke-linecap: square"/>
   </g>
   <g id="patch_13">
    <path d="M 403.18625 297.251634 
L 403.18625 245.679541 
" style="fill: none; stroke: #000000; stroke-linejoin: miter; stroke-linecap: square"/>
   </g>
   <g id="patch_14">
    <path d="M 68.38625 297.251634 
L 403.18625 297.251634 
" style="fill: none; stroke: #000000; stroke-linejoin: miter; stroke-linecap: square"/>
   </g>
   <g id="patch_15">
    <path d="M 68.38625 245.679541 
L 403.18625 245.679541 
" style="fill: none; stroke: #000000; stroke-linejoin: miter; stroke-linecap: square"/>
   </g>
   <g id="matplotlib.axis_3">
    <g id="xtick_21">
     <g id="line2d_42">
      <g>
       <use xlink:href="#m8dec1b3d1d" x="139.198285" y="297.251634" style="fill: #1a1a1a; stroke: #1a1a1a; stroke-width: 0.8"/>
      </g>
     </g>
     <g id="text_10">
      <!-- $\mathdefault{−5}$ -->
      <g style="fill: #1a1a1a" transform="translate(129.598285 315.662571) scale(0.15 -0.15)">
       <defs>
        <path id="LatinModernMath-Regular-2212" d="M 4621 1600 
C 4621 1670 4563 1728 4493 1728 
L 486 1728 
C 416 1728 358 1670 358 1600 
C 358 1530 416 1472 486 1472 
L 4493 1472 
C 4563 1472 4621 1530 4621 1600 
z
" transform="scale(0.015625)"/>
        <path id="LatinModernMath-Regular-35" d="M 2874 1286 
C 2874 2048 2349 2688 1658 2688 
C 1350 2688 1075 2586 845 2362 
L 845 3610 
C 973 3571 1184 3526 1389 3526 
C 2176 3526 2624 4109 2624 4192 
C 2624 4230 2605 4262 2560 4262 
C 2560 4262 2541 4262 2509 4243 
C 2381 4186 2067 4058 1638 4058 
C 1382 4058 1088 4102 787 4237 
C 736 4256 710 4256 710 4256 
C 646 4256 646 4205 646 4102 
L 646 2208 
C 646 2093 646 2042 736 2042 
C 781 2042 794 2061 819 2099 
C 890 2202 1126 2547 1645 2547 
C 1978 2547 2138 2253 2189 2138 
C 2291 1901 2304 1651 2304 1331 
C 2304 1107 2304 723 2150 454 
C 1997 205 1760 38 1466 38 
C 998 38 634 378 525 755 
C 544 749 563 742 634 742 
C 845 742 954 902 954 1056 
C 954 1210 845 1370 634 1370 
C 544 1370 320 1325 320 1030 
C 320 480 762 -141 1478 -141 
C 2221 -141 2874 474 2874 1286 
z
" transform="scale(0.015625)"/>
       </defs>
       <use xlink:href="#LatinModernMath-Regular-2212" transform="translate(0 0.40625)"/>
       <use xlink:href="#LatinModernMath-Regular-35" transform="translate(77.799988 0.40625)"/>
      </g>
     </g>
    </g>
    <g id="xtick_22">
     <g id="line2d_43">
      <g>
       <use xlink:href="#m8dec1b3d1d" x="225.352429" y="297.251634" style="fill: #1a1a1a; stroke: #1a1a1a; stroke-width: 0.8"/>
      </g>
     </g>
     <g id="text_11">
      <!-- $\mathdefault{0}$ -->
      <g style="fill: #1a1a1a" transform="translate(221.602429 315.662571) scale(0.15 -0.15)">
       <use xlink:href="#LatinModernMath-Regular-30" transform="translate(0 0.40625)"/>
      </g>
     </g>
    </g>
    <g id="xtick_23">
     <g id="line2d_44">
      <g>
       <use xlink:href="#m8dec1b3d1d" x="311.506572" y="297.251634" style="fill: #1a1a1a; stroke: #1a1a1a; stroke-width: 0.8"/>
      </g>
     </g>
     <g id="text_12">
      <!-- $\mathdefault{5}$ -->
      <g style="fill: #1a1a1a" transform="translate(307.756572 315.662571) scale(0.15 -0.15)">
       <use xlink:href="#LatinModernMath-Regular-35" transform="translate(0 0.40625)"/>
      </g>
     </g>
    </g>
    <g id="xtick_24">
     <g id="line2d_45">
      <g>
       <use xlink:href="#m8dec1b3d1d" x="397.660716" y="297.251634" style="fill: #1a1a1a; stroke: #1a1a1a; stroke-width: 0.8"/>
      </g>
     </g>
     <g id="text_13">
      <!-- $\mathdefault{10}$ -->
      <g style="fill: #1a1a1a" transform="translate(390.160716 315.662571) scale(0.15 -0.15)">
       <defs>
        <path id="LatinModernMath-Regular-31" d="M 2682 0 
L 2682 198 
L 2477 198 
C 1901 198 1882 269 1882 506 
L 1882 4096 
C 1882 4250 1882 4262 1734 4262 
C 1338 3853 774 3853 570 3853 
L 570 3654 
C 698 3654 1075 3654 1408 3821 
L 1408 506 
C 1408 275 1389 198 813 198 
L 608 198 
L 608 0 
C 832 19 1389 19 1645 19 
C 1901 19 2458 19 2682 0 
z
" transform="scale(0.015625)"/>
       </defs>
       <use xlink:href="#LatinModernMath-Regular-31" transform="translate(0 0.40625)"/>
       <use xlink:href="#LatinModernMath-Regular-30" transform="translate(49.999985 0.40625)"/>
      </g>
     </g>
    </g>
    <g id="xtick_25">
     <g id="line2d_46">
      <g>
       <use xlink:href="#m131efc0c90" x="70.274971" y="297.251634" style="fill: #1a1a1a; stroke: #1a1a1a; stroke-width: 0.6"/>
      </g>
     </g>
    </g>
    <g id="xtick_26">
     <g id="line2d_47">
      <g>
       <use xlink:href="#m131efc0c90" x="87.505799" y="297.251634" style="fill: #1a1a1a; stroke: #1a1a1a; stroke-width: 0.6"/>
      </g>
     </g>
    </g>
    <g id="xtick_27">
     <g id="line2d_48">
      <g>
       <use xlink:href="#m131efc0c90" x="104.736628" y="297.251634" style="fill: #1a1a1a; stroke: #1a1a1a; stroke-width: 0.6"/>
      </g>
     </g>
    </g>
    <g id="xtick_28">
     <g id="line2d_49">
      <g>
       <use xlink:href="#m131efc0c90" x="121.967457" y="297.251634" style="fill: #1a1a1a; stroke: #1a1a1a; stroke-width: 0.6"/>
      </g>
     </g>
    </g>
    <g id="xtick_29">
     <g id="line2d_50">
      <g>
       <use xlink:href="#m131efc0c90" x="156.429114" y="297.251634" style="fill: #1a1a1a; stroke: #1a1a1a; stroke-width: 0.6"/>
      </g>
     </g>
    </g>
    <g id="xtick_30">
     <g id="line2d_51">
      <g>
       <use xlink:href="#m131efc0c90" x="173.659943" y="297.251634" style="fill: #1a1a1a; stroke: #1a1a1a; stroke-width: 0.6"/>
      </g>
     </g>
    </g>
    <g id="xtick_31">
     <g id="line2d_52">
      <g>
       <use xlink:href="#m131efc0c90" x="190.890771" y="297.251634" style="fill: #1a1a1a; stroke: #1a1a1a; stroke-width: 0.6"/>
      </g>
     </g>
    </g>
    <g id="xtick_32">
     <g id="line2d_53">
      <g>
       <use xlink:href="#m131efc0c90" x="208.1216" y="297.251634" style="fill: #1a1a1a; stroke: #1a1a1a; stroke-width: 0.6"/>
      </g>
     </g>
    </g>
    <g id="xtick_33">
     <g id="line2d_54">
      <g>
       <use xlink:href="#m131efc0c90" x="242.583257" y="297.251634" style="fill: #1a1a1a; stroke: #1a1a1a; stroke-width: 0.6"/>
      </g>
     </g>
    </g>
    <g id="xtick_34">
     <g id="line2d_55">
      <g>
       <use xlink:href="#m131efc0c90" x="259.814086" y="297.251634" style="fill: #1a1a1a; stroke: #1a1a1a; stroke-width: 0.6"/>
      </g>
     </g>
    </g>
    <g id="xtick_35">
     <g id="line2d_56">
      <g>
       <use xlink:href="#m131efc0c90" x="277.044915" y="297.251634" style="fill: #1a1a1a; stroke: #1a1a1a; stroke-width: 0.6"/>
      </g>
     </g>
    </g>
    <g id="xtick_36">
     <g id="line2d_57">
      <g>
       <use xlink:href="#m131efc0c90" x="294.275744" y="297.251634" style="fill: #1a1a1a; stroke: #1a1a1a; stroke-width: 0.6"/>
      </g>
     </g>
    </g>
    <g id="xtick_37">
     <g id="line2d_58">
      <g>
       <use xlink:href="#m131efc0c90" x="328.737401" y="297.251634" style="fill: #1a1a1a; stroke: #1a1a1a; stroke-width: 0.6"/>
      </g>
     </g>
    </g>
    <g id="xtick_38">
     <g id="line2d_59">
      <g>
       <use xlink:href="#m131efc0c90" x="345.96823" y="297.251634" style="fill: #1a1a1a; stroke: #1a1a1a; stroke-width: 0.6"/>
      </g>
     </g>
    </g>
    <g id="xtick_39">
     <g id="line2d_60">
      <g>
       <use xlink:href="#m131efc0c90" x="363.199058" y="297.251634" style="fill: #1a1a1a; stroke: #1a1a1a; stroke-width: 0.6"/>
      </g>
     </g>
    </g>
    <g id="xtick_40">
     <g id="line2d_61">
      <g>
       <use xlink:href="#m131efc0c90" x="380.429887" y="297.251634" style="fill: #1a1a1a; stroke: #1a1a1a; stroke-width: 0.6"/>
      </g>
     </g>
    </g>
    <g id="text_14">
     <!-- variable_1 -->
     <g style="fill: #1a1a1a" transform="translate(197.006094 337.066634) scale(0.18 -0.18)">
      <defs>
       <path id="LatinModernMath-Regular-76" d="M 3251 2560 
L 3251 2758 
C 3104 2746 2918 2739 2771 2739 
L 2214 2758 
L 2214 2560 
C 2451 2554 2522 2406 2522 2285 
C 2522 2227 2509 2202 2483 2131 
L 1830 499 
L 1114 2285 
C 1075 2368 1075 2394 1075 2394 
C 1075 2560 1325 2560 1440 2560 
L 1440 2758 
L 742 2739 
C 570 2739 314 2746 122 2758 
L 122 2560 
C 525 2560 550 2522 634 2323 
L 1555 51 
C 1594 -38 1606 -70 1690 -70 
C 1773 -70 1798 -13 1824 51 
L 2662 2131 
C 2720 2278 2829 2554 3251 2560 
z
" transform="scale(0.015625)"/>
       <path id="LatinModernMath-Regular-62" d="M 3334 1382 
C 3334 2195 2707 2829 1978 2829 
C 1478 2829 1203 2528 1101 2413 
L 1101 4442 
L 179 4371 
L 179 4173 
C 627 4173 678 4128 678 3814 
L 678 0 
L 838 0 
L 1069 397 
C 1165 250 1434 -70 1907 -70 
C 2669 -70 3334 557 3334 1382 
z
M 2803 1389 
C 2803 1152 2790 768 2605 480 
C 2470 282 2227 70 1882 70 
C 1594 70 1363 224 1210 461 
C 1120 595 1120 614 1120 730 
L 1120 2048 
C 1120 2170 1120 2176 1190 2278 
C 1440 2637 1792 2688 1946 2688 
C 2234 2688 2464 2522 2618 2278 
C 2784 2016 2803 1651 2803 1389 
z
" transform="scale(0.015625)"/>
       <path id="LatinModernMath-Regular-5f" d="M 2131 -896 
L 2131 -640 
L 0 -640 
L 0 -896 
L 2131 -896 
z
" transform="scale(0.015625)"/>
      </defs>
      <use xlink:href="#LatinModernMath-Regular-76"/>
      <use xlink:href="#LatinModernMath-Regular-61" x="52.799988"/>
      <use xlink:href="#LatinModernMath-Regular-72" x="102.799973"/>
      <use xlink:href="#LatinModernMath-Regular-69" x="141.999969"/>
      <use xlink:href="#LatinModernMath-Regular-61" x="169.799957"/>
      <use xlink:href="#LatinModernMath-Regular-62" x="219.799942"/>
      <use xlink:href="#LatinModernMath-Regular-6c" x="275.399933"/>
      <use xlink:href="#LatinModernMath-Regular-65" x="303.199921"/>
      <use xlink:href="#LatinModernMath-Regular-5f" x="347.599915"/>
      <use xlink:href="#LatinModernMath-Regular-31" x="380.899902"/>
     </g>
    </g>
   </g>
   <g id="matplotlib.axis_4">
    <g id="ytick_20">
     <g id="line2d_62">
      <g>
       <use xlink:href="#mc947610920" x="68.38625" y="290.726609" style="fill: #1a1a1a; stroke: #1a1a1a; stroke-width: 0.8"/>
      </g>
     </g>
     <g id="text_15">
      <!-- $\mathdefault{−250}$ -->
      <g style="fill: #1a1a1a" transform="translate(29.18625 295.932078) scale(0.15 -0.15)">
       <use xlink:href="#LatinModernMath-Regular-2212" transform="translate(0 0.40625)"/>
       <use xlink:href="#LatinModernMath-Regular-32" transform="translate(77.799988 0.40625)"/>
       <use xlink:href="#LatinModernMath-Regular-35" transform="translate(127.799973 0.40625)"/>
       <use xlink:href="#LatinModernMath-Regular-30" transform="translate(177.799957 0.40625)"/>
      </g>
     </g>
    </g>
    <g id="ytick_21">
     <g id="line2d_63">
      <g>
       <use xlink:href="#mc947610920" x="68.38625" y="272.722079" style="fill: #1a1a1a; stroke: #1a1a1a; stroke-width: 0.8"/>
      </g>
     </g>
     <g id="text_16">
      <!-- $\mathdefault{0}$ -->
      <g style="fill: #1a1a1a" transform="translate(55.88625 277.927548) scale(0.15 -0.15)">
       <use xlink:href="#LatinModernMath-Regular-30" transform="translate(0 0.40625)"/>
      </g>
     </g>
    </g>
    <g id="ytick_22">
     <g id="line2d_64">
      <g>
       <use xlink:href="#mc947610920" x="68.38625" y="254.71755" style="fill: #1a1a1a; stroke: #1a1a1a; stroke-width: 0.8"/>
      </g>
     </g>
     <g id="text_17">
      <!-- $\mathdefault{250}$ -->
      <g style="fill: #1a1a1a" transform="translate(40.88625 259.923019) scale(0.15 -0.15)">
       <use xlink:href="#LatinModernMath-Regular-32" transform="translate(0 0.40625)"/>
       <use xlink:href="#LatinModernMath-Regular-35" transform="translate(49.999985 0.40625)"/>
       <use xlink:href="#LatinModernMath-Regular-30" transform="translate(99.999969 0.40625)"/>
      </g>
     </g>
    </g>
    <g id="ytick_23">
     <g id="line2d_65">
      <g>
       <use xlink:href="#m5f9d1e6504" x="68.38625" y="294.327515" style="fill: #1a1a1a; stroke: #1a1a1a; stroke-width: 0.6"/>
      </g>
     </g>
    </g>
    <g id="ytick_24">
     <g id="line2d_66">
      <g>
       <use xlink:href="#m5f9d1e6504" x="68.38625" y="287.125703" style="fill: #1a1a1a; stroke: #1a1a1a; stroke-width: 0.6"/>
      </g>
     </g>
    </g>
    <g id="ytick_25">
     <g id="line2d_67">
      <g>
       <use xlink:href="#m5f9d1e6504" x="68.38625" y="283.524797" style="fill: #1a1a1a; stroke: #1a1a1a; stroke-width: 0.6"/>
      </g>
     </g>
    </g>
    <g id="ytick_26">
     <g id="line2d_68">
      <g>
       <use xlink:href="#m5f9d1e6504" x="68.38625" y="279.923891" style="fill: #1a1a1a; stroke: #1a1a1a; stroke-width: 0.6"/>
      </g>
     </g>
    </g>
    <g id="ytick_27">
     <g id="line2d_69">
      <g>
       <use xlink:href="#m5f9d1e6504" x="68.38625" y="276.322985" style="fill: #1a1a1a; stroke: #1a1a1a; stroke-width: 0.6"/>
      </g>
     </g>
    </g>
    <g id="ytick_28">
     <g id="line2d_70">
      <g>
       <use xlink:href="#m5f9d1e6504" x="68.38625" y="269.121174" style="fill: #1a1a1a; stroke: #1a1a1a; stroke-width: 0.6"/>
      </g>
     </g>
    </g>
    <g id="ytick_29">
     <g id="line2d_71">
      <g>
       <use xlink:href="#m5f9d1e6504" x="68.38625" y="265.520268" style="fill: #1a1a1a; stroke: #1a1a1a; stroke-width: 0.6"/>
      </g>
     </g>
    </g>
    <g id="ytick_30">
     <g id="line2d_72">
      <g>
       <use xlink:href="#m5f9d1e6504" x="68.38625" y="261.919362" style="fill: #1a1a1a; stroke: #1a1a1a; stroke-width: 0.6"/>
      </g>
     </g>
    </g>
    <g id="ytick_31">
     <g id="line2d_73">
      <g>
       <use xlink:href="#m5f9d1e6504" x="68.38625" y="258.318456" style="fill: #1a1a1a; stroke: #1a1a1a; stroke-width: 0.6"/>
      </g>
     </g>
    </g>
    <g id="ytick_32">
     <g id="line2d_74">
      <g>
       <use xlink:href="#m5f9d1e6504" x="68.38625" y="251.116644" style="fill: #1a1a1a; stroke: #1a1a1a; stroke-width: 0.6"/>
      </g>
     </g>
    </g>
    <g id="ytick_33">
     <g id="line2d_75">
      <g>
       <use xlink:href="#m5f9d1e6504" x="68.38625" y="247.515738" style="fill: #1a1a1a; stroke: #1a1a1a; stroke-width: 0.6"/>
      </g>
     </g>
    </g>
    <g id="text_18">
     <!-- $\mathcal{C}_{2} - \mathcal{C}_{3}$ -->
     <g style="fill: #1a1a1a" transform="translate(19.693125 297.925587) rotate(-90) scale(0.18 -0.18)">
      <use xlink:href="#Cmsy10-43" transform="translate(0 0.484375)"/>
      <use xlink:href="#LatinModernMath-Regular-32" transform="translate(53.342031 -12.44375) scale(0.7)"/>
      <use xlink:href="#LatinModernMath-Regular-2212" transform="translate(108.055302 0.484375)"/>
      <use xlink:href="#Cmsy10-43" transform="translate(203.413883 0.484375)"/>
      <use xlink:href="#LatinModernMath-Regular-33" transform="translate(256.755915 -12.44375) scale(0.7)"/>
     </g>
    </g>
   </g>
   <g id="text_19">
    <!-- Difference ax -->
    <g style="fill: #1a1a1a" transform="translate(334.32875 242.83507) scale(0.12 -0.12)">
     <defs>
      <path id="LatinModernMath-Regular-44" d="M 4525 2150 
C 4525 3366 3661 4371 2566 4371 
L 224 4371 
L 224 4173 
L 378 4173 
C 870 4173 883 4102 883 3872 
L 883 499 
C 883 269 870 198 378 198 
L 224 198 
L 224 0 
L 2566 0 
C 3642 0 4525 947 4525 2150 
z
M 3885 2150 
C 3885 1440 3763 1056 3533 742 
C 3405 570 3040 198 2394 198 
L 1747 198 
C 1446 198 1434 243 1434 454 
L 1434 3917 
C 1434 4128 1446 4173 1747 4173 
L 2387 4173 
C 2784 4173 3226 4032 3552 3578 
C 3827 3200 3885 2650 3885 2150 
z
" transform="scale(0.015625)"/>
      <path id="LatinModernMath-Regular-78" d="M 3302 0 
L 3302 198 
C 2957 198 2842 211 2694 397 
L 1837 1504 
C 2029 1747 2272 2061 2426 2227 
C 2624 2458 2886 2554 3187 2560 
L 3187 2758 
C 3021 2746 2829 2739 2662 2739 
C 2470 2739 2131 2752 2048 2758 
L 2048 2560 
C 2182 2547 2234 2464 2234 2362 
C 2234 2259 2170 2176 2138 2138 
L 1741 1638 
L 1242 2285 
C 1184 2349 1184 2362 1184 2400 
C 1184 2496 1280 2554 1408 2560 
L 1408 2758 
L 717 2739 
C 582 2739 282 2746 109 2758 
L 109 2560 
C 557 2560 563 2554 864 2170 
L 1498 1344 
C 1197 960 1197 947 896 582 
C 589 211 211 198 77 198 
L 77 0 
C 243 13 442 19 608 19 
L 1216 0 
L 1216 198 
C 1075 218 1030 301 1030 397 
C 1030 538 1216 749 1606 1210 
L 2093 570 
C 2144 499 2227 397 2227 358 
C 2227 301 2170 205 1997 198 
L 1997 0 
L 2688 19 
C 2861 19 3110 13 3302 0 
z
" transform="scale(0.015625)"/>
     </defs>
     <use xlink:href="#LatinModernMath-Regular-44"/>
     <use xlink:href="#LatinModernMath-Regular-69" x="76.399994"/>
     <use xlink:href="#LatinModernMath-Regular-66" x="104.199982"/>
     <use xlink:href="#LatinModernMath-Regular-66" x="134.799973"/>
     <use xlink:href="#LatinModernMath-Regular-65" x="165.399963"/>
     <use xlink:href="#LatinModernMath-Regular-72" x="209.799957"/>
     <use xlink:href="#LatinModernMath-Regular-65" x="248.999954"/>
     <use xlink:href="#LatinModernMath-Regular-6e" x="293.399948"/>
     <use xlink:href="#LatinModernMath-Regular-63" x="348.999939"/>
     <use xlink:href="#LatinModernMath-Regular-65" x="393.399933"/>
     <use xlink:href="#LatinModernMath-Regular-20" x="437.799927"/>
     <use xlink:href="#LatinModernMath-Regular-61" x="470.999924"/>
     <use xlink:href="#LatinModernMath-Regular-78" x="520.999908"/>
    </g>
   </g>
  </g>
 </g>
 <defs>
  <clipPath id="p482aa6d7a9">
   <rect x="68.38625" y="20.051634" width="334.8" height="206.288372"/>
  </clipPath>
  <clipPath id="pd1a3aa7504">
   <rect x="68.38625" y="245.679541" width="334.8" height="51.572093"/>
  </clipPath>
 </defs>
</svg>
