<?xml version="1.0" encoding="utf-8" standalone="no"?>
<!DOCTYPE svg PUBLIC "-//W3C//DTD SVG 1.1//EN"
  "http://www.w3.org/Graphics/SVG/1.1/DTD/svg11.dtd">
<svg xmlns:xlink="http://www.w3.org/1999/xlink" width="400.660716pt" height="279.468125pt" viewBox="0 0 400.660716 279.468125" xmlns="http://www.w3.org/2000/svg" version="1.1">
 <metadata>
  <rdf:RDF xmlns:dc="http://purl.org/dc/elements/1.1/" xmlns:cc="http://creativecommons.org/ns#" xmlns:rdf="http://www.w3.org/1999/02/22-rdf-syntax-ns#">
   <cc:Work>
    <dc:creator>
     <cc:Agent>
      <dc:title>カリビアンカフェ</dc:title>
     </cc:Agent>
    </dc:creator>
   </cc:Work>
  </rdf:RDF>
 </metadata>
 <defs>
  <style type="text/css">*{stroke-linejoin: round; stroke-linecap: butt}</style>
 </defs>
 <g id="figure_1">
  <g id="patch_1">
   <path d="M 0 279.468125 
L 400.660716 279.468125 
L 400.660716 0 
L 0 0 
z
" style="fill: #ffffff"/>
  </g>
  <g id="axes_1">
   <g id="patch_2">
    <path d="M 56.68625 228.96 
L 391.48625 228.96 
L 391.48625 7.2 
L 56.68625 7.2 
z
" style="fill: #ffffff"/>
   </g>
   <g id="patch_3">
    <path d="M 56.68625 228.96 
L 56.68625 228.490667 
L 63.38225 228.490667 
L 63.38225 228.725333 
L 70.07825 228.725333 
L 70.07825 228.490667 
L 76.77425 228.490667 
L 76.77425 227.552 
L 83.47025 227.552 
L 83.47025 226.848 
L 90.16625 226.848 
L 90.16625 223.328 
L 96.86225 223.328 
L 96.86225 223.093333 
L 103.55825 223.093333 
L 103.55825 215.818667 
L 110.25425 215.818667 
L 110.25425 210.656 
L 116.95025 210.656 
L 116.95025 194.464 
L 123.64625 194.464 
L 123.64625 187.893333 
L 130.34225 187.893333 
L 130.34225 164.661333 
L 137.03825 164.661333 
L 137.03825 143.072 
L 143.73425 143.072 
L 143.73425 129.226667 
L 150.43025 129.226667 
L 150.43025 98.72 
L 157.12625 98.72 
L 157.12625 73.376 
L 163.82225 73.376 
L 163.82225 62.581333 
L 170.51825 62.581333 
L 170.51825 53.194667 
L 177.21425 53.194667 
L 177.21425 54.133333 
L 183.91025 54.133333 
L 183.91025 53.429333 
L 190.60625 53.429333 
L 190.60625 68.682667 
L 197.30225 68.682667 
L 197.30225 76.192 
L 203.99825 76.192 
L 203.99825 82.762667 
L 210.69425 82.762667 
L 210.69425 104.586667 
L 217.39025 104.586667 
L 217.39025 132.981333 
L 224.08625 132.981333 
L 224.08625 135.562667 
L 230.78225 135.562667 
L 230.78225 147.765333 
L 237.47825 147.765333 
L 237.47825 151.52 
L 244.17425 151.52 
L 244.17425 171.232 
L 250.87025 171.232 
L 250.87025 175.221333 
L 257.56625 175.221333 
L 257.56625 183.669333 
L 264.26225 183.669333 
L 264.26225 186.016 
L 270.95825 186.016 
L 270.95825 193.525333 
L 277.65425 193.525333 
L 277.65425 199.861333 
L 284.35025 199.861333 
L 284.35025 210.186667 
L 291.04625 210.186667 
L 291.04625 212.768 
L 297.74225 212.768 
L 297.74225 220.277333 
L 304.43825 220.277333 
L 304.43825 221.92 
L 311.13425 221.92 
L 311.13425 225.205333 
L 317.83025 225.205333 
L 317.83025 226.378667 
L 324.52625 226.378667 
L 324.52625 227.552 
L 331.22225 227.552 
L 331.22225 228.725333 
L 337.91825 228.725333 
L 337.91825 228.256 
L 344.61425 228.256 
L 344.61425 228.725333 
L 351.31025 228.725333 
L 351.31025 228.725333 
L 358.00625 228.725333 
L 358.00625 228.96 
L 364.70225 228.96 
L 364.70225 228.96 
L 371.39825 228.96 
L 371.39825 228.725333 
L 378.09425 228.725333 
L 378.09425 228.96 
L 384.79025 228.96 
L 384.79025 228.96 
L 391.48625 228.96 
L 391.48625 228.96 
" clip-path="url(#p1750562075)" style="fill: none; stroke: #348abd; stroke-width: 1.2; stroke-linejoin: miter"/>
   </g>
   <g id="patch_4">
    <path d="M 56.68625 228.96 
L 56.68625 228.96 
L 63.38225 228.96 
L 63.38225 228.96 
L 70.07825 228.96 
L 70.07825 228.96 
L 76.77425 228.96 
L 76.77425 228.96 
L 83.47025 228.96 
L 83.47025 228.96 
L 90.16625 228.96 
L 90.16625 228.725333 
L 96.86225 228.725333 
L 96.86225 227.552 
L 103.55825 227.552 
L 103.55825 227.786667 
L 110.25425 227.786667 
L 110.25425 225.909333 
L 116.95025 225.909333 
L 116.95025 223.562667 
L 123.64625 223.562667 
L 123.64625 220.277333 
L 130.34225 220.277333 
L 130.34225 205.258667 
L 137.03825 205.258667 
L 137.03825 196.106667 
L 143.73425 196.106667 
L 143.73425 181.792 
L 150.43025 181.792 
L 150.43025 163.957333 
L 157.12625 163.957333 
L 157.12625 143.776 
L 163.82225 143.776 
L 163.82225 109.984 
L 170.51825 109.984 
L 170.51825 100.362667 
L 177.21425 100.362667 
L 177.21425 98.954667 
L 183.91025 98.954667 
L 183.91025 95.434667 
L 190.60625 95.434667 
L 190.60625 110.688 
L 197.30225 110.688 
L 197.30225 107.872 
L 203.99825 107.872 
L 203.99825 120.544 
L 210.69425 120.544 
L 210.69425 115.146667 
L 217.39025 115.146667 
L 217.39025 112.565333 
L 224.08625 112.565333 
L 224.08625 104.821333 
L 230.78225 104.821333 
L 230.78225 97.312 
L 237.47825 97.312 
L 237.47825 90.741333 
L 244.17425 90.741333 
L 244.17425 87.925333 
L 250.87025 87.925333 
L 250.87025 97.546667 
L 257.56625 97.546667 
L 257.56625 104.821333 
L 264.26225 104.821333 
L 264.26225 126.410667 
L 270.95825 126.410667 
L 270.95825 141.194667 
L 277.65425 141.194667 
L 277.65425 150.112 
L 284.35025 150.112 
L 284.35025 173.578667 
L 291.04625 173.578667 
L 291.04625 188.597333 
L 297.74225 188.597333 
L 297.74225 198.688 
L 304.43825 198.688 
L 304.43825 207.605333 
L 311.13425 207.605333 
L 311.13425 215.584 
L 317.83025 215.584 
L 317.83025 218.4 
L 324.52625 218.4 
L 324.52625 223.562667 
L 331.22225 223.562667 
L 331.22225 226.378667 
L 337.91825 226.378667 
L 337.91825 226.378667 
L 344.61425 226.378667 
L 344.61425 228.256 
L 351.31025 228.256 
L 351.31025 228.256 
L 358.00625 228.256 
L 358.00625 228.725333 
L 364.70225 228.725333 
L 364.70225 228.96 
L 371.39825 228.96 
L 371.39825 228.96 
L 378.09425 228.96 
L 378.09425 228.96 
L 384.79025 228.96 
L 384.79025 228.725333 
L 391.48625 228.725333 
L 391.48625 228.96 
" clip-path="url(#p1750562075)" style="fill: none; stroke: #e24a33; stroke-width: 1.2; stroke-linejoin: miter"/>
   </g>
   <g id="LineCollection_1">
    <path d="M 60.03425 228.96 
L 60.03425 228.96 
" clip-path="url(#p1750562075)" style="fill: none; stroke: #000000; stroke-width: 1.5"/>
    <path d="M 66.73025 228.96 
L 66.73025 228.96 
" clip-path="url(#p1750562075)" style="fill: none; stroke: #000000; stroke-width: 1.5"/>
    <path d="M 73.42625 228.96 
L 73.42625 228.96 
" clip-path="url(#p1750562075)" style="fill: none; stroke: #000000; stroke-width: 1.5"/>
    <path d="M 80.12225 228.96 
L 80.12225 228.490667 
" clip-path="url(#p1750562075)" style="fill: none; stroke: #000000; stroke-width: 1.5"/>
    <path d="M 86.81825 228.96 
L 86.81825 228.490667 
" clip-path="url(#p1750562075)" style="fill: none; stroke: #000000; stroke-width: 1.5"/>
    <path d="M 93.51425 228.822535 
L 93.51425 228.158798 
" clip-path="url(#p1750562075)" style="fill: none; stroke: #000000; stroke-width: 1.5"/>
    <path d="M 100.21025 228.126814 
L 100.21025 226.977186 
" clip-path="url(#p1750562075)" style="fill: none; stroke: #000000; stroke-width: 1.5"/>
    <path d="M 106.90625 227.552 
L 106.90625 226.144 
" clip-path="url(#p1750562075)" style="fill: none; stroke: #000000; stroke-width: 1.5"/>
    <path d="M 113.60225 225.938222 
L 113.60225 224.003111 
" clip-path="url(#p1750562075)" style="fill: none; stroke: #000000; stroke-width: 1.5"/>
    <path d="M 120.29825 224.266667 
L 120.29825 221.92 
" clip-path="url(#p1750562075)" style="fill: none; stroke: #000000; stroke-width: 1.5"/>
    <path d="M 126.99425 218.667855 
L 126.99425 215.316145 
" clip-path="url(#p1750562075)" style="fill: none; stroke: #000000; stroke-width: 1.5"/>
    <path d="M 133.69025 216.038609 
L 133.69025 212.313391 
" clip-path="url(#p1750562075)" style="fill: none; stroke: #000000; stroke-width: 1.5"/>
    <path d="M 140.38625 210.510702 
L 140.38625 206.107965 
" clip-path="url(#p1750562075)" style="fill: none; stroke: #000000; stroke-width: 1.5"/>
    <path d="M 147.08225 206.278078 
L 147.08225 201.423256 
" clip-path="url(#p1750562075)" style="fill: none; stroke: #000000; stroke-width: 1.5"/>
    <path d="M 153.77825 197.984 
L 153.77825 192.352 
" clip-path="url(#p1750562075)" style="fill: none; stroke: #000000; stroke-width: 1.5"/>
    <path d="M 160.47425 185.345354 
L 160.47425 178.707979 
" clip-path="url(#p1750562075)" style="fill: none; stroke: #000000; stroke-width: 1.5"/>
    <path d="M 167.17025 186.02437 
L 167.17025 179.436963 
" clip-path="url(#p1750562075)" style="fill: none; stroke: #000000; stroke-width: 1.5"/>
    <path d="M 173.86625 177.864698 
L 173.86625 170.700635 
" clip-path="url(#p1750562075)" style="fill: none; stroke: #000000; stroke-width: 1.5"/>
    <path d="M 180.56225 175.594091 
L 180.56225 168.277909 
" clip-path="url(#p1750562075)" style="fill: none; stroke: #000000; stroke-width: 1.5"/>
    <path d="M 187.25825 169.910992 
L 187.25825 162.227674 
" clip-path="url(#p1750562075)" style="fill: none; stroke: #000000; stroke-width: 1.5"/>
    <path d="M 193.95425 163.536025 
L 193.95425 155.461309 
" clip-path="url(#p1750562075)" style="fill: none; stroke: #000000; stroke-width: 1.5"/>
    <path d="M 200.65025 156.239327 
L 200.65025 147.739339 
" clip-path="url(#p1750562075)" style="fill: none; stroke: #000000; stroke-width: 1.5"/>
    <path d="M 207.34625 138.642576 
L 207.34625 129.197424 
" clip-path="url(#p1750562075)" style="fill: none; stroke: #000000; stroke-width: 1.5"/>
    <path d="M 214.04225 118.021004 
L 214.04225 107.578996 
" clip-path="url(#p1750562075)" style="fill: none; stroke: #000000; stroke-width: 1.5"/>
    <path d="M 220.73825 101.721564 
L 220.73825 90.55577 
" clip-path="url(#p1750562075)" style="fill: none; stroke: #000000; stroke-width: 1.5"/>
    <path d="M 227.43425 69.290329 
L 227.43425 56.811004 
" clip-path="url(#p1750562075)" style="fill: none; stroke: #000000; stroke-width: 1.5"/>
    <path d="M 234.13025 42.792021 
L 234.13025 29.335979 
" clip-path="url(#p1750562075)" style="fill: none; stroke: #000000; stroke-width: 1.5"/>
    <path d="M 240.82625 34.259109 
L 240.82625 20.503558 
" clip-path="url(#p1750562075)" style="fill: none; stroke: #000000; stroke-width: 1.5"/>
    <path d="M 247.52225 43.253164 
L 247.52225 29.813503 
" clip-path="url(#p1750562075)" style="fill: none; stroke: #000000; stroke-width: 1.5"/>
    <path d="M 254.21825 42.330867 
L 254.21825 28.858466 
" clip-path="url(#p1750562075)" style="fill: none; stroke: #000000; stroke-width: 1.5"/>
    <path d="M 260.91425 55.239273 
L 260.91425 42.232727 
" clip-path="url(#p1750562075)" style="fill: none; stroke: #000000; stroke-width: 1.5"/>
    <path d="M 267.61025 72.973988 
L 267.61025 60.636679 
" clip-path="url(#p1750562075)" style="fill: none; stroke: #000000; stroke-width: 1.5"/>
    <path d="M 274.30625 107.004287 
L 274.30625 96.067713 
" clip-path="url(#p1750562075)" style="fill: none; stroke: #000000; stroke-width: 1.5"/>
    <path d="M 281.00225 133.835465 
L 281.00225 124.148535 
" clip-path="url(#p1750562075)" style="fill: none; stroke: #000000; stroke-width: 1.5"/>
    <path d="M 287.69825 160.573064 
L 287.69825 152.322936 
" clip-path="url(#p1750562075)" style="fill: none; stroke: #000000; stroke-width: 1.5"/>
    <path d="M 294.39425 181.04075 
L 294.39425 174.09525 
" clip-path="url(#p1750562075)" style="fill: none; stroke: #000000; stroke-width: 1.5"/>
    <path d="M 301.09025 193.028802 
L 301.09025 186.981865 
" clip-path="url(#p1750562075)" style="fill: none; stroke: #000000; stroke-width: 1.5"/>
    <path d="M 307.78625 209.62151 
L 307.78625 205.119823 
" clip-path="url(#p1750562075)" style="fill: none; stroke: #000000; stroke-width: 1.5"/>
    <path d="M 314.48225 217.793668 
L 314.48225 214.312999 
" clip-path="url(#p1750562075)" style="fill: none; stroke: #000000; stroke-width: 1.5"/>
    <path d="M 321.17825 222.349663 
L 321.17825 219.613003 
" clip-path="url(#p1750562075)" style="fill: none; stroke: #000000; stroke-width: 1.5"/>
    <path d="M 327.87425 225.731606 
L 327.87425 223.740394 
" clip-path="url(#p1750562075)" style="fill: none; stroke: #000000; stroke-width: 1.5"/>
    <path d="M 334.57025 227.552 
L 334.57025 226.144 
" clip-path="url(#p1750562075)" style="fill: none; stroke: #000000; stroke-width: 1.5"/>
    <path d="M 341.26625 228.311397 
L 341.26625 227.261936 
" clip-path="url(#p1750562075)" style="fill: none; stroke: #000000; stroke-width: 1.5"/>
    <path d="M 347.96225 228.96 
L 347.96225 228.96 
" clip-path="url(#p1750562075)" style="fill: none; stroke: #000000; stroke-width: 1.5"/>
    <path d="M 354.65825 228.662455 
L 354.65825 227.849545 
" clip-path="url(#p1750562075)" style="fill: none; stroke: #000000; stroke-width: 1.5"/>
    <path d="M 361.35425 228.96 
L 361.35425 228.490667 
" clip-path="url(#p1750562075)" style="fill: none; stroke: #000000; stroke-width: 1.5"/>
    <path d="M 368.05025 228.96 
L 368.05025 228.96 
" clip-path="url(#p1750562075)" style="fill: none; stroke: #000000; stroke-width: 1.5"/>
    <path d="M 374.74625 228.96 
L 374.74625 228.96 
" clip-path="url(#p1750562075)" style="fill: none; stroke: #000000; stroke-width: 1.5"/>
    <path d="M 381.44225 228.96 
L 381.44225 228.96 
" clip-path="url(#p1750562075)" style="fill: none; stroke: #000000; stroke-width: 1.5"/>
    <path d="M 388.13825 228.96 
L 388.13825 228.96 
" clip-path="url(#p1750562075)" style="fill: none; stroke: #000000; stroke-width: 1.5"/>
   </g>
   <g id="line2d_1">
    <path d="M 56.68625 228.96 
L 283.811878 228.86582 
L 288.859114 228.674864 
L 292.223938 228.391043 
L 295.588763 227.867187 
L 297.271175 227.46697 
L 298.953587 226.939536 
L 300.635999 226.251723 
L 302.318411 225.364206 
L 304.000823 224.231143 
L 305.683235 222.80005 
L 307.365647 221.011999 
L 309.048059 218.802233 
L 310.730471 216.101266 
L 312.412883 212.836554 
L 314.095295 208.934786 
L 315.777707 204.324799 
L 317.460119 198.941104 
L 319.142531 192.727944 
L 320.824943 185.643747 
L 322.507356 177.665778 
L 324.189768 168.794759 
L 325.87218 159.059139 
L 327.554592 148.518706 
L 330.919416 125.433616 
L 339.331476 64.323935 
L 341.013888 53.410853 
L 342.6963 43.55044 
L 344.378712 34.994194 
L 346.061124 27.968413 
L 347.743536 22.66427 
L 349.425948 19.229183 
L 351.108361 17.76 
L 352.790773 18.298471 
L 354.473185 20.829273 
L 356.155597 25.280732 
L 357.838009 31.528201 
L 359.520421 39.399855 
L 361.202833 48.684539 
L 362.885245 59.141167 
L 366.250069 82.518798 
L 372.979717 131.83434 
L 376.344541 154.258856 
L 378.026954 164.377721 
L 379.709366 173.65567 
L 381.391778 182.050095 
L 383.07419 189.547895 
L 384.756602 196.161472 
L 386.439014 201.92423 
L 388.121426 206.885912 
L 389.803838 211.108017 
L 391.48625 214.659547 
L 391.48625 214.659547 
" clip-path="url(#p1750562075)" style="fill: none; stroke: #008000; stroke-width: 1.5; stroke-linecap: round"/>
   </g>
   <g id="line2d_2">
    <defs>
     <path id="m15114484f9" d="M 0 1.5 
C 0.397805 1.5 0.77937 1.341951 1.06066 1.06066 
C 1.341951 0.77937 1.5 0.397805 1.5 0 
C 1.5 -0.397805 1.341951 -0.77937 1.06066 -1.06066 
C 0.77937 -1.341951 0.397805 -1.5 0 -1.5 
C -0.397805 -1.5 -0.77937 -1.341951 -1.06066 -1.06066 
C -1.341951 -0.77937 -1.5 -0.397805 -1.5 0 
C -1.5 0.397805 -1.341951 0.77937 -1.06066 1.06066 
C -0.77937 1.341951 -0.397805 1.5 0 1.5 
z
" style="stroke: #000000"/>
    </defs>
    <g clip-path="url(#p1750562075)">
     <use xlink:href="#m15114484f9" x="60.03425" y="228.96" style="stroke: #000000"/>
     <use xlink:href="#m15114484f9" x="66.73025" y="228.96" style="stroke: #000000"/>
     <use xlink:href="#m15114484f9" x="73.42625" y="228.96" style="stroke: #000000"/>
     <use xlink:href="#m15114484f9" x="80.12225" y="228.725333" style="stroke: #000000"/>
     <use xlink:href="#m15114484f9" x="86.81825" y="228.725333" style="stroke: #000000"/>
     <use xlink:href="#m15114484f9" x="93.51425" y="228.490667" style="stroke: #000000"/>
     <use xlink:href="#m15114484f9" x="100.21025" y="227.552" style="stroke: #000000"/>
     <use xlink:href="#m15114484f9" x="106.90625" y="226.848" style="stroke: #000000"/>
     <use xlink:href="#m15114484f9" x="113.60225" y="224.970667" style="stroke: #000000"/>
     <use xlink:href="#m15114484f9" x="120.29825" y="223.093333" style="stroke: #000000"/>
     <use xlink:href="#m15114484f9" x="126.99425" y="216.992" style="stroke: #000000"/>
     <use xlink:href="#m15114484f9" x="133.69025" y="214.176" style="stroke: #000000"/>
     <use xlink:href="#m15114484f9" x="140.38625" y="208.309333" style="stroke: #000000"/>
     <use xlink:href="#m15114484f9" x="147.08225" y="203.850667" style="stroke: #000000"/>
     <use xlink:href="#m15114484f9" x="153.77825" y="195.168" style="stroke: #000000"/>
     <use xlink:href="#m15114484f9" x="160.47425" y="182.026667" style="stroke: #000000"/>
     <use xlink:href="#m15114484f9" x="167.17025" y="182.730667" style="stroke: #000000"/>
     <use xlink:href="#m15114484f9" x="173.86625" y="174.282667" style="stroke: #000000"/>
     <use xlink:href="#m15114484f9" x="180.56225" y="171.936" style="stroke: #000000"/>
     <use xlink:href="#m15114484f9" x="187.25825" y="166.069333" style="stroke: #000000"/>
     <use xlink:href="#m15114484f9" x="193.95425" y="159.498667" style="stroke: #000000"/>
     <use xlink:href="#m15114484f9" x="200.65025" y="151.989333" style="stroke: #000000"/>
     <use xlink:href="#m15114484f9" x="207.34625" y="133.92" style="stroke: #000000"/>
     <use xlink:href="#m15114484f9" x="214.04225" y="112.8" style="stroke: #000000"/>
     <use xlink:href="#m15114484f9" x="220.73825" y="96.138667" style="stroke: #000000"/>
     <use xlink:href="#m15114484f9" x="227.43425" y="63.050667" style="stroke: #000000"/>
     <use xlink:href="#m15114484f9" x="234.13025" y="36.064" style="stroke: #000000"/>
     <use xlink:href="#m15114484f9" x="240.82625" y="27.381333" style="stroke: #000000"/>
     <use xlink:href="#m15114484f9" x="247.52225" y="36.533333" style="stroke: #000000"/>
     <use xlink:href="#m15114484f9" x="254.21825" y="35.594667" style="stroke: #000000"/>
     <use xlink:href="#m15114484f9" x="260.91425" y="48.736" style="stroke: #000000"/>
     <use xlink:href="#m15114484f9" x="267.61025" y="66.805333" style="stroke: #000000"/>
     <use xlink:href="#m15114484f9" x="274.30625" y="101.536" style="stroke: #000000"/>
     <use xlink:href="#m15114484f9" x="281.00225" y="128.992" style="stroke: #000000"/>
     <use xlink:href="#m15114484f9" x="287.69825" y="156.448" style="stroke: #000000"/>
     <use xlink:href="#m15114484f9" x="294.39425" y="177.568" style="stroke: #000000"/>
     <use xlink:href="#m15114484f9" x="301.09025" y="190.005333" style="stroke: #000000"/>
     <use xlink:href="#m15114484f9" x="307.78625" y="207.370667" style="stroke: #000000"/>
     <use xlink:href="#m15114484f9" x="314.48225" y="216.053333" style="stroke: #000000"/>
     <use xlink:href="#m15114484f9" x="321.17825" y="220.981333" style="stroke: #000000"/>
     <use xlink:href="#m15114484f9" x="327.87425" y="224.736" style="stroke: #000000"/>
     <use xlink:href="#m15114484f9" x="334.57025" y="226.848" style="stroke: #000000"/>
     <use xlink:href="#m15114484f9" x="341.26625" y="227.786667" style="stroke: #000000"/>
     <use xlink:href="#m15114484f9" x="347.96225" y="228.96" style="stroke: #000000"/>
     <use xlink:href="#m15114484f9" x="354.65825" y="228.256" style="stroke: #000000"/>
     <use xlink:href="#m15114484f9" x="361.35425" y="228.725333" style="stroke: #000000"/>
     <use xlink:href="#m15114484f9" x="368.05025" y="228.96" style="stroke: #000000"/>
     <use xlink:href="#m15114484f9" x="374.74625" y="228.96" style="stroke: #000000"/>
     <use xlink:href="#m15114484f9" x="381.44225" y="228.96" style="stroke: #000000"/>
     <use xlink:href="#m15114484f9" x="388.13825" y="228.96" style="stroke: #000000"/>
    </g>
   </g>
   <g id="patch_5">
    <path d="M 56.68625 228.96 
L 56.68625 7.2 
" style="fill: none; stroke: #000000; stroke-linejoin: miter; stroke-linecap: square"/>
   </g>
   <g id="patch_6">
    <path d="M 391.48625 228.96 
L 391.48625 7.2 
" style="fill: none; stroke: #000000; stroke-linejoin: miter; stroke-linecap: square"/>
   </g>
   <g id="patch_7">
    <path d="M 56.68625 228.96 
L 391.48625 228.96 
" style="fill: none; stroke: #000000; stroke-linejoin: miter; stroke-linecap: square"/>
   </g>
   <g id="patch_8">
    <path d="M 56.68625 7.2 
L 391.48625 7.2 
" style="fill: none; stroke: #000000; stroke-linejoin: miter; stroke-linecap: square"/>
   </g>
   <g id="matplotlib.axis_1">
    <g id="xtick_1">
     <g id="line2d_3">
      <defs>
       <path id="m6ab8279b23" d="M 0 0 
L 0 -6 
" style="stroke: #1a1a1a; stroke-width: 0.8"/>
      </defs>
      <g>
       <use xlink:href="#m6ab8279b23" x="127.498285" y="228.96" style="fill: #1a1a1a; stroke: #1a1a1a; stroke-width: 0.8"/>
      </g>
     </g>
     <g id="text_1">
      <!-- $\mathdefault{−5}$ -->
      <g style="fill: #1a1a1a" transform="translate(117.898285 247.370937) scale(0.15 -0.15)">
       <defs>
        <path id="LatinModernMath-Regular-2212" d="M 4621 1600 
C 4621 1670 4563 1728 4493 1728 
L 486 1728 
C 416 1728 358 1670 358 1600 
C 358 1530 416 1472 486 1472 
L 4493 1472 
C 4563 1472 4621 1530 4621 1600 
z
" transform="scale(0.015625)"/>
        <path id="LatinModernMath-Regular-35" d="M 2874 1286 
C 2874 2048 2349 2688 1658 2688 
C 1350 2688 1075 2586 845 2362 
L 845 3610 
C 973 3571 1184 3526 1389 3526 
C 2176 3526 2624 4109 2624 4192 
C 2624 4230 2605 4262 2560 4262 
C 2560 4262 2541 4262 2509 4243 
C 2381 4186 2067 4058 1638 4058 
C 1382 4058 1088 4102 787 4237 
C 736 4256 710 4256 710 4256 
C 646 4256 646 4205 646 4102 
L 646 2208 
C 646 2093 646 2042 736 2042 
C 781 2042 794 2061 819 2099 
C 890 2202 1126 2547 1645 2547 
C 1978 2547 2138 2253 2189 2138 
C 2291 1901 2304 1651 2304 1331 
C 2304 1107 2304 723 2150 454 
C 1997 205 1760 38 1466 38 
C 998 38 634 378 525 755 
C 544 749 563 742 634 742 
C 845 742 954 902 954 1056 
C 954 1210 845 1370 634 1370 
C 544 1370 320 1325 320 1030 
C 320 480 762 -141 1478 -141 
C 2221 -141 2874 474 2874 1286 
z
" transform="scale(0.015625)"/>
       </defs>
       <use xlink:href="#LatinModernMath-Regular-2212" transform="translate(0 0.40625)"/>
       <use xlink:href="#LatinModernMath-Regular-35" transform="translate(77.799988 0.40625)"/>
      </g>
     </g>
    </g>
    <g id="xtick_2">
     <g id="line2d_4">
      <g>
       <use xlink:href="#m6ab8279b23" x="213.652429" y="228.96" style="fill: #1a1a1a; stroke: #1a1a1a; stroke-width: 0.8"/>
      </g>
     </g>
     <g id="text_2">
      <!-- $\mathdefault{0}$ -->
      <g style="fill: #1a1a1a" transform="translate(209.902429 247.370937) scale(0.15 -0.15)">
       <defs>
        <path id="LatinModernMath-Regular-30" d="M 2944 2048 
C 2944 2560 2912 3072 2688 3546 
C 2394 4160 1869 4262 1600 4262 
C 1216 4262 749 4096 486 3501 
C 282 3059 250 2560 250 2048 
C 250 1568 275 992 538 506 
C 813 -13 1280 -141 1594 -141 
C 1939 -141 2426 -6 2707 602 
C 2912 1043 2944 1542 2944 2048 
z
M 2413 2125 
C 2413 1645 2413 1210 2342 800 
C 2246 192 1882 0 1594 0 
C 1344 0 966 160 851 774 
C 781 1158 781 1747 781 2125 
C 781 2534 781 2957 832 3302 
C 954 4064 1434 4122 1594 4122 
C 1805 4122 2227 4006 2349 3373 
C 2413 3014 2413 2528 2413 2125 
z
" transform="scale(0.015625)"/>
       </defs>
       <use xlink:href="#LatinModernMath-Regular-30" transform="translate(0 0.40625)"/>
      </g>
     </g>
    </g>
    <g id="xtick_3">
     <g id="line2d_5">
      <g>
       <use xlink:href="#m6ab8279b23" x="299.806572" y="228.96" style="fill: #1a1a1a; stroke: #1a1a1a; stroke-width: 0.8"/>
      </g>
     </g>
     <g id="text_3">
      <!-- $\mathdefault{5}$ -->
      <g style="fill: #1a1a1a" transform="translate(296.056572 247.370937) scale(0.15 -0.15)">
       <use xlink:href="#LatinModernMath-Regular-35" transform="translate(0 0.40625)"/>
      </g>
     </g>
    </g>
    <g id="xtick_4">
     <g id="line2d_6">
      <g>
       <use xlink:href="#m6ab8279b23" x="385.960716" y="228.96" style="fill: #1a1a1a; stroke: #1a1a1a; stroke-width: 0.8"/>
      </g>
     </g>
     <g id="text_4">
      <!-- $\mathdefault{10}$ -->
      <g style="fill: #1a1a1a" transform="translate(378.460716 247.370937) scale(0.15 -0.15)">
       <defs>
        <path id="LatinModernMath-Regular-31" d="M 2682 0 
L 2682 198 
L 2477 198 
C 1901 198 1882 269 1882 506 
L 1882 4096 
C 1882 4250 1882 4262 1734 4262 
C 1338 3853 774 3853 570 3853 
L 570 3654 
C 698 3654 1075 3654 1408 3821 
L 1408 506 
C 1408 275 1389 198 813 198 
L 608 198 
L 608 0 
C 832 19 1389 19 1645 19 
C 1901 19 2458 19 2682 0 
z
" transform="scale(0.015625)"/>
       </defs>
       <use xlink:href="#LatinModernMath-Regular-31" transform="translate(0 0.40625)"/>
       <use xlink:href="#LatinModernMath-Regular-30" transform="translate(49.999985 0.40625)"/>
      </g>
     </g>
    </g>
    <g id="xtick_5">
     <g id="line2d_7">
      <defs>
       <path id="m25844031d2" d="M 0 0 
L 0 -3 
" style="stroke: #1a1a1a; stroke-width: 0.6"/>
      </defs>
      <g>
       <use xlink:href="#m25844031d2" x="58.574971" y="228.96" style="fill: #1a1a1a; stroke: #1a1a1a; stroke-width: 0.6"/>
      </g>
     </g>
    </g>
    <g id="xtick_6">
     <g id="line2d_8">
      <g>
       <use xlink:href="#m25844031d2" x="75.805799" y="228.96" style="fill: #1a1a1a; stroke: #1a1a1a; stroke-width: 0.6"/>
      </g>
     </g>
    </g>
    <g id="xtick_7">
     <g id="line2d_9">
      <g>
       <use xlink:href="#m25844031d2" x="93.036628" y="228.96" style="fill: #1a1a1a; stroke: #1a1a1a; stroke-width: 0.6"/>
      </g>
     </g>
    </g>
    <g id="xtick_8">
     <g id="line2d_10">
      <g>
       <use xlink:href="#m25844031d2" x="110.267457" y="228.96" style="fill: #1a1a1a; stroke: #1a1a1a; stroke-width: 0.6"/>
      </g>
     </g>
    </g>
    <g id="xtick_9">
     <g id="line2d_11">
      <g>
       <use xlink:href="#m25844031d2" x="144.729114" y="228.96" style="fill: #1a1a1a; stroke: #1a1a1a; stroke-width: 0.6"/>
      </g>
     </g>
    </g>
    <g id="xtick_10">
     <g id="line2d_12">
      <g>
       <use xlink:href="#m25844031d2" x="161.959943" y="228.96" style="fill: #1a1a1a; stroke: #1a1a1a; stroke-width: 0.6"/>
      </g>
     </g>
    </g>
    <g id="xtick_11">
     <g id="line2d_13">
      <g>
       <use xlink:href="#m25844031d2" x="179.190771" y="228.96" style="fill: #1a1a1a; stroke: #1a1a1a; stroke-width: 0.6"/>
      </g>
     </g>
    </g>
    <g id="xtick_12">
     <g id="line2d_14">
      <g>
       <use xlink:href="#m25844031d2" x="196.4216" y="228.96" style="fill: #1a1a1a; stroke: #1a1a1a; stroke-width: 0.6"/>
      </g>
     </g>
    </g>
    <g id="xtick_13">
     <g id="line2d_15">
      <g>
       <use xlink:href="#m25844031d2" x="230.883257" y="228.96" style="fill: #1a1a1a; stroke: #1a1a1a; stroke-width: 0.6"/>
      </g>
     </g>
    </g>
    <g id="xtick_14">
     <g id="line2d_16">
      <g>
       <use xlink:href="#m25844031d2" x="248.114086" y="228.96" style="fill: #1a1a1a; stroke: #1a1a1a; stroke-width: 0.6"/>
      </g>
     </g>
    </g>
    <g id="xtick_15">
     <g id="line2d_17">
      <g>
       <use xlink:href="#m25844031d2" x="265.344915" y="228.96" style="fill: #1a1a1a; stroke: #1a1a1a; stroke-width: 0.6"/>
      </g>
     </g>
    </g>
    <g id="xtick_16">
     <g id="line2d_18">
      <g>
       <use xlink:href="#m25844031d2" x="282.575744" y="228.96" style="fill: #1a1a1a; stroke: #1a1a1a; stroke-width: 0.6"/>
      </g>
     </g>
    </g>
    <g id="xtick_17">
     <g id="line2d_19">
      <g>
       <use xlink:href="#m25844031d2" x="317.037401" y="228.96" style="fill: #1a1a1a; stroke: #1a1a1a; stroke-width: 0.6"/>
      </g>
     </g>
    </g>
    <g id="xtick_18">
     <g id="line2d_20">
      <g>
       <use xlink:href="#m25844031d2" x="334.26823" y="228.96" style="fill: #1a1a1a; stroke: #1a1a1a; stroke-width: 0.6"/>
      </g>
     </g>
    </g>
    <g id="xtick_19">
     <g id="line2d_21">
      <g>
       <use xlink:href="#m25844031d2" x="351.499058" y="228.96" style="fill: #1a1a1a; stroke: #1a1a1a; stroke-width: 0.6"/>
      </g>
     </g>
    </g>
    <g id="xtick_20">
     <g id="line2d_22">
      <g>
       <use xlink:href="#m25844031d2" x="368.729887" y="228.96" style="fill: #1a1a1a; stroke: #1a1a1a; stroke-width: 0.6"/>
      </g>
     </g>
    </g>
    <g id="text_5">
     <!-- variable_1 -->
     <g style="fill: #1a1a1a" transform="translate(185.306094 268.775) scale(0.18 -0.18)">
      <defs>
       <path id="LatinModernMath-Regular-76" d="M 3251 2560 
L 3251 2758 
C 3104 2746 2918 2739 2771 2739 
L 2214 2758 
L 2214 2560 
C 2451 2554 2522 2406 2522 2285 
C 2522 2227 2509 2202 2483 2131 
L 1830 499 
L 1114 2285 
C 1075 2368 1075 2394 1075 2394 
C 1075 2560 1325 2560 1440 2560 
L 1440 2758 
L 742 2739 
C 570 2739 314 2746 122 2758 
L 122 2560 
C 525 2560 550 2522 634 2323 
L 1555 51 
C 1594 -38 1606 -70 1690 -70 
C 1773 -70 1798 -13 1824 51 
L 2662 2131 
C 2720 2278 2829 2554 3251 2560 
z
" transform="scale(0.015625)"/>
       <path id="LatinModernMath-Regular-61" d="M 3091 570 
L 3091 928 
L 2931 928 
L 2931 570 
C 2931 198 2771 160 2701 160 
C 2490 160 2464 448 2464 480 
L 2464 1760 
C 2464 2029 2464 2278 2234 2515 
C 1984 2765 1664 2867 1357 2867 
C 832 2867 390 2566 390 2144 
C 390 1952 518 1843 685 1843 
C 864 1843 979 1971 979 2138 
C 979 2214 947 2426 653 2432 
C 826 2656 1139 2726 1344 2726 
C 1658 2726 2022 2477 2022 1907 
L 2022 1670 
C 1696 1651 1248 1632 845 1440 
C 365 1222 205 890 205 608 
C 205 90 826 -70 1229 -70 
C 1651 -70 1946 186 2067 486 
C 2093 230 2266 -38 2566 -38 
C 2701 -38 3091 51 3091 570 
z
M 2022 896 
C 2022 288 1562 70 1274 70 
C 960 70 698 294 698 614 
C 698 966 966 1498 2022 1536 
L 2022 896 
z
" transform="scale(0.015625)"/>
       <path id="LatinModernMath-Regular-72" d="M 2330 2438 
C 2330 2643 2131 2829 1856 2829 
C 1389 2829 1158 2400 1069 2125 
L 1069 2829 
L 179 2758 
L 179 2560 
C 627 2560 678 2515 678 2202 
L 678 486 
C 678 198 608 198 179 198 
L 179 0 
L 909 19 
C 1165 19 1466 19 1722 0 
L 1722 198 
L 1587 198 
C 1114 198 1101 269 1101 499 
L 1101 1485 
C 1101 2118 1370 2688 1856 2688 
C 1901 2688 1914 2688 1926 2682 
C 1907 2675 1779 2598 1779 2432 
C 1779 2253 1914 2157 2054 2157 
C 2170 2157 2330 2234 2330 2438 
z
" transform="scale(0.015625)"/>
       <path id="LatinModernMath-Regular-69" d="M 1581 0 
L 1581 198 
C 1158 198 1133 230 1133 480 
L 1133 2829 
L 237 2758 
L 237 2560 
C 653 2560 710 2522 710 2208 
L 710 486 
C 710 198 640 198 211 198 
L 211 0 
L 915 19 
C 1139 19 1363 6 1581 0 
z
M 1229 3866 
C 1229 4038 1082 4205 890 4205 
C 672 4205 544 4026 544 3866 
C 544 3693 691 3526 883 3526 
C 1101 3526 1229 3706 1229 3866 
z
" transform="scale(0.015625)"/>
       <path id="LatinModernMath-Regular-62" d="M 3334 1382 
C 3334 2195 2707 2829 1978 2829 
C 1478 2829 1203 2528 1101 2413 
L 1101 4442 
L 179 4371 
L 179 4173 
C 627 4173 678 4128 678 3814 
L 678 0 
L 838 0 
L 1069 397 
C 1165 250 1434 -70 1907 -70 
C 2669 -70 3334 557 3334 1382 
z
M 2803 1389 
C 2803 1152 2790 768 2605 480 
C 2470 282 2227 70 1882 70 
C 1594 70 1363 224 1210 461 
C 1120 595 1120 614 1120 730 
L 1120 2048 
C 1120 2170 1120 2176 1190 2278 
C 1440 2637 1792 2688 1946 2688 
C 2234 2688 2464 2522 2618 2278 
C 2784 2016 2803 1651 2803 1389 
z
" transform="scale(0.015625)"/>
       <path id="LatinModernMath-Regular-6c" d="M 1632 0 
L 1632 198 
C 1203 198 1133 198 1133 486 
L 1133 4442 
L 211 4371 
L 211 4173 
C 659 4173 710 4128 710 3814 
L 710 486 
C 710 198 640 198 211 198 
L 211 0 
L 922 19 
L 1632 0 
z
" transform="scale(0.015625)"/>
       <path id="LatinModernMath-Regular-65" d="M 2656 762 
C 2656 826 2605 838 2573 838 
C 2515 838 2502 800 2490 749 
C 2266 90 1690 90 1626 90 
C 1306 90 1050 282 902 518 
C 710 826 710 1248 710 1478 
L 2496 1478 
C 2637 1478 2656 1478 2656 1613 
C 2656 2246 2310 2867 1510 2867 
C 768 2867 179 2208 179 1408 
C 179 550 851 -70 1587 -70 
C 2368 -70 2656 640 2656 762 
z
M 2234 1613 
L 717 1613 
C 755 2566 1293 2726 1510 2726 
C 2170 2726 2234 1862 2234 1613 
z
" transform="scale(0.015625)"/>
       <path id="LatinModernMath-Regular-5f" d="M 2131 -896 
L 2131 -640 
L 0 -640 
L 0 -896 
L 2131 -896 
z
" transform="scale(0.015625)"/>
      </defs>
      <use xlink:href="#LatinModernMath-Regular-76"/>
      <use xlink:href="#LatinModernMath-Regular-61" x="52.799988"/>
      <use xlink:href="#LatinModernMath-Regular-72" x="102.799973"/>
      <use xlink:href="#LatinModernMath-Regular-69" x="141.999969"/>
      <use xlink:href="#LatinModernMath-Regular-61" x="169.799957"/>
      <use xlink:href="#LatinModernMath-Regular-62" x="219.799942"/>
      <use xlink:href="#LatinModernMath-Regular-6c" x="275.399933"/>
      <use xlink:href="#LatinModernMath-Regular-65" x="303.199921"/>
      <use xlink:href="#LatinModernMath-Regular-5f" x="347.599915"/>
      <use xlink:href="#LatinModernMath-Regular-31" x="380.899902"/>
     </g>
    </g>
   </g>
   <g id="matplotlib.axis_2">
    <g id="ytick_1">
     <g id="line2d_23">
      <defs>
       <path id="m08351b9f25" d="M 0 0 
L 6 0 
" style="stroke: #1a1a1a; stroke-width: 0.8"/>
      </defs>
      <g>
       <use xlink:href="#m08351b9f25" x="56.68625" y="228.96" style="fill: #1a1a1a; stroke: #1a1a1a; stroke-width: 0.8"/>
      </g>
     </g>
     <g id="text_6">
      <!-- $\mathdefault{0}$ -->
      <g style="fill: #1a1a1a" transform="translate(44.18625 234.165469) scale(0.15 -0.15)">
       <use xlink:href="#LatinModernMath-Regular-30" transform="translate(0 0.40625)"/>
      </g>
     </g>
    </g>
    <g id="ytick_2">
     <g id="line2d_24">
      <g>
       <use xlink:href="#m08351b9f25" x="56.68625" y="182.026667" style="fill: #1a1a1a; stroke: #1a1a1a; stroke-width: 0.8"/>
      </g>
     </g>
     <g id="text_7">
      <!-- $\mathdefault{200}$ -->
      <g style="fill: #1a1a1a" transform="translate(29.18625 187.232135) scale(0.15 -0.15)">
       <defs>
        <path id="LatinModernMath-Regular-32" d="M 2874 1114 
L 2714 1114 
C 2682 922 2637 640 2573 544 
C 2528 493 2106 493 1965 493 
L 813 493 
L 1491 1152 
C 2490 2035 2874 2381 2874 3021 
C 2874 3750 2298 4262 1517 4262 
C 794 4262 320 3674 320 3104 
C 320 2746 640 2746 659 2746 
C 768 2746 992 2822 992 3085 
C 992 3251 877 3418 653 3418 
C 602 3418 589 3418 570 3411 
C 717 3827 1062 4064 1434 4064 
C 2016 4064 2291 3546 2291 3021 
C 2291 2509 1971 2003 1619 1606 
L 390 237 
C 320 166 320 154 320 0 
L 2694 0 
L 2874 1114 
z
" transform="scale(0.015625)"/>
       </defs>
       <use xlink:href="#LatinModernMath-Regular-32" transform="translate(0 0.40625)"/>
       <use xlink:href="#LatinModernMath-Regular-30" transform="translate(49.999985 0.40625)"/>
       <use xlink:href="#LatinModernMath-Regular-30" transform="translate(99.999969 0.40625)"/>
      </g>
     </g>
    </g>
    <g id="ytick_3">
     <g id="line2d_25">
      <g>
       <use xlink:href="#m08351b9f25" x="56.68625" y="135.093333" style="fill: #1a1a1a; stroke: #1a1a1a; stroke-width: 0.8"/>
      </g>
     </g>
     <g id="text_8">
      <!-- $\mathdefault{400}$ -->
      <g style="fill: #1a1a1a" transform="translate(29.18625 140.298802) scale(0.15 -0.15)">
       <defs>
        <path id="LatinModernMath-Regular-34" d="M 3014 1056 
L 3014 1254 
L 2374 1254 
L 2374 4166 
C 2374 4294 2374 4333 2272 4333 
C 2214 4333 2195 4333 2144 4256 
L 179 1254 
L 179 1056 
L 1882 1056 
L 1882 499 
C 1882 269 1869 198 1395 198 
L 1261 198 
L 1261 0 
C 1523 19 1856 19 2125 19 
C 2394 19 2733 19 2995 0 
L 2995 198 
L 2861 198 
C 2387 198 2374 269 2374 499 
L 2374 1056 
L 3014 1056 
z
M 1920 1254 
L 358 1254 
L 1920 3642 
L 1920 1254 
z
" transform="scale(0.015625)"/>
       </defs>
       <use xlink:href="#LatinModernMath-Regular-34" transform="translate(0 0.296875)"/>
       <use xlink:href="#LatinModernMath-Regular-30" transform="translate(49.999985 0.296875)"/>
       <use xlink:href="#LatinModernMath-Regular-30" transform="translate(99.999969 0.296875)"/>
      </g>
     </g>
    </g>
    <g id="ytick_4">
     <g id="line2d_26">
      <g>
       <use xlink:href="#m08351b9f25" x="56.68625" y="88.16" style="fill: #1a1a1a; stroke: #1a1a1a; stroke-width: 0.8"/>
      </g>
     </g>
     <g id="text_9">
      <!-- $\mathdefault{600}$ -->
      <g style="fill: #1a1a1a" transform="translate(29.18625 93.365469) scale(0.15 -0.15)">
       <defs>
        <path id="LatinModernMath-Regular-36" d="M 2925 1306 
C 2925 2118 2355 2733 1645 2733 
C 1210 2733 973 2406 845 2099 
L 845 2253 
C 845 3872 1638 4102 1965 4102 
C 2118 4102 2387 4064 2528 3846 
C 2432 3846 2176 3846 2176 3558 
C 2176 3360 2330 3264 2470 3264 
C 2573 3264 2765 3322 2765 3571 
C 2765 3955 2483 4262 1952 4262 
C 1133 4262 269 3437 269 2022 
C 269 314 1011 -141 1606 -141 
C 2317 -141 2925 461 2925 1306 
z
M 2349 1312 
C 2349 1005 2349 685 2240 454 
C 2048 70 1754 38 1606 38 
C 1203 38 1011 422 973 518 
C 858 819 858 1331 858 1446 
C 858 1946 1062 2586 1638 2586 
C 1741 2586 2035 2586 2234 2189 
C 2349 1952 2349 1626 2349 1312 
z
" transform="scale(0.015625)"/>
       </defs>
       <use xlink:href="#LatinModernMath-Regular-36" transform="translate(0 0.40625)"/>
       <use xlink:href="#LatinModernMath-Regular-30" transform="translate(49.999985 0.40625)"/>
       <use xlink:href="#LatinModernMath-Regular-30" transform="translate(99.999969 0.40625)"/>
      </g>
     </g>
    </g>
    <g id="ytick_5">
     <g id="line2d_27">
      <g>
       <use xlink:href="#m08351b9f25" x="56.68625" y="41.226667" style="fill: #1a1a1a; stroke: #1a1a1a; stroke-width: 0.8"/>
      </g>
     </g>
     <g id="text_10">
      <!-- $\mathdefault{800}$ -->
      <g style="fill: #1a1a1a" transform="translate(29.18625 46.432135) scale(0.15 -0.15)">
       <defs>
        <path id="LatinModernMath-Regular-38" d="M 2925 1075 
C 2925 1306 2854 1594 2611 1862 
C 2490 1997 2387 2061 1978 2317 
C 2438 2554 2752 2886 2752 3309 
C 2752 3898 2182 4262 1600 4262 
C 960 4262 442 3789 442 3194 
C 442 3078 454 2790 723 2490 
C 794 2413 1030 2253 1190 2144 
C 819 1958 269 1600 269 966 
C 269 288 922 -141 1594 -141 
C 2317 -141 2925 390 2925 1075 
z
M 2470 3309 
C 2470 2944 2221 2637 1837 2413 
L 1043 2925 
C 749 3117 723 3334 723 3443 
C 723 3834 1139 4102 1594 4102 
C 2061 4102 2470 3770 2470 3309 
z
M 2605 845 
C 2605 371 2125 38 1600 38 
C 1050 38 589 435 589 966 
C 589 1338 794 1747 1338 2048 
L 2125 1549 
C 2304 1427 2605 1235 2605 845 
z
" transform="scale(0.015625)"/>
       </defs>
       <use xlink:href="#LatinModernMath-Regular-38" transform="translate(0 0.40625)"/>
       <use xlink:href="#LatinModernMath-Regular-30" transform="translate(49.999985 0.40625)"/>
       <use xlink:href="#LatinModernMath-Regular-30" transform="translate(99.999969 0.40625)"/>
      </g>
     </g>
    </g>
    <g id="ytick_6">
     <g id="line2d_28">
      <defs>
       <path id="mdd68ba89ae" d="M 0 0 
L 3 0 
" style="stroke: #1a1a1a; stroke-width: 0.6"/>
      </defs>
      <g>
       <use xlink:href="#mdd68ba89ae" x="56.68625" y="217.226667" style="fill: #1a1a1a; stroke: #1a1a1a; stroke-width: 0.6"/>
      </g>
     </g>
    </g>
    <g id="ytick_7">
     <g id="line2d_29">
      <g>
       <use xlink:href="#mdd68ba89ae" x="56.68625" y="205.493333" style="fill: #1a1a1a; stroke: #1a1a1a; stroke-width: 0.6"/>
      </g>
     </g>
    </g>
    <g id="ytick_8">
     <g id="line2d_30">
      <g>
       <use xlink:href="#mdd68ba89ae" x="56.68625" y="193.76" style="fill: #1a1a1a; stroke: #1a1a1a; stroke-width: 0.6"/>
      </g>
     </g>
    </g>
    <g id="ytick_9">
     <g id="line2d_31">
      <g>
       <use xlink:href="#mdd68ba89ae" x="56.68625" y="170.293333" style="fill: #1a1a1a; stroke: #1a1a1a; stroke-width: 0.6"/>
      </g>
     </g>
    </g>
    <g id="ytick_10">
     <g id="line2d_32">
      <g>
       <use xlink:href="#mdd68ba89ae" x="56.68625" y="158.56" style="fill: #1a1a1a; stroke: #1a1a1a; stroke-width: 0.6"/>
      </g>
     </g>
    </g>
    <g id="ytick_11">
     <g id="line2d_33">
      <g>
       <use xlink:href="#mdd68ba89ae" x="56.68625" y="146.826667" style="fill: #1a1a1a; stroke: #1a1a1a; stroke-width: 0.6"/>
      </g>
     </g>
    </g>
    <g id="ytick_12">
     <g id="line2d_34">
      <g>
       <use xlink:href="#mdd68ba89ae" x="56.68625" y="123.36" style="fill: #1a1a1a; stroke: #1a1a1a; stroke-width: 0.6"/>
      </g>
     </g>
    </g>
    <g id="ytick_13">
     <g id="line2d_35">
      <g>
       <use xlink:href="#mdd68ba89ae" x="56.68625" y="111.626667" style="fill: #1a1a1a; stroke: #1a1a1a; stroke-width: 0.6"/>
      </g>
     </g>
    </g>
    <g id="ytick_14">
     <g id="line2d_36">
      <g>
       <use xlink:href="#mdd68ba89ae" x="56.68625" y="99.893333" style="fill: #1a1a1a; stroke: #1a1a1a; stroke-width: 0.6"/>
      </g>
     </g>
    </g>
    <g id="ytick_15">
     <g id="line2d_37">
      <g>
       <use xlink:href="#mdd68ba89ae" x="56.68625" y="76.426667" style="fill: #1a1a1a; stroke: #1a1a1a; stroke-width: 0.6"/>
      </g>
     </g>
    </g>
    <g id="ytick_16">
     <g id="line2d_38">
      <g>
       <use xlink:href="#mdd68ba89ae" x="56.68625" y="64.693333" style="fill: #1a1a1a; stroke: #1a1a1a; stroke-width: 0.6"/>
      </g>
     </g>
    </g>
    <g id="ytick_17">
     <g id="line2d_39">
      <g>
       <use xlink:href="#mdd68ba89ae" x="56.68625" y="52.96" style="fill: #1a1a1a; stroke: #1a1a1a; stroke-width: 0.6"/>
      </g>
     </g>
    </g>
    <g id="ytick_18">
     <g id="line2d_40">
      <g>
       <use xlink:href="#mdd68ba89ae" x="56.68625" y="29.493333" style="fill: #1a1a1a; stroke: #1a1a1a; stroke-width: 0.6"/>
      </g>
     </g>
    </g>
    <g id="ytick_19">
     <g id="line2d_41">
      <g>
       <use xlink:href="#mdd68ba89ae" x="56.68625" y="17.76" style="fill: #1a1a1a; stroke: #1a1a1a; stroke-width: 0.6"/>
      </g>
     </g>
    </g>
    <g id="text_11">
     <!-- Entries -->
     <g style="fill: #1a1a1a" transform="translate(19.693125 146.286562) rotate(-90) scale(0.18 -0.18)">
      <defs>
       <path id="LatinModernMath-Regular-45" d="M 4173 1651 
L 4013 1651 
C 3853 666 3706 198 2605 198 
L 1754 198 
C 1453 198 1440 243 1440 454 
L 1440 2163 
L 2016 2163 
C 2637 2163 2707 1958 2707 1414 
L 2867 1414 
L 2867 3110 
L 2707 3110 
C 2707 2560 2637 2362 2016 2362 
L 1440 2362 
L 1440 3898 
C 1440 4109 1453 4154 1754 4154 
L 2579 4154 
C 3558 4154 3731 3802 3834 2912 
L 3994 2912 
L 3814 4352 
L 211 4352 
L 211 4154 
L 365 4154 
C 858 4154 870 4083 870 3853 
L 870 499 
C 870 269 858 198 365 198 
L 211 198 
L 211 0 
L 3904 0 
L 4173 1651 
z
" transform="scale(0.015625)"/>
       <path id="LatinModernMath-Regular-6e" d="M 3424 0 
L 3424 198 
C 3091 198 2931 198 2925 390 
L 2925 1613 
C 2925 2163 2925 2362 2726 2592 
C 2637 2701 2426 2829 2054 2829 
C 1587 2829 1286 2554 1107 2157 
L 1107 2829 
L 205 2758 
L 205 2560 
C 653 2560 704 2515 704 2202 
L 704 486 
C 704 198 634 198 205 198 
L 205 0 
L 928 19 
L 1645 0 
L 1645 198 
C 1216 198 1146 198 1146 486 
L 1146 1664 
C 1146 2330 1600 2688 2010 2688 
C 2413 2688 2483 2342 2483 1978 
L 2483 486 
C 2483 198 2413 198 1984 198 
L 1984 0 
L 2707 19 
L 3424 0 
z
" transform="scale(0.015625)"/>
       <path id="LatinModernMath-Regular-74" d="M 2125 794 
L 2125 1158 
L 1965 1158 
L 1965 806 
C 1965 333 1773 90 1536 90 
C 1107 90 1107 672 1107 781 
L 1107 2560 
L 2022 2560 
L 2022 2758 
L 1107 2758 
L 1107 3936 
L 947 3936 
C 941 3411 749 2726 122 2701 
L 122 2560 
L 666 2560 
L 666 794 
C 666 6 1261 -70 1491 -70 
C 1946 -70 2125 384 2125 794 
z
" transform="scale(0.015625)"/>
       <path id="LatinModernMath-Regular-73" d="M 2304 819 
C 2304 1158 2112 1350 2035 1427 
C 1824 1632 1574 1683 1306 1734 
C 947 1805 518 1888 518 2259 
C 518 2483 685 2746 1235 2746 
C 1939 2746 1971 2170 1984 1971 
C 1990 1914 2061 1914 2061 1914 
C 2144 1914 2144 1946 2144 2067 
L 2144 2714 
C 2144 2822 2144 2867 2074 2867 
C 2042 2867 2029 2867 1946 2790 
C 1926 2765 1862 2707 1837 2688 
C 1594 2867 1331 2867 1235 2867 
C 454 2867 211 2438 211 2080 
C 211 1856 314 1677 486 1536 
C 691 1370 870 1331 1331 1242 
C 1472 1216 1997 1114 1997 653 
C 1997 326 1773 70 1274 70 
C 736 70 506 435 384 979 
C 365 1062 358 1088 294 1088 
C 211 1088 211 1043 211 928 
L 211 83 
C 211 -26 211 -70 282 -70 
C 314 -70 320 -64 442 58 
C 454 70 454 83 570 205 
C 851 -64 1139 -70 1274 -70 
C 2010 -70 2304 358 2304 819 
z
" transform="scale(0.015625)"/>
      </defs>
      <use xlink:href="#LatinModernMath-Regular-45"/>
      <use xlink:href="#LatinModernMath-Regular-6e" x="68.099991"/>
      <use xlink:href="#LatinModernMath-Regular-74" x="123.699982"/>
      <use xlink:href="#LatinModernMath-Regular-72" x="162.599976"/>
      <use xlink:href="#LatinModernMath-Regular-69" x="201.799973"/>
      <use xlink:href="#LatinModernMath-Regular-65" x="229.59996"/>
      <use xlink:href="#LatinModernMath-Regular-73" x="273.999954"/>
     </g>
    </g>
   </g>
   <g id="legend_1">
    <g id="patch_9">
     <path d="M 67.48625 26.4 
L 91.48625 26.4 
L 91.48625 18 
L 67.48625 18 
L 67.48625 26.4 
z
" style="fill: none; stroke: #348abd; stroke-width: 1.2; stroke-linejoin: miter"/>
    </g>
    <g id="text_12">
     <!-- c1 -->
     <g style="fill: #1a1a1a" transform="translate(101.08625 26.4) scale(0.12 -0.12)">
      <defs>
       <path id="LatinModernMath-Regular-63" d="M 2656 762 
C 2656 826 2592 826 2573 826 
C 2515 826 2502 800 2490 762 
C 2304 166 1888 90 1651 90 
C 1312 90 749 365 749 1395 
C 749 2438 1274 2707 1613 2707 
C 1670 2707 2074 2701 2298 2470 
C 2035 2451 1997 2259 1997 2176 
C 1997 2010 2112 1882 2291 1882 
C 2458 1882 2586 1990 2586 2182 
C 2586 2618 2099 2867 1606 2867 
C 806 2867 218 2176 218 1382 
C 218 563 851 -70 1594 -70 
C 2451 -70 2656 698 2656 762 
z
" transform="scale(0.015625)"/>
      </defs>
      <use xlink:href="#LatinModernMath-Regular-63"/>
      <use xlink:href="#LatinModernMath-Regular-31" x="44.399994"/>
     </g>
    </g>
    <g id="patch_10">
     <path d="M 67.48625 43.12875 
L 91.48625 43.12875 
L 91.48625 34.72875 
L 67.48625 34.72875 
L 67.48625 43.12875 
z
" style="fill: none; stroke: #e24a33; stroke-width: 1.2; stroke-linejoin: miter"/>
    </g>
    <g id="text_13">
     <!-- c2 -->
     <g style="fill: #1a1a1a" transform="translate(101.08625 43.12875) scale(0.12 -0.12)">
      <use xlink:href="#LatinModernMath-Regular-63"/>
      <use xlink:href="#LatinModernMath-Regular-32" x="44.399994"/>
     </g>
    </g>
    <g id="line2d_42">
     <path d="M 67.48625 55.6575 
L 79.48625 55.6575 
L 91.48625 55.6575 
" style="fill: none; stroke: #008000; stroke-width: 1.5; stroke-linecap: round"/>
    </g>
    <g id="text_14">
     <!-- Gaussian -->
     <g style="fill: #1a1a1a" transform="translate(101.08625 59.8575) scale(0.12 -0.12)">
      <defs>
       <path id="LatinModernMath-Regular-47" d="M 4704 1549 
L 4704 1747 
L 3923 1728 
C 3667 1728 3123 1728 2893 1747 
L 2893 1549 
L 3098 1549 
C 3674 1549 3693 1478 3693 1242 
L 3693 832 
C 3693 115 2880 58 2701 58 
C 2285 58 1018 282 1018 2189 
C 1018 4102 2278 4314 2662 4314 
C 3347 4314 3930 3738 4058 2797 
C 4070 2707 4070 2688 4160 2688 
C 4262 2688 4262 2707 4262 2842 
L 4262 4358 
C 4262 4467 4262 4512 4192 4512 
C 4166 4512 4141 4512 4090 4435 
L 3770 3962 
C 3565 4166 3219 4512 2586 4512 
C 1395 4512 358 3501 358 2189 
C 358 877 1382 -141 2598 -141 
C 3066 -141 3578 26 3795 403 
C 3878 262 4134 6 4205 6 
C 4262 6 4262 58 4262 154 
L 4262 1267 
C 4262 1517 4288 1549 4704 1549 
z
" transform="scale(0.015625)"/>
       <path id="LatinModernMath-Regular-75" d="M 3424 0 
L 3424 198 
C 2976 198 2925 243 2925 557 
L 2925 2829 
L 1984 2758 
L 1984 2560 
C 2432 2560 2483 2515 2483 2202 
L 2483 1062 
C 2483 506 2176 70 1709 70 
C 1171 70 1146 371 1146 704 
L 1146 2829 
L 205 2758 
L 205 2560 
C 704 2560 704 2541 704 1971 
L 704 1011 
C 704 512 704 -70 1677 -70 
C 2035 -70 2317 109 2502 506 
L 2502 -70 
L 3424 0 
z
" transform="scale(0.015625)"/>
      </defs>
      <use xlink:href="#LatinModernMath-Regular-47"/>
      <use xlink:href="#LatinModernMath-Regular-61" x="78.499985"/>
      <use xlink:href="#LatinModernMath-Regular-75" x="128.499969"/>
      <use xlink:href="#LatinModernMath-Regular-73" x="184.09996"/>
      <use xlink:href="#LatinModernMath-Regular-73" x="223.499954"/>
      <use xlink:href="#LatinModernMath-Regular-69" x="262.899948"/>
      <use xlink:href="#LatinModernMath-Regular-61" x="290.699936"/>
      <use xlink:href="#LatinModernMath-Regular-6e" x="340.699921"/>
     </g>
    </g>
    <g id="LineCollection_2">
     <path d="M 79.48625 78.38625 
L 79.48625 66.38625 
" style="fill: none; stroke: #000000; stroke-width: 1.5"/>
    </g>
    <g id="line2d_43"/>
    <g id="line2d_44">
     <g>
      <use xlink:href="#m15114484f9" x="79.48625" y="72.38625" style="stroke: #000000"/>
     </g>
    </g>
    <g id="text_15">
     <!-- c3 -->
     <g style="fill: #1a1a1a" transform="translate(101.08625 76.58625) scale(0.12 -0.12)">
      <defs>
       <path id="LatinModernMath-Regular-33" d="M 2925 1094 
C 2925 1619 2522 2118 1856 2253 
C 2381 2426 2752 2874 2752 3379 
C 2752 3904 2189 4262 1574 4262 
C 928 4262 442 3878 442 3392 
C 442 3181 582 3059 768 3059 
C 966 3059 1094 3200 1094 3386 
C 1094 3706 794 3706 698 3706 
C 896 4019 1318 4102 1549 4102 
C 1811 4102 2163 3962 2163 3386 
C 2163 3309 2150 2938 1984 2656 
C 1792 2349 1574 2330 1414 2323 
C 1363 2317 1210 2304 1165 2304 
C 1114 2298 1069 2291 1069 2227 
C 1069 2157 1114 2157 1222 2157 
L 1504 2157 
C 2029 2157 2266 1722 2266 1094 
C 2266 224 1824 38 1542 38 
C 1267 38 787 147 563 525 
C 787 493 986 634 986 877 
C 986 1107 813 1235 627 1235 
C 474 1235 269 1146 269 864 
C 269 282 864 -141 1562 -141 
C 2342 -141 2925 442 2925 1094 
z
" transform="scale(0.015625)"/>
      </defs>
      <use xlink:href="#LatinModernMath-Regular-63"/>
      <use xlink:href="#LatinModernMath-Regular-33" x="44.399994"/>
     </g>
    </g>
   </g>
  </g>
 </g>
 <defs>
  <clipPath id="p1750562075">
   <rect x="56.68625" y="7.2" width="334.8" height="221.76"/>
  </clipPath>
 </defs>
</svg>
