<?xml version="1.0" encoding="utf-8" standalone="no"?>
<!DOCTYPE svg PUBLIC "-//W3C//DTD SVG 1.1//EN"
  "http://www.w3.org/Graphics/SVG/1.1/DTD/svg11.dtd">
<svg xmlns:xlink="http://www.w3.org/1999/xlink" width="398.68625pt" height="279.468125pt" viewBox="0 0 398.68625 279.468125" xmlns="http://www.w3.org/2000/svg" version="1.1">
 <metadata>
  <rdf:RDF xmlns:dc="http://purl.org/dc/elements/1.1/" xmlns:cc="http://creativecommons.org/ns#" xmlns:rdf="http://www.w3.org/1999/02/22-rdf-syntax-ns#">
   <cc:Work>
    <dc:creator>
     <cc:Agent>
      <dc:title>カリビアンカフェ</dc:title>
     </cc:Agent>
    </dc:creator>
   </cc:Work>
  </rdf:RDF>
 </metadata>
 <defs>
  <style type="text/css">*{stroke-linejoin: round; stroke-linecap: butt}</style>
 </defs>
 <g id="figure_1">
  <g id="patch_1">
   <path d="M 0 279.468125 
L 398.68625 279.468125 
L 398.68625 0 
L 0 0 
z
" style="fill: #ffffff"/>
  </g>
  <g id="axes_1">
   <g id="patch_2">
    <path d="M 56.68625 228.96 
L 391.48625 228.96 
L 391.48625 7.2 
L 56.68625 7.2 
z
" style="fill: #ffffff"/>
   </g>
   <g id="LineCollection_1">
    <path d="M 71.904432 228.96 
L 71.904432 228.388172 
" clip-path="url(#p84dd827483)" style="fill: none; stroke: #000000"/>
    <path d="M 78.115935 228.96 
L 78.115935 228.388172 
" clip-path="url(#p84dd827483)" style="fill: none; stroke: #000000"/>
    <path d="M 84.327437 228.792515 
L 84.327437 227.983828 
" clip-path="url(#p84dd827483)" style="fill: none; stroke: #000000"/>
    <path d="M 90.53894 227.944859 
L 90.53894 226.544172 
" clip-path="url(#p84dd827483)" style="fill: none; stroke: #000000"/>
    <path d="M 96.750443 227.481374 
L 96.750443 225.864 
" clip-path="url(#p84dd827483)" style="fill: none; stroke: #000000"/>
    <path d="M 102.961946 225.778629 
L 102.961946 223.563947 
" clip-path="url(#p84dd827483)" style="fill: none; stroke: #000000"/>
    <path d="M 109.173449 224.520364 
L 109.173449 221.963071 
" clip-path="url(#p84dd827483)" style="fill: none; stroke: #000000"/>
    <path d="M 115.384951 221.428122 
L 115.384951 218.193373 
" clip-path="url(#p84dd827483)" style="fill: none; stroke: #000000"/>
    <path d="M 121.596454 220.644496 
L 121.596454 217.261515 
" clip-path="url(#p84dd827483)" style="fill: none; stroke: #000000"/>
    <path d="M 127.807957 211.875548 
L 127.807957 207.160131 
" clip-path="url(#p84dd827483)" style="fill: none; stroke: #000000"/>
    <path d="M 134.01946 210.800245 
L 134.01946 205.948121 
" clip-path="url(#p84dd827483)" style="fill: none; stroke: #000000"/>
    <path d="M 140.230962 206.481669 
L 140.230962 201.117444 
" clip-path="url(#p84dd827483)" style="fill: none; stroke: #000000"/>
    <path d="M 146.442465 201.052581 
L 146.442465 195.109967 
" clip-path="url(#p84dd827483)" style="fill: none; stroke: #000000"/>
    <path d="M 152.653968 187.379453 
L 152.653968 180.191683 
" clip-path="url(#p84dd827483)" style="fill: none; stroke: #000000"/>
    <path d="M 158.865471 186.006304 
L 158.865471 178.70569 
" clip-path="url(#p84dd827483)" style="fill: none; stroke: #000000"/>
    <path d="M 165.076974 181.056124 
L 165.076974 173.362962 
" clip-path="url(#p84dd827483)" style="fill: none; stroke: #000000"/>
    <path d="M 171.288476 179.403875 
L 171.288476 171.584241 
" clip-path="url(#p84dd827483)" style="fill: none; stroke: #000000"/>
    <path d="M 177.499979 174.717188 
L 177.499979 166.549847 
" clip-path="url(#p84dd827483)" style="fill: none; stroke: #000000"/>
    <path d="M 183.711482 167.81233 
L 183.711482 159.158999 
" clip-path="url(#p84dd827483)" style="fill: none; stroke: #000000"/>
    <path d="M 189.922985 167.535853 
L 189.922985 158.863648 
" clip-path="url(#p84dd827483)" style="fill: none; stroke: #000000"/>
    <path d="M 196.134487 160.063621 
L 196.134487 150.896517 
" clip-path="url(#p84dd827483)" style="fill: none; stroke: #000000"/>
    <path d="M 202.34599 150.081222 
L 202.34599 140.293099 
" clip-path="url(#p84dd827483)" style="fill: none; stroke: #000000"/>
    <path d="M 208.557493 136.186658 
L 208.557493 125.59625 
" clip-path="url(#p84dd827483)" style="fill: none; stroke: #000000"/>
    <path d="M 214.768996 113.340766 
L 214.768996 101.552225 
" clip-path="url(#p84dd827483)" style="fill: none; stroke: #000000"/>
    <path d="M 220.980499 106.084618 
L 220.980499 93.940838 
" clip-path="url(#p84dd827483)" style="fill: none; stroke: #000000"/>
    <path d="M 227.192001 70.855441 
L 227.192001 57.119655 
" clip-path="url(#p84dd827483)" style="fill: none; stroke: #000000"/>
    <path d="M 233.403504 53.488338 
L 233.403504 39.033406 
" clip-path="url(#p84dd827483)" style="fill: none; stroke: #000000"/>
    <path d="M 239.615007 35.262613 
L 239.615007 20.090294 
" clip-path="url(#p84dd827483)" style="fill: none; stroke: #000000"/>
    <path d="M 245.82651 33.018281 
L 245.82651 17.76 
" clip-path="url(#p84dd827483)" style="fill: none; stroke: #000000"/>
    <path d="M 252.038013 38.067682 
L 252.038013 23.003507 
" clip-path="url(#p84dd827483)" style="fill: none; stroke: #000000"/>
    <path d="M 258.249515 36.665196 
L 258.249515 21.546853 
" clip-path="url(#p84dd827483)" style="fill: none; stroke: #000000"/>
    <path d="M 264.461018 53.488338 
L 264.461018 39.033406 
" clip-path="url(#p84dd827483)" style="fill: none; stroke: #000000"/>
    <path d="M 270.672521 54.048846 
L 270.672521 39.616554 
" clip-path="url(#p84dd827483)" style="fill: none; stroke: #000000"/>
    <path d="M 276.884024 80.09132 
L 276.884024 66.754108 
" clip-path="url(#p84dd827483)" style="fill: none; stroke: #000000"/>
    <path d="M 283.095526 112.78279 
L 283.095526 100.966544 
" clip-path="url(#p84dd827483)" style="fill: none; stroke: #000000"/>
    <path d="M 289.307029 135.073788 
L 289.307029 124.421807 
" clip-path="url(#p84dd827483)" style="fill: none; stroke: #000000"/>
    <path d="M 295.518532 156.461234 
L 295.518532 147.065137 
" clip-path="url(#p84dd827483)" style="fill: none; stroke: #000000"/>
    <path d="M 301.730035 176.372171 
L 301.730035 168.325834 
" clip-path="url(#p84dd827483)" style="fill: none; stroke: #000000"/>
    <path d="M 307.941538 188.202912 
L 307.941538 181.083708 
" clip-path="url(#p84dd827483)" style="fill: none; stroke: #000000"/>
    <path d="M 314.15304 199.145963 
L 314.15304 193.013788 
" clip-path="url(#p84dd827483)" style="fill: none; stroke: #000000"/>
    <path d="M 320.364543 211.33814 
L 320.364543 206.553882 
" clip-path="url(#p84dd827483)" style="fill: none; stroke: #000000"/>
    <path d="M 326.576046 218.804542 
L 326.576046 215.098671 
" clip-path="url(#p84dd827483)" style="fill: none; stroke: #000000"/>
    <path d="M 332.787549 222.208185 
L 332.787549 219.128796 
" clip-path="url(#p84dd827483)" style="fill: none; stroke: #000000"/>
    <path d="M 338.999051 224.010945 
L 338.999051 221.328833 
" clip-path="url(#p84dd827483)" style="fill: none; stroke: #000000"/>
    <path d="M 345.210554 228.388172 
L 345.210554 227.244515 
" clip-path="url(#p84dd827483)" style="fill: none; stroke: #000000"/>
    <path d="M 351.422057 227.004999 
L 351.422057 225.196719 
" clip-path="url(#p84dd827483)" style="fill: none; stroke: #000000"/>
    <path d="M 357.63356 228.96 
L 357.63356 228.388172 
" clip-path="url(#p84dd827483)" style="fill: none; stroke: #000000"/>
    <path d="M 363.845063 228.96 
L 363.845063 228.96 
" clip-path="url(#p84dd827483)" style="fill: none; stroke: #000000"/>
    <path d="M 370.056565 228.597475 
L 370.056565 227.60704 
" clip-path="url(#p84dd827483)" style="fill: none; stroke: #000000"/>
    <path d="M 376.268068 228.96 
L 376.268068 228.388172 
" clip-path="url(#p84dd827483)" style="fill: none; stroke: #000000"/>
   </g>
   <g id="line2d_1">
    <defs>
     <path id="mb27cb91d61" d="M 0 2.5 
C 0.663008 2.5 1.29895 2.236584 1.767767 1.767767 
C 2.236584 1.29895 2.5 0.663008 2.5 0 
C 2.5 -0.663008 2.236584 -1.29895 1.767767 -1.767767 
C 1.29895 -2.236584 0.663008 -2.5 0 -2.5 
C -0.663008 -2.5 -1.29895 -2.236584 -1.767767 -1.767767 
C -2.236584 -1.29895 -2.5 -0.663008 -2.5 0 
C -2.5 0.663008 -2.236584 1.29895 -1.767767 1.767767 
C -1.29895 2.236584 -0.663008 2.5 0 2.5 
z
" style="stroke: #000000"/>
    </defs>
    <g clip-path="url(#p84dd827483)">
     <use xlink:href="#mb27cb91d61" x="71.904432" y="228.674086" style="stroke: #000000"/>
     <use xlink:href="#mb27cb91d61" x="78.115935" y="228.674086" style="stroke: #000000"/>
     <use xlink:href="#mb27cb91d61" x="84.327437" y="228.388172" style="stroke: #000000"/>
     <use xlink:href="#mb27cb91d61" x="90.53894" y="227.244515" style="stroke: #000000"/>
     <use xlink:href="#mb27cb91d61" x="96.750443" y="226.672687" style="stroke: #000000"/>
     <use xlink:href="#mb27cb91d61" x="102.961946" y="224.671288" style="stroke: #000000"/>
     <use xlink:href="#mb27cb91d61" x="109.173449" y="223.241717" style="stroke: #000000"/>
     <use xlink:href="#mb27cb91d61" x="115.384951" y="219.810748" style="stroke: #000000"/>
     <use xlink:href="#mb27cb91d61" x="121.596454" y="218.953006" style="stroke: #000000"/>
     <use xlink:href="#mb27cb91d61" x="127.807957" y="209.517839" style="stroke: #000000"/>
     <use xlink:href="#mb27cb91d61" x="134.01946" y="208.374183" style="stroke: #000000"/>
     <use xlink:href="#mb27cb91d61" x="140.230962" y="203.799557" style="stroke: #000000"/>
     <use xlink:href="#mb27cb91d61" x="146.442465" y="198.081274" style="stroke: #000000"/>
     <use xlink:href="#mb27cb91d61" x="152.653968" y="183.785568" style="stroke: #000000"/>
     <use xlink:href="#mb27cb91d61" x="158.865471" y="182.355997" style="stroke: #000000"/>
     <use xlink:href="#mb27cb91d61" x="165.076974" y="177.209543" style="stroke: #000000"/>
     <use xlink:href="#mb27cb91d61" x="171.288476" y="175.494058" style="stroke: #000000"/>
     <use xlink:href="#mb27cb91d61" x="177.499979" y="170.633518" style="stroke: #000000"/>
     <use xlink:href="#mb27cb91d61" x="183.711482" y="163.485665" style="stroke: #000000"/>
     <use xlink:href="#mb27cb91d61" x="189.922985" y="163.19975" style="stroke: #000000"/>
     <use xlink:href="#mb27cb91d61" x="196.134487" y="155.480069" style="stroke: #000000"/>
     <use xlink:href="#mb27cb91d61" x="202.34599" y="145.18716" style="stroke: #000000"/>
     <use xlink:href="#mb27cb91d61" x="208.557493" y="130.891454" style="stroke: #000000"/>
     <use xlink:href="#mb27cb91d61" x="214.768996" y="107.446495" style="stroke: #000000"/>
     <use xlink:href="#mb27cb91d61" x="220.980499" y="100.012728" style="stroke: #000000"/>
     <use xlink:href="#mb27cb91d61" x="227.192001" y="63.987548" style="stroke: #000000"/>
     <use xlink:href="#mb27cb91d61" x="233.403504" y="46.260872" style="stroke: #000000"/>
     <use xlink:href="#mb27cb91d61" x="239.615007" y="27.676454" style="stroke: #000000"/>
     <use xlink:href="#mb27cb91d61" x="245.82651" y="25.389141" style="stroke: #000000"/>
     <use xlink:href="#mb27cb91d61" x="252.038013" y="30.535595" style="stroke: #000000"/>
     <use xlink:href="#mb27cb91d61" x="258.249515" y="29.106024" style="stroke: #000000"/>
     <use xlink:href="#mb27cb91d61" x="264.461018" y="46.260872" style="stroke: #000000"/>
     <use xlink:href="#mb27cb91d61" x="270.672521" y="46.8327" style="stroke: #000000"/>
     <use xlink:href="#mb27cb91d61" x="276.884024" y="73.422714" style="stroke: #000000"/>
     <use xlink:href="#mb27cb91d61" x="283.095526" y="106.874667" style="stroke: #000000"/>
     <use xlink:href="#mb27cb91d61" x="289.307029" y="129.747797" style="stroke: #000000"/>
     <use xlink:href="#mb27cb91d61" x="295.518532" y="151.763185" style="stroke: #000000"/>
     <use xlink:href="#mb27cb91d61" x="301.730035" y="172.349003" style="stroke: #000000"/>
     <use xlink:href="#mb27cb91d61" x="307.941538" y="184.64331" style="stroke: #000000"/>
     <use xlink:href="#mb27cb91d61" x="314.15304" y="196.079875" style="stroke: #000000"/>
     <use xlink:href="#mb27cb91d61" x="320.364543" y="208.946011" style="stroke: #000000"/>
     <use xlink:href="#mb27cb91d61" x="326.576046" y="216.951607" style="stroke: #000000"/>
     <use xlink:href="#mb27cb91d61" x="332.787549" y="220.66849" style="stroke: #000000"/>
     <use xlink:href="#mb27cb91d61" x="338.999051" y="222.669889" style="stroke: #000000"/>
     <use xlink:href="#mb27cb91d61" x="345.210554" y="227.816343" style="stroke: #000000"/>
     <use xlink:href="#mb27cb91d61" x="351.422057" y="226.100859" style="stroke: #000000"/>
     <use xlink:href="#mb27cb91d61" x="357.63356" y="228.674086" style="stroke: #000000"/>
     <use xlink:href="#mb27cb91d61" x="363.845063" y="228.96" style="stroke: #000000"/>
     <use xlink:href="#mb27cb91d61" x="370.056565" y="228.102258" style="stroke: #000000"/>
     <use xlink:href="#mb27cb91d61" x="376.268068" y="228.674086" style="stroke: #000000"/>
    </g>
   </g>
   <g id="patch_3">
    <path d="M 56.68625 228.96 
L 56.68625 7.2 
" style="fill: none; stroke: #000000; stroke-linejoin: miter; stroke-linecap: square"/>
   </g>
   <g id="patch_4">
    <path d="M 391.48625 228.96 
L 391.48625 7.2 
" style="fill: none; stroke: #000000; stroke-linejoin: miter; stroke-linecap: square"/>
   </g>
   <g id="patch_5">
    <path d="M 56.68625 228.96 
L 391.48625 228.96 
" style="fill: none; stroke: #000000; stroke-linejoin: miter; stroke-linecap: square"/>
   </g>
   <g id="patch_6">
    <path d="M 56.68625 7.2 
L 391.48625 7.2 
" style="fill: none; stroke: #000000; stroke-linejoin: miter; stroke-linecap: square"/>
   </g>
   <g id="matplotlib.axis_1">
    <g id="xtick_1">
     <g id="line2d_2">
      <defs>
       <path id="m8dec1b3d1d" d="M 0 0 
L 0 -6 
" style="stroke: #1a1a1a; stroke-width: 0.8"/>
      </defs>
      <g>
       <use xlink:href="#m8dec1b3d1d" x="119.439784" y="228.96" style="fill: #1a1a1a; stroke: #1a1a1a; stroke-width: 0.8"/>
      </g>
     </g>
     <g id="text_1">
      <!-- $\mathdefault{−5}$ -->
      <g style="fill: #1a1a1a" transform="translate(109.839784 247.370937) scale(0.15 -0.15)">
       <defs>
        <path id="LatinModernMath-Regular-2212" d="M 4621 1600 
C 4621 1670 4563 1728 4493 1728 
L 486 1728 
C 416 1728 358 1670 358 1600 
C 358 1530 416 1472 486 1472 
L 4493 1472 
C 4563 1472 4621 1530 4621 1600 
z
" transform="scale(0.015625)"/>
        <path id="LatinModernMath-Regular-35" d="M 2874 1286 
C 2874 2048 2349 2688 1658 2688 
C 1350 2688 1075 2586 845 2362 
L 845 3610 
C 973 3571 1184 3526 1389 3526 
C 2176 3526 2624 4109 2624 4192 
C 2624 4230 2605 4262 2560 4262 
C 2560 4262 2541 4262 2509 4243 
C 2381 4186 2067 4058 1638 4058 
C 1382 4058 1088 4102 787 4237 
C 736 4256 710 4256 710 4256 
C 646 4256 646 4205 646 4102 
L 646 2208 
C 646 2093 646 2042 736 2042 
C 781 2042 794 2061 819 2099 
C 890 2202 1126 2547 1645 2547 
C 1978 2547 2138 2253 2189 2138 
C 2291 1901 2304 1651 2304 1331 
C 2304 1107 2304 723 2150 454 
C 1997 205 1760 38 1466 38 
C 998 38 634 378 525 755 
C 544 749 563 742 634 742 
C 845 742 954 902 954 1056 
C 954 1210 845 1370 634 1370 
C 544 1370 320 1325 320 1030 
C 320 480 762 -141 1478 -141 
C 2221 -141 2874 474 2874 1286 
z
" transform="scale(0.015625)"/>
       </defs>
       <use xlink:href="#LatinModernMath-Regular-2212" transform="translate(0 0.40625)"/>
       <use xlink:href="#LatinModernMath-Regular-35" transform="translate(77.799988 0.40625)"/>
      </g>
     </g>
    </g>
    <g id="xtick_2">
     <g id="line2d_3">
      <g>
       <use xlink:href="#m8dec1b3d1d" x="214.537744" y="228.96" style="fill: #1a1a1a; stroke: #1a1a1a; stroke-width: 0.8"/>
      </g>
     </g>
     <g id="text_2">
      <!-- $\mathdefault{0}$ -->
      <g style="fill: #1a1a1a" transform="translate(210.787744 247.370937) scale(0.15 -0.15)">
       <defs>
        <path id="LatinModernMath-Regular-30" d="M 2944 2048 
C 2944 2560 2912 3072 2688 3546 
C 2394 4160 1869 4262 1600 4262 
C 1216 4262 749 4096 486 3501 
C 282 3059 250 2560 250 2048 
C 250 1568 275 992 538 506 
C 813 -13 1280 -141 1594 -141 
C 1939 -141 2426 -6 2707 602 
C 2912 1043 2944 1542 2944 2048 
z
M 2413 2125 
C 2413 1645 2413 1210 2342 800 
C 2246 192 1882 0 1594 0 
C 1344 0 966 160 851 774 
C 781 1158 781 1747 781 2125 
C 781 2534 781 2957 832 3302 
C 954 4064 1434 4122 1594 4122 
C 1805 4122 2227 4006 2349 3373 
C 2413 3014 2413 2528 2413 2125 
z
" transform="scale(0.015625)"/>
       </defs>
       <use xlink:href="#LatinModernMath-Regular-30" transform="translate(0 0.40625)"/>
      </g>
     </g>
    </g>
    <g id="xtick_3">
     <g id="line2d_4">
      <g>
       <use xlink:href="#m8dec1b3d1d" x="309.635704" y="228.96" style="fill: #1a1a1a; stroke: #1a1a1a; stroke-width: 0.8"/>
      </g>
     </g>
     <g id="text_3">
      <!-- $\mathdefault{5}$ -->
      <g style="fill: #1a1a1a" transform="translate(305.885704 247.370937) scale(0.15 -0.15)">
       <use xlink:href="#LatinModernMath-Regular-35" transform="translate(0 0.40625)"/>
      </g>
     </g>
    </g>
    <g id="xtick_4">
     <g id="line2d_5">
      <defs>
       <path id="m131efc0c90" d="M 0 0 
L 0 -3 
" style="stroke: #1a1a1a; stroke-width: 0.6"/>
      </defs>
      <g>
       <use xlink:href="#m131efc0c90" x="62.381008" y="228.96" style="fill: #1a1a1a; stroke: #1a1a1a; stroke-width: 0.6"/>
      </g>
     </g>
    </g>
    <g id="xtick_5">
     <g id="line2d_6">
      <g>
       <use xlink:href="#m131efc0c90" x="81.4006" y="228.96" style="fill: #1a1a1a; stroke: #1a1a1a; stroke-width: 0.6"/>
      </g>
     </g>
    </g>
    <g id="xtick_6">
     <g id="line2d_7">
      <g>
       <use xlink:href="#m131efc0c90" x="100.420192" y="228.96" style="fill: #1a1a1a; stroke: #1a1a1a; stroke-width: 0.6"/>
      </g>
     </g>
    </g>
    <g id="xtick_7">
     <g id="line2d_8">
      <g>
       <use xlink:href="#m131efc0c90" x="138.459376" y="228.96" style="fill: #1a1a1a; stroke: #1a1a1a; stroke-width: 0.6"/>
      </g>
     </g>
    </g>
    <g id="xtick_8">
     <g id="line2d_9">
      <g>
       <use xlink:href="#m131efc0c90" x="157.478968" y="228.96" style="fill: #1a1a1a; stroke: #1a1a1a; stroke-width: 0.6"/>
      </g>
     </g>
    </g>
    <g id="xtick_9">
     <g id="line2d_10">
      <g>
       <use xlink:href="#m131efc0c90" x="176.49856" y="228.96" style="fill: #1a1a1a; stroke: #1a1a1a; stroke-width: 0.6"/>
      </g>
     </g>
    </g>
    <g id="xtick_10">
     <g id="line2d_11">
      <g>
       <use xlink:href="#m131efc0c90" x="195.518152" y="228.96" style="fill: #1a1a1a; stroke: #1a1a1a; stroke-width: 0.6"/>
      </g>
     </g>
    </g>
    <g id="xtick_11">
     <g id="line2d_12">
      <g>
       <use xlink:href="#m131efc0c90" x="233.557336" y="228.96" style="fill: #1a1a1a; stroke: #1a1a1a; stroke-width: 0.6"/>
      </g>
     </g>
    </g>
    <g id="xtick_12">
     <g id="line2d_13">
      <g>
       <use xlink:href="#m131efc0c90" x="252.576928" y="228.96" style="fill: #1a1a1a; stroke: #1a1a1a; stroke-width: 0.6"/>
      </g>
     </g>
    </g>
    <g id="xtick_13">
     <g id="line2d_14">
      <g>
       <use xlink:href="#m131efc0c90" x="271.59652" y="228.96" style="fill: #1a1a1a; stroke: #1a1a1a; stroke-width: 0.6"/>
      </g>
     </g>
    </g>
    <g id="xtick_14">
     <g id="line2d_15">
      <g>
       <use xlink:href="#m131efc0c90" x="290.616112" y="228.96" style="fill: #1a1a1a; stroke: #1a1a1a; stroke-width: 0.6"/>
      </g>
     </g>
    </g>
    <g id="xtick_15">
     <g id="line2d_16">
      <g>
       <use xlink:href="#m131efc0c90" x="328.655296" y="228.96" style="fill: #1a1a1a; stroke: #1a1a1a; stroke-width: 0.6"/>
      </g>
     </g>
    </g>
    <g id="xtick_16">
     <g id="line2d_17">
      <g>
       <use xlink:href="#m131efc0c90" x="347.674888" y="228.96" style="fill: #1a1a1a; stroke: #1a1a1a; stroke-width: 0.6"/>
      </g>
     </g>
    </g>
    <g id="xtick_17">
     <g id="line2d_18">
      <g>
       <use xlink:href="#m131efc0c90" x="366.69448" y="228.96" style="fill: #1a1a1a; stroke: #1a1a1a; stroke-width: 0.6"/>
      </g>
     </g>
    </g>
    <g id="xtick_18">
     <g id="line2d_19">
      <g>
       <use xlink:href="#m131efc0c90" x="385.714072" y="228.96" style="fill: #1a1a1a; stroke: #1a1a1a; stroke-width: 0.6"/>
      </g>
     </g>
    </g>
    <g id="text_4">
     <!-- variable_1 -->
     <g style="fill: #1a1a1a" transform="translate(185.306094 268.775) scale(0.18 -0.18)">
      <defs>
       <path id="LatinModernMath-Regular-76" d="M 3251 2560 
L 3251 2758 
C 3104 2746 2918 2739 2771 2739 
L 2214 2758 
L 2214 2560 
C 2451 2554 2522 2406 2522 2285 
C 2522 2227 2509 2202 2483 2131 
L 1830 499 
L 1114 2285 
C 1075 2368 1075 2394 1075 2394 
C 1075 2560 1325 2560 1440 2560 
L 1440 2758 
L 742 2739 
C 570 2739 314 2746 122 2758 
L 122 2560 
C 525 2560 550 2522 634 2323 
L 1555 51 
C 1594 -38 1606 -70 1690 -70 
C 1773 -70 1798 -13 1824 51 
L 2662 2131 
C 2720 2278 2829 2554 3251 2560 
z
" transform="scale(0.015625)"/>
       <path id="LatinModernMath-Regular-61" d="M 3091 570 
L 3091 928 
L 2931 928 
L 2931 570 
C 2931 198 2771 160 2701 160 
C 2490 160 2464 448 2464 480 
L 2464 1760 
C 2464 2029 2464 2278 2234 2515 
C 1984 2765 1664 2867 1357 2867 
C 832 2867 390 2566 390 2144 
C 390 1952 518 1843 685 1843 
C 864 1843 979 1971 979 2138 
C 979 2214 947 2426 653 2432 
C 826 2656 1139 2726 1344 2726 
C 1658 2726 2022 2477 2022 1907 
L 2022 1670 
C 1696 1651 1248 1632 845 1440 
C 365 1222 205 890 205 608 
C 205 90 826 -70 1229 -70 
C 1651 -70 1946 186 2067 486 
C 2093 230 2266 -38 2566 -38 
C 2701 -38 3091 51 3091 570 
z
M 2022 896 
C 2022 288 1562 70 1274 70 
C 960 70 698 294 698 614 
C 698 966 966 1498 2022 1536 
L 2022 896 
z
" transform="scale(0.015625)"/>
       <path id="LatinModernMath-Regular-72" d="M 2330 2438 
C 2330 2643 2131 2829 1856 2829 
C 1389 2829 1158 2400 1069 2125 
L 1069 2829 
L 179 2758 
L 179 2560 
C 627 2560 678 2515 678 2202 
L 678 486 
C 678 198 608 198 179 198 
L 179 0 
L 909 19 
C 1165 19 1466 19 1722 0 
L 1722 198 
L 1587 198 
C 1114 198 1101 269 1101 499 
L 1101 1485 
C 1101 2118 1370 2688 1856 2688 
C 1901 2688 1914 2688 1926 2682 
C 1907 2675 1779 2598 1779 2432 
C 1779 2253 1914 2157 2054 2157 
C 2170 2157 2330 2234 2330 2438 
z
" transform="scale(0.015625)"/>
       <path id="LatinModernMath-Regular-69" d="M 1581 0 
L 1581 198 
C 1158 198 1133 230 1133 480 
L 1133 2829 
L 237 2758 
L 237 2560 
C 653 2560 710 2522 710 2208 
L 710 486 
C 710 198 640 198 211 198 
L 211 0 
L 915 19 
C 1139 19 1363 6 1581 0 
z
M 1229 3866 
C 1229 4038 1082 4205 890 4205 
C 672 4205 544 4026 544 3866 
C 544 3693 691 3526 883 3526 
C 1101 3526 1229 3706 1229 3866 
z
" transform="scale(0.015625)"/>
       <path id="LatinModernMath-Regular-62" d="M 3334 1382 
C 3334 2195 2707 2829 1978 2829 
C 1478 2829 1203 2528 1101 2413 
L 1101 4442 
L 179 4371 
L 179 4173 
C 627 4173 678 4128 678 3814 
L 678 0 
L 838 0 
L 1069 397 
C 1165 250 1434 -70 1907 -70 
C 2669 -70 3334 557 3334 1382 
z
M 2803 1389 
C 2803 1152 2790 768 2605 480 
C 2470 282 2227 70 1882 70 
C 1594 70 1363 224 1210 461 
C 1120 595 1120 614 1120 730 
L 1120 2048 
C 1120 2170 1120 2176 1190 2278 
C 1440 2637 1792 2688 1946 2688 
C 2234 2688 2464 2522 2618 2278 
C 2784 2016 2803 1651 2803 1389 
z
" transform="scale(0.015625)"/>
       <path id="LatinModernMath-Regular-6c" d="M 1632 0 
L 1632 198 
C 1203 198 1133 198 1133 486 
L 1133 4442 
L 211 4371 
L 211 4173 
C 659 4173 710 4128 710 3814 
L 710 486 
C 710 198 640 198 211 198 
L 211 0 
L 922 19 
L 1632 0 
z
" transform="scale(0.015625)"/>
       <path id="LatinModernMath-Regular-65" d="M 2656 762 
C 2656 826 2605 838 2573 838 
C 2515 838 2502 800 2490 749 
C 2266 90 1690 90 1626 90 
C 1306 90 1050 282 902 518 
C 710 826 710 1248 710 1478 
L 2496 1478 
C 2637 1478 2656 1478 2656 1613 
C 2656 2246 2310 2867 1510 2867 
C 768 2867 179 2208 179 1408 
C 179 550 851 -70 1587 -70 
C 2368 -70 2656 640 2656 762 
z
M 2234 1613 
L 717 1613 
C 755 2566 1293 2726 1510 2726 
C 2170 2726 2234 1862 2234 1613 
z
" transform="scale(0.015625)"/>
       <path id="LatinModernMath-Regular-5f" d="M 2131 -896 
L 2131 -640 
L 0 -640 
L 0 -896 
L 2131 -896 
z
" transform="scale(0.015625)"/>
       <path id="LatinModernMath-Regular-31" d="M 2682 0 
L 2682 198 
L 2477 198 
C 1901 198 1882 269 1882 506 
L 1882 4096 
C 1882 4250 1882 4262 1734 4262 
C 1338 3853 774 3853 570 3853 
L 570 3654 
C 698 3654 1075 3654 1408 3821 
L 1408 506 
C 1408 275 1389 198 813 198 
L 608 198 
L 608 0 
C 832 19 1389 19 1645 19 
C 1901 19 2458 19 2682 0 
z
" transform="scale(0.015625)"/>
      </defs>
      <use xlink:href="#LatinModernMath-Regular-76"/>
      <use xlink:href="#LatinModernMath-Regular-61" transform="translate(52.799988 0)"/>
      <use xlink:href="#LatinModernMath-Regular-72" transform="translate(102.799973 0)"/>
      <use xlink:href="#LatinModernMath-Regular-69" transform="translate(141.999969 0)"/>
      <use xlink:href="#LatinModernMath-Regular-61" transform="translate(169.799957 0)"/>
      <use xlink:href="#LatinModernMath-Regular-62" transform="translate(219.799942 0)"/>
      <use xlink:href="#LatinModernMath-Regular-6c" transform="translate(275.399933 0)"/>
      <use xlink:href="#LatinModernMath-Regular-65" transform="translate(303.199921 0)"/>
      <use xlink:href="#LatinModernMath-Regular-5f" transform="translate(347.599915 0)"/>
      <use xlink:href="#LatinModernMath-Regular-31" transform="translate(380.899902 0)"/>
     </g>
    </g>
   </g>
   <g id="matplotlib.axis_2">
    <g id="ytick_1">
     <g id="line2d_20">
      <defs>
       <path id="mc947610920" d="M 0 0 
L 6 0 
" style="stroke: #1a1a1a; stroke-width: 0.8"/>
      </defs>
      <g>
       <use xlink:href="#mc947610920" x="56.68625" y="228.96" style="fill: #1a1a1a; stroke: #1a1a1a; stroke-width: 0.8"/>
      </g>
     </g>
     <g id="text_5">
      <!-- $\mathdefault{0}$ -->
      <g style="fill: #1a1a1a" transform="translate(44.18625 234.165469) scale(0.15 -0.15)">
       <use xlink:href="#LatinModernMath-Regular-30" transform="translate(0 0.40625)"/>
      </g>
     </g>
    </g>
    <g id="ytick_2">
     <g id="line2d_21">
      <g>
       <use xlink:href="#mc947610920" x="56.68625" y="171.777174" style="fill: #1a1a1a; stroke: #1a1a1a; stroke-width: 0.8"/>
      </g>
     </g>
     <g id="text_6">
      <!-- $\mathdefault{200}$ -->
      <g style="fill: #1a1a1a" transform="translate(29.18625 176.982643) scale(0.15 -0.15)">
       <defs>
        <path id="LatinModernMath-Regular-32" d="M 2874 1114 
L 2714 1114 
C 2682 922 2637 640 2573 544 
C 2528 493 2106 493 1965 493 
L 813 493 
L 1491 1152 
C 2490 2035 2874 2381 2874 3021 
C 2874 3750 2298 4262 1517 4262 
C 794 4262 320 3674 320 3104 
C 320 2746 640 2746 659 2746 
C 768 2746 992 2822 992 3085 
C 992 3251 877 3418 653 3418 
C 602 3418 589 3418 570 3411 
C 717 3827 1062 4064 1434 4064 
C 2016 4064 2291 3546 2291 3021 
C 2291 2509 1971 2003 1619 1606 
L 390 237 
C 320 166 320 154 320 0 
L 2694 0 
L 2874 1114 
z
" transform="scale(0.015625)"/>
       </defs>
       <use xlink:href="#LatinModernMath-Regular-32" transform="translate(0 0.40625)"/>
       <use xlink:href="#LatinModernMath-Regular-30" transform="translate(49.999985 0.40625)"/>
       <use xlink:href="#LatinModernMath-Regular-30" transform="translate(99.999969 0.40625)"/>
      </g>
     </g>
    </g>
    <g id="ytick_3">
     <g id="line2d_22">
      <g>
       <use xlink:href="#mc947610920" x="56.68625" y="114.594349" style="fill: #1a1a1a; stroke: #1a1a1a; stroke-width: 0.8"/>
      </g>
     </g>
     <g id="text_7">
      <!-- $\mathdefault{400}$ -->
      <g style="fill: #1a1a1a" transform="translate(29.18625 119.799817) scale(0.15 -0.15)">
       <defs>
        <path id="LatinModernMath-Regular-34" d="M 3014 1056 
L 3014 1254 
L 2374 1254 
L 2374 4166 
C 2374 4294 2374 4333 2272 4333 
C 2214 4333 2195 4333 2144 4256 
L 179 1254 
L 179 1056 
L 1882 1056 
L 1882 499 
C 1882 269 1869 198 1395 198 
L 1261 198 
L 1261 0 
C 1523 19 1856 19 2125 19 
C 2394 19 2733 19 2995 0 
L 2995 198 
L 2861 198 
C 2387 198 2374 269 2374 499 
L 2374 1056 
L 3014 1056 
z
M 1920 1254 
L 358 1254 
L 1920 3642 
L 1920 1254 
z
" transform="scale(0.015625)"/>
       </defs>
       <use xlink:href="#LatinModernMath-Regular-34" transform="translate(0 0.296875)"/>
       <use xlink:href="#LatinModernMath-Regular-30" transform="translate(49.999985 0.296875)"/>
       <use xlink:href="#LatinModernMath-Regular-30" transform="translate(99.999969 0.296875)"/>
      </g>
     </g>
    </g>
    <g id="ytick_4">
     <g id="line2d_23">
      <g>
       <use xlink:href="#mc947610920" x="56.68625" y="57.411523" style="fill: #1a1a1a; stroke: #1a1a1a; stroke-width: 0.8"/>
      </g>
     </g>
     <g id="text_8">
      <!-- $\mathdefault{600}$ -->
      <g style="fill: #1a1a1a" transform="translate(29.18625 62.616992) scale(0.15 -0.15)">
       <defs>
        <path id="LatinModernMath-Regular-36" d="M 2925 1306 
C 2925 2118 2355 2733 1645 2733 
C 1210 2733 973 2406 845 2099 
L 845 2253 
C 845 3872 1638 4102 1965 4102 
C 2118 4102 2387 4064 2528 3846 
C 2432 3846 2176 3846 2176 3558 
C 2176 3360 2330 3264 2470 3264 
C 2573 3264 2765 3322 2765 3571 
C 2765 3955 2483 4262 1952 4262 
C 1133 4262 269 3437 269 2022 
C 269 314 1011 -141 1606 -141 
C 2317 -141 2925 461 2925 1306 
z
M 2349 1312 
C 2349 1005 2349 685 2240 454 
C 2048 70 1754 38 1606 38 
C 1203 38 1011 422 973 518 
C 858 819 858 1331 858 1446 
C 858 1946 1062 2586 1638 2586 
C 1741 2586 2035 2586 2234 2189 
C 2349 1952 2349 1626 2349 1312 
z
" transform="scale(0.015625)"/>
       </defs>
       <use xlink:href="#LatinModernMath-Regular-36" transform="translate(0 0.40625)"/>
       <use xlink:href="#LatinModernMath-Regular-30" transform="translate(49.999985 0.40625)"/>
       <use xlink:href="#LatinModernMath-Regular-30" transform="translate(99.999969 0.40625)"/>
      </g>
     </g>
    </g>
    <g id="ytick_5">
     <g id="line2d_24">
      <defs>
       <path id="m5f9d1e6504" d="M 0 0 
L 3 0 
" style="stroke: #1a1a1a; stroke-width: 0.6"/>
      </defs>
      <g>
       <use xlink:href="#m5f9d1e6504" x="56.68625" y="214.664294" style="fill: #1a1a1a; stroke: #1a1a1a; stroke-width: 0.6"/>
      </g>
     </g>
    </g>
    <g id="ytick_6">
     <g id="line2d_25">
      <g>
       <use xlink:href="#m5f9d1e6504" x="56.68625" y="200.368587" style="fill: #1a1a1a; stroke: #1a1a1a; stroke-width: 0.6"/>
      </g>
     </g>
    </g>
    <g id="ytick_7">
     <g id="line2d_26">
      <g>
       <use xlink:href="#m5f9d1e6504" x="56.68625" y="186.072881" style="fill: #1a1a1a; stroke: #1a1a1a; stroke-width: 0.6"/>
      </g>
     </g>
    </g>
    <g id="ytick_8">
     <g id="line2d_27">
      <g>
       <use xlink:href="#m5f9d1e6504" x="56.68625" y="157.481468" style="fill: #1a1a1a; stroke: #1a1a1a; stroke-width: 0.6"/>
      </g>
     </g>
    </g>
    <g id="ytick_9">
     <g id="line2d_28">
      <g>
       <use xlink:href="#m5f9d1e6504" x="56.68625" y="143.185761" style="fill: #1a1a1a; stroke: #1a1a1a; stroke-width: 0.6"/>
      </g>
     </g>
    </g>
    <g id="ytick_10">
     <g id="line2d_29">
      <g>
       <use xlink:href="#m5f9d1e6504" x="56.68625" y="128.890055" style="fill: #1a1a1a; stroke: #1a1a1a; stroke-width: 0.6"/>
      </g>
     </g>
    </g>
    <g id="ytick_11">
     <g id="line2d_30">
      <g>
       <use xlink:href="#m5f9d1e6504" x="56.68625" y="100.298642" style="fill: #1a1a1a; stroke: #1a1a1a; stroke-width: 0.6"/>
      </g>
     </g>
    </g>
    <g id="ytick_12">
     <g id="line2d_31">
      <g>
       <use xlink:href="#m5f9d1e6504" x="56.68625" y="86.002936" style="fill: #1a1a1a; stroke: #1a1a1a; stroke-width: 0.6"/>
      </g>
     </g>
    </g>
    <g id="ytick_13">
     <g id="line2d_32">
      <g>
       <use xlink:href="#m5f9d1e6504" x="56.68625" y="71.707229" style="fill: #1a1a1a; stroke: #1a1a1a; stroke-width: 0.6"/>
      </g>
     </g>
    </g>
    <g id="ytick_14">
     <g id="line2d_33">
      <g>
       <use xlink:href="#m5f9d1e6504" x="56.68625" y="43.115816" style="fill: #1a1a1a; stroke: #1a1a1a; stroke-width: 0.6"/>
      </g>
     </g>
    </g>
    <g id="ytick_15">
     <g id="line2d_34">
      <g>
       <use xlink:href="#m5f9d1e6504" x="56.68625" y="28.82011" style="fill: #1a1a1a; stroke: #1a1a1a; stroke-width: 0.6"/>
      </g>
     </g>
    </g>
    <g id="ytick_16">
     <g id="line2d_35">
      <g>
       <use xlink:href="#m5f9d1e6504" x="56.68625" y="14.524404" style="fill: #1a1a1a; stroke: #1a1a1a; stroke-width: 0.6"/>
      </g>
     </g>
    </g>
    <g id="text_9">
     <!-- Entries -->
     <g style="fill: #1a1a1a" transform="translate(19.693125 146.286562) rotate(-90) scale(0.18 -0.18)">
      <defs>
       <path id="LatinModernMath-Regular-45" d="M 4173 1651 
L 4013 1651 
C 3853 666 3706 198 2605 198 
L 1754 198 
C 1453 198 1440 243 1440 454 
L 1440 2163 
L 2016 2163 
C 2637 2163 2707 1958 2707 1414 
L 2867 1414 
L 2867 3110 
L 2707 3110 
C 2707 2560 2637 2362 2016 2362 
L 1440 2362 
L 1440 3898 
C 1440 4109 1453 4154 1754 4154 
L 2579 4154 
C 3558 4154 3731 3802 3834 2912 
L 3994 2912 
L 3814 4352 
L 211 4352 
L 211 4154 
L 365 4154 
C 858 4154 870 4083 870 3853 
L 870 499 
C 870 269 858 198 365 198 
L 211 198 
L 211 0 
L 3904 0 
L 4173 1651 
z
" transform="scale(0.015625)"/>
       <path id="LatinModernMath-Regular-6e" d="M 3424 0 
L 3424 198 
C 3091 198 2931 198 2925 390 
L 2925 1613 
C 2925 2163 2925 2362 2726 2592 
C 2637 2701 2426 2829 2054 2829 
C 1587 2829 1286 2554 1107 2157 
L 1107 2829 
L 205 2758 
L 205 2560 
C 653 2560 704 2515 704 2202 
L 704 486 
C 704 198 634 198 205 198 
L 205 0 
L 928 19 
L 1645 0 
L 1645 198 
C 1216 198 1146 198 1146 486 
L 1146 1664 
C 1146 2330 1600 2688 2010 2688 
C 2413 2688 2483 2342 2483 1978 
L 2483 486 
C 2483 198 2413 198 1984 198 
L 1984 0 
L 2707 19 
L 3424 0 
z
" transform="scale(0.015625)"/>
       <path id="LatinModernMath-Regular-74" d="M 2125 794 
L 2125 1158 
L 1965 1158 
L 1965 806 
C 1965 333 1773 90 1536 90 
C 1107 90 1107 672 1107 781 
L 1107 2560 
L 2022 2560 
L 2022 2758 
L 1107 2758 
L 1107 3936 
L 947 3936 
C 941 3411 749 2726 122 2701 
L 122 2560 
L 666 2560 
L 666 794 
C 666 6 1261 -70 1491 -70 
C 1946 -70 2125 384 2125 794 
z
" transform="scale(0.015625)"/>
       <path id="LatinModernMath-Regular-73" d="M 2304 819 
C 2304 1158 2112 1350 2035 1427 
C 1824 1632 1574 1683 1306 1734 
C 947 1805 518 1888 518 2259 
C 518 2483 685 2746 1235 2746 
C 1939 2746 1971 2170 1984 1971 
C 1990 1914 2061 1914 2061 1914 
C 2144 1914 2144 1946 2144 2067 
L 2144 2714 
C 2144 2822 2144 2867 2074 2867 
C 2042 2867 2029 2867 1946 2790 
C 1926 2765 1862 2707 1837 2688 
C 1594 2867 1331 2867 1235 2867 
C 454 2867 211 2438 211 2080 
C 211 1856 314 1677 486 1536 
C 691 1370 870 1331 1331 1242 
C 1472 1216 1997 1114 1997 653 
C 1997 326 1773 70 1274 70 
C 736 70 506 435 384 979 
C 365 1062 358 1088 294 1088 
C 211 1088 211 1043 211 928 
L 211 83 
C 211 -26 211 -70 282 -70 
C 314 -70 320 -64 442 58 
C 454 70 454 83 570 205 
C 851 -64 1139 -70 1274 -70 
C 2010 -70 2304 358 2304 819 
z
" transform="scale(0.015625)"/>
      </defs>
      <use xlink:href="#LatinModernMath-Regular-45"/>
      <use xlink:href="#LatinModernMath-Regular-6e" transform="translate(68.099991 0)"/>
      <use xlink:href="#LatinModernMath-Regular-74" transform="translate(123.699982 0)"/>
      <use xlink:href="#LatinModernMath-Regular-72" transform="translate(162.599976 0)"/>
      <use xlink:href="#LatinModernMath-Regular-69" transform="translate(201.799973 0)"/>
      <use xlink:href="#LatinModernMath-Regular-65" transform="translate(229.59996 0)"/>
      <use xlink:href="#LatinModernMath-Regular-73" transform="translate(273.999954 0)"/>
     </g>
    </g>
   </g>
   <g id="legend_1">
    <g id="LineCollection_2">
     <path d="M 335.68625 28.2 
L 335.68625 16.2 
" style="fill: none; stroke: #000000"/>
    </g>
    <g id="line2d_36"/>
    <g id="line2d_37">
     <g>
      <use xlink:href="#mb27cb91d61" x="335.68625" y="22.2" style="stroke: #000000"/>
     </g>
    </g>
    <g id="text_10">
     <!-- $h1_{err}$ -->
     <g style="fill: #1a1a1a" transform="translate(357.28625 26.4) scale(0.12 -0.12)">
      <defs>
       <path id="LatinModernMath-Regular-68" d="M 3424 0 
L 3424 198 
C 3091 198 2931 198 2925 390 
L 2925 1613 
C 2925 2163 2925 2362 2726 2592 
C 2637 2701 2426 2829 2054 2829 
C 1517 2829 1235 2445 1133 2214 
L 1126 2214 
L 1126 4442 
L 205 4371 
L 205 4173 
C 653 4173 704 4128 704 3814 
L 704 486 
C 704 198 634 198 205 198 
L 205 0 
L 928 19 
L 1645 0 
L 1645 198 
C 1216 198 1146 198 1146 486 
L 1146 1664 
C 1146 2330 1600 2688 2010 2688 
C 2413 2688 2483 2342 2483 1978 
L 2483 486 
C 2483 198 2413 198 1984 198 
L 1984 0 
L 2707 19 
L 3424 0 
z
" transform="scale(0.015625)"/>
      </defs>
      <use xlink:href="#LatinModernMath-Regular-68" transform="translate(0 0.59375)"/>
      <use xlink:href="#LatinModernMath-Regular-31" transform="translate(55.599991 0.59375)"/>
      <use xlink:href="#LatinModernMath-Regular-65" transform="translate(106.354116 -12.334375) scale(0.7)"/>
      <use xlink:href="#LatinModernMath-Regular-72" transform="translate(137.434112 -12.334375) scale(0.7)"/>
      <use xlink:href="#LatinModernMath-Regular-72" transform="translate(164.87411 -12.334375) scale(0.7)"/>
     </g>
    </g>
   </g>
  </g>
 </g>
 <defs>
  <clipPath id="p84dd827483">
   <rect x="56.68625" y="7.2" width="334.8" height="221.76"/>
  </clipPath>
 </defs>
</svg>
