<?xml version="1.0" encoding="utf-8" standalone="no"?>
<!DOCTYPE svg PUBLIC "-//W3C//DTD SVG 1.1//EN"
  "http://www.w3.org/Graphics/SVG/1.1/DTD/svg11.dtd">
<svg xmlns:xlink="http://www.w3.org/1999/xlink" width="400.660716pt" height="280.259022pt" viewBox="0 0 400.660716 280.259022" xmlns="http://www.w3.org/2000/svg" version="1.1">
 <metadata>
  <rdf:RDF xmlns:dc="http://purl.org/dc/elements/1.1/" xmlns:cc="http://creativecommons.org/ns#" xmlns:rdf="http://www.w3.org/1999/02/22-rdf-syntax-ns#">
   <cc:Work>
    <dc:creator>
     <cc:Agent>
      <dc:title>カリビアンカフェ</dc:title>
     </cc:Agent>
    </dc:creator>
   </cc:Work>
  </rdf:RDF>
 </metadata>
 <defs>
  <style type="text/css">*{stroke-linejoin: round; stroke-linecap: butt}</style>
 </defs>
 <g id="figure_1">
  <g id="patch_1">
   <path d="M 0 280.259022 
L 400.660716 280.259022 
L 400.660716 0 
L 0 0 
z
" style="fill: #ffffff"/>
  </g>
  <g id="axes_1">
   <g id="patch_2">
    <path d="M 56.68625 229.750897 
L 391.48625 229.750897 
L 391.48625 7.990897 
L 56.68625 7.990897 
z
" style="fill: #ffffff"/>
   </g>
   <g id="patch_3">
    <path d="M 56.68625 229.750897 
L 56.68625 229.207533 
L 63.38225 229.207533 
L 63.38225 229.479215 
L 70.07825 229.479215 
L 70.07825 229.207533 
L 76.77425 229.207533 
L 76.77425 228.120806 
L 83.47025 228.120806 
L 83.47025 227.305761 
L 90.16625 227.305761 
L 90.16625 223.230534 
L 96.86225 223.230534 
L 96.86225 222.958852 
L 103.55825 222.958852 
L 103.55825 214.536717 
L 110.25425 214.536717 
L 110.25425 208.559717 
L 116.95025 208.559717 
L 116.95025 189.813674 
L 123.64625 189.813674 
L 123.64625 182.206584 
L 130.34225 182.206584 
L 130.34225 155.310088 
L 137.03825 155.310088 
L 137.03825 130.315363 
L 143.73425 130.315363 
L 143.73425 114.286138 
L 150.43025 114.286138 
L 150.43025 78.967506 
L 157.12625 78.967506 
L 157.12625 49.625873 
L 163.82225 49.625873 
L 163.82225 37.128511 
L 170.51825 37.128511 
L 170.51825 26.26124 
L 177.21425 26.26124 
L 177.21425 27.347967 
L 183.91025 27.347967 
L 183.91025 26.532922 
L 190.60625 26.532922 
L 190.60625 44.192238 
L 197.30225 44.192238 
L 197.30225 52.886055 
L 203.99825 52.886055 
L 203.99825 60.493145 
L 210.69425 60.493145 
L 210.69425 85.759551 
L 217.39025 85.759551 
L 217.39025 118.633047 
L 224.08625 118.633047 
L 224.08625 121.621546 
L 230.78225 121.621546 
L 230.78225 135.748999 
L 237.47825 135.748999 
L 237.47825 140.095908 
L 244.17425 140.095908 
L 244.17425 162.917178 
L 250.87025 162.917178 
L 250.87025 167.535768 
L 257.56625 167.535768 
L 257.56625 177.316312 
L 264.26225 177.316312 
L 264.26225 180.03313 
L 270.95825 180.03313 
L 270.95825 188.726947 
L 277.65425 188.726947 
L 277.65425 196.062355 
L 284.35025 196.062355 
L 284.35025 208.016354 
L 291.04625 208.016354 
L 291.04625 211.004854 
L 297.74225 211.004854 
L 297.74225 219.698671 
L 304.43825 219.698671 
L 304.43825 221.600443 
L 311.13425 221.600443 
L 311.13425 225.403988 
L 317.83025 225.403988 
L 317.83025 226.762397 
L 324.52625 226.762397 
L 324.52625 228.120806 
L 331.22225 228.120806 
L 331.22225 229.479215 
L 337.91825 229.479215 
L 337.91825 228.935851 
L 344.61425 228.935851 
L 344.61425 229.479215 
L 351.31025 229.479215 
L 351.31025 229.479215 
L 358.00625 229.479215 
L 358.00625 229.750897 
L 364.70225 229.750897 
L 364.70225 229.750897 
L 371.39825 229.750897 
L 371.39825 229.479215 
L 378.09425 229.479215 
L 378.09425 229.750897 
L 384.79025 229.750897 
L 384.79025 229.750897 
L 391.48625 229.750897 
L 391.48625 229.750897 
" clip-path="url(#pd4b358ad70)" style="fill: none; stroke: #348abd; stroke-width: 1.2; stroke-linejoin: miter"/>
   </g>
   <g id="patch_4">
    <path d="M 56.68625 229.750897 
L 56.68625 229.750897 
L 63.38225 229.750897 
L 63.38225 229.750897 
L 70.07825 229.750897 
L 70.07825 229.750897 
L 76.77425 229.750897 
L 76.77425 229.750897 
L 83.47025 229.750897 
L 83.47025 229.750897 
L 90.16625 229.750897 
L 90.16625 229.479215 
L 96.86225 229.479215 
L 96.86225 228.120806 
L 103.55825 228.120806 
L 103.55825 228.392488 
L 110.25425 228.392488 
L 110.25425 226.219033 
L 116.95025 226.219033 
L 116.95025 223.502216 
L 123.64625 223.502216 
L 123.64625 219.698671 
L 130.34225 219.698671 
L 130.34225 202.311036 
L 137.03825 202.311036 
L 137.03825 191.715447 
L 143.73425 191.715447 
L 143.73425 175.142858 
L 150.43025 175.142858 
L 150.43025 154.495042 
L 157.12625 154.495042 
L 157.12625 131.130409 
L 163.82225 131.130409 
L 163.82225 92.008232 
L 170.51825 92.008232 
L 170.51825 80.869279 
L 177.21425 80.869279 
L 177.21425 79.239188 
L 183.91025 79.239188 
L 183.91025 75.163961 
L 190.60625 75.163961 
L 190.60625 92.823277 
L 197.30225 92.823277 
L 197.30225 89.563096 
L 203.99825 89.563096 
L 203.99825 104.233912 
L 210.69425 104.233912 
L 210.69425 97.985231 
L 217.39025 97.985231 
L 217.39025 94.996731 
L 224.08625 94.996731 
L 224.08625 86.031232 
L 230.78225 86.031232 
L 230.78225 77.337415 
L 237.47825 77.337415 
L 237.47825 69.730325 
L 244.17425 69.730325 
L 244.17425 66.470144 
L 250.87025 66.470144 
L 250.87025 77.609097 
L 257.56625 77.609097 
L 257.56625 86.031232 
L 264.26225 86.031232 
L 264.26225 111.025957 
L 270.95825 111.025957 
L 270.95825 128.141909 
L 277.65425 128.141909 
L 277.65425 138.465817 
L 284.35025 138.465817 
L 284.35025 165.633995 
L 291.04625 165.633995 
L 291.04625 183.02163 
L 297.74225 183.02163 
L 297.74225 194.703946 
L 304.43825 194.703946 
L 304.43825 205.027854 
L 311.13425 205.027854 
L 311.13425 214.265035 
L 317.83025 214.265035 
L 317.83025 217.525216 
L 324.52625 217.525216 
L 324.52625 223.502216 
L 331.22225 223.502216 
L 331.22225 226.762397 
L 337.91825 226.762397 
L 337.91825 226.762397 
L 344.61425 226.762397 
L 344.61425 228.935851 
L 351.31025 228.935851 
L 351.31025 228.935851 
L 358.00625 228.935851 
L 358.00625 229.479215 
L 364.70225 229.479215 
L 364.70225 229.750897 
L 371.39825 229.750897 
L 371.39825 229.750897 
L 378.09425 229.750897 
L 378.09425 229.750897 
L 384.79025 229.750897 
L 384.79025 229.207533 
L 391.48625 229.207533 
L 391.48625 229.750897 
" clip-path="url(#pd4b358ad70)" style="fill: none; stroke: #e24a33; stroke-width: 1.2; stroke-linejoin: miter"/>
   </g>
   <g id="LineCollection_1">
    <path d="M 60.03425 229.558496 
L 60.03425 228.490875 
" clip-path="url(#pd4b358ad70)" style="fill: none; stroke: #348abd; stroke-width: 1.2"/>
    <path d="M 66.73025 229.703963 
L 66.73025 228.854475 
" clip-path="url(#pd4b358ad70)" style="fill: none; stroke: #348abd; stroke-width: 1.2"/>
    <path d="M 73.42625 229.558496 
L 73.42625 228.490875 
" clip-path="url(#pd4b358ad70)" style="fill: none; stroke: #348abd; stroke-width: 1.2"/>
    <path d="M 80.12225 228.76739 
L 80.12225 227.147196 
" clip-path="url(#pd4b358ad70)" style="fill: none; stroke: #348abd; stroke-width: 1.2"/>
    <path d="M 86.81825 228.105445 
L 86.81825 226.189093 
" clip-path="url(#pd4b358ad70)" style="fill: none; stroke: #348abd; stroke-width: 1.2"/>
    <path d="M 93.51425 224.55216 
L 93.51425 221.609427 
" clip-path="url(#pd4b358ad70)" style="fill: none; stroke: #348abd; stroke-width: 1.2"/>
    <path d="M 100.21025 224.308115 
L 100.21025 221.31067 
" clip-path="url(#pd4b358ad70)" style="fill: none; stroke: #348abd; stroke-width: 1.2"/>
    <path d="M 106.90625 216.563707 
L 106.90625 212.219847 
" clip-path="url(#pd4b358ad70)" style="fill: none; stroke: #348abd; stroke-width: 1.2"/>
    <path d="M 113.60225 210.953991 
L 113.60225 205.878346 
" clip-path="url(#pd4b358ad70)" style="fill: none; stroke: #348abd; stroke-width: 1.2"/>
    <path d="M 120.29825 193.103892 
L 120.29825 186.24055 
" clip-path="url(#pd4b358ad70)" style="fill: none; stroke: #348abd; stroke-width: 1.2"/>
    <path d="M 126.99425 185.797162 
L 126.99425 178.334039 
" clip-path="url(#pd4b358ad70)" style="fill: none; stroke: #348abd; stroke-width: 1.2"/>
    <path d="M 133.69025 159.804478 
L 133.69025 150.535797 
" clip-path="url(#pd4b358ad70)" style="fill: none; stroke: #348abd; stroke-width: 1.2"/>
    <path d="M 140.38625 135.510569 
L 140.38625 124.841366 
" clip-path="url(#pd4b358ad70)" style="fill: none; stroke: #348abd; stroke-width: 1.2"/>
    <path d="M 147.08225 119.8848 
L 147.08225 108.409197 
" clip-path="url(#pd4b358ad70)" style="fill: none; stroke: #348abd; stroke-width: 1.2"/>
    <path d="M 153.77825 85.365979 
L 153.77825 72.291579 
" clip-path="url(#pd4b358ad70)" style="fill: none; stroke: #348abd; stroke-width: 1.2"/>
    <path d="M 160.47425 56.619588 
L 160.47425 42.355196 
" clip-path="url(#pd4b358ad70)" style="fill: none; stroke: #348abd; stroke-width: 1.2"/>
    <path d="M 167.17025 44.360893 
L 167.17025 29.619341 
" clip-path="url(#pd4b358ad70)" style="fill: none; stroke: #348abd; stroke-width: 1.2"/>
    <path d="M 173.86625 33.694933 
L 173.86625 18.550897 
" clip-path="url(#pd4b358ad70)" style="fill: none; stroke: #348abd; stroke-width: 1.2"/>
    <path d="M 180.56225 34.761775 
L 180.56225 19.657496 
" clip-path="url(#pd4b358ad70)" style="fill: none; stroke: #348abd; stroke-width: 1.2"/>
    <path d="M 187.25825 33.961648 
L 187.25825 18.827541 
" clip-path="url(#pd4b358ad70)" style="fill: none; stroke: #348abd; stroke-width: 1.2"/>
    <path d="M 193.95425 51.290707 
L 193.95425 36.816884 
" clip-path="url(#pd4b358ad70)" style="fill: none; stroke: #348abd; stroke-width: 1.2"/>
    <path d="M 200.65025 59.816157 
L 200.65025 45.678942 
" clip-path="url(#pd4b358ad70)" style="fill: none; stroke: #348abd; stroke-width: 1.2"/>
    <path d="M 207.34625 67.272496 
L 207.34625 53.436664 
" clip-path="url(#pd4b358ad70)" style="fill: none; stroke: #348abd; stroke-width: 1.2"/>
    <path d="M 214.04225 92.012164 
L 214.04225 79.229348 
" clip-path="url(#pd4b358ad70)" style="fill: none; stroke: #348abd; stroke-width: 1.2"/>
    <path d="M 220.73825 124.125227 
L 220.73825 112.862459 
" clip-path="url(#pd4b358ad70)" style="fill: none; stroke: #348abd; stroke-width: 1.2"/>
    <path d="M 227.43425 127.039306 
L 227.43425 115.925287 
" clip-path="url(#pd4b358ad70)" style="fill: none; stroke: #348abd; stroke-width: 1.2"/>
    <path d="M 234.13025 140.800132 
L 234.13025 130.418872 
" clip-path="url(#pd4b358ad70)" style="fill: none; stroke: #348abd; stroke-width: 1.2"/>
    <path d="M 240.82625 145.028753 
L 240.82625 134.883892 
" clip-path="url(#pd4b358ad70)" style="fill: none; stroke: #348abd; stroke-width: 1.2"/>
    <path d="M 247.52225 167.175444 
L 247.52225 158.378555 
" clip-path="url(#pd4b358ad70)" style="fill: none; stroke: #348abd; stroke-width: 1.2"/>
    <path d="M 254.21825 171.644058 
L 254.21825 163.146805 
" clip-path="url(#pd4b358ad70)" style="fill: none; stroke: #348abd; stroke-width: 1.2"/>
    <path d="M 260.91425 181.087366 
L 260.91425 173.263782 
" clip-path="url(#pd4b358ad70)" style="fill: none; stroke: #348abd; stroke-width: 1.2"/>
    <path d="M 267.61025 183.705014 
L 267.61025 176.079505 
" clip-path="url(#pd4b358ad70)" style="fill: none; stroke: #348abd; stroke-width: 1.2"/>
    <path d="M 274.30625 192.06173 
L 274.30625 185.109407 
" clip-path="url(#pd4b358ad70)" style="fill: none; stroke: #348abd; stroke-width: 1.2"/>
    <path d="M 281.00225 199.083592 
L 281.00225 192.757214 
" clip-path="url(#pd4b358ad70)" style="fill: none; stroke: #348abd; stroke-width: 1.2"/>
    <path d="M 287.69825 210.44126 
L 287.69825 205.304544 
" clip-path="url(#pd4b358ad70)" style="fill: none; stroke: #348abd; stroke-width: 1.2"/>
    <path d="M 294.39425 213.25613 
L 294.39425 208.465504 
" clip-path="url(#pd4b358ad70)" style="fill: none; stroke: #348abd; stroke-width: 1.2"/>
    <path d="M 301.09025 221.343743 
L 301.09025 217.759527 
" clip-path="url(#pd4b358ad70)" style="fill: none; stroke: #348abd; stroke-width: 1.2"/>
    <path d="M 307.78625 223.080164 
L 307.78625 219.824175 
" clip-path="url(#pd4b358ad70)" style="fill: none; stroke: #348abd; stroke-width: 1.2"/>
    <path d="M 314.48225 226.479251 
L 314.48225 224.023012 
" clip-path="url(#pd4b358ad70)" style="fill: none; stroke: #348abd; stroke-width: 1.2"/>
    <path d="M 321.17825 227.649595 
L 321.17825 225.562509 
" clip-path="url(#pd4b358ad70)" style="fill: none; stroke: #348abd; stroke-width: 1.2"/>
    <path d="M 327.87425 228.76739 
L 327.87425 227.147196 
" clip-path="url(#pd4b358ad70)" style="fill: none; stroke: #348abd; stroke-width: 1.2"/>
    <path d="M 334.57025 229.703963 
L 334.57025 228.854475 
" clip-path="url(#pd4b358ad70)" style="fill: none; stroke: #348abd; stroke-width: 1.2"/>
    <path d="M 341.26625 229.379427 
L 341.26625 228.143033 
" clip-path="url(#pd4b358ad70)" style="fill: none; stroke: #348abd; stroke-width: 1.2"/>
    <path d="M 347.96225 229.703963 
L 347.96225 228.854475 
" clip-path="url(#pd4b358ad70)" style="fill: none; stroke: #348abd; stroke-width: 1.2"/>
    <path d="M 354.65825 229.703963 
L 354.65825 228.854475 
" clip-path="url(#pd4b358ad70)" style="fill: none; stroke: #348abd; stroke-width: 1.2"/>
    <path d="M 361.35425 229.750897 
L 361.35425 229.250725 
" clip-path="url(#pd4b358ad70)" style="fill: none; stroke: #348abd; stroke-width: 1.2"/>
    <path d="M 368.05025 229.750897 
L 368.05025 229.250725 
" clip-path="url(#pd4b358ad70)" style="fill: none; stroke: #348abd; stroke-width: 1.2"/>
    <path d="M 374.74625 229.703963 
L 374.74625 228.854475 
" clip-path="url(#pd4b358ad70)" style="fill: none; stroke: #348abd; stroke-width: 1.2"/>
    <path d="M 381.44225 229.750897 
L 381.44225 229.250725 
" clip-path="url(#pd4b358ad70)" style="fill: none; stroke: #348abd; stroke-width: 1.2"/>
    <path d="M 388.13825 229.750897 
L 388.13825 229.250725 
" clip-path="url(#pd4b358ad70)" style="fill: none; stroke: #348abd; stroke-width: 1.2"/>
   </g>
   <g id="LineCollection_2"/>
   <g id="LineCollection_3">
    <path d="M 60.03425 229.750897 
L 60.03425 229.250725 
" clip-path="url(#pd4b358ad70)" style="fill: none; stroke: #e24a33; stroke-width: 1.2"/>
    <path d="M 66.73025 229.750897 
L 66.73025 229.250725 
" clip-path="url(#pd4b358ad70)" style="fill: none; stroke: #e24a33; stroke-width: 1.2"/>
    <path d="M 73.42625 229.750897 
L 73.42625 229.250725 
" clip-path="url(#pd4b358ad70)" style="fill: none; stroke: #e24a33; stroke-width: 1.2"/>
    <path d="M 80.12225 229.750897 
L 80.12225 229.250725 
" clip-path="url(#pd4b358ad70)" style="fill: none; stroke: #e24a33; stroke-width: 1.2"/>
    <path d="M 86.81825 229.750897 
L 86.81825 229.250725 
" clip-path="url(#pd4b358ad70)" style="fill: none; stroke: #e24a33; stroke-width: 1.2"/>
    <path d="M 93.51425 229.703963 
L 93.51425 228.854475 
" clip-path="url(#pd4b358ad70)" style="fill: none; stroke: #e24a33; stroke-width: 1.2"/>
    <path d="M 100.21025 228.76739 
L 100.21025 227.147196 
" clip-path="url(#pd4b358ad70)" style="fill: none; stroke: #e24a33; stroke-width: 1.2"/>
    <path d="M 106.90625 228.979236 
L 106.90625 227.473532 
" clip-path="url(#pd4b358ad70)" style="fill: none; stroke: #e24a33; stroke-width: 1.2"/>
    <path d="M 113.60225 227.185857 
L 113.60225 224.942788 
" clip-path="url(#pd4b358ad70)" style="fill: none; stroke: #e24a33; stroke-width: 1.2"/>
    <path d="M 120.29825 224.795616 
L 120.29825 221.908738 
" clip-path="url(#pd4b358ad70)" style="fill: none; stroke: #e24a33; stroke-width: 1.2"/>
    <path d="M 126.99425 221.343743 
L 126.99425 217.759527 
" clip-path="url(#pd4b358ad70)" style="fill: none; stroke: #e24a33; stroke-width: 1.2"/>
    <path d="M 133.69025 205.036878 
L 133.69025 199.299968 
" clip-path="url(#pd4b358ad70)" style="fill: none; stroke: #e24a33; stroke-width: 1.2"/>
    <path d="M 140.38625 194.926187 
L 140.38625 188.221522 
" clip-path="url(#pd4b358ad70)" style="fill: none; stroke: #e24a33; stroke-width: 1.2"/>
    <path d="M 147.08225 178.991408 
L 147.08225 171.013029 
" clip-path="url(#pd4b358ad70)" style="fill: none; stroke: #e24a33; stroke-width: 1.2"/>
    <path d="M 153.77825 159.014 
L 153.77825 149.696229 
" clip-path="url(#pd4b358ad70)" style="fill: none; stroke: #e24a33; stroke-width: 1.2"/>
    <path d="M 160.47425 136.30426 
L 160.47425 125.677737 
" clip-path="url(#pd4b358ad70)" style="fill: none; stroke: #e24a33; stroke-width: 1.2"/>
    <path d="M 167.17025 98.123583 
L 167.17025 85.615159 
" clip-path="url(#pd4b358ad70)" style="fill: none; stroke: #e24a33; stroke-width: 1.2"/>
    <path d="M 173.86625 87.227248 
L 173.86625 74.233818 
" clip-path="url(#pd4b358ad70)" style="fill: none; stroke: #e24a33; stroke-width: 1.2"/>
    <path d="M 180.56225 85.63189 
L 180.56225 72.569026 
" clip-path="url(#pd4b358ad70)" style="fill: none; stroke: #e24a33; stroke-width: 1.2"/>
    <path d="M 187.25825 81.642681 
L 187.25825 68.407859 
" clip-path="url(#pd4b358ad70)" style="fill: none; stroke: #e24a33; stroke-width: 1.2"/>
    <path d="M 193.95425 98.920497 
L 193.95425 86.448318 
" clip-path="url(#pd4b358ad70)" style="fill: none; stroke: #e24a33; stroke-width: 1.2"/>
    <path d="M 200.65025 95.732522 
L 200.65025 83.116001 
" clip-path="url(#pd4b358ad70)" style="fill: none; stroke: #e24a33; stroke-width: 1.2"/>
    <path d="M 207.34625 110.07138 
L 207.34625 98.118435 
" clip-path="url(#pd4b358ad70)" style="fill: none; stroke: #e24a33; stroke-width: 1.2"/>
    <path d="M 214.04225 103.966341 
L 214.04225 91.726263 
" clip-path="url(#pd4b358ad70)" style="fill: none; stroke: #e24a33; stroke-width: 1.2"/>
    <path d="M 220.73825 101.045335 
L 220.73825 88.67034 
" clip-path="url(#pd4b358ad70)" style="fill: none; stroke: #e24a33; stroke-width: 1.2"/>
    <path d="M 227.43425 92.277941 
L 227.43425 79.506929 
" clip-path="url(#pd4b358ad70)" style="fill: none; stroke: #e24a33; stroke-width: 1.2"/>
    <path d="M 234.13025 83.770402 
L 234.13025 70.627005 
" clip-path="url(#pd4b358ad70)" style="fill: none; stroke: #e24a33; stroke-width: 1.2"/>
    <path d="M 240.82625 76.321989 
L 240.82625 62.861377 
" clip-path="url(#pd4b358ad70)" style="fill: none; stroke: #e24a33; stroke-width: 1.2"/>
    <path d="M 247.52225 73.128654 
L 247.52225 59.534405 
" clip-path="url(#pd4b358ad70)" style="fill: none; stroke: #e24a33; stroke-width: 1.2"/>
    <path d="M 254.21825 84.036344 
L 254.21825 70.904421 
" clip-path="url(#pd4b358ad70)" style="fill: none; stroke: #e24a33; stroke-width: 1.2"/>
    <path d="M 260.91425 92.277941 
L 260.91425 79.506929 
" clip-path="url(#pd4b358ad70)" style="fill: none; stroke: #e24a33; stroke-width: 1.2"/>
    <path d="M 267.61025 116.70317 
L 267.61025 105.070555 
" clip-path="url(#pd4b358ad70)" style="fill: none; stroke: #e24a33; stroke-width: 1.2"/>
    <path d="M 274.30625 133.393638 
L 274.30625 122.611465 
" clip-path="url(#pd4b358ad70)" style="fill: none; stroke: #e24a33; stroke-width: 1.2"/>
    <path d="M 281.00225 143.44335 
L 281.00225 133.209181 
" clip-path="url(#pd4b358ad70)" style="fill: none; stroke: #e24a33; stroke-width: 1.2"/>
    <path d="M 287.69825 169.804694 
L 287.69825 161.182759 
" clip-path="url(#pd4b358ad70)" style="fill: none; stroke: #e24a33; stroke-width: 1.2"/>
    <path d="M 294.39425 186.581238 
L 294.39425 179.179963 
" clip-path="url(#pd4b358ad70)" style="fill: none; stroke: #e24a33; stroke-width: 1.2"/>
    <path d="M 301.09025 197.785655 
L 301.09025 191.338572 
" clip-path="url(#pd4b358ad70)" style="fill: none; stroke: #e24a33; stroke-width: 1.2"/>
    <path d="M 307.78625 207.614763 
L 307.78625 202.154993 
" clip-path="url(#pd4b358ad70)" style="fill: none; stroke: #e24a33; stroke-width: 1.2"/>
    <path d="M 314.48225 216.310152 
L 314.48225 211.9302 
" clip-path="url(#pd4b358ad70)" style="fill: none; stroke: #e24a33; stroke-width: 1.2"/>
    <path d="M 321.17825 219.340914 
L 321.17825 215.417535 
" clip-path="url(#pd4b358ad70)" style="fill: none; stroke: #e24a33; stroke-width: 1.2"/>
    <path d="M 327.87425 224.795616 
L 327.87425 221.908738 
" clip-path="url(#pd4b358ad70)" style="fill: none; stroke: #e24a33; stroke-width: 1.2"/>
    <path d="M 334.57025 227.649595 
L 334.57025 225.562509 
" clip-path="url(#pd4b358ad70)" style="fill: none; stroke: #e24a33; stroke-width: 1.2"/>
    <path d="M 341.26625 227.649595 
L 341.26625 225.562509 
" clip-path="url(#pd4b358ad70)" style="fill: none; stroke: #e24a33; stroke-width: 1.2"/>
    <path d="M 347.96225 229.379427 
L 347.96225 228.143033 
" clip-path="url(#pd4b358ad70)" style="fill: none; stroke: #e24a33; stroke-width: 1.2"/>
    <path d="M 354.65825 229.379427 
L 354.65825 228.143033 
" clip-path="url(#pd4b358ad70)" style="fill: none; stroke: #e24a33; stroke-width: 1.2"/>
    <path d="M 361.35425 229.703963 
L 361.35425 228.854475 
" clip-path="url(#pd4b358ad70)" style="fill: none; stroke: #e24a33; stroke-width: 1.2"/>
    <path d="M 368.05025 229.750897 
L 368.05025 229.250725 
" clip-path="url(#pd4b358ad70)" style="fill: none; stroke: #e24a33; stroke-width: 1.2"/>
    <path d="M 374.74625 229.750897 
L 374.74625 229.250725 
" clip-path="url(#pd4b358ad70)" style="fill: none; stroke: #e24a33; stroke-width: 1.2"/>
    <path d="M 381.44225 229.750897 
L 381.44225 229.250725 
" clip-path="url(#pd4b358ad70)" style="fill: none; stroke: #e24a33; stroke-width: 1.2"/>
    <path d="M 388.13825 229.558496 
L 388.13825 228.490875 
" clip-path="url(#pd4b358ad70)" style="fill: none; stroke: #e24a33; stroke-width: 1.2"/>
   </g>
   <g id="LineCollection_4"/>
   <g id="line2d_1"/>
   <g id="line2d_2"/>
   <g id="line2d_3"/>
   <g id="line2d_4"/>
   <g id="patch_5">
    <path d="M 56.68625 229.750897 
L 56.68625 7.990897 
" style="fill: none; stroke: #000000; stroke-linejoin: miter; stroke-linecap: square"/>
   </g>
   <g id="patch_6">
    <path d="M 391.48625 229.750897 
L 391.48625 7.990897 
" style="fill: none; stroke: #000000; stroke-linejoin: miter; stroke-linecap: square"/>
   </g>
   <g id="patch_7">
    <path d="M 56.68625 229.750897 
L 391.48625 229.750897 
" style="fill: none; stroke: #000000; stroke-linejoin: miter; stroke-linecap: square"/>
   </g>
   <g id="patch_8">
    <path d="M 56.68625 7.990897 
L 391.48625 7.990897 
" style="fill: none; stroke: #000000; stroke-linejoin: miter; stroke-linecap: square"/>
   </g>
   <g id="matplotlib.axis_1">
    <g id="xtick_1">
     <g id="line2d_5">
      <defs>
       <path id="m8dec1b3d1d" d="M 0 0 
L 0 -6 
" style="stroke: #1a1a1a; stroke-width: 0.8"/>
      </defs>
      <g>
       <use xlink:href="#m8dec1b3d1d" x="127.498285" y="229.750897" style="fill: #1a1a1a; stroke: #1a1a1a; stroke-width: 0.8"/>
      </g>
     </g>
     <g id="text_1">
      <!-- $\mathdefault{−5}$ -->
      <g style="fill: #1a1a1a" transform="translate(117.898285 248.161834) scale(0.15 -0.15)">
       <defs>
        <path id="LatinModernMath-Regular-2212" d="M 4621 1600 
C 4621 1670 4563 1728 4493 1728 
L 486 1728 
C 416 1728 358 1670 358 1600 
C 358 1530 416 1472 486 1472 
L 4493 1472 
C 4563 1472 4621 1530 4621 1600 
z
" transform="scale(0.015625)"/>
        <path id="LatinModernMath-Regular-35" d="M 2874 1286 
C 2874 2048 2349 2688 1658 2688 
C 1350 2688 1075 2586 845 2362 
L 845 3610 
C 973 3571 1184 3526 1389 3526 
C 2176 3526 2624 4109 2624 4192 
C 2624 4230 2605 4262 2560 4262 
C 2560 4262 2541 4262 2509 4243 
C 2381 4186 2067 4058 1638 4058 
C 1382 4058 1088 4102 787 4237 
C 736 4256 710 4256 710 4256 
C 646 4256 646 4205 646 4102 
L 646 2208 
C 646 2093 646 2042 736 2042 
C 781 2042 794 2061 819 2099 
C 890 2202 1126 2547 1645 2547 
C 1978 2547 2138 2253 2189 2138 
C 2291 1901 2304 1651 2304 1331 
C 2304 1107 2304 723 2150 454 
C 1997 205 1760 38 1466 38 
C 998 38 634 378 525 755 
C 544 749 563 742 634 742 
C 845 742 954 902 954 1056 
C 954 1210 845 1370 634 1370 
C 544 1370 320 1325 320 1030 
C 320 480 762 -141 1478 -141 
C 2221 -141 2874 474 2874 1286 
z
" transform="scale(0.015625)"/>
       </defs>
       <use xlink:href="#LatinModernMath-Regular-2212" transform="translate(0 0.40625)"/>
       <use xlink:href="#LatinModernMath-Regular-35" transform="translate(77.799988 0.40625)"/>
      </g>
     </g>
    </g>
    <g id="xtick_2">
     <g id="line2d_6">
      <g>
       <use xlink:href="#m8dec1b3d1d" x="213.652429" y="229.750897" style="fill: #1a1a1a; stroke: #1a1a1a; stroke-width: 0.8"/>
      </g>
     </g>
     <g id="text_2">
      <!-- $\mathdefault{0}$ -->
      <g style="fill: #1a1a1a" transform="translate(209.902429 248.161834) scale(0.15 -0.15)">
       <defs>
        <path id="LatinModernMath-Regular-30" d="M 2944 2048 
C 2944 2560 2912 3072 2688 3546 
C 2394 4160 1869 4262 1600 4262 
C 1216 4262 749 4096 486 3501 
C 282 3059 250 2560 250 2048 
C 250 1568 275 992 538 506 
C 813 -13 1280 -141 1594 -141 
C 1939 -141 2426 -6 2707 602 
C 2912 1043 2944 1542 2944 2048 
z
M 2413 2125 
C 2413 1645 2413 1210 2342 800 
C 2246 192 1882 0 1594 0 
C 1344 0 966 160 851 774 
C 781 1158 781 1747 781 2125 
C 781 2534 781 2957 832 3302 
C 954 4064 1434 4122 1594 4122 
C 1805 4122 2227 4006 2349 3373 
C 2413 3014 2413 2528 2413 2125 
z
" transform="scale(0.015625)"/>
       </defs>
       <use xlink:href="#LatinModernMath-Regular-30" transform="translate(0 0.40625)"/>
      </g>
     </g>
    </g>
    <g id="xtick_3">
     <g id="line2d_7">
      <g>
       <use xlink:href="#m8dec1b3d1d" x="299.806572" y="229.750897" style="fill: #1a1a1a; stroke: #1a1a1a; stroke-width: 0.8"/>
      </g>
     </g>
     <g id="text_3">
      <!-- $\mathdefault{5}$ -->
      <g style="fill: #1a1a1a" transform="translate(296.056572 248.161834) scale(0.15 -0.15)">
       <use xlink:href="#LatinModernMath-Regular-35" transform="translate(0 0.40625)"/>
      </g>
     </g>
    </g>
    <g id="xtick_4">
     <g id="line2d_8">
      <g>
       <use xlink:href="#m8dec1b3d1d" x="385.960716" y="229.750897" style="fill: #1a1a1a; stroke: #1a1a1a; stroke-width: 0.8"/>
      </g>
     </g>
     <g id="text_4">
      <!-- $\mathdefault{10}$ -->
      <g style="fill: #1a1a1a" transform="translate(378.460716 248.161834) scale(0.15 -0.15)">
       <defs>
        <path id="LatinModernMath-Regular-31" d="M 2682 0 
L 2682 198 
L 2477 198 
C 1901 198 1882 269 1882 506 
L 1882 4096 
C 1882 4250 1882 4262 1734 4262 
C 1338 3853 774 3853 570 3853 
L 570 3654 
C 698 3654 1075 3654 1408 3821 
L 1408 506 
C 1408 275 1389 198 813 198 
L 608 198 
L 608 0 
C 832 19 1389 19 1645 19 
C 1901 19 2458 19 2682 0 
z
" transform="scale(0.015625)"/>
       </defs>
       <use xlink:href="#LatinModernMath-Regular-31" transform="translate(0 0.40625)"/>
       <use xlink:href="#LatinModernMath-Regular-30" transform="translate(49.999985 0.40625)"/>
      </g>
     </g>
    </g>
    <g id="xtick_5">
     <g id="line2d_9">
      <defs>
       <path id="m131efc0c90" d="M 0 0 
L 0 -3 
" style="stroke: #1a1a1a; stroke-width: 0.6"/>
      </defs>
      <g>
       <use xlink:href="#m131efc0c90" x="58.574971" y="229.750897" style="fill: #1a1a1a; stroke: #1a1a1a; stroke-width: 0.6"/>
      </g>
     </g>
    </g>
    <g id="xtick_6">
     <g id="line2d_10">
      <g>
       <use xlink:href="#m131efc0c90" x="75.805799" y="229.750897" style="fill: #1a1a1a; stroke: #1a1a1a; stroke-width: 0.6"/>
      </g>
     </g>
    </g>
    <g id="xtick_7">
     <g id="line2d_11">
      <g>
       <use xlink:href="#m131efc0c90" x="93.036628" y="229.750897" style="fill: #1a1a1a; stroke: #1a1a1a; stroke-width: 0.6"/>
      </g>
     </g>
    </g>
    <g id="xtick_8">
     <g id="line2d_12">
      <g>
       <use xlink:href="#m131efc0c90" x="110.267457" y="229.750897" style="fill: #1a1a1a; stroke: #1a1a1a; stroke-width: 0.6"/>
      </g>
     </g>
    </g>
    <g id="xtick_9">
     <g id="line2d_13">
      <g>
       <use xlink:href="#m131efc0c90" x="144.729114" y="229.750897" style="fill: #1a1a1a; stroke: #1a1a1a; stroke-width: 0.6"/>
      </g>
     </g>
    </g>
    <g id="xtick_10">
     <g id="line2d_14">
      <g>
       <use xlink:href="#m131efc0c90" x="161.959943" y="229.750897" style="fill: #1a1a1a; stroke: #1a1a1a; stroke-width: 0.6"/>
      </g>
     </g>
    </g>
    <g id="xtick_11">
     <g id="line2d_15">
      <g>
       <use xlink:href="#m131efc0c90" x="179.190771" y="229.750897" style="fill: #1a1a1a; stroke: #1a1a1a; stroke-width: 0.6"/>
      </g>
     </g>
    </g>
    <g id="xtick_12">
     <g id="line2d_16">
      <g>
       <use xlink:href="#m131efc0c90" x="196.4216" y="229.750897" style="fill: #1a1a1a; stroke: #1a1a1a; stroke-width: 0.6"/>
      </g>
     </g>
    </g>
    <g id="xtick_13">
     <g id="line2d_17">
      <g>
       <use xlink:href="#m131efc0c90" x="230.883257" y="229.750897" style="fill: #1a1a1a; stroke: #1a1a1a; stroke-width: 0.6"/>
      </g>
     </g>
    </g>
    <g id="xtick_14">
     <g id="line2d_18">
      <g>
       <use xlink:href="#m131efc0c90" x="248.114086" y="229.750897" style="fill: #1a1a1a; stroke: #1a1a1a; stroke-width: 0.6"/>
      </g>
     </g>
    </g>
    <g id="xtick_15">
     <g id="line2d_19">
      <g>
       <use xlink:href="#m131efc0c90" x="265.344915" y="229.750897" style="fill: #1a1a1a; stroke: #1a1a1a; stroke-width: 0.6"/>
      </g>
     </g>
    </g>
    <g id="xtick_16">
     <g id="line2d_20">
      <g>
       <use xlink:href="#m131efc0c90" x="282.575744" y="229.750897" style="fill: #1a1a1a; stroke: #1a1a1a; stroke-width: 0.6"/>
      </g>
     </g>
    </g>
    <g id="xtick_17">
     <g id="line2d_21">
      <g>
       <use xlink:href="#m131efc0c90" x="317.037401" y="229.750897" style="fill: #1a1a1a; stroke: #1a1a1a; stroke-width: 0.6"/>
      </g>
     </g>
    </g>
    <g id="xtick_18">
     <g id="line2d_22">
      <g>
       <use xlink:href="#m131efc0c90" x="334.26823" y="229.750897" style="fill: #1a1a1a; stroke: #1a1a1a; stroke-width: 0.6"/>
      </g>
     </g>
    </g>
    <g id="xtick_19">
     <g id="line2d_23">
      <g>
       <use xlink:href="#m131efc0c90" x="351.499058" y="229.750897" style="fill: #1a1a1a; stroke: #1a1a1a; stroke-width: 0.6"/>
      </g>
     </g>
    </g>
    <g id="xtick_20">
     <g id="line2d_24">
      <g>
       <use xlink:href="#m131efc0c90" x="368.729887" y="229.750897" style="fill: #1a1a1a; stroke: #1a1a1a; stroke-width: 0.6"/>
      </g>
     </g>
    </g>
    <g id="text_5">
     <!-- variable_1 -->
     <g style="fill: #1a1a1a" transform="translate(185.306094 269.565897) scale(0.18 -0.18)">
      <defs>
       <path id="LatinModernMath-Regular-76" d="M 3251 2560 
L 3251 2758 
C 3104 2746 2918 2739 2771 2739 
L 2214 2758 
L 2214 2560 
C 2451 2554 2522 2406 2522 2285 
C 2522 2227 2509 2202 2483 2131 
L 1830 499 
L 1114 2285 
C 1075 2368 1075 2394 1075 2394 
C 1075 2560 1325 2560 1440 2560 
L 1440 2758 
L 742 2739 
C 570 2739 314 2746 122 2758 
L 122 2560 
C 525 2560 550 2522 634 2323 
L 1555 51 
C 1594 -38 1606 -70 1690 -70 
C 1773 -70 1798 -13 1824 51 
L 2662 2131 
C 2720 2278 2829 2554 3251 2560 
z
" transform="scale(0.015625)"/>
       <path id="LatinModernMath-Regular-61" d="M 3091 570 
L 3091 928 
L 2931 928 
L 2931 570 
C 2931 198 2771 160 2701 160 
C 2490 160 2464 448 2464 480 
L 2464 1760 
C 2464 2029 2464 2278 2234 2515 
C 1984 2765 1664 2867 1357 2867 
C 832 2867 390 2566 390 2144 
C 390 1952 518 1843 685 1843 
C 864 1843 979 1971 979 2138 
C 979 2214 947 2426 653 2432 
C 826 2656 1139 2726 1344 2726 
C 1658 2726 2022 2477 2022 1907 
L 2022 1670 
C 1696 1651 1248 1632 845 1440 
C 365 1222 205 890 205 608 
C 205 90 826 -70 1229 -70 
C 1651 -70 1946 186 2067 486 
C 2093 230 2266 -38 2566 -38 
C 2701 -38 3091 51 3091 570 
z
M 2022 896 
C 2022 288 1562 70 1274 70 
C 960 70 698 294 698 614 
C 698 966 966 1498 2022 1536 
L 2022 896 
z
" transform="scale(0.015625)"/>
       <path id="LatinModernMath-Regular-72" d="M 2330 2438 
C 2330 2643 2131 2829 1856 2829 
C 1389 2829 1158 2400 1069 2125 
L 1069 2829 
L 179 2758 
L 179 2560 
C 627 2560 678 2515 678 2202 
L 678 486 
C 678 198 608 198 179 198 
L 179 0 
L 909 19 
C 1165 19 1466 19 1722 0 
L 1722 198 
L 1587 198 
C 1114 198 1101 269 1101 499 
L 1101 1485 
C 1101 2118 1370 2688 1856 2688 
C 1901 2688 1914 2688 1926 2682 
C 1907 2675 1779 2598 1779 2432 
C 1779 2253 1914 2157 2054 2157 
C 2170 2157 2330 2234 2330 2438 
z
" transform="scale(0.015625)"/>
       <path id="LatinModernMath-Regular-69" d="M 1581 0 
L 1581 198 
C 1158 198 1133 230 1133 480 
L 1133 2829 
L 237 2758 
L 237 2560 
C 653 2560 710 2522 710 2208 
L 710 486 
C 710 198 640 198 211 198 
L 211 0 
L 915 19 
C 1139 19 1363 6 1581 0 
z
M 1229 3866 
C 1229 4038 1082 4205 890 4205 
C 672 4205 544 4026 544 3866 
C 544 3693 691 3526 883 3526 
C 1101 3526 1229 3706 1229 3866 
z
" transform="scale(0.015625)"/>
       <path id="LatinModernMath-Regular-62" d="M 3334 1382 
C 3334 2195 2707 2829 1978 2829 
C 1478 2829 1203 2528 1101 2413 
L 1101 4442 
L 179 4371 
L 179 4173 
C 627 4173 678 4128 678 3814 
L 678 0 
L 838 0 
L 1069 397 
C 1165 250 1434 -70 1907 -70 
C 2669 -70 3334 557 3334 1382 
z
M 2803 1389 
C 2803 1152 2790 768 2605 480 
C 2470 282 2227 70 1882 70 
C 1594 70 1363 224 1210 461 
C 1120 595 1120 614 1120 730 
L 1120 2048 
C 1120 2170 1120 2176 1190 2278 
C 1440 2637 1792 2688 1946 2688 
C 2234 2688 2464 2522 2618 2278 
C 2784 2016 2803 1651 2803 1389 
z
" transform="scale(0.015625)"/>
       <path id="LatinModernMath-Regular-6c" d="M 1632 0 
L 1632 198 
C 1203 198 1133 198 1133 486 
L 1133 4442 
L 211 4371 
L 211 4173 
C 659 4173 710 4128 710 3814 
L 710 486 
C 710 198 640 198 211 198 
L 211 0 
L 922 19 
L 1632 0 
z
" transform="scale(0.015625)"/>
       <path id="LatinModernMath-Regular-65" d="M 2656 762 
C 2656 826 2605 838 2573 838 
C 2515 838 2502 800 2490 749 
C 2266 90 1690 90 1626 90 
C 1306 90 1050 282 902 518 
C 710 826 710 1248 710 1478 
L 2496 1478 
C 2637 1478 2656 1478 2656 1613 
C 2656 2246 2310 2867 1510 2867 
C 768 2867 179 2208 179 1408 
C 179 550 851 -70 1587 -70 
C 2368 -70 2656 640 2656 762 
z
M 2234 1613 
L 717 1613 
C 755 2566 1293 2726 1510 2726 
C 2170 2726 2234 1862 2234 1613 
z
" transform="scale(0.015625)"/>
       <path id="LatinModernMath-Regular-5f" d="M 2131 -896 
L 2131 -640 
L 0 -640 
L 0 -896 
L 2131 -896 
z
" transform="scale(0.015625)"/>
      </defs>
      <use xlink:href="#LatinModernMath-Regular-76"/>
      <use xlink:href="#LatinModernMath-Regular-61" x="52.799988"/>
      <use xlink:href="#LatinModernMath-Regular-72" x="102.799973"/>
      <use xlink:href="#LatinModernMath-Regular-69" x="141.999969"/>
      <use xlink:href="#LatinModernMath-Regular-61" x="169.799957"/>
      <use xlink:href="#LatinModernMath-Regular-62" x="219.799942"/>
      <use xlink:href="#LatinModernMath-Regular-6c" x="275.399933"/>
      <use xlink:href="#LatinModernMath-Regular-65" x="303.199921"/>
      <use xlink:href="#LatinModernMath-Regular-5f" x="347.599915"/>
      <use xlink:href="#LatinModernMath-Regular-31" x="380.899902"/>
     </g>
    </g>
   </g>
   <g id="matplotlib.axis_2">
    <g id="ytick_1">
     <g id="line2d_25">
      <defs>
       <path id="mc947610920" d="M 0 0 
L 6 0 
" style="stroke: #1a1a1a; stroke-width: 0.8"/>
      </defs>
      <g>
       <use xlink:href="#mc947610920" x="56.68625" y="229.750897" style="fill: #1a1a1a; stroke: #1a1a1a; stroke-width: 0.8"/>
      </g>
     </g>
     <g id="text_6">
      <!-- $\mathdefault{0}$ -->
      <g style="fill: #1a1a1a" transform="translate(44.18625 234.956365) scale(0.15 -0.15)">
       <use xlink:href="#LatinModernMath-Regular-30" transform="translate(0 0.40625)"/>
      </g>
     </g>
    </g>
    <g id="ytick_2">
     <g id="line2d_26">
      <g>
       <use xlink:href="#mc947610920" x="56.68625" y="175.41454" style="fill: #1a1a1a; stroke: #1a1a1a; stroke-width: 0.8"/>
      </g>
     </g>
     <g id="text_7">
      <!-- $\mathdefault{200}$ -->
      <g style="fill: #1a1a1a" transform="translate(29.18625 180.620008) scale(0.15 -0.15)">
       <defs>
        <path id="LatinModernMath-Regular-32" d="M 2874 1114 
L 2714 1114 
C 2682 922 2637 640 2573 544 
C 2528 493 2106 493 1965 493 
L 813 493 
L 1491 1152 
C 2490 2035 2874 2381 2874 3021 
C 2874 3750 2298 4262 1517 4262 
C 794 4262 320 3674 320 3104 
C 320 2746 640 2746 659 2746 
C 768 2746 992 2822 992 3085 
C 992 3251 877 3418 653 3418 
C 602 3418 589 3418 570 3411 
C 717 3827 1062 4064 1434 4064 
C 2016 4064 2291 3546 2291 3021 
C 2291 2509 1971 2003 1619 1606 
L 390 237 
C 320 166 320 154 320 0 
L 2694 0 
L 2874 1114 
z
" transform="scale(0.015625)"/>
       </defs>
       <use xlink:href="#LatinModernMath-Regular-32" transform="translate(0 0.40625)"/>
       <use xlink:href="#LatinModernMath-Regular-30" transform="translate(49.999985 0.40625)"/>
       <use xlink:href="#LatinModernMath-Regular-30" transform="translate(99.999969 0.40625)"/>
      </g>
     </g>
    </g>
    <g id="ytick_3">
     <g id="line2d_27">
      <g>
       <use xlink:href="#mc947610920" x="56.68625" y="121.078183" style="fill: #1a1a1a; stroke: #1a1a1a; stroke-width: 0.8"/>
      </g>
     </g>
     <g id="text_8">
      <!-- $\mathdefault{400}$ -->
      <g style="fill: #1a1a1a" transform="translate(29.18625 126.283651) scale(0.15 -0.15)">
       <defs>
        <path id="LatinModernMath-Regular-34" d="M 3014 1056 
L 3014 1254 
L 2374 1254 
L 2374 4166 
C 2374 4294 2374 4333 2272 4333 
C 2214 4333 2195 4333 2144 4256 
L 179 1254 
L 179 1056 
L 1882 1056 
L 1882 499 
C 1882 269 1869 198 1395 198 
L 1261 198 
L 1261 0 
C 1523 19 1856 19 2125 19 
C 2394 19 2733 19 2995 0 
L 2995 198 
L 2861 198 
C 2387 198 2374 269 2374 499 
L 2374 1056 
L 3014 1056 
z
M 1920 1254 
L 358 1254 
L 1920 3642 
L 1920 1254 
z
" transform="scale(0.015625)"/>
       </defs>
       <use xlink:href="#LatinModernMath-Regular-34" transform="translate(0 0.296875)"/>
       <use xlink:href="#LatinModernMath-Regular-30" transform="translate(49.999985 0.296875)"/>
       <use xlink:href="#LatinModernMath-Regular-30" transform="translate(99.999969 0.296875)"/>
      </g>
     </g>
    </g>
    <g id="ytick_4">
     <g id="line2d_28">
      <g>
       <use xlink:href="#mc947610920" x="56.68625" y="66.741826" style="fill: #1a1a1a; stroke: #1a1a1a; stroke-width: 0.8"/>
      </g>
     </g>
     <g id="text_9">
      <!-- $\mathdefault{600}$ -->
      <g style="fill: #1a1a1a" transform="translate(29.18625 71.947294) scale(0.15 -0.15)">
       <defs>
        <path id="LatinModernMath-Regular-36" d="M 2925 1306 
C 2925 2118 2355 2733 1645 2733 
C 1210 2733 973 2406 845 2099 
L 845 2253 
C 845 3872 1638 4102 1965 4102 
C 2118 4102 2387 4064 2528 3846 
C 2432 3846 2176 3846 2176 3558 
C 2176 3360 2330 3264 2470 3264 
C 2573 3264 2765 3322 2765 3571 
C 2765 3955 2483 4262 1952 4262 
C 1133 4262 269 3437 269 2022 
C 269 314 1011 -141 1606 -141 
C 2317 -141 2925 461 2925 1306 
z
M 2349 1312 
C 2349 1005 2349 685 2240 454 
C 2048 70 1754 38 1606 38 
C 1203 38 1011 422 973 518 
C 858 819 858 1331 858 1446 
C 858 1946 1062 2586 1638 2586 
C 1741 2586 2035 2586 2234 2189 
C 2349 1952 2349 1626 2349 1312 
z
" transform="scale(0.015625)"/>
       </defs>
       <use xlink:href="#LatinModernMath-Regular-36" transform="translate(0 0.40625)"/>
       <use xlink:href="#LatinModernMath-Regular-30" transform="translate(49.999985 0.40625)"/>
       <use xlink:href="#LatinModernMath-Regular-30" transform="translate(99.999969 0.40625)"/>
      </g>
     </g>
    </g>
    <g id="ytick_5">
     <g id="line2d_29">
      <g>
       <use xlink:href="#mc947610920" x="56.68625" y="12.405469" style="fill: #1a1a1a; stroke: #1a1a1a; stroke-width: 0.8"/>
      </g>
     </g>
     <g id="text_10">
      <!-- $\mathdefault{800}$ -->
      <g style="fill: #1a1a1a" transform="translate(29.18625 17.610938) scale(0.15 -0.15)">
       <defs>
        <path id="LatinModernMath-Regular-38" d="M 2925 1075 
C 2925 1306 2854 1594 2611 1862 
C 2490 1997 2387 2061 1978 2317 
C 2438 2554 2752 2886 2752 3309 
C 2752 3898 2182 4262 1600 4262 
C 960 4262 442 3789 442 3194 
C 442 3078 454 2790 723 2490 
C 794 2413 1030 2253 1190 2144 
C 819 1958 269 1600 269 966 
C 269 288 922 -141 1594 -141 
C 2317 -141 2925 390 2925 1075 
z
M 2470 3309 
C 2470 2944 2221 2637 1837 2413 
L 1043 2925 
C 749 3117 723 3334 723 3443 
C 723 3834 1139 4102 1594 4102 
C 2061 4102 2470 3770 2470 3309 
z
M 2605 845 
C 2605 371 2125 38 1600 38 
C 1050 38 589 435 589 966 
C 589 1338 794 1747 1338 2048 
L 2125 1549 
C 2304 1427 2605 1235 2605 845 
z
" transform="scale(0.015625)"/>
       </defs>
       <use xlink:href="#LatinModernMath-Regular-38" transform="translate(0 0.40625)"/>
       <use xlink:href="#LatinModernMath-Regular-30" transform="translate(49.999985 0.40625)"/>
       <use xlink:href="#LatinModernMath-Regular-30" transform="translate(99.999969 0.40625)"/>
      </g>
     </g>
    </g>
    <g id="ytick_6">
     <g id="line2d_30">
      <defs>
       <path id="m5f9d1e6504" d="M 0 0 
L 3 0 
" style="stroke: #1a1a1a; stroke-width: 0.6"/>
      </defs>
      <g>
       <use xlink:href="#m5f9d1e6504" x="56.68625" y="216.166807" style="fill: #1a1a1a; stroke: #1a1a1a; stroke-width: 0.6"/>
      </g>
     </g>
    </g>
    <g id="ytick_7">
     <g id="line2d_31">
      <g>
       <use xlink:href="#m5f9d1e6504" x="56.68625" y="202.582718" style="fill: #1a1a1a; stroke: #1a1a1a; stroke-width: 0.6"/>
      </g>
     </g>
    </g>
    <g id="ytick_8">
     <g id="line2d_32">
      <g>
       <use xlink:href="#m5f9d1e6504" x="56.68625" y="188.998629" style="fill: #1a1a1a; stroke: #1a1a1a; stroke-width: 0.6"/>
      </g>
     </g>
    </g>
    <g id="ytick_9">
     <g id="line2d_33">
      <g>
       <use xlink:href="#m5f9d1e6504" x="56.68625" y="161.83045" style="fill: #1a1a1a; stroke: #1a1a1a; stroke-width: 0.6"/>
      </g>
     </g>
    </g>
    <g id="ytick_10">
     <g id="line2d_34">
      <g>
       <use xlink:href="#m5f9d1e6504" x="56.68625" y="148.246361" style="fill: #1a1a1a; stroke: #1a1a1a; stroke-width: 0.6"/>
      </g>
     </g>
    </g>
    <g id="ytick_11">
     <g id="line2d_35">
      <g>
       <use xlink:href="#m5f9d1e6504" x="56.68625" y="134.662272" style="fill: #1a1a1a; stroke: #1a1a1a; stroke-width: 0.6"/>
      </g>
     </g>
    </g>
    <g id="ytick_12">
     <g id="line2d_36">
      <g>
       <use xlink:href="#m5f9d1e6504" x="56.68625" y="107.494093" style="fill: #1a1a1a; stroke: #1a1a1a; stroke-width: 0.6"/>
      </g>
     </g>
    </g>
    <g id="ytick_13">
     <g id="line2d_37">
      <g>
       <use xlink:href="#m5f9d1e6504" x="56.68625" y="93.910004" style="fill: #1a1a1a; stroke: #1a1a1a; stroke-width: 0.6"/>
      </g>
     </g>
    </g>
    <g id="ytick_14">
     <g id="line2d_38">
      <g>
       <use xlink:href="#m5f9d1e6504" x="56.68625" y="80.325915" style="fill: #1a1a1a; stroke: #1a1a1a; stroke-width: 0.6"/>
      </g>
     </g>
    </g>
    <g id="ytick_15">
     <g id="line2d_39">
      <g>
       <use xlink:href="#m5f9d1e6504" x="56.68625" y="53.157736" style="fill: #1a1a1a; stroke: #1a1a1a; stroke-width: 0.6"/>
      </g>
     </g>
    </g>
    <g id="ytick_16">
     <g id="line2d_40">
      <g>
       <use xlink:href="#m5f9d1e6504" x="56.68625" y="39.573647" style="fill: #1a1a1a; stroke: #1a1a1a; stroke-width: 0.6"/>
      </g>
     </g>
    </g>
    <g id="ytick_17">
     <g id="line2d_41">
      <g>
       <use xlink:href="#m5f9d1e6504" x="56.68625" y="25.989558" style="fill: #1a1a1a; stroke: #1a1a1a; stroke-width: 0.6"/>
      </g>
     </g>
    </g>
    <g id="text_11">
     <!-- Entries -->
     <g style="fill: #1a1a1a" transform="translate(19.693125 147.077459) rotate(-90) scale(0.18 -0.18)">
      <defs>
       <path id="LatinModernMath-Regular-45" d="M 4173 1651 
L 4013 1651 
C 3853 666 3706 198 2605 198 
L 1754 198 
C 1453 198 1440 243 1440 454 
L 1440 2163 
L 2016 2163 
C 2637 2163 2707 1958 2707 1414 
L 2867 1414 
L 2867 3110 
L 2707 3110 
C 2707 2560 2637 2362 2016 2362 
L 1440 2362 
L 1440 3898 
C 1440 4109 1453 4154 1754 4154 
L 2579 4154 
C 3558 4154 3731 3802 3834 2912 
L 3994 2912 
L 3814 4352 
L 211 4352 
L 211 4154 
L 365 4154 
C 858 4154 870 4083 870 3853 
L 870 499 
C 870 269 858 198 365 198 
L 211 198 
L 211 0 
L 3904 0 
L 4173 1651 
z
" transform="scale(0.015625)"/>
       <path id="LatinModernMath-Regular-6e" d="M 3424 0 
L 3424 198 
C 3091 198 2931 198 2925 390 
L 2925 1613 
C 2925 2163 2925 2362 2726 2592 
C 2637 2701 2426 2829 2054 2829 
C 1587 2829 1286 2554 1107 2157 
L 1107 2829 
L 205 2758 
L 205 2560 
C 653 2560 704 2515 704 2202 
L 704 486 
C 704 198 634 198 205 198 
L 205 0 
L 928 19 
L 1645 0 
L 1645 198 
C 1216 198 1146 198 1146 486 
L 1146 1664 
C 1146 2330 1600 2688 2010 2688 
C 2413 2688 2483 2342 2483 1978 
L 2483 486 
C 2483 198 2413 198 1984 198 
L 1984 0 
L 2707 19 
L 3424 0 
z
" transform="scale(0.015625)"/>
       <path id="LatinModernMath-Regular-74" d="M 2125 794 
L 2125 1158 
L 1965 1158 
L 1965 806 
C 1965 333 1773 90 1536 90 
C 1107 90 1107 672 1107 781 
L 1107 2560 
L 2022 2560 
L 2022 2758 
L 1107 2758 
L 1107 3936 
L 947 3936 
C 941 3411 749 2726 122 2701 
L 122 2560 
L 666 2560 
L 666 794 
C 666 6 1261 -70 1491 -70 
C 1946 -70 2125 384 2125 794 
z
" transform="scale(0.015625)"/>
       <path id="LatinModernMath-Regular-73" d="M 2304 819 
C 2304 1158 2112 1350 2035 1427 
C 1824 1632 1574 1683 1306 1734 
C 947 1805 518 1888 518 2259 
C 518 2483 685 2746 1235 2746 
C 1939 2746 1971 2170 1984 1971 
C 1990 1914 2061 1914 2061 1914 
C 2144 1914 2144 1946 2144 2067 
L 2144 2714 
C 2144 2822 2144 2867 2074 2867 
C 2042 2867 2029 2867 1946 2790 
C 1926 2765 1862 2707 1837 2688 
C 1594 2867 1331 2867 1235 2867 
C 454 2867 211 2438 211 2080 
C 211 1856 314 1677 486 1536 
C 691 1370 870 1331 1331 1242 
C 1472 1216 1997 1114 1997 653 
C 1997 326 1773 70 1274 70 
C 736 70 506 435 384 979 
C 365 1062 358 1088 294 1088 
C 211 1088 211 1043 211 928 
L 211 83 
C 211 -26 211 -70 282 -70 
C 314 -70 320 -64 442 58 
C 454 70 454 83 570 205 
C 851 -64 1139 -70 1274 -70 
C 2010 -70 2304 358 2304 819 
z
" transform="scale(0.015625)"/>
      </defs>
      <use xlink:href="#LatinModernMath-Regular-45"/>
      <use xlink:href="#LatinModernMath-Regular-6e" x="68.099991"/>
      <use xlink:href="#LatinModernMath-Regular-74" x="123.699982"/>
      <use xlink:href="#LatinModernMath-Regular-72" x="162.599976"/>
      <use xlink:href="#LatinModernMath-Regular-69" x="201.799973"/>
      <use xlink:href="#LatinModernMath-Regular-65" x="229.59996"/>
      <use xlink:href="#LatinModernMath-Regular-73" x="273.999954"/>
     </g>
    </g>
   </g>
   <g id="legend_1">
    <g id="LineCollection_5">
     <path d="M 347.7575 28.990897 
L 347.7575 16.990897 
" style="fill: none; stroke: #348abd; stroke-width: 1.5"/>
    </g>
    <g id="line2d_42">
     <path d="M 335.7575 22.990897 
L 359.7575 22.990897 
" style="fill: none; stroke: #348abd; stroke-width: 1.5; stroke-linecap: round"/>
    </g>
    <g id="line2d_43"/>
    <g id="text_12">
     <!-- c1 -->
     <g style="fill: #1a1a1a" transform="translate(369.3575 27.190897) scale(0.12 -0.12)">
      <defs>
       <path id="LatinModernMath-Regular-63" d="M 2656 762 
C 2656 826 2592 826 2573 826 
C 2515 826 2502 800 2490 762 
C 2304 166 1888 90 1651 90 
C 1312 90 749 365 749 1395 
C 749 2438 1274 2707 1613 2707 
C 1670 2707 2074 2701 2298 2470 
C 2035 2451 1997 2259 1997 2176 
C 1997 2010 2112 1882 2291 1882 
C 2458 1882 2586 1990 2586 2182 
C 2586 2618 2099 2867 1606 2867 
C 806 2867 218 2176 218 1382 
C 218 563 851 -70 1594 -70 
C 2451 -70 2656 698 2656 762 
z
" transform="scale(0.015625)"/>
      </defs>
      <use xlink:href="#LatinModernMath-Regular-63"/>
      <use xlink:href="#LatinModernMath-Regular-31" x="44.399994"/>
     </g>
    </g>
    <g id="LineCollection_6">
     <path d="M 347.7575 45.719647 
L 347.7575 33.719647 
" style="fill: none; stroke: #e24a33; stroke-width: 1.5"/>
    </g>
    <g id="line2d_44">
     <path d="M 335.7575 39.719647 
L 359.7575 39.719647 
" style="fill: none; stroke: #e24a33; stroke-width: 1.5; stroke-linecap: round"/>
    </g>
    <g id="line2d_45"/>
    <g id="text_13">
     <!-- c2 -->
     <g style="fill: #1a1a1a" transform="translate(369.3575 43.919647) scale(0.12 -0.12)">
      <use xlink:href="#LatinModernMath-Regular-63"/>
      <use xlink:href="#LatinModernMath-Regular-32" x="44.399994"/>
     </g>
    </g>
   </g>
  </g>
 </g>
 <defs>
  <clipPath id="pd4b358ad70">
   <rect x="56.68625" y="7.990897" width="334.8" height="221.76"/>
  </clipPath>
 </defs>
</svg>
