<?xml version="1.0" encoding="utf-8" standalone="no"?>
<!DOCTYPE svg PUBLIC "-//W3C//DTD SVG 1.1//EN"
  "http://www.w3.org/Graphics/SVG/1.1/DTD/svg11.dtd">
<svg xmlns:xlink="http://www.w3.org/1999/xlink" width="410.345091pt" height="279.598437pt" viewBox="0 0 410.345091 279.598437" xmlns="http://www.w3.org/2000/svg" version="1.1">
 <metadata>
  <rdf:RDF xmlns:dc="http://purl.org/dc/elements/1.1/" xmlns:cc="http://creativecommons.org/ns#" xmlns:rdf="http://www.w3.org/1999/02/22-rdf-syntax-ns#">
   <cc:Work>
    <dc:type rdf:resource="http://purl.org/dc/dcmitype/StillImage"/>
    <dc:date>2023-07-13T15:56:28.404279</dc:date>
    <dc:format>image/svg+xml</dc:format>
    <dc:creator>
     <cc:Agent>
      <dc:title>Matplotlib v3.7.1, https://matplotlib.org/</dc:title>
     </cc:Agent>
    </dc:creator>
   </cc:Work>
  </rdf:RDF>
 </metadata>
 <defs>
  <style type="text/css">*{stroke-linejoin: round; stroke-linecap: butt}</style>
 </defs>
 <g id="figure_1">
  <g id="patch_1">
   <path d="M 0 279.598437 
L 410.345091 279.598437 
L 410.345091 0 
L 0 0 
z
" style="fill: #ffffff"/>
  </g>
  <g id="axes_1">
   <g id="patch_2">
    <path d="M 64.270625 228.96 
L 399.070625 228.96 
L 399.070625 7.2 
L 64.270625 7.2 
z
" style="fill: #ffffff"/>
   </g>
   <g id="patch_3">
    <path d="M 64.270625 228.96 
L 64.270625 228.490667 
L 70.966625 228.490667 
L 70.966625 228.725333 
L 77.662625 228.725333 
L 77.662625 228.490667 
L 84.358625 228.490667 
L 84.358625 227.552 
L 91.054625 227.552 
L 91.054625 226.848 
L 97.750625 226.848 
L 97.750625 223.328 
L 104.446625 223.328 
L 104.446625 223.093333 
L 111.142625 223.093333 
L 111.142625 215.818667 
L 117.838625 215.818667 
L 117.838625 210.656 
L 124.534625 210.656 
L 124.534625 194.464 
L 131.230625 194.464 
L 131.230625 187.893333 
L 137.926625 187.893333 
L 137.926625 164.661333 
L 144.622625 164.661333 
L 144.622625 143.072 
L 151.318625 143.072 
L 151.318625 129.226667 
L 158.014625 129.226667 
L 158.014625 98.72 
L 164.710625 98.72 
L 164.710625 73.376 
L 171.406625 73.376 
L 171.406625 62.581333 
L 178.102625 62.581333 
L 178.102625 53.194667 
L 184.798625 53.194667 
L 184.798625 54.133333 
L 191.494625 54.133333 
L 191.494625 53.429333 
L 198.190625 53.429333 
L 198.190625 68.682667 
L 204.886625 68.682667 
L 204.886625 76.192 
L 211.582625 76.192 
L 211.582625 82.762667 
L 218.278625 82.762667 
L 218.278625 104.586667 
L 224.974625 104.586667 
L 224.974625 132.981333 
L 231.670625 132.981333 
L 231.670625 135.562667 
L 238.366625 135.562667 
L 238.366625 147.765333 
L 245.062625 147.765333 
L 245.062625 151.52 
L 251.758625 151.52 
L 251.758625 171.232 
L 258.454625 171.232 
L 258.454625 175.221333 
L 265.150625 175.221333 
L 265.150625 183.669333 
L 271.846625 183.669333 
L 271.846625 186.016 
L 278.542625 186.016 
L 278.542625 193.525333 
L 285.238625 193.525333 
L 285.238625 199.861333 
L 291.934625 199.861333 
L 291.934625 210.186667 
L 298.630625 210.186667 
L 298.630625 212.768 
L 305.326625 212.768 
L 305.326625 220.277333 
L 312.022625 220.277333 
L 312.022625 221.92 
L 318.718625 221.92 
L 318.718625 225.205333 
L 325.414625 225.205333 
L 325.414625 226.378667 
L 332.110625 226.378667 
L 332.110625 227.552 
L 338.806625 227.552 
L 338.806625 228.725333 
L 345.502625 228.725333 
L 345.502625 228.256 
L 352.198625 228.256 
L 352.198625 228.725333 
L 358.894625 228.725333 
L 358.894625 228.725333 
L 365.590625 228.725333 
L 365.590625 228.96 
L 372.286625 228.96 
L 372.286625 228.96 
L 378.982625 228.96 
L 378.982625 228.725333 
L 385.678625 228.725333 
L 385.678625 228.96 
L 392.374625 228.96 
L 392.374625 228.96 
L 399.070625 228.96 
L 399.070625 228.96 
" clip-path="url(#p8bf46323e7)" style="fill: none; stroke: #348abd; stroke-width: 1.2; stroke-linejoin: miter"/>
   </g>
   <g id="patch_4">
    <path d="M 64.270625 228.96 
L 64.270625 228.96 
L 70.966625 228.96 
L 70.966625 228.96 
L 77.662625 228.96 
L 77.662625 228.96 
L 84.358625 228.96 
L 84.358625 228.96 
L 91.054625 228.96 
L 91.054625 228.96 
L 97.750625 228.96 
L 97.750625 228.725333 
L 104.446625 228.725333 
L 104.446625 227.552 
L 111.142625 227.552 
L 111.142625 227.786667 
L 117.838625 227.786667 
L 117.838625 225.909333 
L 124.534625 225.909333 
L 124.534625 223.562667 
L 131.230625 223.562667 
L 131.230625 220.277333 
L 137.926625 220.277333 
L 137.926625 205.258667 
L 144.622625 205.258667 
L 144.622625 196.106667 
L 151.318625 196.106667 
L 151.318625 181.792 
L 158.014625 181.792 
L 158.014625 163.957333 
L 164.710625 163.957333 
L 164.710625 143.776 
L 171.406625 143.776 
L 171.406625 109.984 
L 178.102625 109.984 
L 178.102625 100.362667 
L 184.798625 100.362667 
L 184.798625 98.954667 
L 191.494625 98.954667 
L 191.494625 95.434667 
L 198.190625 95.434667 
L 198.190625 110.688 
L 204.886625 110.688 
L 204.886625 107.872 
L 211.582625 107.872 
L 211.582625 120.544 
L 218.278625 120.544 
L 218.278625 115.146667 
L 224.974625 115.146667 
L 224.974625 112.565333 
L 231.670625 112.565333 
L 231.670625 104.821333 
L 238.366625 104.821333 
L 238.366625 97.312 
L 245.062625 97.312 
L 245.062625 90.741333 
L 251.758625 90.741333 
L 251.758625 87.925333 
L 258.454625 87.925333 
L 258.454625 97.546667 
L 265.150625 97.546667 
L 265.150625 104.821333 
L 271.846625 104.821333 
L 271.846625 126.410667 
L 278.542625 126.410667 
L 278.542625 141.194667 
L 285.238625 141.194667 
L 285.238625 150.112 
L 291.934625 150.112 
L 291.934625 173.578667 
L 298.630625 173.578667 
L 298.630625 188.597333 
L 305.326625 188.597333 
L 305.326625 198.688 
L 312.022625 198.688 
L 312.022625 207.605333 
L 318.718625 207.605333 
L 318.718625 215.584 
L 325.414625 215.584 
L 325.414625 218.4 
L 332.110625 218.4 
L 332.110625 223.562667 
L 338.806625 223.562667 
L 338.806625 226.378667 
L 345.502625 226.378667 
L 345.502625 226.378667 
L 352.198625 226.378667 
L 352.198625 228.256 
L 358.894625 228.256 
L 358.894625 228.256 
L 365.590625 228.256 
L 365.590625 228.725333 
L 372.286625 228.725333 
L 372.286625 228.96 
L 378.982625 228.96 
L 378.982625 228.96 
L 385.678625 228.96 
L 385.678625 228.96 
L 392.374625 228.96 
L 392.374625 228.725333 
L 399.070625 228.725333 
L 399.070625 228.96 
" clip-path="url(#p8bf46323e7)" style="fill: none; stroke: #e24a33; stroke-width: 1.2; stroke-linejoin: miter"/>
   </g>
   <g id="LineCollection_1">
    <path d="M 67.618625 228.96 
L 67.618625 228.96 
" clip-path="url(#p8bf46323e7)" style="fill: none; stroke: #000000; stroke-width: 1.5"/>
    <path d="M 74.314625 228.96 
L 74.314625 228.96 
" clip-path="url(#p8bf46323e7)" style="fill: none; stroke: #000000; stroke-width: 1.5"/>
    <path d="M 81.010625 228.96 
L 81.010625 228.96 
" clip-path="url(#p8bf46323e7)" style="fill: none; stroke: #000000; stroke-width: 1.5"/>
    <path d="M 87.706625 228.96 
L 87.706625 228.490667 
" clip-path="url(#p8bf46323e7)" style="fill: none; stroke: #000000; stroke-width: 1.5"/>
    <path d="M 94.402625 228.96 
L 94.402625 228.490667 
" clip-path="url(#p8bf46323e7)" style="fill: none; stroke: #000000; stroke-width: 1.5"/>
    <path d="M 101.098625 228.822535 
L 101.098625 228.158798 
" clip-path="url(#p8bf46323e7)" style="fill: none; stroke: #000000; stroke-width: 1.5"/>
    <path d="M 107.794625 228.126814 
L 107.794625 226.977186 
" clip-path="url(#p8bf46323e7)" style="fill: none; stroke: #000000; stroke-width: 1.5"/>
    <path d="M 114.490625 227.552 
L 114.490625 226.144 
" clip-path="url(#p8bf46323e7)" style="fill: none; stroke: #000000; stroke-width: 1.5"/>
    <path d="M 121.186625 225.938222 
L 121.186625 224.003111 
" clip-path="url(#p8bf46323e7)" style="fill: none; stroke: #000000; stroke-width: 1.5"/>
    <path d="M 127.882625 224.266667 
L 127.882625 221.92 
" clip-path="url(#p8bf46323e7)" style="fill: none; stroke: #000000; stroke-width: 1.5"/>
    <path d="M 134.578625 218.667855 
L 134.578625 215.316145 
" clip-path="url(#p8bf46323e7)" style="fill: none; stroke: #000000; stroke-width: 1.5"/>
    <path d="M 141.274625 216.038609 
L 141.274625 212.313391 
" clip-path="url(#p8bf46323e7)" style="fill: none; stroke: #000000; stroke-width: 1.5"/>
    <path d="M 147.970625 210.510702 
L 147.970625 206.107965 
" clip-path="url(#p8bf46323e7)" style="fill: none; stroke: #000000; stroke-width: 1.5"/>
    <path d="M 154.666625 206.278078 
L 154.666625 201.423256 
" clip-path="url(#p8bf46323e7)" style="fill: none; stroke: #000000; stroke-width: 1.5"/>
    <path d="M 161.362625 197.984 
L 161.362625 192.352 
" clip-path="url(#p8bf46323e7)" style="fill: none; stroke: #000000; stroke-width: 1.5"/>
    <path d="M 168.058625 185.345354 
L 168.058625 178.707979 
" clip-path="url(#p8bf46323e7)" style="fill: none; stroke: #000000; stroke-width: 1.5"/>
    <path d="M 174.754625 186.02437 
L 174.754625 179.436963 
" clip-path="url(#p8bf46323e7)" style="fill: none; stroke: #000000; stroke-width: 1.5"/>
    <path d="M 181.450625 177.864698 
L 181.450625 170.700635 
" clip-path="url(#p8bf46323e7)" style="fill: none; stroke: #000000; stroke-width: 1.5"/>
    <path d="M 188.146625 175.594091 
L 188.146625 168.277909 
" clip-path="url(#p8bf46323e7)" style="fill: none; stroke: #000000; stroke-width: 1.5"/>
    <path d="M 194.842625 169.910992 
L 194.842625 162.227674 
" clip-path="url(#p8bf46323e7)" style="fill: none; stroke: #000000; stroke-width: 1.5"/>
    <path d="M 201.538625 163.536025 
L 201.538625 155.461309 
" clip-path="url(#p8bf46323e7)" style="fill: none; stroke: #000000; stroke-width: 1.5"/>
    <path d="M 208.234625 156.239327 
L 208.234625 147.739339 
" clip-path="url(#p8bf46323e7)" style="fill: none; stroke: #000000; stroke-width: 1.5"/>
    <path d="M 214.930625 138.642576 
L 214.930625 129.197424 
" clip-path="url(#p8bf46323e7)" style="fill: none; stroke: #000000; stroke-width: 1.5"/>
    <path d="M 221.626625 118.021004 
L 221.626625 107.578996 
" clip-path="url(#p8bf46323e7)" style="fill: none; stroke: #000000; stroke-width: 1.5"/>
    <path d="M 228.322625 101.721564 
L 228.322625 90.55577 
" clip-path="url(#p8bf46323e7)" style="fill: none; stroke: #000000; stroke-width: 1.5"/>
    <path d="M 235.018625 69.290329 
L 235.018625 56.811004 
" clip-path="url(#p8bf46323e7)" style="fill: none; stroke: #000000; stroke-width: 1.5"/>
    <path d="M 241.714625 42.792021 
L 241.714625 29.335979 
" clip-path="url(#p8bf46323e7)" style="fill: none; stroke: #000000; stroke-width: 1.5"/>
    <path d="M 248.410625 34.259109 
L 248.410625 20.503558 
" clip-path="url(#p8bf46323e7)" style="fill: none; stroke: #000000; stroke-width: 1.5"/>
    <path d="M 255.106625 43.253164 
L 255.106625 29.813503 
" clip-path="url(#p8bf46323e7)" style="fill: none; stroke: #000000; stroke-width: 1.5"/>
    <path d="M 261.802625 42.330867 
L 261.802625 28.858466 
" clip-path="url(#p8bf46323e7)" style="fill: none; stroke: #000000; stroke-width: 1.5"/>
    <path d="M 268.498625 55.239273 
L 268.498625 42.232727 
" clip-path="url(#p8bf46323e7)" style="fill: none; stroke: #000000; stroke-width: 1.5"/>
    <path d="M 275.194625 72.973988 
L 275.194625 60.636679 
" clip-path="url(#p8bf46323e7)" style="fill: none; stroke: #000000; stroke-width: 1.5"/>
    <path d="M 281.890625 107.004287 
L 281.890625 96.067713 
" clip-path="url(#p8bf46323e7)" style="fill: none; stroke: #000000; stroke-width: 1.5"/>
    <path d="M 288.586625 133.835465 
L 288.586625 124.148535 
" clip-path="url(#p8bf46323e7)" style="fill: none; stroke: #000000; stroke-width: 1.5"/>
    <path d="M 295.282625 160.573064 
L 295.282625 152.322936 
" clip-path="url(#p8bf46323e7)" style="fill: none; stroke: #000000; stroke-width: 1.5"/>
    <path d="M 301.978625 181.04075 
L 301.978625 174.09525 
" clip-path="url(#p8bf46323e7)" style="fill: none; stroke: #000000; stroke-width: 1.5"/>
    <path d="M 308.674625 193.028802 
L 308.674625 186.981865 
" clip-path="url(#p8bf46323e7)" style="fill: none; stroke: #000000; stroke-width: 1.5"/>
    <path d="M 315.370625 209.62151 
L 315.370625 205.119823 
" clip-path="url(#p8bf46323e7)" style="fill: none; stroke: #000000; stroke-width: 1.5"/>
    <path d="M 322.066625 217.793668 
L 322.066625 214.312999 
" clip-path="url(#p8bf46323e7)" style="fill: none; stroke: #000000; stroke-width: 1.5"/>
    <path d="M 328.762625 222.349663 
L 328.762625 219.613003 
" clip-path="url(#p8bf46323e7)" style="fill: none; stroke: #000000; stroke-width: 1.5"/>
    <path d="M 335.458625 225.731606 
L 335.458625 223.740394 
" clip-path="url(#p8bf46323e7)" style="fill: none; stroke: #000000; stroke-width: 1.5"/>
    <path d="M 342.154625 227.552 
L 342.154625 226.144 
" clip-path="url(#p8bf46323e7)" style="fill: none; stroke: #000000; stroke-width: 1.5"/>
    <path d="M 348.850625 228.311397 
L 348.850625 227.261936 
" clip-path="url(#p8bf46323e7)" style="fill: none; stroke: #000000; stroke-width: 1.5"/>
    <path d="M 355.546625 228.96 
L 355.546625 228.96 
" clip-path="url(#p8bf46323e7)" style="fill: none; stroke: #000000; stroke-width: 1.5"/>
    <path d="M 362.242625 228.662455 
L 362.242625 227.849545 
" clip-path="url(#p8bf46323e7)" style="fill: none; stroke: #000000; stroke-width: 1.5"/>
    <path d="M 368.938625 228.96 
L 368.938625 228.490667 
" clip-path="url(#p8bf46323e7)" style="fill: none; stroke: #000000; stroke-width: 1.5"/>
    <path d="M 375.634625 228.96 
L 375.634625 228.96 
" clip-path="url(#p8bf46323e7)" style="fill: none; stroke: #000000; stroke-width: 1.5"/>
    <path d="M 382.330625 228.96 
L 382.330625 228.96 
" clip-path="url(#p8bf46323e7)" style="fill: none; stroke: #000000; stroke-width: 1.5"/>
    <path d="M 389.026625 228.96 
L 389.026625 228.96 
" clip-path="url(#p8bf46323e7)" style="fill: none; stroke: #000000; stroke-width: 1.5"/>
    <path d="M 395.722625 228.96 
L 395.722625 228.96 
" clip-path="url(#p8bf46323e7)" style="fill: none; stroke: #000000; stroke-width: 1.5"/>
   </g>
   <g id="line2d_1">
    <path d="M 64.270625 228.96 
L 291.396253 228.86582 
L 296.443489 228.674864 
L 299.808313 228.391043 
L 303.173138 227.867187 
L 304.85555 227.46697 
L 306.537962 226.939536 
L 308.220374 226.251723 
L 309.902786 225.364206 
L 311.585198 224.231143 
L 313.26761 222.80005 
L 314.950022 221.011999 
L 316.632434 218.802233 
L 318.314846 216.101266 
L 319.997258 212.836554 
L 321.67967 208.934786 
L 323.362082 204.324799 
L 325.044494 198.941104 
L 326.726906 192.727944 
L 328.409318 185.643747 
L 330.091731 177.665778 
L 331.774143 168.794759 
L 333.456555 159.059139 
L 335.138967 148.518706 
L 338.503791 125.433616 
L 346.915851 64.323935 
L 348.598263 53.410853 
L 350.280675 43.55044 
L 351.963087 34.994194 
L 353.645499 27.968413 
L 355.327911 22.66427 
L 357.010323 19.229183 
L 358.692736 17.76 
L 360.375148 18.298471 
L 362.05756 20.829273 
L 363.739972 25.280732 
L 365.422384 31.528201 
L 367.104796 39.399855 
L 368.787208 48.684539 
L 370.46962 59.141167 
L 373.834444 82.518798 
L 380.564092 131.83434 
L 383.928916 154.258856 
L 385.611329 164.377721 
L 387.293741 173.65567 
L 388.976153 182.050095 
L 390.658565 189.547895 
L 392.340977 196.161472 
L 394.023389 201.92423 
L 395.705801 206.885912 
L 397.388213 211.108017 
L 399.070625 214.659547 
L 399.070625 214.659547 
" clip-path="url(#p8bf46323e7)" style="fill: none; stroke: #008000; stroke-width: 1.5; stroke-linecap: round"/>
   </g>
   <g id="line2d_2">
    <defs>
     <path id="m9bb239edf1" d="M 0 1.5 
C 0.397805 1.5 0.77937 1.341951 1.06066 1.06066 
C 1.341951 0.77937 1.5 0.397805 1.5 0 
C 1.5 -0.397805 1.341951 -0.77937 1.06066 -1.06066 
C 0.77937 -1.341951 0.397805 -1.5 0 -1.5 
C -0.397805 -1.5 -0.77937 -1.341951 -1.06066 -1.06066 
C -1.341951 -0.77937 -1.5 -0.397805 -1.5 0 
C -1.5 0.397805 -1.341951 0.77937 -1.06066 1.06066 
C -0.77937 1.341951 -0.397805 1.5 0 1.5 
z
" style="stroke: #000000"/>
    </defs>
    <g clip-path="url(#p8bf46323e7)">
     <use xlink:href="#m9bb239edf1" x="67.618625" y="228.96" style="stroke: #000000"/>
     <use xlink:href="#m9bb239edf1" x="74.314625" y="228.96" style="stroke: #000000"/>
     <use xlink:href="#m9bb239edf1" x="81.010625" y="228.96" style="stroke: #000000"/>
     <use xlink:href="#m9bb239edf1" x="87.706625" y="228.725333" style="stroke: #000000"/>
     <use xlink:href="#m9bb239edf1" x="94.402625" y="228.725333" style="stroke: #000000"/>
     <use xlink:href="#m9bb239edf1" x="101.098625" y="228.490667" style="stroke: #000000"/>
     <use xlink:href="#m9bb239edf1" x="107.794625" y="227.552" style="stroke: #000000"/>
     <use xlink:href="#m9bb239edf1" x="114.490625" y="226.848" style="stroke: #000000"/>
     <use xlink:href="#m9bb239edf1" x="121.186625" y="224.970667" style="stroke: #000000"/>
     <use xlink:href="#m9bb239edf1" x="127.882625" y="223.093333" style="stroke: #000000"/>
     <use xlink:href="#m9bb239edf1" x="134.578625" y="216.992" style="stroke: #000000"/>
     <use xlink:href="#m9bb239edf1" x="141.274625" y="214.176" style="stroke: #000000"/>
     <use xlink:href="#m9bb239edf1" x="147.970625" y="208.309333" style="stroke: #000000"/>
     <use xlink:href="#m9bb239edf1" x="154.666625" y="203.850667" style="stroke: #000000"/>
     <use xlink:href="#m9bb239edf1" x="161.362625" y="195.168" style="stroke: #000000"/>
     <use xlink:href="#m9bb239edf1" x="168.058625" y="182.026667" style="stroke: #000000"/>
     <use xlink:href="#m9bb239edf1" x="174.754625" y="182.730667" style="stroke: #000000"/>
     <use xlink:href="#m9bb239edf1" x="181.450625" y="174.282667" style="stroke: #000000"/>
     <use xlink:href="#m9bb239edf1" x="188.146625" y="171.936" style="stroke: #000000"/>
     <use xlink:href="#m9bb239edf1" x="194.842625" y="166.069333" style="stroke: #000000"/>
     <use xlink:href="#m9bb239edf1" x="201.538625" y="159.498667" style="stroke: #000000"/>
     <use xlink:href="#m9bb239edf1" x="208.234625" y="151.989333" style="stroke: #000000"/>
     <use xlink:href="#m9bb239edf1" x="214.930625" y="133.92" style="stroke: #000000"/>
     <use xlink:href="#m9bb239edf1" x="221.626625" y="112.8" style="stroke: #000000"/>
     <use xlink:href="#m9bb239edf1" x="228.322625" y="96.138667" style="stroke: #000000"/>
     <use xlink:href="#m9bb239edf1" x="235.018625" y="63.050667" style="stroke: #000000"/>
     <use xlink:href="#m9bb239edf1" x="241.714625" y="36.064" style="stroke: #000000"/>
     <use xlink:href="#m9bb239edf1" x="248.410625" y="27.381333" style="stroke: #000000"/>
     <use xlink:href="#m9bb239edf1" x="255.106625" y="36.533333" style="stroke: #000000"/>
     <use xlink:href="#m9bb239edf1" x="261.802625" y="35.594667" style="stroke: #000000"/>
     <use xlink:href="#m9bb239edf1" x="268.498625" y="48.736" style="stroke: #000000"/>
     <use xlink:href="#m9bb239edf1" x="275.194625" y="66.805333" style="stroke: #000000"/>
     <use xlink:href="#m9bb239edf1" x="281.890625" y="101.536" style="stroke: #000000"/>
     <use xlink:href="#m9bb239edf1" x="288.586625" y="128.992" style="stroke: #000000"/>
     <use xlink:href="#m9bb239edf1" x="295.282625" y="156.448" style="stroke: #000000"/>
     <use xlink:href="#m9bb239edf1" x="301.978625" y="177.568" style="stroke: #000000"/>
     <use xlink:href="#m9bb239edf1" x="308.674625" y="190.005333" style="stroke: #000000"/>
     <use xlink:href="#m9bb239edf1" x="315.370625" y="207.370667" style="stroke: #000000"/>
     <use xlink:href="#m9bb239edf1" x="322.066625" y="216.053333" style="stroke: #000000"/>
     <use xlink:href="#m9bb239edf1" x="328.762625" y="220.981333" style="stroke: #000000"/>
     <use xlink:href="#m9bb239edf1" x="335.458625" y="224.736" style="stroke: #000000"/>
     <use xlink:href="#m9bb239edf1" x="342.154625" y="226.848" style="stroke: #000000"/>
     <use xlink:href="#m9bb239edf1" x="348.850625" y="227.786667" style="stroke: #000000"/>
     <use xlink:href="#m9bb239edf1" x="355.546625" y="228.96" style="stroke: #000000"/>
     <use xlink:href="#m9bb239edf1" x="362.242625" y="228.256" style="stroke: #000000"/>
     <use xlink:href="#m9bb239edf1" x="368.938625" y="228.725333" style="stroke: #000000"/>
     <use xlink:href="#m9bb239edf1" x="375.634625" y="228.96" style="stroke: #000000"/>
     <use xlink:href="#m9bb239edf1" x="382.330625" y="228.96" style="stroke: #000000"/>
     <use xlink:href="#m9bb239edf1" x="389.026625" y="228.96" style="stroke: #000000"/>
     <use xlink:href="#m9bb239edf1" x="395.722625" y="228.96" style="stroke: #000000"/>
    </g>
   </g>
   <g id="patch_5">
    <path d="M 64.270625 228.96 
L 64.270625 7.2 
" style="fill: none; stroke: #000000; stroke-linejoin: miter; stroke-linecap: square"/>
   </g>
   <g id="patch_6">
    <path d="M 399.070625 228.96 
L 399.070625 7.2 
" style="fill: none; stroke: #000000; stroke-linejoin: miter; stroke-linecap: square"/>
   </g>
   <g id="patch_7">
    <path d="M 64.270625 228.96 
L 399.070625 228.96 
" style="fill: none; stroke: #000000; stroke-linejoin: miter; stroke-linecap: square"/>
   </g>
   <g id="patch_8">
    <path d="M 64.270625 7.2 
L 399.070625 7.2 
" style="fill: none; stroke: #000000; stroke-linejoin: miter; stroke-linecap: square"/>
   </g>
   <g id="matplotlib.axis_1">
    <g id="xtick_1">
     <g id="line2d_3">
      <defs>
       <path id="mb85d0b4fce" d="M 0 0 
L 0 -6 
" style="stroke: #1a1a1a; stroke-width: 0.8"/>
      </defs>
      <g>
       <use xlink:href="#mb85d0b4fce" x="135.08266" y="228.96" style="fill: #1a1a1a; stroke: #1a1a1a; stroke-width: 0.8"/>
      </g>
     </g>
     <g id="text_1">
      <!-- $\mathdefault{−5}$ -->
      <g style="fill: #1a1a1a" transform="translate(123.98266 245.357656) scale(0.15 -0.15)">
       <defs>
        <path id="DejaVuSerif-2212" d="M 678 2259 
L 4684 2259 
L 4684 1753 
L 678 1753 
L 678 2259 
z
" transform="scale(0.015625)"/>
        <path id="DejaVuSerif-35" d="M 3219 4666 
L 3219 4153 
L 1081 4153 
L 1081 2816 
Q 1244 2928 1461 2984 
Q 1678 3041 1947 3041 
Q 2703 3041 3140 2622 
Q 3578 2203 3578 1478 
Q 3578 738 3136 323 
Q 2694 -91 1894 -91 
Q 1572 -91 1234 -12 
Q 897 66 544 225 
L 544 1131 
L 897 1131 
Q 925 688 1179 453 
Q 1434 219 1894 219 
Q 2388 219 2653 544 
Q 2919 869 2919 1478 
Q 2919 2084 2655 2407 
Q 2391 2731 1894 2731 
Q 1613 2731 1398 2631 
Q 1184 2531 1019 2322 
L 750 2322 
L 750 4666 
L 3219 4666 
z
" transform="scale(0.015625)"/>
       </defs>
       <use xlink:href="#DejaVuSerif-2212" transform="translate(0 0.09375)"/>
       <use xlink:href="#DejaVuSerif-35" transform="translate(83.789062 0.09375)"/>
      </g>
     </g>
    </g>
    <g id="xtick_2">
     <g id="line2d_4">
      <g>
       <use xlink:href="#mb85d0b4fce" x="221.236804" y="228.96" style="fill: #1a1a1a; stroke: #1a1a1a; stroke-width: 0.8"/>
      </g>
     </g>
     <g id="text_2">
      <!-- $\mathdefault{0}$ -->
      <g style="fill: #1a1a1a" transform="translate(216.436804 245.357656) scale(0.15 -0.15)">
       <defs>
        <path id="DejaVuSerif-30" d="M 2034 219 
Q 2513 219 2750 744 
Q 2988 1269 2988 2328 
Q 2988 3391 2750 3916 
Q 2513 4441 2034 4441 
Q 1556 4441 1318 3916 
Q 1081 3391 1081 2328 
Q 1081 1269 1318 744 
Q 1556 219 2034 219 
z
M 2034 -91 
Q 1275 -91 848 546 
Q 422 1184 422 2328 
Q 422 3475 848 4112 
Q 1275 4750 2034 4750 
Q 2797 4750 3222 4112 
Q 3647 3475 3647 2328 
Q 3647 1184 3222 546 
Q 2797 -91 2034 -91 
z
" transform="scale(0.015625)"/>
       </defs>
       <use xlink:href="#DejaVuSerif-30" transform="translate(0 0.78125)"/>
      </g>
     </g>
    </g>
    <g id="xtick_3">
     <g id="line2d_5">
      <g>
       <use xlink:href="#mb85d0b4fce" x="307.390947" y="228.96" style="fill: #1a1a1a; stroke: #1a1a1a; stroke-width: 0.8"/>
      </g>
     </g>
     <g id="text_3">
      <!-- $\mathdefault{5}$ -->
      <g style="fill: #1a1a1a" transform="translate(302.590947 245.357656) scale(0.15 -0.15)">
       <use xlink:href="#DejaVuSerif-35" transform="translate(0 0.09375)"/>
      </g>
     </g>
    </g>
    <g id="xtick_4">
     <g id="line2d_6">
      <g>
       <use xlink:href="#mb85d0b4fce" x="393.545091" y="228.96" style="fill: #1a1a1a; stroke: #1a1a1a; stroke-width: 0.8"/>
      </g>
     </g>
     <g id="text_4">
      <!-- $\mathdefault{10}$ -->
      <g style="fill: #1a1a1a" transform="translate(383.945091 245.357656) scale(0.15 -0.15)">
       <defs>
        <path id="DejaVuSerif-31" d="M 909 0 
L 909 331 
L 1722 331 
L 1722 4213 
L 781 3603 
L 781 4013 
L 1919 4750 
L 2350 4750 
L 2350 331 
L 3163 331 
L 3163 0 
L 909 0 
z
" transform="scale(0.015625)"/>
       </defs>
       <use xlink:href="#DejaVuSerif-31" transform="translate(0 0.78125)"/>
       <use xlink:href="#DejaVuSerif-30" transform="translate(63.623047 0.78125)"/>
      </g>
     </g>
    </g>
    <g id="xtick_5">
     <g id="line2d_7">
      <defs>
       <path id="mab2f4dd7f3" d="M 0 0 
L 0 -3 
" style="stroke: #1a1a1a; stroke-width: 0.6"/>
      </defs>
      <g>
       <use xlink:href="#mab2f4dd7f3" x="66.159346" y="228.96" style="fill: #1a1a1a; stroke: #1a1a1a; stroke-width: 0.6"/>
      </g>
     </g>
    </g>
    <g id="xtick_6">
     <g id="line2d_8">
      <g>
       <use xlink:href="#mab2f4dd7f3" x="83.390174" y="228.96" style="fill: #1a1a1a; stroke: #1a1a1a; stroke-width: 0.6"/>
      </g>
     </g>
    </g>
    <g id="xtick_7">
     <g id="line2d_9">
      <g>
       <use xlink:href="#mab2f4dd7f3" x="100.621003" y="228.96" style="fill: #1a1a1a; stroke: #1a1a1a; stroke-width: 0.6"/>
      </g>
     </g>
    </g>
    <g id="xtick_8">
     <g id="line2d_10">
      <g>
       <use xlink:href="#mab2f4dd7f3" x="117.851832" y="228.96" style="fill: #1a1a1a; stroke: #1a1a1a; stroke-width: 0.6"/>
      </g>
     </g>
    </g>
    <g id="xtick_9">
     <g id="line2d_11">
      <g>
       <use xlink:href="#mab2f4dd7f3" x="152.313489" y="228.96" style="fill: #1a1a1a; stroke: #1a1a1a; stroke-width: 0.6"/>
      </g>
     </g>
    </g>
    <g id="xtick_10">
     <g id="line2d_12">
      <g>
       <use xlink:href="#mab2f4dd7f3" x="169.544318" y="228.96" style="fill: #1a1a1a; stroke: #1a1a1a; stroke-width: 0.6"/>
      </g>
     </g>
    </g>
    <g id="xtick_11">
     <g id="line2d_13">
      <g>
       <use xlink:href="#mab2f4dd7f3" x="186.775146" y="228.96" style="fill: #1a1a1a; stroke: #1a1a1a; stroke-width: 0.6"/>
      </g>
     </g>
    </g>
    <g id="xtick_12">
     <g id="line2d_14">
      <g>
       <use xlink:href="#mab2f4dd7f3" x="204.005975" y="228.96" style="fill: #1a1a1a; stroke: #1a1a1a; stroke-width: 0.6"/>
      </g>
     </g>
    </g>
    <g id="xtick_13">
     <g id="line2d_15">
      <g>
       <use xlink:href="#mab2f4dd7f3" x="238.467632" y="228.96" style="fill: #1a1a1a; stroke: #1a1a1a; stroke-width: 0.6"/>
      </g>
     </g>
    </g>
    <g id="xtick_14">
     <g id="line2d_16">
      <g>
       <use xlink:href="#mab2f4dd7f3" x="255.698461" y="228.96" style="fill: #1a1a1a; stroke: #1a1a1a; stroke-width: 0.6"/>
      </g>
     </g>
    </g>
    <g id="xtick_15">
     <g id="line2d_17">
      <g>
       <use xlink:href="#mab2f4dd7f3" x="272.92929" y="228.96" style="fill: #1a1a1a; stroke: #1a1a1a; stroke-width: 0.6"/>
      </g>
     </g>
    </g>
    <g id="xtick_16">
     <g id="line2d_18">
      <g>
       <use xlink:href="#mab2f4dd7f3" x="290.160119" y="228.96" style="fill: #1a1a1a; stroke: #1a1a1a; stroke-width: 0.6"/>
      </g>
     </g>
    </g>
    <g id="xtick_17">
     <g id="line2d_19">
      <g>
       <use xlink:href="#mab2f4dd7f3" x="324.621776" y="228.96" style="fill: #1a1a1a; stroke: #1a1a1a; stroke-width: 0.6"/>
      </g>
     </g>
    </g>
    <g id="xtick_18">
     <g id="line2d_20">
      <g>
       <use xlink:href="#mab2f4dd7f3" x="341.852605" y="228.96" style="fill: #1a1a1a; stroke: #1a1a1a; stroke-width: 0.6"/>
      </g>
     </g>
    </g>
    <g id="xtick_19">
     <g id="line2d_21">
      <g>
       <use xlink:href="#mab2f4dd7f3" x="359.083433" y="228.96" style="fill: #1a1a1a; stroke: #1a1a1a; stroke-width: 0.6"/>
      </g>
     </g>
    </g>
    <g id="xtick_20">
     <g id="line2d_22">
      <g>
       <use xlink:href="#mab2f4dd7f3" x="376.314262" y="228.96" style="fill: #1a1a1a; stroke: #1a1a1a; stroke-width: 0.6"/>
      </g>
     </g>
    </g>
    <g id="text_5">
     <!-- variable_1 -->
     <g style="fill: #1a1a1a" transform="translate(184.479688 268.154375) scale(0.18 -0.18)">
      <defs>
       <path id="DejaVuSerif-76" d="M 1581 0 
L 359 2988 
L -19 2988 
L -19 3322 
L 1509 3322 
L 1509 2988 
L 978 2988 
L 1913 703 
L 2847 2988 
L 2350 2988 
L 2350 3322 
L 3597 3322 
L 3597 2988 
L 3225 2988 
L 2003 0 
L 1581 0 
z
" transform="scale(0.015625)"/>
       <path id="DejaVuSerif-61" d="M 2547 1044 
L 2547 1747 
L 1806 1747 
Q 1378 1747 1168 1562 
Q 959 1378 959 997 
Q 959 650 1171 447 
Q 1384 244 1747 244 
Q 2106 244 2326 466 
Q 2547 688 2547 1044 
z
M 3122 2075 
L 3122 331 
L 3634 331 
L 3634 0 
L 2547 0 
L 2547 359 
Q 2356 128 2106 18 
Q 1856 -91 1522 -91 
Q 969 -91 644 203 
Q 319 497 319 997 
Q 319 1513 691 1797 
Q 1063 2081 1741 2081 
L 2547 2081 
L 2547 2309 
Q 2547 2688 2317 2895 
Q 2088 3103 1672 3103 
Q 1328 3103 1125 2947 
Q 922 2791 872 2484 
L 575 2484 
L 575 3156 
Q 875 3284 1158 3348 
Q 1441 3413 1709 3413 
Q 2400 3413 2761 3070 
Q 3122 2728 3122 2075 
z
" transform="scale(0.015625)"/>
       <path id="DejaVuSerif-72" d="M 3059 3328 
L 3059 2497 
L 2728 2497 
Q 2713 2744 2591 2866 
Q 2469 2988 2234 2988 
Q 1809 2988 1582 2694 
Q 1356 2400 1356 1850 
L 1356 331 
L 2022 331 
L 2022 0 
L 263 0 
L 263 331 
L 781 331 
L 781 2994 
L 231 2994 
L 231 3322 
L 1356 3322 
L 1356 2731 
Q 1525 3078 1790 3245 
Q 2056 3413 2438 3413 
Q 2578 3413 2733 3391 
Q 2888 3369 3059 3328 
z
" transform="scale(0.015625)"/>
       <path id="DejaVuSerif-69" d="M 622 4353 
Q 622 4497 726 4603 
Q 831 4709 978 4709 
Q 1122 4709 1226 4603 
Q 1331 4497 1331 4353 
Q 1331 4206 1228 4103 
Q 1125 4000 978 4000 
Q 831 4000 726 4103 
Q 622 4206 622 4353 
z
M 1356 331 
L 1900 331 
L 1900 0 
L 231 0 
L 231 331 
L 781 331 
L 781 2988 
L 231 2988 
L 231 3322 
L 1356 3322 
L 1356 331 
z
" transform="scale(0.015625)"/>
       <path id="DejaVuSerif-62" d="M 738 331 
L 738 4531 
L 184 4531 
L 184 4863 
L 1313 4863 
L 1313 2803 
Q 1481 3116 1742 3264 
Q 2003 3413 2388 3413 
Q 3000 3413 3387 2928 
Q 3775 2444 3775 1663 
Q 3775 881 3387 395 
Q 3000 -91 2388 -91 
Q 2003 -91 1742 57 
Q 1481 206 1313 519 
L 1313 0 
L 184 0 
L 184 331 
L 738 331 
z
M 1313 1497 
Q 1313 897 1542 583 
Q 1772 269 2209 269 
Q 2650 269 2876 622 
Q 3103 975 3103 1663 
Q 3103 2353 2876 2703 
Q 2650 3053 2209 3053 
Q 1772 3053 1542 2737 
Q 1313 2422 1313 1825 
L 1313 1497 
z
" transform="scale(0.015625)"/>
       <path id="DejaVuSerif-6c" d="M 1313 331 
L 1856 331 
L 1856 0 
L 184 0 
L 184 331 
L 738 331 
L 738 4531 
L 184 4531 
L 184 4863 
L 1313 4863 
L 1313 331 
z
" transform="scale(0.015625)"/>
       <path id="DejaVuSerif-65" d="M 3469 1600 
L 991 1600 
L 991 1575 
Q 991 903 1244 561 
Q 1497 219 1991 219 
Q 2369 219 2611 417 
Q 2853 616 2950 1006 
L 3413 1006 
Q 3275 459 2904 184 
Q 2534 -91 1931 -91 
Q 1203 -91 761 389 
Q 319 869 319 1663 
Q 319 2450 753 2931 
Q 1188 3413 1894 3413 
Q 2647 3413 3050 2948 
Q 3453 2484 3469 1600 
z
M 2791 1931 
Q 2772 2513 2545 2808 
Q 2319 3103 1894 3103 
Q 1497 3103 1269 2806 
Q 1041 2509 991 1931 
L 2791 1931 
z
" transform="scale(0.015625)"/>
       <path id="DejaVuSerif-5f" d="M 3200 -1259 
L 3200 -1509 
L 0 -1509 
L 0 -1259 
L 3200 -1259 
z
" transform="scale(0.015625)"/>
      </defs>
      <use xlink:href="#DejaVuSerif-76"/>
      <use xlink:href="#DejaVuSerif-61" x="56.494141"/>
      <use xlink:href="#DejaVuSerif-72" x="116.113281"/>
      <use xlink:href="#DejaVuSerif-69" x="163.916016"/>
      <use xlink:href="#DejaVuSerif-61" x="195.898438"/>
      <use xlink:href="#DejaVuSerif-62" x="255.517578"/>
      <use xlink:href="#DejaVuSerif-6c" x="319.53125"/>
      <use xlink:href="#DejaVuSerif-65" x="351.513672"/>
      <use xlink:href="#DejaVuSerif-5f" x="410.693359"/>
      <use xlink:href="#DejaVuSerif-31" x="460.693359"/>
     </g>
    </g>
   </g>
   <g id="matplotlib.axis_2">
    <g id="ytick_1">
     <g id="line2d_23">
      <defs>
       <path id="m74d6c96131" d="M 0 0 
L 6 0 
" style="stroke: #1a1a1a; stroke-width: 0.8"/>
      </defs>
      <g>
       <use xlink:href="#m74d6c96131" x="64.270625" y="228.96" style="fill: #1a1a1a; stroke: #1a1a1a; stroke-width: 0.8"/>
      </g>
     </g>
     <g id="text_6">
      <!-- $\mathdefault{0}$ -->
      <g style="fill: #1a1a1a" transform="translate(49.670625 234.658828) scale(0.15 -0.15)">
       <use xlink:href="#DejaVuSerif-30" transform="translate(0 0.78125)"/>
      </g>
     </g>
    </g>
    <g id="ytick_2">
     <g id="line2d_24">
      <g>
       <use xlink:href="#m74d6c96131" x="64.270625" y="182.026667" style="fill: #1a1a1a; stroke: #1a1a1a; stroke-width: 0.8"/>
      </g>
     </g>
     <g id="text_7">
      <!-- $\mathdefault{200}$ -->
      <g style="fill: #1a1a1a" transform="translate(30.620625 187.725495) scale(0.15 -0.15)">
       <defs>
        <path id="DejaVuSerif-32" d="M 819 3553 
L 469 3553 
L 469 4384 
Q 803 4563 1142 4656 
Q 1481 4750 1806 4750 
Q 2534 4750 2956 4397 
Q 3378 4044 3378 3438 
Q 3378 2753 2422 1800 
Q 2347 1728 2309 1691 
L 1131 513 
L 3078 513 
L 3078 1088 
L 3444 1088 
L 3444 0 
L 434 0 
L 434 341 
L 1850 1753 
Q 2319 2222 2519 2614 
Q 2719 3006 2719 3438 
Q 2719 3909 2473 4175 
Q 2228 4441 1797 4441 
Q 1350 4441 1106 4219 
Q 863 3997 819 3553 
z
" transform="scale(0.015625)"/>
       </defs>
       <use xlink:href="#DejaVuSerif-32" transform="translate(0 0.78125)"/>
       <use xlink:href="#DejaVuSerif-30" transform="translate(63.623047 0.78125)"/>
       <use xlink:href="#DejaVuSerif-30" transform="translate(127.246094 0.78125)"/>
      </g>
     </g>
    </g>
    <g id="ytick_3">
     <g id="line2d_25">
      <g>
       <use xlink:href="#m74d6c96131" x="64.270625" y="135.093333" style="fill: #1a1a1a; stroke: #1a1a1a; stroke-width: 0.8"/>
      </g>
     </g>
     <g id="text_8">
      <!-- $\mathdefault{400}$ -->
      <g style="fill: #1a1a1a" transform="translate(30.620625 140.792161) scale(0.15 -0.15)">
       <defs>
        <path id="DejaVuSerif-34" d="M 2234 1581 
L 2234 4063 
L 641 1581 
L 2234 1581 
z
M 3609 0 
L 1484 0 
L 1484 331 
L 2234 331 
L 2234 1247 
L 197 1247 
L 197 1588 
L 2241 4750 
L 2859 4750 
L 2859 1581 
L 3750 1581 
L 3750 1247 
L 2859 1247 
L 2859 331 
L 3609 331 
L 3609 0 
z
" transform="scale(0.015625)"/>
       </defs>
       <use xlink:href="#DejaVuSerif-34" transform="translate(0 0.78125)"/>
       <use xlink:href="#DejaVuSerif-30" transform="translate(63.623047 0.78125)"/>
       <use xlink:href="#DejaVuSerif-30" transform="translate(127.246094 0.78125)"/>
      </g>
     </g>
    </g>
    <g id="ytick_4">
     <g id="line2d_26">
      <g>
       <use xlink:href="#m74d6c96131" x="64.270625" y="88.16" style="fill: #1a1a1a; stroke: #1a1a1a; stroke-width: 0.8"/>
      </g>
     </g>
     <g id="text_9">
      <!-- $\mathdefault{600}$ -->
      <g style="fill: #1a1a1a" transform="translate(30.620625 93.858828) scale(0.15 -0.15)">
       <defs>
        <path id="DejaVuSerif-36" d="M 2094 219 
Q 2534 219 2771 542 
Q 3009 866 3009 1472 
Q 3009 2078 2771 2401 
Q 2534 2725 2094 2725 
Q 1647 2725 1412 2412 
Q 1178 2100 1178 1509 
Q 1178 888 1415 553 
Q 1653 219 2094 219 
z
M 1075 2569 
Q 1288 2803 1556 2918 
Q 1825 3034 2163 3034 
Q 2859 3034 3264 2615 
Q 3669 2197 3669 1472 
Q 3669 763 3233 336 
Q 2797 -91 2069 -91 
Q 1278 -91 853 498 
Q 428 1088 428 2181 
Q 428 3406 931 4078 
Q 1434 4750 2350 4750 
Q 2597 4750 2869 4703 
Q 3141 4656 3425 4563 
L 3425 3794 
L 3072 3794 
Q 3034 4109 2831 4275 
Q 2628 4441 2284 4441 
Q 1678 4441 1381 3981 
Q 1084 3522 1075 2569 
z
" transform="scale(0.015625)"/>
       </defs>
       <use xlink:href="#DejaVuSerif-36" transform="translate(0 0.78125)"/>
       <use xlink:href="#DejaVuSerif-30" transform="translate(63.623047 0.78125)"/>
       <use xlink:href="#DejaVuSerif-30" transform="translate(127.246094 0.78125)"/>
      </g>
     </g>
    </g>
    <g id="ytick_5">
     <g id="line2d_27">
      <g>
       <use xlink:href="#m74d6c96131" x="64.270625" y="41.226667" style="fill: #1a1a1a; stroke: #1a1a1a; stroke-width: 0.8"/>
      </g>
     </g>
     <g id="text_10">
      <!-- $\mathdefault{800}$ -->
      <g style="fill: #1a1a1a" transform="translate(30.620625 46.925495) scale(0.15 -0.15)">
       <defs>
        <path id="DejaVuSerif-38" d="M 2981 1275 
Q 2981 1775 2732 2051 
Q 2484 2328 2034 2328 
Q 1584 2328 1336 2051 
Q 1088 1775 1088 1275 
Q 1088 772 1336 495 
Q 1584 219 2034 219 
Q 2484 219 2732 495 
Q 2981 772 2981 1275 
z
M 2853 3541 
Q 2853 3966 2637 4203 
Q 2422 4441 2034 4441 
Q 1650 4441 1433 4203 
Q 1216 3966 1216 3541 
Q 1216 3113 1433 2875 
Q 1650 2638 2034 2638 
Q 2422 2638 2637 2875 
Q 2853 3113 2853 3541 
z
M 2516 2484 
Q 3047 2413 3344 2092 
Q 3641 1772 3641 1275 
Q 3641 619 3225 264 
Q 2809 -91 2034 -91 
Q 1263 -91 845 264 
Q 428 619 428 1275 
Q 428 1772 725 2092 
Q 1022 2413 1556 2484 
Q 1084 2569 832 2842 
Q 581 3116 581 3541 
Q 581 4103 968 4426 
Q 1356 4750 2034 4750 
Q 2713 4750 3100 4426 
Q 3488 4103 3488 3541 
Q 3488 3116 3236 2842 
Q 2984 2569 2516 2484 
z
" transform="scale(0.015625)"/>
       </defs>
       <use xlink:href="#DejaVuSerif-38" transform="translate(0 0.78125)"/>
       <use xlink:href="#DejaVuSerif-30" transform="translate(63.623047 0.78125)"/>
       <use xlink:href="#DejaVuSerif-30" transform="translate(127.246094 0.78125)"/>
      </g>
     </g>
    </g>
    <g id="ytick_6">
     <g id="line2d_28">
      <defs>
       <path id="m76df0fc20c" d="M 0 0 
L 3 0 
" style="stroke: #1a1a1a; stroke-width: 0.6"/>
      </defs>
      <g>
       <use xlink:href="#m76df0fc20c" x="64.270625" y="217.226667" style="fill: #1a1a1a; stroke: #1a1a1a; stroke-width: 0.6"/>
      </g>
     </g>
    </g>
    <g id="ytick_7">
     <g id="line2d_29">
      <g>
       <use xlink:href="#m76df0fc20c" x="64.270625" y="205.493333" style="fill: #1a1a1a; stroke: #1a1a1a; stroke-width: 0.6"/>
      </g>
     </g>
    </g>
    <g id="ytick_8">
     <g id="line2d_30">
      <g>
       <use xlink:href="#m76df0fc20c" x="64.270625" y="193.76" style="fill: #1a1a1a; stroke: #1a1a1a; stroke-width: 0.6"/>
      </g>
     </g>
    </g>
    <g id="ytick_9">
     <g id="line2d_31">
      <g>
       <use xlink:href="#m76df0fc20c" x="64.270625" y="170.293333" style="fill: #1a1a1a; stroke: #1a1a1a; stroke-width: 0.6"/>
      </g>
     </g>
    </g>
    <g id="ytick_10">
     <g id="line2d_32">
      <g>
       <use xlink:href="#m76df0fc20c" x="64.270625" y="158.56" style="fill: #1a1a1a; stroke: #1a1a1a; stroke-width: 0.6"/>
      </g>
     </g>
    </g>
    <g id="ytick_11">
     <g id="line2d_33">
      <g>
       <use xlink:href="#m76df0fc20c" x="64.270625" y="146.826667" style="fill: #1a1a1a; stroke: #1a1a1a; stroke-width: 0.6"/>
      </g>
     </g>
    </g>
    <g id="ytick_12">
     <g id="line2d_34">
      <g>
       <use xlink:href="#m76df0fc20c" x="64.270625" y="123.36" style="fill: #1a1a1a; stroke: #1a1a1a; stroke-width: 0.6"/>
      </g>
     </g>
    </g>
    <g id="ytick_13">
     <g id="line2d_35">
      <g>
       <use xlink:href="#m76df0fc20c" x="64.270625" y="111.626667" style="fill: #1a1a1a; stroke: #1a1a1a; stroke-width: 0.6"/>
      </g>
     </g>
    </g>
    <g id="ytick_14">
     <g id="line2d_36">
      <g>
       <use xlink:href="#m76df0fc20c" x="64.270625" y="99.893333" style="fill: #1a1a1a; stroke: #1a1a1a; stroke-width: 0.6"/>
      </g>
     </g>
    </g>
    <g id="ytick_15">
     <g id="line2d_37">
      <g>
       <use xlink:href="#m76df0fc20c" x="64.270625" y="76.426667" style="fill: #1a1a1a; stroke: #1a1a1a; stroke-width: 0.6"/>
      </g>
     </g>
    </g>
    <g id="ytick_16">
     <g id="line2d_38">
      <g>
       <use xlink:href="#m76df0fc20c" x="64.270625" y="64.693333" style="fill: #1a1a1a; stroke: #1a1a1a; stroke-width: 0.6"/>
      </g>
     </g>
    </g>
    <g id="ytick_17">
     <g id="line2d_39">
      <g>
       <use xlink:href="#m76df0fc20c" x="64.270625" y="52.96" style="fill: #1a1a1a; stroke: #1a1a1a; stroke-width: 0.6"/>
      </g>
     </g>
    </g>
    <g id="ytick_18">
     <g id="line2d_40">
      <g>
       <use xlink:href="#m76df0fc20c" x="64.270625" y="29.493333" style="fill: #1a1a1a; stroke: #1a1a1a; stroke-width: 0.6"/>
      </g>
     </g>
    </g>
    <g id="ytick_19">
     <g id="line2d_41">
      <g>
       <use xlink:href="#m76df0fc20c" x="64.270625" y="17.76" style="fill: #1a1a1a; stroke: #1a1a1a; stroke-width: 0.6"/>
      </g>
     </g>
    </g>
    <g id="text_11">
     <!-- Entries -->
     <g style="fill: #1a1a1a" transform="translate(20.877187 151.18875) rotate(-90) scale(0.18 -0.18)">
      <defs>
       <path id="DejaVuSerif-45" d="M 353 0 
L 353 331 
L 947 331 
L 947 4331 
L 353 4331 
L 353 4666 
L 4109 4666 
L 4109 3628 
L 3725 3628 
L 3725 4281 
L 1581 4281 
L 1581 2719 
L 3109 2719 
L 3109 3303 
L 3494 3303 
L 3494 1753 
L 3109 1753 
L 3109 2338 
L 1581 2338 
L 1581 384 
L 3775 384 
L 3775 1038 
L 4159 1038 
L 4159 0 
L 353 0 
z
" transform="scale(0.015625)"/>
       <path id="DejaVuSerif-6e" d="M 263 0 
L 263 331 
L 781 331 
L 781 2988 
L 231 2988 
L 231 3322 
L 1356 3322 
L 1356 2731 
Q 1516 3069 1770 3241 
Q 2025 3413 2363 3413 
Q 2913 3413 3172 3097 
Q 3431 2781 3431 2113 
L 3431 331 
L 3944 331 
L 3944 0 
L 2356 0 
L 2356 331 
L 2853 331 
L 2853 1931 
Q 2853 2541 2703 2767 
Q 2553 2994 2175 2994 
Q 1775 2994 1565 2701 
Q 1356 2409 1356 1850 
L 1356 331 
L 1856 331 
L 1856 0 
L 263 0 
z
" transform="scale(0.015625)"/>
       <path id="DejaVuSerif-74" d="M 691 2988 
L 184 2988 
L 184 3322 
L 691 3322 
L 691 4353 
L 1269 4353 
L 1269 3322 
L 2350 3322 
L 2350 2988 
L 1269 2988 
L 1269 878 
Q 1269 456 1350 337 
Q 1431 219 1650 219 
Q 1875 219 1978 351 
Q 2081 484 2088 781 
L 2522 781 
Q 2497 328 2275 118 
Q 2053 -91 1600 -91 
Q 1103 -91 897 129 
Q 691 350 691 878 
L 691 2988 
z
" transform="scale(0.015625)"/>
       <path id="DejaVuSerif-73" d="M 359 184 
L 359 959 
L 691 959 
Q 703 588 923 403 
Q 1144 219 1575 219 
Q 1963 219 2166 364 
Q 2369 509 2369 788 
Q 2369 1006 2220 1140 
Q 2072 1275 1594 1428 
L 1178 1569 
Q 750 1706 558 1912 
Q 366 2119 366 2438 
Q 366 2894 700 3153 
Q 1034 3413 1625 3413 
Q 1888 3413 2178 3344 
Q 2469 3275 2778 3144 
L 2778 2419 
L 2447 2419 
Q 2434 2741 2221 2922 
Q 2009 3103 1644 3103 
Q 1281 3103 1095 2975 
Q 909 2847 909 2591 
Q 909 2381 1050 2254 
Q 1191 2128 1613 1997 
L 2069 1856 
Q 2541 1709 2748 1489 
Q 2956 1269 2956 922 
Q 2956 450 2595 179 
Q 2234 -91 1600 -91 
Q 1278 -91 972 -22 
Q 666 47 359 184 
z
" transform="scale(0.015625)"/>
      </defs>
      <use xlink:href="#DejaVuSerif-45"/>
      <use xlink:href="#DejaVuSerif-6e" x="72.998047"/>
      <use xlink:href="#DejaVuSerif-74" x="137.402344"/>
      <use xlink:href="#DejaVuSerif-72" x="177.587891"/>
      <use xlink:href="#DejaVuSerif-69" x="225.390625"/>
      <use xlink:href="#DejaVuSerif-65" x="257.373047"/>
      <use xlink:href="#DejaVuSerif-73" x="316.552734"/>
     </g>
    </g>
   </g>
   <g id="legend_1">
    <g id="patch_9">
     <path d="M 75.070625 27.118125 
L 99.070625 27.118125 
L 99.070625 18.718125 
L 75.070625 18.718125 
L 75.070625 27.118125 
z
" style="fill: none; stroke: #348abd; stroke-width: 1.2; stroke-linejoin: miter"/>
    </g>
    <g id="text_12">
     <!-- c1 -->
     <g style="fill: #1a1a1a" transform="translate(108.670625 27.118125) scale(0.12 -0.12)">
      <defs>
       <path id="DejaVuSerif-63" d="M 3291 997 
Q 3169 466 2822 187 
Q 2475 -91 1925 -91 
Q 1200 -91 759 389 
Q 319 869 319 1663 
Q 319 2459 759 2936 
Q 1200 3413 1925 3413 
Q 2241 3413 2553 3339 
Q 2866 3266 3181 3116 
L 3181 2266 
L 2847 2266 
Q 2781 2703 2561 2903 
Q 2341 3103 1931 3103 
Q 1466 3103 1228 2742 
Q 991 2381 991 1663 
Q 991 944 1227 581 
Q 1463 219 1931 219 
Q 2303 219 2525 412 
Q 2747 606 2828 997 
L 3291 997 
z
" transform="scale(0.015625)"/>
      </defs>
      <use xlink:href="#DejaVuSerif-63"/>
      <use xlink:href="#DejaVuSerif-31" x="56.005859"/>
     </g>
    </g>
    <g id="patch_10">
     <path d="M 75.070625 44.731875 
L 99.070625 44.731875 
L 99.070625 36.331875 
L 75.070625 36.331875 
L 75.070625 44.731875 
z
" style="fill: none; stroke: #e24a33; stroke-width: 1.2; stroke-linejoin: miter"/>
    </g>
    <g id="text_13">
     <!-- c2 -->
     <g style="fill: #1a1a1a" transform="translate(108.670625 44.731875) scale(0.12 -0.12)">
      <use xlink:href="#DejaVuSerif-63"/>
      <use xlink:href="#DejaVuSerif-32" x="56.005859"/>
     </g>
    </g>
    <g id="line2d_42">
     <path d="M 75.070625 58.145625 
L 87.070625 58.145625 
L 99.070625 58.145625 
" style="fill: none; stroke: #008000; stroke-width: 1.5; stroke-linecap: round"/>
    </g>
    <g id="text_14">
     <!-- Gaussian -->
     <g style="fill: #1a1a1a" transform="translate(108.670625 62.345625) scale(0.12 -0.12)">
      <defs>
       <path id="DejaVuSerif-47" d="M 4097 3272 
Q 3988 3856 3641 4136 
Q 3294 4416 2675 4416 
Q 1869 4416 1472 3897 
Q 1075 3378 1075 2328 
Q 1075 1300 1484 772 
Q 1894 244 2688 244 
Q 3041 244 3362 331 
Q 3684 419 3975 594 
L 3975 1797 
L 3097 1797 
L 3097 2131 
L 4609 2131 
L 4609 391 
Q 4194 150 3714 29 
Q 3234 -91 2688 -91 
Q 1631 -91 995 570 
Q 359 1231 359 2328 
Q 359 3434 996 4092 
Q 1634 4750 2713 4750 
Q 3113 4750 3539 4658 
Q 3966 4566 4447 4378 
L 4447 3272 
L 4097 3272 
z
" transform="scale(0.015625)"/>
       <path id="DejaVuSerif-75" d="M 2266 3322 
L 3341 3322 
L 3341 331 
L 3884 331 
L 3884 0 
L 2766 0 
L 2766 588 
Q 2606 256 2353 82 
Q 2100 -91 1766 -91 
Q 1213 -91 952 223 
Q 691 538 691 1209 
L 691 2988 
L 172 2988 
L 172 3322 
L 1269 3322 
L 1269 1388 
Q 1269 781 1417 556 
Q 1566 331 1947 331 
Q 2347 331 2556 625 
Q 2766 919 2766 1478 
L 2766 2988 
L 2266 2988 
L 2266 3322 
z
" transform="scale(0.015625)"/>
      </defs>
      <use xlink:href="#DejaVuSerif-47"/>
      <use xlink:href="#DejaVuSerif-61" x="79.882812"/>
      <use xlink:href="#DejaVuSerif-75" x="139.501953"/>
      <use xlink:href="#DejaVuSerif-73" x="203.90625"/>
      <use xlink:href="#DejaVuSerif-73" x="255.224609"/>
      <use xlink:href="#DejaVuSerif-69" x="306.542969"/>
      <use xlink:href="#DejaVuSerif-61" x="338.525391"/>
      <use xlink:href="#DejaVuSerif-6e" x="398.144531"/>
     </g>
    </g>
    <g id="LineCollection_2">
     <path d="M 87.070625 81.759375 
L 87.070625 69.759375 
" style="fill: none; stroke: #000000; stroke-width: 1.5"/>
    </g>
    <g id="line2d_43"/>
    <g id="line2d_44">
     <g>
      <use xlink:href="#m9bb239edf1" x="87.070625" y="75.759375" style="stroke: #000000"/>
     </g>
    </g>
    <g id="text_15">
     <!-- c3 -->
     <g style="fill: #1a1a1a" transform="translate(108.670625 79.959375) scale(0.12 -0.12)">
      <defs>
       <path id="DejaVuSerif-33" d="M 622 4469 
Q 988 4606 1323 4678 
Q 1659 4750 1953 4750 
Q 2638 4750 3022 4454 
Q 3406 4159 3406 3634 
Q 3406 3213 3140 2930 
Q 2875 2647 2388 2547 
Q 2963 2466 3280 2130 
Q 3597 1794 3597 1259 
Q 3597 606 3158 257 
Q 2719 -91 1894 -91 
Q 1528 -91 1179 -12 
Q 831 66 488 225 
L 488 1131 
L 838 1131 
Q 869 681 1141 450 
Q 1413 219 1906 219 
Q 2384 219 2661 495 
Q 2938 772 2938 1253 
Q 2938 1803 2653 2086 
Q 2369 2369 1819 2369 
L 1522 2369 
L 1522 2688 
L 1678 2688 
Q 2225 2688 2498 2914 
Q 2772 3141 2772 3597 
Q 2772 4006 2547 4223 
Q 2322 4441 1900 4441 
Q 1478 4441 1245 4241 
Q 1013 4041 972 3647 
L 622 3647 
L 622 4469 
z
" transform="scale(0.015625)"/>
      </defs>
      <use xlink:href="#DejaVuSerif-63"/>
      <use xlink:href="#DejaVuSerif-33" x="56.005859"/>
     </g>
    </g>
   </g>
  </g>
 </g>
 <defs>
  <clipPath id="p8bf46323e7">
   <rect x="64.270625" y="7.2" width="334.8" height="221.76"/>
  </clipPath>
 </defs>
</svg>
