<?xml version="1.0" encoding="utf-8" standalone="no"?>
<!DOCTYPE svg PUBLIC "-//W3C//DTD SVG 1.1//EN"
  "http://www.w3.org/Graphics/SVG/1.1/DTD/svg11.dtd">
<svg xmlns:xlink="http://www.w3.org/1999/xlink" width="400.660716pt" height="279.468125pt" viewBox="0 0 400.660716 279.468125" xmlns="http://www.w3.org/2000/svg" version="1.1">
 <metadata>
  <rdf:RDF xmlns:dc="http://purl.org/dc/elements/1.1/" xmlns:cc="http://creativecommons.org/ns#" xmlns:rdf="http://www.w3.org/1999/02/22-rdf-syntax-ns#">
   <cc:Work>
    <dc:creator>
     <cc:Agent>
      <dc:title>カリビアンカフェ</dc:title>
     </cc:Agent>
    </dc:creator>
   </cc:Work>
  </rdf:RDF>
 </metadata>
 <defs>
  <style type="text/css">*{stroke-linejoin: round; stroke-linecap: butt}</style>
 </defs>
 <g id="figure_1">
  <g id="patch_1">
   <path d="M 0 279.468125 
L 400.660716 279.468125 
L 400.660716 0 
L 0 0 
z
" style="fill: #ffffff"/>
  </g>
  <g id="axes_1">
   <g id="patch_2">
    <path d="M 56.68625 228.96 
L 391.48625 228.96 
L 391.48625 7.2 
L 56.68625 7.2 
z
" style="fill: #ffffff"/>
   </g>
   <g id="patch_3">
    <path d="M 56.68625 228.96 
L 56.68625 228.48449 
L 63.38225 228.48449 
L 63.38225 228.722245 
L 70.07825 228.722245 
L 70.07825 228.48449 
L 76.77425 228.48449 
L 76.77425 227.533469 
L 83.47025 227.533469 
L 83.47025 226.820203 
L 90.16625 226.820203 
L 90.16625 223.253876 
L 96.86225 223.253876 
L 96.86225 223.01612 
L 103.55825 223.01612 
L 103.55825 215.64571 
L 110.25425 215.64571 
L 110.25425 210.415096 
L 116.95025 210.415096 
L 116.95025 194.009988 
L 123.64625 194.009988 
L 123.64625 187.352843 
L 130.34225 187.352843 
L 130.34225 163.815079 
L 137.03825 163.815079 
L 137.03825 141.941602 
L 143.73425 141.941602 
L 143.73425 127.914046 
L 150.43025 127.914046 
L 150.43025 97.005872 
L 157.12625 97.005872 
L 157.12625 71.328312 
L 163.82225 71.328312 
L 163.82225 60.391574 
L 170.51825 60.391574 
L 170.51825 50.881366 
L 177.21425 50.881366 
L 177.21425 51.832387 
L 183.91025 51.832387 
L 183.91025 51.119121 
L 190.60625 51.119121 
L 190.60625 66.573208 
L 197.30225 66.573208 
L 197.30225 74.181374 
L 203.99825 74.181374 
L 203.99825 80.83852 
L 210.69425 80.83852 
L 210.69425 102.949752 
L 217.39025 102.949752 
L 217.39025 131.718129 
L 224.08625 131.718129 
L 224.08625 134.333436 
L 230.78225 134.333436 
L 230.78225 146.696706 
L 237.47825 146.696706 
L 237.47825 150.500789 
L 244.17425 150.500789 
L 244.17425 170.472224 
L 250.87025 170.472224 
L 250.87025 174.514063 
L 257.56625 174.514063 
L 257.56625 183.073249 
L 264.26225 183.073249 
L 264.26225 185.450801 
L 270.95825 185.450801 
L 270.95825 193.058967 
L 277.65425 193.058967 
L 277.65425 199.478357 
L 284.35025 199.478357 
L 284.35025 209.939585 
L 291.04625 209.939585 
L 291.04625 212.554892 
L 297.74225 212.554892 
L 297.74225 220.163058 
L 304.43825 220.163058 
L 304.43825 221.827344 
L 311.13425 221.827344 
L 311.13425 225.155917 
L 317.83025 225.155917 
L 317.83025 226.344693 
L 324.52625 226.344693 
L 324.52625 227.533469 
L 331.22225 227.533469 
L 331.22225 228.722245 
L 337.91825 228.722245 
L 337.91825 228.246734 
L 344.61425 228.246734 
L 344.61425 228.722245 
L 351.31025 228.722245 
L 351.31025 228.722245 
L 358.00625 228.722245 
L 358.00625 228.96 
L 364.70225 228.96 
L 364.70225 228.96 
L 371.39825 228.96 
L 371.39825 228.722245 
L 378.09425 228.722245 
L 378.09425 228.96 
L 384.79025 228.96 
L 384.79025 228.96 
L 391.48625 228.96 
L 391.48625 228.96 
" clip-path="url(#pd5c7fad0d1)" style="fill: none; stroke: #348abd; stroke-width: 1.2; stroke-linejoin: miter"/>
   </g>
   <g id="patch_4">
    <path d="M 56.68625 228.96 
L 56.68625 228.96 
L 63.38225 228.96 
L 63.38225 228.96 
L 70.07825 228.96 
L 70.07825 228.96 
L 76.77425 228.96 
L 76.77425 228.96 
L 83.47025 228.96 
L 83.47025 228.96 
L 90.16625 228.96 
L 90.16625 228.722245 
L 96.86225 228.722245 
L 96.86225 227.533469 
L 103.55825 227.533469 
L 103.55825 227.771224 
L 110.25425 227.771224 
L 110.25425 225.869183 
L 116.95025 225.869183 
L 116.95025 223.491631 
L 123.64625 223.491631 
L 123.64625 220.163058 
L 130.34225 220.163058 
L 130.34225 204.946726 
L 137.03825 204.946726 
L 137.03825 195.674274 
L 143.73425 195.674274 
L 143.73425 181.171208 
L 150.43025 181.171208 
L 150.43025 163.101814 
L 157.12625 163.101814 
L 157.12625 142.654868 
L 163.82225 142.654868 
L 163.82225 108.418121 
L 170.51825 108.418121 
L 170.51825 98.670158 
L 177.21425 98.670158 
L 177.21425 97.243627 
L 183.91025 97.243627 
L 183.91025 93.6773 
L 190.60625 93.6773 
L 190.60625 109.131387 
L 197.30225 109.131387 
L 197.30225 106.278324 
L 203.99825 106.278324 
L 203.99825 119.117104 
L 210.69425 119.117104 
L 210.69425 113.648735 
L 217.39025 113.648735 
L 217.39025 111.033428 
L 224.08625 111.033428 
L 224.08625 103.187507 
L 230.78225 103.187507 
L 230.78225 95.579341 
L 237.47825 95.579341 
L 237.47825 88.922196 
L 244.17425 88.922196 
L 244.17425 86.069134 
L 250.87025 86.069134 
L 250.87025 95.817096 
L 257.56625 95.817096 
L 257.56625 103.187507 
L 264.26225 103.187507 
L 264.26225 125.060984 
L 270.95825 125.060984 
L 270.95825 140.039561 
L 277.65425 140.039561 
L 277.65425 149.074258 
L 284.35025 149.074258 
L 284.35025 172.849776 
L 291.04625 172.849776 
L 291.04625 188.066108 
L 297.74225 188.066108 
L 297.74225 198.289581 
L 304.43825 198.289581 
L 304.43825 207.324278 
L 311.13425 207.324278 
L 311.13425 215.407954 
L 317.83025 215.407954 
L 317.83025 218.261017 
L 324.52625 218.261017 
L 324.52625 223.491631 
L 331.22225 223.491631 
L 331.22225 226.344693 
L 337.91825 226.344693 
L 337.91825 226.344693 
L 344.61425 226.344693 
L 344.61425 228.246734 
L 351.31025 228.246734 
L 351.31025 228.246734 
L 358.00625 228.246734 
L 358.00625 228.722245 
L 364.70225 228.722245 
L 364.70225 228.96 
L 371.39825 228.96 
L 371.39825 228.96 
L 378.09425 228.96 
L 378.09425 228.96 
L 384.79025 228.96 
L 384.79025 228.722245 
L 391.48625 228.722245 
L 391.48625 228.96 
" clip-path="url(#pd5c7fad0d1)" style="fill: none; stroke: #e24a33; stroke-width: 1.2; stroke-linejoin: miter"/>
   </g>
   <g id="LineCollection_1">
    <path d="M 60.03425 228.96 
L 60.03425 228.96 
" clip-path="url(#pd5c7fad0d1)" style="fill: none; stroke: #000000; stroke-width: 1.5"/>
    <path d="M 66.73025 228.96 
L 66.73025 228.96 
" clip-path="url(#pd5c7fad0d1)" style="fill: none; stroke: #000000; stroke-width: 1.5"/>
    <path d="M 73.42625 228.96 
L 73.42625 228.96 
" clip-path="url(#pd5c7fad0d1)" style="fill: none; stroke: #000000; stroke-width: 1.5"/>
    <path d="M 80.12225 228.96 
L 80.12225 228.48449 
" clip-path="url(#pd5c7fad0d1)" style="fill: none; stroke: #000000; stroke-width: 1.5"/>
    <path d="M 86.81825 228.96 
L 86.81825 228.48449 
" clip-path="url(#pd5c7fad0d1)" style="fill: none; stroke: #000000; stroke-width: 1.5"/>
    <path d="M 93.51425 228.820726 
L 93.51425 228.148253 
" clip-path="url(#pd5c7fad0d1)" style="fill: none; stroke: #000000; stroke-width: 1.5"/>
    <path d="M 100.21025 228.115848 
L 100.21025 226.95109 
" clip-path="url(#pd5c7fad0d1)" style="fill: none; stroke: #000000; stroke-width: 1.5"/>
    <path d="M 106.90625 227.533469 
L 106.90625 226.106938 
" clip-path="url(#pd5c7fad0d1)" style="fill: none; stroke: #000000; stroke-width: 1.5"/>
    <path d="M 113.60225 225.898452 
L 113.60225 223.937872 
" clip-path="url(#pd5c7fad0d1)" style="fill: none; stroke: #000000; stroke-width: 1.5"/>
    <path d="M 120.29825 224.204896 
L 120.29825 221.827344 
" clip-path="url(#pd5c7fad0d1)" style="fill: none; stroke: #000000; stroke-width: 1.5"/>
    <path d="M 126.99425 218.532397 
L 126.99425 215.136574 
" clip-path="url(#pd5c7fad0d1)" style="fill: none; stroke: #000000; stroke-width: 1.5"/>
    <path d="M 133.69025 215.868547 
L 133.69025 212.0943 
" clip-path="url(#pd5c7fad0d1)" style="fill: none; stroke: #000000; stroke-width: 1.5"/>
    <path d="M 140.38625 210.267885 
L 140.38625 205.807202 
" clip-path="url(#pd5c7fad0d1)" style="fill: none; stroke: #000000; stroke-width: 1.5"/>
    <path d="M 147.08225 205.979554 
L 147.08225 201.060836 
" clip-path="url(#pd5c7fad0d1)" style="fill: none; stroke: #000000; stroke-width: 1.5"/>
    <path d="M 153.77825 197.576316 
L 153.77825 191.870191 
" clip-path="url(#pd5c7fad0d1)" style="fill: none; stroke: #000000; stroke-width: 1.5"/>
    <path d="M 160.47425 184.771329 
L 160.47425 178.046597 
" clip-path="url(#pd5c7fad0d1)" style="fill: none; stroke: #000000; stroke-width: 1.5"/>
    <path d="M 167.17025 185.459282 
L 167.17025 178.785175 
" clip-path="url(#pd5c7fad0d1)" style="fill: none; stroke: #000000; stroke-width: 1.5"/>
    <path d="M 173.86625 177.192217 
L 173.86625 169.933866 
" clip-path="url(#pd5c7fad0d1)" style="fill: none; stroke: #000000; stroke-width: 1.5"/>
    <path d="M 180.56225 174.891727 
L 180.56225 167.479253 
" clip-path="url(#pd5c7fad0d1)" style="fill: none; stroke: #000000; stroke-width: 1.5"/>
    <path d="M 187.25825 169.13383 
L 187.25825 161.34939 
" clip-path="url(#pd5c7fad0d1)" style="fill: none; stroke: #000000; stroke-width: 1.5"/>
    <path d="M 193.95425 162.67496 
L 193.95425 154.49397 
" clip-path="url(#pd5c7fad0d1)" style="fill: none; stroke: #000000; stroke-width: 1.5"/>
    <path d="M 200.65025 155.282229 
L 200.65025 146.67037 
" clip-path="url(#pd5c7fad0d1)" style="fill: none; stroke: #000000; stroke-width: 1.5"/>
    <path d="M 207.34625 137.453881 
L 207.34625 127.884419 
" clip-path="url(#pd5c7fad0d1)" style="fill: none; stroke: #000000; stroke-width: 1.5"/>
    <path d="M 214.04225 116.560902 
L 214.04225 105.981464 
" clip-path="url(#pd5c7fad0d1)" style="fill: none; stroke: #000000; stroke-width: 1.5"/>
    <path d="M 220.73825 100.04694 
L 220.73825 88.73419 
" clip-path="url(#pd5c7fad0d1)" style="fill: none; stroke: #000000; stroke-width: 1.5"/>
    <path d="M 227.43425 67.188869 
L 227.43425 54.545299 
" clip-path="url(#pd5c7fad0d1)" style="fill: none; stroke: #000000; stroke-width: 1.5"/>
    <path d="M 234.13025 40.341808 
L 234.13025 26.708668 
" clip-path="url(#pd5c7fad0d1)" style="fill: none; stroke: #000000; stroke-width: 1.5"/>
    <path d="M 240.82625 31.696592 
L 240.82625 17.76 
" clip-path="url(#pd5c7fad0d1)" style="fill: none; stroke: #000000; stroke-width: 1.5"/>
    <path d="M 247.52225 40.80902 
L 247.52225 27.192476 
" clip-path="url(#pd5c7fad0d1)" style="fill: none; stroke: #000000; stroke-width: 1.5"/>
    <path d="M 254.21825 39.874585 
L 254.21825 26.22487 
" clip-path="url(#pd5c7fad0d1)" style="fill: none; stroke: #000000; stroke-width: 1.5"/>
    <path d="M 260.91425 52.952883 
L 260.91425 39.775153 
" clip-path="url(#pd5c7fad0d1)" style="fill: none; stroke: #000000; stroke-width: 1.5"/>
    <path d="M 267.61025 70.921009 
L 267.61025 58.421325 
" clip-path="url(#pd5c7fad0d1)" style="fill: none; stroke: #000000; stroke-width: 1.5"/>
    <path d="M 274.30625 105.399191 
L 274.30625 94.318677 
" clip-path="url(#pd5c7fad0d1)" style="fill: none; stroke: #000000; stroke-width: 1.5"/>
    <path d="M 281.00225 132.583503 
L 281.00225 122.769079 
" clip-path="url(#pd5c7fad0d1)" style="fill: none; stroke: #000000; stroke-width: 1.5"/>
    <path d="M 287.69825 159.673002 
L 287.69825 151.314293 
" clip-path="url(#pd5c7fad0d1)" style="fill: none; stroke: #000000; stroke-width: 1.5"/>
    <path d="M 294.39425 180.41007 
L 294.39425 173.373159 
" clip-path="url(#pd5c7fad0d1)" style="fill: none; stroke: #000000; stroke-width: 1.5"/>
    <path d="M 301.09025 192.555901 
L 301.09025 186.429378 
" clip-path="url(#pd5c7fad0d1)" style="fill: none; stroke: #000000; stroke-width: 1.5"/>
    <path d="M 307.78625 209.366991 
L 307.78625 204.806055 
" clip-path="url(#pd5c7fad0d1)" style="fill: none; stroke: #000000; stroke-width: 1.5"/>
    <path d="M 314.48225 217.646704 
L 314.48225 214.120225 
" clip-path="url(#pd5c7fad0d1)" style="fill: none; stroke: #000000; stroke-width: 1.5"/>
    <path d="M 321.17825 222.262663 
L 321.17825 219.489985 
" clip-path="url(#pd5c7fad0d1)" style="fill: none; stroke: #000000; stroke-width: 1.5"/>
    <path d="M 327.87425 225.689116 
L 327.87425 223.671697 
" clip-path="url(#pd5c7fad0d1)" style="fill: none; stroke: #000000; stroke-width: 1.5"/>
    <path d="M 334.57025 227.533469 
L 334.57025 226.106938 
" clip-path="url(#pd5c7fad0d1)" style="fill: none; stroke: #000000; stroke-width: 1.5"/>
    <path d="M 341.26625 228.302861 
L 341.26625 227.239587 
" clip-path="url(#pd5c7fad0d1)" style="fill: none; stroke: #000000; stroke-width: 1.5"/>
    <path d="M 347.96225 228.96 
L 347.96225 228.96 
" clip-path="url(#pd5c7fad0d1)" style="fill: none; stroke: #000000; stroke-width: 1.5"/>
    <path d="M 354.65825 228.658539 
L 354.65825 227.83493 
" clip-path="url(#pd5c7fad0d1)" style="fill: none; stroke: #000000; stroke-width: 1.5"/>
    <path d="M 361.35425 228.96 
L 361.35425 228.48449 
" clip-path="url(#pd5c7fad0d1)" style="fill: none; stroke: #000000; stroke-width: 1.5"/>
    <path d="M 368.05025 228.96 
L 368.05025 228.96 
" clip-path="url(#pd5c7fad0d1)" style="fill: none; stroke: #000000; stroke-width: 1.5"/>
    <path d="M 374.74625 228.96 
L 374.74625 228.96 
" clip-path="url(#pd5c7fad0d1)" style="fill: none; stroke: #000000; stroke-width: 1.5"/>
    <path d="M 381.44225 228.96 
L 381.44225 228.96 
" clip-path="url(#pd5c7fad0d1)" style="fill: none; stroke: #000000; stroke-width: 1.5"/>
    <path d="M 388.13825 228.96 
L 388.13825 228.96 
" clip-path="url(#pd5c7fad0d1)" style="fill: none; stroke: #000000; stroke-width: 1.5"/>
   </g>
   <g id="line2d_1">
    <defs>
     <path id="meae5c0c399" d="M 0 1.5 
C 0.397805 1.5 0.77937 1.341951 1.06066 1.06066 
C 1.341951 0.77937 1.5 0.397805 1.5 0 
C 1.5 -0.397805 1.341951 -0.77937 1.06066 -1.06066 
C 0.77937 -1.341951 0.397805 -1.5 0 -1.5 
C -0.397805 -1.5 -0.77937 -1.341951 -1.06066 -1.06066 
C -1.341951 -0.77937 -1.5 -0.397805 -1.5 0 
C -1.5 0.397805 -1.341951 0.77937 -1.06066 1.06066 
C -0.77937 1.341951 -0.397805 1.5 0 1.5 
z
" style="stroke: #000000"/>
    </defs>
    <g clip-path="url(#pd5c7fad0d1)">
     <use xlink:href="#meae5c0c399" x="60.03425" y="228.96" style="stroke: #000000"/>
     <use xlink:href="#meae5c0c399" x="66.73025" y="228.96" style="stroke: #000000"/>
     <use xlink:href="#meae5c0c399" x="73.42625" y="228.96" style="stroke: #000000"/>
     <use xlink:href="#meae5c0c399" x="80.12225" y="228.722245" style="stroke: #000000"/>
     <use xlink:href="#meae5c0c399" x="86.81825" y="228.722245" style="stroke: #000000"/>
     <use xlink:href="#meae5c0c399" x="93.51425" y="228.48449" style="stroke: #000000"/>
     <use xlink:href="#meae5c0c399" x="100.21025" y="227.533469" style="stroke: #000000"/>
     <use xlink:href="#meae5c0c399" x="106.90625" y="226.820203" style="stroke: #000000"/>
     <use xlink:href="#meae5c0c399" x="113.60225" y="224.918162" style="stroke: #000000"/>
     <use xlink:href="#meae5c0c399" x="120.29825" y="223.01612" style="stroke: #000000"/>
     <use xlink:href="#meae5c0c399" x="126.99425" y="216.834486" style="stroke: #000000"/>
     <use xlink:href="#meae5c0c399" x="133.69025" y="213.981423" style="stroke: #000000"/>
     <use xlink:href="#meae5c0c399" x="140.38625" y="208.037544" style="stroke: #000000"/>
     <use xlink:href="#meae5c0c399" x="147.08225" y="203.520195" style="stroke: #000000"/>
     <use xlink:href="#meae5c0c399" x="153.77825" y="194.723253" style="stroke: #000000"/>
     <use xlink:href="#meae5c0c399" x="160.47425" y="181.408963" style="stroke: #000000"/>
     <use xlink:href="#meae5c0c399" x="167.17025" y="182.122228" style="stroke: #000000"/>
     <use xlink:href="#meae5c0c399" x="173.86625" y="173.563042" style="stroke: #000000"/>
     <use xlink:href="#meae5c0c399" x="180.56225" y="171.18549" style="stroke: #000000"/>
     <use xlink:href="#meae5c0c399" x="187.25825" y="165.24161" style="stroke: #000000"/>
     <use xlink:href="#meae5c0c399" x="193.95425" y="158.584465" style="stroke: #000000"/>
     <use xlink:href="#meae5c0c399" x="200.65025" y="150.976299" style="stroke: #000000"/>
     <use xlink:href="#meae5c0c399" x="207.34625" y="132.66915" style="stroke: #000000"/>
     <use xlink:href="#meae5c0c399" x="214.04225" y="111.271183" style="stroke: #000000"/>
     <use xlink:href="#meae5c0c399" x="220.73825" y="94.390565" style="stroke: #000000"/>
     <use xlink:href="#meae5c0c399" x="227.43425" y="60.867084" style="stroke: #000000"/>
     <use xlink:href="#meae5c0c399" x="234.13025" y="33.525238" style="stroke: #000000"/>
     <use xlink:href="#meae5c0c399" x="240.82625" y="24.728296" style="stroke: #000000"/>
     <use xlink:href="#meae5c0c399" x="247.52225" y="34.000748" style="stroke: #000000"/>
     <use xlink:href="#meae5c0c399" x="254.21825" y="33.049727" style="stroke: #000000"/>
     <use xlink:href="#meae5c0c399" x="260.91425" y="46.364018" style="stroke: #000000"/>
     <use xlink:href="#meae5c0c399" x="267.61025" y="64.671167" style="stroke: #000000"/>
     <use xlink:href="#meae5c0c399" x="274.30625" y="99.858934" style="stroke: #000000"/>
     <use xlink:href="#meae5c0c399" x="281.00225" y="127.676291" style="stroke: #000000"/>
     <use xlink:href="#meae5c0c399" x="287.69825" y="155.493648" style="stroke: #000000"/>
     <use xlink:href="#meae5c0c399" x="294.39425" y="176.891614" style="stroke: #000000"/>
     <use xlink:href="#meae5c0c399" x="301.09025" y="189.492639" style="stroke: #000000"/>
     <use xlink:href="#meae5c0c399" x="307.78625" y="207.086523" style="stroke: #000000"/>
     <use xlink:href="#meae5c0c399" x="314.48225" y="215.883465" style="stroke: #000000"/>
     <use xlink:href="#meae5c0c399" x="321.17825" y="220.876324" style="stroke: #000000"/>
     <use xlink:href="#meae5c0c399" x="327.87425" y="224.680407" style="stroke: #000000"/>
     <use xlink:href="#meae5c0c399" x="334.57025" y="226.820203" style="stroke: #000000"/>
     <use xlink:href="#meae5c0c399" x="341.26625" y="227.771224" style="stroke: #000000"/>
     <use xlink:href="#meae5c0c399" x="347.96225" y="228.96" style="stroke: #000000"/>
     <use xlink:href="#meae5c0c399" x="354.65825" y="228.246734" style="stroke: #000000"/>
     <use xlink:href="#meae5c0c399" x="361.35425" y="228.722245" style="stroke: #000000"/>
     <use xlink:href="#meae5c0c399" x="368.05025" y="228.96" style="stroke: #000000"/>
     <use xlink:href="#meae5c0c399" x="374.74625" y="228.96" style="stroke: #000000"/>
     <use xlink:href="#meae5c0c399" x="381.44225" y="228.96" style="stroke: #000000"/>
     <use xlink:href="#meae5c0c399" x="388.13825" y="228.96" style="stroke: #000000"/>
    </g>
   </g>
   <g id="patch_5">
    <path d="M 56.68625 228.96 
L 56.68625 7.2 
" style="fill: none; stroke: #000000; stroke-linejoin: miter; stroke-linecap: square"/>
   </g>
   <g id="patch_6">
    <path d="M 391.48625 228.96 
L 391.48625 7.2 
" style="fill: none; stroke: #000000; stroke-linejoin: miter; stroke-linecap: square"/>
   </g>
   <g id="patch_7">
    <path d="M 56.68625 228.96 
L 391.48625 228.96 
" style="fill: none; stroke: #000000; stroke-linejoin: miter; stroke-linecap: square"/>
   </g>
   <g id="patch_8">
    <path d="M 56.68625 7.2 
L 391.48625 7.2 
" style="fill: none; stroke: #000000; stroke-linejoin: miter; stroke-linecap: square"/>
   </g>
   <g id="matplotlib.axis_1">
    <g id="xtick_1">
     <g id="line2d_2">
      <defs>
       <path id="m8dec1b3d1d" d="M 0 0 
L 0 -6 
" style="stroke: #1a1a1a; stroke-width: 0.8"/>
      </defs>
      <g>
       <use xlink:href="#m8dec1b3d1d" x="127.498285" y="228.96" style="fill: #1a1a1a; stroke: #1a1a1a; stroke-width: 0.8"/>
      </g>
     </g>
     <g id="text_1">
      <!-- $\mathdefault{−5}$ -->
      <g style="fill: #1a1a1a" transform="translate(117.898285 247.370937) scale(0.15 -0.15)">
       <defs>
        <path id="LatinModernMath-Regular-2212" d="M 4621 1600 
C 4621 1670 4563 1728 4493 1728 
L 486 1728 
C 416 1728 358 1670 358 1600 
C 358 1530 416 1472 486 1472 
L 4493 1472 
C 4563 1472 4621 1530 4621 1600 
z
" transform="scale(0.015625)"/>
        <path id="LatinModernMath-Regular-35" d="M 2874 1286 
C 2874 2048 2349 2688 1658 2688 
C 1350 2688 1075 2586 845 2362 
L 845 3610 
C 973 3571 1184 3526 1389 3526 
C 2176 3526 2624 4109 2624 4192 
C 2624 4230 2605 4262 2560 4262 
C 2560 4262 2541 4262 2509 4243 
C 2381 4186 2067 4058 1638 4058 
C 1382 4058 1088 4102 787 4237 
C 736 4256 710 4256 710 4256 
C 646 4256 646 4205 646 4102 
L 646 2208 
C 646 2093 646 2042 736 2042 
C 781 2042 794 2061 819 2099 
C 890 2202 1126 2547 1645 2547 
C 1978 2547 2138 2253 2189 2138 
C 2291 1901 2304 1651 2304 1331 
C 2304 1107 2304 723 2150 454 
C 1997 205 1760 38 1466 38 
C 998 38 634 378 525 755 
C 544 749 563 742 634 742 
C 845 742 954 902 954 1056 
C 954 1210 845 1370 634 1370 
C 544 1370 320 1325 320 1030 
C 320 480 762 -141 1478 -141 
C 2221 -141 2874 474 2874 1286 
z
" transform="scale(0.015625)"/>
       </defs>
       <use xlink:href="#LatinModernMath-Regular-2212" transform="translate(0 0.40625)"/>
       <use xlink:href="#LatinModernMath-Regular-35" transform="translate(77.799988 0.40625)"/>
      </g>
     </g>
    </g>
    <g id="xtick_2">
     <g id="line2d_3">
      <g>
       <use xlink:href="#m8dec1b3d1d" x="213.652429" y="228.96" style="fill: #1a1a1a; stroke: #1a1a1a; stroke-width: 0.8"/>
      </g>
     </g>
     <g id="text_2">
      <!-- $\mathdefault{0}$ -->
      <g style="fill: #1a1a1a" transform="translate(209.902429 247.370937) scale(0.15 -0.15)">
       <defs>
        <path id="LatinModernMath-Regular-30" d="M 2944 2048 
C 2944 2560 2912 3072 2688 3546 
C 2394 4160 1869 4262 1600 4262 
C 1216 4262 749 4096 486 3501 
C 282 3059 250 2560 250 2048 
C 250 1568 275 992 538 506 
C 813 -13 1280 -141 1594 -141 
C 1939 -141 2426 -6 2707 602 
C 2912 1043 2944 1542 2944 2048 
z
M 2413 2125 
C 2413 1645 2413 1210 2342 800 
C 2246 192 1882 0 1594 0 
C 1344 0 966 160 851 774 
C 781 1158 781 1747 781 2125 
C 781 2534 781 2957 832 3302 
C 954 4064 1434 4122 1594 4122 
C 1805 4122 2227 4006 2349 3373 
C 2413 3014 2413 2528 2413 2125 
z
" transform="scale(0.015625)"/>
       </defs>
       <use xlink:href="#LatinModernMath-Regular-30" transform="translate(0 0.40625)"/>
      </g>
     </g>
    </g>
    <g id="xtick_3">
     <g id="line2d_4">
      <g>
       <use xlink:href="#m8dec1b3d1d" x="299.806572" y="228.96" style="fill: #1a1a1a; stroke: #1a1a1a; stroke-width: 0.8"/>
      </g>
     </g>
     <g id="text_3">
      <!-- $\mathdefault{5}$ -->
      <g style="fill: #1a1a1a" transform="translate(296.056572 247.370937) scale(0.15 -0.15)">
       <use xlink:href="#LatinModernMath-Regular-35" transform="translate(0 0.40625)"/>
      </g>
     </g>
    </g>
    <g id="xtick_4">
     <g id="line2d_5">
      <g>
       <use xlink:href="#m8dec1b3d1d" x="385.960716" y="228.96" style="fill: #1a1a1a; stroke: #1a1a1a; stroke-width: 0.8"/>
      </g>
     </g>
     <g id="text_4">
      <!-- $\mathdefault{10}$ -->
      <g style="fill: #1a1a1a" transform="translate(378.460716 247.370937) scale(0.15 -0.15)">
       <defs>
        <path id="LatinModernMath-Regular-31" d="M 2682 0 
L 2682 198 
L 2477 198 
C 1901 198 1882 269 1882 506 
L 1882 4096 
C 1882 4250 1882 4262 1734 4262 
C 1338 3853 774 3853 570 3853 
L 570 3654 
C 698 3654 1075 3654 1408 3821 
L 1408 506 
C 1408 275 1389 198 813 198 
L 608 198 
L 608 0 
C 832 19 1389 19 1645 19 
C 1901 19 2458 19 2682 0 
z
" transform="scale(0.015625)"/>
       </defs>
       <use xlink:href="#LatinModernMath-Regular-31" transform="translate(0 0.40625)"/>
       <use xlink:href="#LatinModernMath-Regular-30" transform="translate(49.999985 0.40625)"/>
      </g>
     </g>
    </g>
    <g id="xtick_5">
     <g id="line2d_6">
      <defs>
       <path id="m131efc0c90" d="M 0 0 
L 0 -3 
" style="stroke: #1a1a1a; stroke-width: 0.6"/>
      </defs>
      <g>
       <use xlink:href="#m131efc0c90" x="58.574971" y="228.96" style="fill: #1a1a1a; stroke: #1a1a1a; stroke-width: 0.6"/>
      </g>
     </g>
    </g>
    <g id="xtick_6">
     <g id="line2d_7">
      <g>
       <use xlink:href="#m131efc0c90" x="75.805799" y="228.96" style="fill: #1a1a1a; stroke: #1a1a1a; stroke-width: 0.6"/>
      </g>
     </g>
    </g>
    <g id="xtick_7">
     <g id="line2d_8">
      <g>
       <use xlink:href="#m131efc0c90" x="93.036628" y="228.96" style="fill: #1a1a1a; stroke: #1a1a1a; stroke-width: 0.6"/>
      </g>
     </g>
    </g>
    <g id="xtick_8">
     <g id="line2d_9">
      <g>
       <use xlink:href="#m131efc0c90" x="110.267457" y="228.96" style="fill: #1a1a1a; stroke: #1a1a1a; stroke-width: 0.6"/>
      </g>
     </g>
    </g>
    <g id="xtick_9">
     <g id="line2d_10">
      <g>
       <use xlink:href="#m131efc0c90" x="144.729114" y="228.96" style="fill: #1a1a1a; stroke: #1a1a1a; stroke-width: 0.6"/>
      </g>
     </g>
    </g>
    <g id="xtick_10">
     <g id="line2d_11">
      <g>
       <use xlink:href="#m131efc0c90" x="161.959943" y="228.96" style="fill: #1a1a1a; stroke: #1a1a1a; stroke-width: 0.6"/>
      </g>
     </g>
    </g>
    <g id="xtick_11">
     <g id="line2d_12">
      <g>
       <use xlink:href="#m131efc0c90" x="179.190771" y="228.96" style="fill: #1a1a1a; stroke: #1a1a1a; stroke-width: 0.6"/>
      </g>
     </g>
    </g>
    <g id="xtick_12">
     <g id="line2d_13">
      <g>
       <use xlink:href="#m131efc0c90" x="196.4216" y="228.96" style="fill: #1a1a1a; stroke: #1a1a1a; stroke-width: 0.6"/>
      </g>
     </g>
    </g>
    <g id="xtick_13">
     <g id="line2d_14">
      <g>
       <use xlink:href="#m131efc0c90" x="230.883257" y="228.96" style="fill: #1a1a1a; stroke: #1a1a1a; stroke-width: 0.6"/>
      </g>
     </g>
    </g>
    <g id="xtick_14">
     <g id="line2d_15">
      <g>
       <use xlink:href="#m131efc0c90" x="248.114086" y="228.96" style="fill: #1a1a1a; stroke: #1a1a1a; stroke-width: 0.6"/>
      </g>
     </g>
    </g>
    <g id="xtick_15">
     <g id="line2d_16">
      <g>
       <use xlink:href="#m131efc0c90" x="265.344915" y="228.96" style="fill: #1a1a1a; stroke: #1a1a1a; stroke-width: 0.6"/>
      </g>
     </g>
    </g>
    <g id="xtick_16">
     <g id="line2d_17">
      <g>
       <use xlink:href="#m131efc0c90" x="282.575744" y="228.96" style="fill: #1a1a1a; stroke: #1a1a1a; stroke-width: 0.6"/>
      </g>
     </g>
    </g>
    <g id="xtick_17">
     <g id="line2d_18">
      <g>
       <use xlink:href="#m131efc0c90" x="317.037401" y="228.96" style="fill: #1a1a1a; stroke: #1a1a1a; stroke-width: 0.6"/>
      </g>
     </g>
    </g>
    <g id="xtick_18">
     <g id="line2d_19">
      <g>
       <use xlink:href="#m131efc0c90" x="334.26823" y="228.96" style="fill: #1a1a1a; stroke: #1a1a1a; stroke-width: 0.6"/>
      </g>
     </g>
    </g>
    <g id="xtick_19">
     <g id="line2d_20">
      <g>
       <use xlink:href="#m131efc0c90" x="351.499058" y="228.96" style="fill: #1a1a1a; stroke: #1a1a1a; stroke-width: 0.6"/>
      </g>
     </g>
    </g>
    <g id="xtick_20">
     <g id="line2d_21">
      <g>
       <use xlink:href="#m131efc0c90" x="368.729887" y="228.96" style="fill: #1a1a1a; stroke: #1a1a1a; stroke-width: 0.6"/>
      </g>
     </g>
    </g>
    <g id="text_5">
     <!-- variable_1 -->
     <g style="fill: #1a1a1a" transform="translate(185.306094 268.775) scale(0.18 -0.18)">
      <defs>
       <path id="LatinModernMath-Regular-76" d="M 3251 2560 
L 3251 2758 
C 3104 2746 2918 2739 2771 2739 
L 2214 2758 
L 2214 2560 
C 2451 2554 2522 2406 2522 2285 
C 2522 2227 2509 2202 2483 2131 
L 1830 499 
L 1114 2285 
C 1075 2368 1075 2394 1075 2394 
C 1075 2560 1325 2560 1440 2560 
L 1440 2758 
L 742 2739 
C 570 2739 314 2746 122 2758 
L 122 2560 
C 525 2560 550 2522 634 2323 
L 1555 51 
C 1594 -38 1606 -70 1690 -70 
C 1773 -70 1798 -13 1824 51 
L 2662 2131 
C 2720 2278 2829 2554 3251 2560 
z
" transform="scale(0.015625)"/>
       <path id="LatinModernMath-Regular-61" d="M 3091 570 
L 3091 928 
L 2931 928 
L 2931 570 
C 2931 198 2771 160 2701 160 
C 2490 160 2464 448 2464 480 
L 2464 1760 
C 2464 2029 2464 2278 2234 2515 
C 1984 2765 1664 2867 1357 2867 
C 832 2867 390 2566 390 2144 
C 390 1952 518 1843 685 1843 
C 864 1843 979 1971 979 2138 
C 979 2214 947 2426 653 2432 
C 826 2656 1139 2726 1344 2726 
C 1658 2726 2022 2477 2022 1907 
L 2022 1670 
C 1696 1651 1248 1632 845 1440 
C 365 1222 205 890 205 608 
C 205 90 826 -70 1229 -70 
C 1651 -70 1946 186 2067 486 
C 2093 230 2266 -38 2566 -38 
C 2701 -38 3091 51 3091 570 
z
M 2022 896 
C 2022 288 1562 70 1274 70 
C 960 70 698 294 698 614 
C 698 966 966 1498 2022 1536 
L 2022 896 
z
" transform="scale(0.015625)"/>
       <path id="LatinModernMath-Regular-72" d="M 2330 2438 
C 2330 2643 2131 2829 1856 2829 
C 1389 2829 1158 2400 1069 2125 
L 1069 2829 
L 179 2758 
L 179 2560 
C 627 2560 678 2515 678 2202 
L 678 486 
C 678 198 608 198 179 198 
L 179 0 
L 909 19 
C 1165 19 1466 19 1722 0 
L 1722 198 
L 1587 198 
C 1114 198 1101 269 1101 499 
L 1101 1485 
C 1101 2118 1370 2688 1856 2688 
C 1901 2688 1914 2688 1926 2682 
C 1907 2675 1779 2598 1779 2432 
C 1779 2253 1914 2157 2054 2157 
C 2170 2157 2330 2234 2330 2438 
z
" transform="scale(0.015625)"/>
       <path id="LatinModernMath-Regular-69" d="M 1581 0 
L 1581 198 
C 1158 198 1133 230 1133 480 
L 1133 2829 
L 237 2758 
L 237 2560 
C 653 2560 710 2522 710 2208 
L 710 486 
C 710 198 640 198 211 198 
L 211 0 
L 915 19 
C 1139 19 1363 6 1581 0 
z
M 1229 3866 
C 1229 4038 1082 4205 890 4205 
C 672 4205 544 4026 544 3866 
C 544 3693 691 3526 883 3526 
C 1101 3526 1229 3706 1229 3866 
z
" transform="scale(0.015625)"/>
       <path id="LatinModernMath-Regular-62" d="M 3334 1382 
C 3334 2195 2707 2829 1978 2829 
C 1478 2829 1203 2528 1101 2413 
L 1101 4442 
L 179 4371 
L 179 4173 
C 627 4173 678 4128 678 3814 
L 678 0 
L 838 0 
L 1069 397 
C 1165 250 1434 -70 1907 -70 
C 2669 -70 3334 557 3334 1382 
z
M 2803 1389 
C 2803 1152 2790 768 2605 480 
C 2470 282 2227 70 1882 70 
C 1594 70 1363 224 1210 461 
C 1120 595 1120 614 1120 730 
L 1120 2048 
C 1120 2170 1120 2176 1190 2278 
C 1440 2637 1792 2688 1946 2688 
C 2234 2688 2464 2522 2618 2278 
C 2784 2016 2803 1651 2803 1389 
z
" transform="scale(0.015625)"/>
       <path id="LatinModernMath-Regular-6c" d="M 1632 0 
L 1632 198 
C 1203 198 1133 198 1133 486 
L 1133 4442 
L 211 4371 
L 211 4173 
C 659 4173 710 4128 710 3814 
L 710 486 
C 710 198 640 198 211 198 
L 211 0 
L 922 19 
L 1632 0 
z
" transform="scale(0.015625)"/>
       <path id="LatinModernMath-Regular-65" d="M 2656 762 
C 2656 826 2605 838 2573 838 
C 2515 838 2502 800 2490 749 
C 2266 90 1690 90 1626 90 
C 1306 90 1050 282 902 518 
C 710 826 710 1248 710 1478 
L 2496 1478 
C 2637 1478 2656 1478 2656 1613 
C 2656 2246 2310 2867 1510 2867 
C 768 2867 179 2208 179 1408 
C 179 550 851 -70 1587 -70 
C 2368 -70 2656 640 2656 762 
z
M 2234 1613 
L 717 1613 
C 755 2566 1293 2726 1510 2726 
C 2170 2726 2234 1862 2234 1613 
z
" transform="scale(0.015625)"/>
       <path id="LatinModernMath-Regular-5f" d="M 2131 -896 
L 2131 -640 
L 0 -640 
L 0 -896 
L 2131 -896 
z
" transform="scale(0.015625)"/>
      </defs>
      <use xlink:href="#LatinModernMath-Regular-76"/>
      <use xlink:href="#LatinModernMath-Regular-61" x="52.799988"/>
      <use xlink:href="#LatinModernMath-Regular-72" x="102.799973"/>
      <use xlink:href="#LatinModernMath-Regular-69" x="141.999969"/>
      <use xlink:href="#LatinModernMath-Regular-61" x="169.799957"/>
      <use xlink:href="#LatinModernMath-Regular-62" x="219.799942"/>
      <use xlink:href="#LatinModernMath-Regular-6c" x="275.399933"/>
      <use xlink:href="#LatinModernMath-Regular-65" x="303.199921"/>
      <use xlink:href="#LatinModernMath-Regular-5f" x="347.599915"/>
      <use xlink:href="#LatinModernMath-Regular-31" x="380.899902"/>
     </g>
    </g>
   </g>
   <g id="matplotlib.axis_2">
    <g id="ytick_1">
     <g id="line2d_22">
      <defs>
       <path id="mc947610920" d="M 0 0 
L 6 0 
" style="stroke: #1a1a1a; stroke-width: 0.8"/>
      </defs>
      <g>
       <use xlink:href="#mc947610920" x="56.68625" y="228.96" style="fill: #1a1a1a; stroke: #1a1a1a; stroke-width: 0.8"/>
      </g>
     </g>
     <g id="text_6">
      <!-- $\mathdefault{0}$ -->
      <g style="fill: #1a1a1a" transform="translate(44.18625 234.165469) scale(0.15 -0.15)">
       <use xlink:href="#LatinModernMath-Regular-30" transform="translate(0 0.40625)"/>
      </g>
     </g>
    </g>
    <g id="ytick_2">
     <g id="line2d_23">
      <g>
       <use xlink:href="#mc947610920" x="56.68625" y="181.408963" style="fill: #1a1a1a; stroke: #1a1a1a; stroke-width: 0.8"/>
      </g>
     </g>
     <g id="text_7">
      <!-- $\mathdefault{200}$ -->
      <g style="fill: #1a1a1a" transform="translate(29.18625 186.614432) scale(0.15 -0.15)">
       <defs>
        <path id="LatinModernMath-Regular-32" d="M 2874 1114 
L 2714 1114 
C 2682 922 2637 640 2573 544 
C 2528 493 2106 493 1965 493 
L 813 493 
L 1491 1152 
C 2490 2035 2874 2381 2874 3021 
C 2874 3750 2298 4262 1517 4262 
C 794 4262 320 3674 320 3104 
C 320 2746 640 2746 659 2746 
C 768 2746 992 2822 992 3085 
C 992 3251 877 3418 653 3418 
C 602 3418 589 3418 570 3411 
C 717 3827 1062 4064 1434 4064 
C 2016 4064 2291 3546 2291 3021 
C 2291 2509 1971 2003 1619 1606 
L 390 237 
C 320 166 320 154 320 0 
L 2694 0 
L 2874 1114 
z
" transform="scale(0.015625)"/>
       </defs>
       <use xlink:href="#LatinModernMath-Regular-32" transform="translate(0 0.40625)"/>
       <use xlink:href="#LatinModernMath-Regular-30" transform="translate(49.999985 0.40625)"/>
       <use xlink:href="#LatinModernMath-Regular-30" transform="translate(99.999969 0.40625)"/>
      </g>
     </g>
    </g>
    <g id="ytick_3">
     <g id="line2d_24">
      <g>
       <use xlink:href="#mc947610920" x="56.68625" y="133.857926" style="fill: #1a1a1a; stroke: #1a1a1a; stroke-width: 0.8"/>
      </g>
     </g>
     <g id="text_8">
      <!-- $\mathdefault{400}$ -->
      <g style="fill: #1a1a1a" transform="translate(29.18625 139.063395) scale(0.15 -0.15)">
       <defs>
        <path id="LatinModernMath-Regular-34" d="M 3014 1056 
L 3014 1254 
L 2374 1254 
L 2374 4166 
C 2374 4294 2374 4333 2272 4333 
C 2214 4333 2195 4333 2144 4256 
L 179 1254 
L 179 1056 
L 1882 1056 
L 1882 499 
C 1882 269 1869 198 1395 198 
L 1261 198 
L 1261 0 
C 1523 19 1856 19 2125 19 
C 2394 19 2733 19 2995 0 
L 2995 198 
L 2861 198 
C 2387 198 2374 269 2374 499 
L 2374 1056 
L 3014 1056 
z
M 1920 1254 
L 358 1254 
L 1920 3642 
L 1920 1254 
z
" transform="scale(0.015625)"/>
       </defs>
       <use xlink:href="#LatinModernMath-Regular-34" transform="translate(0 0.296875)"/>
       <use xlink:href="#LatinModernMath-Regular-30" transform="translate(49.999985 0.296875)"/>
       <use xlink:href="#LatinModernMath-Regular-30" transform="translate(99.999969 0.296875)"/>
      </g>
     </g>
    </g>
    <g id="ytick_4">
     <g id="line2d_25">
      <g>
       <use xlink:href="#mc947610920" x="56.68625" y="86.306889" style="fill: #1a1a1a; stroke: #1a1a1a; stroke-width: 0.8"/>
      </g>
     </g>
     <g id="text_9">
      <!-- $\mathdefault{600}$ -->
      <g style="fill: #1a1a1a" transform="translate(29.18625 91.512358) scale(0.15 -0.15)">
       <defs>
        <path id="LatinModernMath-Regular-36" d="M 2925 1306 
C 2925 2118 2355 2733 1645 2733 
C 1210 2733 973 2406 845 2099 
L 845 2253 
C 845 3872 1638 4102 1965 4102 
C 2118 4102 2387 4064 2528 3846 
C 2432 3846 2176 3846 2176 3558 
C 2176 3360 2330 3264 2470 3264 
C 2573 3264 2765 3322 2765 3571 
C 2765 3955 2483 4262 1952 4262 
C 1133 4262 269 3437 269 2022 
C 269 314 1011 -141 1606 -141 
C 2317 -141 2925 461 2925 1306 
z
M 2349 1312 
C 2349 1005 2349 685 2240 454 
C 2048 70 1754 38 1606 38 
C 1203 38 1011 422 973 518 
C 858 819 858 1331 858 1446 
C 858 1946 1062 2586 1638 2586 
C 1741 2586 2035 2586 2234 2189 
C 2349 1952 2349 1626 2349 1312 
z
" transform="scale(0.015625)"/>
       </defs>
       <use xlink:href="#LatinModernMath-Regular-36" transform="translate(0 0.40625)"/>
       <use xlink:href="#LatinModernMath-Regular-30" transform="translate(49.999985 0.40625)"/>
       <use xlink:href="#LatinModernMath-Regular-30" transform="translate(99.999969 0.40625)"/>
      </g>
     </g>
    </g>
    <g id="ytick_5">
     <g id="line2d_26">
      <g>
       <use xlink:href="#mc947610920" x="56.68625" y="38.755852" style="fill: #1a1a1a; stroke: #1a1a1a; stroke-width: 0.8"/>
      </g>
     </g>
     <g id="text_10">
      <!-- $\mathdefault{800}$ -->
      <g style="fill: #1a1a1a" transform="translate(29.18625 43.961321) scale(0.15 -0.15)">
       <defs>
        <path id="LatinModernMath-Regular-38" d="M 2925 1075 
C 2925 1306 2854 1594 2611 1862 
C 2490 1997 2387 2061 1978 2317 
C 2438 2554 2752 2886 2752 3309 
C 2752 3898 2182 4262 1600 4262 
C 960 4262 442 3789 442 3194 
C 442 3078 454 2790 723 2490 
C 794 2413 1030 2253 1190 2144 
C 819 1958 269 1600 269 966 
C 269 288 922 -141 1594 -141 
C 2317 -141 2925 390 2925 1075 
z
M 2470 3309 
C 2470 2944 2221 2637 1837 2413 
L 1043 2925 
C 749 3117 723 3334 723 3443 
C 723 3834 1139 4102 1594 4102 
C 2061 4102 2470 3770 2470 3309 
z
M 2605 845 
C 2605 371 2125 38 1600 38 
C 1050 38 589 435 589 966 
C 589 1338 794 1747 1338 2048 
L 2125 1549 
C 2304 1427 2605 1235 2605 845 
z
" transform="scale(0.015625)"/>
       </defs>
       <use xlink:href="#LatinModernMath-Regular-38" transform="translate(0 0.40625)"/>
       <use xlink:href="#LatinModernMath-Regular-30" transform="translate(49.999985 0.40625)"/>
       <use xlink:href="#LatinModernMath-Regular-30" transform="translate(99.999969 0.40625)"/>
      </g>
     </g>
    </g>
    <g id="ytick_6">
     <g id="line2d_27">
      <defs>
       <path id="m5f9d1e6504" d="M 0 0 
L 3 0 
" style="stroke: #1a1a1a; stroke-width: 0.6"/>
      </defs>
      <g>
       <use xlink:href="#m5f9d1e6504" x="56.68625" y="217.072241" style="fill: #1a1a1a; stroke: #1a1a1a; stroke-width: 0.6"/>
      </g>
     </g>
    </g>
    <g id="ytick_7">
     <g id="line2d_28">
      <g>
       <use xlink:href="#m5f9d1e6504" x="56.68625" y="205.184481" style="fill: #1a1a1a; stroke: #1a1a1a; stroke-width: 0.6"/>
      </g>
     </g>
    </g>
    <g id="ytick_8">
     <g id="line2d_29">
      <g>
       <use xlink:href="#m5f9d1e6504" x="56.68625" y="193.296722" style="fill: #1a1a1a; stroke: #1a1a1a; stroke-width: 0.6"/>
      </g>
     </g>
    </g>
    <g id="ytick_9">
     <g id="line2d_30">
      <g>
       <use xlink:href="#m5f9d1e6504" x="56.68625" y="169.521204" style="fill: #1a1a1a; stroke: #1a1a1a; stroke-width: 0.6"/>
      </g>
     </g>
    </g>
    <g id="ytick_10">
     <g id="line2d_31">
      <g>
       <use xlink:href="#m5f9d1e6504" x="56.68625" y="157.633444" style="fill: #1a1a1a; stroke: #1a1a1a; stroke-width: 0.6"/>
      </g>
     </g>
    </g>
    <g id="ytick_11">
     <g id="line2d_32">
      <g>
       <use xlink:href="#m5f9d1e6504" x="56.68625" y="145.745685" style="fill: #1a1a1a; stroke: #1a1a1a; stroke-width: 0.6"/>
      </g>
     </g>
    </g>
    <g id="ytick_12">
     <g id="line2d_33">
      <g>
       <use xlink:href="#m5f9d1e6504" x="56.68625" y="121.970167" style="fill: #1a1a1a; stroke: #1a1a1a; stroke-width: 0.6"/>
      </g>
     </g>
    </g>
    <g id="ytick_13">
     <g id="line2d_34">
      <g>
       <use xlink:href="#m5f9d1e6504" x="56.68625" y="110.082407" style="fill: #1a1a1a; stroke: #1a1a1a; stroke-width: 0.6"/>
      </g>
     </g>
    </g>
    <g id="ytick_14">
     <g id="line2d_35">
      <g>
       <use xlink:href="#m5f9d1e6504" x="56.68625" y="98.194648" style="fill: #1a1a1a; stroke: #1a1a1a; stroke-width: 0.6"/>
      </g>
     </g>
    </g>
    <g id="ytick_15">
     <g id="line2d_36">
      <g>
       <use xlink:href="#m5f9d1e6504" x="56.68625" y="74.41913" style="fill: #1a1a1a; stroke: #1a1a1a; stroke-width: 0.6"/>
      </g>
     </g>
    </g>
    <g id="ytick_16">
     <g id="line2d_37">
      <g>
       <use xlink:href="#m5f9d1e6504" x="56.68625" y="62.53137" style="fill: #1a1a1a; stroke: #1a1a1a; stroke-width: 0.6"/>
      </g>
     </g>
    </g>
    <g id="ytick_17">
     <g id="line2d_38">
      <g>
       <use xlink:href="#m5f9d1e6504" x="56.68625" y="50.643611" style="fill: #1a1a1a; stroke: #1a1a1a; stroke-width: 0.6"/>
      </g>
     </g>
    </g>
    <g id="ytick_18">
     <g id="line2d_39">
      <g>
       <use xlink:href="#m5f9d1e6504" x="56.68625" y="26.868092" style="fill: #1a1a1a; stroke: #1a1a1a; stroke-width: 0.6"/>
      </g>
     </g>
    </g>
    <g id="ytick_19">
     <g id="line2d_40">
      <g>
       <use xlink:href="#m5f9d1e6504" x="56.68625" y="14.980333" style="fill: #1a1a1a; stroke: #1a1a1a; stroke-width: 0.6"/>
      </g>
     </g>
    </g>
    <g id="text_11">
     <!-- Entries -->
     <g style="fill: #1a1a1a" transform="translate(19.693125 146.286562) rotate(-90) scale(0.18 -0.18)">
      <defs>
       <path id="LatinModernMath-Regular-45" d="M 4173 1651 
L 4013 1651 
C 3853 666 3706 198 2605 198 
L 1754 198 
C 1453 198 1440 243 1440 454 
L 1440 2163 
L 2016 2163 
C 2637 2163 2707 1958 2707 1414 
L 2867 1414 
L 2867 3110 
L 2707 3110 
C 2707 2560 2637 2362 2016 2362 
L 1440 2362 
L 1440 3898 
C 1440 4109 1453 4154 1754 4154 
L 2579 4154 
C 3558 4154 3731 3802 3834 2912 
L 3994 2912 
L 3814 4352 
L 211 4352 
L 211 4154 
L 365 4154 
C 858 4154 870 4083 870 3853 
L 870 499 
C 870 269 858 198 365 198 
L 211 198 
L 211 0 
L 3904 0 
L 4173 1651 
z
" transform="scale(0.015625)"/>
       <path id="LatinModernMath-Regular-6e" d="M 3424 0 
L 3424 198 
C 3091 198 2931 198 2925 390 
L 2925 1613 
C 2925 2163 2925 2362 2726 2592 
C 2637 2701 2426 2829 2054 2829 
C 1587 2829 1286 2554 1107 2157 
L 1107 2829 
L 205 2758 
L 205 2560 
C 653 2560 704 2515 704 2202 
L 704 486 
C 704 198 634 198 205 198 
L 205 0 
L 928 19 
L 1645 0 
L 1645 198 
C 1216 198 1146 198 1146 486 
L 1146 1664 
C 1146 2330 1600 2688 2010 2688 
C 2413 2688 2483 2342 2483 1978 
L 2483 486 
C 2483 198 2413 198 1984 198 
L 1984 0 
L 2707 19 
L 3424 0 
z
" transform="scale(0.015625)"/>
       <path id="LatinModernMath-Regular-74" d="M 2125 794 
L 2125 1158 
L 1965 1158 
L 1965 806 
C 1965 333 1773 90 1536 90 
C 1107 90 1107 672 1107 781 
L 1107 2560 
L 2022 2560 
L 2022 2758 
L 1107 2758 
L 1107 3936 
L 947 3936 
C 941 3411 749 2726 122 2701 
L 122 2560 
L 666 2560 
L 666 794 
C 666 6 1261 -70 1491 -70 
C 1946 -70 2125 384 2125 794 
z
" transform="scale(0.015625)"/>
       <path id="LatinModernMath-Regular-73" d="M 2304 819 
C 2304 1158 2112 1350 2035 1427 
C 1824 1632 1574 1683 1306 1734 
C 947 1805 518 1888 518 2259 
C 518 2483 685 2746 1235 2746 
C 1939 2746 1971 2170 1984 1971 
C 1990 1914 2061 1914 2061 1914 
C 2144 1914 2144 1946 2144 2067 
L 2144 2714 
C 2144 2822 2144 2867 2074 2867 
C 2042 2867 2029 2867 1946 2790 
C 1926 2765 1862 2707 1837 2688 
C 1594 2867 1331 2867 1235 2867 
C 454 2867 211 2438 211 2080 
C 211 1856 314 1677 486 1536 
C 691 1370 870 1331 1331 1242 
C 1472 1216 1997 1114 1997 653 
C 1997 326 1773 70 1274 70 
C 736 70 506 435 384 979 
C 365 1062 358 1088 294 1088 
C 211 1088 211 1043 211 928 
L 211 83 
C 211 -26 211 -70 282 -70 
C 314 -70 320 -64 442 58 
C 454 70 454 83 570 205 
C 851 -64 1139 -70 1274 -70 
C 2010 -70 2304 358 2304 819 
z
" transform="scale(0.015625)"/>
      </defs>
      <use xlink:href="#LatinModernMath-Regular-45"/>
      <use xlink:href="#LatinModernMath-Regular-6e" x="68.099991"/>
      <use xlink:href="#LatinModernMath-Regular-74" x="123.699982"/>
      <use xlink:href="#LatinModernMath-Regular-72" x="162.599976"/>
      <use xlink:href="#LatinModernMath-Regular-69" x="201.799973"/>
      <use xlink:href="#LatinModernMath-Regular-65" x="229.59996"/>
      <use xlink:href="#LatinModernMath-Regular-73" x="273.999954"/>
     </g>
    </g>
   </g>
   <g id="legend_1">
    <g id="patch_9">
     <path d="M 335.7575 26.4 
L 359.7575 26.4 
L 359.7575 18 
L 335.7575 18 
L 335.7575 26.4 
z
" style="fill: none; stroke: #348abd; stroke-width: 1.2; stroke-linejoin: miter"/>
    </g>
    <g id="text_12">
     <!-- c1 -->
     <g style="fill: #1a1a1a" transform="translate(369.3575 26.4) scale(0.12 -0.12)">
      <defs>
       <path id="LatinModernMath-Regular-63" d="M 2656 762 
C 2656 826 2592 826 2573 826 
C 2515 826 2502 800 2490 762 
C 2304 166 1888 90 1651 90 
C 1312 90 749 365 749 1395 
C 749 2438 1274 2707 1613 2707 
C 1670 2707 2074 2701 2298 2470 
C 2035 2451 1997 2259 1997 2176 
C 1997 2010 2112 1882 2291 1882 
C 2458 1882 2586 1990 2586 2182 
C 2586 2618 2099 2867 1606 2867 
C 806 2867 218 2176 218 1382 
C 218 563 851 -70 1594 -70 
C 2451 -70 2656 698 2656 762 
z
" transform="scale(0.015625)"/>
      </defs>
      <use xlink:href="#LatinModernMath-Regular-63"/>
      <use xlink:href="#LatinModernMath-Regular-31" x="44.399994"/>
     </g>
    </g>
    <g id="patch_10">
     <path d="M 335.7575 43.12875 
L 359.7575 43.12875 
L 359.7575 34.72875 
L 335.7575 34.72875 
L 335.7575 43.12875 
z
" style="fill: none; stroke: #e24a33; stroke-width: 1.2; stroke-linejoin: miter"/>
    </g>
    <g id="text_13">
     <!-- c2 -->
     <g style="fill: #1a1a1a" transform="translate(369.3575 43.12875) scale(0.12 -0.12)">
      <use xlink:href="#LatinModernMath-Regular-63"/>
      <use xlink:href="#LatinModernMath-Regular-32" x="44.399994"/>
     </g>
    </g>
    <g id="LineCollection_2">
     <path d="M 347.7575 61.6575 
L 347.7575 49.6575 
" style="fill: none; stroke: #000000; stroke-width: 1.5"/>
    </g>
    <g id="line2d_41"/>
    <g id="line2d_42">
     <g>
      <use xlink:href="#meae5c0c399" x="347.7575" y="55.6575" style="stroke: #000000"/>
     </g>
    </g>
    <g id="text_14">
     <!-- c3 -->
     <g style="fill: #1a1a1a" transform="translate(369.3575 59.8575) scale(0.12 -0.12)">
      <defs>
       <path id="LatinModernMath-Regular-33" d="M 2925 1094 
C 2925 1619 2522 2118 1856 2253 
C 2381 2426 2752 2874 2752 3379 
C 2752 3904 2189 4262 1574 4262 
C 928 4262 442 3878 442 3392 
C 442 3181 582 3059 768 3059 
C 966 3059 1094 3200 1094 3386 
C 1094 3706 794 3706 698 3706 
C 896 4019 1318 4102 1549 4102 
C 1811 4102 2163 3962 2163 3386 
C 2163 3309 2150 2938 1984 2656 
C 1792 2349 1574 2330 1414 2323 
C 1363 2317 1210 2304 1165 2304 
C 1114 2298 1069 2291 1069 2227 
C 1069 2157 1114 2157 1222 2157 
L 1504 2157 
C 2029 2157 2266 1722 2266 1094 
C 2266 224 1824 38 1542 38 
C 1267 38 787 147 563 525 
C 787 493 986 634 986 877 
C 986 1107 813 1235 627 1235 
C 474 1235 269 1146 269 864 
C 269 282 864 -141 1562 -141 
C 2342 -141 2925 442 2925 1094 
z
" transform="scale(0.015625)"/>
      </defs>
      <use xlink:href="#LatinModernMath-Regular-63"/>
      <use xlink:href="#LatinModernMath-Regular-33" x="44.399994"/>
     </g>
    </g>
   </g>
  </g>
 </g>
 <defs>
  <clipPath id="pd5c7fad0d1">
   <rect x="56.68625" y="7.2" width="334.8" height="221.76"/>
  </clipPath>
 </defs>
</svg>
