<?xml version="1.0" encoding="utf-8" standalone="no"?>
<!DOCTYPE svg PUBLIC "-//W3C//DTD SVG 1.1//EN"
  "http://www.w3.org/Graphics/SVG/1.1/DTD/svg11.dtd">
<svg xmlns:xlink="http://www.w3.org/1999/xlink" width="409.861184pt" height="279.100625pt" viewBox="0 0 409.861184 279.100625" xmlns="http://www.w3.org/2000/svg" version="1.1">
 <metadata>
  <rdf:RDF xmlns:dc="http://purl.org/dc/elements/1.1/" xmlns:cc="http://creativecommons.org/ns#" xmlns:rdf="http://www.w3.org/1999/02/22-rdf-syntax-ns#">
   <cc:Work>
    <dc:type rdf:resource="http://purl.org/dc/dcmitype/StillImage"/>
    <dc:date>2023-07-12T17:53:40.021833</dc:date>
    <dc:format>image/svg+xml</dc:format>
    <dc:creator>
     <cc:Agent>
      <dc:title>Matplotlib v3.7.1, https://matplotlib.org/</dc:title>
     </cc:Agent>
    </dc:creator>
   </cc:Work>
  </rdf:RDF>
 </metadata>
 <defs>
  <style type="text/css">*{stroke-linejoin: round; stroke-linecap: butt}</style>
 </defs>
 <g id="figure_1">
  <g id="patch_1">
   <path d="M 0 279.100625 
L 409.861184 279.100625 
L 409.861184 0 
L 0 0 
z
" style="fill: #ffffff"/>
  </g>
  <g id="axes_1">
   <g id="patch_2">
    <path d="M 63.786719 228.96 
L 398.586719 228.96 
L 398.586719 7.2 
L 63.786719 7.2 
z
" style="fill: #ffffff"/>
   </g>
   <g id="patch_3">
    <path d="M 63.786719 228.96 
L 63.786719 228.396048 
L 70.482719 228.396048 
L 70.482719 228.678024 
L 77.178719 228.678024 
L 77.178719 228.396048 
L 83.874719 228.396048 
L 83.874719 227.268144 
L 90.570719 227.268144 
L 90.570719 226.422216 
L 97.266719 226.422216 
L 97.266719 222.192577 
L 103.962719 222.192577 
L 103.962719 221.910601 
L 110.658719 221.910601 
L 110.658719 213.169346 
L 117.354719 213.169346 
L 117.354719 206.965874 
L 124.050719 206.965874 
L 124.050719 187.509533 
L 130.746719 187.509533 
L 130.746719 179.614206 
L 137.442719 179.614206 
L 137.442719 151.698585 
L 144.138719 151.698585 
L 144.138719 125.756796 
L 150.834719 125.756796 
L 150.834719 109.120214 
L 157.530719 109.120214 
L 157.530719 72.463338 
L 164.226719 72.463338 
L 164.226719 42.009933 
L 170.922719 42.009933 
L 170.922719 29.039039 
L 177.618719 29.039039 
L 177.618719 17.76 
L 184.314719 17.76 
L 184.314719 18.887904 
L 191.010719 18.887904 
L 191.010719 18.041976 
L 197.706719 18.041976 
L 197.706719 36.370414 
L 204.402719 36.370414 
L 204.402719 45.393645 
L 211.098719 45.393645 
L 211.098719 53.288972 
L 217.794719 53.288972 
L 217.794719 79.512737 
L 224.490719 79.512737 
L 224.490719 113.631829 
L 231.186719 113.631829 
L 231.186719 116.733565 
L 237.882719 116.733565 
L 237.882719 131.396315 
L 244.578719 131.396315 
L 244.578719 135.907931 
L 251.274719 135.907931 
L 251.274719 159.593912 
L 257.970719 159.593912 
L 257.970719 164.387503 
L 264.666719 164.387503 
L 264.666719 174.538638 
L 271.362719 174.538638 
L 271.362719 177.358398 
L 278.058719 177.358398 
L 278.058719 186.381629 
L 284.754719 186.381629 
L 284.754719 193.99498 
L 291.450719 193.99498 
L 291.450719 206.401923 
L 298.146719 206.401923 
L 298.146719 209.503658 
L 304.842719 209.503658 
L 304.842719 218.526889 
L 311.538719 218.526889 
L 311.538719 220.500721 
L 318.234719 220.500721 
L 318.234719 224.448385 
L 324.930719 224.448385 
L 324.930719 225.858264 
L 331.626719 225.858264 
L 331.626719 227.268144 
L 338.322719 227.268144 
L 338.322719 228.678024 
L 345.018719 228.678024 
L 345.018719 228.114072 
L 351.714719 228.114072 
L 351.714719 228.678024 
L 358.410719 228.678024 
L 358.410719 228.678024 
L 365.106719 228.678024 
L 365.106719 228.96 
L 371.802719 228.96 
L 371.802719 228.96 
L 378.498719 228.96 
L 378.498719 228.678024 
L 385.194719 228.678024 
L 385.194719 228.96 
L 391.890719 228.96 
L 391.890719 228.96 
L 398.586719 228.96 
L 398.586719 228.96 
" clip-path="url(#p8e5fb9400a)" style="fill: none; stroke: #348abd; stroke-width: 1.2; stroke-linejoin: miter"/>
   </g>
   <g id="patch_4">
    <path d="M 63.786719 228.96 
L 63.786719 228.96 
L 70.482719 228.96 
L 70.482719 228.96 
L 77.178719 228.96 
L 77.178719 228.96 
L 83.874719 228.96 
L 83.874719 228.96 
L 90.570719 228.96 
L 90.570719 228.96 
L 97.266719 228.96 
L 97.266719 228.678024 
L 103.962719 228.678024 
L 103.962719 227.268144 
L 110.658719 227.268144 
L 110.658719 227.55012 
L 117.354719 227.55012 
L 117.354719 225.294312 
L 124.050719 225.294312 
L 124.050719 222.474553 
L 130.746719 222.474553 
L 130.746719 218.526889 
L 137.442719 218.526889 
L 137.442719 200.480427 
L 144.138719 200.480427 
L 144.138719 189.483364 
L 150.834719 189.483364 
L 150.834719 172.28283 
L 157.530719 172.28283 
L 157.530719 150.852657 
L 164.226719 150.852657 
L 164.226719 126.602724 
L 170.922719 126.602724 
L 170.922719 85.998184 
L 177.618719 85.998184 
L 177.618719 74.43717 
L 184.314719 74.43717 
L 184.314719 72.745314 
L 191.010719 72.745314 
L 191.010719 68.515674 
L 197.706719 68.515674 
L 197.706719 86.844112 
L 204.402719 86.844112 
L 204.402719 83.460401 
L 211.098719 83.460401 
L 211.098719 98.687103 
L 217.794719 98.687103 
L 217.794719 92.201656 
L 224.490719 92.201656 
L 224.490719 89.09992 
L 231.186719 89.09992 
L 231.186719 79.794713 
L 237.882719 79.794713 
L 237.882719 70.771482 
L 244.578719 70.771482 
L 244.578719 62.876155 
L 251.274719 62.876155 
L 251.274719 59.492443 
L 257.970719 59.492443 
L 257.970719 71.053458 
L 264.666719 71.053458 
L 264.666719 79.794713 
L 271.362719 79.794713 
L 271.362719 105.736502 
L 278.058719 105.736502 
L 278.058719 123.500988 
L 284.754719 123.500988 
L 284.754719 134.216075 
L 291.450719 134.216075 
L 291.450719 162.413672 
L 298.146719 162.413672 
L 298.146719 180.460134 
L 304.842719 180.460134 
L 304.842719 192.5851 
L 311.538719 192.5851 
L 311.538719 203.300187 
L 318.234719 203.300187 
L 318.234719 212.88737 
L 324.930719 212.88737 
L 324.930719 216.271081 
L 331.626719 216.271081 
L 331.626719 222.474553 
L 338.322719 222.474553 
L 338.322719 225.858264 
L 345.018719 225.858264 
L 345.018719 225.858264 
L 351.714719 225.858264 
L 351.714719 228.114072 
L 358.410719 228.114072 
L 358.410719 228.114072 
L 365.106719 228.114072 
L 365.106719 228.678024 
L 371.802719 228.678024 
L 371.802719 228.96 
L 378.498719 228.96 
L 378.498719 228.96 
L 385.194719 228.96 
L 385.194719 228.96 
L 391.890719 228.96 
L 391.890719 228.678024 
L 398.586719 228.678024 
L 398.586719 228.96 
" clip-path="url(#p8e5fb9400a)" style="fill: none; stroke: #e24a33; stroke-width: 1.2; stroke-linejoin: miter"/>
   </g>
   <g id="patch_5">
    <path d="M 63.786719 228.96 
L 63.786719 7.2 
" style="fill: none; stroke: #000000; stroke-linejoin: miter; stroke-linecap: square"/>
   </g>
   <g id="patch_6">
    <path d="M 398.586719 228.96 
L 398.586719 7.2 
" style="fill: none; stroke: #000000; stroke-linejoin: miter; stroke-linecap: square"/>
   </g>
   <g id="patch_7">
    <path d="M 63.786719 228.96 
L 398.586719 228.96 
" style="fill: none; stroke: #000000; stroke-linejoin: miter; stroke-linecap: square"/>
   </g>
   <g id="patch_8">
    <path d="M 63.786719 7.2 
L 398.586719 7.2 
" style="fill: none; stroke: #000000; stroke-linejoin: miter; stroke-linecap: square"/>
   </g>
   <g id="matplotlib.axis_1">
    <g id="xtick_1">
     <g id="line2d_1">
      <defs>
       <path id="m94bb5ca845" d="M 0 0 
L 0 -6 
" style="stroke: #1a1a1a; stroke-width: 0.8"/>
      </defs>
      <g>
       <use xlink:href="#m94bb5ca845" x="134.598754" y="228.96" style="fill: #1a1a1a; stroke: #1a1a1a; stroke-width: 0.8"/>
      </g>
     </g>
     <g id="text_1">
      <!-- $\mathdefault{−5}$ -->
      <g style="fill: #1a1a1a" transform="translate(123.498754 245.357656) scale(0.15 -0.15)">
       <defs>
        <path id="DejaVuSerif-2212" d="M 678 2259 
L 4684 2259 
L 4684 1753 
L 678 1753 
L 678 2259 
z
" transform="scale(0.015625)"/>
        <path id="DejaVuSerif-35" d="M 3219 4666 
L 3219 4153 
L 1081 4153 
L 1081 2816 
Q 1244 2928 1461 2984 
Q 1678 3041 1947 3041 
Q 2703 3041 3140 2622 
Q 3578 2203 3578 1478 
Q 3578 738 3136 323 
Q 2694 -91 1894 -91 
Q 1572 -91 1234 -12 
Q 897 66 544 225 
L 544 1131 
L 897 1131 
Q 925 688 1179 453 
Q 1434 219 1894 219 
Q 2388 219 2653 544 
Q 2919 869 2919 1478 
Q 2919 2084 2655 2407 
Q 2391 2731 1894 2731 
Q 1613 2731 1398 2631 
Q 1184 2531 1019 2322 
L 750 2322 
L 750 4666 
L 3219 4666 
z
" transform="scale(0.015625)"/>
       </defs>
       <use xlink:href="#DejaVuSerif-2212" transform="translate(0 0.09375)"/>
       <use xlink:href="#DejaVuSerif-35" transform="translate(83.789062 0.09375)"/>
      </g>
     </g>
    </g>
    <g id="xtick_2">
     <g id="line2d_2">
      <g>
       <use xlink:href="#m94bb5ca845" x="220.752898" y="228.96" style="fill: #1a1a1a; stroke: #1a1a1a; stroke-width: 0.8"/>
      </g>
     </g>
     <g id="text_2">
      <!-- $\mathdefault{0}$ -->
      <g style="fill: #1a1a1a" transform="translate(215.952898 245.357656) scale(0.15 -0.15)">
       <defs>
        <path id="DejaVuSerif-30" d="M 2034 219 
Q 2513 219 2750 744 
Q 2988 1269 2988 2328 
Q 2988 3391 2750 3916 
Q 2513 4441 2034 4441 
Q 1556 4441 1318 3916 
Q 1081 3391 1081 2328 
Q 1081 1269 1318 744 
Q 1556 219 2034 219 
z
M 2034 -91 
Q 1275 -91 848 546 
Q 422 1184 422 2328 
Q 422 3475 848 4112 
Q 1275 4750 2034 4750 
Q 2797 4750 3222 4112 
Q 3647 3475 3647 2328 
Q 3647 1184 3222 546 
Q 2797 -91 2034 -91 
z
" transform="scale(0.015625)"/>
       </defs>
       <use xlink:href="#DejaVuSerif-30" transform="translate(0 0.78125)"/>
      </g>
     </g>
    </g>
    <g id="xtick_3">
     <g id="line2d_3">
      <g>
       <use xlink:href="#m94bb5ca845" x="306.907041" y="228.96" style="fill: #1a1a1a; stroke: #1a1a1a; stroke-width: 0.8"/>
      </g>
     </g>
     <g id="text_3">
      <!-- $\mathdefault{5}$ -->
      <g style="fill: #1a1a1a" transform="translate(302.107041 245.357656) scale(0.15 -0.15)">
       <use xlink:href="#DejaVuSerif-35" transform="translate(0 0.09375)"/>
      </g>
     </g>
    </g>
    <g id="xtick_4">
     <g id="line2d_4">
      <g>
       <use xlink:href="#m94bb5ca845" x="393.061184" y="228.96" style="fill: #1a1a1a; stroke: #1a1a1a; stroke-width: 0.8"/>
      </g>
     </g>
     <g id="text_4">
      <!-- $\mathdefault{10}$ -->
      <g style="fill: #1a1a1a" transform="translate(383.461184 245.357656) scale(0.15 -0.15)">
       <defs>
        <path id="DejaVuSerif-31" d="M 909 0 
L 909 331 
L 1722 331 
L 1722 4213 
L 781 3603 
L 781 4013 
L 1919 4750 
L 2350 4750 
L 2350 331 
L 3163 331 
L 3163 0 
L 909 0 
z
" transform="scale(0.015625)"/>
       </defs>
       <use xlink:href="#DejaVuSerif-31" transform="translate(0 0.78125)"/>
       <use xlink:href="#DejaVuSerif-30" transform="translate(63.623047 0.78125)"/>
      </g>
     </g>
    </g>
    <g id="xtick_5">
     <g id="line2d_5">
      <defs>
       <path id="m6288d960af" d="M 0 0 
L 0 -3 
" style="stroke: #1a1a1a; stroke-width: 0.6"/>
      </defs>
      <g>
       <use xlink:href="#m6288d960af" x="65.675439" y="228.96" style="fill: #1a1a1a; stroke: #1a1a1a; stroke-width: 0.6"/>
      </g>
     </g>
    </g>
    <g id="xtick_6">
     <g id="line2d_6">
      <g>
       <use xlink:href="#m6288d960af" x="82.906268" y="228.96" style="fill: #1a1a1a; stroke: #1a1a1a; stroke-width: 0.6"/>
      </g>
     </g>
    </g>
    <g id="xtick_7">
     <g id="line2d_7">
      <g>
       <use xlink:href="#m6288d960af" x="100.137097" y="228.96" style="fill: #1a1a1a; stroke: #1a1a1a; stroke-width: 0.6"/>
      </g>
     </g>
    </g>
    <g id="xtick_8">
     <g id="line2d_8">
      <g>
       <use xlink:href="#m6288d960af" x="117.367925" y="228.96" style="fill: #1a1a1a; stroke: #1a1a1a; stroke-width: 0.6"/>
      </g>
     </g>
    </g>
    <g id="xtick_9">
     <g id="line2d_9">
      <g>
       <use xlink:href="#m6288d960af" x="151.829583" y="228.96" style="fill: #1a1a1a; stroke: #1a1a1a; stroke-width: 0.6"/>
      </g>
     </g>
    </g>
    <g id="xtick_10">
     <g id="line2d_10">
      <g>
       <use xlink:href="#m6288d960af" x="169.060411" y="228.96" style="fill: #1a1a1a; stroke: #1a1a1a; stroke-width: 0.6"/>
      </g>
     </g>
    </g>
    <g id="xtick_11">
     <g id="line2d_11">
      <g>
       <use xlink:href="#m6288d960af" x="186.29124" y="228.96" style="fill: #1a1a1a; stroke: #1a1a1a; stroke-width: 0.6"/>
      </g>
     </g>
    </g>
    <g id="xtick_12">
     <g id="line2d_12">
      <g>
       <use xlink:href="#m6288d960af" x="203.522069" y="228.96" style="fill: #1a1a1a; stroke: #1a1a1a; stroke-width: 0.6"/>
      </g>
     </g>
    </g>
    <g id="xtick_13">
     <g id="line2d_13">
      <g>
       <use xlink:href="#m6288d960af" x="237.983726" y="228.96" style="fill: #1a1a1a; stroke: #1a1a1a; stroke-width: 0.6"/>
      </g>
     </g>
    </g>
    <g id="xtick_14">
     <g id="line2d_14">
      <g>
       <use xlink:href="#m6288d960af" x="255.214555" y="228.96" style="fill: #1a1a1a; stroke: #1a1a1a; stroke-width: 0.6"/>
      </g>
     </g>
    </g>
    <g id="xtick_15">
     <g id="line2d_15">
      <g>
       <use xlink:href="#m6288d960af" x="272.445384" y="228.96" style="fill: #1a1a1a; stroke: #1a1a1a; stroke-width: 0.6"/>
      </g>
     </g>
    </g>
    <g id="xtick_16">
     <g id="line2d_16">
      <g>
       <use xlink:href="#m6288d960af" x="289.676212" y="228.96" style="fill: #1a1a1a; stroke: #1a1a1a; stroke-width: 0.6"/>
      </g>
     </g>
    </g>
    <g id="xtick_17">
     <g id="line2d_17">
      <g>
       <use xlink:href="#m6288d960af" x="324.13787" y="228.96" style="fill: #1a1a1a; stroke: #1a1a1a; stroke-width: 0.6"/>
      </g>
     </g>
    </g>
    <g id="xtick_18">
     <g id="line2d_18">
      <g>
       <use xlink:href="#m6288d960af" x="341.368698" y="228.96" style="fill: #1a1a1a; stroke: #1a1a1a; stroke-width: 0.6"/>
      </g>
     </g>
    </g>
    <g id="xtick_19">
     <g id="line2d_19">
      <g>
       <use xlink:href="#m6288d960af" x="358.599527" y="228.96" style="fill: #1a1a1a; stroke: #1a1a1a; stroke-width: 0.6"/>
      </g>
     </g>
    </g>
    <g id="xtick_20">
     <g id="line2d_20">
      <g>
       <use xlink:href="#m6288d960af" x="375.830356" y="228.96" style="fill: #1a1a1a; stroke: #1a1a1a; stroke-width: 0.6"/>
      </g>
     </g>
    </g>
    <g id="text_5">
     <!-- variable_1 -->
     <g style="fill: #1a1a1a" transform="translate(185.306641 267.774453) scale(0.175 -0.175)">
      <defs>
       <path id="DejaVuSerif-76" d="M 1581 0 
L 359 2988 
L -19 2988 
L -19 3322 
L 1509 3322 
L 1509 2988 
L 978 2988 
L 1913 703 
L 2847 2988 
L 2350 2988 
L 2350 3322 
L 3597 3322 
L 3597 2988 
L 3225 2988 
L 2003 0 
L 1581 0 
z
" transform="scale(0.015625)"/>
       <path id="DejaVuSerif-61" d="M 2547 1044 
L 2547 1747 
L 1806 1747 
Q 1378 1747 1168 1562 
Q 959 1378 959 997 
Q 959 650 1171 447 
Q 1384 244 1747 244 
Q 2106 244 2326 466 
Q 2547 688 2547 1044 
z
M 3122 2075 
L 3122 331 
L 3634 331 
L 3634 0 
L 2547 0 
L 2547 359 
Q 2356 128 2106 18 
Q 1856 -91 1522 -91 
Q 969 -91 644 203 
Q 319 497 319 997 
Q 319 1513 691 1797 
Q 1063 2081 1741 2081 
L 2547 2081 
L 2547 2309 
Q 2547 2688 2317 2895 
Q 2088 3103 1672 3103 
Q 1328 3103 1125 2947 
Q 922 2791 872 2484 
L 575 2484 
L 575 3156 
Q 875 3284 1158 3348 
Q 1441 3413 1709 3413 
Q 2400 3413 2761 3070 
Q 3122 2728 3122 2075 
z
" transform="scale(0.015625)"/>
       <path id="DejaVuSerif-72" d="M 3059 3328 
L 3059 2497 
L 2728 2497 
Q 2713 2744 2591 2866 
Q 2469 2988 2234 2988 
Q 1809 2988 1582 2694 
Q 1356 2400 1356 1850 
L 1356 331 
L 2022 331 
L 2022 0 
L 263 0 
L 263 331 
L 781 331 
L 781 2994 
L 231 2994 
L 231 3322 
L 1356 3322 
L 1356 2731 
Q 1525 3078 1790 3245 
Q 2056 3413 2438 3413 
Q 2578 3413 2733 3391 
Q 2888 3369 3059 3328 
z
" transform="scale(0.015625)"/>
       <path id="DejaVuSerif-69" d="M 622 4353 
Q 622 4497 726 4603 
Q 831 4709 978 4709 
Q 1122 4709 1226 4603 
Q 1331 4497 1331 4353 
Q 1331 4206 1228 4103 
Q 1125 4000 978 4000 
Q 831 4000 726 4103 
Q 622 4206 622 4353 
z
M 1356 331 
L 1900 331 
L 1900 0 
L 231 0 
L 231 331 
L 781 331 
L 781 2988 
L 231 2988 
L 231 3322 
L 1356 3322 
L 1356 331 
z
" transform="scale(0.015625)"/>
       <path id="DejaVuSerif-62" d="M 738 331 
L 738 4531 
L 184 4531 
L 184 4863 
L 1313 4863 
L 1313 2803 
Q 1481 3116 1742 3264 
Q 2003 3413 2388 3413 
Q 3000 3413 3387 2928 
Q 3775 2444 3775 1663 
Q 3775 881 3387 395 
Q 3000 -91 2388 -91 
Q 2003 -91 1742 57 
Q 1481 206 1313 519 
L 1313 0 
L 184 0 
L 184 331 
L 738 331 
z
M 1313 1497 
Q 1313 897 1542 583 
Q 1772 269 2209 269 
Q 2650 269 2876 622 
Q 3103 975 3103 1663 
Q 3103 2353 2876 2703 
Q 2650 3053 2209 3053 
Q 1772 3053 1542 2737 
Q 1313 2422 1313 1825 
L 1313 1497 
z
" transform="scale(0.015625)"/>
       <path id="DejaVuSerif-6c" d="M 1313 331 
L 1856 331 
L 1856 0 
L 184 0 
L 184 331 
L 738 331 
L 738 4531 
L 184 4531 
L 184 4863 
L 1313 4863 
L 1313 331 
z
" transform="scale(0.015625)"/>
       <path id="DejaVuSerif-65" d="M 3469 1600 
L 991 1600 
L 991 1575 
Q 991 903 1244 561 
Q 1497 219 1991 219 
Q 2369 219 2611 417 
Q 2853 616 2950 1006 
L 3413 1006 
Q 3275 459 2904 184 
Q 2534 -91 1931 -91 
Q 1203 -91 761 389 
Q 319 869 319 1663 
Q 319 2450 753 2931 
Q 1188 3413 1894 3413 
Q 2647 3413 3050 2948 
Q 3453 2484 3469 1600 
z
M 2791 1931 
Q 2772 2513 2545 2808 
Q 2319 3103 1894 3103 
Q 1497 3103 1269 2806 
Q 1041 2509 991 1931 
L 2791 1931 
z
" transform="scale(0.015625)"/>
       <path id="DejaVuSerif-5f" d="M 3200 -1259 
L 3200 -1509 
L 0 -1509 
L 0 -1259 
L 3200 -1259 
z
" transform="scale(0.015625)"/>
      </defs>
      <use xlink:href="#DejaVuSerif-76"/>
      <use xlink:href="#DejaVuSerif-61" x="56.494141"/>
      <use xlink:href="#DejaVuSerif-72" x="116.113281"/>
      <use xlink:href="#DejaVuSerif-69" x="163.916016"/>
      <use xlink:href="#DejaVuSerif-61" x="195.898438"/>
      <use xlink:href="#DejaVuSerif-62" x="255.517578"/>
      <use xlink:href="#DejaVuSerif-6c" x="319.53125"/>
      <use xlink:href="#DejaVuSerif-65" x="351.513672"/>
      <use xlink:href="#DejaVuSerif-5f" x="410.693359"/>
      <use xlink:href="#DejaVuSerif-31" x="460.693359"/>
     </g>
    </g>
   </g>
   <g id="matplotlib.axis_2">
    <g id="ytick_1">
     <g id="line2d_21">
      <defs>
       <path id="mc5b63ef2d2" d="M 0 0 
L 6 0 
" style="stroke: #1a1a1a; stroke-width: 0.8"/>
      </defs>
      <g>
       <use xlink:href="#mc5b63ef2d2" x="63.786719" y="228.96" style="fill: #1a1a1a; stroke: #1a1a1a; stroke-width: 0.8"/>
      </g>
     </g>
     <g id="text_6">
      <!-- $\mathdefault{0}$ -->
      <g style="fill: #1a1a1a" transform="translate(49.186719 234.658828) scale(0.15 -0.15)">
       <use xlink:href="#DejaVuSerif-30" transform="translate(0 0.78125)"/>
      </g>
     </g>
    </g>
    <g id="ytick_2">
     <g id="line2d_22">
      <g>
       <use xlink:href="#mc5b63ef2d2" x="63.786719" y="172.564806" style="fill: #1a1a1a; stroke: #1a1a1a; stroke-width: 0.8"/>
      </g>
     </g>
     <g id="text_7">
      <!-- $\mathdefault{200}$ -->
      <g style="fill: #1a1a1a" transform="translate(30.136719 178.263635) scale(0.15 -0.15)">
       <defs>
        <path id="DejaVuSerif-32" d="M 819 3553 
L 469 3553 
L 469 4384 
Q 803 4563 1142 4656 
Q 1481 4750 1806 4750 
Q 2534 4750 2956 4397 
Q 3378 4044 3378 3438 
Q 3378 2753 2422 1800 
Q 2347 1728 2309 1691 
L 1131 513 
L 3078 513 
L 3078 1088 
L 3444 1088 
L 3444 0 
L 434 0 
L 434 341 
L 1850 1753 
Q 2319 2222 2519 2614 
Q 2719 3006 2719 3438 
Q 2719 3909 2473 4175 
Q 2228 4441 1797 4441 
Q 1350 4441 1106 4219 
Q 863 3997 819 3553 
z
" transform="scale(0.015625)"/>
       </defs>
       <use xlink:href="#DejaVuSerif-32" transform="translate(0 0.78125)"/>
       <use xlink:href="#DejaVuSerif-30" transform="translate(63.623047 0.78125)"/>
       <use xlink:href="#DejaVuSerif-30" transform="translate(127.246094 0.78125)"/>
      </g>
     </g>
    </g>
    <g id="ytick_3">
     <g id="line2d_23">
      <g>
       <use xlink:href="#mc5b63ef2d2" x="63.786719" y="116.169613" style="fill: #1a1a1a; stroke: #1a1a1a; stroke-width: 0.8"/>
      </g>
     </g>
     <g id="text_8">
      <!-- $\mathdefault{400}$ -->
      <g style="fill: #1a1a1a" transform="translate(30.136719 121.868441) scale(0.15 -0.15)">
       <defs>
        <path id="DejaVuSerif-34" d="M 2234 1581 
L 2234 4063 
L 641 1581 
L 2234 1581 
z
M 3609 0 
L 1484 0 
L 1484 331 
L 2234 331 
L 2234 1247 
L 197 1247 
L 197 1588 
L 2241 4750 
L 2859 4750 
L 2859 1581 
L 3750 1581 
L 3750 1247 
L 2859 1247 
L 2859 331 
L 3609 331 
L 3609 0 
z
" transform="scale(0.015625)"/>
       </defs>
       <use xlink:href="#DejaVuSerif-34" transform="translate(0 0.78125)"/>
       <use xlink:href="#DejaVuSerif-30" transform="translate(63.623047 0.78125)"/>
       <use xlink:href="#DejaVuSerif-30" transform="translate(127.246094 0.78125)"/>
      </g>
     </g>
    </g>
    <g id="ytick_4">
     <g id="line2d_24">
      <g>
       <use xlink:href="#mc5b63ef2d2" x="63.786719" y="59.774419" style="fill: #1a1a1a; stroke: #1a1a1a; stroke-width: 0.8"/>
      </g>
     </g>
     <g id="text_9">
      <!-- $\mathdefault{600}$ -->
      <g style="fill: #1a1a1a" transform="translate(30.136719 65.473247) scale(0.15 -0.15)">
       <defs>
        <path id="DejaVuSerif-36" d="M 2094 219 
Q 2534 219 2771 542 
Q 3009 866 3009 1472 
Q 3009 2078 2771 2401 
Q 2534 2725 2094 2725 
Q 1647 2725 1412 2412 
Q 1178 2100 1178 1509 
Q 1178 888 1415 553 
Q 1653 219 2094 219 
z
M 1075 2569 
Q 1288 2803 1556 2918 
Q 1825 3034 2163 3034 
Q 2859 3034 3264 2615 
Q 3669 2197 3669 1472 
Q 3669 763 3233 336 
Q 2797 -91 2069 -91 
Q 1278 -91 853 498 
Q 428 1088 428 2181 
Q 428 3406 931 4078 
Q 1434 4750 2350 4750 
Q 2597 4750 2869 4703 
Q 3141 4656 3425 4563 
L 3425 3794 
L 3072 3794 
Q 3034 4109 2831 4275 
Q 2628 4441 2284 4441 
Q 1678 4441 1381 3981 
Q 1084 3522 1075 2569 
z
" transform="scale(0.015625)"/>
       </defs>
       <use xlink:href="#DejaVuSerif-36" transform="translate(0 0.78125)"/>
       <use xlink:href="#DejaVuSerif-30" transform="translate(63.623047 0.78125)"/>
       <use xlink:href="#DejaVuSerif-30" transform="translate(127.246094 0.78125)"/>
      </g>
     </g>
    </g>
    <g id="ytick_5">
     <g id="line2d_25">
      <defs>
       <path id="mc966f96065" d="M 0 0 
L 3 0 
" style="stroke: #1a1a1a; stroke-width: 0.6"/>
      </defs>
      <g>
       <use xlink:href="#mc966f96065" x="63.786719" y="214.861202" style="fill: #1a1a1a; stroke: #1a1a1a; stroke-width: 0.6"/>
      </g>
     </g>
    </g>
    <g id="ytick_6">
     <g id="line2d_26">
      <g>
       <use xlink:href="#mc966f96065" x="63.786719" y="200.762403" style="fill: #1a1a1a; stroke: #1a1a1a; stroke-width: 0.6"/>
      </g>
     </g>
    </g>
    <g id="ytick_7">
     <g id="line2d_27">
      <g>
       <use xlink:href="#mc966f96065" x="63.786719" y="186.663605" style="fill: #1a1a1a; stroke: #1a1a1a; stroke-width: 0.6"/>
      </g>
     </g>
    </g>
    <g id="ytick_8">
     <g id="line2d_28">
      <g>
       <use xlink:href="#mc966f96065" x="63.786719" y="158.466008" style="fill: #1a1a1a; stroke: #1a1a1a; stroke-width: 0.6"/>
      </g>
     </g>
    </g>
    <g id="ytick_9">
     <g id="line2d_29">
      <g>
       <use xlink:href="#mc966f96065" x="63.786719" y="144.36721" style="fill: #1a1a1a; stroke: #1a1a1a; stroke-width: 0.6"/>
      </g>
     </g>
    </g>
    <g id="ytick_10">
     <g id="line2d_30">
      <g>
       <use xlink:href="#mc966f96065" x="63.786719" y="130.268411" style="fill: #1a1a1a; stroke: #1a1a1a; stroke-width: 0.6"/>
      </g>
     </g>
    </g>
    <g id="ytick_11">
     <g id="line2d_31">
      <g>
       <use xlink:href="#mc966f96065" x="63.786719" y="102.070814" style="fill: #1a1a1a; stroke: #1a1a1a; stroke-width: 0.6"/>
      </g>
     </g>
    </g>
    <g id="ytick_12">
     <g id="line2d_32">
      <g>
       <use xlink:href="#mc966f96065" x="63.786719" y="87.972016" style="fill: #1a1a1a; stroke: #1a1a1a; stroke-width: 0.6"/>
      </g>
     </g>
    </g>
    <g id="ytick_13">
     <g id="line2d_33">
      <g>
       <use xlink:href="#mc966f96065" x="63.786719" y="73.873218" style="fill: #1a1a1a; stroke: #1a1a1a; stroke-width: 0.6"/>
      </g>
     </g>
    </g>
    <g id="ytick_14">
     <g id="line2d_34">
      <g>
       <use xlink:href="#mc966f96065" x="63.786719" y="45.675621" style="fill: #1a1a1a; stroke: #1a1a1a; stroke-width: 0.6"/>
      </g>
     </g>
    </g>
    <g id="ytick_15">
     <g id="line2d_35">
      <g>
       <use xlink:href="#mc966f96065" x="63.786719" y="31.576822" style="fill: #1a1a1a; stroke: #1a1a1a; stroke-width: 0.6"/>
      </g>
     </g>
    </g>
    <g id="ytick_16">
     <g id="line2d_36">
      <g>
       <use xlink:href="#mc966f96065" x="63.786719" y="17.478024" style="fill: #1a1a1a; stroke: #1a1a1a; stroke-width: 0.6"/>
      </g>
     </g>
    </g>
    <g id="text_10">
     <!-- Entries -->
     <g style="fill: #1a1a1a" transform="translate(20.497266 150.269062) rotate(-90) scale(0.175 -0.175)">
      <defs>
       <path id="DejaVuSerif-45" d="M 353 0 
L 353 331 
L 947 331 
L 947 4331 
L 353 4331 
L 353 4666 
L 4109 4666 
L 4109 3628 
L 3725 3628 
L 3725 4281 
L 1581 4281 
L 1581 2719 
L 3109 2719 
L 3109 3303 
L 3494 3303 
L 3494 1753 
L 3109 1753 
L 3109 2338 
L 1581 2338 
L 1581 384 
L 3775 384 
L 3775 1038 
L 4159 1038 
L 4159 0 
L 353 0 
z
" transform="scale(0.015625)"/>
       <path id="DejaVuSerif-6e" d="M 263 0 
L 263 331 
L 781 331 
L 781 2988 
L 231 2988 
L 231 3322 
L 1356 3322 
L 1356 2731 
Q 1516 3069 1770 3241 
Q 2025 3413 2363 3413 
Q 2913 3413 3172 3097 
Q 3431 2781 3431 2113 
L 3431 331 
L 3944 331 
L 3944 0 
L 2356 0 
L 2356 331 
L 2853 331 
L 2853 1931 
Q 2853 2541 2703 2767 
Q 2553 2994 2175 2994 
Q 1775 2994 1565 2701 
Q 1356 2409 1356 1850 
L 1356 331 
L 1856 331 
L 1856 0 
L 263 0 
z
" transform="scale(0.015625)"/>
       <path id="DejaVuSerif-74" d="M 691 2988 
L 184 2988 
L 184 3322 
L 691 3322 
L 691 4353 
L 1269 4353 
L 1269 3322 
L 2350 3322 
L 2350 2988 
L 1269 2988 
L 1269 878 
Q 1269 456 1350 337 
Q 1431 219 1650 219 
Q 1875 219 1978 351 
Q 2081 484 2088 781 
L 2522 781 
Q 2497 328 2275 118 
Q 2053 -91 1600 -91 
Q 1103 -91 897 129 
Q 691 350 691 878 
L 691 2988 
z
" transform="scale(0.015625)"/>
       <path id="DejaVuSerif-73" d="M 359 184 
L 359 959 
L 691 959 
Q 703 588 923 403 
Q 1144 219 1575 219 
Q 1963 219 2166 364 
Q 2369 509 2369 788 
Q 2369 1006 2220 1140 
Q 2072 1275 1594 1428 
L 1178 1569 
Q 750 1706 558 1912 
Q 366 2119 366 2438 
Q 366 2894 700 3153 
Q 1034 3413 1625 3413 
Q 1888 3413 2178 3344 
Q 2469 3275 2778 3144 
L 2778 2419 
L 2447 2419 
Q 2434 2741 2221 2922 
Q 2009 3103 1644 3103 
Q 1281 3103 1095 2975 
Q 909 2847 909 2591 
Q 909 2381 1050 2254 
Q 1191 2128 1613 1997 
L 2069 1856 
Q 2541 1709 2748 1489 
Q 2956 1269 2956 922 
Q 2956 450 2595 179 
Q 2234 -91 1600 -91 
Q 1278 -91 972 -22 
Q 666 47 359 184 
z
" transform="scale(0.015625)"/>
      </defs>
      <use xlink:href="#DejaVuSerif-45"/>
      <use xlink:href="#DejaVuSerif-6e" x="72.998047"/>
      <use xlink:href="#DejaVuSerif-74" x="137.402344"/>
      <use xlink:href="#DejaVuSerif-72" x="177.587891"/>
      <use xlink:href="#DejaVuSerif-69" x="225.390625"/>
      <use xlink:href="#DejaVuSerif-65" x="257.373047"/>
      <use xlink:href="#DejaVuSerif-73" x="316.552734"/>
     </g>
    </g>
   </g>
   <g id="legend_1">
    <g id="patch_9">
     <path d="M 339.831719 27.118125 
L 363.831719 27.118125 
L 363.831719 18.718125 
L 339.831719 18.718125 
L 339.831719 27.118125 
z
" style="fill: none; stroke: #348abd; stroke-width: 1.2; stroke-linejoin: miter"/>
    </g>
    <g id="text_11">
     <!-- c1 -->
     <g style="fill: #1a1a1a" transform="translate(373.431719 27.118125) scale(0.12 -0.12)">
      <defs>
       <path id="DejaVuSerif-63" d="M 3291 997 
Q 3169 466 2822 187 
Q 2475 -91 1925 -91 
Q 1200 -91 759 389 
Q 319 869 319 1663 
Q 319 2459 759 2936 
Q 1200 3413 1925 3413 
Q 2241 3413 2553 3339 
Q 2866 3266 3181 3116 
L 3181 2266 
L 2847 2266 
Q 2781 2703 2561 2903 
Q 2341 3103 1931 3103 
Q 1466 3103 1228 2742 
Q 991 2381 991 1663 
Q 991 944 1227 581 
Q 1463 219 1931 219 
Q 2303 219 2525 412 
Q 2747 606 2828 997 
L 3291 997 
z
" transform="scale(0.015625)"/>
      </defs>
      <use xlink:href="#DejaVuSerif-63"/>
      <use xlink:href="#DejaVuSerif-31" x="56.005859"/>
     </g>
    </g>
    <g id="patch_10">
     <path d="M 339.831719 44.731875 
L 363.831719 44.731875 
L 363.831719 36.331875 
L 339.831719 36.331875 
L 339.831719 44.731875 
z
" style="fill: none; stroke: #e24a33; stroke-width: 1.2; stroke-linejoin: miter"/>
    </g>
    <g id="text_12">
     <!-- c2 -->
     <g style="fill: #1a1a1a" transform="translate(373.431719 44.731875) scale(0.12 -0.12)">
      <use xlink:href="#DejaVuSerif-63"/>
      <use xlink:href="#DejaVuSerif-32" x="56.005859"/>
     </g>
    </g>
   </g>
  </g>
 </g>
 <defs>
  <clipPath id="p8e5fb9400a">
   <rect x="63.786719" y="7.2" width="334.8" height="221.76"/>
  </clipPath>
 </defs>
</svg>
