<?xml version="1.0" encoding="utf-8" standalone="no"?>
<!DOCTYPE svg PUBLIC "-//W3C//DTD SVG 1.1//EN"
  "http://www.w3.org/Graphics/SVG/1.1/DTD/svg11.dtd">
<svg xmlns:xlink="http://www.w3.org/1999/xlink" width="408.160716pt" height="279.468125pt" viewBox="0 0 408.160716 279.468125" xmlns="http://www.w3.org/2000/svg" version="1.1">
 <metadata>
  <rdf:RDF xmlns:dc="http://purl.org/dc/elements/1.1/" xmlns:cc="http://creativecommons.org/ns#" xmlns:rdf="http://www.w3.org/1999/02/22-rdf-syntax-ns#">
   <cc:Work>
    <dc:creator>
     <cc:Agent>
      <dc:title>カリビアンカフェ</dc:title>
     </cc:Agent>
    </dc:creator>
   </cc:Work>
  </rdf:RDF>
 </metadata>
 <defs>
  <style type="text/css">*{stroke-linejoin: round; stroke-linecap: butt}</style>
 </defs>
 <g id="figure_1">
  <g id="patch_1">
   <path d="M 0 279.468125 
L 408.160716 279.468125 
L 408.160716 0 
L 0 0 
z
" style="fill: #ffffff"/>
  </g>
  <g id="axes_1">
   <g id="patch_2">
    <path d="M 64.18625 228.96 
L 398.98625 228.96 
L 398.98625 7.2 
L 64.18625 7.2 
z
" style="fill: #ffffff"/>
   </g>
   <g id="patch_3">
    <path d="M 64.18625 228.639271 
L 64.18625 228.639271 
L 70.88225 228.639271 
L 70.88225 228.799636 
L 77.57825 228.799636 
L 77.57825 228.639271 
L 84.27425 228.639271 
L 84.27425 227.997813 
L 90.97025 227.997813 
L 90.97025 227.51672 
L 97.66625 227.51672 
L 97.66625 224.950888 
L 104.36225 224.950888 
L 104.36225 223.988702 
L 111.05825 223.988702 
L 111.05825 219.177768 
L 117.75425 219.177768 
L 117.75425 214.366834 
L 124.45025 214.366834 
L 124.45025 201.698041 
L 131.14625 201.698041 
L 131.14625 194.962733 
L 137.84225 194.962733 
L 137.84225 168.823326 
L 144.53825 168.823326 
L 144.53825 147.815581 
L 151.23425 147.815581 
L 151.23425 128.571845 
L 157.93025 128.571845 
L 157.93025 95.536765 
L 164.62625 95.536765 
L 164.62625 64.426059 
L 171.32225 64.426059 
L 171.32225 33.956811 
L 178.01825 33.956811 
L 178.01825 20.967289 
L 184.71425 20.967289 
L 184.71425 20.64656 
L 191.41025 20.64656 
L 191.41025 17.76 
L 198.10625 17.76 
L 198.10625 38.60738 
L 204.80225 38.60738 
L 204.80225 41.81467 
L 211.49825 41.81467 
L 211.49825 54.964556 
L 218.19425 54.964556 
L 218.19425 66.190068 
L 224.89025 66.190068 
L 224.89025 83.830159 
L 231.58625 83.830159 
L 231.58625 80.302141 
L 238.28225 80.302141 
L 238.28225 83.509431 
L 244.97825 83.509431 
L 244.97825 81.585057 
L 251.67425 81.585057 
L 251.67425 93.131298 
L 258.37025 93.131298 
L 258.37025 102.432437 
L 265.06625 102.432437 
L 265.06625 113.176856 
L 271.76225 113.176856 
L 271.76225 129.534032 
L 278.45825 129.534032 
L 278.45825 144.768656 
L 285.15425 144.768656 
L 285.15425 155.192346 
L 291.85025 155.192346 
L 291.85025 178.284829 
L 298.54625 178.284829 
L 298.54625 190.312164 
L 305.24225 190.312164 
L 305.24225 202.339499 
L 311.93825 202.339499 
L 311.93825 209.5559 
L 318.63425 209.5559 
L 318.63425 217.253394 
L 325.33025 217.253394 
L 325.33025 219.97959 
L 332.02625 219.97959 
L 332.02625 224.309431 
L 338.72225 224.309431 
L 338.72225 227.035626 
L 345.41825 227.035626 
L 345.41825 226.714897 
L 352.11425 226.714897 
L 352.11425 228.318542 
L 358.81025 228.318542 
L 358.81025 228.318542 
L 365.50625 228.318542 
L 365.50625 228.799636 
L 372.20225 228.799636 
L 372.20225 228.96 
L 378.89825 228.96 
L 378.89825 228.799636 
L 385.59425 228.799636 
L 385.59425 228.96 
L 392.29025 228.96 
L 392.29025 228.639271 
L 398.98625 228.639271 
L 398.98625 228.96 
L 392.29025 228.96 
L 392.29025 228.96 
L 385.59425 228.96 
L 385.59425 228.799636 
L 378.89825 228.799636 
L 378.89825 228.96 
L 372.20225 228.96 
L 372.20225 228.96 
L 365.50625 228.96 
L 365.50625 228.799636 
L 358.81025 228.799636 
L 358.81025 228.799636 
L 352.11425 228.799636 
L 352.11425 228.478907 
L 345.41825 228.478907 
L 345.41825 228.799636 
L 338.72225 228.799636 
L 338.72225 227.997813 
L 332.02625 227.997813 
L 332.02625 227.195991 
L 325.33025 227.195991 
L 325.33025 226.394169 
L 318.63425 226.394169 
L 318.63425 224.149066 
L 311.93825 224.149066 
L 311.93825 223.026515 
L 305.24225 223.026515 
L 305.24225 217.894852 
L 298.54625 217.894852 
L 298.54625 216.130843 
L 291.85025 216.130843 
L 291.85025 209.074806 
L 285.15425 209.074806 
L 285.15425 204.744966 
L 278.45825 204.744966 
L 278.45825 199.613303 
L 271.76225 199.613303 
L 271.76225 198.009658 
L 265.06625 198.009658 
L 265.06625 192.236538 
L 258.37025 192.236538 
L 258.37025 189.510342 
L 251.67425 189.510342 
L 251.67425 176.039727 
L 244.97825 176.039727 
L 244.97825 173.473895 
L 238.28225 173.473895 
L 238.28225 165.134943 
L 231.58625 165.134943 
L 231.58625 163.370934 
L 224.89025 163.370934 
L 224.89025 143.966834 
L 218.19425 143.966834 
L 218.19425 129.052938 
L 211.49825 129.052938 
L 211.49825 124.562733 
L 204.80225 124.562733 
L 204.80225 119.431071 
L 198.10625 119.431071 
L 198.10625 109.00738 
L 191.41025 109.00738 
L 191.41025 109.488474 
L 184.71425 109.488474 
L 184.71425 108.847016 
L 178.01825 108.847016 
L 178.01825 115.261595 
L 171.32225 115.261595 
L 171.32225 122.63836 
L 164.62625 122.63836 
L 164.62625 139.957722 
L 157.93025 139.957722 
L 157.93025 160.805103 
L 151.23425 160.805103 
L 151.23425 170.266606 
L 144.53825 170.266606 
L 144.53825 185.020137 
L 137.84225 185.020137 
L 137.84225 200.896219 
L 131.14625 200.896219 
L 131.14625 205.386424 
L 124.45025 205.386424 
L 124.45025 216.451572 
L 117.75425 216.451572 
L 117.75425 219.97959 
L 111.05825 219.97959 
L 111.05825 224.950888 
L 104.36225 224.950888 
L 104.36225 225.111253 
L 97.66625 225.111253 
L 97.66625 227.51672 
L 90.97025 227.51672 
L 90.97025 227.997813 
L 84.27425 227.997813 
L 84.27425 228.639271 
L 77.57825 228.639271 
L 77.57825 228.799636 
L 70.88225 228.799636 
L 70.88225 228.639271 
z
" clip-path="url(#pa72eb6dc0c)" style="fill: #e24a33; stroke: #000000; stroke-width: 0.5; stroke-linejoin: miter"/>
   </g>
   <g id="patch_4">
    <path d="M 64.18625 228.96 
L 64.18625 228.639271 
L 70.88225 228.639271 
L 70.88225 228.799636 
L 77.57825 228.799636 
L 77.57825 228.639271 
L 84.27425 228.639271 
L 84.27425 227.997813 
L 90.97025 227.997813 
L 90.97025 227.51672 
L 97.66625 227.51672 
L 97.66625 225.111253 
L 104.36225 225.111253 
L 104.36225 224.950888 
L 111.05825 224.950888 
L 111.05825 219.97959 
L 117.75425 219.97959 
L 117.75425 216.451572 
L 124.45025 216.451572 
L 124.45025 205.386424 
L 131.14625 205.386424 
L 131.14625 200.896219 
L 137.84225 200.896219 
L 137.84225 185.020137 
L 144.53825 185.020137 
L 144.53825 170.266606 
L 151.23425 170.266606 
L 151.23425 160.805103 
L 157.93025 160.805103 
L 157.93025 139.957722 
L 164.62625 139.957722 
L 164.62625 122.63836 
L 171.32225 122.63836 
L 171.32225 115.261595 
L 178.01825 115.261595 
L 178.01825 108.847016 
L 184.71425 108.847016 
L 184.71425 109.488474 
L 191.41025 109.488474 
L 191.41025 109.00738 
L 198.10625 109.00738 
L 198.10625 119.431071 
L 204.80225 119.431071 
L 204.80225 124.562733 
L 211.49825 124.562733 
L 211.49825 129.052938 
L 218.19425 129.052938 
L 218.19425 143.966834 
L 224.89025 143.966834 
L 224.89025 163.370934 
L 231.58625 163.370934 
L 231.58625 165.134943 
L 238.28225 165.134943 
L 238.28225 173.473895 
L 244.97825 173.473895 
L 244.97825 176.039727 
L 251.67425 176.039727 
L 251.67425 189.510342 
L 258.37025 189.510342 
L 258.37025 192.236538 
L 265.06625 192.236538 
L 265.06625 198.009658 
L 271.76225 198.009658 
L 271.76225 199.613303 
L 278.45825 199.613303 
L 278.45825 204.744966 
L 285.15425 204.744966 
L 285.15425 209.074806 
L 291.85025 209.074806 
L 291.85025 216.130843 
L 298.54625 216.130843 
L 298.54625 217.894852 
L 305.24225 217.894852 
L 305.24225 223.026515 
L 311.93825 223.026515 
L 311.93825 224.149066 
L 318.63425 224.149066 
L 318.63425 226.394169 
L 325.33025 226.394169 
L 325.33025 227.195991 
L 332.02625 227.195991 
L 332.02625 227.997813 
L 338.72225 227.997813 
L 338.72225 228.799636 
L 345.41825 228.799636 
L 345.41825 228.478907 
L 352.11425 228.478907 
L 352.11425 228.799636 
L 358.81025 228.799636 
L 358.81025 228.799636 
L 365.50625 228.799636 
L 365.50625 228.96 
L 372.20225 228.96 
L 372.20225 228.96 
L 378.89825 228.96 
L 378.89825 228.799636 
L 385.59425 228.799636 
L 385.59425 228.96 
L 392.29025 228.96 
L 392.29025 228.96 
L 398.98625 228.96 
L 398.98625 228.96 
L 392.29025 228.96 
L 392.29025 228.96 
L 385.59425 228.96 
L 385.59425 228.96 
L 378.89825 228.96 
L 378.89825 228.96 
L 372.20225 228.96 
L 372.20225 228.96 
L 365.50625 228.96 
L 365.50625 228.96 
L 358.81025 228.96 
L 358.81025 228.96 
L 352.11425 228.96 
L 352.11425 228.96 
L 345.41825 228.96 
L 345.41825 228.96 
L 338.72225 228.96 
L 338.72225 228.96 
L 332.02625 228.96 
L 332.02625 228.96 
L 325.33025 228.96 
L 325.33025 228.96 
L 318.63425 228.96 
L 318.63425 228.96 
L 311.93825 228.96 
L 311.93825 228.96 
L 305.24225 228.96 
L 305.24225 228.96 
L 298.54625 228.96 
L 298.54625 228.96 
L 291.85025 228.96 
L 291.85025 228.96 
L 285.15425 228.96 
L 285.15425 228.96 
L 278.45825 228.96 
L 278.45825 228.96 
L 271.76225 228.96 
L 271.76225 228.96 
L 265.06625 228.96 
L 265.06625 228.96 
L 258.37025 228.96 
L 258.37025 228.96 
L 251.67425 228.96 
L 251.67425 228.96 
L 244.97825 228.96 
L 244.97825 228.96 
L 238.28225 228.96 
L 238.28225 228.96 
L 231.58625 228.96 
L 231.58625 228.96 
L 224.89025 228.96 
L 224.89025 228.96 
L 218.19425 228.96 
L 218.19425 228.96 
L 211.49825 228.96 
L 211.49825 228.96 
L 204.80225 228.96 
L 204.80225 228.96 
L 198.10625 228.96 
L 198.10625 228.96 
L 191.41025 228.96 
L 191.41025 228.96 
L 184.71425 228.96 
L 184.71425 228.96 
L 178.01825 228.96 
L 178.01825 228.96 
L 171.32225 228.96 
L 171.32225 228.96 
L 164.62625 228.96 
L 164.62625 228.96 
L 157.93025 228.96 
L 157.93025 228.96 
L 151.23425 228.96 
L 151.23425 228.96 
L 144.53825 228.96 
L 144.53825 228.96 
L 137.84225 228.96 
L 137.84225 228.96 
L 131.14625 228.96 
L 131.14625 228.96 
L 124.45025 228.96 
L 124.45025 228.96 
L 117.75425 228.96 
L 117.75425 228.96 
L 111.05825 228.96 
L 111.05825 228.96 
L 104.36225 228.96 
L 104.36225 228.96 
L 97.66625 228.96 
L 97.66625 228.96 
L 90.97025 228.96 
L 90.97025 228.96 
L 84.27425 228.96 
L 84.27425 228.96 
L 77.57825 228.96 
L 77.57825 228.96 
L 70.88225 228.96 
L 70.88225 228.96 
z
" clip-path="url(#pa72eb6dc0c)" style="fill: #348abd; stroke: #000000; stroke-width: 0.5; stroke-linejoin: miter"/>
   </g>
   <g id="patch_5">
    <path d="M 64.18625 228.96 
L 64.18625 7.2 
" style="fill: none; stroke: #000000; stroke-linejoin: miter; stroke-linecap: square"/>
   </g>
   <g id="patch_6">
    <path d="M 398.98625 228.96 
L 398.98625 7.2 
" style="fill: none; stroke: #000000; stroke-linejoin: miter; stroke-linecap: square"/>
   </g>
   <g id="patch_7">
    <path d="M 64.18625 228.96 
L 398.98625 228.96 
" style="fill: none; stroke: #000000; stroke-linejoin: miter; stroke-linecap: square"/>
   </g>
   <g id="patch_8">
    <path d="M 64.18625 7.2 
L 398.98625 7.2 
" style="fill: none; stroke: #000000; stroke-linejoin: miter; stroke-linecap: square"/>
   </g>
   <g id="matplotlib.axis_1">
    <g id="xtick_1">
     <g id="line2d_1">
      <defs>
       <path id="m8dec1b3d1d" d="M 0 0 
L 0 -6 
" style="stroke: #1a1a1a; stroke-width: 0.8"/>
      </defs>
      <g>
       <use xlink:href="#m8dec1b3d1d" x="134.998285" y="228.96" style="fill: #1a1a1a; stroke: #1a1a1a; stroke-width: 0.8"/>
      </g>
     </g>
     <g id="text_1">
      <!-- $\mathdefault{−5}$ -->
      <g style="fill: #1a1a1a" transform="translate(125.398285 247.370937) scale(0.15 -0.15)">
       <defs>
        <path id="LatinModernMath-Regular-2212" d="M 4621 1600 
C 4621 1670 4563 1728 4493 1728 
L 486 1728 
C 416 1728 358 1670 358 1600 
C 358 1530 416 1472 486 1472 
L 4493 1472 
C 4563 1472 4621 1530 4621 1600 
z
" transform="scale(0.015625)"/>
        <path id="LatinModernMath-Regular-35" d="M 2874 1286 
C 2874 2048 2349 2688 1658 2688 
C 1350 2688 1075 2586 845 2362 
L 845 3610 
C 973 3571 1184 3526 1389 3526 
C 2176 3526 2624 4109 2624 4192 
C 2624 4230 2605 4262 2560 4262 
C 2560 4262 2541 4262 2509 4243 
C 2381 4186 2067 4058 1638 4058 
C 1382 4058 1088 4102 787 4237 
C 736 4256 710 4256 710 4256 
C 646 4256 646 4205 646 4102 
L 646 2208 
C 646 2093 646 2042 736 2042 
C 781 2042 794 2061 819 2099 
C 890 2202 1126 2547 1645 2547 
C 1978 2547 2138 2253 2189 2138 
C 2291 1901 2304 1651 2304 1331 
C 2304 1107 2304 723 2150 454 
C 1997 205 1760 38 1466 38 
C 998 38 634 378 525 755 
C 544 749 563 742 634 742 
C 845 742 954 902 954 1056 
C 954 1210 845 1370 634 1370 
C 544 1370 320 1325 320 1030 
C 320 480 762 -141 1478 -141 
C 2221 -141 2874 474 2874 1286 
z
" transform="scale(0.015625)"/>
       </defs>
       <use xlink:href="#LatinModernMath-Regular-2212" transform="translate(0 0.40625)"/>
       <use xlink:href="#LatinModernMath-Regular-35" transform="translate(77.799988 0.40625)"/>
      </g>
     </g>
    </g>
    <g id="xtick_2">
     <g id="line2d_2">
      <g>
       <use xlink:href="#m8dec1b3d1d" x="221.152429" y="228.96" style="fill: #1a1a1a; stroke: #1a1a1a; stroke-width: 0.8"/>
      </g>
     </g>
     <g id="text_2">
      <!-- $\mathdefault{0}$ -->
      <g style="fill: #1a1a1a" transform="translate(217.402429 247.370937) scale(0.15 -0.15)">
       <defs>
        <path id="LatinModernMath-Regular-30" d="M 2944 2048 
C 2944 2560 2912 3072 2688 3546 
C 2394 4160 1869 4262 1600 4262 
C 1216 4262 749 4096 486 3501 
C 282 3059 250 2560 250 2048 
C 250 1568 275 992 538 506 
C 813 -13 1280 -141 1594 -141 
C 1939 -141 2426 -6 2707 602 
C 2912 1043 2944 1542 2944 2048 
z
M 2413 2125 
C 2413 1645 2413 1210 2342 800 
C 2246 192 1882 0 1594 0 
C 1344 0 966 160 851 774 
C 781 1158 781 1747 781 2125 
C 781 2534 781 2957 832 3302 
C 954 4064 1434 4122 1594 4122 
C 1805 4122 2227 4006 2349 3373 
C 2413 3014 2413 2528 2413 2125 
z
" transform="scale(0.015625)"/>
       </defs>
       <use xlink:href="#LatinModernMath-Regular-30" transform="translate(0 0.40625)"/>
      </g>
     </g>
    </g>
    <g id="xtick_3">
     <g id="line2d_3">
      <g>
       <use xlink:href="#m8dec1b3d1d" x="307.306572" y="228.96" style="fill: #1a1a1a; stroke: #1a1a1a; stroke-width: 0.8"/>
      </g>
     </g>
     <g id="text_3">
      <!-- $\mathdefault{5}$ -->
      <g style="fill: #1a1a1a" transform="translate(303.556572 247.370937) scale(0.15 -0.15)">
       <use xlink:href="#LatinModernMath-Regular-35" transform="translate(0 0.40625)"/>
      </g>
     </g>
    </g>
    <g id="xtick_4">
     <g id="line2d_4">
      <g>
       <use xlink:href="#m8dec1b3d1d" x="393.460716" y="228.96" style="fill: #1a1a1a; stroke: #1a1a1a; stroke-width: 0.8"/>
      </g>
     </g>
     <g id="text_4">
      <!-- $\mathdefault{10}$ -->
      <g style="fill: #1a1a1a" transform="translate(385.960716 247.370937) scale(0.15 -0.15)">
       <defs>
        <path id="LatinModernMath-Regular-31" d="M 2682 0 
L 2682 198 
L 2477 198 
C 1901 198 1882 269 1882 506 
L 1882 4096 
C 1882 4250 1882 4262 1734 4262 
C 1338 3853 774 3853 570 3853 
L 570 3654 
C 698 3654 1075 3654 1408 3821 
L 1408 506 
C 1408 275 1389 198 813 198 
L 608 198 
L 608 0 
C 832 19 1389 19 1645 19 
C 1901 19 2458 19 2682 0 
z
" transform="scale(0.015625)"/>
       </defs>
       <use xlink:href="#LatinModernMath-Regular-31" transform="translate(0 0.40625)"/>
       <use xlink:href="#LatinModernMath-Regular-30" transform="translate(49.999985 0.40625)"/>
      </g>
     </g>
    </g>
    <g id="xtick_5">
     <g id="line2d_5">
      <defs>
       <path id="m131efc0c90" d="M 0 0 
L 0 -3 
" style="stroke: #1a1a1a; stroke-width: 0.6"/>
      </defs>
      <g>
       <use xlink:href="#m131efc0c90" x="66.074971" y="228.96" style="fill: #1a1a1a; stroke: #1a1a1a; stroke-width: 0.6"/>
      </g>
     </g>
    </g>
    <g id="xtick_6">
     <g id="line2d_6">
      <g>
       <use xlink:href="#m131efc0c90" x="83.305799" y="228.96" style="fill: #1a1a1a; stroke: #1a1a1a; stroke-width: 0.6"/>
      </g>
     </g>
    </g>
    <g id="xtick_7">
     <g id="line2d_7">
      <g>
       <use xlink:href="#m131efc0c90" x="100.536628" y="228.96" style="fill: #1a1a1a; stroke: #1a1a1a; stroke-width: 0.6"/>
      </g>
     </g>
    </g>
    <g id="xtick_8">
     <g id="line2d_8">
      <g>
       <use xlink:href="#m131efc0c90" x="117.767457" y="228.96" style="fill: #1a1a1a; stroke: #1a1a1a; stroke-width: 0.6"/>
      </g>
     </g>
    </g>
    <g id="xtick_9">
     <g id="line2d_9">
      <g>
       <use xlink:href="#m131efc0c90" x="152.229114" y="228.96" style="fill: #1a1a1a; stroke: #1a1a1a; stroke-width: 0.6"/>
      </g>
     </g>
    </g>
    <g id="xtick_10">
     <g id="line2d_10">
      <g>
       <use xlink:href="#m131efc0c90" x="169.459943" y="228.96" style="fill: #1a1a1a; stroke: #1a1a1a; stroke-width: 0.6"/>
      </g>
     </g>
    </g>
    <g id="xtick_11">
     <g id="line2d_11">
      <g>
       <use xlink:href="#m131efc0c90" x="186.690771" y="228.96" style="fill: #1a1a1a; stroke: #1a1a1a; stroke-width: 0.6"/>
      </g>
     </g>
    </g>
    <g id="xtick_12">
     <g id="line2d_12">
      <g>
       <use xlink:href="#m131efc0c90" x="203.9216" y="228.96" style="fill: #1a1a1a; stroke: #1a1a1a; stroke-width: 0.6"/>
      </g>
     </g>
    </g>
    <g id="xtick_13">
     <g id="line2d_13">
      <g>
       <use xlink:href="#m131efc0c90" x="238.383257" y="228.96" style="fill: #1a1a1a; stroke: #1a1a1a; stroke-width: 0.6"/>
      </g>
     </g>
    </g>
    <g id="xtick_14">
     <g id="line2d_14">
      <g>
       <use xlink:href="#m131efc0c90" x="255.614086" y="228.96" style="fill: #1a1a1a; stroke: #1a1a1a; stroke-width: 0.6"/>
      </g>
     </g>
    </g>
    <g id="xtick_15">
     <g id="line2d_15">
      <g>
       <use xlink:href="#m131efc0c90" x="272.844915" y="228.96" style="fill: #1a1a1a; stroke: #1a1a1a; stroke-width: 0.6"/>
      </g>
     </g>
    </g>
    <g id="xtick_16">
     <g id="line2d_16">
      <g>
       <use xlink:href="#m131efc0c90" x="290.075744" y="228.96" style="fill: #1a1a1a; stroke: #1a1a1a; stroke-width: 0.6"/>
      </g>
     </g>
    </g>
    <g id="xtick_17">
     <g id="line2d_17">
      <g>
       <use xlink:href="#m131efc0c90" x="324.537401" y="228.96" style="fill: #1a1a1a; stroke: #1a1a1a; stroke-width: 0.6"/>
      </g>
     </g>
    </g>
    <g id="xtick_18">
     <g id="line2d_18">
      <g>
       <use xlink:href="#m131efc0c90" x="341.76823" y="228.96" style="fill: #1a1a1a; stroke: #1a1a1a; stroke-width: 0.6"/>
      </g>
     </g>
    </g>
    <g id="xtick_19">
     <g id="line2d_19">
      <g>
       <use xlink:href="#m131efc0c90" x="358.999058" y="228.96" style="fill: #1a1a1a; stroke: #1a1a1a; stroke-width: 0.6"/>
      </g>
     </g>
    </g>
    <g id="xtick_20">
     <g id="line2d_20">
      <g>
       <use xlink:href="#m131efc0c90" x="376.229887" y="228.96" style="fill: #1a1a1a; stroke: #1a1a1a; stroke-width: 0.6"/>
      </g>
     </g>
    </g>
    <g id="text_5">
     <!-- variable_1 -->
     <g style="fill: #1a1a1a" transform="translate(192.806094 268.775) scale(0.18 -0.18)">
      <defs>
       <path id="LatinModernMath-Regular-76" d="M 3251 2560 
L 3251 2758 
C 3104 2746 2918 2739 2771 2739 
L 2214 2758 
L 2214 2560 
C 2451 2554 2522 2406 2522 2285 
C 2522 2227 2509 2202 2483 2131 
L 1830 499 
L 1114 2285 
C 1075 2368 1075 2394 1075 2394 
C 1075 2560 1325 2560 1440 2560 
L 1440 2758 
L 742 2739 
C 570 2739 314 2746 122 2758 
L 122 2560 
C 525 2560 550 2522 634 2323 
L 1555 51 
C 1594 -38 1606 -70 1690 -70 
C 1773 -70 1798 -13 1824 51 
L 2662 2131 
C 2720 2278 2829 2554 3251 2560 
z
" transform="scale(0.015625)"/>
       <path id="LatinModernMath-Regular-61" d="M 3091 570 
L 3091 928 
L 2931 928 
L 2931 570 
C 2931 198 2771 160 2701 160 
C 2490 160 2464 448 2464 480 
L 2464 1760 
C 2464 2029 2464 2278 2234 2515 
C 1984 2765 1664 2867 1357 2867 
C 832 2867 390 2566 390 2144 
C 390 1952 518 1843 685 1843 
C 864 1843 979 1971 979 2138 
C 979 2214 947 2426 653 2432 
C 826 2656 1139 2726 1344 2726 
C 1658 2726 2022 2477 2022 1907 
L 2022 1670 
C 1696 1651 1248 1632 845 1440 
C 365 1222 205 890 205 608 
C 205 90 826 -70 1229 -70 
C 1651 -70 1946 186 2067 486 
C 2093 230 2266 -38 2566 -38 
C 2701 -38 3091 51 3091 570 
z
M 2022 896 
C 2022 288 1562 70 1274 70 
C 960 70 698 294 698 614 
C 698 966 966 1498 2022 1536 
L 2022 896 
z
" transform="scale(0.015625)"/>
       <path id="LatinModernMath-Regular-72" d="M 2330 2438 
C 2330 2643 2131 2829 1856 2829 
C 1389 2829 1158 2400 1069 2125 
L 1069 2829 
L 179 2758 
L 179 2560 
C 627 2560 678 2515 678 2202 
L 678 486 
C 678 198 608 198 179 198 
L 179 0 
L 909 19 
C 1165 19 1466 19 1722 0 
L 1722 198 
L 1587 198 
C 1114 198 1101 269 1101 499 
L 1101 1485 
C 1101 2118 1370 2688 1856 2688 
C 1901 2688 1914 2688 1926 2682 
C 1907 2675 1779 2598 1779 2432 
C 1779 2253 1914 2157 2054 2157 
C 2170 2157 2330 2234 2330 2438 
z
" transform="scale(0.015625)"/>
       <path id="LatinModernMath-Regular-69" d="M 1581 0 
L 1581 198 
C 1158 198 1133 230 1133 480 
L 1133 2829 
L 237 2758 
L 237 2560 
C 653 2560 710 2522 710 2208 
L 710 486 
C 710 198 640 198 211 198 
L 211 0 
L 915 19 
C 1139 19 1363 6 1581 0 
z
M 1229 3866 
C 1229 4038 1082 4205 890 4205 
C 672 4205 544 4026 544 3866 
C 544 3693 691 3526 883 3526 
C 1101 3526 1229 3706 1229 3866 
z
" transform="scale(0.015625)"/>
       <path id="LatinModernMath-Regular-62" d="M 3334 1382 
C 3334 2195 2707 2829 1978 2829 
C 1478 2829 1203 2528 1101 2413 
L 1101 4442 
L 179 4371 
L 179 4173 
C 627 4173 678 4128 678 3814 
L 678 0 
L 838 0 
L 1069 397 
C 1165 250 1434 -70 1907 -70 
C 2669 -70 3334 557 3334 1382 
z
M 2803 1389 
C 2803 1152 2790 768 2605 480 
C 2470 282 2227 70 1882 70 
C 1594 70 1363 224 1210 461 
C 1120 595 1120 614 1120 730 
L 1120 2048 
C 1120 2170 1120 2176 1190 2278 
C 1440 2637 1792 2688 1946 2688 
C 2234 2688 2464 2522 2618 2278 
C 2784 2016 2803 1651 2803 1389 
z
" transform="scale(0.015625)"/>
       <path id="LatinModernMath-Regular-6c" d="M 1632 0 
L 1632 198 
C 1203 198 1133 198 1133 486 
L 1133 4442 
L 211 4371 
L 211 4173 
C 659 4173 710 4128 710 3814 
L 710 486 
C 710 198 640 198 211 198 
L 211 0 
L 922 19 
L 1632 0 
z
" transform="scale(0.015625)"/>
       <path id="LatinModernMath-Regular-65" d="M 2656 762 
C 2656 826 2605 838 2573 838 
C 2515 838 2502 800 2490 749 
C 2266 90 1690 90 1626 90 
C 1306 90 1050 282 902 518 
C 710 826 710 1248 710 1478 
L 2496 1478 
C 2637 1478 2656 1478 2656 1613 
C 2656 2246 2310 2867 1510 2867 
C 768 2867 179 2208 179 1408 
C 179 550 851 -70 1587 -70 
C 2368 -70 2656 640 2656 762 
z
M 2234 1613 
L 717 1613 
C 755 2566 1293 2726 1510 2726 
C 2170 2726 2234 1862 2234 1613 
z
" transform="scale(0.015625)"/>
       <path id="LatinModernMath-Regular-5f" d="M 2131 -896 
L 2131 -640 
L 0 -640 
L 0 -896 
L 2131 -896 
z
" transform="scale(0.015625)"/>
      </defs>
      <use xlink:href="#LatinModernMath-Regular-76"/>
      <use xlink:href="#LatinModernMath-Regular-61" transform="translate(52.799988 0)"/>
      <use xlink:href="#LatinModernMath-Regular-72" transform="translate(102.799973 0)"/>
      <use xlink:href="#LatinModernMath-Regular-69" transform="translate(141.999969 0)"/>
      <use xlink:href="#LatinModernMath-Regular-61" transform="translate(169.799957 0)"/>
      <use xlink:href="#LatinModernMath-Regular-62" transform="translate(219.799942 0)"/>
      <use xlink:href="#LatinModernMath-Regular-6c" transform="translate(275.399933 0)"/>
      <use xlink:href="#LatinModernMath-Regular-65" transform="translate(303.199921 0)"/>
      <use xlink:href="#LatinModernMath-Regular-5f" transform="translate(347.599915 0)"/>
      <use xlink:href="#LatinModernMath-Regular-31" transform="translate(380.899902 0)"/>
     </g>
    </g>
   </g>
   <g id="matplotlib.axis_2">
    <g id="ytick_1">
     <g id="line2d_21">
      <defs>
       <path id="mc947610920" d="M 0 0 
L 6 0 
" style="stroke: #1a1a1a; stroke-width: 0.8"/>
      </defs>
      <g>
       <use xlink:href="#mc947610920" x="64.18625" y="228.96" style="fill: #1a1a1a; stroke: #1a1a1a; stroke-width: 0.8"/>
      </g>
     </g>
     <g id="text_6">
      <!-- $\mathdefault{0}$ -->
      <g style="fill: #1a1a1a" transform="translate(51.68625 234.165469) scale(0.15 -0.15)">
       <use xlink:href="#LatinModernMath-Regular-30" transform="translate(0 0.40625)"/>
      </g>
     </g>
    </g>
    <g id="ytick_2">
     <g id="line2d_22">
      <g>
       <use xlink:href="#mc947610920" x="64.18625" y="196.887107" style="fill: #1a1a1a; stroke: #1a1a1a; stroke-width: 0.8"/>
      </g>
     </g>
     <g id="text_7">
      <!-- $\mathdefault{200}$ -->
      <g style="fill: #1a1a1a" transform="translate(36.68625 202.092576) scale(0.15 -0.15)">
       <defs>
        <path id="LatinModernMath-Regular-32" d="M 2874 1114 
L 2714 1114 
C 2682 922 2637 640 2573 544 
C 2528 493 2106 493 1965 493 
L 813 493 
L 1491 1152 
C 2490 2035 2874 2381 2874 3021 
C 2874 3750 2298 4262 1517 4262 
C 794 4262 320 3674 320 3104 
C 320 2746 640 2746 659 2746 
C 768 2746 992 2822 992 3085 
C 992 3251 877 3418 653 3418 
C 602 3418 589 3418 570 3411 
C 717 3827 1062 4064 1434 4064 
C 2016 4064 2291 3546 2291 3021 
C 2291 2509 1971 2003 1619 1606 
L 390 237 
C 320 166 320 154 320 0 
L 2694 0 
L 2874 1114 
z
" transform="scale(0.015625)"/>
       </defs>
       <use xlink:href="#LatinModernMath-Regular-32" transform="translate(0 0.40625)"/>
       <use xlink:href="#LatinModernMath-Regular-30" transform="translate(49.999985 0.40625)"/>
       <use xlink:href="#LatinModernMath-Regular-30" transform="translate(99.999969 0.40625)"/>
      </g>
     </g>
    </g>
    <g id="ytick_3">
     <g id="line2d_23">
      <g>
       <use xlink:href="#mc947610920" x="64.18625" y="164.814214" style="fill: #1a1a1a; stroke: #1a1a1a; stroke-width: 0.8"/>
      </g>
     </g>
     <g id="text_8">
      <!-- $\mathdefault{400}$ -->
      <g style="fill: #1a1a1a" transform="translate(36.68625 170.019683) scale(0.15 -0.15)">
       <defs>
        <path id="LatinModernMath-Regular-34" d="M 3014 1056 
L 3014 1254 
L 2374 1254 
L 2374 4166 
C 2374 4294 2374 4333 2272 4333 
C 2214 4333 2195 4333 2144 4256 
L 179 1254 
L 179 1056 
L 1882 1056 
L 1882 499 
C 1882 269 1869 198 1395 198 
L 1261 198 
L 1261 0 
C 1523 19 1856 19 2125 19 
C 2394 19 2733 19 2995 0 
L 2995 198 
L 2861 198 
C 2387 198 2374 269 2374 499 
L 2374 1056 
L 3014 1056 
z
M 1920 1254 
L 358 1254 
L 1920 3642 
L 1920 1254 
z
" transform="scale(0.015625)"/>
       </defs>
       <use xlink:href="#LatinModernMath-Regular-34" transform="translate(0 0.296875)"/>
       <use xlink:href="#LatinModernMath-Regular-30" transform="translate(49.999985 0.296875)"/>
       <use xlink:href="#LatinModernMath-Regular-30" transform="translate(99.999969 0.296875)"/>
      </g>
     </g>
    </g>
    <g id="ytick_4">
     <g id="line2d_24">
      <g>
       <use xlink:href="#mc947610920" x="64.18625" y="132.741321" style="fill: #1a1a1a; stroke: #1a1a1a; stroke-width: 0.8"/>
      </g>
     </g>
     <g id="text_9">
      <!-- $\mathdefault{600}$ -->
      <g style="fill: #1a1a1a" transform="translate(36.68625 137.94679) scale(0.15 -0.15)">
       <defs>
        <path id="LatinModernMath-Regular-36" d="M 2925 1306 
C 2925 2118 2355 2733 1645 2733 
C 1210 2733 973 2406 845 2099 
L 845 2253 
C 845 3872 1638 4102 1965 4102 
C 2118 4102 2387 4064 2528 3846 
C 2432 3846 2176 3846 2176 3558 
C 2176 3360 2330 3264 2470 3264 
C 2573 3264 2765 3322 2765 3571 
C 2765 3955 2483 4262 1952 4262 
C 1133 4262 269 3437 269 2022 
C 269 314 1011 -141 1606 -141 
C 2317 -141 2925 461 2925 1306 
z
M 2349 1312 
C 2349 1005 2349 685 2240 454 
C 2048 70 1754 38 1606 38 
C 1203 38 1011 422 973 518 
C 858 819 858 1331 858 1446 
C 858 1946 1062 2586 1638 2586 
C 1741 2586 2035 2586 2234 2189 
C 2349 1952 2349 1626 2349 1312 
z
" transform="scale(0.015625)"/>
       </defs>
       <use xlink:href="#LatinModernMath-Regular-36" transform="translate(0 0.40625)"/>
       <use xlink:href="#LatinModernMath-Regular-30" transform="translate(49.999985 0.40625)"/>
       <use xlink:href="#LatinModernMath-Regular-30" transform="translate(99.999969 0.40625)"/>
      </g>
     </g>
    </g>
    <g id="ytick_5">
     <g id="line2d_25">
      <g>
       <use xlink:href="#mc947610920" x="64.18625" y="100.668428" style="fill: #1a1a1a; stroke: #1a1a1a; stroke-width: 0.8"/>
      </g>
     </g>
     <g id="text_10">
      <!-- $\mathdefault{800}$ -->
      <g style="fill: #1a1a1a" transform="translate(36.68625 105.873897) scale(0.15 -0.15)">
       <defs>
        <path id="LatinModernMath-Regular-38" d="M 2925 1075 
C 2925 1306 2854 1594 2611 1862 
C 2490 1997 2387 2061 1978 2317 
C 2438 2554 2752 2886 2752 3309 
C 2752 3898 2182 4262 1600 4262 
C 960 4262 442 3789 442 3194 
C 442 3078 454 2790 723 2490 
C 794 2413 1030 2253 1190 2144 
C 819 1958 269 1600 269 966 
C 269 288 922 -141 1594 -141 
C 2317 -141 2925 390 2925 1075 
z
M 2470 3309 
C 2470 2944 2221 2637 1837 2413 
L 1043 2925 
C 749 3117 723 3334 723 3443 
C 723 3834 1139 4102 1594 4102 
C 2061 4102 2470 3770 2470 3309 
z
M 2605 845 
C 2605 371 2125 38 1600 38 
C 1050 38 589 435 589 966 
C 589 1338 794 1747 1338 2048 
L 2125 1549 
C 2304 1427 2605 1235 2605 845 
z
" transform="scale(0.015625)"/>
       </defs>
       <use xlink:href="#LatinModernMath-Regular-38" transform="translate(0 0.40625)"/>
       <use xlink:href="#LatinModernMath-Regular-30" transform="translate(49.999985 0.40625)"/>
       <use xlink:href="#LatinModernMath-Regular-30" transform="translate(99.999969 0.40625)"/>
      </g>
     </g>
    </g>
    <g id="ytick_6">
     <g id="line2d_26">
      <g>
       <use xlink:href="#mc947610920" x="64.18625" y="68.595535" style="fill: #1a1a1a; stroke: #1a1a1a; stroke-width: 0.8"/>
      </g>
     </g>
     <g id="text_11">
      <!-- $\mathdefault{1000}$ -->
      <g style="fill: #1a1a1a" transform="translate(29.18625 73.801004) scale(0.15 -0.15)">
       <use xlink:href="#LatinModernMath-Regular-31" transform="translate(0 0.40625)"/>
       <use xlink:href="#LatinModernMath-Regular-30" transform="translate(49.999985 0.40625)"/>
       <use xlink:href="#LatinModernMath-Regular-30" transform="translate(99.999969 0.40625)"/>
       <use xlink:href="#LatinModernMath-Regular-30" transform="translate(149.999954 0.40625)"/>
      </g>
     </g>
    </g>
    <g id="ytick_7">
     <g id="line2d_27">
      <g>
       <use xlink:href="#mc947610920" x="64.18625" y="36.522642" style="fill: #1a1a1a; stroke: #1a1a1a; stroke-width: 0.8"/>
      </g>
     </g>
     <g id="text_12">
      <!-- $\mathdefault{1200}$ -->
      <g style="fill: #1a1a1a" transform="translate(29.18625 41.728111) scale(0.15 -0.15)">
       <use xlink:href="#LatinModernMath-Regular-31" transform="translate(0 0.40625)"/>
       <use xlink:href="#LatinModernMath-Regular-32" transform="translate(49.999985 0.40625)"/>
       <use xlink:href="#LatinModernMath-Regular-30" transform="translate(99.999969 0.40625)"/>
       <use xlink:href="#LatinModernMath-Regular-30" transform="translate(149.999954 0.40625)"/>
      </g>
     </g>
    </g>
    <g id="ytick_8">
     <g id="line2d_28">
      <defs>
       <path id="m5f9d1e6504" d="M 0 0 
L 3 0 
" style="stroke: #1a1a1a; stroke-width: 0.6"/>
      </defs>
      <g>
       <use xlink:href="#m5f9d1e6504" x="64.18625" y="220.941777" style="fill: #1a1a1a; stroke: #1a1a1a; stroke-width: 0.6"/>
      </g>
     </g>
    </g>
    <g id="ytick_9">
     <g id="line2d_29">
      <g>
       <use xlink:href="#m5f9d1e6504" x="64.18625" y="212.923554" style="fill: #1a1a1a; stroke: #1a1a1a; stroke-width: 0.6"/>
      </g>
     </g>
    </g>
    <g id="ytick_10">
     <g id="line2d_30">
      <g>
       <use xlink:href="#m5f9d1e6504" x="64.18625" y="204.90533" style="fill: #1a1a1a; stroke: #1a1a1a; stroke-width: 0.6"/>
      </g>
     </g>
    </g>
    <g id="ytick_11">
     <g id="line2d_31">
      <g>
       <use xlink:href="#m5f9d1e6504" x="64.18625" y="188.868884" style="fill: #1a1a1a; stroke: #1a1a1a; stroke-width: 0.6"/>
      </g>
     </g>
    </g>
    <g id="ytick_12">
     <g id="line2d_32">
      <g>
       <use xlink:href="#m5f9d1e6504" x="64.18625" y="180.850661" style="fill: #1a1a1a; stroke: #1a1a1a; stroke-width: 0.6"/>
      </g>
     </g>
    </g>
    <g id="ytick_13">
     <g id="line2d_33">
      <g>
       <use xlink:href="#m5f9d1e6504" x="64.18625" y="172.832437" style="fill: #1a1a1a; stroke: #1a1a1a; stroke-width: 0.6"/>
      </g>
     </g>
    </g>
    <g id="ytick_14">
     <g id="line2d_34">
      <g>
       <use xlink:href="#m5f9d1e6504" x="64.18625" y="156.795991" style="fill: #1a1a1a; stroke: #1a1a1a; stroke-width: 0.6"/>
      </g>
     </g>
    </g>
    <g id="ytick_15">
     <g id="line2d_35">
      <g>
       <use xlink:href="#m5f9d1e6504" x="64.18625" y="148.777768" style="fill: #1a1a1a; stroke: #1a1a1a; stroke-width: 0.6"/>
      </g>
     </g>
    </g>
    <g id="ytick_16">
     <g id="line2d_36">
      <g>
       <use xlink:href="#m5f9d1e6504" x="64.18625" y="140.759544" style="fill: #1a1a1a; stroke: #1a1a1a; stroke-width: 0.6"/>
      </g>
     </g>
    </g>
    <g id="ytick_17">
     <g id="line2d_37">
      <g>
       <use xlink:href="#m5f9d1e6504" x="64.18625" y="124.723098" style="fill: #1a1a1a; stroke: #1a1a1a; stroke-width: 0.6"/>
      </g>
     </g>
    </g>
    <g id="ytick_18">
     <g id="line2d_38">
      <g>
       <use xlink:href="#m5f9d1e6504" x="64.18625" y="116.704875" style="fill: #1a1a1a; stroke: #1a1a1a; stroke-width: 0.6"/>
      </g>
     </g>
    </g>
    <g id="ytick_19">
     <g id="line2d_39">
      <g>
       <use xlink:href="#m5f9d1e6504" x="64.18625" y="108.686651" style="fill: #1a1a1a; stroke: #1a1a1a; stroke-width: 0.6"/>
      </g>
     </g>
    </g>
    <g id="ytick_20">
     <g id="line2d_40">
      <g>
       <use xlink:href="#m5f9d1e6504" x="64.18625" y="92.650205" style="fill: #1a1a1a; stroke: #1a1a1a; stroke-width: 0.6"/>
      </g>
     </g>
    </g>
    <g id="ytick_21">
     <g id="line2d_41">
      <g>
       <use xlink:href="#m5f9d1e6504" x="64.18625" y="84.631982" style="fill: #1a1a1a; stroke: #1a1a1a; stroke-width: 0.6"/>
      </g>
     </g>
    </g>
    <g id="ytick_22">
     <g id="line2d_42">
      <g>
       <use xlink:href="#m5f9d1e6504" x="64.18625" y="76.613759" style="fill: #1a1a1a; stroke: #1a1a1a; stroke-width: 0.6"/>
      </g>
     </g>
    </g>
    <g id="ytick_23">
     <g id="line2d_43">
      <g>
       <use xlink:href="#m5f9d1e6504" x="64.18625" y="60.577312" style="fill: #1a1a1a; stroke: #1a1a1a; stroke-width: 0.6"/>
      </g>
     </g>
    </g>
    <g id="ytick_24">
     <g id="line2d_44">
      <g>
       <use xlink:href="#m5f9d1e6504" x="64.18625" y="52.559089" style="fill: #1a1a1a; stroke: #1a1a1a; stroke-width: 0.6"/>
      </g>
     </g>
    </g>
    <g id="ytick_25">
     <g id="line2d_45">
      <g>
       <use xlink:href="#m5f9d1e6504" x="64.18625" y="44.540866" style="fill: #1a1a1a; stroke: #1a1a1a; stroke-width: 0.6"/>
      </g>
     </g>
    </g>
    <g id="ytick_26">
     <g id="line2d_46">
      <g>
       <use xlink:href="#m5f9d1e6504" x="64.18625" y="28.504419" style="fill: #1a1a1a; stroke: #1a1a1a; stroke-width: 0.6"/>
      </g>
     </g>
    </g>
    <g id="ytick_27">
     <g id="line2d_47">
      <g>
       <use xlink:href="#m5f9d1e6504" x="64.18625" y="20.486196" style="fill: #1a1a1a; stroke: #1a1a1a; stroke-width: 0.6"/>
      </g>
     </g>
    </g>
    <g id="ytick_28">
     <g id="line2d_48">
      <g>
       <use xlink:href="#m5f9d1e6504" x="64.18625" y="12.467973" style="fill: #1a1a1a; stroke: #1a1a1a; stroke-width: 0.6"/>
      </g>
     </g>
    </g>
    <g id="text_13">
     <!-- Entries -->
     <g style="fill: #1a1a1a" transform="translate(19.693125 146.286562) rotate(-90) scale(0.18 -0.18)">
      <defs>
       <path id="LatinModernMath-Regular-45" d="M 4173 1651 
L 4013 1651 
C 3853 666 3706 198 2605 198 
L 1754 198 
C 1453 198 1440 243 1440 454 
L 1440 2163 
L 2016 2163 
C 2637 2163 2707 1958 2707 1414 
L 2867 1414 
L 2867 3110 
L 2707 3110 
C 2707 2560 2637 2362 2016 2362 
L 1440 2362 
L 1440 3898 
C 1440 4109 1453 4154 1754 4154 
L 2579 4154 
C 3558 4154 3731 3802 3834 2912 
L 3994 2912 
L 3814 4352 
L 211 4352 
L 211 4154 
L 365 4154 
C 858 4154 870 4083 870 3853 
L 870 499 
C 870 269 858 198 365 198 
L 211 198 
L 211 0 
L 3904 0 
L 4173 1651 
z
" transform="scale(0.015625)"/>
       <path id="LatinModernMath-Regular-6e" d="M 3424 0 
L 3424 198 
C 3091 198 2931 198 2925 390 
L 2925 1613 
C 2925 2163 2925 2362 2726 2592 
C 2637 2701 2426 2829 2054 2829 
C 1587 2829 1286 2554 1107 2157 
L 1107 2829 
L 205 2758 
L 205 2560 
C 653 2560 704 2515 704 2202 
L 704 486 
C 704 198 634 198 205 198 
L 205 0 
L 928 19 
L 1645 0 
L 1645 198 
C 1216 198 1146 198 1146 486 
L 1146 1664 
C 1146 2330 1600 2688 2010 2688 
C 2413 2688 2483 2342 2483 1978 
L 2483 486 
C 2483 198 2413 198 1984 198 
L 1984 0 
L 2707 19 
L 3424 0 
z
" transform="scale(0.015625)"/>
       <path id="LatinModernMath-Regular-74" d="M 2125 794 
L 2125 1158 
L 1965 1158 
L 1965 806 
C 1965 333 1773 90 1536 90 
C 1107 90 1107 672 1107 781 
L 1107 2560 
L 2022 2560 
L 2022 2758 
L 1107 2758 
L 1107 3936 
L 947 3936 
C 941 3411 749 2726 122 2701 
L 122 2560 
L 666 2560 
L 666 794 
C 666 6 1261 -70 1491 -70 
C 1946 -70 2125 384 2125 794 
z
" transform="scale(0.015625)"/>
       <path id="LatinModernMath-Regular-73" d="M 2304 819 
C 2304 1158 2112 1350 2035 1427 
C 1824 1632 1574 1683 1306 1734 
C 947 1805 518 1888 518 2259 
C 518 2483 685 2746 1235 2746 
C 1939 2746 1971 2170 1984 1971 
C 1990 1914 2061 1914 2061 1914 
C 2144 1914 2144 1946 2144 2067 
L 2144 2714 
C 2144 2822 2144 2867 2074 2867 
C 2042 2867 2029 2867 1946 2790 
C 1926 2765 1862 2707 1837 2688 
C 1594 2867 1331 2867 1235 2867 
C 454 2867 211 2438 211 2080 
C 211 1856 314 1677 486 1536 
C 691 1370 870 1331 1331 1242 
C 1472 1216 1997 1114 1997 653 
C 1997 326 1773 70 1274 70 
C 736 70 506 435 384 979 
C 365 1062 358 1088 294 1088 
C 211 1088 211 1043 211 928 
L 211 83 
C 211 -26 211 -70 282 -70 
C 314 -70 320 -64 442 58 
C 454 70 454 83 570 205 
C 851 -64 1139 -70 1274 -70 
C 2010 -70 2304 358 2304 819 
z
" transform="scale(0.015625)"/>
      </defs>
      <use xlink:href="#LatinModernMath-Regular-45"/>
      <use xlink:href="#LatinModernMath-Regular-6e" transform="translate(68.099991 0)"/>
      <use xlink:href="#LatinModernMath-Regular-74" transform="translate(123.699982 0)"/>
      <use xlink:href="#LatinModernMath-Regular-72" transform="translate(162.599976 0)"/>
      <use xlink:href="#LatinModernMath-Regular-69" transform="translate(201.799973 0)"/>
      <use xlink:href="#LatinModernMath-Regular-65" transform="translate(229.59996 0)"/>
      <use xlink:href="#LatinModernMath-Regular-73" transform="translate(273.999954 0)"/>
     </g>
    </g>
   </g>
   <g id="legend_1">
    <g id="patch_9">
     <path d="M 343.2575 26.4 
L 367.2575 26.4 
L 367.2575 18 
L 343.2575 18 
z
" style="fill: #e24a33; stroke: #000000; stroke-width: 0.5; stroke-linejoin: miter"/>
    </g>
    <g id="text_14">
     <!-- c2 -->
     <g style="fill: #1a1a1a" transform="translate(376.8575 26.4) scale(0.12 -0.12)">
      <defs>
       <path id="LatinModernMath-Regular-63" d="M 2656 762 
C 2656 826 2592 826 2573 826 
C 2515 826 2502 800 2490 762 
C 2304 166 1888 90 1651 90 
C 1312 90 749 365 749 1395 
C 749 2438 1274 2707 1613 2707 
C 1670 2707 2074 2701 2298 2470 
C 2035 2451 1997 2259 1997 2176 
C 1997 2010 2112 1882 2291 1882 
C 2458 1882 2586 1990 2586 2182 
C 2586 2618 2099 2867 1606 2867 
C 806 2867 218 2176 218 1382 
C 218 563 851 -70 1594 -70 
C 2451 -70 2656 698 2656 762 
z
" transform="scale(0.015625)"/>
      </defs>
      <use xlink:href="#LatinModernMath-Regular-63"/>
      <use xlink:href="#LatinModernMath-Regular-32" transform="translate(44.399994 0)"/>
     </g>
    </g>
    <g id="patch_10">
     <path d="M 343.2575 43.12875 
L 367.2575 43.12875 
L 367.2575 34.72875 
L 343.2575 34.72875 
z
" style="fill: #348abd; stroke: #000000; stroke-width: 0.5; stroke-linejoin: miter"/>
    </g>
    <g id="text_15">
     <!-- c1 -->
     <g style="fill: #1a1a1a" transform="translate(376.8575 43.12875) scale(0.12 -0.12)">
      <use xlink:href="#LatinModernMath-Regular-63"/>
      <use xlink:href="#LatinModernMath-Regular-31" transform="translate(44.399994 0)"/>
     </g>
    </g>
   </g>
  </g>
 </g>
 <defs>
  <clipPath id="pa72eb6dc0c">
   <rect x="64.18625" y="7.2" width="334.8" height="221.76"/>
  </clipPath>
 </defs>
</svg>
