<?xml version="1.0" encoding="utf-8" standalone="no"?>
<!DOCTYPE svg PUBLIC "-//W3C//DTD SVG 1.1//EN"
  "http://www.w3.org/Graphics/SVG/1.1/DTD/svg11.dtd">
<svg xmlns:xlink="http://www.w3.org/1999/xlink" width="409.861184pt" height="279.100625pt" viewBox="0 0 409.861184 279.100625" xmlns="http://www.w3.org/2000/svg" version="1.1">
 <metadata>
  <rdf:RDF xmlns:dc="http://purl.org/dc/elements/1.1/" xmlns:cc="http://creativecommons.org/ns#" xmlns:rdf="http://www.w3.org/1999/02/22-rdf-syntax-ns#">
   <cc:Work>
    <dc:type rdf:resource="http://purl.org/dc/dcmitype/StillImage"/>
    <dc:date>2023-07-12T17:53:49.437978</dc:date>
    <dc:format>image/svg+xml</dc:format>
    <dc:creator>
     <cc:Agent>
      <dc:title>Matplotlib v3.7.1, https://matplotlib.org/</dc:title>
     </cc:Agent>
    </dc:creator>
   </cc:Work>
  </rdf:RDF>
 </metadata>
 <defs>
  <style type="text/css">*{stroke-linejoin: round; stroke-linecap: butt}</style>
 </defs>
 <g id="figure_1">
  <g id="patch_1">
   <path d="M 0 279.100625 
L 409.861184 279.100625 
L 409.861184 0 
L 0 0 
z
" style="fill: #ffffff"/>
  </g>
  <g id="axes_1">
   <g id="patch_2">
    <path d="M 63.786719 228.96 
L 398.586719 228.96 
L 398.586719 7.2 
L 63.786719 7.2 
z
" style="fill: #ffffff"/>
   </g>
   <g id="patch_3">
    <path d="M 63.786719 228.96 
L 63.786719 228.490667 
L 70.482719 228.490667 
L 70.482719 228.725333 
L 77.178719 228.725333 
L 77.178719 228.490667 
L 83.874719 228.490667 
L 83.874719 227.552 
L 90.570719 227.552 
L 90.570719 226.848 
L 97.266719 226.848 
L 97.266719 223.328 
L 103.962719 223.328 
L 103.962719 223.093333 
L 110.658719 223.093333 
L 110.658719 215.818667 
L 117.354719 215.818667 
L 117.354719 210.656 
L 124.050719 210.656 
L 124.050719 194.464 
L 130.746719 194.464 
L 130.746719 187.893333 
L 137.442719 187.893333 
L 137.442719 164.661333 
L 144.138719 164.661333 
L 144.138719 143.072 
L 150.834719 143.072 
L 150.834719 129.226667 
L 157.530719 129.226667 
L 157.530719 98.72 
L 164.226719 98.72 
L 164.226719 73.376 
L 170.922719 73.376 
L 170.922719 62.581333 
L 177.618719 62.581333 
L 177.618719 53.194667 
L 184.314719 53.194667 
L 184.314719 54.133333 
L 191.010719 54.133333 
L 191.010719 53.429333 
L 197.706719 53.429333 
L 197.706719 68.682667 
L 204.402719 68.682667 
L 204.402719 76.192 
L 211.098719 76.192 
L 211.098719 82.762667 
L 217.794719 82.762667 
L 217.794719 104.586667 
L 224.490719 104.586667 
L 224.490719 132.981333 
L 231.186719 132.981333 
L 231.186719 135.562667 
L 237.882719 135.562667 
L 237.882719 147.765333 
L 244.578719 147.765333 
L 244.578719 151.52 
L 251.274719 151.52 
L 251.274719 171.232 
L 257.970719 171.232 
L 257.970719 175.221333 
L 264.666719 175.221333 
L 264.666719 183.669333 
L 271.362719 183.669333 
L 271.362719 186.016 
L 278.058719 186.016 
L 278.058719 193.525333 
L 284.754719 193.525333 
L 284.754719 199.861333 
L 291.450719 199.861333 
L 291.450719 210.186667 
L 298.146719 210.186667 
L 298.146719 212.768 
L 304.842719 212.768 
L 304.842719 220.277333 
L 311.538719 220.277333 
L 311.538719 221.92 
L 318.234719 221.92 
L 318.234719 225.205333 
L 324.930719 225.205333 
L 324.930719 226.378667 
L 331.626719 226.378667 
L 331.626719 227.552 
L 338.322719 227.552 
L 338.322719 228.725333 
L 345.018719 228.725333 
L 345.018719 228.256 
L 351.714719 228.256 
L 351.714719 228.725333 
L 358.410719 228.725333 
L 358.410719 228.725333 
L 365.106719 228.725333 
L 365.106719 228.96 
L 371.802719 228.96 
L 371.802719 228.96 
L 378.498719 228.96 
L 378.498719 228.725333 
L 385.194719 228.725333 
L 385.194719 228.96 
L 391.890719 228.96 
L 391.890719 228.96 
L 398.586719 228.96 
L 398.586719 228.96 
" clip-path="url(#pc131ec4169)" style="fill: none; stroke: #348abd; stroke-width: 1.2; stroke-linejoin: miter"/>
   </g>
   <g id="patch_4">
    <path d="M 63.786719 228.96 
L 63.786719 228.96 
L 70.482719 228.96 
L 70.482719 228.96 
L 77.178719 228.96 
L 77.178719 228.96 
L 83.874719 228.96 
L 83.874719 228.96 
L 90.570719 228.96 
L 90.570719 228.96 
L 97.266719 228.96 
L 97.266719 228.725333 
L 103.962719 228.725333 
L 103.962719 227.552 
L 110.658719 227.552 
L 110.658719 227.786667 
L 117.354719 227.786667 
L 117.354719 225.909333 
L 124.050719 225.909333 
L 124.050719 223.562667 
L 130.746719 223.562667 
L 130.746719 220.277333 
L 137.442719 220.277333 
L 137.442719 205.258667 
L 144.138719 205.258667 
L 144.138719 196.106667 
L 150.834719 196.106667 
L 150.834719 181.792 
L 157.530719 181.792 
L 157.530719 163.957333 
L 164.226719 163.957333 
L 164.226719 143.776 
L 170.922719 143.776 
L 170.922719 109.984 
L 177.618719 109.984 
L 177.618719 100.362667 
L 184.314719 100.362667 
L 184.314719 98.954667 
L 191.010719 98.954667 
L 191.010719 95.434667 
L 197.706719 95.434667 
L 197.706719 110.688 
L 204.402719 110.688 
L 204.402719 107.872 
L 211.098719 107.872 
L 211.098719 120.544 
L 217.794719 120.544 
L 217.794719 115.146667 
L 224.490719 115.146667 
L 224.490719 112.565333 
L 231.186719 112.565333 
L 231.186719 104.821333 
L 237.882719 104.821333 
L 237.882719 97.312 
L 244.578719 97.312 
L 244.578719 90.741333 
L 251.274719 90.741333 
L 251.274719 87.925333 
L 257.970719 87.925333 
L 257.970719 97.546667 
L 264.666719 97.546667 
L 264.666719 104.821333 
L 271.362719 104.821333 
L 271.362719 126.410667 
L 278.058719 126.410667 
L 278.058719 141.194667 
L 284.754719 141.194667 
L 284.754719 150.112 
L 291.450719 150.112 
L 291.450719 173.578667 
L 298.146719 173.578667 
L 298.146719 188.597333 
L 304.842719 188.597333 
L 304.842719 198.688 
L 311.538719 198.688 
L 311.538719 207.605333 
L 318.234719 207.605333 
L 318.234719 215.584 
L 324.930719 215.584 
L 324.930719 218.4 
L 331.626719 218.4 
L 331.626719 223.562667 
L 338.322719 223.562667 
L 338.322719 226.378667 
L 345.018719 226.378667 
L 345.018719 226.378667 
L 351.714719 226.378667 
L 351.714719 228.256 
L 358.410719 228.256 
L 358.410719 228.256 
L 365.106719 228.256 
L 365.106719 228.725333 
L 371.802719 228.725333 
L 371.802719 228.96 
L 378.498719 228.96 
L 378.498719 228.96 
L 385.194719 228.96 
L 385.194719 228.96 
L 391.890719 228.96 
L 391.890719 228.725333 
L 398.586719 228.725333 
L 398.586719 228.96 
" clip-path="url(#pc131ec4169)" style="fill: none; stroke: #e24a33; stroke-width: 1.2; stroke-linejoin: miter"/>
   </g>
   <g id="LineCollection_1">
    <path d="M 67.134719 228.96 
L 67.134719 228.96 
" clip-path="url(#pc131ec4169)" style="fill: none; stroke: #000000; stroke-width: 1.5"/>
    <path d="M 73.830719 228.96 
L 73.830719 228.96 
" clip-path="url(#pc131ec4169)" style="fill: none; stroke: #000000; stroke-width: 1.5"/>
    <path d="M 80.526719 228.96 
L 80.526719 228.96 
" clip-path="url(#pc131ec4169)" style="fill: none; stroke: #000000; stroke-width: 1.5"/>
    <path d="M 87.222719 228.96 
L 87.222719 228.490667 
" clip-path="url(#pc131ec4169)" style="fill: none; stroke: #000000; stroke-width: 1.5"/>
    <path d="M 93.918719 228.96 
L 93.918719 228.490667 
" clip-path="url(#pc131ec4169)" style="fill: none; stroke: #000000; stroke-width: 1.5"/>
    <path d="M 100.614719 228.822535 
L 100.614719 228.158798 
" clip-path="url(#pc131ec4169)" style="fill: none; stroke: #000000; stroke-width: 1.5"/>
    <path d="M 107.310719 228.126814 
L 107.310719 226.977186 
" clip-path="url(#pc131ec4169)" style="fill: none; stroke: #000000; stroke-width: 1.5"/>
    <path d="M 114.006719 227.552 
L 114.006719 226.144 
" clip-path="url(#pc131ec4169)" style="fill: none; stroke: #000000; stroke-width: 1.5"/>
    <path d="M 120.702719 225.938222 
L 120.702719 224.003111 
" clip-path="url(#pc131ec4169)" style="fill: none; stroke: #000000; stroke-width: 1.5"/>
    <path d="M 127.398719 224.266667 
L 127.398719 221.92 
" clip-path="url(#pc131ec4169)" style="fill: none; stroke: #000000; stroke-width: 1.5"/>
    <path d="M 134.094719 218.667855 
L 134.094719 215.316145 
" clip-path="url(#pc131ec4169)" style="fill: none; stroke: #000000; stroke-width: 1.5"/>
    <path d="M 140.790719 216.038609 
L 140.790719 212.313391 
" clip-path="url(#pc131ec4169)" style="fill: none; stroke: #000000; stroke-width: 1.5"/>
    <path d="M 147.486719 210.510702 
L 147.486719 206.107965 
" clip-path="url(#pc131ec4169)" style="fill: none; stroke: #000000; stroke-width: 1.5"/>
    <path d="M 154.182719 206.278078 
L 154.182719 201.423256 
" clip-path="url(#pc131ec4169)" style="fill: none; stroke: #000000; stroke-width: 1.5"/>
    <path d="M 160.878719 197.984 
L 160.878719 192.352 
" clip-path="url(#pc131ec4169)" style="fill: none; stroke: #000000; stroke-width: 1.5"/>
    <path d="M 167.574719 185.345354 
L 167.574719 178.707979 
" clip-path="url(#pc131ec4169)" style="fill: none; stroke: #000000; stroke-width: 1.5"/>
    <path d="M 174.270719 186.02437 
L 174.270719 179.436963 
" clip-path="url(#pc131ec4169)" style="fill: none; stroke: #000000; stroke-width: 1.5"/>
    <path d="M 180.966719 177.864698 
L 180.966719 170.700635 
" clip-path="url(#pc131ec4169)" style="fill: none; stroke: #000000; stroke-width: 1.5"/>
    <path d="M 187.662719 175.594091 
L 187.662719 168.277909 
" clip-path="url(#pc131ec4169)" style="fill: none; stroke: #000000; stroke-width: 1.5"/>
    <path d="M 194.358719 169.910992 
L 194.358719 162.227674 
" clip-path="url(#pc131ec4169)" style="fill: none; stroke: #000000; stroke-width: 1.5"/>
    <path d="M 201.054719 163.536025 
L 201.054719 155.461309 
" clip-path="url(#pc131ec4169)" style="fill: none; stroke: #000000; stroke-width: 1.5"/>
    <path d="M 207.750719 156.239327 
L 207.750719 147.739339 
" clip-path="url(#pc131ec4169)" style="fill: none; stroke: #000000; stroke-width: 1.5"/>
    <path d="M 214.446719 138.642576 
L 214.446719 129.197424 
" clip-path="url(#pc131ec4169)" style="fill: none; stroke: #000000; stroke-width: 1.5"/>
    <path d="M 221.142719 118.021004 
L 221.142719 107.578996 
" clip-path="url(#pc131ec4169)" style="fill: none; stroke: #000000; stroke-width: 1.5"/>
    <path d="M 227.838719 101.721564 
L 227.838719 90.55577 
" clip-path="url(#pc131ec4169)" style="fill: none; stroke: #000000; stroke-width: 1.5"/>
    <path d="M 234.534719 69.290329 
L 234.534719 56.811004 
" clip-path="url(#pc131ec4169)" style="fill: none; stroke: #000000; stroke-width: 1.5"/>
    <path d="M 241.230719 42.792021 
L 241.230719 29.335979 
" clip-path="url(#pc131ec4169)" style="fill: none; stroke: #000000; stroke-width: 1.5"/>
    <path d="M 247.926719 34.259109 
L 247.926719 20.503558 
" clip-path="url(#pc131ec4169)" style="fill: none; stroke: #000000; stroke-width: 1.5"/>
    <path d="M 254.622719 43.253164 
L 254.622719 29.813503 
" clip-path="url(#pc131ec4169)" style="fill: none; stroke: #000000; stroke-width: 1.5"/>
    <path d="M 261.318719 42.330867 
L 261.318719 28.858466 
" clip-path="url(#pc131ec4169)" style="fill: none; stroke: #000000; stroke-width: 1.5"/>
    <path d="M 268.014719 55.239273 
L 268.014719 42.232727 
" clip-path="url(#pc131ec4169)" style="fill: none; stroke: #000000; stroke-width: 1.5"/>
    <path d="M 274.710719 72.973988 
L 274.710719 60.636679 
" clip-path="url(#pc131ec4169)" style="fill: none; stroke: #000000; stroke-width: 1.5"/>
    <path d="M 281.406719 107.004287 
L 281.406719 96.067713 
" clip-path="url(#pc131ec4169)" style="fill: none; stroke: #000000; stroke-width: 1.5"/>
    <path d="M 288.102719 133.835465 
L 288.102719 124.148535 
" clip-path="url(#pc131ec4169)" style="fill: none; stroke: #000000; stroke-width: 1.5"/>
    <path d="M 294.798719 160.573064 
L 294.798719 152.322936 
" clip-path="url(#pc131ec4169)" style="fill: none; stroke: #000000; stroke-width: 1.5"/>
    <path d="M 301.494719 181.04075 
L 301.494719 174.09525 
" clip-path="url(#pc131ec4169)" style="fill: none; stroke: #000000; stroke-width: 1.5"/>
    <path d="M 308.190719 193.028802 
L 308.190719 186.981865 
" clip-path="url(#pc131ec4169)" style="fill: none; stroke: #000000; stroke-width: 1.5"/>
    <path d="M 314.886719 209.62151 
L 314.886719 205.119823 
" clip-path="url(#pc131ec4169)" style="fill: none; stroke: #000000; stroke-width: 1.5"/>
    <path d="M 321.582719 217.793668 
L 321.582719 214.312999 
" clip-path="url(#pc131ec4169)" style="fill: none; stroke: #000000; stroke-width: 1.5"/>
    <path d="M 328.278719 222.349663 
L 328.278719 219.613003 
" clip-path="url(#pc131ec4169)" style="fill: none; stroke: #000000; stroke-width: 1.5"/>
    <path d="M 334.974719 225.731606 
L 334.974719 223.740394 
" clip-path="url(#pc131ec4169)" style="fill: none; stroke: #000000; stroke-width: 1.5"/>
    <path d="M 341.670719 227.552 
L 341.670719 226.144 
" clip-path="url(#pc131ec4169)" style="fill: none; stroke: #000000; stroke-width: 1.5"/>
    <path d="M 348.366719 228.311397 
L 348.366719 227.261936 
" clip-path="url(#pc131ec4169)" style="fill: none; stroke: #000000; stroke-width: 1.5"/>
    <path d="M 355.062719 228.96 
L 355.062719 228.96 
" clip-path="url(#pc131ec4169)" style="fill: none; stroke: #000000; stroke-width: 1.5"/>
    <path d="M 361.758719 228.662455 
L 361.758719 227.849545 
" clip-path="url(#pc131ec4169)" style="fill: none; stroke: #000000; stroke-width: 1.5"/>
    <path d="M 368.454719 228.96 
L 368.454719 228.490667 
" clip-path="url(#pc131ec4169)" style="fill: none; stroke: #000000; stroke-width: 1.5"/>
    <path d="M 375.150719 228.96 
L 375.150719 228.96 
" clip-path="url(#pc131ec4169)" style="fill: none; stroke: #000000; stroke-width: 1.5"/>
    <path d="M 381.846719 228.96 
L 381.846719 228.96 
" clip-path="url(#pc131ec4169)" style="fill: none; stroke: #000000; stroke-width: 1.5"/>
    <path d="M 388.542719 228.96 
L 388.542719 228.96 
" clip-path="url(#pc131ec4169)" style="fill: none; stroke: #000000; stroke-width: 1.5"/>
    <path d="M 395.238719 228.96 
L 395.238719 228.96 
" clip-path="url(#pc131ec4169)" style="fill: none; stroke: #000000; stroke-width: 1.5"/>
   </g>
   <g id="line2d_1">
    <path d="M 63.786719 228.96 
L 290.912347 228.86582 
L 295.959583 228.674864 
L 299.324407 228.391043 
L 302.689231 227.867187 
L 304.371643 227.46697 
L 306.054055 226.939536 
L 307.736467 226.251723 
L 309.41888 225.364206 
L 311.101292 224.231143 
L 312.783704 222.80005 
L 314.466116 221.011999 
L 316.148528 218.802233 
L 317.83094 216.101266 
L 319.513352 212.836554 
L 321.195764 208.934786 
L 322.878176 204.324799 
L 324.560588 198.941104 
L 326.243 192.727944 
L 327.925412 185.643747 
L 329.607824 177.665778 
L 331.290236 168.794759 
L 332.972648 159.059139 
L 334.65506 148.518706 
L 338.019885 125.433616 
L 346.431945 64.323935 
L 348.114357 53.410853 
L 349.796769 43.55044 
L 351.479181 34.994194 
L 353.161593 27.968413 
L 354.844005 22.66427 
L 356.526417 19.229183 
L 358.208829 17.76 
L 359.891241 18.298471 
L 361.573653 20.829273 
L 363.256065 25.280732 
L 364.938478 31.528201 
L 366.62089 39.399855 
L 368.303302 48.684539 
L 369.985714 59.141167 
L 373.350538 82.518798 
L 380.080186 131.83434 
L 383.44501 154.258856 
L 385.127422 164.377721 
L 386.809834 173.65567 
L 388.492246 182.050095 
L 390.174658 189.547895 
L 391.857071 196.161472 
L 393.539483 201.92423 
L 395.221895 206.885912 
L 396.904307 211.108017 
L 398.586719 214.659547 
L 398.586719 214.659547 
" clip-path="url(#pc131ec4169)" style="fill: none; stroke: #008000; stroke-width: 1.5; stroke-linecap: round"/>
   </g>
   <g id="line2d_2">
    <defs>
     <path id="m94bf316322" d="M 0 1.5 
C 0.397805 1.5 0.77937 1.341951 1.06066 1.06066 
C 1.341951 0.77937 1.5 0.397805 1.5 0 
C 1.5 -0.397805 1.341951 -0.77937 1.06066 -1.06066 
C 0.77937 -1.341951 0.397805 -1.5 0 -1.5 
C -0.397805 -1.5 -0.77937 -1.341951 -1.06066 -1.06066 
C -1.341951 -0.77937 -1.5 -0.397805 -1.5 0 
C -1.5 0.397805 -1.341951 0.77937 -1.06066 1.06066 
C -0.77937 1.341951 -0.397805 1.5 0 1.5 
z
" style="stroke: #000000"/>
    </defs>
    <g clip-path="url(#pc131ec4169)">
     <use xlink:href="#m94bf316322" x="67.134719" y="228.96" style="stroke: #000000"/>
     <use xlink:href="#m94bf316322" x="73.830719" y="228.96" style="stroke: #000000"/>
     <use xlink:href="#m94bf316322" x="80.526719" y="228.96" style="stroke: #000000"/>
     <use xlink:href="#m94bf316322" x="87.222719" y="228.725333" style="stroke: #000000"/>
     <use xlink:href="#m94bf316322" x="93.918719" y="228.725333" style="stroke: #000000"/>
     <use xlink:href="#m94bf316322" x="100.614719" y="228.490667" style="stroke: #000000"/>
     <use xlink:href="#m94bf316322" x="107.310719" y="227.552" style="stroke: #000000"/>
     <use xlink:href="#m94bf316322" x="114.006719" y="226.848" style="stroke: #000000"/>
     <use xlink:href="#m94bf316322" x="120.702719" y="224.970667" style="stroke: #000000"/>
     <use xlink:href="#m94bf316322" x="127.398719" y="223.093333" style="stroke: #000000"/>
     <use xlink:href="#m94bf316322" x="134.094719" y="216.992" style="stroke: #000000"/>
     <use xlink:href="#m94bf316322" x="140.790719" y="214.176" style="stroke: #000000"/>
     <use xlink:href="#m94bf316322" x="147.486719" y="208.309333" style="stroke: #000000"/>
     <use xlink:href="#m94bf316322" x="154.182719" y="203.850667" style="stroke: #000000"/>
     <use xlink:href="#m94bf316322" x="160.878719" y="195.168" style="stroke: #000000"/>
     <use xlink:href="#m94bf316322" x="167.574719" y="182.026667" style="stroke: #000000"/>
     <use xlink:href="#m94bf316322" x="174.270719" y="182.730667" style="stroke: #000000"/>
     <use xlink:href="#m94bf316322" x="180.966719" y="174.282667" style="stroke: #000000"/>
     <use xlink:href="#m94bf316322" x="187.662719" y="171.936" style="stroke: #000000"/>
     <use xlink:href="#m94bf316322" x="194.358719" y="166.069333" style="stroke: #000000"/>
     <use xlink:href="#m94bf316322" x="201.054719" y="159.498667" style="stroke: #000000"/>
     <use xlink:href="#m94bf316322" x="207.750719" y="151.989333" style="stroke: #000000"/>
     <use xlink:href="#m94bf316322" x="214.446719" y="133.92" style="stroke: #000000"/>
     <use xlink:href="#m94bf316322" x="221.142719" y="112.8" style="stroke: #000000"/>
     <use xlink:href="#m94bf316322" x="227.838719" y="96.138667" style="stroke: #000000"/>
     <use xlink:href="#m94bf316322" x="234.534719" y="63.050667" style="stroke: #000000"/>
     <use xlink:href="#m94bf316322" x="241.230719" y="36.064" style="stroke: #000000"/>
     <use xlink:href="#m94bf316322" x="247.926719" y="27.381333" style="stroke: #000000"/>
     <use xlink:href="#m94bf316322" x="254.622719" y="36.533333" style="stroke: #000000"/>
     <use xlink:href="#m94bf316322" x="261.318719" y="35.594667" style="stroke: #000000"/>
     <use xlink:href="#m94bf316322" x="268.014719" y="48.736" style="stroke: #000000"/>
     <use xlink:href="#m94bf316322" x="274.710719" y="66.805333" style="stroke: #000000"/>
     <use xlink:href="#m94bf316322" x="281.406719" y="101.536" style="stroke: #000000"/>
     <use xlink:href="#m94bf316322" x="288.102719" y="128.992" style="stroke: #000000"/>
     <use xlink:href="#m94bf316322" x="294.798719" y="156.448" style="stroke: #000000"/>
     <use xlink:href="#m94bf316322" x="301.494719" y="177.568" style="stroke: #000000"/>
     <use xlink:href="#m94bf316322" x="308.190719" y="190.005333" style="stroke: #000000"/>
     <use xlink:href="#m94bf316322" x="314.886719" y="207.370667" style="stroke: #000000"/>
     <use xlink:href="#m94bf316322" x="321.582719" y="216.053333" style="stroke: #000000"/>
     <use xlink:href="#m94bf316322" x="328.278719" y="220.981333" style="stroke: #000000"/>
     <use xlink:href="#m94bf316322" x="334.974719" y="224.736" style="stroke: #000000"/>
     <use xlink:href="#m94bf316322" x="341.670719" y="226.848" style="stroke: #000000"/>
     <use xlink:href="#m94bf316322" x="348.366719" y="227.786667" style="stroke: #000000"/>
     <use xlink:href="#m94bf316322" x="355.062719" y="228.96" style="stroke: #000000"/>
     <use xlink:href="#m94bf316322" x="361.758719" y="228.256" style="stroke: #000000"/>
     <use xlink:href="#m94bf316322" x="368.454719" y="228.725333" style="stroke: #000000"/>
     <use xlink:href="#m94bf316322" x="375.150719" y="228.96" style="stroke: #000000"/>
     <use xlink:href="#m94bf316322" x="381.846719" y="228.96" style="stroke: #000000"/>
     <use xlink:href="#m94bf316322" x="388.542719" y="228.96" style="stroke: #000000"/>
     <use xlink:href="#m94bf316322" x="395.238719" y="228.96" style="stroke: #000000"/>
    </g>
   </g>
   <g id="patch_5">
    <path d="M 63.786719 228.96 
L 63.786719 7.2 
" style="fill: none; stroke: #000000; stroke-linejoin: miter; stroke-linecap: square"/>
   </g>
   <g id="patch_6">
    <path d="M 398.586719 228.96 
L 398.586719 7.2 
" style="fill: none; stroke: #000000; stroke-linejoin: miter; stroke-linecap: square"/>
   </g>
   <g id="patch_7">
    <path d="M 63.786719 228.96 
L 398.586719 228.96 
" style="fill: none; stroke: #000000; stroke-linejoin: miter; stroke-linecap: square"/>
   </g>
   <g id="patch_8">
    <path d="M 63.786719 7.2 
L 398.586719 7.2 
" style="fill: none; stroke: #000000; stroke-linejoin: miter; stroke-linecap: square"/>
   </g>
   <g id="matplotlib.axis_1">
    <g id="xtick_1">
     <g id="line2d_3">
      <defs>
       <path id="m9ffaa889f8" d="M 0 0 
L 0 -6 
" style="stroke: #1a1a1a; stroke-width: 0.8"/>
      </defs>
      <g>
       <use xlink:href="#m9ffaa889f8" x="134.598754" y="228.96" style="fill: #1a1a1a; stroke: #1a1a1a; stroke-width: 0.8"/>
      </g>
     </g>
     <g id="text_1">
      <!-- $\mathdefault{−5}$ -->
      <g style="fill: #1a1a1a" transform="translate(123.498754 245.357656) scale(0.15 -0.15)">
       <defs>
        <path id="DejaVuSerif-2212" d="M 678 2259 
L 4684 2259 
L 4684 1753 
L 678 1753 
L 678 2259 
z
" transform="scale(0.015625)"/>
        <path id="DejaVuSerif-35" d="M 3219 4666 
L 3219 4153 
L 1081 4153 
L 1081 2816 
Q 1244 2928 1461 2984 
Q 1678 3041 1947 3041 
Q 2703 3041 3140 2622 
Q 3578 2203 3578 1478 
Q 3578 738 3136 323 
Q 2694 -91 1894 -91 
Q 1572 -91 1234 -12 
Q 897 66 544 225 
L 544 1131 
L 897 1131 
Q 925 688 1179 453 
Q 1434 219 1894 219 
Q 2388 219 2653 544 
Q 2919 869 2919 1478 
Q 2919 2084 2655 2407 
Q 2391 2731 1894 2731 
Q 1613 2731 1398 2631 
Q 1184 2531 1019 2322 
L 750 2322 
L 750 4666 
L 3219 4666 
z
" transform="scale(0.015625)"/>
       </defs>
       <use xlink:href="#DejaVuSerif-2212" transform="translate(0 0.09375)"/>
       <use xlink:href="#DejaVuSerif-35" transform="translate(83.789062 0.09375)"/>
      </g>
     </g>
    </g>
    <g id="xtick_2">
     <g id="line2d_4">
      <g>
       <use xlink:href="#m9ffaa889f8" x="220.752898" y="228.96" style="fill: #1a1a1a; stroke: #1a1a1a; stroke-width: 0.8"/>
      </g>
     </g>
     <g id="text_2">
      <!-- $\mathdefault{0}$ -->
      <g style="fill: #1a1a1a" transform="translate(215.952898 245.357656) scale(0.15 -0.15)">
       <defs>
        <path id="DejaVuSerif-30" d="M 2034 219 
Q 2513 219 2750 744 
Q 2988 1269 2988 2328 
Q 2988 3391 2750 3916 
Q 2513 4441 2034 4441 
Q 1556 4441 1318 3916 
Q 1081 3391 1081 2328 
Q 1081 1269 1318 744 
Q 1556 219 2034 219 
z
M 2034 -91 
Q 1275 -91 848 546 
Q 422 1184 422 2328 
Q 422 3475 848 4112 
Q 1275 4750 2034 4750 
Q 2797 4750 3222 4112 
Q 3647 3475 3647 2328 
Q 3647 1184 3222 546 
Q 2797 -91 2034 -91 
z
" transform="scale(0.015625)"/>
       </defs>
       <use xlink:href="#DejaVuSerif-30" transform="translate(0 0.78125)"/>
      </g>
     </g>
    </g>
    <g id="xtick_3">
     <g id="line2d_5">
      <g>
       <use xlink:href="#m9ffaa889f8" x="306.907041" y="228.96" style="fill: #1a1a1a; stroke: #1a1a1a; stroke-width: 0.8"/>
      </g>
     </g>
     <g id="text_3">
      <!-- $\mathdefault{5}$ -->
      <g style="fill: #1a1a1a" transform="translate(302.107041 245.357656) scale(0.15 -0.15)">
       <use xlink:href="#DejaVuSerif-35" transform="translate(0 0.09375)"/>
      </g>
     </g>
    </g>
    <g id="xtick_4">
     <g id="line2d_6">
      <g>
       <use xlink:href="#m9ffaa889f8" x="393.061184" y="228.96" style="fill: #1a1a1a; stroke: #1a1a1a; stroke-width: 0.8"/>
      </g>
     </g>
     <g id="text_4">
      <!-- $\mathdefault{10}$ -->
      <g style="fill: #1a1a1a" transform="translate(383.461184 245.357656) scale(0.15 -0.15)">
       <defs>
        <path id="DejaVuSerif-31" d="M 909 0 
L 909 331 
L 1722 331 
L 1722 4213 
L 781 3603 
L 781 4013 
L 1919 4750 
L 2350 4750 
L 2350 331 
L 3163 331 
L 3163 0 
L 909 0 
z
" transform="scale(0.015625)"/>
       </defs>
       <use xlink:href="#DejaVuSerif-31" transform="translate(0 0.78125)"/>
       <use xlink:href="#DejaVuSerif-30" transform="translate(63.623047 0.78125)"/>
      </g>
     </g>
    </g>
    <g id="xtick_5">
     <g id="line2d_7">
      <defs>
       <path id="m4ddba6320e" d="M 0 0 
L 0 -3 
" style="stroke: #1a1a1a; stroke-width: 0.6"/>
      </defs>
      <g>
       <use xlink:href="#m4ddba6320e" x="65.675439" y="228.96" style="fill: #1a1a1a; stroke: #1a1a1a; stroke-width: 0.6"/>
      </g>
     </g>
    </g>
    <g id="xtick_6">
     <g id="line2d_8">
      <g>
       <use xlink:href="#m4ddba6320e" x="82.906268" y="228.96" style="fill: #1a1a1a; stroke: #1a1a1a; stroke-width: 0.6"/>
      </g>
     </g>
    </g>
    <g id="xtick_7">
     <g id="line2d_9">
      <g>
       <use xlink:href="#m4ddba6320e" x="100.137097" y="228.96" style="fill: #1a1a1a; stroke: #1a1a1a; stroke-width: 0.6"/>
      </g>
     </g>
    </g>
    <g id="xtick_8">
     <g id="line2d_10">
      <g>
       <use xlink:href="#m4ddba6320e" x="117.367925" y="228.96" style="fill: #1a1a1a; stroke: #1a1a1a; stroke-width: 0.6"/>
      </g>
     </g>
    </g>
    <g id="xtick_9">
     <g id="line2d_11">
      <g>
       <use xlink:href="#m4ddba6320e" x="151.829583" y="228.96" style="fill: #1a1a1a; stroke: #1a1a1a; stroke-width: 0.6"/>
      </g>
     </g>
    </g>
    <g id="xtick_10">
     <g id="line2d_12">
      <g>
       <use xlink:href="#m4ddba6320e" x="169.060411" y="228.96" style="fill: #1a1a1a; stroke: #1a1a1a; stroke-width: 0.6"/>
      </g>
     </g>
    </g>
    <g id="xtick_11">
     <g id="line2d_13">
      <g>
       <use xlink:href="#m4ddba6320e" x="186.29124" y="228.96" style="fill: #1a1a1a; stroke: #1a1a1a; stroke-width: 0.6"/>
      </g>
     </g>
    </g>
    <g id="xtick_12">
     <g id="line2d_14">
      <g>
       <use xlink:href="#m4ddba6320e" x="203.522069" y="228.96" style="fill: #1a1a1a; stroke: #1a1a1a; stroke-width: 0.6"/>
      </g>
     </g>
    </g>
    <g id="xtick_13">
     <g id="line2d_15">
      <g>
       <use xlink:href="#m4ddba6320e" x="237.983726" y="228.96" style="fill: #1a1a1a; stroke: #1a1a1a; stroke-width: 0.6"/>
      </g>
     </g>
    </g>
    <g id="xtick_14">
     <g id="line2d_16">
      <g>
       <use xlink:href="#m4ddba6320e" x="255.214555" y="228.96" style="fill: #1a1a1a; stroke: #1a1a1a; stroke-width: 0.6"/>
      </g>
     </g>
    </g>
    <g id="xtick_15">
     <g id="line2d_17">
      <g>
       <use xlink:href="#m4ddba6320e" x="272.445384" y="228.96" style="fill: #1a1a1a; stroke: #1a1a1a; stroke-width: 0.6"/>
      </g>
     </g>
    </g>
    <g id="xtick_16">
     <g id="line2d_18">
      <g>
       <use xlink:href="#m4ddba6320e" x="289.676212" y="228.96" style="fill: #1a1a1a; stroke: #1a1a1a; stroke-width: 0.6"/>
      </g>
     </g>
    </g>
    <g id="xtick_17">
     <g id="line2d_19">
      <g>
       <use xlink:href="#m4ddba6320e" x="324.13787" y="228.96" style="fill: #1a1a1a; stroke: #1a1a1a; stroke-width: 0.6"/>
      </g>
     </g>
    </g>
    <g id="xtick_18">
     <g id="line2d_20">
      <g>
       <use xlink:href="#m4ddba6320e" x="341.368698" y="228.96" style="fill: #1a1a1a; stroke: #1a1a1a; stroke-width: 0.6"/>
      </g>
     </g>
    </g>
    <g id="xtick_19">
     <g id="line2d_21">
      <g>
       <use xlink:href="#m4ddba6320e" x="358.599527" y="228.96" style="fill: #1a1a1a; stroke: #1a1a1a; stroke-width: 0.6"/>
      </g>
     </g>
    </g>
    <g id="xtick_20">
     <g id="line2d_22">
      <g>
       <use xlink:href="#m4ddba6320e" x="375.830356" y="228.96" style="fill: #1a1a1a; stroke: #1a1a1a; stroke-width: 0.6"/>
      </g>
     </g>
    </g>
    <g id="text_5">
     <!-- variable_1 -->
     <g style="fill: #1a1a1a" transform="translate(185.306641 267.774453) scale(0.175 -0.175)">
      <defs>
       <path id="DejaVuSerif-76" d="M 1581 0 
L 359 2988 
L -19 2988 
L -19 3322 
L 1509 3322 
L 1509 2988 
L 978 2988 
L 1913 703 
L 2847 2988 
L 2350 2988 
L 2350 3322 
L 3597 3322 
L 3597 2988 
L 3225 2988 
L 2003 0 
L 1581 0 
z
" transform="scale(0.015625)"/>
       <path id="DejaVuSerif-61" d="M 2547 1044 
L 2547 1747 
L 1806 1747 
Q 1378 1747 1168 1562 
Q 959 1378 959 997 
Q 959 650 1171 447 
Q 1384 244 1747 244 
Q 2106 244 2326 466 
Q 2547 688 2547 1044 
z
M 3122 2075 
L 3122 331 
L 3634 331 
L 3634 0 
L 2547 0 
L 2547 359 
Q 2356 128 2106 18 
Q 1856 -91 1522 -91 
Q 969 -91 644 203 
Q 319 497 319 997 
Q 319 1513 691 1797 
Q 1063 2081 1741 2081 
L 2547 2081 
L 2547 2309 
Q 2547 2688 2317 2895 
Q 2088 3103 1672 3103 
Q 1328 3103 1125 2947 
Q 922 2791 872 2484 
L 575 2484 
L 575 3156 
Q 875 3284 1158 3348 
Q 1441 3413 1709 3413 
Q 2400 3413 2761 3070 
Q 3122 2728 3122 2075 
z
" transform="scale(0.015625)"/>
       <path id="DejaVuSerif-72" d="M 3059 3328 
L 3059 2497 
L 2728 2497 
Q 2713 2744 2591 2866 
Q 2469 2988 2234 2988 
Q 1809 2988 1582 2694 
Q 1356 2400 1356 1850 
L 1356 331 
L 2022 331 
L 2022 0 
L 263 0 
L 263 331 
L 781 331 
L 781 2994 
L 231 2994 
L 231 3322 
L 1356 3322 
L 1356 2731 
Q 1525 3078 1790 3245 
Q 2056 3413 2438 3413 
Q 2578 3413 2733 3391 
Q 2888 3369 3059 3328 
z
" transform="scale(0.015625)"/>
       <path id="DejaVuSerif-69" d="M 622 4353 
Q 622 4497 726 4603 
Q 831 4709 978 4709 
Q 1122 4709 1226 4603 
Q 1331 4497 1331 4353 
Q 1331 4206 1228 4103 
Q 1125 4000 978 4000 
Q 831 4000 726 4103 
Q 622 4206 622 4353 
z
M 1356 331 
L 1900 331 
L 1900 0 
L 231 0 
L 231 331 
L 781 331 
L 781 2988 
L 231 2988 
L 231 3322 
L 1356 3322 
L 1356 331 
z
" transform="scale(0.015625)"/>
       <path id="DejaVuSerif-62" d="M 738 331 
L 738 4531 
L 184 4531 
L 184 4863 
L 1313 4863 
L 1313 2803 
Q 1481 3116 1742 3264 
Q 2003 3413 2388 3413 
Q 3000 3413 3387 2928 
Q 3775 2444 3775 1663 
Q 3775 881 3387 395 
Q 3000 -91 2388 -91 
Q 2003 -91 1742 57 
Q 1481 206 1313 519 
L 1313 0 
L 184 0 
L 184 331 
L 738 331 
z
M 1313 1497 
Q 1313 897 1542 583 
Q 1772 269 2209 269 
Q 2650 269 2876 622 
Q 3103 975 3103 1663 
Q 3103 2353 2876 2703 
Q 2650 3053 2209 3053 
Q 1772 3053 1542 2737 
Q 1313 2422 1313 1825 
L 1313 1497 
z
" transform="scale(0.015625)"/>
       <path id="DejaVuSerif-6c" d="M 1313 331 
L 1856 331 
L 1856 0 
L 184 0 
L 184 331 
L 738 331 
L 738 4531 
L 184 4531 
L 184 4863 
L 1313 4863 
L 1313 331 
z
" transform="scale(0.015625)"/>
       <path id="DejaVuSerif-65" d="M 3469 1600 
L 991 1600 
L 991 1575 
Q 991 903 1244 561 
Q 1497 219 1991 219 
Q 2369 219 2611 417 
Q 2853 616 2950 1006 
L 3413 1006 
Q 3275 459 2904 184 
Q 2534 -91 1931 -91 
Q 1203 -91 761 389 
Q 319 869 319 1663 
Q 319 2450 753 2931 
Q 1188 3413 1894 3413 
Q 2647 3413 3050 2948 
Q 3453 2484 3469 1600 
z
M 2791 1931 
Q 2772 2513 2545 2808 
Q 2319 3103 1894 3103 
Q 1497 3103 1269 2806 
Q 1041 2509 991 1931 
L 2791 1931 
z
" transform="scale(0.015625)"/>
       <path id="DejaVuSerif-5f" d="M 3200 -1259 
L 3200 -1509 
L 0 -1509 
L 0 -1259 
L 3200 -1259 
z
" transform="scale(0.015625)"/>
      </defs>
      <use xlink:href="#DejaVuSerif-76"/>
      <use xlink:href="#DejaVuSerif-61" x="56.494141"/>
      <use xlink:href="#DejaVuSerif-72" x="116.113281"/>
      <use xlink:href="#DejaVuSerif-69" x="163.916016"/>
      <use xlink:href="#DejaVuSerif-61" x="195.898438"/>
      <use xlink:href="#DejaVuSerif-62" x="255.517578"/>
      <use xlink:href="#DejaVuSerif-6c" x="319.53125"/>
      <use xlink:href="#DejaVuSerif-65" x="351.513672"/>
      <use xlink:href="#DejaVuSerif-5f" x="410.693359"/>
      <use xlink:href="#DejaVuSerif-31" x="460.693359"/>
     </g>
    </g>
   </g>
   <g id="matplotlib.axis_2">
    <g id="ytick_1">
     <g id="line2d_23">
      <defs>
       <path id="mba7998bcd7" d="M 0 0 
L 6 0 
" style="stroke: #1a1a1a; stroke-width: 0.8"/>
      </defs>
      <g>
       <use xlink:href="#mba7998bcd7" x="63.786719" y="228.96" style="fill: #1a1a1a; stroke: #1a1a1a; stroke-width: 0.8"/>
      </g>
     </g>
     <g id="text_6">
      <!-- $\mathdefault{0}$ -->
      <g style="fill: #1a1a1a" transform="translate(49.186719 234.658828) scale(0.15 -0.15)">
       <use xlink:href="#DejaVuSerif-30" transform="translate(0 0.78125)"/>
      </g>
     </g>
    </g>
    <g id="ytick_2">
     <g id="line2d_24">
      <g>
       <use xlink:href="#mba7998bcd7" x="63.786719" y="182.026667" style="fill: #1a1a1a; stroke: #1a1a1a; stroke-width: 0.8"/>
      </g>
     </g>
     <g id="text_7">
      <!-- $\mathdefault{200}$ -->
      <g style="fill: #1a1a1a" transform="translate(30.136719 187.725495) scale(0.15 -0.15)">
       <defs>
        <path id="DejaVuSerif-32" d="M 819 3553 
L 469 3553 
L 469 4384 
Q 803 4563 1142 4656 
Q 1481 4750 1806 4750 
Q 2534 4750 2956 4397 
Q 3378 4044 3378 3438 
Q 3378 2753 2422 1800 
Q 2347 1728 2309 1691 
L 1131 513 
L 3078 513 
L 3078 1088 
L 3444 1088 
L 3444 0 
L 434 0 
L 434 341 
L 1850 1753 
Q 2319 2222 2519 2614 
Q 2719 3006 2719 3438 
Q 2719 3909 2473 4175 
Q 2228 4441 1797 4441 
Q 1350 4441 1106 4219 
Q 863 3997 819 3553 
z
" transform="scale(0.015625)"/>
       </defs>
       <use xlink:href="#DejaVuSerif-32" transform="translate(0 0.78125)"/>
       <use xlink:href="#DejaVuSerif-30" transform="translate(63.623047 0.78125)"/>
       <use xlink:href="#DejaVuSerif-30" transform="translate(127.246094 0.78125)"/>
      </g>
     </g>
    </g>
    <g id="ytick_3">
     <g id="line2d_25">
      <g>
       <use xlink:href="#mba7998bcd7" x="63.786719" y="135.093333" style="fill: #1a1a1a; stroke: #1a1a1a; stroke-width: 0.8"/>
      </g>
     </g>
     <g id="text_8">
      <!-- $\mathdefault{400}$ -->
      <g style="fill: #1a1a1a" transform="translate(30.136719 140.792161) scale(0.15 -0.15)">
       <defs>
        <path id="DejaVuSerif-34" d="M 2234 1581 
L 2234 4063 
L 641 1581 
L 2234 1581 
z
M 3609 0 
L 1484 0 
L 1484 331 
L 2234 331 
L 2234 1247 
L 197 1247 
L 197 1588 
L 2241 4750 
L 2859 4750 
L 2859 1581 
L 3750 1581 
L 3750 1247 
L 2859 1247 
L 2859 331 
L 3609 331 
L 3609 0 
z
" transform="scale(0.015625)"/>
       </defs>
       <use xlink:href="#DejaVuSerif-34" transform="translate(0 0.78125)"/>
       <use xlink:href="#DejaVuSerif-30" transform="translate(63.623047 0.78125)"/>
       <use xlink:href="#DejaVuSerif-30" transform="translate(127.246094 0.78125)"/>
      </g>
     </g>
    </g>
    <g id="ytick_4">
     <g id="line2d_26">
      <g>
       <use xlink:href="#mba7998bcd7" x="63.786719" y="88.16" style="fill: #1a1a1a; stroke: #1a1a1a; stroke-width: 0.8"/>
      </g>
     </g>
     <g id="text_9">
      <!-- $\mathdefault{600}$ -->
      <g style="fill: #1a1a1a" transform="translate(30.136719 93.858828) scale(0.15 -0.15)">
       <defs>
        <path id="DejaVuSerif-36" d="M 2094 219 
Q 2534 219 2771 542 
Q 3009 866 3009 1472 
Q 3009 2078 2771 2401 
Q 2534 2725 2094 2725 
Q 1647 2725 1412 2412 
Q 1178 2100 1178 1509 
Q 1178 888 1415 553 
Q 1653 219 2094 219 
z
M 1075 2569 
Q 1288 2803 1556 2918 
Q 1825 3034 2163 3034 
Q 2859 3034 3264 2615 
Q 3669 2197 3669 1472 
Q 3669 763 3233 336 
Q 2797 -91 2069 -91 
Q 1278 -91 853 498 
Q 428 1088 428 2181 
Q 428 3406 931 4078 
Q 1434 4750 2350 4750 
Q 2597 4750 2869 4703 
Q 3141 4656 3425 4563 
L 3425 3794 
L 3072 3794 
Q 3034 4109 2831 4275 
Q 2628 4441 2284 4441 
Q 1678 4441 1381 3981 
Q 1084 3522 1075 2569 
z
" transform="scale(0.015625)"/>
       </defs>
       <use xlink:href="#DejaVuSerif-36" transform="translate(0 0.78125)"/>
       <use xlink:href="#DejaVuSerif-30" transform="translate(63.623047 0.78125)"/>
       <use xlink:href="#DejaVuSerif-30" transform="translate(127.246094 0.78125)"/>
      </g>
     </g>
    </g>
    <g id="ytick_5">
     <g id="line2d_27">
      <g>
       <use xlink:href="#mba7998bcd7" x="63.786719" y="41.226667" style="fill: #1a1a1a; stroke: #1a1a1a; stroke-width: 0.8"/>
      </g>
     </g>
     <g id="text_10">
      <!-- $\mathdefault{800}$ -->
      <g style="fill: #1a1a1a" transform="translate(30.136719 46.925495) scale(0.15 -0.15)">
       <defs>
        <path id="DejaVuSerif-38" d="M 2981 1275 
Q 2981 1775 2732 2051 
Q 2484 2328 2034 2328 
Q 1584 2328 1336 2051 
Q 1088 1775 1088 1275 
Q 1088 772 1336 495 
Q 1584 219 2034 219 
Q 2484 219 2732 495 
Q 2981 772 2981 1275 
z
M 2853 3541 
Q 2853 3966 2637 4203 
Q 2422 4441 2034 4441 
Q 1650 4441 1433 4203 
Q 1216 3966 1216 3541 
Q 1216 3113 1433 2875 
Q 1650 2638 2034 2638 
Q 2422 2638 2637 2875 
Q 2853 3113 2853 3541 
z
M 2516 2484 
Q 3047 2413 3344 2092 
Q 3641 1772 3641 1275 
Q 3641 619 3225 264 
Q 2809 -91 2034 -91 
Q 1263 -91 845 264 
Q 428 619 428 1275 
Q 428 1772 725 2092 
Q 1022 2413 1556 2484 
Q 1084 2569 832 2842 
Q 581 3116 581 3541 
Q 581 4103 968 4426 
Q 1356 4750 2034 4750 
Q 2713 4750 3100 4426 
Q 3488 4103 3488 3541 
Q 3488 3116 3236 2842 
Q 2984 2569 2516 2484 
z
" transform="scale(0.015625)"/>
       </defs>
       <use xlink:href="#DejaVuSerif-38" transform="translate(0 0.78125)"/>
       <use xlink:href="#DejaVuSerif-30" transform="translate(63.623047 0.78125)"/>
       <use xlink:href="#DejaVuSerif-30" transform="translate(127.246094 0.78125)"/>
      </g>
     </g>
    </g>
    <g id="ytick_6">
     <g id="line2d_28">
      <defs>
       <path id="m13929f02bd" d="M 0 0 
L 3 0 
" style="stroke: #1a1a1a; stroke-width: 0.6"/>
      </defs>
      <g>
       <use xlink:href="#m13929f02bd" x="63.786719" y="217.226667" style="fill: #1a1a1a; stroke: #1a1a1a; stroke-width: 0.6"/>
      </g>
     </g>
    </g>
    <g id="ytick_7">
     <g id="line2d_29">
      <g>
       <use xlink:href="#m13929f02bd" x="63.786719" y="205.493333" style="fill: #1a1a1a; stroke: #1a1a1a; stroke-width: 0.6"/>
      </g>
     </g>
    </g>
    <g id="ytick_8">
     <g id="line2d_30">
      <g>
       <use xlink:href="#m13929f02bd" x="63.786719" y="193.76" style="fill: #1a1a1a; stroke: #1a1a1a; stroke-width: 0.6"/>
      </g>
     </g>
    </g>
    <g id="ytick_9">
     <g id="line2d_31">
      <g>
       <use xlink:href="#m13929f02bd" x="63.786719" y="170.293333" style="fill: #1a1a1a; stroke: #1a1a1a; stroke-width: 0.6"/>
      </g>
     </g>
    </g>
    <g id="ytick_10">
     <g id="line2d_32">
      <g>
       <use xlink:href="#m13929f02bd" x="63.786719" y="158.56" style="fill: #1a1a1a; stroke: #1a1a1a; stroke-width: 0.6"/>
      </g>
     </g>
    </g>
    <g id="ytick_11">
     <g id="line2d_33">
      <g>
       <use xlink:href="#m13929f02bd" x="63.786719" y="146.826667" style="fill: #1a1a1a; stroke: #1a1a1a; stroke-width: 0.6"/>
      </g>
     </g>
    </g>
    <g id="ytick_12">
     <g id="line2d_34">
      <g>
       <use xlink:href="#m13929f02bd" x="63.786719" y="123.36" style="fill: #1a1a1a; stroke: #1a1a1a; stroke-width: 0.6"/>
      </g>
     </g>
    </g>
    <g id="ytick_13">
     <g id="line2d_35">
      <g>
       <use xlink:href="#m13929f02bd" x="63.786719" y="111.626667" style="fill: #1a1a1a; stroke: #1a1a1a; stroke-width: 0.6"/>
      </g>
     </g>
    </g>
    <g id="ytick_14">
     <g id="line2d_36">
      <g>
       <use xlink:href="#m13929f02bd" x="63.786719" y="99.893333" style="fill: #1a1a1a; stroke: #1a1a1a; stroke-width: 0.6"/>
      </g>
     </g>
    </g>
    <g id="ytick_15">
     <g id="line2d_37">
      <g>
       <use xlink:href="#m13929f02bd" x="63.786719" y="76.426667" style="fill: #1a1a1a; stroke: #1a1a1a; stroke-width: 0.6"/>
      </g>
     </g>
    </g>
    <g id="ytick_16">
     <g id="line2d_38">
      <g>
       <use xlink:href="#m13929f02bd" x="63.786719" y="64.693333" style="fill: #1a1a1a; stroke: #1a1a1a; stroke-width: 0.6"/>
      </g>
     </g>
    </g>
    <g id="ytick_17">
     <g id="line2d_39">
      <g>
       <use xlink:href="#m13929f02bd" x="63.786719" y="52.96" style="fill: #1a1a1a; stroke: #1a1a1a; stroke-width: 0.6"/>
      </g>
     </g>
    </g>
    <g id="ytick_18">
     <g id="line2d_40">
      <g>
       <use xlink:href="#m13929f02bd" x="63.786719" y="29.493333" style="fill: #1a1a1a; stroke: #1a1a1a; stroke-width: 0.6"/>
      </g>
     </g>
    </g>
    <g id="ytick_19">
     <g id="line2d_41">
      <g>
       <use xlink:href="#m13929f02bd" x="63.786719" y="17.76" style="fill: #1a1a1a; stroke: #1a1a1a; stroke-width: 0.6"/>
      </g>
     </g>
    </g>
    <g id="text_11">
     <!-- Entries -->
     <g style="fill: #1a1a1a" transform="translate(20.497266 150.269062) rotate(-90) scale(0.175 -0.175)">
      <defs>
       <path id="DejaVuSerif-45" d="M 353 0 
L 353 331 
L 947 331 
L 947 4331 
L 353 4331 
L 353 4666 
L 4109 4666 
L 4109 3628 
L 3725 3628 
L 3725 4281 
L 1581 4281 
L 1581 2719 
L 3109 2719 
L 3109 3303 
L 3494 3303 
L 3494 1753 
L 3109 1753 
L 3109 2338 
L 1581 2338 
L 1581 384 
L 3775 384 
L 3775 1038 
L 4159 1038 
L 4159 0 
L 353 0 
z
" transform="scale(0.015625)"/>
       <path id="DejaVuSerif-6e" d="M 263 0 
L 263 331 
L 781 331 
L 781 2988 
L 231 2988 
L 231 3322 
L 1356 3322 
L 1356 2731 
Q 1516 3069 1770 3241 
Q 2025 3413 2363 3413 
Q 2913 3413 3172 3097 
Q 3431 2781 3431 2113 
L 3431 331 
L 3944 331 
L 3944 0 
L 2356 0 
L 2356 331 
L 2853 331 
L 2853 1931 
Q 2853 2541 2703 2767 
Q 2553 2994 2175 2994 
Q 1775 2994 1565 2701 
Q 1356 2409 1356 1850 
L 1356 331 
L 1856 331 
L 1856 0 
L 263 0 
z
" transform="scale(0.015625)"/>
       <path id="DejaVuSerif-74" d="M 691 2988 
L 184 2988 
L 184 3322 
L 691 3322 
L 691 4353 
L 1269 4353 
L 1269 3322 
L 2350 3322 
L 2350 2988 
L 1269 2988 
L 1269 878 
Q 1269 456 1350 337 
Q 1431 219 1650 219 
Q 1875 219 1978 351 
Q 2081 484 2088 781 
L 2522 781 
Q 2497 328 2275 118 
Q 2053 -91 1600 -91 
Q 1103 -91 897 129 
Q 691 350 691 878 
L 691 2988 
z
" transform="scale(0.015625)"/>
       <path id="DejaVuSerif-73" d="M 359 184 
L 359 959 
L 691 959 
Q 703 588 923 403 
Q 1144 219 1575 219 
Q 1963 219 2166 364 
Q 2369 509 2369 788 
Q 2369 1006 2220 1140 
Q 2072 1275 1594 1428 
L 1178 1569 
Q 750 1706 558 1912 
Q 366 2119 366 2438 
Q 366 2894 700 3153 
Q 1034 3413 1625 3413 
Q 1888 3413 2178 3344 
Q 2469 3275 2778 3144 
L 2778 2419 
L 2447 2419 
Q 2434 2741 2221 2922 
Q 2009 3103 1644 3103 
Q 1281 3103 1095 2975 
Q 909 2847 909 2591 
Q 909 2381 1050 2254 
Q 1191 2128 1613 1997 
L 2069 1856 
Q 2541 1709 2748 1489 
Q 2956 1269 2956 922 
Q 2956 450 2595 179 
Q 2234 -91 1600 -91 
Q 1278 -91 972 -22 
Q 666 47 359 184 
z
" transform="scale(0.015625)"/>
      </defs>
      <use xlink:href="#DejaVuSerif-45"/>
      <use xlink:href="#DejaVuSerif-6e" x="72.998047"/>
      <use xlink:href="#DejaVuSerif-74" x="137.402344"/>
      <use xlink:href="#DejaVuSerif-72" x="177.587891"/>
      <use xlink:href="#DejaVuSerif-69" x="225.390625"/>
      <use xlink:href="#DejaVuSerif-65" x="257.373047"/>
      <use xlink:href="#DejaVuSerif-73" x="316.552734"/>
     </g>
    </g>
   </g>
   <g id="legend_1">
    <g id="patch_9">
     <path d="M 74.586719 27.118125 
L 98.586719 27.118125 
L 98.586719 18.718125 
L 74.586719 18.718125 
L 74.586719 27.118125 
z
" style="fill: none; stroke: #348abd; stroke-width: 1.2; stroke-linejoin: miter"/>
    </g>
    <g id="text_12">
     <!-- c1 -->
     <g style="fill: #1a1a1a" transform="translate(108.186719 27.118125) scale(0.12 -0.12)">
      <defs>
       <path id="DejaVuSerif-63" d="M 3291 997 
Q 3169 466 2822 187 
Q 2475 -91 1925 -91 
Q 1200 -91 759 389 
Q 319 869 319 1663 
Q 319 2459 759 2936 
Q 1200 3413 1925 3413 
Q 2241 3413 2553 3339 
Q 2866 3266 3181 3116 
L 3181 2266 
L 2847 2266 
Q 2781 2703 2561 2903 
Q 2341 3103 1931 3103 
Q 1466 3103 1228 2742 
Q 991 2381 991 1663 
Q 991 944 1227 581 
Q 1463 219 1931 219 
Q 2303 219 2525 412 
Q 2747 606 2828 997 
L 3291 997 
z
" transform="scale(0.015625)"/>
      </defs>
      <use xlink:href="#DejaVuSerif-63"/>
      <use xlink:href="#DejaVuSerif-31" x="56.005859"/>
     </g>
    </g>
    <g id="patch_10">
     <path d="M 74.586719 44.731875 
L 98.586719 44.731875 
L 98.586719 36.331875 
L 74.586719 36.331875 
L 74.586719 44.731875 
z
" style="fill: none; stroke: #e24a33; stroke-width: 1.2; stroke-linejoin: miter"/>
    </g>
    <g id="text_13">
     <!-- c2 -->
     <g style="fill: #1a1a1a" transform="translate(108.186719 44.731875) scale(0.12 -0.12)">
      <use xlink:href="#DejaVuSerif-63"/>
      <use xlink:href="#DejaVuSerif-32" x="56.005859"/>
     </g>
    </g>
    <g id="line2d_42">
     <path d="M 74.586719 58.145625 
L 86.586719 58.145625 
L 98.586719 58.145625 
" style="fill: none; stroke: #008000; stroke-width: 1.5; stroke-linecap: round"/>
    </g>
    <g id="text_14">
     <!-- Gaussian -->
     <g style="fill: #1a1a1a" transform="translate(108.186719 62.345625) scale(0.12 -0.12)">
      <defs>
       <path id="DejaVuSerif-47" d="M 4097 3272 
Q 3988 3856 3641 4136 
Q 3294 4416 2675 4416 
Q 1869 4416 1472 3897 
Q 1075 3378 1075 2328 
Q 1075 1300 1484 772 
Q 1894 244 2688 244 
Q 3041 244 3362 331 
Q 3684 419 3975 594 
L 3975 1797 
L 3097 1797 
L 3097 2131 
L 4609 2131 
L 4609 391 
Q 4194 150 3714 29 
Q 3234 -91 2688 -91 
Q 1631 -91 995 570 
Q 359 1231 359 2328 
Q 359 3434 996 4092 
Q 1634 4750 2713 4750 
Q 3113 4750 3539 4658 
Q 3966 4566 4447 4378 
L 4447 3272 
L 4097 3272 
z
" transform="scale(0.015625)"/>
       <path id="DejaVuSerif-75" d="M 2266 3322 
L 3341 3322 
L 3341 331 
L 3884 331 
L 3884 0 
L 2766 0 
L 2766 588 
Q 2606 256 2353 82 
Q 2100 -91 1766 -91 
Q 1213 -91 952 223 
Q 691 538 691 1209 
L 691 2988 
L 172 2988 
L 172 3322 
L 1269 3322 
L 1269 1388 
Q 1269 781 1417 556 
Q 1566 331 1947 331 
Q 2347 331 2556 625 
Q 2766 919 2766 1478 
L 2766 2988 
L 2266 2988 
L 2266 3322 
z
" transform="scale(0.015625)"/>
      </defs>
      <use xlink:href="#DejaVuSerif-47"/>
      <use xlink:href="#DejaVuSerif-61" x="79.882812"/>
      <use xlink:href="#DejaVuSerif-75" x="139.501953"/>
      <use xlink:href="#DejaVuSerif-73" x="203.90625"/>
      <use xlink:href="#DejaVuSerif-73" x="255.224609"/>
      <use xlink:href="#DejaVuSerif-69" x="306.542969"/>
      <use xlink:href="#DejaVuSerif-61" x="338.525391"/>
      <use xlink:href="#DejaVuSerif-6e" x="398.144531"/>
     </g>
    </g>
    <g id="LineCollection_2">
     <path d="M 86.586719 81.759375 
L 86.586719 69.759375 
" style="fill: none; stroke: #000000; stroke-width: 1.5"/>
    </g>
    <g id="line2d_43"/>
    <g id="line2d_44">
     <g>
      <use xlink:href="#m94bf316322" x="86.586719" y="75.759375" style="stroke: #000000"/>
     </g>
    </g>
    <g id="text_15">
     <!-- c3 -->
     <g style="fill: #1a1a1a" transform="translate(108.186719 79.959375) scale(0.12 -0.12)">
      <defs>
       <path id="DejaVuSerif-33" d="M 622 4469 
Q 988 4606 1323 4678 
Q 1659 4750 1953 4750 
Q 2638 4750 3022 4454 
Q 3406 4159 3406 3634 
Q 3406 3213 3140 2930 
Q 2875 2647 2388 2547 
Q 2963 2466 3280 2130 
Q 3597 1794 3597 1259 
Q 3597 606 3158 257 
Q 2719 -91 1894 -91 
Q 1528 -91 1179 -12 
Q 831 66 488 225 
L 488 1131 
L 838 1131 
Q 869 681 1141 450 
Q 1413 219 1906 219 
Q 2384 219 2661 495 
Q 2938 772 2938 1253 
Q 2938 1803 2653 2086 
Q 2369 2369 1819 2369 
L 1522 2369 
L 1522 2688 
L 1678 2688 
Q 2225 2688 2498 2914 
Q 2772 3141 2772 3597 
Q 2772 4006 2547 4223 
Q 2322 4441 1900 4441 
Q 1478 4441 1245 4241 
Q 1013 4041 972 3647 
L 622 3647 
L 622 4469 
z
" transform="scale(0.015625)"/>
      </defs>
      <use xlink:href="#DejaVuSerif-63"/>
      <use xlink:href="#DejaVuSerif-33" x="56.005859"/>
     </g>
    </g>
   </g>
  </g>
 </g>
 <defs>
  <clipPath id="pc131ec4169">
   <rect x="63.786719" y="7.2" width="334.8" height="221.76"/>
  </clipPath>
 </defs>
</svg>
