<?xml version="1.0" encoding="utf-8" standalone="no"?>
<!DOCTYPE svg PUBLIC "-//W3C//DTD SVG 1.1//EN"
  "http://www.w3.org/Graphics/SVG/1.1/DTD/svg11.dtd">
<svg xmlns:xlink="http://www.w3.org/1999/xlink" width="727.2pt" height="69.84pt" viewBox="0 0 727.2 69.84" xmlns="http://www.w3.org/2000/svg" version="1.1">
 <metadata>
  <rdf:RDF xmlns:dc="http://purl.org/dc/elements/1.1/" xmlns:cc="http://creativecommons.org/ns#" xmlns:rdf="http://www.w3.org/1999/02/22-rdf-syntax-ns#">
   <cc:Work>
    <dc:type rdf:resource="http://purl.org/dc/dcmitype/StillImage"/>
    <dc:date>2023-06-22T18:22:05.797454</dc:date>
    <dc:format>image/svg+xml</dc:format>
    <dc:creator>
     <cc:Agent>
      <dc:title>Matplotlib v3.7.1, https://matplotlib.org/</dc:title>
     </cc:Agent>
    </dc:creator>
   </cc:Work>
  </rdf:RDF>
 </metadata>
 <defs>
  <style type="text/css">*{stroke-linejoin: round; stroke-linecap: butt}</style>
 </defs>
 <g id="figure_1">
  <g id="patch_1">
   <path d="M 0 69.84 
L 727.2 69.84 
L 727.2 0 
L 0 0 
z
" style="fill: #ffffff"/>
  </g>
  <g id="axes_1">
   <g id="patch_2">
    <path d="M 35.712 62.64 
L 92.736 62.64 
L 92.736 7.2 
L 35.712 7.2 
z
" clip-path="url(#pf4e21a1ecb)" style="fill: #3d4c74; stroke: #3d4c74; stroke-linejoin: miter"/>
   </g>
   <g id="patch_3">
    <path d="M 98.4384 62.64 
L 155.4624 62.64 
L 155.4624 7.2 
L 98.4384 7.2 
z
" clip-path="url(#pf4e21a1ecb)" style="fill: #5c4f86; stroke: #5c4f86; stroke-linejoin: miter"/>
   </g>
   <g id="patch_4">
    <path d="M 161.1648 62.64 
L 218.1888 62.64 
L 218.1888 7.2 
L 161.1648 7.2 
z
" clip-path="url(#pf4e21a1ecb)" style="fill: #7d538d; stroke: #7d538d; stroke-linejoin: miter"/>
   </g>
   <g id="patch_5">
    <path d="M 223.8912 62.64 
L 280.9152 62.64 
L 280.9152 7.2 
L 223.8912 7.2 
z
" clip-path="url(#pf4e21a1ecb)" style="fill: #9a5b89; stroke: #9a5b89; stroke-linejoin: miter"/>
   </g>
   <g id="patch_6">
    <path d="M 286.6176 62.64 
L 343.6416 62.64 
L 343.6416 7.2 
L 286.6176 7.2 
z
" clip-path="url(#pf4e21a1ecb)" style="fill: #ae697f; stroke: #ae697f; stroke-linejoin: miter"/>
   </g>
   <g id="patch_7">
    <path d="M 349.344 62.64 
L 406.368 62.64 
L 406.368 7.2 
L 349.344 7.2 
z
" clip-path="url(#pf4e21a1ecb)" style="fill: #b67b76; stroke: #b67b76; stroke-linejoin: miter"/>
   </g>
   <g id="patch_8">
    <path d="M 412.0704 62.64 
L 469.0944 62.64 
L 469.0944 7.2 
L 412.0704 7.2 
z
" clip-path="url(#pf4e21a1ecb)" style="fill: #b69272; stroke: #b69272; stroke-linejoin: miter"/>
   </g>
   <g id="patch_9">
    <path d="M 474.7968 62.64 
L 531.8208 62.64 
L 531.8208 7.2 
L 474.7968 7.2 
z
" clip-path="url(#pf4e21a1ecb)" style="fill: #afaa79; stroke: #afaa79; stroke-linejoin: miter"/>
   </g>
   <g id="patch_10">
    <path d="M 537.5232 62.64 
L 594.5472 62.64 
L 594.5472 7.2 
L 537.5232 7.2 
z
" clip-path="url(#pf4e21a1ecb)" style="fill: #aabf8b; stroke: #aabf8b; stroke-linejoin: miter"/>
   </g>
   <g id="patch_11">
    <path d="M 600.2496 62.64 
L 657.2736 62.64 
L 657.2736 7.2 
L 600.2496 7.2 
z
" clip-path="url(#pf4e21a1ecb)" style="fill: #a9d0a6; stroke: #a9d0a6; stroke-linejoin: miter"/>
   </g>
   <g id="patch_12">
    <path d="M 662.976 62.64 
L 720 62.64 
L 720 7.2 
L 662.976 7.2 
z
" clip-path="url(#pf4e21a1ecb)" style="fill: #b1dcc2; stroke: #b1dcc2; stroke-linejoin: miter"/>
   </g>
   <g id="patch_13">
    <path d="M 35.712 62.64 
L 720 62.64 
L 720 7.2 
L 35.712 7.2 
L 35.712 62.64 
z
" clip-path="url(#pf4e21a1ecb)" style="fill: none; stroke: #000000; stroke-linejoin: miter"/>
   </g>
  </g>
 </g>
 <defs>
  <clipPath id="pf4e21a1ecb">
   <rect x="7.2" y="7.2" width="712.8" height="55.44"/>
  </clipPath>
 </defs>
</svg>
