<?xml version="1.0" encoding="utf-8" standalone="no"?>
<!DOCTYPE svg PUBLIC "-//W3C//DTD SVG 1.1//EN"
  "http://www.w3.org/Graphics/SVG/1.1/DTD/svg11.dtd">
<svg xmlns:xlink="http://www.w3.org/1999/xlink" width="407.35625pt" height="295.310848pt" viewBox="0 0 407.35625 295.310848" xmlns="http://www.w3.org/2000/svg" version="1.1">
 <metadata>
  <rdf:RDF xmlns:dc="http://purl.org/dc/elements/1.1/" xmlns:cc="http://creativecommons.org/ns#" xmlns:rdf="http://www.w3.org/1999/02/22-rdf-syntax-ns#">
   <cc:Work>
    <dc:type rdf:resource="http://purl.org/dc/dcmitype/StillImage"/>
    <dc:date>2023-06-16T13:58:47.961735</dc:date>
    <dc:format>image/svg+xml</dc:format>
    <dc:creator>
     <cc:Agent>
      <dc:title>Matplotlib v3.7.1, https://matplotlib.org/</dc:title>
     </cc:Agent>
    </dc:creator>
   </cc:Work>
  </rdf:RDF>
 </metadata>
 <defs>
  <style type="text/css">*{stroke-linejoin: round; stroke-linecap: butt}</style>
 </defs>
 <g id="figure_1">
  <g id="patch_1">
   <path d="M 0 295.310848 
L 407.35625 295.310848 
L 407.35625 0 
L 0 0 
z
" style="fill: #ffffff"/>
  </g>
  <g id="axes_1">
   <g id="patch_2">
    <path d="M 60.55625 189.199698 
L 395.35625 189.199698 
L 395.35625 21.83366 
L 60.55625 21.83366 
z
" style="fill: #ffffff"/>
   </g>
   <g id="patch_3">
    <path d="M 60.55625 154.313921 
L 60.55625 151.830209 
L 102.40625 151.830209 
L 102.40625 99.846318 
L 144.25625 99.846318 
L 144.25625 99.083129 
L 186.10625 99.083129 
L 186.10625 176.064811 
L 227.95625 176.064811 
L 227.95625 171.612875 
L 269.80625 171.612875 
L 269.80625 105.061444 
L 311.65625 105.061444 
L 311.65625 52.146997 
L 353.50625 52.146997 
L 353.50625 144.646859 
L 395.35625 144.646859 
L 395.35625 149.29294 
L 353.50625 149.29294 
L 353.50625 65.6367 
L 311.65625 65.6367 
L 311.65625 121.423147 
L 269.80625 121.423147 
L 269.80625 176.593688 
L 227.95625 176.593688 
L 227.95625 179.525941 
L 186.10625 179.525941 
L 186.10625 110.457325 
L 144.25625 110.457325 
L 144.25625 116.6097 
L 102.40625 116.6097 
L 102.40625 154.313921 
z
" clip-path="url(#p2573b96530)" style="fill: #b1dcc2; stroke: #000000; stroke-width: 0.5; stroke-linejoin: miter"/>
   </g>
   <g id="patch_4">
    <path d="M 60.55625 155.257866 
L 60.55625 154.313921 
L 102.40625 154.313921 
L 102.40625 116.6097 
L 144.25625 116.6097 
L 144.25625 110.457325 
L 186.10625 110.457325 
L 186.10625 179.525941 
L 227.95625 179.525941 
L 227.95625 176.593688 
L 269.80625 176.593688 
L 269.80625 121.423147 
L 311.65625 121.423147 
L 311.65625 65.6367 
L 353.50625 65.6367 
L 353.50625 149.29294 
L 395.35625 149.29294 
L 395.35625 153.356587 
L 353.50625 153.356587 
L 353.50625 97.777674 
L 311.65625 97.777674 
L 311.65625 146.046039 
L 269.80625 146.046039 
L 269.80625 181.614669 
L 227.95625 181.614669 
L 227.95625 180.905037 
L 186.10625 180.905037 
L 186.10625 113.235601 
L 144.25625 113.235601 
L 144.25625 119.662457 
L 102.40625 119.662457 
L 102.40625 155.257866 
z
" clip-path="url(#p2573b96530)" style="fill: #a9c593; stroke: #000000; stroke-width: 0.5; stroke-linejoin: miter"/>
   </g>
   <g id="patch_5">
    <path d="M 60.55625 155.806826 
L 60.55625 155.257866 
L 102.40625 155.257866 
L 102.40625 119.662457 
L 144.25625 119.662457 
L 144.25625 113.235601 
L 186.10625 113.235601 
L 186.10625 180.905037 
L 227.95625 180.905037 
L 227.95625 181.614669 
L 269.80625 181.614669 
L 269.80625 146.046039 
L 311.65625 146.046039 
L 311.65625 97.777674 
L 353.50625 97.777674 
L 353.50625 153.356587 
L 395.35625 153.356587 
L 395.35625 165.888956 
L 353.50625 165.888956 
L 353.50625 115.069933 
L 311.65625 115.069933 
L 311.65625 147.103792 
L 269.80625 147.103792 
L 269.80625 181.654837 
L 227.95625 181.654837 
L 227.95625 182.926819 
L 186.10625 182.926819 
L 186.10625 142.223399 
L 144.25625 142.223399 
L 144.25625 130.15296 
L 102.40625 130.15296 
L 102.40625 155.806826 
z
" clip-path="url(#p2573b96530)" style="fill: #b2a275; stroke: #000000; stroke-width: 0.5; stroke-linejoin: miter"/>
   </g>
   <g id="patch_6">
    <path d="M 60.55625 165.219492 
L 60.55625 155.806826 
L 102.40625 155.806826 
L 102.40625 130.15296 
L 144.25625 130.15296 
L 144.25625 142.223399 
L 186.10625 142.223399 
L 186.10625 182.926819 
L 227.95625 182.926819 
L 227.95625 181.654837 
L 269.80625 181.654837 
L 269.80625 147.103792 
L 311.65625 147.103792 
L 311.65625 115.069933 
L 353.50625 115.069933 
L 353.50625 165.888956 
L 395.35625 165.888956 
L 395.35625 175.964392 
L 353.50625 175.964392 
L 353.50625 143.823418 
L 311.65625 143.823418 
L 311.65625 161.450409 
L 269.80625 161.450409 
L 269.80625 183.408833 
L 227.95625 183.408833 
L 227.95625 183.040628 
L 186.10625 183.040628 
L 186.10625 144.666943 
L 144.25625 144.666943 
L 144.25625 136.258473 
L 102.40625 136.258473 
L 102.40625 165.219492 
z
" clip-path="url(#p2573b96530)" style="fill: #b67b76; stroke: #000000; stroke-width: 0.5; stroke-linejoin: miter"/>
   </g>
   <g id="patch_7">
    <path d="M 60.55625 165.581003 
L 60.55625 165.219492 
L 102.40625 165.219492 
L 102.40625 136.258473 
L 144.25625 136.258473 
L 144.25625 144.666943 
L 186.10625 144.666943 
L 186.10625 183.040628 
L 227.95625 183.040628 
L 227.95625 183.408833 
L 269.80625 183.408833 
L 269.80625 161.450409 
L 311.65625 161.450409 
L 311.65625 143.823418 
L 353.50625 143.823418 
L 353.50625 175.964392 
L 395.35625 175.964392 
L 395.35625 182.618866 
L 353.50625 182.618866 
L 353.50625 166.310719 
L 311.65625 166.310719 
L 311.65625 171.545928 
L 269.80625 171.545928 
L 269.80625 184.466587 
L 227.95625 184.466587 
L 227.95625 187.813907 
L 186.10625 187.813907 
L 186.10625 166.243772 
L 144.25625 166.243772 
L 144.25625 143.334709 
L 102.40625 143.334709 
L 102.40625 165.581003 
z
" clip-path="url(#p2573b96530)" style="fill: #a15f86; stroke: #000000; stroke-width: 0.5; stroke-linejoin: miter"/>
   </g>
   <g id="patch_8">
    <path d="M 60.55625 183.783733 
L 60.55625 165.581003 
L 102.40625 165.581003 
L 102.40625 143.334709 
L 144.25625 143.334709 
L 144.25625 166.243772 
L 186.10625 166.243772 
L 186.10625 187.813907 
L 227.95625 187.813907 
L 227.95625 184.466587 
L 269.80625 184.466587 
L 269.80625 171.545928 
L 311.65625 171.545928 
L 311.65625 166.310719 
L 353.50625 166.310719 
L 353.50625 182.618866 
L 395.35625 182.618866 
L 395.35625 183.147742 
L 353.50625 183.147742 
L 353.50625 171.666432 
L 311.65625 171.666432 
L 311.65625 182.016348 
L 269.80625 182.016348 
L 269.80625 188.871661 
L 227.95625 188.871661 
L 227.95625 188.382952 
L 186.10625 188.382952 
L 186.10625 176.479879 
L 144.25625 176.479879 
L 144.25625 165.681422 
L 102.40625 165.681422 
L 102.40625 183.783733 
z
" clip-path="url(#p2573b96530)" style="fill: #73528c; stroke: #000000; stroke-width: 0.5; stroke-linejoin: miter"/>
   </g>
   <g id="patch_9">
    <path d="M 60.55625 189.199698 
L 60.55625 183.783733 
L 102.40625 183.783733 
L 102.40625 165.681422 
L 144.25625 165.681422 
L 144.25625 176.479879 
L 186.10625 176.479879 
L 186.10625 188.382952 
L 227.95625 188.382952 
L 227.95625 188.871661 
L 269.80625 188.871661 
L 269.80625 182.016348 
L 311.65625 182.016348 
L 311.65625 171.666432 
L 353.50625 171.666432 
L 353.50625 183.147742 
L 395.35625 183.147742 
L 395.35625 189.199698 
L 353.50625 189.199698 
L 353.50625 189.199698 
L 311.65625 189.199698 
L 311.65625 189.199698 
L 269.80625 189.199698 
L 269.80625 189.199698 
L 227.95625 189.199698 
L 227.95625 189.199698 
L 186.10625 189.199698 
L 186.10625 189.199698 
L 144.25625 189.199698 
L 144.25625 189.199698 
L 102.40625 189.199698 
L 102.40625 189.199698 
z
" clip-path="url(#p2573b96530)" style="fill: #3d4c74; stroke: #000000; stroke-width: 0.5; stroke-linejoin: miter"/>
   </g>
   <g id="patch_10">
    <path d="M 60.55625 152.330385 
L 102.40625 152.330385 
L 102.40625 151.330034 
L 60.55625 151.330034 
z
" clip-path="url(#p2573b96530)" style="fill: url(#he507dcfb73)"/>
   </g>
   <g id="patch_11">
    <path d="M 102.40625 100.619745 
L 144.25625 100.619745 
L 144.25625 99.072891 
L 102.40625 99.072891 
z
" clip-path="url(#p2573b96530)" style="fill: url(#he507dcfb73)"/>
   </g>
   <g id="patch_12">
    <path d="M 144.25625 99.859851 
L 186.10625 99.859851 
L 186.10625 98.306406 
L 144.25625 98.306406 
z
" clip-path="url(#p2573b96530)" style="fill: url(#he507dcfb73)"/>
   </g>
   <g id="patch_13">
    <path d="M 186.10625 176.361347 
L 227.95625 176.361347 
L 227.95625 175.768276 
L 186.10625 175.768276 
z
" clip-path="url(#p2573b96530)" style="fill: url(#he507dcfb73)"/>
   </g>
   <g id="patch_14">
    <path d="M 227.95625 171.956004 
L 269.80625 171.956004 
L 269.80625 171.269746 
L 227.95625 171.269746 
z
" clip-path="url(#p2573b96530)" style="fill: url(#he507dcfb73)"/>
   </g>
   <g id="patch_15">
    <path d="M 269.80625 105.81196 
L 311.65625 105.81196 
L 311.65625 104.310927 
L 269.80625 104.310927 
z
" clip-path="url(#p2573b96530)" style="fill: url(#he507dcfb73)"/>
   </g>
   <g id="patch_16">
    <path d="M 311.65625 53.104869 
L 353.50625 53.104869 
L 353.50625 51.189125 
L 311.65625 51.189125 
z
" clip-path="url(#p2573b96530)" style="fill: url(#he507dcfb73)"/>
   </g>
   <g id="patch_17">
    <path d="M 353.50625 145.192996 
L 395.35625 145.192996 
L 395.35625 144.100722 
L 353.50625 144.100722 
z
" clip-path="url(#p2573b96530)" style="fill: url(#he507dcfb73)"/>
   </g>
   <g id="patch_18">
    <path d="M 60.55625 189.199698 
L 60.55625 187.164527 
L 102.40625 187.164527 
L 102.40625 185.591286 
L 144.25625 185.591286 
L 144.25625 179.458995 
L 186.10625 179.458995 
L 186.10625 184.245663 
L 227.95625 184.245663 
L 227.95625 183.810512 
L 269.80625 183.810512 
L 269.80625 169.222888 
L 311.65625 169.222888 
L 311.65625 169.102384 
L 353.50625 169.102384 
L 353.50625 182.023042 
L 395.35625 182.023042 
L 395.35625 189.199698 
" clip-path="url(#p2573b96530)" style="fill: none; stroke: #ff0000; stroke-linejoin: miter"/>
   </g>
   <g id="LineCollection_1">
    <path d="M 81.48125 188.514369 
L 81.48125 188.372039 
" clip-path="url(#p2573b96530)" style="fill: none; stroke: #000000; stroke-width: 1.5"/>
    <path d="M 123.33125 171.226703 
L 123.33125 170.526225 
" clip-path="url(#p2573b96530)" style="fill: none; stroke: #000000; stroke-width: 1.5"/>
    <path d="M 165.18125 157.655517 
L 165.18125 156.729718 
" clip-path="url(#p2573b96530)" style="fill: none; stroke: #000000; stroke-width: 1.5"/>
    <path d="M 207.03125 186.401019 
L 207.03125 186.120482 
" clip-path="url(#p2573b96530)" style="fill: none; stroke: #000000; stroke-width: 1.5"/>
    <path d="M 248.88125 189.017233 
L 248.88125 188.940317 
" clip-path="url(#p2573b96530)" style="fill: none; stroke: #000000; stroke-width: 1.5"/>
    <path d="M 290.73125 187.320262 
L 290.73125 187.089128 
" clip-path="url(#p2573b96530)" style="fill: none; stroke: #000000; stroke-width: 1.5"/>
    <path d="M 332.58125 181.087887 
L 332.58125 180.615073 
" clip-path="url(#p2573b96530)" style="fill: none; stroke: #000000; stroke-width: 1.5"/>
    <path d="M 374.43125 180.658819 
L 374.43125 180.173838 
" clip-path="url(#p2573b96530)" style="fill: none; stroke: #000000; stroke-width: 1.5"/>
   </g>
   <g id="line2d_1">
    <defs>
     <path id="mb7f55484e0" d="M 0 1.5 
C 0.397805 1.5 0.77937 1.341951 1.06066 1.06066 
C 1.341951 0.77937 1.5 0.397805 1.5 0 
C 1.5 -0.397805 1.341951 -0.77937 1.06066 -1.06066 
C 0.77937 -1.341951 0.397805 -1.5 0 -1.5 
C -0.397805 -1.5 -0.77937 -1.341951 -1.06066 -1.06066 
C -1.341951 -0.77937 -1.5 -0.397805 -1.5 0 
C -1.5 0.397805 -1.341951 0.77937 -1.06066 1.06066 
C -0.77937 1.341951 -0.397805 1.5 0 1.5 
z
" style="stroke: #000000"/>
    </defs>
    <g clip-path="url(#p2573b96530)">
     <use xlink:href="#mb7f55484e0" x="81.48125" y="188.443204" style="stroke: #000000"/>
     <use xlink:href="#mb7f55484e0" x="123.33125" y="170.876464" style="stroke: #000000"/>
     <use xlink:href="#mb7f55484e0" x="165.18125" y="157.192617" style="stroke: #000000"/>
     <use xlink:href="#mb7f55484e0" x="207.03125" y="186.26075" style="stroke: #000000"/>
     <use xlink:href="#mb7f55484e0" x="248.88125" y="188.978775" style="stroke: #000000"/>
     <use xlink:href="#mb7f55484e0" x="290.73125" y="187.204695" style="stroke: #000000"/>
     <use xlink:href="#mb7f55484e0" x="332.58125" y="180.85148" style="stroke: #000000"/>
     <use xlink:href="#mb7f55484e0" x="374.43125" y="180.416328" style="stroke: #000000"/>
    </g>
   </g>
   <g id="patch_19">
    <path d="M 60.55625 189.199698 
L 60.55625 21.83366 
" style="fill: none; stroke: #000000; stroke-width: 1.2; stroke-linejoin: miter; stroke-linecap: square"/>
   </g>
   <g id="patch_20">
    <path d="M 395.35625 189.199698 
L 395.35625 21.83366 
" style="fill: none; stroke: #000000; stroke-width: 1.2; stroke-linejoin: miter; stroke-linecap: square"/>
   </g>
   <g id="patch_21">
    <path d="M 60.55625 189.199698 
L 395.35625 189.199698 
" style="fill: none; stroke: #000000; stroke-width: 1.2; stroke-linejoin: miter; stroke-linecap: square"/>
   </g>
   <g id="patch_22">
    <path d="M 60.55625 21.83366 
L 395.35625 21.83366 
" style="fill: none; stroke: #000000; stroke-width: 1.2; stroke-linejoin: miter; stroke-linecap: square"/>
   </g>
   <g id="matplotlib.axis_1">
    <g id="xtick_1">
     <g id="line2d_2">
      <defs>
       <path id="mfcb4db38d1" d="M 0 0 
L 0 -6 
" style="stroke: #1a1a1a; stroke-width: 0.8"/>
      </defs>
      <g>
       <use xlink:href="#mfcb4db38d1" x="60.55625" y="189.199698" style="fill: #1a1a1a; stroke: #1a1a1a; stroke-width: 0.8"/>
      </g>
     </g>
     <g id="line2d_3">
      <defs>
       <path id="me56bbe9ba7" d="M 0 0 
L 0 6 
" style="stroke: #1a1a1a; stroke-width: 0.8"/>
      </defs>
      <g>
       <use xlink:href="#me56bbe9ba7" x="60.55625" y="21.83366" style="fill: #1a1a1a; stroke: #1a1a1a; stroke-width: 0.8"/>
      </g>
     </g>
    </g>
    <g id="xtick_2">
     <g id="line2d_4">
      <g>
       <use xlink:href="#mfcb4db38d1" x="144.25625" y="189.199698" style="fill: #1a1a1a; stroke: #1a1a1a; stroke-width: 0.8"/>
      </g>
     </g>
     <g id="line2d_5">
      <g>
       <use xlink:href="#me56bbe9ba7" x="144.25625" y="21.83366" style="fill: #1a1a1a; stroke: #1a1a1a; stroke-width: 0.8"/>
      </g>
     </g>
    </g>
    <g id="xtick_3">
     <g id="line2d_6">
      <g>
       <use xlink:href="#mfcb4db38d1" x="227.95625" y="189.199698" style="fill: #1a1a1a; stroke: #1a1a1a; stroke-width: 0.8"/>
      </g>
     </g>
     <g id="line2d_7">
      <g>
       <use xlink:href="#me56bbe9ba7" x="227.95625" y="21.83366" style="fill: #1a1a1a; stroke: #1a1a1a; stroke-width: 0.8"/>
      </g>
     </g>
    </g>
    <g id="xtick_4">
     <g id="line2d_8">
      <g>
       <use xlink:href="#mfcb4db38d1" x="311.65625" y="189.199698" style="fill: #1a1a1a; stroke: #1a1a1a; stroke-width: 0.8"/>
      </g>
     </g>
     <g id="line2d_9">
      <g>
       <use xlink:href="#me56bbe9ba7" x="311.65625" y="21.83366" style="fill: #1a1a1a; stroke: #1a1a1a; stroke-width: 0.8"/>
      </g>
     </g>
    </g>
    <g id="xtick_5">
     <g id="line2d_10">
      <g>
       <use xlink:href="#mfcb4db38d1" x="395.35625" y="189.199698" style="fill: #1a1a1a; stroke: #1a1a1a; stroke-width: 0.8"/>
      </g>
     </g>
     <g id="line2d_11">
      <g>
       <use xlink:href="#me56bbe9ba7" x="395.35625" y="21.83366" style="fill: #1a1a1a; stroke: #1a1a1a; stroke-width: 0.8"/>
      </g>
     </g>
    </g>
    <g id="xtick_6">
     <g id="line2d_12">
      <defs>
       <path id="m500bf0ca1c" d="M 0 0 
L 0 -3 
" style="stroke: #1a1a1a; stroke-width: 0.6"/>
      </defs>
      <g>
       <use xlink:href="#m500bf0ca1c" x="81.48125" y="189.199698" style="fill: #1a1a1a; stroke: #1a1a1a; stroke-width: 0.6"/>
      </g>
     </g>
     <g id="line2d_13">
      <defs>
       <path id="md4cce523db" d="M 0 0 
L 0 3 
" style="stroke: #1a1a1a; stroke-width: 0.6"/>
      </defs>
      <g>
       <use xlink:href="#md4cce523db" x="81.48125" y="21.83366" style="fill: #1a1a1a; stroke: #1a1a1a; stroke-width: 0.6"/>
      </g>
     </g>
    </g>
    <g id="xtick_7">
     <g id="line2d_14">
      <g>
       <use xlink:href="#m500bf0ca1c" x="102.40625" y="189.199698" style="fill: #1a1a1a; stroke: #1a1a1a; stroke-width: 0.6"/>
      </g>
     </g>
     <g id="line2d_15">
      <g>
       <use xlink:href="#md4cce523db" x="102.40625" y="21.83366" style="fill: #1a1a1a; stroke: #1a1a1a; stroke-width: 0.6"/>
      </g>
     </g>
    </g>
    <g id="xtick_8">
     <g id="line2d_16">
      <g>
       <use xlink:href="#m500bf0ca1c" x="123.33125" y="189.199698" style="fill: #1a1a1a; stroke: #1a1a1a; stroke-width: 0.6"/>
      </g>
     </g>
     <g id="line2d_17">
      <g>
       <use xlink:href="#md4cce523db" x="123.33125" y="21.83366" style="fill: #1a1a1a; stroke: #1a1a1a; stroke-width: 0.6"/>
      </g>
     </g>
    </g>
    <g id="xtick_9">
     <g id="line2d_18">
      <g>
       <use xlink:href="#m500bf0ca1c" x="165.18125" y="189.199698" style="fill: #1a1a1a; stroke: #1a1a1a; stroke-width: 0.6"/>
      </g>
     </g>
     <g id="line2d_19">
      <g>
       <use xlink:href="#md4cce523db" x="165.18125" y="21.83366" style="fill: #1a1a1a; stroke: #1a1a1a; stroke-width: 0.6"/>
      </g>
     </g>
    </g>
    <g id="xtick_10">
     <g id="line2d_20">
      <g>
       <use xlink:href="#m500bf0ca1c" x="186.10625" y="189.199698" style="fill: #1a1a1a; stroke: #1a1a1a; stroke-width: 0.6"/>
      </g>
     </g>
     <g id="line2d_21">
      <g>
       <use xlink:href="#md4cce523db" x="186.10625" y="21.83366" style="fill: #1a1a1a; stroke: #1a1a1a; stroke-width: 0.6"/>
      </g>
     </g>
    </g>
    <g id="xtick_11">
     <g id="line2d_22">
      <g>
       <use xlink:href="#m500bf0ca1c" x="207.03125" y="189.199698" style="fill: #1a1a1a; stroke: #1a1a1a; stroke-width: 0.6"/>
      </g>
     </g>
     <g id="line2d_23">
      <g>
       <use xlink:href="#md4cce523db" x="207.03125" y="21.83366" style="fill: #1a1a1a; stroke: #1a1a1a; stroke-width: 0.6"/>
      </g>
     </g>
    </g>
    <g id="xtick_12">
     <g id="line2d_24">
      <g>
       <use xlink:href="#m500bf0ca1c" x="248.88125" y="189.199698" style="fill: #1a1a1a; stroke: #1a1a1a; stroke-width: 0.6"/>
      </g>
     </g>
     <g id="line2d_25">
      <g>
       <use xlink:href="#md4cce523db" x="248.88125" y="21.83366" style="fill: #1a1a1a; stroke: #1a1a1a; stroke-width: 0.6"/>
      </g>
     </g>
    </g>
    <g id="xtick_13">
     <g id="line2d_26">
      <g>
       <use xlink:href="#m500bf0ca1c" x="269.80625" y="189.199698" style="fill: #1a1a1a; stroke: #1a1a1a; stroke-width: 0.6"/>
      </g>
     </g>
     <g id="line2d_27">
      <g>
       <use xlink:href="#md4cce523db" x="269.80625" y="21.83366" style="fill: #1a1a1a; stroke: #1a1a1a; stroke-width: 0.6"/>
      </g>
     </g>
    </g>
    <g id="xtick_14">
     <g id="line2d_28">
      <g>
       <use xlink:href="#m500bf0ca1c" x="290.73125" y="189.199698" style="fill: #1a1a1a; stroke: #1a1a1a; stroke-width: 0.6"/>
      </g>
     </g>
     <g id="line2d_29">
      <g>
       <use xlink:href="#md4cce523db" x="290.73125" y="21.83366" style="fill: #1a1a1a; stroke: #1a1a1a; stroke-width: 0.6"/>
      </g>
     </g>
    </g>
    <g id="xtick_15">
     <g id="line2d_30">
      <g>
       <use xlink:href="#m500bf0ca1c" x="332.58125" y="189.199698" style="fill: #1a1a1a; stroke: #1a1a1a; stroke-width: 0.6"/>
      </g>
     </g>
     <g id="line2d_31">
      <g>
       <use xlink:href="#md4cce523db" x="332.58125" y="21.83366" style="fill: #1a1a1a; stroke: #1a1a1a; stroke-width: 0.6"/>
      </g>
     </g>
    </g>
    <g id="xtick_16">
     <g id="line2d_32">
      <g>
       <use xlink:href="#m500bf0ca1c" x="353.50625" y="189.199698" style="fill: #1a1a1a; stroke: #1a1a1a; stroke-width: 0.6"/>
      </g>
     </g>
     <g id="line2d_33">
      <g>
       <use xlink:href="#md4cce523db" x="353.50625" y="21.83366" style="fill: #1a1a1a; stroke: #1a1a1a; stroke-width: 0.6"/>
      </g>
     </g>
    </g>
    <g id="xtick_17">
     <g id="line2d_34">
      <g>
       <use xlink:href="#m500bf0ca1c" x="374.43125" y="189.199698" style="fill: #1a1a1a; stroke: #1a1a1a; stroke-width: 0.6"/>
      </g>
     </g>
     <g id="line2d_35">
      <g>
       <use xlink:href="#md4cce523db" x="374.43125" y="21.83366" style="fill: #1a1a1a; stroke: #1a1a1a; stroke-width: 0.6"/>
      </g>
     </g>
    </g>
   </g>
   <g id="matplotlib.axis_2">
    <g id="ytick_1">
     <g id="line2d_36">
      <defs>
       <path id="ma470e3b261" d="M 0 0 
L 6 0 
" style="stroke: #1a1a1a; stroke-width: 0.8"/>
      </defs>
      <g>
       <use xlink:href="#ma470e3b261" x="60.55625" y="189.199698" style="fill: #1a1a1a; stroke: #1a1a1a; stroke-width: 0.8"/>
      </g>
     </g>
     <g id="line2d_37">
      <defs>
       <path id="mb857ba958f" d="M 0 0 
L -6 0 
" style="stroke: #1a1a1a; stroke-width: 0.8"/>
      </defs>
      <g>
       <use xlink:href="#mb857ba958f" x="395.35625" y="189.199698" style="fill: #1a1a1a; stroke: #1a1a1a; stroke-width: 0.8"/>
      </g>
     </g>
     <g id="text_1">
      <!-- $\mathdefault{0.0}$ -->
      <g style="fill: #1a1a1a" transform="translate(30.55625 194.898526) scale(0.15 -0.15)">
       <defs>
        <path id="DejaVuSerif-30" d="M 2034 219 
Q 2513 219 2750 744 
Q 2988 1269 2988 2328 
Q 2988 3391 2750 3916 
Q 2513 4441 2034 4441 
Q 1556 4441 1318 3916 
Q 1081 3391 1081 2328 
Q 1081 1269 1318 744 
Q 1556 219 2034 219 
z
M 2034 -91 
Q 1275 -91 848 546 
Q 422 1184 422 2328 
Q 422 3475 848 4112 
Q 1275 4750 2034 4750 
Q 2797 4750 3222 4112 
Q 3647 3475 3647 2328 
Q 3647 1184 3222 546 
Q 2797 -91 2034 -91 
z
" transform="scale(0.015625)"/>
        <path id="DejaVuSerif-2e" d="M 603 325 
Q 603 500 722 622 
Q 841 744 1019 744 
Q 1191 744 1312 622 
Q 1434 500 1434 325 
Q 1434 153 1312 31 
Q 1191 -91 1019 -91 
Q 841 -91 722 29 
Q 603 150 603 325 
z
" transform="scale(0.015625)"/>
       </defs>
       <use xlink:href="#DejaVuSerif-30" transform="translate(0 0.78125)"/>
       <use xlink:href="#DejaVuSerif-2e" transform="translate(63.623047 0.78125)"/>
       <use xlink:href="#DejaVuSerif-30" transform="translate(95.410156 0.78125)"/>
      </g>
     </g>
    </g>
    <g id="ytick_2">
     <g id="line2d_38">
      <g>
       <use xlink:href="#ma470e3b261" x="60.55625" y="155.726491" style="fill: #1a1a1a; stroke: #1a1a1a; stroke-width: 0.8"/>
      </g>
     </g>
     <g id="line2d_39">
      <g>
       <use xlink:href="#mb857ba958f" x="395.35625" y="155.726491" style="fill: #1a1a1a; stroke: #1a1a1a; stroke-width: 0.8"/>
      </g>
     </g>
     <g id="text_2">
      <!-- $\mathdefault{0.5}$ -->
      <g style="fill: #1a1a1a" transform="translate(30.55625 161.425319) scale(0.15 -0.15)">
       <defs>
        <path id="DejaVuSerif-35" d="M 3219 4666 
L 3219 4153 
L 1081 4153 
L 1081 2816 
Q 1244 2928 1461 2984 
Q 1678 3041 1947 3041 
Q 2703 3041 3140 2622 
Q 3578 2203 3578 1478 
Q 3578 738 3136 323 
Q 2694 -91 1894 -91 
Q 1572 -91 1234 -12 
Q 897 66 544 225 
L 544 1131 
L 897 1131 
Q 925 688 1179 453 
Q 1434 219 1894 219 
Q 2388 219 2653 544 
Q 2919 869 2919 1478 
Q 2919 2084 2655 2407 
Q 2391 2731 1894 2731 
Q 1613 2731 1398 2631 
Q 1184 2531 1019 2322 
L 750 2322 
L 750 4666 
L 3219 4666 
z
" transform="scale(0.015625)"/>
       </defs>
       <use xlink:href="#DejaVuSerif-30" transform="translate(0 0.78125)"/>
       <use xlink:href="#DejaVuSerif-2e" transform="translate(63.623047 0.78125)"/>
       <use xlink:href="#DejaVuSerif-35" transform="translate(95.410156 0.78125)"/>
      </g>
     </g>
    </g>
    <g id="ytick_3">
     <g id="line2d_40">
      <g>
       <use xlink:href="#ma470e3b261" x="60.55625" y="122.253283" style="fill: #1a1a1a; stroke: #1a1a1a; stroke-width: 0.8"/>
      </g>
     </g>
     <g id="line2d_41">
      <g>
       <use xlink:href="#mb857ba958f" x="395.35625" y="122.253283" style="fill: #1a1a1a; stroke: #1a1a1a; stroke-width: 0.8"/>
      </g>
     </g>
     <g id="text_3">
      <!-- $\mathdefault{1.0}$ -->
      <g style="fill: #1a1a1a" transform="translate(30.55625 127.952111) scale(0.15 -0.15)">
       <defs>
        <path id="DejaVuSerif-31" d="M 909 0 
L 909 331 
L 1722 331 
L 1722 4213 
L 781 3603 
L 781 4013 
L 1919 4750 
L 2350 4750 
L 2350 331 
L 3163 331 
L 3163 0 
L 909 0 
z
" transform="scale(0.015625)"/>
       </defs>
       <use xlink:href="#DejaVuSerif-31" transform="translate(0 0.78125)"/>
       <use xlink:href="#DejaVuSerif-2e" transform="translate(63.623047 0.78125)"/>
       <use xlink:href="#DejaVuSerif-30" transform="translate(95.410156 0.78125)"/>
      </g>
     </g>
    </g>
    <g id="ytick_4">
     <g id="line2d_42">
      <g>
       <use xlink:href="#ma470e3b261" x="60.55625" y="88.780075" style="fill: #1a1a1a; stroke: #1a1a1a; stroke-width: 0.8"/>
      </g>
     </g>
     <g id="line2d_43">
      <g>
       <use xlink:href="#mb857ba958f" x="395.35625" y="88.780075" style="fill: #1a1a1a; stroke: #1a1a1a; stroke-width: 0.8"/>
      </g>
     </g>
     <g id="text_4">
      <!-- $\mathdefault{1.5}$ -->
      <g style="fill: #1a1a1a" transform="translate(30.55625 94.478904) scale(0.15 -0.15)">
       <use xlink:href="#DejaVuSerif-31" transform="translate(0 0.78125)"/>
       <use xlink:href="#DejaVuSerif-2e" transform="translate(63.623047 0.78125)"/>
       <use xlink:href="#DejaVuSerif-35" transform="translate(95.410156 0.78125)"/>
      </g>
     </g>
    </g>
    <g id="ytick_5">
     <g id="line2d_44">
      <g>
       <use xlink:href="#ma470e3b261" x="60.55625" y="55.306868" style="fill: #1a1a1a; stroke: #1a1a1a; stroke-width: 0.8"/>
      </g>
     </g>
     <g id="line2d_45">
      <g>
       <use xlink:href="#mb857ba958f" x="395.35625" y="55.306868" style="fill: #1a1a1a; stroke: #1a1a1a; stroke-width: 0.8"/>
      </g>
     </g>
     <g id="text_5">
      <!-- $\mathdefault{2.0}$ -->
      <g style="fill: #1a1a1a" transform="translate(30.55625 61.005696) scale(0.15 -0.15)">
       <defs>
        <path id="DejaVuSerif-32" d="M 819 3553 
L 469 3553 
L 469 4384 
Q 803 4563 1142 4656 
Q 1481 4750 1806 4750 
Q 2534 4750 2956 4397 
Q 3378 4044 3378 3438 
Q 3378 2753 2422 1800 
Q 2347 1728 2309 1691 
L 1131 513 
L 3078 513 
L 3078 1088 
L 3444 1088 
L 3444 0 
L 434 0 
L 434 341 
L 1850 1753 
Q 2319 2222 2519 2614 
Q 2719 3006 2719 3438 
Q 2719 3909 2473 4175 
Q 2228 4441 1797 4441 
Q 1350 4441 1106 4219 
Q 863 3997 819 3553 
z
" transform="scale(0.015625)"/>
       </defs>
       <use xlink:href="#DejaVuSerif-32" transform="translate(0 0.78125)"/>
       <use xlink:href="#DejaVuSerif-2e" transform="translate(63.623047 0.78125)"/>
       <use xlink:href="#DejaVuSerif-30" transform="translate(95.410156 0.78125)"/>
      </g>
     </g>
    </g>
    <g id="ytick_6">
     <g id="line2d_46">
      <g>
       <use xlink:href="#ma470e3b261" x="60.55625" y="21.83366" style="fill: #1a1a1a; stroke: #1a1a1a; stroke-width: 0.8"/>
      </g>
     </g>
     <g id="line2d_47">
      <g>
       <use xlink:href="#mb857ba958f" x="395.35625" y="21.83366" style="fill: #1a1a1a; stroke: #1a1a1a; stroke-width: 0.8"/>
      </g>
     </g>
     <g id="text_6">
      <!-- $\mathdefault{2.5}$ -->
      <g style="fill: #1a1a1a" transform="translate(30.55625 27.532489) scale(0.15 -0.15)">
       <use xlink:href="#DejaVuSerif-32" transform="translate(0 0.78125)"/>
       <use xlink:href="#DejaVuSerif-2e" transform="translate(63.623047 0.78125)"/>
       <use xlink:href="#DejaVuSerif-35" transform="translate(95.410156 0.78125)"/>
      </g>
     </g>
    </g>
    <g id="ytick_7">
     <g id="line2d_48">
      <defs>
       <path id="m2913249ee3" d="M 0 0 
L 3 0 
" style="stroke: #1a1a1a; stroke-width: 0.6"/>
      </defs>
      <g>
       <use xlink:href="#m2913249ee3" x="60.55625" y="182.505057" style="fill: #1a1a1a; stroke: #1a1a1a; stroke-width: 0.6"/>
      </g>
     </g>
     <g id="line2d_49">
      <defs>
       <path id="md30f5b783e" d="M 0 0 
L -3 0 
" style="stroke: #1a1a1a; stroke-width: 0.6"/>
      </defs>
      <g>
       <use xlink:href="#md30f5b783e" x="395.35625" y="182.505057" style="fill: #1a1a1a; stroke: #1a1a1a; stroke-width: 0.6"/>
      </g>
     </g>
    </g>
    <g id="ytick_8">
     <g id="line2d_50">
      <g>
       <use xlink:href="#m2913249ee3" x="60.55625" y="175.810415" style="fill: #1a1a1a; stroke: #1a1a1a; stroke-width: 0.6"/>
      </g>
     </g>
     <g id="line2d_51">
      <g>
       <use xlink:href="#md30f5b783e" x="395.35625" y="175.810415" style="fill: #1a1a1a; stroke: #1a1a1a; stroke-width: 0.6"/>
      </g>
     </g>
    </g>
    <g id="ytick_9">
     <g id="line2d_52">
      <g>
       <use xlink:href="#m2913249ee3" x="60.55625" y="169.115774" style="fill: #1a1a1a; stroke: #1a1a1a; stroke-width: 0.6"/>
      </g>
     </g>
     <g id="line2d_53">
      <g>
       <use xlink:href="#md30f5b783e" x="395.35625" y="169.115774" style="fill: #1a1a1a; stroke: #1a1a1a; stroke-width: 0.6"/>
      </g>
     </g>
    </g>
    <g id="ytick_10">
     <g id="line2d_54">
      <g>
       <use xlink:href="#m2913249ee3" x="60.55625" y="162.421132" style="fill: #1a1a1a; stroke: #1a1a1a; stroke-width: 0.6"/>
      </g>
     </g>
     <g id="line2d_55">
      <g>
       <use xlink:href="#md30f5b783e" x="395.35625" y="162.421132" style="fill: #1a1a1a; stroke: #1a1a1a; stroke-width: 0.6"/>
      </g>
     </g>
    </g>
    <g id="ytick_11">
     <g id="line2d_56">
      <g>
       <use xlink:href="#m2913249ee3" x="60.55625" y="149.031849" style="fill: #1a1a1a; stroke: #1a1a1a; stroke-width: 0.6"/>
      </g>
     </g>
     <g id="line2d_57">
      <g>
       <use xlink:href="#md30f5b783e" x="395.35625" y="149.031849" style="fill: #1a1a1a; stroke: #1a1a1a; stroke-width: 0.6"/>
      </g>
     </g>
    </g>
    <g id="ytick_12">
     <g id="line2d_58">
      <g>
       <use xlink:href="#m2913249ee3" x="60.55625" y="142.337208" style="fill: #1a1a1a; stroke: #1a1a1a; stroke-width: 0.6"/>
      </g>
     </g>
     <g id="line2d_59">
      <g>
       <use xlink:href="#md30f5b783e" x="395.35625" y="142.337208" style="fill: #1a1a1a; stroke: #1a1a1a; stroke-width: 0.6"/>
      </g>
     </g>
    </g>
    <g id="ytick_13">
     <g id="line2d_60">
      <g>
       <use xlink:href="#m2913249ee3" x="60.55625" y="135.642566" style="fill: #1a1a1a; stroke: #1a1a1a; stroke-width: 0.6"/>
      </g>
     </g>
     <g id="line2d_61">
      <g>
       <use xlink:href="#md30f5b783e" x="395.35625" y="135.642566" style="fill: #1a1a1a; stroke: #1a1a1a; stroke-width: 0.6"/>
      </g>
     </g>
    </g>
    <g id="ytick_14">
     <g id="line2d_62">
      <g>
       <use xlink:href="#m2913249ee3" x="60.55625" y="128.947925" style="fill: #1a1a1a; stroke: #1a1a1a; stroke-width: 0.6"/>
      </g>
     </g>
     <g id="line2d_63">
      <g>
       <use xlink:href="#md30f5b783e" x="395.35625" y="128.947925" style="fill: #1a1a1a; stroke: #1a1a1a; stroke-width: 0.6"/>
      </g>
     </g>
    </g>
    <g id="ytick_15">
     <g id="line2d_64">
      <g>
       <use xlink:href="#m2913249ee3" x="60.55625" y="115.558642" style="fill: #1a1a1a; stroke: #1a1a1a; stroke-width: 0.6"/>
      </g>
     </g>
     <g id="line2d_65">
      <g>
       <use xlink:href="#md30f5b783e" x="395.35625" y="115.558642" style="fill: #1a1a1a; stroke: #1a1a1a; stroke-width: 0.6"/>
      </g>
     </g>
    </g>
    <g id="ytick_16">
     <g id="line2d_66">
      <g>
       <use xlink:href="#m2913249ee3" x="60.55625" y="108.864" style="fill: #1a1a1a; stroke: #1a1a1a; stroke-width: 0.6"/>
      </g>
     </g>
     <g id="line2d_67">
      <g>
       <use xlink:href="#md30f5b783e" x="395.35625" y="108.864" style="fill: #1a1a1a; stroke: #1a1a1a; stroke-width: 0.6"/>
      </g>
     </g>
    </g>
    <g id="ytick_17">
     <g id="line2d_68">
      <g>
       <use xlink:href="#m2913249ee3" x="60.55625" y="102.169358" style="fill: #1a1a1a; stroke: #1a1a1a; stroke-width: 0.6"/>
      </g>
     </g>
     <g id="line2d_69">
      <g>
       <use xlink:href="#md30f5b783e" x="395.35625" y="102.169358" style="fill: #1a1a1a; stroke: #1a1a1a; stroke-width: 0.6"/>
      </g>
     </g>
    </g>
    <g id="ytick_18">
     <g id="line2d_70">
      <g>
       <use xlink:href="#m2913249ee3" x="60.55625" y="95.474717" style="fill: #1a1a1a; stroke: #1a1a1a; stroke-width: 0.6"/>
      </g>
     </g>
     <g id="line2d_71">
      <g>
       <use xlink:href="#md30f5b783e" x="395.35625" y="95.474717" style="fill: #1a1a1a; stroke: #1a1a1a; stroke-width: 0.6"/>
      </g>
     </g>
    </g>
    <g id="ytick_19">
     <g id="line2d_72">
      <g>
       <use xlink:href="#m2913249ee3" x="60.55625" y="82.085434" style="fill: #1a1a1a; stroke: #1a1a1a; stroke-width: 0.6"/>
      </g>
     </g>
     <g id="line2d_73">
      <g>
       <use xlink:href="#md30f5b783e" x="395.35625" y="82.085434" style="fill: #1a1a1a; stroke: #1a1a1a; stroke-width: 0.6"/>
      </g>
     </g>
    </g>
    <g id="ytick_20">
     <g id="line2d_74">
      <g>
       <use xlink:href="#m2913249ee3" x="60.55625" y="75.390792" style="fill: #1a1a1a; stroke: #1a1a1a; stroke-width: 0.6"/>
      </g>
     </g>
     <g id="line2d_75">
      <g>
       <use xlink:href="#md30f5b783e" x="395.35625" y="75.390792" style="fill: #1a1a1a; stroke: #1a1a1a; stroke-width: 0.6"/>
      </g>
     </g>
    </g>
    <g id="ytick_21">
     <g id="line2d_76">
      <g>
       <use xlink:href="#m2913249ee3" x="60.55625" y="68.696151" style="fill: #1a1a1a; stroke: #1a1a1a; stroke-width: 0.6"/>
      </g>
     </g>
     <g id="line2d_77">
      <g>
       <use xlink:href="#md30f5b783e" x="395.35625" y="68.696151" style="fill: #1a1a1a; stroke: #1a1a1a; stroke-width: 0.6"/>
      </g>
     </g>
    </g>
    <g id="ytick_22">
     <g id="line2d_78">
      <g>
       <use xlink:href="#m2913249ee3" x="60.55625" y="62.001509" style="fill: #1a1a1a; stroke: #1a1a1a; stroke-width: 0.6"/>
      </g>
     </g>
     <g id="line2d_79">
      <g>
       <use xlink:href="#md30f5b783e" x="395.35625" y="62.001509" style="fill: #1a1a1a; stroke: #1a1a1a; stroke-width: 0.6"/>
      </g>
     </g>
    </g>
    <g id="ytick_23">
     <g id="line2d_80">
      <g>
       <use xlink:href="#m2913249ee3" x="60.55625" y="48.612226" style="fill: #1a1a1a; stroke: #1a1a1a; stroke-width: 0.6"/>
      </g>
     </g>
     <g id="line2d_81">
      <g>
       <use xlink:href="#md30f5b783e" x="395.35625" y="48.612226" style="fill: #1a1a1a; stroke: #1a1a1a; stroke-width: 0.6"/>
      </g>
     </g>
    </g>
    <g id="ytick_24">
     <g id="line2d_82">
      <g>
       <use xlink:href="#m2913249ee3" x="60.55625" y="41.917585" style="fill: #1a1a1a; stroke: #1a1a1a; stroke-width: 0.6"/>
      </g>
     </g>
     <g id="line2d_83">
      <g>
       <use xlink:href="#md30f5b783e" x="395.35625" y="41.917585" style="fill: #1a1a1a; stroke: #1a1a1a; stroke-width: 0.6"/>
      </g>
     </g>
    </g>
    <g id="ytick_25">
     <g id="line2d_84">
      <g>
       <use xlink:href="#m2913249ee3" x="60.55625" y="35.222943" style="fill: #1a1a1a; stroke: #1a1a1a; stroke-width: 0.6"/>
      </g>
     </g>
     <g id="line2d_85">
      <g>
       <use xlink:href="#md30f5b783e" x="395.35625" y="35.222943" style="fill: #1a1a1a; stroke: #1a1a1a; stroke-width: 0.6"/>
      </g>
     </g>
    </g>
    <g id="ytick_26">
     <g id="line2d_86">
      <g>
       <use xlink:href="#m2913249ee3" x="60.55625" y="28.528302" style="fill: #1a1a1a; stroke: #1a1a1a; stroke-width: 0.6"/>
      </g>
     </g>
     <g id="line2d_87">
      <g>
       <use xlink:href="#md30f5b783e" x="395.35625" y="28.528302" style="fill: #1a1a1a; stroke: #1a1a1a; stroke-width: 0.6"/>
      </g>
     </g>
    </g>
    <g id="text_7">
     <!-- Entries -->
     <g style="fill: #1a1a1a" transform="translate(22.396875 142.304179) rotate(-90) scale(0.2 -0.2)">
      <defs>
       <path id="DejaVuSerif-45" d="M 353 0 
L 353 331 
L 947 331 
L 947 4331 
L 353 4331 
L 353 4666 
L 4109 4666 
L 4109 3628 
L 3725 3628 
L 3725 4281 
L 1581 4281 
L 1581 2719 
L 3109 2719 
L 3109 3303 
L 3494 3303 
L 3494 1753 
L 3109 1753 
L 3109 2338 
L 1581 2338 
L 1581 384 
L 3775 384 
L 3775 1038 
L 4159 1038 
L 4159 0 
L 353 0 
z
" transform="scale(0.015625)"/>
       <path id="DejaVuSerif-6e" d="M 263 0 
L 263 331 
L 781 331 
L 781 2988 
L 231 2988 
L 231 3322 
L 1356 3322 
L 1356 2731 
Q 1516 3069 1770 3241 
Q 2025 3413 2363 3413 
Q 2913 3413 3172 3097 
Q 3431 2781 3431 2113 
L 3431 331 
L 3944 331 
L 3944 0 
L 2356 0 
L 2356 331 
L 2853 331 
L 2853 1931 
Q 2853 2541 2703 2767 
Q 2553 2994 2175 2994 
Q 1775 2994 1565 2701 
Q 1356 2409 1356 1850 
L 1356 331 
L 1856 331 
L 1856 0 
L 263 0 
z
" transform="scale(0.015625)"/>
       <path id="DejaVuSerif-74" d="M 691 2988 
L 184 2988 
L 184 3322 
L 691 3322 
L 691 4353 
L 1269 4353 
L 1269 3322 
L 2350 3322 
L 2350 2988 
L 1269 2988 
L 1269 878 
Q 1269 456 1350 337 
Q 1431 219 1650 219 
Q 1875 219 1978 351 
Q 2081 484 2088 781 
L 2522 781 
Q 2497 328 2275 118 
Q 2053 -91 1600 -91 
Q 1103 -91 897 129 
Q 691 350 691 878 
L 691 2988 
z
" transform="scale(0.015625)"/>
       <path id="DejaVuSerif-72" d="M 3059 3328 
L 3059 2497 
L 2728 2497 
Q 2713 2744 2591 2866 
Q 2469 2988 2234 2988 
Q 1809 2988 1582 2694 
Q 1356 2400 1356 1850 
L 1356 331 
L 2022 331 
L 2022 0 
L 263 0 
L 263 331 
L 781 331 
L 781 2994 
L 231 2994 
L 231 3322 
L 1356 3322 
L 1356 2731 
Q 1525 3078 1790 3245 
Q 2056 3413 2438 3413 
Q 2578 3413 2733 3391 
Q 2888 3369 3059 3328 
z
" transform="scale(0.015625)"/>
       <path id="DejaVuSerif-69" d="M 622 4353 
Q 622 4497 726 4603 
Q 831 4709 978 4709 
Q 1122 4709 1226 4603 
Q 1331 4497 1331 4353 
Q 1331 4206 1228 4103 
Q 1125 4000 978 4000 
Q 831 4000 726 4103 
Q 622 4206 622 4353 
z
M 1356 331 
L 1900 331 
L 1900 0 
L 231 0 
L 231 331 
L 781 331 
L 781 2988 
L 231 2988 
L 231 3322 
L 1356 3322 
L 1356 331 
z
" transform="scale(0.015625)"/>
       <path id="DejaVuSerif-65" d="M 3469 1600 
L 991 1600 
L 991 1575 
Q 991 903 1244 561 
Q 1497 219 1991 219 
Q 2369 219 2611 417 
Q 2853 616 2950 1006 
L 3413 1006 
Q 3275 459 2904 184 
Q 2534 -91 1931 -91 
Q 1203 -91 761 389 
Q 319 869 319 1663 
Q 319 2450 753 2931 
Q 1188 3413 1894 3413 
Q 2647 3413 3050 2948 
Q 3453 2484 3469 1600 
z
M 2791 1931 
Q 2772 2513 2545 2808 
Q 2319 3103 1894 3103 
Q 1497 3103 1269 2806 
Q 1041 2509 991 1931 
L 2791 1931 
z
" transform="scale(0.015625)"/>
       <path id="DejaVuSerif-73" d="M 359 184 
L 359 959 
L 691 959 
Q 703 588 923 403 
Q 1144 219 1575 219 
Q 1963 219 2166 364 
Q 2369 509 2369 788 
Q 2369 1006 2220 1140 
Q 2072 1275 1594 1428 
L 1178 1569 
Q 750 1706 558 1912 
Q 366 2119 366 2438 
Q 366 2894 700 3153 
Q 1034 3413 1625 3413 
Q 1888 3413 2178 3344 
Q 2469 3275 2778 3144 
L 2778 2419 
L 2447 2419 
Q 2434 2741 2221 2922 
Q 2009 3103 1644 3103 
Q 1281 3103 1095 2975 
Q 909 2847 909 2591 
Q 909 2381 1050 2254 
Q 1191 2128 1613 1997 
L 2069 1856 
Q 2541 1709 2748 1489 
Q 2956 1269 2956 922 
Q 2956 450 2595 179 
Q 2234 -91 1600 -91 
Q 1278 -91 972 -22 
Q 666 47 359 184 
z
" transform="scale(0.015625)"/>
      </defs>
      <use xlink:href="#DejaVuSerif-45"/>
      <use xlink:href="#DejaVuSerif-6e" x="72.998047"/>
      <use xlink:href="#DejaVuSerif-74" x="137.402344"/>
      <use xlink:href="#DejaVuSerif-72" x="177.587891"/>
      <use xlink:href="#DejaVuSerif-69" x="225.390625"/>
      <use xlink:href="#DejaVuSerif-65" x="257.373047"/>
      <use xlink:href="#DejaVuSerif-73" x="316.552734"/>
     </g>
    </g>
    <g id="text_8">
     <!-- $\times\mathdefault{10^{4}}\mathdefault{}$ -->
     <g style="fill: #1a1a1a" transform="translate(60.55625 18.83366) scale(0.15 -0.15)">
      <defs>
       <path id="DejaVuSerif-d7" d="M 4481 3450 
L 3034 2003 
L 4481 563 
L 4122 213 
L 2681 1650 
L 1241 213 
L 884 563 
L 2322 2003 
L 884 3450 
L 1241 3803 
L 2681 2363 
L 4122 3803 
L 4481 3450 
z
" transform="scale(0.015625)"/>
       <path id="DejaVuSerif-34" d="M 2234 1581 
L 2234 4063 
L 641 1581 
L 2234 1581 
z
M 3609 0 
L 1484 0 
L 1484 331 
L 2234 331 
L 2234 1247 
L 197 1247 
L 197 1588 
L 2241 4750 
L 2859 4750 
L 2859 1581 
L 3750 1581 
L 3750 1247 
L 2859 1247 
L 2859 331 
L 3609 331 
L 3609 0 
z
" transform="scale(0.015625)"/>
      </defs>
      <use xlink:href="#DejaVuSerif-d7" transform="translate(0 0.7125)"/>
      <use xlink:href="#DejaVuSerif-31" transform="translate(83.789062 0.7125)"/>
      <use xlink:href="#DejaVuSerif-30" transform="translate(147.412109 0.7125)"/>
      <use xlink:href="#DejaVuSerif-34" transform="translate(211.943516 37.046875) scale(0.7)"/>
     </g>
    </g>
   </g>
   <g id="text_9">
    <!-- $\mathrm{\mathbf{Beast\,\,III}}$ $\int\,\mathcal{L}\,dt=50\,zb^{-1}$ -->
    <g style="fill: #1a1a1a" transform="translate(255.67625 17.664375) scale(0.12 -0.12)">
     <defs>
      <path id="Cmb10-42" d="M 219 0 
L 219 325 
L 819 325 
L 819 4063 
L 219 4063 
L 219 4391 
L 2631 4391 
Q 2991 4391 3306 4270 
Q 3622 4150 3817 3898 
Q 4013 3647 4013 3278 
Q 4013 2888 3752 2636 
Q 3491 2384 3078 2297 
Q 3559 2238 3871 1952 
Q 4184 1666 4184 1197 
Q 4184 625 3789 312 
Q 3394 0 2809 0 
L 219 0 
z
M 1684 325 
L 2631 325 
Q 2838 325 2970 459 
Q 3103 594 3161 794 
Q 3219 994 3219 1197 
Q 3219 1384 3178 1606 
Q 3138 1828 3025 1992 
Q 2913 2156 2719 2156 
L 1684 2156 
L 1684 325 
z
M 1684 2413 
L 2450 2413 
Q 2766 2413 2922 2677 
Q 3078 2941 3078 3278 
Q 3078 3569 2978 3816 
Q 2878 4063 2631 4063 
L 1684 4063 
L 1684 2413 
z
" transform="scale(0.015625)"/>
      <path id="Cmb10-65" d="M 178 1441 
Q 178 1856 350 2189 
Q 522 2522 842 2711 
Q 1163 2900 1581 2900 
Q 2003 2900 2275 2726 
Q 2547 2553 2675 2242 
Q 2803 1931 2803 1522 
Q 2803 1428 2700 1394 
L 1025 1394 
Q 1025 1078 1070 829 
Q 1116 581 1275 412 
Q 1434 244 1741 244 
Q 2000 244 2208 394 
Q 2416 544 2484 788 
Q 2519 847 2578 863 
L 2700 863 
Q 2803 841 2803 750 
Q 2803 744 2797 709 
Q 2722 475 2553 308 
Q 2384 141 2150 51 
Q 1916 -38 1672 -38 
Q 1347 -38 1072 67 
Q 797 172 597 367 
Q 397 563 287 836 
Q 178 1109 178 1441 
z
M 1025 1631 
L 2169 1631 
Q 2169 1869 2120 2095 
Q 2072 2322 1940 2483 
Q 1809 2644 1581 2644 
Q 1250 2644 1137 2341 
Q 1025 2038 1025 1631 
z
" transform="scale(0.015625)"/>
      <path id="Cmb10-61" d="M 178 716 
Q 178 1081 468 1304 
Q 759 1528 1157 1618 
Q 1556 1709 1925 1709 
L 1925 1947 
Q 1925 2228 1803 2436 
Q 1681 2644 1416 2644 
Q 1244 2644 1050 2613 
Q 1184 2488 1184 2297 
Q 1184 2119 1068 2000 
Q 953 1881 775 1881 
Q 597 1881 478 2000 
Q 359 2119 359 2297 
Q 359 2541 529 2675 
Q 700 2809 937 2854 
Q 1175 2900 1422 2900 
Q 1731 2900 2018 2804 
Q 2306 2709 2493 2498 
Q 2681 2288 2681 1966 
L 2681 453 
Q 2709 325 3003 325 
Q 3084 306 3103 225 
L 3103 103 
Q 3084 19 3003 0 
L 2559 0 
Q 2366 0 2200 100 
Q 2034 200 2034 384 
L 2034 434 
Q 1922 219 1709 90 
Q 1497 -38 1253 -38 
Q 850 -38 514 153 
Q 178 344 178 716 
z
M 1331 219 
Q 1497 219 1633 305 
Q 1769 391 1847 533 
Q 1925 675 1925 838 
L 1925 1478 
Q 1697 1478 1472 1389 
Q 1247 1300 1100 1125 
Q 953 950 953 716 
Q 953 534 1058 376 
Q 1163 219 1331 219 
z
" transform="scale(0.015625)"/>
      <path id="Cmb10-73" d="M 213 44 
L 213 934 
Q 228 994 294 1013 
L 459 1013 
Q 522 991 538 934 
Q 703 219 1259 219 
Q 1825 219 1825 684 
Q 1825 800 1765 892 
Q 1706 984 1609 1045 
Q 1513 1106 1403 1131 
L 1019 1209 
Q 672 1294 442 1508 
Q 213 1722 213 2041 
Q 213 2272 292 2440 
Q 372 2609 517 2711 
Q 663 2813 847 2856 
Q 1031 2900 1259 2900 
Q 1559 2900 1759 2791 
L 1966 2894 
L 1991 2900 
L 2069 2900 
Q 2128 2884 2144 2822 
L 2144 2119 
Q 2128 2050 2069 2034 
L 1900 2034 
Q 1834 2050 1819 2119 
Q 1819 2288 1748 2411 
Q 1678 2534 1550 2601 
Q 1422 2669 1247 2669 
Q 691 2669 691 2284 
Q 691 2144 811 2048 
Q 931 1953 1088 1913 
L 1478 1838 
Q 1713 1778 1897 1654 
Q 2081 1531 2192 1339 
Q 2303 1147 2303 909 
Q 2303 428 2022 195 
Q 1741 -38 1259 -38 
Q 897 -38 659 141 
L 391 -31 
L 366 -38 
L 294 -38 
Q 228 -22 213 44 
z
" transform="scale(0.015625)"/>
      <path id="Cmb10-74" d="M 513 750 
L 513 2516 
L 122 2516 
L 122 2772 
Q 416 2772 600 2976 
Q 784 3181 862 3482 
Q 941 3784 941 4063 
L 1269 4063 
L 1269 2841 
L 2028 2841 
L 2028 2516 
L 1269 2516 
L 1269 769 
Q 1269 553 1320 398 
Q 1372 244 1538 244 
Q 1688 244 1747 409 
Q 1806 575 1806 769 
L 1806 1131 
L 2131 1131 
L 2131 750 
Q 2131 563 2051 378 
Q 1972 194 1822 78 
Q 1672 -38 1472 -38 
Q 1047 -38 780 151 
Q 513 341 513 750 
z
" transform="scale(0.015625)"/>
      <path id="Cmb10-49" d="M 166 0 
L 166 325 
L 800 325 
L 800 4063 
L 166 4063 
L 166 4391 
L 2369 4391 
L 2369 4063 
L 1734 4063 
L 1734 325 
L 2369 325 
L 2369 0 
L 166 0 
z
" transform="scale(0.015625)"/>
      <path id="DejaVuSerif-20" transform="scale(0.015625)"/>
      <path id="DejaVuSerif-222b" d="M 972 -819 
Q 1303 -819 1347 1331 
Q 1353 1669 1356 1847 
Q 1394 3456 1691 4150 
Q 1988 4844 2619 4844 
Q 2869 4844 3025 4712 
Q 3181 4581 3181 4378 
Q 3181 4209 3081 4111 
Q 2981 4013 2809 4013 
Q 2678 4013 2590 4072 
Q 2503 4131 2466 4241 
Q 2447 4288 2433 4400 
Q 2419 4513 2369 4513 
Q 2034 4513 1991 2578 
Q 1978 1975 1966 1631 
Q 1913 134 1617 -512 
Q 1322 -1159 709 -1159 
Q 463 -1159 305 -1029 
Q 147 -900 147 -697 
Q 147 -522 253 -423 
Q 359 -325 550 -325 
Q 653 -325 728 -370 
Q 803 -416 850 -503 
Q 881 -559 897 -689 
Q 913 -819 972 -819 
z
" transform="scale(0.015625)"/>
      <path id="Cmsy10-4c" d="M 238 -141 
Q 197 -141 197 -97 
Q 197 -72 219 -38 
Q 266 38 359 130 
Q 453 222 494 275 
Q 656 509 750 691 
Q 913 1028 1031 1466 
Q 1206 2163 1348 2597 
Q 1491 3031 1722 3419 
Q 1903 3719 2168 3967 
Q 2434 4216 2757 4364 
Q 3081 4513 3419 4513 
L 3456 4513 
Q 3622 4513 3734 4430 
Q 3847 4347 3905 4208 
Q 3963 4069 3963 3909 
Q 3963 3666 3884 3572 
Q 3663 3331 3359 3291 
L 3322 3291 
Q 3284 3291 3284 3334 
Q 3284 3341 3300 3431 
Q 3316 3522 3316 3584 
Q 3316 3791 3212 3944 
Q 3109 4097 2906 4097 
Q 2669 4097 2669 4056 
Q 2494 3934 2333 3651 
Q 2172 3369 2051 3039 
Q 1931 2709 1837 2376 
Q 1744 2044 1672 1753 
Q 1594 1438 1470 1148 
Q 1347 859 1178 603 
Q 1253 628 1363 628 
L 1403 628 
Q 1625 628 1847 583 
Q 2069 538 2378 450 
Q 2688 363 2894 320 
Q 3100 278 3328 275 
Q 3397 275 3440 337 
Q 3484 400 3526 511 
Q 3569 622 3597 659 
Q 3694 766 3834 844 
Q 3975 922 4116 941 
L 4153 941 
Q 4172 941 4184 928 
Q 4197 916 4197 897 
Q 4197 897 4191 878 
Q 4128 628 3897 386 
Q 3666 144 3370 1 
Q 3075 -141 2828 -141 
L 2791 -141 
Q 2569 -141 2356 -100 
Q 2144 -59 1834 28 
Q 1525 116 1304 162 
Q 1084 209 863 213 
Q 578 -100 275 -141 
L 238 -141 
z
" transform="scale(0.015625)"/>
      <path id="DejaVuSerif-64" d="M 3359 331 
L 3909 331 
L 3909 0 
L 2784 0 
L 2784 519 
Q 2616 206 2355 57 
Q 2094 -91 1709 -91 
Q 1097 -91 708 395 
Q 319 881 319 1663 
Q 319 2444 706 2928 
Q 1094 3413 1709 3413 
Q 2094 3413 2355 3264 
Q 2616 3116 2784 2803 
L 2784 4531 
L 2241 4531 
L 2241 4863 
L 3359 4863 
L 3359 331 
z
M 2784 1497 
L 2784 1825 
Q 2784 2422 2554 2737 
Q 2325 3053 1888 3053 
Q 1444 3053 1217 2703 
Q 991 2353 991 1663 
Q 991 975 1217 622 
Q 1444 269 1888 269 
Q 2325 269 2554 583 
Q 2784 897 2784 1497 
z
" transform="scale(0.015625)"/>
      <path id="DejaVuSerif-3d" d="M 678 2894 
L 4684 2894 
L 4684 2394 
L 678 2394 
L 678 2894 
z
M 678 1619 
L 4684 1619 
L 4684 1119 
L 678 1119 
L 678 1619 
z
" transform="scale(0.015625)"/>
      <path id="DejaVuSerif-7a" d="M 256 0 
L 256 269 
L 2338 2988 
L 691 2988 
L 691 2413 
L 359 2413 
L 359 3322 
L 3078 3322 
L 3078 3053 
L 997 331 
L 2803 331 
L 2803 934 
L 3138 934 
L 3138 0 
L 256 0 
z
" transform="scale(0.015625)"/>
      <path id="DejaVuSerif-62" d="M 738 331 
L 738 4531 
L 184 4531 
L 184 4863 
L 1313 4863 
L 1313 2803 
Q 1481 3116 1742 3264 
Q 2003 3413 2388 3413 
Q 3000 3413 3387 2928 
Q 3775 2444 3775 1663 
Q 3775 881 3387 395 
Q 3000 -91 2388 -91 
Q 2003 -91 1742 57 
Q 1481 206 1313 519 
L 1313 0 
L 184 0 
L 184 331 
L 738 331 
z
M 1313 1497 
Q 1313 897 1542 583 
Q 1772 269 2209 269 
Q 2650 269 2876 622 
Q 3103 975 3103 1663 
Q 3103 2353 2876 2703 
Q 2650 3053 2209 3053 
Q 1772 3053 1542 2737 
Q 1313 2422 1313 1825 
L 1313 1497 
z
" transform="scale(0.015625)"/>
      <path id="DejaVuSerif-2212" d="M 678 2259 
L 4684 2259 
L 4684 1753 
L 678 1753 
L 678 2259 
z
" transform="scale(0.015625)"/>
     </defs>
     <use xlink:href="#Cmb10-42" transform="translate(0 0.7125)"/>
     <use xlink:href="#Cmb10-65" transform="translate(71.09375 0.7125)"/>
     <use xlink:href="#Cmb10-61" transform="translate(117.675781 0.7125)"/>
     <use xlink:href="#Cmb10-73" transform="translate(166.259766 0.7125)"/>
     <use xlink:href="#Cmb10-74" transform="translate(205.664062 0.7125)"/>
     <use xlink:href="#Cmb10-49" transform="translate(273.942643 0.7125)"/>
     <use xlink:href="#Cmb10-49" transform="translate(313.639908 0.7125)"/>
     <use xlink:href="#Cmb10-49" transform="translate(353.337174 0.7125)"/>
     <use xlink:href="#DejaVuSerif-20" transform="translate(393.034439 0.7125)"/>
     <use xlink:href="#DejaVuSerif-222b" transform="translate(424.821549 0.7125)"/>
     <use xlink:href="#Cmsy10-4c" transform="translate(491.553612 0.7125)"/>
     <use xlink:href="#DejaVuSerif-64" transform="translate(575.082551 0.7125)"/>
     <use xlink:href="#DejaVuSerif-74" transform="translate(639.096223 0.7125)"/>
     <use xlink:href="#DejaVuSerif-3d" transform="translate(696.840363 0.7125)"/>
     <use xlink:href="#DejaVuSerif-35" transform="translate(798.18802 0.7125)"/>
     <use xlink:href="#DejaVuSerif-30" transform="translate(861.811066 0.7125)"/>
     <use xlink:href="#DejaVuSerif-7a" transform="translate(940.066567 0.7125)"/>
     <use xlink:href="#DejaVuSerif-62" transform="translate(992.752114 0.7125)"/>
     <use xlink:href="#DejaVuSerif-2212" transform="translate(1057.674146 37.046875) scale(0.7)"/>
     <use xlink:href="#DejaVuSerif-31" transform="translate(1116.326489 37.046875) scale(0.7)"/>
    </g>
   </g>
   <g id="legend_1">
    <g id="patch_23">
     <path d="M 69.55625 38.432098 
L 89.55625 38.432098 
L 89.55625 31.432098 
L 69.55625 31.432098 
z
" style="fill: #b1dcc2; stroke: #000000; stroke-width: 0.5; stroke-linejoin: miter"/>
    </g>
    <g id="text_10">
     <!-- c6 -->
     <g style="fill: #1a1a1a" transform="translate(97.55625 38.432098) scale(0.1 -0.1)">
      <defs>
       <path id="DejaVuSerif-63" d="M 3291 997 
Q 3169 466 2822 187 
Q 2475 -91 1925 -91 
Q 1200 -91 759 389 
Q 319 869 319 1663 
Q 319 2459 759 2936 
Q 1200 3413 1925 3413 
Q 2241 3413 2553 3339 
Q 2866 3266 3181 3116 
L 3181 2266 
L 2847 2266 
Q 2781 2703 2561 2903 
Q 2341 3103 1931 3103 
Q 1466 3103 1228 2742 
Q 991 2381 991 1663 
Q 991 944 1227 581 
Q 1463 219 1931 219 
Q 2303 219 2525 412 
Q 2747 606 2828 997 
L 3291 997 
z
" transform="scale(0.015625)"/>
       <path id="DejaVuSerif-36" d="M 2094 219 
Q 2534 219 2771 542 
Q 3009 866 3009 1472 
Q 3009 2078 2771 2401 
Q 2534 2725 2094 2725 
Q 1647 2725 1412 2412 
Q 1178 2100 1178 1509 
Q 1178 888 1415 553 
Q 1653 219 2094 219 
z
M 1075 2569 
Q 1288 2803 1556 2918 
Q 1825 3034 2163 3034 
Q 2859 3034 3264 2615 
Q 3669 2197 3669 1472 
Q 3669 763 3233 336 
Q 2797 -91 2069 -91 
Q 1278 -91 853 498 
Q 428 1088 428 2181 
Q 428 3406 931 4078 
Q 1434 4750 2350 4750 
Q 2597 4750 2869 4703 
Q 3141 4656 3425 4563 
L 3425 3794 
L 3072 3794 
Q 3034 4109 2831 4275 
Q 2628 4441 2284 4441 
Q 1678 4441 1381 3981 
Q 1084 3522 1075 2569 
z
" transform="scale(0.015625)"/>
      </defs>
      <use xlink:href="#DejaVuSerif-63"/>
      <use xlink:href="#DejaVuSerif-36" x="56.005859"/>
     </g>
    </g>
    <g id="patch_24">
     <path d="M 69.55625 53.110223 
L 89.55625 53.110223 
L 89.55625 46.110223 
L 69.55625 46.110223 
z
" style="fill: #a9c593; stroke: #000000; stroke-width: 0.5; stroke-linejoin: miter"/>
    </g>
    <g id="text_11">
     <!-- c5 -->
     <g style="fill: #1a1a1a" transform="translate(97.55625 53.110223) scale(0.1 -0.1)">
      <use xlink:href="#DejaVuSerif-63"/>
      <use xlink:href="#DejaVuSerif-35" x="56.005859"/>
     </g>
    </g>
    <g id="patch_25">
     <path d="M 69.55625 67.788348 
L 89.55625 67.788348 
L 89.55625 60.788348 
L 69.55625 60.788348 
z
" style="fill: #b2a275; stroke: #000000; stroke-width: 0.5; stroke-linejoin: miter"/>
    </g>
    <g id="text_12">
     <!-- c4 -->
     <g style="fill: #1a1a1a" transform="translate(97.55625 67.788348) scale(0.1 -0.1)">
      <use xlink:href="#DejaVuSerif-63"/>
      <use xlink:href="#DejaVuSerif-34" x="56.005859"/>
     </g>
    </g>
    <g id="patch_26">
     <path d="M 69.55625 82.466473 
L 89.55625 82.466473 
L 89.55625 75.466473 
L 69.55625 75.466473 
z
" style="fill: #b67b76; stroke: #000000; stroke-width: 0.5; stroke-linejoin: miter"/>
    </g>
    <g id="text_13">
     <!-- c3 -->
     <g style="fill: #1a1a1a" transform="translate(97.55625 82.466473) scale(0.1 -0.1)">
      <defs>
       <path id="DejaVuSerif-33" d="M 622 4469 
Q 988 4606 1323 4678 
Q 1659 4750 1953 4750 
Q 2638 4750 3022 4454 
Q 3406 4159 3406 3634 
Q 3406 3213 3140 2930 
Q 2875 2647 2388 2547 
Q 2963 2466 3280 2130 
Q 3597 1794 3597 1259 
Q 3597 606 3158 257 
Q 2719 -91 1894 -91 
Q 1528 -91 1179 -12 
Q 831 66 488 225 
L 488 1131 
L 838 1131 
Q 869 681 1141 450 
Q 1413 219 1906 219 
Q 2384 219 2661 495 
Q 2938 772 2938 1253 
Q 2938 1803 2653 2086 
Q 2369 2369 1819 2369 
L 1522 2369 
L 1522 2688 
L 1678 2688 
Q 2225 2688 2498 2914 
Q 2772 3141 2772 3597 
Q 2772 4006 2547 4223 
Q 2322 4441 1900 4441 
Q 1478 4441 1245 4241 
Q 1013 4041 972 3647 
L 622 3647 
L 622 4469 
z
" transform="scale(0.015625)"/>
      </defs>
      <use xlink:href="#DejaVuSerif-63"/>
      <use xlink:href="#DejaVuSerif-33" x="56.005859"/>
     </g>
    </g>
    <g id="patch_27">
     <path d="M 129.51875 38.432098 
L 149.51875 38.432098 
L 149.51875 31.432098 
L 129.51875 31.432098 
z
" style="fill: #a15f86; stroke: #000000; stroke-width: 0.5; stroke-linejoin: miter"/>
    </g>
    <g id="text_14">
     <!-- c2 -->
     <g style="fill: #1a1a1a" transform="translate(157.51875 38.432098) scale(0.1 -0.1)">
      <use xlink:href="#DejaVuSerif-63"/>
      <use xlink:href="#DejaVuSerif-32" x="56.005859"/>
     </g>
    </g>
    <g id="patch_28">
     <path d="M 129.51875 53.110223 
L 149.51875 53.110223 
L 149.51875 46.110223 
L 129.51875 46.110223 
z
" style="fill: #73528c; stroke: #000000; stroke-width: 0.5; stroke-linejoin: miter"/>
    </g>
    <g id="text_15">
     <!-- c1 -->
     <g style="fill: #1a1a1a" transform="translate(157.51875 53.110223) scale(0.1 -0.1)">
      <use xlink:href="#DejaVuSerif-63"/>
      <use xlink:href="#DejaVuSerif-31" x="56.005859"/>
     </g>
    </g>
    <g id="patch_29">
     <path d="M 129.51875 67.788348 
L 149.51875 67.788348 
L 149.51875 60.788348 
L 129.51875 60.788348 
z
" style="fill: #3d4c74; stroke: #000000; stroke-width: 0.5; stroke-linejoin: miter"/>
    </g>
    <g id="text_16">
     <!-- c0 -->
     <g style="fill: #1a1a1a" transform="translate(157.51875 67.788348) scale(0.1 -0.1)">
      <use xlink:href="#DejaVuSerif-63"/>
      <use xlink:href="#DejaVuSerif-30" x="56.005859"/>
     </g>
    </g>
    <g id="patch_30">
     <path d="M 189.48125 38.432098 
L 209.48125 38.432098 
L 209.48125 31.432098 
L 189.48125 31.432098 
L 189.48125 38.432098 
z
" style="fill: none; stroke: #ff0000; stroke-linejoin: miter"/>
    </g>
    <g id="text_17">
     <!-- Signal -->
     <g style="fill: #1a1a1a" transform="translate(217.48125 38.432098) scale(0.1 -0.1)">
      <defs>
       <path id="DejaVuSerif-53" d="M 594 225 
L 594 1288 
L 953 1284 
Q 969 753 1261 498 
Q 1553 244 2150 244 
Q 2706 244 2998 464 
Q 3291 684 3291 1106 
Q 3291 1444 3114 1625 
Q 2938 1806 2369 1978 
L 1753 2163 
Q 1084 2366 811 2669 
Q 538 2972 538 3500 
Q 538 4094 959 4422 
Q 1381 4750 2144 4750 
Q 2469 4750 2856 4679 
Q 3244 4609 3681 4475 
L 3681 3481 
L 3328 3481 
Q 3275 3975 2998 4195 
Q 2722 4416 2156 4416 
Q 1663 4416 1405 4214 
Q 1147 4013 1147 3628 
Q 1147 3294 1340 3103 
Q 1534 2913 2163 2725 
L 2741 2553 
Q 3375 2363 3645 2067 
Q 3916 1772 3916 1275 
Q 3916 597 3481 253 
Q 3047 -91 2188 -91 
Q 1803 -91 1404 -12 
Q 1006 66 594 225 
z
" transform="scale(0.015625)"/>
       <path id="DejaVuSerif-67" d="M 3359 2988 
L 3359 72 
Q 3359 -644 2965 -1033 
Q 2572 -1422 1844 -1422 
Q 1516 -1422 1216 -1362 
Q 916 -1303 641 -1184 
L 641 -488 
L 941 -488 
Q 997 -813 1206 -963 
Q 1416 -1113 1806 -1113 
Q 2313 -1113 2548 -827 
Q 2784 -541 2784 72 
L 2784 519 
Q 2616 206 2355 57 
Q 2094 -91 1709 -91 
Q 1097 -91 708 395 
Q 319 881 319 1663 
Q 319 2444 706 2928 
Q 1094 3413 1709 3413 
Q 2094 3413 2355 3264 
Q 2616 3116 2784 2803 
L 2784 3322 
L 3909 3322 
L 3909 2988 
L 3359 2988 
z
M 2784 1825 
Q 2784 2422 2554 2737 
Q 2325 3053 1888 3053 
Q 1444 3053 1217 2703 
Q 991 2353 991 1663 
Q 991 975 1217 622 
Q 1444 269 1888 269 
Q 2325 269 2554 583 
Q 2784 897 2784 1497 
L 2784 1825 
z
" transform="scale(0.015625)"/>
       <path id="DejaVuSerif-61" d="M 2547 1044 
L 2547 1747 
L 1806 1747 
Q 1378 1747 1168 1562 
Q 959 1378 959 997 
Q 959 650 1171 447 
Q 1384 244 1747 244 
Q 2106 244 2326 466 
Q 2547 688 2547 1044 
z
M 3122 2075 
L 3122 331 
L 3634 331 
L 3634 0 
L 2547 0 
L 2547 359 
Q 2356 128 2106 18 
Q 1856 -91 1522 -91 
Q 969 -91 644 203 
Q 319 497 319 997 
Q 319 1513 691 1797 
Q 1063 2081 1741 2081 
L 2547 2081 
L 2547 2309 
Q 2547 2688 2317 2895 
Q 2088 3103 1672 3103 
Q 1328 3103 1125 2947 
Q 922 2791 872 2484 
L 575 2484 
L 575 3156 
Q 875 3284 1158 3348 
Q 1441 3413 1709 3413 
Q 2400 3413 2761 3070 
Q 3122 2728 3122 2075 
z
" transform="scale(0.015625)"/>
       <path id="DejaVuSerif-6c" d="M 1313 331 
L 1856 331 
L 1856 0 
L 184 0 
L 184 331 
L 738 331 
L 738 4531 
L 184 4531 
L 184 4863 
L 1313 4863 
L 1313 331 
z
" transform="scale(0.015625)"/>
      </defs>
      <use xlink:href="#DejaVuSerif-53"/>
      <use xlink:href="#DejaVuSerif-69" x="68.505859"/>
      <use xlink:href="#DejaVuSerif-67" x="100.488281"/>
      <use xlink:href="#DejaVuSerif-6e" x="164.501953"/>
      <use xlink:href="#DejaVuSerif-61" x="228.90625"/>
      <use xlink:href="#DejaVuSerif-6c" x="288.525391"/>
     </g>
    </g>
    <g id="LineCollection_2">
     <path d="M 199.48125 54.75241 
L 199.48125 44.75241 
" style="fill: none; stroke: #000000; stroke-width: 1.5"/>
    </g>
    <g id="line2d_88"/>
    <g id="line2d_89">
     <g>
      <use xlink:href="#mb7f55484e0" x="199.48125" y="49.75241" style="stroke: #000000"/>
     </g>
    </g>
    <g id="text_18">
     <!-- Data -->
     <g style="fill: #1a1a1a" transform="translate(217.48125 53.25241) scale(0.1 -0.1)">
      <defs>
       <path id="DejaVuSerif-44" d="M 1581 331 
L 2163 331 
Q 3072 331 3558 850 
Q 4044 1369 4044 2338 
Q 4044 3306 3559 3818 
Q 3075 4331 2163 4331 
L 1581 4331 
L 1581 331 
z
M 353 0 
L 353 331 
L 947 331 
L 947 4331 
L 353 4331 
L 353 4666 
L 2209 4666 
Q 3416 4666 4089 4050 
Q 4763 3434 4763 2338 
Q 4763 1238 4088 619 
Q 3413 0 2209 0 
L 353 0 
z
" transform="scale(0.015625)"/>
      </defs>
      <use xlink:href="#DejaVuSerif-44"/>
      <use xlink:href="#DejaVuSerif-61" x="80.175781"/>
      <use xlink:href="#DejaVuSerif-74" x="139.794922"/>
      <use xlink:href="#DejaVuSerif-61" x="179.980469"/>
     </g>
    </g>
    <g id="patch_31">
     <path d="M 189.48125 67.930535 
L 209.48125 67.930535 
L 209.48125 60.930535 
L 189.48125 60.930535 
z
" style="fill: url(#he507dcfb73)"/>
    </g>
    <g id="text_19">
     <!-- Stat. unc. -->
     <g style="fill: #1a1a1a" transform="translate(217.48125 67.930535) scale(0.1 -0.1)">
      <defs>
       <path id="DejaVuSerif-75" d="M 2266 3322 
L 3341 3322 
L 3341 331 
L 3884 331 
L 3884 0 
L 2766 0 
L 2766 588 
Q 2606 256 2353 82 
Q 2100 -91 1766 -91 
Q 1213 -91 952 223 
Q 691 538 691 1209 
L 691 2988 
L 172 2988 
L 172 3322 
L 1269 3322 
L 1269 1388 
Q 1269 781 1417 556 
Q 1566 331 1947 331 
Q 2347 331 2556 625 
Q 2766 919 2766 1478 
L 2766 2988 
L 2266 2988 
L 2266 3322 
z
" transform="scale(0.015625)"/>
      </defs>
      <use xlink:href="#DejaVuSerif-53"/>
      <use xlink:href="#DejaVuSerif-74" x="68.505859"/>
      <use xlink:href="#DejaVuSerif-61" x="108.691406"/>
      <use xlink:href="#DejaVuSerif-74" x="168.310547"/>
      <use xlink:href="#DejaVuSerif-2e" x="208.496094"/>
      <use xlink:href="#DejaVuSerif-20" x="240.283203"/>
      <use xlink:href="#DejaVuSerif-75" x="272.070312"/>
      <use xlink:href="#DejaVuSerif-6e" x="336.474609"/>
      <use xlink:href="#DejaVuSerif-63" x="400.878906"/>
      <use xlink:href="#DejaVuSerif-2e" x="456.884766"/>
     </g>
    </g>
   </g>
  </g>
  <g id="axes_2">
   <g id="patch_32">
    <path d="M 60.55625 243.59366 
L 395.35625 243.59366 
L 395.35625 201.752151 
L 60.55625 201.752151 
z
" style="fill: #ffffff"/>
   </g>
   <g id="patch_33">
    <path d="M 60.55625 222.952921 
L 102.40625 222.952921 
L 102.40625 222.39289 
L 60.55625 222.39289 
z
" clip-path="url(#p9e63097877)" style="fill: url(#he507dcfb73)"/>
   </g>
   <g id="patch_34">
    <path d="M 102.40625 222.853992 
L 144.25625 222.853992 
L 144.25625 222.491819 
L 102.40625 222.491819 
z
" clip-path="url(#p9e63097877)" style="fill: url(#he507dcfb73)"/>
   </g>
   <g id="patch_35">
    <path d="M 144.25625 222.853223 
L 186.10625 222.853223 
L 186.10625 222.492588 
L 144.25625 222.492588 
z
" clip-path="url(#p9e63097877)" style="fill: url(#he507dcfb73)"/>
   </g>
   <g id="patch_36">
    <path d="M 186.10625 223.145216 
L 227.95625 223.145216 
L 227.95625 222.200595 
L 186.10625 222.200595 
z
" clip-path="url(#p9e63097877)" style="fill: url(#he507dcfb73)"/>
   </g>
   <g id="patch_37">
    <path d="M 227.95625 223.081082 
L 269.80625 223.081082 
L 269.80625 222.26473 
L 227.95625 222.26473 
z
" clip-path="url(#p9e63097877)" style="fill: url(#he507dcfb73)"/>
   </g>
   <g id="patch_38">
    <path d="M 269.80625 222.85952 
L 311.65625 222.85952 
L 311.65625 222.486292 
L 269.80625 222.486292 
z
" clip-path="url(#p9e63097877)" style="fill: url(#he507dcfb73)"/>
   </g>
   <g id="patch_39">
    <path d="M 311.65625 222.819122 
L 353.50625 222.819122 
L 353.50625 222.526689 
L 311.65625 222.526689 
z
" clip-path="url(#p9e63097877)" style="fill: url(#he507dcfb73)"/>
   </g>
   <g id="patch_40">
    <path d="M 353.50625 222.929356 
L 395.35625 222.929356 
L 395.35625 222.416455 
L 353.50625 222.416455 
z
" clip-path="url(#p9e63097877)" style="fill: url(#he507dcfb73)"/>
   </g>
   <g id="LineCollection_3">
    <path d="M 81.48125 243.170148 
L 81.48125 243.170148 
" clip-path="url(#p9e63097877)" style="fill: none; stroke: #000000; stroke-width: 1.5"/>
    <path d="M 123.33125 239.30355 
L 123.33125 239.30355 
" clip-path="url(#p9e63097877)" style="fill: none; stroke: #000000; stroke-width: 1.5"/>
    <path d="M 165.18125 236.163148 
L 165.18125 236.163148 
" clip-path="url(#p9e63097877)" style="fill: none; stroke: #000000; stroke-width: 1.5"/>
    <path d="M 207.03125 238.912615 
L 207.03125 238.912615 
" clip-path="url(#p9e63097877)" style="fill: none; stroke: #000000; stroke-width: 1.5"/>
    <path d="M 248.88125 243.330857 
L 248.88125 243.330857 
" clip-path="url(#p9e63097877)" style="fill: none; stroke: #000000; stroke-width: 1.5"/>
    <path d="M 290.73125 243.097608 
L 290.73125 243.097608 
" clip-path="url(#p9e63097877)" style="fill: none; stroke: #000000; stroke-width: 1.5"/>
    <path d="M 332.58125 242.319326 
L 332.58125 242.319326 
" clip-path="url(#p9e63097877)" style="fill: none; stroke: #000000; stroke-width: 1.5"/>
    <path d="M 374.43125 239.469238 
L 374.43125 239.469238 
" clip-path="url(#p9e63097877)" style="fill: none; stroke: #000000; stroke-width: 1.5"/>
   </g>
   <g id="LineCollection_4">
    <path d="M 81.48125 245.138207 
L 81.48125 241.202089 
" clip-path="url(#p9e63097877)" style="fill: none; stroke: #000000; stroke-width: 1.5"/>
    <path d="M 123.33125 239.703439 
L 123.33125 238.90366 
" clip-path="url(#p9e63097877)" style="fill: none; stroke: #000000; stroke-width: 1.5"/>
    <path d="M 165.18125 236.465712 
L 165.18125 235.860583 
" clip-path="url(#p9e63097877)" style="fill: none; stroke: #000000; stroke-width: 1.5"/>
    <path d="M 207.03125 239.911108 
L 207.03125 237.914122 
" clip-path="url(#p9e63097877)" style="fill: none; stroke: #000000; stroke-width: 1.5"/>
    <path d="M 248.88125 246.972693 
L 248.88125 239.689021 
" clip-path="url(#p9e63097877)" style="fill: none; stroke: #000000; stroke-width: 1.5"/>
    <path d="M 290.73125 244.309515 
L 290.73125 241.885701 
" clip-path="url(#p9e63097877)" style="fill: none; stroke: #000000; stroke-width: 1.5"/>
    <path d="M 332.58125 242.911765 
L 332.58125 241.726886 
" clip-path="url(#p9e63097877)" style="fill: none; stroke: #000000; stroke-width: 1.5"/>
    <path d="M 374.43125 240.046816 
L 374.43125 238.89166 
" clip-path="url(#p9e63097877)" style="fill: none; stroke: #000000; stroke-width: 1.5"/>
   </g>
   <g id="line2d_90">
    <path d="M 60.55625 222.672906 
L 395.35625 222.672906 
" clip-path="url(#p9e63097877)" style="fill: none; stroke-dasharray: 3.7,1.6; stroke-dashoffset: 0; stroke: #000000"/>
   </g>
   <g id="line2d_91">
    <g clip-path="url(#p9e63097877)">
     <use xlink:href="#mb7f55484e0" x="81.48125" y="243.170148" style="stroke: #000000"/>
     <use xlink:href="#mb7f55484e0" x="123.33125" y="239.30355" style="stroke: #000000"/>
     <use xlink:href="#mb7f55484e0" x="165.18125" y="236.163148" style="stroke: #000000"/>
     <use xlink:href="#mb7f55484e0" x="207.03125" y="238.912615" style="stroke: #000000"/>
     <use xlink:href="#mb7f55484e0" x="248.88125" y="243.330857" style="stroke: #000000"/>
     <use xlink:href="#mb7f55484e0" x="290.73125" y="243.097608" style="stroke: #000000"/>
     <use xlink:href="#mb7f55484e0" x="332.58125" y="242.319326" style="stroke: #000000"/>
     <use xlink:href="#mb7f55484e0" x="374.43125" y="239.469238" style="stroke: #000000"/>
    </g>
   </g>
   <g id="patch_41">
    <path d="M 60.55625 243.59366 
L 60.55625 201.752151 
" style="fill: none; stroke: #000000; stroke-width: 1.2; stroke-linejoin: miter; stroke-linecap: square"/>
   </g>
   <g id="patch_42">
    <path d="M 395.35625 243.59366 
L 395.35625 201.752151 
" style="fill: none; stroke: #000000; stroke-width: 1.2; stroke-linejoin: miter; stroke-linecap: square"/>
   </g>
   <g id="patch_43">
    <path d="M 60.55625 243.59366 
L 395.35625 243.59366 
" style="fill: none; stroke: #000000; stroke-width: 1.2; stroke-linejoin: miter; stroke-linecap: square"/>
   </g>
   <g id="patch_44">
    <path d="M 60.55625 201.752151 
L 395.35625 201.752151 
" style="fill: none; stroke: #000000; stroke-width: 1.2; stroke-linejoin: miter; stroke-linecap: square"/>
   </g>
   <g id="matplotlib.axis_3">
    <g id="xtick_18">
     <g id="line2d_92">
      <g>
       <use xlink:href="#mfcb4db38d1" x="60.55625" y="243.59366" style="fill: #1a1a1a; stroke: #1a1a1a; stroke-width: 0.8"/>
      </g>
     </g>
     <g id="line2d_93">
      <g>
       <use xlink:href="#me56bbe9ba7" x="60.55625" y="201.752151" style="fill: #1a1a1a; stroke: #1a1a1a; stroke-width: 0.8"/>
      </g>
     </g>
     <g id="text_20">
      <!-- $\mathdefault{0}$ -->
      <g style="fill: #1a1a1a" transform="translate(55.75625 260.991317) scale(0.15 -0.15)">
       <use xlink:href="#DejaVuSerif-30" transform="translate(0 0.78125)"/>
      </g>
     </g>
    </g>
    <g id="xtick_19">
     <g id="line2d_94">
      <g>
       <use xlink:href="#mfcb4db38d1" x="144.25625" y="243.59366" style="fill: #1a1a1a; stroke: #1a1a1a; stroke-width: 0.8"/>
      </g>
     </g>
     <g id="line2d_95">
      <g>
       <use xlink:href="#me56bbe9ba7" x="144.25625" y="201.752151" style="fill: #1a1a1a; stroke: #1a1a1a; stroke-width: 0.8"/>
      </g>
     </g>
     <g id="text_21">
      <!-- $\mathdefault{2}$ -->
      <g style="fill: #1a1a1a" transform="translate(139.45625 260.991317) scale(0.15 -0.15)">
       <use xlink:href="#DejaVuSerif-32" transform="translate(0 0.78125)"/>
      </g>
     </g>
    </g>
    <g id="xtick_20">
     <g id="line2d_96">
      <g>
       <use xlink:href="#mfcb4db38d1" x="227.95625" y="243.59366" style="fill: #1a1a1a; stroke: #1a1a1a; stroke-width: 0.8"/>
      </g>
     </g>
     <g id="line2d_97">
      <g>
       <use xlink:href="#me56bbe9ba7" x="227.95625" y="201.752151" style="fill: #1a1a1a; stroke: #1a1a1a; stroke-width: 0.8"/>
      </g>
     </g>
     <g id="text_22">
      <!-- $\mathdefault{4}$ -->
      <g style="fill: #1a1a1a" transform="translate(223.15625 260.991317) scale(0.15 -0.15)">
       <use xlink:href="#DejaVuSerif-34" transform="translate(0 0.78125)"/>
      </g>
     </g>
    </g>
    <g id="xtick_21">
     <g id="line2d_98">
      <g>
       <use xlink:href="#mfcb4db38d1" x="311.65625" y="243.59366" style="fill: #1a1a1a; stroke: #1a1a1a; stroke-width: 0.8"/>
      </g>
     </g>
     <g id="line2d_99">
      <g>
       <use xlink:href="#me56bbe9ba7" x="311.65625" y="201.752151" style="fill: #1a1a1a; stroke: #1a1a1a; stroke-width: 0.8"/>
      </g>
     </g>
     <g id="text_23">
      <!-- $\mathdefault{6}$ -->
      <g style="fill: #1a1a1a" transform="translate(306.85625 260.991317) scale(0.15 -0.15)">
       <use xlink:href="#DejaVuSerif-36" transform="translate(0 0.78125)"/>
      </g>
     </g>
    </g>
    <g id="xtick_22">
     <g id="line2d_100">
      <g>
       <use xlink:href="#mfcb4db38d1" x="395.35625" y="243.59366" style="fill: #1a1a1a; stroke: #1a1a1a; stroke-width: 0.8"/>
      </g>
     </g>
     <g id="line2d_101">
      <g>
       <use xlink:href="#me56bbe9ba7" x="395.35625" y="201.752151" style="fill: #1a1a1a; stroke: #1a1a1a; stroke-width: 0.8"/>
      </g>
     </g>
     <g id="text_24">
      <!-- $\mathdefault{8}$ -->
      <g style="fill: #1a1a1a" transform="translate(390.55625 260.991317) scale(0.15 -0.15)">
       <defs>
        <path id="DejaVuSerif-38" d="M 2981 1275 
Q 2981 1775 2732 2051 
Q 2484 2328 2034 2328 
Q 1584 2328 1336 2051 
Q 1088 1775 1088 1275 
Q 1088 772 1336 495 
Q 1584 219 2034 219 
Q 2484 219 2732 495 
Q 2981 772 2981 1275 
z
M 2853 3541 
Q 2853 3966 2637 4203 
Q 2422 4441 2034 4441 
Q 1650 4441 1433 4203 
Q 1216 3966 1216 3541 
Q 1216 3113 1433 2875 
Q 1650 2638 2034 2638 
Q 2422 2638 2637 2875 
Q 2853 3113 2853 3541 
z
M 2516 2484 
Q 3047 2413 3344 2092 
Q 3641 1772 3641 1275 
Q 3641 619 3225 264 
Q 2809 -91 2034 -91 
Q 1263 -91 845 264 
Q 428 619 428 1275 
Q 428 1772 725 2092 
Q 1022 2413 1556 2484 
Q 1084 2569 832 2842 
Q 581 3116 581 3541 
Q 581 4103 968 4426 
Q 1356 4750 2034 4750 
Q 2713 4750 3100 4426 
Q 3488 4103 3488 3541 
Q 3488 3116 3236 2842 
Q 2984 2569 2516 2484 
z
" transform="scale(0.015625)"/>
       </defs>
       <use xlink:href="#DejaVuSerif-38" transform="translate(0 0.78125)"/>
      </g>
     </g>
    </g>
    <g id="xtick_23">
     <g id="line2d_102">
      <g>
       <use xlink:href="#m500bf0ca1c" x="81.48125" y="243.59366" style="fill: #1a1a1a; stroke: #1a1a1a; stroke-width: 0.6"/>
      </g>
     </g>
     <g id="line2d_103">
      <g>
       <use xlink:href="#md4cce523db" x="81.48125" y="201.752151" style="fill: #1a1a1a; stroke: #1a1a1a; stroke-width: 0.6"/>
      </g>
     </g>
    </g>
    <g id="xtick_24">
     <g id="line2d_104">
      <g>
       <use xlink:href="#m500bf0ca1c" x="102.40625" y="243.59366" style="fill: #1a1a1a; stroke: #1a1a1a; stroke-width: 0.6"/>
      </g>
     </g>
     <g id="line2d_105">
      <g>
       <use xlink:href="#md4cce523db" x="102.40625" y="201.752151" style="fill: #1a1a1a; stroke: #1a1a1a; stroke-width: 0.6"/>
      </g>
     </g>
    </g>
    <g id="xtick_25">
     <g id="line2d_106">
      <g>
       <use xlink:href="#m500bf0ca1c" x="123.33125" y="243.59366" style="fill: #1a1a1a; stroke: #1a1a1a; stroke-width: 0.6"/>
      </g>
     </g>
     <g id="line2d_107">
      <g>
       <use xlink:href="#md4cce523db" x="123.33125" y="201.752151" style="fill: #1a1a1a; stroke: #1a1a1a; stroke-width: 0.6"/>
      </g>
     </g>
    </g>
    <g id="xtick_26">
     <g id="line2d_108">
      <g>
       <use xlink:href="#m500bf0ca1c" x="165.18125" y="243.59366" style="fill: #1a1a1a; stroke: #1a1a1a; stroke-width: 0.6"/>
      </g>
     </g>
     <g id="line2d_109">
      <g>
       <use xlink:href="#md4cce523db" x="165.18125" y="201.752151" style="fill: #1a1a1a; stroke: #1a1a1a; stroke-width: 0.6"/>
      </g>
     </g>
    </g>
    <g id="xtick_27">
     <g id="line2d_110">
      <g>
       <use xlink:href="#m500bf0ca1c" x="186.10625" y="243.59366" style="fill: #1a1a1a; stroke: #1a1a1a; stroke-width: 0.6"/>
      </g>
     </g>
     <g id="line2d_111">
      <g>
       <use xlink:href="#md4cce523db" x="186.10625" y="201.752151" style="fill: #1a1a1a; stroke: #1a1a1a; stroke-width: 0.6"/>
      </g>
     </g>
    </g>
    <g id="xtick_28">
     <g id="line2d_112">
      <g>
       <use xlink:href="#m500bf0ca1c" x="207.03125" y="243.59366" style="fill: #1a1a1a; stroke: #1a1a1a; stroke-width: 0.6"/>
      </g>
     </g>
     <g id="line2d_113">
      <g>
       <use xlink:href="#md4cce523db" x="207.03125" y="201.752151" style="fill: #1a1a1a; stroke: #1a1a1a; stroke-width: 0.6"/>
      </g>
     </g>
    </g>
    <g id="xtick_29">
     <g id="line2d_114">
      <g>
       <use xlink:href="#m500bf0ca1c" x="248.88125" y="243.59366" style="fill: #1a1a1a; stroke: #1a1a1a; stroke-width: 0.6"/>
      </g>
     </g>
     <g id="line2d_115">
      <g>
       <use xlink:href="#md4cce523db" x="248.88125" y="201.752151" style="fill: #1a1a1a; stroke: #1a1a1a; stroke-width: 0.6"/>
      </g>
     </g>
    </g>
    <g id="xtick_30">
     <g id="line2d_116">
      <g>
       <use xlink:href="#m500bf0ca1c" x="269.80625" y="243.59366" style="fill: #1a1a1a; stroke: #1a1a1a; stroke-width: 0.6"/>
      </g>
     </g>
     <g id="line2d_117">
      <g>
       <use xlink:href="#md4cce523db" x="269.80625" y="201.752151" style="fill: #1a1a1a; stroke: #1a1a1a; stroke-width: 0.6"/>
      </g>
     </g>
    </g>
    <g id="xtick_31">
     <g id="line2d_118">
      <g>
       <use xlink:href="#m500bf0ca1c" x="290.73125" y="243.59366" style="fill: #1a1a1a; stroke: #1a1a1a; stroke-width: 0.6"/>
      </g>
     </g>
     <g id="line2d_119">
      <g>
       <use xlink:href="#md4cce523db" x="290.73125" y="201.752151" style="fill: #1a1a1a; stroke: #1a1a1a; stroke-width: 0.6"/>
      </g>
     </g>
    </g>
    <g id="xtick_32">
     <g id="line2d_120">
      <g>
       <use xlink:href="#m500bf0ca1c" x="332.58125" y="243.59366" style="fill: #1a1a1a; stroke: #1a1a1a; stroke-width: 0.6"/>
      </g>
     </g>
     <g id="line2d_121">
      <g>
       <use xlink:href="#md4cce523db" x="332.58125" y="201.752151" style="fill: #1a1a1a; stroke: #1a1a1a; stroke-width: 0.6"/>
      </g>
     </g>
    </g>
    <g id="xtick_33">
     <g id="line2d_122">
      <g>
       <use xlink:href="#m500bf0ca1c" x="353.50625" y="243.59366" style="fill: #1a1a1a; stroke: #1a1a1a; stroke-width: 0.6"/>
      </g>
     </g>
     <g id="line2d_123">
      <g>
       <use xlink:href="#md4cce523db" x="353.50625" y="201.752151" style="fill: #1a1a1a; stroke: #1a1a1a; stroke-width: 0.6"/>
      </g>
     </g>
    </g>
    <g id="xtick_34">
     <g id="line2d_124">
      <g>
       <use xlink:href="#m500bf0ca1c" x="374.43125" y="243.59366" style="fill: #1a1a1a; stroke: #1a1a1a; stroke-width: 0.6"/>
      </g>
     </g>
     <g id="line2d_125">
      <g>
       <use xlink:href="#md4cce523db" x="374.43125" y="201.752151" style="fill: #1a1a1a; stroke: #1a1a1a; stroke-width: 0.6"/>
      </g>
     </g>
    </g>
    <g id="text_25">
     <!-- (variable_1 $\times$ variable_2) bin -->
     <g style="fill: #1a1a1a" transform="translate(81.25625 283.310848) scale(0.2 -0.2)">
      <defs>
       <path id="DejaVuSerif-28" d="M 2041 -997 
Q 1281 -656 893 83 
Q 506 822 506 1931 
Q 506 3044 893 3783 
Q 1281 4522 2041 4863 
L 2041 4556 
Q 1559 4225 1350 3623 
Q 1141 3022 1141 1931 
Q 1141 844 1350 242 
Q 1559 -359 2041 -691 
L 2041 -997 
z
" transform="scale(0.015625)"/>
       <path id="DejaVuSerif-76" d="M 1581 0 
L 359 2988 
L -19 2988 
L -19 3322 
L 1509 3322 
L 1509 2988 
L 978 2988 
L 1913 703 
L 2847 2988 
L 2350 2988 
L 2350 3322 
L 3597 3322 
L 3597 2988 
L 3225 2988 
L 2003 0 
L 1581 0 
z
" transform="scale(0.015625)"/>
       <path id="DejaVuSerif-5f" d="M 3200 -1259 
L 3200 -1509 
L 0 -1509 
L 0 -1259 
L 3200 -1259 
z
" transform="scale(0.015625)"/>
       <path id="DejaVuSerif-29" d="M 453 -997 
L 453 -691 
Q 934 -359 1145 242 
Q 1356 844 1356 1931 
Q 1356 3022 1145 3623 
Q 934 4225 453 4556 
L 453 4863 
Q 1216 4522 1603 3783 
Q 1991 3044 1991 1931 
Q 1991 822 1603 83 
Q 1216 -656 453 -997 
z
" transform="scale(0.015625)"/>
      </defs>
      <use xlink:href="#DejaVuSerif-28" transform="translate(0 0.015625)"/>
      <use xlink:href="#DejaVuSerif-76" transform="translate(39.013672 0.015625)"/>
      <use xlink:href="#DejaVuSerif-61" transform="translate(95.507812 0.015625)"/>
      <use xlink:href="#DejaVuSerif-72" transform="translate(155.126953 0.015625)"/>
      <use xlink:href="#DejaVuSerif-69" transform="translate(202.929688 0.015625)"/>
      <use xlink:href="#DejaVuSerif-61" transform="translate(234.912109 0.015625)"/>
      <use xlink:href="#DejaVuSerif-62" transform="translate(294.53125 0.015625)"/>
      <use xlink:href="#DejaVuSerif-6c" transform="translate(358.544922 0.015625)"/>
      <use xlink:href="#DejaVuSerif-65" transform="translate(390.527344 0.015625)"/>
      <use xlink:href="#DejaVuSerif-5f" transform="translate(449.707031 0.015625)"/>
      <use xlink:href="#DejaVuSerif-31" transform="translate(499.707031 0.015625)"/>
      <use xlink:href="#DejaVuSerif-20" transform="translate(563.330078 0.015625)"/>
      <use xlink:href="#DejaVuSerif-d7" transform="translate(595.117188 0.015625)"/>
      <use xlink:href="#DejaVuSerif-20" transform="translate(678.90625 0.015625)"/>
      <use xlink:href="#DejaVuSerif-76" transform="translate(710.693359 0.015625)"/>
      <use xlink:href="#DejaVuSerif-61" transform="translate(767.1875 0.015625)"/>
      <use xlink:href="#DejaVuSerif-72" transform="translate(826.806641 0.015625)"/>
      <use xlink:href="#DejaVuSerif-69" transform="translate(874.609375 0.015625)"/>
      <use xlink:href="#DejaVuSerif-61" transform="translate(906.591797 0.015625)"/>
      <use xlink:href="#DejaVuSerif-62" transform="translate(966.210938 0.015625)"/>
      <use xlink:href="#DejaVuSerif-6c" transform="translate(1030.224609 0.015625)"/>
      <use xlink:href="#DejaVuSerif-65" transform="translate(1062.207031 0.015625)"/>
      <use xlink:href="#DejaVuSerif-5f" transform="translate(1121.386719 0.015625)"/>
      <use xlink:href="#DejaVuSerif-32" transform="translate(1171.386719 0.015625)"/>
      <use xlink:href="#DejaVuSerif-29" transform="translate(1235.009766 0.015625)"/>
      <use xlink:href="#DejaVuSerif-20" transform="translate(1274.023438 0.015625)"/>
      <use xlink:href="#DejaVuSerif-62" transform="translate(1305.810547 0.015625)"/>
      <use xlink:href="#DejaVuSerif-69" transform="translate(1369.824219 0.015625)"/>
      <use xlink:href="#DejaVuSerif-6e" transform="translate(1401.806641 0.015625)"/>
     </g>
    </g>
   </g>
   <g id="matplotlib.axis_4">
    <g id="ytick_27">
     <g id="line2d_126">
      <g>
       <use xlink:href="#ma470e3b261" x="60.55625" y="243.59366" style="fill: #1a1a1a; stroke: #1a1a1a; stroke-width: 0.8"/>
      </g>
     </g>
     <g id="line2d_127">
      <g>
       <use xlink:href="#mb857ba958f" x="395.35625" y="243.59366" style="fill: #1a1a1a; stroke: #1a1a1a; stroke-width: 0.8"/>
      </g>
     </g>
     <g id="text_26">
      <!-- $\mathdefault{0}$ -->
      <g style="fill: #1a1a1a" transform="translate(44.95625 249.292489) scale(0.15 -0.15)">
       <use xlink:href="#DejaVuSerif-30" transform="translate(0 0.78125)"/>
      </g>
     </g>
    </g>
    <g id="ytick_28">
     <g id="line2d_128">
      <g>
       <use xlink:href="#ma470e3b261" x="60.55625" y="201.752151" style="fill: #1a1a1a; stroke: #1a1a1a; stroke-width: 0.8"/>
      </g>
     </g>
     <g id="line2d_129">
      <g>
       <use xlink:href="#mb857ba958f" x="395.35625" y="201.752151" style="fill: #1a1a1a; stroke: #1a1a1a; stroke-width: 0.8"/>
      </g>
     </g>
     <g id="text_27">
      <!-- $\mathdefault{2}$ -->
      <g style="fill: #1a1a1a" transform="translate(44.95625 207.450979) scale(0.15 -0.15)">
       <use xlink:href="#DejaVuSerif-32" transform="translate(0 0.78125)"/>
      </g>
     </g>
    </g>
    <g id="ytick_29">
     <g id="line2d_130">
      <g>
       <use xlink:href="#m2913249ee3" x="60.55625" y="233.133283" style="fill: #1a1a1a; stroke: #1a1a1a; stroke-width: 0.6"/>
      </g>
     </g>
     <g id="line2d_131">
      <g>
       <use xlink:href="#md30f5b783e" x="395.35625" y="233.133283" style="fill: #1a1a1a; stroke: #1a1a1a; stroke-width: 0.6"/>
      </g>
     </g>
    </g>
    <g id="ytick_30">
     <g id="line2d_132">
      <g>
       <use xlink:href="#m2913249ee3" x="60.55625" y="222.672906" style="fill: #1a1a1a; stroke: #1a1a1a; stroke-width: 0.6"/>
      </g>
     </g>
     <g id="line2d_133">
      <g>
       <use xlink:href="#md30f5b783e" x="395.35625" y="222.672906" style="fill: #1a1a1a; stroke: #1a1a1a; stroke-width: 0.6"/>
      </g>
     </g>
    </g>
    <g id="ytick_31">
     <g id="line2d_134">
      <g>
       <use xlink:href="#m2913249ee3" x="60.55625" y="212.212528" style="fill: #1a1a1a; stroke: #1a1a1a; stroke-width: 0.6"/>
      </g>
     </g>
     <g id="line2d_135">
      <g>
       <use xlink:href="#md30f5b783e" x="395.35625" y="212.212528" style="fill: #1a1a1a; stroke: #1a1a1a; stroke-width: 0.6"/>
      </g>
     </g>
    </g>
    <g id="text_28">
     <!-- $\frac{Data}{Simulation}$ -->
     <g style="fill: #1a1a1a" transform="translate(32.55625 262.372906) rotate(-90) scale(0.2 -0.2)">
      <defs>
       <path id="DejaVuSerif-6d" d="M 3316 2675 
Q 3481 3041 3739 3227 
Q 3997 3413 4341 3413 
Q 4863 3413 5119 3089 
Q 5375 2766 5375 2113 
L 5375 331 
L 5894 331 
L 5894 0 
L 4300 0 
L 4300 331 
L 4800 331 
L 4800 2047 
Q 4800 2556 4650 2772 
Q 4500 2988 4153 2988 
Q 3769 2988 3567 2697 
Q 3366 2406 3366 1850 
L 3366 331 
L 3866 331 
L 3866 0 
L 2291 0 
L 2291 331 
L 2791 331 
L 2791 2069 
Q 2791 2566 2641 2777 
Q 2491 2988 2144 2988 
Q 1759 2988 1557 2697 
Q 1356 2406 1356 1850 
L 1356 331 
L 1856 331 
L 1856 0 
L 263 0 
L 263 331 
L 781 331 
L 781 2994 
L 231 2994 
L 231 3322 
L 1356 3322 
L 1356 2731 
Q 1516 3063 1762 3238 
Q 2009 3413 2322 3413 
Q 2709 3413 2968 3220 
Q 3228 3028 3316 2675 
z
" transform="scale(0.015625)"/>
       <path id="DejaVuSerif-6f" d="M 1925 219 
Q 2388 219 2623 584 
Q 2859 950 2859 1663 
Q 2859 2375 2623 2739 
Q 2388 3103 1925 3103 
Q 1463 3103 1227 2739 
Q 991 2375 991 1663 
Q 991 950 1228 584 
Q 1466 219 1925 219 
z
M 1925 -91 
Q 1200 -91 759 389 
Q 319 869 319 1663 
Q 319 2456 758 2934 
Q 1197 3413 1925 3413 
Q 2653 3413 3092 2934 
Q 3531 2456 3531 1663 
Q 3531 869 3092 389 
Q 2653 -91 1925 -91 
z
" transform="scale(0.015625)"/>
      </defs>
      <use xlink:href="#DejaVuSerif-44" transform="translate(108 44.965625) scale(0.7)"/>
      <use xlink:href="#DejaVuSerif-61" transform="translate(164.123047 44.965625) scale(0.7)"/>
      <use xlink:href="#DejaVuSerif-74" transform="translate(205.856445 44.965625) scale(0.7)"/>
      <use xlink:href="#DejaVuSerif-61" transform="translate(233.986328 44.965625) scale(0.7)"/>
      <use xlink:href="#DejaVuSerif-53" transform="translate(0 -40.46875) scale(0.7)"/>
      <use xlink:href="#DejaVuSerif-69" transform="translate(47.954102 -40.46875) scale(0.7)"/>
      <use xlink:href="#DejaVuSerif-6d" transform="translate(70.341797 -40.46875) scale(0.7)"/>
      <use xlink:href="#DejaVuSerif-75" transform="translate(136.71875 -40.46875) scale(0.7)"/>
      <use xlink:href="#DejaVuSerif-6c" transform="translate(181.801758 -40.46875) scale(0.7)"/>
      <use xlink:href="#DejaVuSerif-61" transform="translate(204.189453 -40.46875) scale(0.7)"/>
      <use xlink:href="#DejaVuSerif-74" transform="translate(245.922852 -40.46875) scale(0.7)"/>
      <use xlink:href="#DejaVuSerif-69" transform="translate(274.052734 -40.46875) scale(0.7)"/>
      <use xlink:href="#DejaVuSerif-6f" transform="translate(296.44043 -40.46875) scale(0.7)"/>
      <use xlink:href="#DejaVuSerif-6e" transform="translate(338.583984 -40.46875) scale(0.7)"/>
      <path d="M 0 18.970313 
L 0 25.220313 
L 383.666992 25.220313 
L 383.666992 18.970313 
L 0 18.970313 
z
"/>
     </g>
    </g>
   </g>
  </g>
 </g>
 <defs>
  <clipPath id="p2573b96530">
   <rect x="60.55625" y="21.83366" width="334.8" height="167.366038"/>
  </clipPath>
  <clipPath id="p9e63097877">
   <rect x="60.55625" y="201.752151" width="334.8" height="41.841509"/>
  </clipPath>
 </defs>
 <defs>
  <pattern id="he507dcfb73" patternUnits="userSpaceOnUse" x="0" y="0" width="72" height="72">
   <rect x="0" y="0" width="73" height="73" fill="none"/>
   <path d="M -36 36 
L 36 -36 
M -33 39 
L 39 -33 
M -30 42 
L 42 -30 
M -27 45 
L 45 -27 
M -24 48 
L 48 -24 
M -21 51 
L 51 -21 
M -18 54 
L 54 -18 
M -15 57 
L 57 -15 
M -12 60 
L 60 -12 
M -9 63 
L 63 -9 
M -6 66 
L 66 -6 
M -3 69 
L 69 -3 
M 0 72 
L 72 0 
M 3 75 
L 75 3 
M 6 78 
L 78 6 
M 9 81 
L 81 9 
M 12 84 
L 84 12 
M 15 87 
L 87 15 
M 18 90 
L 90 18 
M 21 93 
L 93 21 
M 24 96 
L 96 24 
M 27 99 
L 99 27 
M 30 102 
L 102 30 
M 33 105 
L 105 33 
M 36 108 
L 108 36 
" style="fill: #696969; stroke: #696969; stroke-width: 1.0; stroke-linecap: butt; stroke-linejoin: miter"/>
  </pattern>
 </defs>
</svg>
