<?xml version="1.0" encoding="utf-8" standalone="no"?>
<!DOCTYPE svg PUBLIC "-//W3C//DTD SVG 1.1//EN"
  "http://www.w3.org/Graphics/SVG/1.1/DTD/svg11.dtd">
<svg xmlns:xlink="http://www.w3.org/1999/xlink" width="399.13625pt" height="296.572182pt" viewBox="0 0 399.13625 296.572182" xmlns="http://www.w3.org/2000/svg" version="1.1">
 <metadata>
  <rdf:RDF xmlns:dc="http://purl.org/dc/elements/1.1/" xmlns:cc="http://creativecommons.org/ns#" xmlns:rdf="http://www.w3.org/1999/02/22-rdf-syntax-ns#">
   <cc:Work>
    <dc:type rdf:resource="http://purl.org/dc/dcmitype/StillImage"/>
    <dc:date>2023-07-20T00:53:39.026958</dc:date>
    <dc:format>image/svg+xml</dc:format>
    <dc:creator>
     <cc:Agent>
      <dc:title>Matplotlib v3.6.2, https://matplotlib.org/</dc:title>
     </cc:Agent>
    </dc:creator>
   </cc:Work>
  </rdf:RDF>
 </metadata>
 <defs>
  <style type="text/css">*{stroke-linejoin: round; stroke-linecap: butt}</style>
 </defs>
 <g id="figure_1">
  <g id="patch_1">
   <path d="M 0 296.572182 
L 399.13625 296.572182 
L 399.13625 0 
L 0 0 
z
" style="fill: #ffffff"/>
  </g>
  <g id="axes_1">
   <g id="patch_2">
    <path d="M 53.38625 187.321005 
L 388.18625 187.321005 
L 388.18625 22.290307 
L 53.38625 22.290307 
z
" style="fill: #ffffff"/>
   </g>
   <g id="patch_3">
    <path d="M 53.38625 147.591653 
L 53.38625 144.7631 
L 95.23625 144.7631 
L 95.23625 85.561716 
L 137.08625 85.561716 
L 137.08625 84.692565 
L 178.93625 84.692565 
L 178.93625 172.362458 
L 220.78625 172.362458 
L 220.78625 167.29241 
L 262.63625 167.29241 
L 262.63625 91.500914 
L 304.48625 91.500914 
L 304.48625 31.239775 
L 346.33625 31.239775 
L 346.33625 136.582407 
L 388.18625 136.582407 
L 388.18625 141.873554 
L 346.33625 141.873554 
L 346.33625 46.602401 
L 304.48625 46.602401 
L 304.48625 110.134293 
L 262.63625 110.134293 
L 262.63625 172.964764 
L 220.78625 172.964764 
L 220.78625 176.304134 
L 178.93625 176.304134 
L 178.93625 97.645965 
L 137.08625 97.645965 
L 137.08625 104.652542 
L 95.23625 104.652542 
L 95.23625 147.591653 
z
" clip-path="url(#pb9686d4b57)" style="fill: #b1dcc2; stroke: #000000; stroke-width: 0.5; stroke-linejoin: miter"/>
   </g>
   <g id="patch_4">
    <path d="M 53.38625 148.666656 
L 53.38625 147.591653 
L 95.23625 147.591653 
L 95.23625 104.652542 
L 137.08625 104.652542 
L 137.08625 97.645965 
L 178.93625 97.645965 
L 178.93625 176.304134 
L 220.78625 176.304134 
L 220.78625 172.964764 
L 262.63625 172.964764 
L 262.63625 110.134293 
L 304.48625 110.134293 
L 304.48625 46.602401 
L 346.33625 46.602401 
L 346.33625 141.873554 
L 388.18625 141.873554 
L 388.18625 146.501402 
L 346.33625 146.501402 
L 346.33625 83.205859 
L 304.48625 83.205859 
L 304.48625 138.17585 
L 262.63625 138.17585 
L 262.63625 178.682863 
L 220.78625 178.682863 
L 220.78625 177.874705 
L 178.93625 177.874705 
L 178.93625 100.809979 
L 137.08625 100.809979 
L 137.08625 108.129146 
L 95.23625 108.129146 
L 95.23625 148.666656 
z
" clip-path="url(#pb9686d4b57)" style="fill: #a9c593; stroke: #000000; stroke-width: 0.5; stroke-linejoin: miter"/>
   </g>
   <g id="patch_5">
    <path d="M 53.38625 149.291835 
L 53.38625 148.666656 
L 95.23625 148.666656 
L 95.23625 108.129146 
L 137.08625 108.129146 
L 137.08625 100.809979 
L 178.93625 100.809979 
L 178.93625 177.874705 
L 220.78625 177.874705 
L 220.78625 178.682863 
L 262.63625 178.682863 
L 262.63625 138.17585 
L 304.48625 138.17585 
L 304.48625 83.205859 
L 346.33625 83.205859 
L 346.33625 146.501402 
L 388.18625 146.501402 
L 388.18625 160.773777 
L 346.33625 160.773777 
L 346.33625 102.898992 
L 304.48625 102.898992 
L 304.48625 139.380463 
L 262.63625 139.380463 
L 262.63625 178.728608 
L 220.78625 178.728608 
L 220.78625 180.177193 
L 178.93625 180.177193 
L 178.93625 133.822471 
L 137.08625 133.822471 
L 137.08625 120.076161 
L 95.23625 120.076161 
L 95.23625 149.291835 
z
" clip-path="url(#pb9686d4b57)" style="fill: #b2a275; stroke: #000000; stroke-width: 0.5; stroke-linejoin: miter"/>
   </g>
   <g id="patch_6">
    <path d="M 53.38625 160.011364 
L 53.38625 149.291835 
L 95.23625 149.291835 
L 95.23625 120.076161 
L 137.08625 120.076161 
L 137.08625 133.822471 
L 178.93625 133.822471 
L 178.93625 180.177193 
L 220.78625 180.177193 
L 220.78625 178.728608 
L 262.63625 178.728608 
L 262.63625 139.380463 
L 304.48625 139.380463 
L 304.48625 102.898992 
L 346.33625 102.898992 
L 346.33625 160.773777 
L 388.18625 160.773777 
L 388.18625 172.248096 
L 346.33625 172.248096 
L 346.33625 135.644638 
L 304.48625 135.644638 
L 304.48625 155.718978 
L 262.63625 155.718978 
L 262.63625 180.726131 
L 220.78625 180.726131 
L 220.78625 180.306803 
L 178.93625 180.306803 
L 178.93625 136.605279 
L 137.08625 136.605279 
L 137.08625 127.029369 
L 95.23625 127.029369 
L 95.23625 160.011364 
z
" clip-path="url(#pb9686d4b57)" style="fill: #b67b76; stroke: #000000; stroke-width: 0.5; stroke-linejoin: miter"/>
   </g>
   <g id="patch_7">
    <path d="M 53.38625 160.423067 
L 53.38625 160.011364 
L 95.23625 160.011364 
L 95.23625 127.029369 
L 137.08625 127.029369 
L 137.08625 136.605279 
L 178.93625 136.605279 
L 178.93625 180.306803 
L 220.78625 180.306803 
L 220.78625 180.726131 
L 262.63625 180.726131 
L 262.63625 155.718978 
L 304.48625 155.718978 
L 304.48625 135.644638 
L 346.33625 135.644638 
L 346.33625 172.248096 
L 388.18625 172.248096 
L 388.18625 179.826483 
L 346.33625 179.826483 
L 346.33625 161.254098 
L 304.48625 161.254098 
L 304.48625 167.216169 
L 262.63625 167.216169 
L 262.63625 181.930743 
L 220.78625 181.930743 
L 220.78625 185.742809 
L 178.93625 185.742809 
L 178.93625 161.177856 
L 137.08625 161.177856 
L 137.08625 135.088077 
L 95.23625 135.088077 
L 95.23625 160.423067 
z
" clip-path="url(#pb9686d4b57)" style="fill: #a15f86; stroke: #000000; stroke-width: 0.5; stroke-linejoin: miter"/>
   </g>
   <g id="patch_8">
    <path d="M 53.38625 181.153082 
L 53.38625 160.423067 
L 95.23625 160.423067 
L 95.23625 135.088077 
L 137.08625 135.088077 
L 137.08625 161.177856 
L 178.93625 161.177856 
L 178.93625 185.742809 
L 220.78625 185.742809 
L 220.78625 181.930743 
L 262.63625 181.930743 
L 262.63625 167.216169 
L 304.48625 167.216169 
L 304.48625 161.254098 
L 346.33625 161.254098 
L 346.33625 179.826483 
L 388.18625 179.826483 
L 388.18625 180.428789 
L 346.33625 180.428789 
L 346.33625 167.353403 
L 304.48625 167.353403 
L 304.48625 179.140311 
L 262.63625 179.140311 
L 262.63625 186.947422 
L 220.78625 186.947422 
L 220.78625 186.390861 
L 178.93625 186.390861 
L 178.93625 172.835154 
L 137.08625 172.835154 
L 137.08625 160.537429 
L 95.23625 160.537429 
L 95.23625 181.153082 
z
" clip-path="url(#pb9686d4b57)" style="fill: #73528c; stroke: #000000; stroke-width: 0.5; stroke-linejoin: miter"/>
   </g>
   <g id="patch_9">
    <path d="M 53.38625 187.321005 
L 53.38625 181.153082 
L 95.23625 181.153082 
L 95.23625 160.537429 
L 137.08625 160.537429 
L 137.08625 172.835154 
L 178.93625 172.835154 
L 178.93625 186.390861 
L 220.78625 186.390861 
L 220.78625 186.947422 
L 262.63625 186.947422 
L 262.63625 179.140311 
L 304.48625 179.140311 
L 304.48625 167.353403 
L 346.33625 167.353403 
L 346.33625 180.428789 
L 388.18625 180.428789 
L 388.18625 187.321005 
L 346.33625 187.321005 
L 346.33625 187.321005 
L 304.48625 187.321005 
L 304.48625 187.321005 
L 262.63625 187.321005 
L 262.63625 187.321005 
L 220.78625 187.321005 
L 220.78625 187.321005 
L 178.93625 187.321005 
L 178.93625 187.321005 
L 137.08625 187.321005 
L 137.08625 187.321005 
L 95.23625 187.321005 
L 95.23625 187.321005 
z
" clip-path="url(#pb9686d4b57)" style="fill: #3d4c74; stroke: #000000; stroke-width: 0.5; stroke-linejoin: miter"/>
   </g>
   <g id="patch_10">
    <path d="M 53.38625 145.33272 
L 95.23625 145.33272 
L 95.23625 144.19348 
L 53.38625 144.19348 
z
" clip-path="url(#pb9686d4b57)" style="fill: url(#he5bae9c1d3)"/>
   </g>
   <g id="patch_11">
    <path d="M 95.23625 86.442526 
L 137.08625 86.442526 
L 137.08625 84.680906 
L 95.23625 84.680906 
z
" clip-path="url(#pb9686d4b57)" style="fill: url(#he5bae9c1d3)"/>
   </g>
   <g id="patch_12">
    <path d="M 137.08625 85.577128 
L 178.93625 85.577128 
L 178.93625 83.808001 
L 137.08625 83.808001 
z
" clip-path="url(#pb9686d4b57)" style="fill: url(#he5bae9c1d3)"/>
   </g>
   <g id="patch_13">
    <path d="M 178.93625 172.700165 
L 220.78625 172.700165 
L 220.78625 172.024751 
L 178.93625 172.024751 
z
" clip-path="url(#pb9686d4b57)" style="fill: url(#he5bae9c1d3)"/>
   </g>
   <g id="patch_14">
    <path d="M 220.78625 167.683179 
L 262.63625 167.683179 
L 262.63625 166.901641 
L 220.78625 166.901641 
z
" clip-path="url(#pb9686d4b57)" style="fill: url(#he5bae9c1d3)"/>
   </g>
   <g id="patch_15">
    <path d="M 262.63625 92.355634 
L 304.48625 92.355634 
L 304.48625 90.646195 
L 262.63625 90.646195 
z
" clip-path="url(#pb9686d4b57)" style="fill: url(#he5bae9c1d3)"/>
   </g>
   <g id="patch_16">
    <path d="M 304.48625 32.330639 
L 346.33625 32.330639 
L 346.33625 30.148912 
L 304.48625 30.148912 
z
" clip-path="url(#pb9686d4b57)" style="fill: url(#he5bae9c1d3)"/>
   </g>
   <g id="patch_17">
    <path d="M 346.33625 137.204369 
L 388.18625 137.204369 
L 388.18625 135.960444 
L 346.33625 135.960444 
z
" clip-path="url(#pb9686d4b57)" style="fill: url(#he5bae9c1d3)"/>
   </g>
   <g id="patch_18">
    <path d="M 53.38625 187.321005 
L 53.38625 185.003269 
L 95.23625 185.003269 
L 95.23625 183.211598 
L 137.08625 183.211598 
L 137.08625 176.227893 
L 178.93625 176.227893 
L 178.93625 181.679147 
L 220.78625 181.679147 
L 220.78625 181.183578 
L 262.63625 181.183578 
L 262.63625 164.570595 
L 304.48625 164.570595 
L 304.48625 164.433361 
L 346.33625 164.433361 
L 346.33625 179.147935 
L 388.18625 179.147935 
L 388.18625 187.321005 
" clip-path="url(#pb9686d4b57)" style="fill: none; stroke: #ff0000; stroke-linejoin: miter"/>
   </g>
   <g id="LineCollection_1">
    <path d="M 74.31125 186.540403 
L 74.31125 186.370569 
" clip-path="url(#pb9686d4b57)" style="fill: none; stroke: #000000; stroke-width: 1.5"/>
    <path d="M 116.16125 166.852598 
L 116.16125 166.047216 
" clip-path="url(#pb9686d4b57)" style="fill: none; stroke: #000000; stroke-width: 1.5"/>
    <path d="M 158.01125 151.39718 
L 158.01125 150.3352 
" clip-path="url(#pb9686d4b57)" style="fill: none; stroke: #000000; stroke-width: 1.5"/>
    <path d="M 199.86125 184.133693 
L 199.86125 183.806522 
" clip-path="url(#pb9686d4b57)" style="fill: none; stroke: #000000; stroke-width: 1.5"/>
    <path d="M 241.71125 187.112983 
L 241.71125 187.017545 
" clip-path="url(#pb9686d4b57)" style="fill: none; stroke: #000000; stroke-width: 1.5"/>
    <path d="M 283.56125 185.180552 
L 283.56125 184.909629 
" clip-path="url(#pb9686d4b57)" style="fill: none; stroke: #000000; stroke-width: 1.5"/>
    <path d="M 325.41125 178.082906 
L 325.41125 177.536786 
" clip-path="url(#pb9686d4b57)" style="fill: none; stroke: #000000; stroke-width: 1.5"/>
    <path d="M 367.26125 177.594266 
L 367.26125 177.034291 
" clip-path="url(#pb9686d4b57)" style="fill: none; stroke: #000000; stroke-width: 1.5"/>
   </g>
   <g id="line2d_1">
    <defs>
     <path id="meb31f1c4d3" d="M 0 1.5 
C 0.397805 1.5 0.77937 1.341951 1.06066 1.06066 
C 1.341951 0.77937 1.5 0.397805 1.5 0 
C 1.5 -0.397805 1.341951 -0.77937 1.06066 -1.06066 
C 0.77937 -1.341951 0.397805 -1.5 0 -1.5 
C -0.397805 -1.5 -0.77937 -1.341951 -1.06066 -1.06066 
C -1.341951 -0.77937 -1.5 -0.397805 -1.5 0 
C -1.5 0.397805 -1.341951 0.77937 -1.06066 1.06066 
C -0.77937 1.341951 -0.397805 1.5 0 1.5 
z
" style="stroke: #000000"/>
    </defs>
    <g clip-path="url(#pb9686d4b57)">
     <use xlink:href="#meb31f1c4d3" x="74.31125" y="186.459478" style="stroke: #000000"/>
     <use xlink:href="#meb31f1c4d3" x="116.16125" y="166.453756" style="stroke: #000000"/>
     <use xlink:href="#meb31f1c4d3" x="158.01125" y="150.87003" style="stroke: #000000"/>
     <use xlink:href="#meb31f1c4d3" x="199.86125" y="183.974011" style="stroke: #000000"/>
     <use xlink:href="#meb31f1c4d3" x="241.71125" y="187.069408" style="stroke: #000000"/>
     <use xlink:href="#meb31f1c4d3" x="283.56125" y="185.049013" style="stroke: #000000"/>
     <use xlink:href="#meb31f1c4d3" x="325.41125" y="177.813712" style="stroke: #000000"/>
     <use xlink:href="#meb31f1c4d3" x="367.26125" y="177.318144" style="stroke: #000000"/>
    </g>
   </g>
   <g id="patch_19">
    <path d="M 53.38625 187.321005 
L 53.38625 22.290307 
" style="fill: none; stroke: #000000; stroke-linejoin: miter; stroke-linecap: square"/>
   </g>
   <g id="patch_20">
    <path d="M 388.18625 187.321005 
L 388.18625 22.290307 
" style="fill: none; stroke: #000000; stroke-linejoin: miter; stroke-linecap: square"/>
   </g>
   <g id="patch_21">
    <path d="M 53.38625 187.321005 
L 388.18625 187.321005 
" style="fill: none; stroke: #000000; stroke-linejoin: miter; stroke-linecap: square"/>
   </g>
   <g id="patch_22">
    <path d="M 53.38625 22.290307 
L 388.18625 22.290307 
" style="fill: none; stroke: #000000; stroke-linejoin: miter; stroke-linecap: square"/>
   </g>
   <g id="matplotlib.axis_1">
    <g id="xtick_1">
     <g id="line2d_2">
      <defs>
       <path id="ma9dd1b343c" d="M 0 0 
L 0 -6 
" style="stroke: #1a1a1a; stroke-width: 0.8"/>
      </defs>
      <g>
       <use xlink:href="#ma9dd1b343c" x="53.38625" y="187.321005" style="fill: #1a1a1a; stroke: #1a1a1a; stroke-width: 0.8"/>
      </g>
     </g>
    </g>
    <g id="xtick_2">
     <g id="line2d_3">
      <g>
       <use xlink:href="#ma9dd1b343c" x="137.08625" y="187.321005" style="fill: #1a1a1a; stroke: #1a1a1a; stroke-width: 0.8"/>
      </g>
     </g>
    </g>
    <g id="xtick_3">
     <g id="line2d_4">
      <g>
       <use xlink:href="#ma9dd1b343c" x="220.78625" y="187.321005" style="fill: #1a1a1a; stroke: #1a1a1a; stroke-width: 0.8"/>
      </g>
     </g>
    </g>
    <g id="xtick_4">
     <g id="line2d_5">
      <g>
       <use xlink:href="#ma9dd1b343c" x="304.48625" y="187.321005" style="fill: #1a1a1a; stroke: #1a1a1a; stroke-width: 0.8"/>
      </g>
     </g>
    </g>
    <g id="xtick_5">
     <g id="line2d_6">
      <g>
       <use xlink:href="#ma9dd1b343c" x="388.18625" y="187.321005" style="fill: #1a1a1a; stroke: #1a1a1a; stroke-width: 0.8"/>
      </g>
     </g>
    </g>
    <g id="xtick_6">
     <g id="line2d_7">
      <defs>
       <path id="m152b13370e" d="M 0 0 
L 0 -3 
" style="stroke: #1a1a1a; stroke-width: 0.6"/>
      </defs>
      <g>
       <use xlink:href="#m152b13370e" x="74.31125" y="187.321005" style="fill: #1a1a1a; stroke: #1a1a1a; stroke-width: 0.6"/>
      </g>
     </g>
    </g>
    <g id="xtick_7">
     <g id="line2d_8">
      <g>
       <use xlink:href="#m152b13370e" x="95.23625" y="187.321005" style="fill: #1a1a1a; stroke: #1a1a1a; stroke-width: 0.6"/>
      </g>
     </g>
    </g>
    <g id="xtick_8">
     <g id="line2d_9">
      <g>
       <use xlink:href="#m152b13370e" x="116.16125" y="187.321005" style="fill: #1a1a1a; stroke: #1a1a1a; stroke-width: 0.6"/>
      </g>
     </g>
    </g>
    <g id="xtick_9">
     <g id="line2d_10">
      <g>
       <use xlink:href="#m152b13370e" x="158.01125" y="187.321005" style="fill: #1a1a1a; stroke: #1a1a1a; stroke-width: 0.6"/>
      </g>
     </g>
    </g>
    <g id="xtick_10">
     <g id="line2d_11">
      <g>
       <use xlink:href="#m152b13370e" x="178.93625" y="187.321005" style="fill: #1a1a1a; stroke: #1a1a1a; stroke-width: 0.6"/>
      </g>
     </g>
    </g>
    <g id="xtick_11">
     <g id="line2d_12">
      <g>
       <use xlink:href="#m152b13370e" x="199.86125" y="187.321005" style="fill: #1a1a1a; stroke: #1a1a1a; stroke-width: 0.6"/>
      </g>
     </g>
    </g>
    <g id="xtick_12">
     <g id="line2d_13">
      <g>
       <use xlink:href="#m152b13370e" x="241.71125" y="187.321005" style="fill: #1a1a1a; stroke: #1a1a1a; stroke-width: 0.6"/>
      </g>
     </g>
    </g>
    <g id="xtick_13">
     <g id="line2d_14">
      <g>
       <use xlink:href="#m152b13370e" x="262.63625" y="187.321005" style="fill: #1a1a1a; stroke: #1a1a1a; stroke-width: 0.6"/>
      </g>
     </g>
    </g>
    <g id="xtick_14">
     <g id="line2d_15">
      <g>
       <use xlink:href="#m152b13370e" x="283.56125" y="187.321005" style="fill: #1a1a1a; stroke: #1a1a1a; stroke-width: 0.6"/>
      </g>
     </g>
    </g>
    <g id="xtick_15">
     <g id="line2d_16">
      <g>
       <use xlink:href="#m152b13370e" x="325.41125" y="187.321005" style="fill: #1a1a1a; stroke: #1a1a1a; stroke-width: 0.6"/>
      </g>
     </g>
    </g>
    <g id="xtick_16">
     <g id="line2d_17">
      <g>
       <use xlink:href="#m152b13370e" x="346.33625" y="187.321005" style="fill: #1a1a1a; stroke: #1a1a1a; stroke-width: 0.6"/>
      </g>
     </g>
    </g>
    <g id="xtick_17">
     <g id="line2d_18">
      <g>
       <use xlink:href="#m152b13370e" x="367.26125" y="187.321005" style="fill: #1a1a1a; stroke: #1a1a1a; stroke-width: 0.6"/>
      </g>
     </g>
    </g>
   </g>
   <g id="matplotlib.axis_2">
    <g id="ytick_1">
     <g id="line2d_19">
      <defs>
       <path id="m075f8f50fc" d="M 0 0 
L 6 0 
" style="stroke: #1a1a1a; stroke-width: 0.8"/>
      </defs>
      <g>
       <use xlink:href="#m075f8f50fc" x="53.38625" y="187.321005" style="fill: #1a1a1a; stroke: #1a1a1a; stroke-width: 0.8"/>
      </g>
     </g>
     <g id="text_1">
      <!-- $\mathdefault{0.0}$ -->
      <g style="fill: #1a1a1a" transform="translate(29.18625 192.526473) scale(0.15 -0.15)">
       <defs>
        <path id="LatinModernMath-Regular-30" d="M 2944 2048 
C 2944 2560 2912 3072 2688 3546 
C 2394 4160 1869 4262 1600 4262 
C 1216 4262 749 4096 486 3501 
C 282 3059 250 2560 250 2048 
C 250 1568 275 992 538 506 
C 813 -13 1280 -141 1594 -141 
C 1939 -141 2426 -6 2707 602 
C 2912 1043 2944 1542 2944 2048 
z
M 2413 2125 
C 2413 1645 2413 1210 2342 800 
C 2246 192 1882 0 1594 0 
C 1344 0 966 160 851 774 
C 781 1158 781 1747 781 2125 
C 781 2534 781 2957 832 3302 
C 954 4064 1434 4122 1594 4122 
C 1805 4122 2227 4006 2349 3373 
C 2413 3014 2413 2528 2413 2125 
z
" transform="scale(0.015625)"/>
        <path id="LatinModernMath-Regular-2e" d="M 1229 339 
C 1229 525 1075 678 890 678 
C 704 678 550 525 550 339 
C 550 154 704 0 890 0 
C 1075 0 1229 154 1229 339 
z
" transform="scale(0.015625)"/>
       </defs>
       <use xlink:href="#LatinModernMath-Regular-30" transform="translate(0 0.40625)"/>
       <use xlink:href="#LatinModernMath-Regular-2e" transform="translate(49.999985 0.40625)"/>
       <use xlink:href="#LatinModernMath-Regular-30" transform="translate(77.799973 0.40625)"/>
      </g>
     </g>
    </g>
    <g id="ytick_2">
     <g id="line2d_20">
      <g>
       <use xlink:href="#m075f8f50fc" x="53.38625" y="149.200345" style="fill: #1a1a1a; stroke: #1a1a1a; stroke-width: 0.8"/>
      </g>
     </g>
     <g id="text_2">
      <!-- $\mathdefault{0.5}$ -->
      <g style="fill: #1a1a1a" transform="translate(29.18625 154.405814) scale(0.15 -0.15)">
       <defs>
        <path id="LatinModernMath-Regular-35" d="M 2874 1286 
C 2874 2048 2349 2688 1658 2688 
C 1350 2688 1075 2586 845 2362 
L 845 3610 
C 973 3571 1184 3526 1389 3526 
C 2176 3526 2624 4109 2624 4192 
C 2624 4230 2605 4262 2560 4262 
C 2560 4262 2541 4262 2509 4243 
C 2381 4186 2067 4058 1638 4058 
C 1382 4058 1088 4102 787 4237 
C 736 4256 710 4256 710 4256 
C 646 4256 646 4205 646 4102 
L 646 2208 
C 646 2093 646 2042 736 2042 
C 781 2042 794 2061 819 2099 
C 890 2202 1126 2547 1645 2547 
C 1978 2547 2138 2253 2189 2138 
C 2291 1901 2304 1651 2304 1331 
C 2304 1107 2304 723 2150 454 
C 1997 205 1760 38 1466 38 
C 998 38 634 378 525 755 
C 544 749 563 742 634 742 
C 845 742 954 902 954 1056 
C 954 1210 845 1370 634 1370 
C 544 1370 320 1325 320 1030 
C 320 480 762 -141 1478 -141 
C 2221 -141 2874 474 2874 1286 
z
" transform="scale(0.015625)"/>
       </defs>
       <use xlink:href="#LatinModernMath-Regular-30" transform="translate(0 0.40625)"/>
       <use xlink:href="#LatinModernMath-Regular-2e" transform="translate(49.999985 0.40625)"/>
       <use xlink:href="#LatinModernMath-Regular-35" transform="translate(77.799973 0.40625)"/>
      </g>
     </g>
    </g>
    <g id="ytick_3">
     <g id="line2d_21">
      <g>
       <use xlink:href="#m075f8f50fc" x="53.38625" y="111.079685" style="fill: #1a1a1a; stroke: #1a1a1a; stroke-width: 0.8"/>
      </g>
     </g>
     <g id="text_3">
      <!-- $\mathdefault{1.0}$ -->
      <g style="fill: #1a1a1a" transform="translate(29.18625 116.285154) scale(0.15 -0.15)">
       <defs>
        <path id="LatinModernMath-Regular-31" d="M 2682 0 
L 2682 198 
L 2477 198 
C 1901 198 1882 269 1882 506 
L 1882 4096 
C 1882 4250 1882 4262 1734 4262 
C 1338 3853 774 3853 570 3853 
L 570 3654 
C 698 3654 1075 3654 1408 3821 
L 1408 506 
C 1408 275 1389 198 813 198 
L 608 198 
L 608 0 
C 832 19 1389 19 1645 19 
C 1901 19 2458 19 2682 0 
z
" transform="scale(0.015625)"/>
       </defs>
       <use xlink:href="#LatinModernMath-Regular-31" transform="translate(0 0.40625)"/>
       <use xlink:href="#LatinModernMath-Regular-2e" transform="translate(49.999985 0.40625)"/>
       <use xlink:href="#LatinModernMath-Regular-30" transform="translate(77.799973 0.40625)"/>
      </g>
     </g>
    </g>
    <g id="ytick_4">
     <g id="line2d_22">
      <g>
       <use xlink:href="#m075f8f50fc" x="53.38625" y="72.959025" style="fill: #1a1a1a; stroke: #1a1a1a; stroke-width: 0.8"/>
      </g>
     </g>
     <g id="text_4">
      <!-- $\mathdefault{1.5}$ -->
      <g style="fill: #1a1a1a" transform="translate(29.18625 78.164494) scale(0.15 -0.15)">
       <use xlink:href="#LatinModernMath-Regular-31" transform="translate(0 0.40625)"/>
       <use xlink:href="#LatinModernMath-Regular-2e" transform="translate(49.999985 0.40625)"/>
       <use xlink:href="#LatinModernMath-Regular-35" transform="translate(77.799973 0.40625)"/>
      </g>
     </g>
    </g>
    <g id="ytick_5">
     <g id="line2d_23">
      <g>
       <use xlink:href="#m075f8f50fc" x="53.38625" y="34.838366" style="fill: #1a1a1a; stroke: #1a1a1a; stroke-width: 0.8"/>
      </g>
     </g>
     <g id="text_5">
      <!-- $\mathdefault{2.0}$ -->
      <g style="fill: #1a1a1a" transform="translate(29.18625 40.043834) scale(0.15 -0.15)">
       <defs>
        <path id="LatinModernMath-Regular-32" d="M 2874 1114 
L 2714 1114 
C 2682 922 2637 640 2573 544 
C 2528 493 2106 493 1965 493 
L 813 493 
L 1491 1152 
C 2490 2035 2874 2381 2874 3021 
C 2874 3750 2298 4262 1517 4262 
C 794 4262 320 3674 320 3104 
C 320 2746 640 2746 659 2746 
C 768 2746 992 2822 992 3085 
C 992 3251 877 3418 653 3418 
C 602 3418 589 3418 570 3411 
C 717 3827 1062 4064 1434 4064 
C 2016 4064 2291 3546 2291 3021 
C 2291 2509 1971 2003 1619 1606 
L 390 237 
C 320 166 320 154 320 0 
L 2694 0 
L 2874 1114 
z
" transform="scale(0.015625)"/>
       </defs>
       <use xlink:href="#LatinModernMath-Regular-32" transform="translate(0 0.40625)"/>
       <use xlink:href="#LatinModernMath-Regular-2e" transform="translate(49.999985 0.40625)"/>
       <use xlink:href="#LatinModernMath-Regular-30" transform="translate(77.799973 0.40625)"/>
      </g>
     </g>
    </g>
    <g id="ytick_6">
     <g id="line2d_24">
      <defs>
       <path id="m48d0e81a5f" d="M 0 0 
L 3 0 
" style="stroke: #1a1a1a; stroke-width: 0.6"/>
      </defs>
      <g>
       <use xlink:href="#m48d0e81a5f" x="53.38625" y="179.696873" style="fill: #1a1a1a; stroke: #1a1a1a; stroke-width: 0.6"/>
      </g>
     </g>
    </g>
    <g id="ytick_7">
     <g id="line2d_25">
      <g>
       <use xlink:href="#m48d0e81a5f" x="53.38625" y="172.072741" style="fill: #1a1a1a; stroke: #1a1a1a; stroke-width: 0.6"/>
      </g>
     </g>
    </g>
    <g id="ytick_8">
     <g id="line2d_26">
      <g>
       <use xlink:href="#m48d0e81a5f" x="53.38625" y="164.448609" style="fill: #1a1a1a; stroke: #1a1a1a; stroke-width: 0.6"/>
      </g>
     </g>
    </g>
    <g id="ytick_9">
     <g id="line2d_27">
      <g>
       <use xlink:href="#m48d0e81a5f" x="53.38625" y="156.824477" style="fill: #1a1a1a; stroke: #1a1a1a; stroke-width: 0.6"/>
      </g>
     </g>
    </g>
    <g id="ytick_10">
     <g id="line2d_28">
      <g>
       <use xlink:href="#m48d0e81a5f" x="53.38625" y="141.576213" style="fill: #1a1a1a; stroke: #1a1a1a; stroke-width: 0.6"/>
      </g>
     </g>
    </g>
    <g id="ytick_11">
     <g id="line2d_29">
      <g>
       <use xlink:href="#m48d0e81a5f" x="53.38625" y="133.952081" style="fill: #1a1a1a; stroke: #1a1a1a; stroke-width: 0.6"/>
      </g>
     </g>
    </g>
    <g id="ytick_12">
     <g id="line2d_30">
      <g>
       <use xlink:href="#m48d0e81a5f" x="53.38625" y="126.327949" style="fill: #1a1a1a; stroke: #1a1a1a; stroke-width: 0.6"/>
      </g>
     </g>
    </g>
    <g id="ytick_13">
     <g id="line2d_31">
      <g>
       <use xlink:href="#m48d0e81a5f" x="53.38625" y="118.703817" style="fill: #1a1a1a; stroke: #1a1a1a; stroke-width: 0.6"/>
      </g>
     </g>
    </g>
    <g id="ytick_14">
     <g id="line2d_32">
      <g>
       <use xlink:href="#m48d0e81a5f" x="53.38625" y="103.455553" style="fill: #1a1a1a; stroke: #1a1a1a; stroke-width: 0.6"/>
      </g>
     </g>
    </g>
    <g id="ytick_15">
     <g id="line2d_33">
      <g>
       <use xlink:href="#m48d0e81a5f" x="53.38625" y="95.831421" style="fill: #1a1a1a; stroke: #1a1a1a; stroke-width: 0.6"/>
      </g>
     </g>
    </g>
    <g id="ytick_16">
     <g id="line2d_34">
      <g>
       <use xlink:href="#m48d0e81a5f" x="53.38625" y="88.207289" style="fill: #1a1a1a; stroke: #1a1a1a; stroke-width: 0.6"/>
      </g>
     </g>
    </g>
    <g id="ytick_17">
     <g id="line2d_35">
      <g>
       <use xlink:href="#m48d0e81a5f" x="53.38625" y="80.583157" style="fill: #1a1a1a; stroke: #1a1a1a; stroke-width: 0.6"/>
      </g>
     </g>
    </g>
    <g id="ytick_18">
     <g id="line2d_36">
      <g>
       <use xlink:href="#m48d0e81a5f" x="53.38625" y="65.334894" style="fill: #1a1a1a; stroke: #1a1a1a; stroke-width: 0.6"/>
      </g>
     </g>
    </g>
    <g id="ytick_19">
     <g id="line2d_37">
      <g>
       <use xlink:href="#m48d0e81a5f" x="53.38625" y="57.710762" style="fill: #1a1a1a; stroke: #1a1a1a; stroke-width: 0.6"/>
      </g>
     </g>
    </g>
    <g id="ytick_20">
     <g id="line2d_38">
      <g>
       <use xlink:href="#m48d0e81a5f" x="53.38625" y="50.08663" style="fill: #1a1a1a; stroke: #1a1a1a; stroke-width: 0.6"/>
      </g>
     </g>
    </g>
    <g id="ytick_21">
     <g id="line2d_39">
      <g>
       <use xlink:href="#m48d0e81a5f" x="53.38625" y="42.462498" style="fill: #1a1a1a; stroke: #1a1a1a; stroke-width: 0.6"/>
      </g>
     </g>
    </g>
    <g id="ytick_22">
     <g id="line2d_40">
      <g>
       <use xlink:href="#m48d0e81a5f" x="53.38625" y="27.214234" style="fill: #1a1a1a; stroke: #1a1a1a; stroke-width: 0.6"/>
      </g>
     </g>
    </g>
    <g id="text_6">
     <!-- Entries -->
     <g style="fill: #1a1a1a" transform="translate(19.693125 133.012218) rotate(-90) scale(0.18 -0.18)">
      <defs>
       <path id="LatinModernMath-Regular-45" d="M 4173 1651 
L 4013 1651 
C 3853 666 3706 198 2605 198 
L 1754 198 
C 1453 198 1440 243 1440 454 
L 1440 2163 
L 2016 2163 
C 2637 2163 2707 1958 2707 1414 
L 2867 1414 
L 2867 3110 
L 2707 3110 
C 2707 2560 2637 2362 2016 2362 
L 1440 2362 
L 1440 3898 
C 1440 4109 1453 4154 1754 4154 
L 2579 4154 
C 3558 4154 3731 3802 3834 2912 
L 3994 2912 
L 3814 4352 
L 211 4352 
L 211 4154 
L 365 4154 
C 858 4154 870 4083 870 3853 
L 870 499 
C 870 269 858 198 365 198 
L 211 198 
L 211 0 
L 3904 0 
L 4173 1651 
z
" transform="scale(0.015625)"/>
       <path id="LatinModernMath-Regular-6e" d="M 3424 0 
L 3424 198 
C 3091 198 2931 198 2925 390 
L 2925 1613 
C 2925 2163 2925 2362 2726 2592 
C 2637 2701 2426 2829 2054 2829 
C 1587 2829 1286 2554 1107 2157 
L 1107 2829 
L 205 2758 
L 205 2560 
C 653 2560 704 2515 704 2202 
L 704 486 
C 704 198 634 198 205 198 
L 205 0 
L 928 19 
L 1645 0 
L 1645 198 
C 1216 198 1146 198 1146 486 
L 1146 1664 
C 1146 2330 1600 2688 2010 2688 
C 2413 2688 2483 2342 2483 1978 
L 2483 486 
C 2483 198 2413 198 1984 198 
L 1984 0 
L 2707 19 
L 3424 0 
z
" transform="scale(0.015625)"/>
       <path id="LatinModernMath-Regular-74" d="M 2125 794 
L 2125 1158 
L 1965 1158 
L 1965 806 
C 1965 333 1773 90 1536 90 
C 1107 90 1107 672 1107 781 
L 1107 2560 
L 2022 2560 
L 2022 2758 
L 1107 2758 
L 1107 3936 
L 947 3936 
C 941 3411 749 2726 122 2701 
L 122 2560 
L 666 2560 
L 666 794 
C 666 6 1261 -70 1491 -70 
C 1946 -70 2125 384 2125 794 
z
" transform="scale(0.015625)"/>
       <path id="LatinModernMath-Regular-72" d="M 2330 2438 
C 2330 2643 2131 2829 1856 2829 
C 1389 2829 1158 2400 1069 2125 
L 1069 2829 
L 179 2758 
L 179 2560 
C 627 2560 678 2515 678 2202 
L 678 486 
C 678 198 608 198 179 198 
L 179 0 
L 909 19 
C 1165 19 1466 19 1722 0 
L 1722 198 
L 1587 198 
C 1114 198 1101 269 1101 499 
L 1101 1485 
C 1101 2118 1370 2688 1856 2688 
C 1901 2688 1914 2688 1926 2682 
C 1907 2675 1779 2598 1779 2432 
C 1779 2253 1914 2157 2054 2157 
C 2170 2157 2330 2234 2330 2438 
z
" transform="scale(0.015625)"/>
       <path id="LatinModernMath-Regular-69" d="M 1581 0 
L 1581 198 
C 1158 198 1133 230 1133 480 
L 1133 2829 
L 237 2758 
L 237 2560 
C 653 2560 710 2522 710 2208 
L 710 486 
C 710 198 640 198 211 198 
L 211 0 
L 915 19 
C 1139 19 1363 6 1581 0 
z
M 1229 3866 
C 1229 4038 1082 4205 890 4205 
C 672 4205 544 4026 544 3866 
C 544 3693 691 3526 883 3526 
C 1101 3526 1229 3706 1229 3866 
z
" transform="scale(0.015625)"/>
       <path id="LatinModernMath-Regular-65" d="M 2656 762 
C 2656 826 2605 838 2573 838 
C 2515 838 2502 800 2490 749 
C 2266 90 1690 90 1626 90 
C 1306 90 1050 282 902 518 
C 710 826 710 1248 710 1478 
L 2496 1478 
C 2637 1478 2656 1478 2656 1613 
C 2656 2246 2310 2867 1510 2867 
C 768 2867 179 2208 179 1408 
C 179 550 851 -70 1587 -70 
C 2368 -70 2656 640 2656 762 
z
M 2234 1613 
L 717 1613 
C 755 2566 1293 2726 1510 2726 
C 2170 2726 2234 1862 2234 1613 
z
" transform="scale(0.015625)"/>
       <path id="LatinModernMath-Regular-73" d="M 2304 819 
C 2304 1158 2112 1350 2035 1427 
C 1824 1632 1574 1683 1306 1734 
C 947 1805 518 1888 518 2259 
C 518 2483 685 2746 1235 2746 
C 1939 2746 1971 2170 1984 1971 
C 1990 1914 2061 1914 2061 1914 
C 2144 1914 2144 1946 2144 2067 
L 2144 2714 
C 2144 2822 2144 2867 2074 2867 
C 2042 2867 2029 2867 1946 2790 
C 1926 2765 1862 2707 1837 2688 
C 1594 2867 1331 2867 1235 2867 
C 454 2867 211 2438 211 2080 
C 211 1856 314 1677 486 1536 
C 691 1370 870 1331 1331 1242 
C 1472 1216 1997 1114 1997 653 
C 1997 326 1773 70 1274 70 
C 736 70 506 435 384 979 
C 365 1062 358 1088 294 1088 
C 211 1088 211 1043 211 928 
L 211 83 
C 211 -26 211 -70 282 -70 
C 314 -70 320 -64 442 58 
C 454 70 454 83 570 205 
C 851 -64 1139 -70 1274 -70 
C 2010 -70 2304 358 2304 819 
z
" transform="scale(0.015625)"/>
      </defs>
      <use xlink:href="#LatinModernMath-Regular-45"/>
      <use xlink:href="#LatinModernMath-Regular-6e" x="68.099991"/>
      <use xlink:href="#LatinModernMath-Regular-74" x="123.699982"/>
      <use xlink:href="#LatinModernMath-Regular-72" x="162.599976"/>
      <use xlink:href="#LatinModernMath-Regular-69" x="201.799973"/>
      <use xlink:href="#LatinModernMath-Regular-65" x="229.59996"/>
      <use xlink:href="#LatinModernMath-Regular-73" x="273.999954"/>
     </g>
    </g>
    <g id="text_7">
     <!-- $\times\mathdefault{10^{4}}\mathdefault{}$ -->
     <g style="fill: #1a1a1a" transform="translate(53.38625 19.290307) scale(0.15 -0.15)">
      <defs>
       <path id="LatinModernMath-Regular-d7" d="M 3994 96 
C 4045 141 4045 224 3994 275 
L 2669 1600 
L 3994 2925 
C 4045 2976 4045 3059 3994 3104 
C 3949 3155 3866 3155 3814 3104 
L 2490 1779 
L 1165 3104 
C 1114 3155 1030 3155 986 3104 
C 934 3059 934 2976 986 2925 
L 2310 1600 
L 986 275 
C 934 224 934 141 986 96 
C 1030 45 1114 45 1165 96 
L 2490 1421 
L 3814 96 
C 3866 45 3949 45 3994 96 
z
" transform="scale(0.015625)"/>
       <path id="LatinModernMath-Regular-34" d="M 3014 1056 
L 3014 1254 
L 2374 1254 
L 2374 4166 
C 2374 4294 2374 4333 2272 4333 
C 2214 4333 2195 4333 2144 4256 
L 179 1254 
L 179 1056 
L 1882 1056 
L 1882 499 
C 1882 269 1869 198 1395 198 
L 1261 198 
L 1261 0 
C 1523 19 1856 19 2125 19 
C 2394 19 2733 19 2995 0 
L 2995 198 
L 2861 198 
C 2387 198 2374 269 2374 499 
L 2374 1056 
L 3014 1056 
z
M 1920 1254 
L 358 1254 
L 1920 3642 
L 1920 1254 
z
" transform="scale(0.015625)"/>
      </defs>
      <use xlink:href="#LatinModernMath-Regular-d7" transform="translate(0 0.442188)"/>
      <use xlink:href="#LatinModernMath-Regular-31" transform="translate(77.799988 0.442188)"/>
      <use xlink:href="#LatinModernMath-Regular-30" transform="translate(127.799973 0.442188)"/>
      <use xlink:href="#LatinModernMath-Regular-34" transform="translate(178.554098 30.607813) scale(0.7)"/>
     </g>
    </g>
   </g>
   <g id="text_8">
    <!-- $\mathrm{\mathbf{Beast\,\,III}}$ $\int\,\mathcal{L}\,dt=50\,zb^{-1}$ -->
    <g style="fill: #1a1a1a" transform="translate(255.46625 16.92) scale(0.12 -0.12)">
     <defs>
      <path id="Cmb10-42" d="M 219 0 
L 219 325 
L 819 325 
L 819 4063 
L 219 4063 
L 219 4391 
L 2631 4391 
Q 2991 4391 3306 4270 
Q 3622 4150 3817 3898 
Q 4013 3647 4013 3278 
Q 4013 2888 3752 2636 
Q 3491 2384 3078 2297 
Q 3559 2238 3871 1952 
Q 4184 1666 4184 1197 
Q 4184 625 3789 312 
Q 3394 0 2809 0 
L 219 0 
z
M 1684 325 
L 2631 325 
Q 2838 325 2970 459 
Q 3103 594 3161 794 
Q 3219 994 3219 1197 
Q 3219 1384 3178 1606 
Q 3138 1828 3025 1992 
Q 2913 2156 2719 2156 
L 1684 2156 
L 1684 325 
z
M 1684 2413 
L 2450 2413 
Q 2766 2413 2922 2677 
Q 3078 2941 3078 3278 
Q 3078 3569 2978 3816 
Q 2878 4063 2631 4063 
L 1684 4063 
L 1684 2413 
z
" transform="scale(0.015625)"/>
      <path id="Cmb10-65" d="M 178 1441 
Q 178 1856 350 2189 
Q 522 2522 842 2711 
Q 1163 2900 1581 2900 
Q 2003 2900 2275 2726 
Q 2547 2553 2675 2242 
Q 2803 1931 2803 1522 
Q 2803 1428 2700 1394 
L 1025 1394 
Q 1025 1078 1070 829 
Q 1116 581 1275 412 
Q 1434 244 1741 244 
Q 2000 244 2208 394 
Q 2416 544 2484 788 
Q 2519 847 2578 863 
L 2700 863 
Q 2803 841 2803 750 
Q 2803 744 2797 709 
Q 2722 475 2553 308 
Q 2384 141 2150 51 
Q 1916 -38 1672 -38 
Q 1347 -38 1072 67 
Q 797 172 597 367 
Q 397 563 287 836 
Q 178 1109 178 1441 
z
M 1025 1631 
L 2169 1631 
Q 2169 1869 2120 2095 
Q 2072 2322 1940 2483 
Q 1809 2644 1581 2644 
Q 1250 2644 1137 2341 
Q 1025 2038 1025 1631 
z
" transform="scale(0.015625)"/>
      <path id="Cmb10-61" d="M 178 716 
Q 178 1081 468 1304 
Q 759 1528 1157 1618 
Q 1556 1709 1925 1709 
L 1925 1947 
Q 1925 2228 1803 2436 
Q 1681 2644 1416 2644 
Q 1244 2644 1050 2613 
Q 1184 2488 1184 2297 
Q 1184 2119 1068 2000 
Q 953 1881 775 1881 
Q 597 1881 478 2000 
Q 359 2119 359 2297 
Q 359 2541 529 2675 
Q 700 2809 937 2854 
Q 1175 2900 1422 2900 
Q 1731 2900 2018 2804 
Q 2306 2709 2493 2498 
Q 2681 2288 2681 1966 
L 2681 453 
Q 2709 325 3003 325 
Q 3084 306 3103 225 
L 3103 103 
Q 3084 19 3003 0 
L 2559 0 
Q 2366 0 2200 100 
Q 2034 200 2034 384 
L 2034 434 
Q 1922 219 1709 90 
Q 1497 -38 1253 -38 
Q 850 -38 514 153 
Q 178 344 178 716 
z
M 1331 219 
Q 1497 219 1633 305 
Q 1769 391 1847 533 
Q 1925 675 1925 838 
L 1925 1478 
Q 1697 1478 1472 1389 
Q 1247 1300 1100 1125 
Q 953 950 953 716 
Q 953 534 1058 376 
Q 1163 219 1331 219 
z
" transform="scale(0.015625)"/>
      <path id="Cmb10-73" d="M 213 44 
L 213 934 
Q 228 994 294 1013 
L 459 1013 
Q 522 991 538 934 
Q 703 219 1259 219 
Q 1825 219 1825 684 
Q 1825 800 1765 892 
Q 1706 984 1609 1045 
Q 1513 1106 1403 1131 
L 1019 1209 
Q 672 1294 442 1508 
Q 213 1722 213 2041 
Q 213 2272 292 2440 
Q 372 2609 517 2711 
Q 663 2813 847 2856 
Q 1031 2900 1259 2900 
Q 1559 2900 1759 2791 
L 1966 2894 
L 1991 2900 
L 2069 2900 
Q 2128 2884 2144 2822 
L 2144 2119 
Q 2128 2050 2069 2034 
L 1900 2034 
Q 1834 2050 1819 2119 
Q 1819 2288 1748 2411 
Q 1678 2534 1550 2601 
Q 1422 2669 1247 2669 
Q 691 2669 691 2284 
Q 691 2144 811 2048 
Q 931 1953 1088 1913 
L 1478 1838 
Q 1713 1778 1897 1654 
Q 2081 1531 2192 1339 
Q 2303 1147 2303 909 
Q 2303 428 2022 195 
Q 1741 -38 1259 -38 
Q 897 -38 659 141 
L 391 -31 
L 366 -38 
L 294 -38 
Q 228 -22 213 44 
z
" transform="scale(0.015625)"/>
      <path id="Cmb10-74" d="M 513 750 
L 513 2516 
L 122 2516 
L 122 2772 
Q 416 2772 600 2976 
Q 784 3181 862 3482 
Q 941 3784 941 4063 
L 1269 4063 
L 1269 2841 
L 2028 2841 
L 2028 2516 
L 1269 2516 
L 1269 769 
Q 1269 553 1320 398 
Q 1372 244 1538 244 
Q 1688 244 1747 409 
Q 1806 575 1806 769 
L 1806 1131 
L 2131 1131 
L 2131 750 
Q 2131 563 2051 378 
Q 1972 194 1822 78 
Q 1672 -38 1472 -38 
Q 1047 -38 780 151 
Q 513 341 513 750 
z
" transform="scale(0.015625)"/>
      <path id="Cmb10-49" d="M 166 0 
L 166 325 
L 800 325 
L 800 4063 
L 166 4063 
L 166 4391 
L 2369 4391 
L 2369 4063 
L 1734 4063 
L 1734 325 
L 2369 325 
L 2369 0 
L 166 0 
z
" transform="scale(0.015625)"/>
      <path id="LatinModernMath-Regular-20" transform="scale(0.015625)"/>
      <path id="LatinModernMath-Regular-222b" d="M 3898 4621 
C 3898 4928 3578 5152 3194 5152 
C 2586 5152 2336 4531 2227 4045 
C 2150 3693 1920 1888 1862 1114 
L 1741 -480 
C 1658 -1530 1427 -1818 1062 -1818 
C 979 -1818 787 -1798 653 -1683 
C 838 -1658 890 -1510 890 -1421 
C 890 -1235 749 -1152 627 -1152 
C 499 -1152 358 -1235 358 -1427 
C 358 -1734 678 -1958 1062 -1958 
C 1670 -1958 1978 -1402 2118 -826 
C 2202 -493 2432 1370 2483 2080 
L 2605 3674 
C 2694 4851 2912 5011 3200 5011 
C 3264 5011 3462 4998 3603 4877 
C 3418 4851 3366 4704 3366 4614 
C 3366 4429 3507 4346 3629 4346 
C 3757 4346 3898 4429 3898 4621 
z
" transform="scale(0.015625)"/>
      <path id="Cmsy10-4c" d="M 238 -141 
Q 197 -141 197 -97 
Q 197 -72 219 -38 
Q 266 38 359 130 
Q 453 222 494 275 
Q 656 509 750 691 
Q 913 1028 1031 1466 
Q 1206 2163 1348 2597 
Q 1491 3031 1722 3419 
Q 1903 3719 2168 3967 
Q 2434 4216 2757 4364 
Q 3081 4513 3419 4513 
L 3456 4513 
Q 3622 4513 3734 4430 
Q 3847 4347 3905 4208 
Q 3963 4069 3963 3909 
Q 3963 3666 3884 3572 
Q 3663 3331 3359 3291 
L 3322 3291 
Q 3284 3291 3284 3334 
Q 3284 3341 3300 3431 
Q 3316 3522 3316 3584 
Q 3316 3791 3212 3944 
Q 3109 4097 2906 4097 
Q 2669 4097 2669 4056 
Q 2494 3934 2333 3651 
Q 2172 3369 2051 3039 
Q 1931 2709 1837 2376 
Q 1744 2044 1672 1753 
Q 1594 1438 1470 1148 
Q 1347 859 1178 603 
Q 1253 628 1363 628 
L 1403 628 
Q 1625 628 1847 583 
Q 2069 538 2378 450 
Q 2688 363 2894 320 
Q 3100 278 3328 275 
Q 3397 275 3440 337 
Q 3484 400 3526 511 
Q 3569 622 3597 659 
Q 3694 766 3834 844 
Q 3975 922 4116 941 
L 4153 941 
Q 4172 941 4184 928 
Q 4197 916 4197 897 
Q 4197 897 4191 878 
Q 4128 628 3897 386 
Q 3666 144 3370 1 
Q 3075 -141 2828 -141 
L 2791 -141 
Q 2569 -141 2356 -100 
Q 2144 -59 1834 28 
Q 1525 116 1304 162 
Q 1084 209 863 213 
Q 578 -100 275 -141 
L 238 -141 
z
" transform="scale(0.015625)"/>
      <path id="LatinModernMath-Regular-64" d="M 3373 0 
L 3373 198 
C 2925 198 2874 243 2874 557 
L 2874 4442 
L 1952 4371 
L 1952 4173 
C 2400 4173 2451 4128 2451 3814 
L 2451 2432 
C 2266 2662 1990 2829 1645 2829 
C 890 2829 218 2202 218 1376 
C 218 563 845 -70 1574 -70 
C 1984 -70 2272 147 2432 352 
L 2432 -70 
L 3373 0 
z
M 2432 755 
C 2432 640 2432 627 2362 518 
C 2170 211 1882 70 1606 70 
C 1318 70 1088 237 934 480 
C 768 742 749 1107 749 1370 
C 749 1606 762 1990 947 2278 
C 1082 2477 1325 2688 1670 2688 
C 1894 2688 2163 2592 2362 2304 
C 2432 2195 2432 2182 2432 2067 
L 2432 755 
z
" transform="scale(0.015625)"/>
      <path id="LatinModernMath-Regular-3d" d="M 4621 2221 
C 4621 2291 4563 2349 4493 2349 
L 486 2349 
C 416 2349 358 2291 358 2221 
C 358 2150 416 2093 486 2093 
L 4493 2093 
C 4563 2093 4621 2150 4621 2221 
z
M 4621 979 
C 4621 1050 4563 1107 4493 1107 
L 486 1107 
C 416 1107 358 1050 358 979 
C 358 909 416 851 486 851 
L 4493 851 
C 4563 851 4621 909 4621 979 
z
" transform="scale(0.015625)"/>
      <path id="LatinModernMath-Regular-7a" d="M 2566 1197 
L 2406 1197 
C 2349 442 2214 160 1472 160 
L 717 160 
L 2496 2566 
C 2554 2637 2554 2650 2554 2675 
C 2554 2758 2502 2758 2387 2758 
L 339 2758 
L 269 1728 
L 429 1728 
C 467 2381 589 2618 1293 2618 
L 2022 2618 
L 237 205 
C 179 134 179 122 179 90 
C 179 0 224 0 346 0 
L 2458 0 
L 2566 1197 
z
" transform="scale(0.015625)"/>
      <path id="LatinModernMath-Regular-62" d="M 3334 1382 
C 3334 2195 2707 2829 1978 2829 
C 1478 2829 1203 2528 1101 2413 
L 1101 4442 
L 179 4371 
L 179 4173 
C 627 4173 678 4128 678 3814 
L 678 0 
L 838 0 
L 1069 397 
C 1165 250 1434 -70 1907 -70 
C 2669 -70 3334 557 3334 1382 
z
M 2803 1389 
C 2803 1152 2790 768 2605 480 
C 2470 282 2227 70 1882 70 
C 1594 70 1363 224 1210 461 
C 1120 595 1120 614 1120 730 
L 1120 2048 
C 1120 2170 1120 2176 1190 2278 
C 1440 2637 1792 2688 1946 2688 
C 2234 2688 2464 2522 2618 2278 
C 2784 2016 2803 1651 2803 1389 
z
" transform="scale(0.015625)"/>
      <path id="LatinModernMath-Regular-2212" d="M 4621 1600 
C 4621 1670 4563 1728 4493 1728 
L 486 1728 
C 416 1728 358 1670 358 1600 
C 358 1530 416 1472 486 1472 
L 4493 1472 
C 4563 1472 4621 1530 4621 1600 
z
" transform="scale(0.015625)"/>
     </defs>
     <use xlink:href="#Cmb10-42" transform="translate(0 0.5)"/>
     <use xlink:href="#Cmb10-65" transform="translate(71.09375 0.5)"/>
     <use xlink:href="#Cmb10-61" transform="translate(117.675781 0.5)"/>
     <use xlink:href="#Cmb10-73" transform="translate(166.259766 0.5)"/>
     <use xlink:href="#Cmb10-74" transform="translate(205.664062 0.5)"/>
     <use xlink:href="#Cmb10-49" transform="translate(273.942643 0.5)"/>
     <use xlink:href="#Cmb10-49" transform="translate(313.639908 0.5)"/>
     <use xlink:href="#Cmb10-49" transform="translate(353.337174 0.5)"/>
     <use xlink:href="#LatinModernMath-Regular-20" transform="translate(393.034439 0.5)"/>
     <use xlink:href="#LatinModernMath-Regular-222b" transform="translate(426.234436 0.5)"/>
     <use xlink:href="#Cmsy10-4c" transform="translate(507.366875 0.5)"/>
     <use xlink:href="#LatinModernMath-Regular-64" transform="translate(590.895814 0.5)"/>
     <use xlink:href="#LatinModernMath-Regular-74" transform="translate(646.495805 0.5)"/>
     <use xlink:href="#LatinModernMath-Regular-3d" transform="translate(702.954392 0.5)"/>
     <use xlink:href="#LatinModernMath-Regular-35" transform="translate(798.312974 0.5)"/>
     <use xlink:href="#LatinModernMath-Regular-30" transform="translate(848.312958 0.5)"/>
     <use xlink:href="#LatinModernMath-Regular-7a" transform="translate(912.945397 0.5)"/>
     <use xlink:href="#LatinModernMath-Regular-62" transform="translate(957.345391 0.5)"/>
     <use xlink:href="#LatinModernMath-Regular-2212" transform="translate(1013.699523 30.665625) scale(0.7)"/>
     <use xlink:href="#LatinModernMath-Regular-31" transform="translate(1068.159514 30.665625) scale(0.7)"/>
    </g>
   </g>
   <g id="legend_1">
    <g id="patch_23">
     <path d="M 62.38625 38.340307 
L 82.38625 38.340307 
L 82.38625 31.340307 
L 62.38625 31.340307 
z
" style="fill: #b1dcc2; stroke: #000000; stroke-width: 0.5; stroke-linejoin: miter"/>
    </g>
    <g id="text_9">
     <!-- c6 -->
     <g style="fill: #1a1a1a" transform="translate(90.38625 38.340307) scale(0.1 -0.1)">
      <defs>
       <path id="LatinModernMath-Regular-63" d="M 2656 762 
C 2656 826 2592 826 2573 826 
C 2515 826 2502 800 2490 762 
C 2304 166 1888 90 1651 90 
C 1312 90 749 365 749 1395 
C 749 2438 1274 2707 1613 2707 
C 1670 2707 2074 2701 2298 2470 
C 2035 2451 1997 2259 1997 2176 
C 1997 2010 2112 1882 2291 1882 
C 2458 1882 2586 1990 2586 2182 
C 2586 2618 2099 2867 1606 2867 
C 806 2867 218 2176 218 1382 
C 218 563 851 -70 1594 -70 
C 2451 -70 2656 698 2656 762 
z
" transform="scale(0.015625)"/>
       <path id="LatinModernMath-Regular-36" d="M 2925 1306 
C 2925 2118 2355 2733 1645 2733 
C 1210 2733 973 2406 845 2099 
L 845 2253 
C 845 3872 1638 4102 1965 4102 
C 2118 4102 2387 4064 2528 3846 
C 2432 3846 2176 3846 2176 3558 
C 2176 3360 2330 3264 2470 3264 
C 2573 3264 2765 3322 2765 3571 
C 2765 3955 2483 4262 1952 4262 
C 1133 4262 269 3437 269 2022 
C 269 314 1011 -141 1606 -141 
C 2317 -141 2925 461 2925 1306 
z
M 2349 1312 
C 2349 1005 2349 685 2240 454 
C 2048 70 1754 38 1606 38 
C 1203 38 1011 422 973 518 
C 858 819 858 1331 858 1446 
C 858 1946 1062 2586 1638 2586 
C 1741 2586 2035 2586 2234 2189 
C 2349 1952 2349 1626 2349 1312 
z
" transform="scale(0.015625)"/>
      </defs>
      <use xlink:href="#LatinModernMath-Regular-63"/>
      <use xlink:href="#LatinModernMath-Regular-36" x="44.399994"/>
     </g>
    </g>
    <g id="patch_24">
     <path d="M 62.38625 52.280932 
L 82.38625 52.280932 
L 82.38625 45.280932 
L 62.38625 45.280932 
z
" style="fill: #a9c593; stroke: #000000; stroke-width: 0.5; stroke-linejoin: miter"/>
    </g>
    <g id="text_10">
     <!-- c5 -->
     <g style="fill: #1a1a1a" transform="translate(90.38625 52.280932) scale(0.1 -0.1)">
      <use xlink:href="#LatinModernMath-Regular-63"/>
      <use xlink:href="#LatinModernMath-Regular-35" x="44.399994"/>
     </g>
    </g>
    <g id="patch_25">
     <path d="M 62.38625 66.221557 
L 82.38625 66.221557 
L 82.38625 59.221557 
L 62.38625 59.221557 
z
" style="fill: #b2a275; stroke: #000000; stroke-width: 0.5; stroke-linejoin: miter"/>
    </g>
    <g id="text_11">
     <!-- c4 -->
     <g style="fill: #1a1a1a" transform="translate(90.38625 66.221557) scale(0.1 -0.1)">
      <use xlink:href="#LatinModernMath-Regular-63"/>
      <use xlink:href="#LatinModernMath-Regular-34" x="44.399994"/>
     </g>
    </g>
    <g id="patch_26">
     <path d="M 62.38625 80.162182 
L 82.38625 80.162182 
L 82.38625 73.162182 
L 62.38625 73.162182 
z
" style="fill: #b67b76; stroke: #000000; stroke-width: 0.5; stroke-linejoin: miter"/>
    </g>
    <g id="text_12">
     <!-- c3 -->
     <g style="fill: #1a1a1a" transform="translate(90.38625 80.162182) scale(0.1 -0.1)">
      <defs>
       <path id="LatinModernMath-Regular-33" d="M 2925 1094 
C 2925 1619 2522 2118 1856 2253 
C 2381 2426 2752 2874 2752 3379 
C 2752 3904 2189 4262 1574 4262 
C 928 4262 442 3878 442 3392 
C 442 3181 582 3059 768 3059 
C 966 3059 1094 3200 1094 3386 
C 1094 3706 794 3706 698 3706 
C 896 4019 1318 4102 1549 4102 
C 1811 4102 2163 3962 2163 3386 
C 2163 3309 2150 2938 1984 2656 
C 1792 2349 1574 2330 1414 2323 
C 1363 2317 1210 2304 1165 2304 
C 1114 2298 1069 2291 1069 2227 
C 1069 2157 1114 2157 1222 2157 
L 1504 2157 
C 2029 2157 2266 1722 2266 1094 
C 2266 224 1824 38 1542 38 
C 1267 38 787 147 563 525 
C 787 493 986 634 986 877 
C 986 1107 813 1235 627 1235 
C 474 1235 269 1146 269 864 
C 269 282 864 -141 1562 -141 
C 2342 -141 2925 442 2925 1094 
z
" transform="scale(0.015625)"/>
      </defs>
      <use xlink:href="#LatinModernMath-Regular-63"/>
      <use xlink:href="#LatinModernMath-Regular-33" x="44.399994"/>
     </g>
    </g>
    <g id="patch_27">
     <path d="M 119.826875 38.340307 
L 139.826875 38.340307 
L 139.826875 31.340307 
L 119.826875 31.340307 
z
" style="fill: #a15f86; stroke: #000000; stroke-width: 0.5; stroke-linejoin: miter"/>
    </g>
    <g id="text_13">
     <!-- c2 -->
     <g style="fill: #1a1a1a" transform="translate(147.826875 38.340307) scale(0.1 -0.1)">
      <use xlink:href="#LatinModernMath-Regular-63"/>
      <use xlink:href="#LatinModernMath-Regular-32" x="44.399994"/>
     </g>
    </g>
    <g id="patch_28">
     <path d="M 119.826875 52.280932 
L 139.826875 52.280932 
L 139.826875 45.280932 
L 119.826875 45.280932 
z
" style="fill: #73528c; stroke: #000000; stroke-width: 0.5; stroke-linejoin: miter"/>
    </g>
    <g id="text_14">
     <!-- c1 -->
     <g style="fill: #1a1a1a" transform="translate(147.826875 52.280932) scale(0.1 -0.1)">
      <use xlink:href="#LatinModernMath-Regular-63"/>
      <use xlink:href="#LatinModernMath-Regular-31" x="44.399994"/>
     </g>
    </g>
    <g id="patch_29">
     <path d="M 119.826875 66.221557 
L 139.826875 66.221557 
L 139.826875 59.221557 
L 119.826875 59.221557 
z
" style="fill: #3d4c74; stroke: #000000; stroke-width: 0.5; stroke-linejoin: miter"/>
    </g>
    <g id="text_15">
     <!-- c0 -->
     <g style="fill: #1a1a1a" transform="translate(147.826875 66.221557) scale(0.1 -0.1)">
      <use xlink:href="#LatinModernMath-Regular-63"/>
      <use xlink:href="#LatinModernMath-Regular-30" x="44.399994"/>
     </g>
    </g>
    <g id="patch_30">
     <path d="M 177.2675 38.340307 
L 197.2675 38.340307 
L 197.2675 31.340307 
L 177.2675 31.340307 
L 177.2675 38.340307 
z
" style="fill: none; stroke: #ff0000; stroke-linejoin: miter"/>
    </g>
    <g id="text_16">
     <!-- Signal -->
     <g style="fill: #1a1a1a" transform="translate(205.2675 38.340307) scale(0.1 -0.1)">
      <defs>
       <path id="LatinModernMath-Regular-53" d="M 3194 1190 
C 3194 1830 2771 2355 2234 2483 
L 1414 2682 
C 1018 2778 768 3123 768 3494 
C 768 3942 1114 4333 1613 4333 
C 2682 4333 2822 3283 2861 2995 
C 2867 2957 2867 2918 2938 2918 
C 3021 2918 3021 2950 3021 3072 
L 3021 4358 
C 3021 4467 3021 4512 2950 4512 
C 2906 4512 2899 4506 2854 4429 
L 2630 4064 
C 2438 4250 2176 4512 1606 4512 
C 896 4512 358 3949 358 3270 
C 358 2739 698 2272 1197 2099 
C 1267 2074 1594 1997 2042 1888 
C 2214 1843 2406 1798 2586 1562 
C 2720 1395 2784 1184 2784 973 
C 2784 518 2464 58 1926 58 
C 1741 58 1254 90 915 403 
C 544 749 525 1158 518 1389 
C 512 1453 461 1453 442 1453 
C 358 1453 358 1408 358 1293 
L 358 13 
C 358 -96 358 -141 429 -141 
C 474 -141 480 -128 525 -58 
C 525 -58 544 -32 755 307 
C 954 90 1363 -141 1933 -141 
C 2682 -141 3194 486 3194 1190 
z
" transform="scale(0.015625)"/>
       <path id="LatinModernMath-Regular-67" d="M 3104 2586 
C 3104 2694 3027 2899 2778 2899 
C 2650 2899 2368 2861 2099 2598 
C 1830 2810 1562 2829 1421 2829 
C 826 2829 384 2387 384 1894 
C 384 1613 525 1370 685 1235 
C 602 1139 486 928 486 704 
C 486 506 570 262 768 134 
C 384 26 179 -250 179 -506 
C 179 -966 813 -1318 1594 -1318 
C 2349 -1318 3014 -992 3014 -493 
C 3014 -269 2925 58 2598 237 
C 2259 416 1888 416 1498 416 
C 1338 416 1062 416 1018 422 
C 813 448 678 646 678 851 
C 678 877 678 1024 787 1152 
C 1037 973 1299 954 1421 954 
C 2016 954 2458 1395 2458 1888 
C 2458 2125 2355 2362 2195 2509 
C 2426 2726 2656 2758 2771 2758 
C 2771 2758 2816 2758 2835 2752 
C 2765 2726 2733 2656 2733 2579 
C 2733 2470 2816 2394 2918 2394 
C 2982 2394 3104 2438 3104 2586 
z
M 1978 1894 
C 1978 1722 1971 1517 1875 1357 
C 1824 1280 1677 1101 1421 1101 
C 864 1101 864 1741 864 1888 
C 864 2061 870 2266 966 2426 
C 1018 2502 1165 2682 1421 2682 
C 1978 2682 1978 2042 1978 1894 
z
M 2682 -506 
C 2682 -851 2227 -1171 1600 -1171 
C 954 -1171 512 -845 512 -506 
C 512 -211 755 26 1037 45 
L 1414 45 
C 1965 45 2682 45 2682 -506 
z
" transform="scale(0.015625)"/>
       <path id="LatinModernMath-Regular-61" d="M 3091 570 
L 3091 928 
L 2931 928 
L 2931 570 
C 2931 198 2771 160 2701 160 
C 2490 160 2464 448 2464 480 
L 2464 1760 
C 2464 2029 2464 2278 2234 2515 
C 1984 2765 1664 2867 1357 2867 
C 832 2867 390 2566 390 2144 
C 390 1952 518 1843 685 1843 
C 864 1843 979 1971 979 2138 
C 979 2214 947 2426 653 2432 
C 826 2656 1139 2726 1344 2726 
C 1658 2726 2022 2477 2022 1907 
L 2022 1670 
C 1696 1651 1248 1632 845 1440 
C 365 1222 205 890 205 608 
C 205 90 826 -70 1229 -70 
C 1651 -70 1946 186 2067 486 
C 2093 230 2266 -38 2566 -38 
C 2701 -38 3091 51 3091 570 
z
M 2022 896 
C 2022 288 1562 70 1274 70 
C 960 70 698 294 698 614 
C 698 966 966 1498 2022 1536 
L 2022 896 
z
" transform="scale(0.015625)"/>
       <path id="LatinModernMath-Regular-6c" d="M 1632 0 
L 1632 198 
C 1203 198 1133 198 1133 486 
L 1133 4442 
L 211 4371 
L 211 4173 
C 659 4173 710 4128 710 3814 
L 710 486 
C 710 198 640 198 211 198 
L 211 0 
L 922 19 
L 1632 0 
z
" transform="scale(0.015625)"/>
      </defs>
      <use xlink:href="#LatinModernMath-Regular-53"/>
      <use xlink:href="#LatinModernMath-Regular-69" x="55.599991"/>
      <use xlink:href="#LatinModernMath-Regular-67" x="83.399979"/>
      <use xlink:href="#LatinModernMath-Regular-6e" x="133.399963"/>
      <use xlink:href="#LatinModernMath-Regular-61" x="188.999954"/>
      <use xlink:href="#LatinModernMath-Regular-6c" x="238.999939"/>
     </g>
    </g>
    <g id="LineCollection_2">
     <path d="M 187.2675 53.899682 
L 187.2675 43.899682 
" style="fill: none; stroke: #000000; stroke-width: 1.5"/>
    </g>
    <g id="line2d_41"/>
    <g id="line2d_42">
     <g>
      <use xlink:href="#meb31f1c4d3" x="187.2675" y="48.899682" style="stroke: #000000"/>
     </g>
    </g>
    <g id="text_17">
     <!-- Data -->
     <g style="fill: #1a1a1a" transform="translate(205.2675 52.399682) scale(0.1 -0.1)">
      <defs>
       <path id="LatinModernMath-Regular-44" d="M 4525 2150 
C 4525 3366 3661 4371 2566 4371 
L 224 4371 
L 224 4173 
L 378 4173 
C 870 4173 883 4102 883 3872 
L 883 499 
C 883 269 870 198 378 198 
L 224 198 
L 224 0 
L 2566 0 
C 3642 0 4525 947 4525 2150 
z
M 3885 2150 
C 3885 1440 3763 1056 3533 742 
C 3405 570 3040 198 2394 198 
L 1747 198 
C 1446 198 1434 243 1434 454 
L 1434 3917 
C 1434 4128 1446 4173 1747 4173 
L 2387 4173 
C 2784 4173 3226 4032 3552 3578 
C 3827 3200 3885 2650 3885 2150 
z
" transform="scale(0.015625)"/>
      </defs>
      <use xlink:href="#LatinModernMath-Regular-44"/>
      <use xlink:href="#LatinModernMath-Regular-61" x="76.399994"/>
      <use xlink:href="#LatinModernMath-Regular-74" x="126.399979"/>
      <use xlink:href="#LatinModernMath-Regular-61" x="165.299973"/>
     </g>
    </g>
    <g id="patch_31">
     <path d="M 177.2675 66.340307 
L 197.2675 66.340307 
L 197.2675 59.340307 
L 177.2675 59.340307 
z
" style="fill: url(#he5bae9c1d3)"/>
    </g>
    <g id="text_18">
     <!-- Stat. unc. -->
     <g style="fill: #1a1a1a" transform="translate(205.2675 66.340307) scale(0.1 -0.1)">
      <defs>
       <path id="LatinModernMath-Regular-75" d="M 3424 0 
L 3424 198 
C 2976 198 2925 243 2925 557 
L 2925 2829 
L 1984 2758 
L 1984 2560 
C 2432 2560 2483 2515 2483 2202 
L 2483 1062 
C 2483 506 2176 70 1709 70 
C 1171 70 1146 371 1146 704 
L 1146 2829 
L 205 2758 
L 205 2560 
C 704 2560 704 2541 704 1971 
L 704 1011 
C 704 512 704 -70 1677 -70 
C 2035 -70 2317 109 2502 506 
L 2502 -70 
L 3424 0 
z
" transform="scale(0.015625)"/>
      </defs>
      <use xlink:href="#LatinModernMath-Regular-53"/>
      <use xlink:href="#LatinModernMath-Regular-74" x="55.599991"/>
      <use xlink:href="#LatinModernMath-Regular-61" x="94.499985"/>
      <use xlink:href="#LatinModernMath-Regular-74" x="144.499969"/>
      <use xlink:href="#LatinModernMath-Regular-2e" x="183.399963"/>
      <use xlink:href="#LatinModernMath-Regular-20" x="211.199951"/>
      <use xlink:href="#LatinModernMath-Regular-75" x="244.399948"/>
      <use xlink:href="#LatinModernMath-Regular-6e" x="299.999939"/>
      <use xlink:href="#LatinModernMath-Regular-63" x="355.59993"/>
      <use xlink:href="#LatinModernMath-Regular-2e" x="399.999924"/>
     </g>
    </g>
   </g>
  </g>
  <g id="axes_2">
   <g id="patch_32">
    <path d="M 53.38625 244.050307 
L 388.18625 244.050307 
L 388.18625 202.792633 
L 53.38625 202.792633 
z
" style="fill: #ffffff"/>
   </g>
   <g id="patch_33">
    <path d="M 53.38625 223.697578 
L 95.23625 223.697578 
L 95.23625 223.145361 
L 53.38625 223.145361 
z
" clip-path="url(#pecaa268fb4)" style="fill: url(#he5bae9c1d3)"/>
   </g>
   <g id="patch_34">
    <path d="M 95.23625 223.600029 
L 137.08625 223.600029 
L 137.08625 223.24291 
L 95.23625 223.24291 
z
" clip-path="url(#pecaa268fb4)" style="fill: url(#he5bae9c1d3)"/>
   </g>
   <g id="patch_35">
    <path d="M 137.08625 223.599272 
L 178.93625 223.599272 
L 178.93625 223.243668 
L 137.08625 223.243668 
z
" clip-path="url(#pecaa268fb4)" style="fill: url(#he5bae9c1d3)"/>
   </g>
   <g id="patch_36">
    <path d="M 178.93625 223.88719 
L 220.78625 223.88719 
L 220.78625 222.955749 
L 178.93625 222.955749 
z
" clip-path="url(#pecaa268fb4)" style="fill: url(#he5bae9c1d3)"/>
   </g>
   <g id="patch_37">
    <path d="M 220.78625 223.82395 
L 262.63625 223.82395 
L 262.63625 223.018989 
L 220.78625 223.018989 
z
" clip-path="url(#pecaa268fb4)" style="fill: url(#he5bae9c1d3)"/>
   </g>
   <g id="patch_38">
    <path d="M 262.63625 223.60548 
L 304.48625 223.60548 
L 304.48625 223.23746 
L 262.63625 223.23746 
z
" clip-path="url(#pecaa268fb4)" style="fill: url(#he5bae9c1d3)"/>
   </g>
   <g id="patch_39">
    <path d="M 304.48625 223.565646 
L 346.33625 223.565646 
L 346.33625 223.277293 
L 304.48625 223.277293 
z
" clip-path="url(#pecaa268fb4)" style="fill: url(#he5bae9c1d3)"/>
   </g>
   <g id="patch_40">
    <path d="M 346.33625 223.674342 
L 388.18625 223.674342 
L 388.18625 223.168598 
L 346.33625 223.168598 
z
" clip-path="url(#pecaa268fb4)" style="fill: url(#he5bae9c1d3)"/>
   </g>
   <g id="LineCollection_3">
    <path d="M 74.31125 243.671931 
L 74.31125 243.589608 
" clip-path="url(#pecaa268fb4)" style="fill: none; stroke: #000000; stroke-width: 1.5"/>
    <path d="M 116.16125 239.900913 
L 116.16125 239.737644 
" clip-path="url(#pecaa268fb4)" style="fill: none; stroke: #000000; stroke-width: 1.5"/>
    <path d="M 158.01125 236.829436 
L 158.01125 236.615973 
" clip-path="url(#pecaa268fb4)" style="fill: none; stroke: #000000; stroke-width: 1.5"/>
    <path d="M 199.86125 239.654791 
L 199.86125 239.2036 
" clip-path="url(#pecaa268fb4)" style="fill: none; stroke: #000000; stroke-width: 1.5"/>
    <path d="M 241.71125 243.836051 
L 241.71125 243.737752 
" clip-path="url(#pecaa268fb4)" style="fill: none; stroke: #000000; stroke-width: 1.5"/>
    <path d="M 283.56125 243.589495 
L 283.56125 243.531169 
" clip-path="url(#pecaa268fb4)" style="fill: none; stroke: #000000; stroke-width: 1.5"/>
    <path d="M 325.41125 242.829332 
L 325.41125 242.757153 
" clip-path="url(#pecaa268fb4)" style="fill: none; stroke: #000000; stroke-width: 1.5"/>
    <path d="M 367.26125 240.095698 
L 367.26125 239.868029 
" clip-path="url(#pecaa268fb4)" style="fill: none; stroke: #000000; stroke-width: 1.5"/>
   </g>
   <g id="line2d_43">
    <path d="M 53.38625 223.42147 
L 388.18625 223.42147 
" clip-path="url(#pecaa268fb4)" style="fill: none; stroke-dasharray: 3.7,1.6; stroke-dashoffset: 0; stroke: #000000"/>
   </g>
   <g id="line2d_44">
    <g clip-path="url(#pecaa268fb4)">
     <use xlink:href="#meb31f1c4d3" x="74.31125" y="243.632704" style="stroke: #000000"/>
     <use xlink:href="#meb31f1c4d3" x="116.16125" y="239.820058" style="stroke: #000000"/>
     <use xlink:href="#meb31f1c4d3" x="158.01125" y="236.723476" style="stroke: #000000"/>
     <use xlink:href="#meb31f1c4d3" x="199.86125" y="239.434578" style="stroke: #000000"/>
     <use xlink:href="#meb31f1c4d3" x="241.71125" y="243.79117" style="stroke: #000000"/>
     <use xlink:href="#meb31f1c4d3" x="283.56125" y="243.561176" style="stroke: #000000"/>
     <use xlink:href="#meb31f1c4d3" x="325.41125" y="242.793754" style="stroke: #000000"/>
     <use xlink:href="#meb31f1c4d3" x="367.26125" y="239.983435" style="stroke: #000000"/>
    </g>
   </g>
   <g id="patch_41">
    <path d="M 53.38625 244.050307 
L 53.38625 202.792633 
" style="fill: none; stroke: #000000; stroke-linejoin: miter; stroke-linecap: square"/>
   </g>
   <g id="patch_42">
    <path d="M 388.18625 244.050307 
L 388.18625 202.792633 
" style="fill: none; stroke: #000000; stroke-linejoin: miter; stroke-linecap: square"/>
   </g>
   <g id="patch_43">
    <path d="M 53.38625 244.050307 
L 388.18625 244.050307 
" style="fill: none; stroke: #000000; stroke-linejoin: miter; stroke-linecap: square"/>
   </g>
   <g id="patch_44">
    <path d="M 53.38625 202.792633 
L 388.18625 202.792633 
" style="fill: none; stroke: #000000; stroke-linejoin: miter; stroke-linecap: square"/>
   </g>
   <g id="matplotlib.axis_3">
    <g id="xtick_18">
     <g id="line2d_45">
      <g>
       <use xlink:href="#ma9dd1b343c" x="53.38625" y="244.050307" style="fill: #1a1a1a; stroke: #1a1a1a; stroke-width: 0.8"/>
      </g>
     </g>
     <g id="text_19">
      <!-- $\mathdefault{0}$ -->
      <g style="fill: #1a1a1a" transform="translate(49.63625 262.461244) scale(0.15 -0.15)">
       <use xlink:href="#LatinModernMath-Regular-30" transform="translate(0 0.40625)"/>
      </g>
     </g>
    </g>
    <g id="xtick_19">
     <g id="line2d_46">
      <g>
       <use xlink:href="#ma9dd1b343c" x="137.08625" y="244.050307" style="fill: #1a1a1a; stroke: #1a1a1a; stroke-width: 0.8"/>
      </g>
     </g>
     <g id="text_20">
      <!-- $\mathdefault{2}$ -->
      <g style="fill: #1a1a1a" transform="translate(133.33625 262.461244) scale(0.15 -0.15)">
       <use xlink:href="#LatinModernMath-Regular-32" transform="translate(0 0.40625)"/>
      </g>
     </g>
    </g>
    <g id="xtick_20">
     <g id="line2d_47">
      <g>
       <use xlink:href="#ma9dd1b343c" x="220.78625" y="244.050307" style="fill: #1a1a1a; stroke: #1a1a1a; stroke-width: 0.8"/>
      </g>
     </g>
     <g id="text_21">
      <!-- $\mathdefault{4}$ -->
      <g style="fill: #1a1a1a" transform="translate(217.03625 262.461244) scale(0.15 -0.15)">
       <use xlink:href="#LatinModernMath-Regular-34" transform="translate(0 0.296875)"/>
      </g>
     </g>
    </g>
    <g id="xtick_21">
     <g id="line2d_48">
      <g>
       <use xlink:href="#ma9dd1b343c" x="304.48625" y="244.050307" style="fill: #1a1a1a; stroke: #1a1a1a; stroke-width: 0.8"/>
      </g>
     </g>
     <g id="text_22">
      <!-- $\mathdefault{6}$ -->
      <g style="fill: #1a1a1a" transform="translate(300.73625 262.461244) scale(0.15 -0.15)">
       <use xlink:href="#LatinModernMath-Regular-36" transform="translate(0 0.40625)"/>
      </g>
     </g>
    </g>
    <g id="xtick_22">
     <g id="line2d_49">
      <g>
       <use xlink:href="#ma9dd1b343c" x="388.18625" y="244.050307" style="fill: #1a1a1a; stroke: #1a1a1a; stroke-width: 0.8"/>
      </g>
     </g>
     <g id="text_23">
      <!-- $\mathdefault{8}$ -->
      <g style="fill: #1a1a1a" transform="translate(384.43625 262.461244) scale(0.15 -0.15)">
       <defs>
        <path id="LatinModernMath-Regular-38" d="M 2925 1075 
C 2925 1306 2854 1594 2611 1862 
C 2490 1997 2387 2061 1978 2317 
C 2438 2554 2752 2886 2752 3309 
C 2752 3898 2182 4262 1600 4262 
C 960 4262 442 3789 442 3194 
C 442 3078 454 2790 723 2490 
C 794 2413 1030 2253 1190 2144 
C 819 1958 269 1600 269 966 
C 269 288 922 -141 1594 -141 
C 2317 -141 2925 390 2925 1075 
z
M 2470 3309 
C 2470 2944 2221 2637 1837 2413 
L 1043 2925 
C 749 3117 723 3334 723 3443 
C 723 3834 1139 4102 1594 4102 
C 2061 4102 2470 3770 2470 3309 
z
M 2605 845 
C 2605 371 2125 38 1600 38 
C 1050 38 589 435 589 966 
C 589 1338 794 1747 1338 2048 
L 2125 1549 
C 2304 1427 2605 1235 2605 845 
z
" transform="scale(0.015625)"/>
       </defs>
       <use xlink:href="#LatinModernMath-Regular-38" transform="translate(0 0.40625)"/>
      </g>
     </g>
    </g>
    <g id="xtick_23">
     <g id="line2d_50">
      <g>
       <use xlink:href="#m152b13370e" x="74.31125" y="244.050307" style="fill: #1a1a1a; stroke: #1a1a1a; stroke-width: 0.6"/>
      </g>
     </g>
    </g>
    <g id="xtick_24">
     <g id="line2d_51">
      <g>
       <use xlink:href="#m152b13370e" x="95.23625" y="244.050307" style="fill: #1a1a1a; stroke: #1a1a1a; stroke-width: 0.6"/>
      </g>
     </g>
    </g>
    <g id="xtick_25">
     <g id="line2d_52">
      <g>
       <use xlink:href="#m152b13370e" x="116.16125" y="244.050307" style="fill: #1a1a1a; stroke: #1a1a1a; stroke-width: 0.6"/>
      </g>
     </g>
    </g>
    <g id="xtick_26">
     <g id="line2d_53">
      <g>
       <use xlink:href="#m152b13370e" x="158.01125" y="244.050307" style="fill: #1a1a1a; stroke: #1a1a1a; stroke-width: 0.6"/>
      </g>
     </g>
    </g>
    <g id="xtick_27">
     <g id="line2d_54">
      <g>
       <use xlink:href="#m152b13370e" x="178.93625" y="244.050307" style="fill: #1a1a1a; stroke: #1a1a1a; stroke-width: 0.6"/>
      </g>
     </g>
    </g>
    <g id="xtick_28">
     <g id="line2d_55">
      <g>
       <use xlink:href="#m152b13370e" x="199.86125" y="244.050307" style="fill: #1a1a1a; stroke: #1a1a1a; stroke-width: 0.6"/>
      </g>
     </g>
    </g>
    <g id="xtick_29">
     <g id="line2d_56">
      <g>
       <use xlink:href="#m152b13370e" x="241.71125" y="244.050307" style="fill: #1a1a1a; stroke: #1a1a1a; stroke-width: 0.6"/>
      </g>
     </g>
    </g>
    <g id="xtick_30">
     <g id="line2d_57">
      <g>
       <use xlink:href="#m152b13370e" x="262.63625" y="244.050307" style="fill: #1a1a1a; stroke: #1a1a1a; stroke-width: 0.6"/>
      </g>
     </g>
    </g>
    <g id="xtick_31">
     <g id="line2d_58">
      <g>
       <use xlink:href="#m152b13370e" x="283.56125" y="244.050307" style="fill: #1a1a1a; stroke: #1a1a1a; stroke-width: 0.6"/>
      </g>
     </g>
    </g>
    <g id="xtick_32">
     <g id="line2d_59">
      <g>
       <use xlink:href="#m152b13370e" x="325.41125" y="244.050307" style="fill: #1a1a1a; stroke: #1a1a1a; stroke-width: 0.6"/>
      </g>
     </g>
    </g>
    <g id="xtick_33">
     <g id="line2d_60">
      <g>
       <use xlink:href="#m152b13370e" x="346.33625" y="244.050307" style="fill: #1a1a1a; stroke: #1a1a1a; stroke-width: 0.6"/>
      </g>
     </g>
    </g>
    <g id="xtick_34">
     <g id="line2d_61">
      <g>
       <use xlink:href="#m152b13370e" x="367.26125" y="244.050307" style="fill: #1a1a1a; stroke: #1a1a1a; stroke-width: 0.6"/>
      </g>
     </g>
    </g>
    <g id="text_24">
     <!-- (variable_1 $\times$ variable_2) bin -->
     <g style="fill: #1a1a1a" transform="translate(107.74625 284.872182) scale(0.18 -0.18)">
      <defs>
       <path id="LatinModernMath-Regular-28" d="M 2125 -1523 
C 2125 -1504 2112 -1485 2099 -1472 
C 1434 -973 992 307 992 1331 
L 992 1869 
C 992 2893 1434 4173 2099 4672 
C 2112 4685 2125 4704 2125 4723 
C 2125 4755 2093 4787 2061 4787 
C 2048 4787 2035 4781 2022 4774 
C 1318 4243 646 2963 646 1869 
L 646 1331 
C 646 237 1318 -1043 2022 -1574 
C 2035 -1581 2048 -1587 2061 -1587 
C 2093 -1587 2125 -1555 2125 -1523 
z
" transform="scale(0.015625)"/>
       <path id="LatinModernMath-Regular-76" d="M 3251 2560 
L 3251 2758 
C 3104 2746 2918 2739 2771 2739 
L 2214 2758 
L 2214 2560 
C 2451 2554 2522 2406 2522 2285 
C 2522 2227 2509 2202 2483 2131 
L 1830 499 
L 1114 2285 
C 1075 2368 1075 2394 1075 2394 
C 1075 2560 1325 2560 1440 2560 
L 1440 2758 
L 742 2739 
C 570 2739 314 2746 122 2758 
L 122 2560 
C 525 2560 550 2522 634 2323 
L 1555 51 
C 1594 -38 1606 -70 1690 -70 
C 1773 -70 1798 -13 1824 51 
L 2662 2131 
C 2720 2278 2829 2554 3251 2560 
z
" transform="scale(0.015625)"/>
       <path id="LatinModernMath-Regular-5f" d="M 2131 -896 
L 2131 -640 
L 0 -640 
L 0 -896 
L 2131 -896 
z
" transform="scale(0.015625)"/>
       <path id="LatinModernMath-Regular-29" d="M 1843 1331 
L 1843 1869 
C 1843 2963 1171 4243 467 4774 
C 454 4781 442 4787 429 4787 
C 397 4787 365 4755 365 4723 
C 365 4704 378 4685 390 4672 
C 1056 4173 1498 2893 1498 1869 
L 1498 1331 
C 1498 307 1056 -973 390 -1472 
C 378 -1485 365 -1504 365 -1523 
C 365 -1555 397 -1587 429 -1587 
C 442 -1587 454 -1581 467 -1574 
C 1171 -1043 1843 237 1843 1331 
z
" transform="scale(0.015625)"/>
      </defs>
      <use xlink:href="#LatinModernMath-Regular-28" transform="translate(0 0.203125)"/>
      <use xlink:href="#LatinModernMath-Regular-76" transform="translate(38.899994 0.203125)"/>
      <use xlink:href="#LatinModernMath-Regular-61" transform="translate(91.699982 0.203125)"/>
      <use xlink:href="#LatinModernMath-Regular-72" transform="translate(141.699966 0.203125)"/>
      <use xlink:href="#LatinModernMath-Regular-69" transform="translate(180.899963 0.203125)"/>
      <use xlink:href="#LatinModernMath-Regular-61" transform="translate(208.699951 0.203125)"/>
      <use xlink:href="#LatinModernMath-Regular-62" transform="translate(258.699936 0.203125)"/>
      <use xlink:href="#LatinModernMath-Regular-6c" transform="translate(314.299927 0.203125)"/>
      <use xlink:href="#LatinModernMath-Regular-65" transform="translate(342.099915 0.203125)"/>
      <use xlink:href="#LatinModernMath-Regular-5f" transform="translate(386.499908 0.203125)"/>
      <use xlink:href="#LatinModernMath-Regular-31" transform="translate(419.799896 0.203125)"/>
      <use xlink:href="#LatinModernMath-Regular-20" transform="translate(469.799881 0.203125)"/>
      <use xlink:href="#LatinModernMath-Regular-d7" transform="translate(502.999878 0.203125)"/>
      <use xlink:href="#LatinModernMath-Regular-20" transform="translate(580.799866 0.203125)"/>
      <use xlink:href="#LatinModernMath-Regular-76" transform="translate(613.999863 0.203125)"/>
      <use xlink:href="#LatinModernMath-Regular-61" transform="translate(666.79985 0.203125)"/>
      <use xlink:href="#LatinModernMath-Regular-72" transform="translate(716.799835 0.203125)"/>
      <use xlink:href="#LatinModernMath-Regular-69" transform="translate(755.999832 0.203125)"/>
      <use xlink:href="#LatinModernMath-Regular-61" transform="translate(783.79982 0.203125)"/>
      <use xlink:href="#LatinModernMath-Regular-62" transform="translate(833.799805 0.203125)"/>
      <use xlink:href="#LatinModernMath-Regular-6c" transform="translate(889.399796 0.203125)"/>
      <use xlink:href="#LatinModernMath-Regular-65" transform="translate(917.199783 0.203125)"/>
      <use xlink:href="#LatinModernMath-Regular-5f" transform="translate(961.599777 0.203125)"/>
      <use xlink:href="#LatinModernMath-Regular-32" transform="translate(994.899765 0.203125)"/>
      <use xlink:href="#LatinModernMath-Regular-29" transform="translate(1044.89975 0.203125)"/>
      <use xlink:href="#LatinModernMath-Regular-20" transform="translate(1083.799744 0.203125)"/>
      <use xlink:href="#LatinModernMath-Regular-62" transform="translate(1116.999741 0.203125)"/>
      <use xlink:href="#LatinModernMath-Regular-69" transform="translate(1172.599731 0.203125)"/>
      <use xlink:href="#LatinModernMath-Regular-6e" transform="translate(1200.399719 0.203125)"/>
     </g>
    </g>
   </g>
   <g id="matplotlib.axis_4">
    <g id="ytick_23">
     <g id="line2d_62">
      <g>
       <use xlink:href="#m075f8f50fc" x="53.38625" y="244.050307" style="fill: #1a1a1a; stroke: #1a1a1a; stroke-width: 0.8"/>
      </g>
     </g>
     <g id="text_25">
      <!-- $\mathdefault{0}$ -->
      <g style="fill: #1a1a1a" transform="translate(40.88625 249.255776) scale(0.15 -0.15)">
       <use xlink:href="#LatinModernMath-Regular-30" transform="translate(0 0.40625)"/>
      </g>
     </g>
    </g>
    <g id="ytick_24">
     <g id="line2d_63">
      <g>
       <use xlink:href="#m075f8f50fc" x="53.38625" y="202.792633" style="fill: #1a1a1a; stroke: #1a1a1a; stroke-width: 0.8"/>
      </g>
     </g>
     <g id="text_26">
      <!-- $\mathdefault{2}$ -->
      <g style="fill: #1a1a1a" transform="translate(40.88625 207.998101) scale(0.15 -0.15)">
       <use xlink:href="#LatinModernMath-Regular-32" transform="translate(0 0.40625)"/>
      </g>
     </g>
    </g>
    <g id="ytick_25">
     <g id="line2d_64">
      <g>
       <use xlink:href="#m48d0e81a5f" x="53.38625" y="233.735888" style="fill: #1a1a1a; stroke: #1a1a1a; stroke-width: 0.6"/>
      </g>
     </g>
    </g>
    <g id="ytick_26">
     <g id="line2d_65">
      <g>
       <use xlink:href="#m48d0e81a5f" x="53.38625" y="223.42147" style="fill: #1a1a1a; stroke: #1a1a1a; stroke-width: 0.6"/>
      </g>
     </g>
    </g>
    <g id="ytick_27">
     <g id="line2d_66">
      <g>
       <use xlink:href="#m48d0e81a5f" x="53.38625" y="213.107051" style="fill: #1a1a1a; stroke: #1a1a1a; stroke-width: 0.6"/>
      </g>
     </g>
    </g>
    <g id="text_27">
     <!-- $\frac{Data}{Pred.}$ -->
     <g style="fill: #1a1a1a" transform="translate(26.96625 240.52147) rotate(-90) scale(0.18 -0.18)">
      <defs>
       <path id="LatinModernMath-Regular-50" d="M 3994 3181 
C 3994 3808 3360 4371 2483 4371 
L 224 4371 
L 224 4173 
L 378 4173 
C 870 4173 883 4102 883 3872 
L 883 499 
C 883 269 870 198 378 198 
L 224 198 
L 224 0 
C 448 19 922 19 1165 19 
C 1408 19 1888 19 2112 0 
L 2112 198 
L 1958 198 
C 1466 198 1453 269 1453 499 
L 1453 2022 
L 2534 2022 
C 3302 2022 3994 2541 3994 3181 
z
M 3334 3181 
C 3334 2880 3334 2189 2317 2189 
L 1434 2189 
L 1434 3917 
C 1434 4128 1446 4173 1747 4173 
L 2317 4173 
C 3334 4173 3334 3494 3334 3181 
z
" transform="scale(0.015625)"/>
      </defs>
      <use xlink:href="#LatinModernMath-Regular-44" transform="translate(13 39.192188) scale(0.7)"/>
      <use xlink:href="#LatinModernMath-Regular-61" transform="translate(66.479996 39.192188) scale(0.7)"/>
      <use xlink:href="#LatinModernMath-Regular-74" transform="translate(101.479985 39.192188) scale(0.7)"/>
      <use xlink:href="#LatinModernMath-Regular-61" transform="translate(128.709981 39.192188) scale(0.7)"/>
      <use xlink:href="#LatinModernMath-Regular-50" transform="translate(0 -41.407812) scale(0.7)"/>
      <use xlink:href="#LatinModernMath-Regular-72" transform="translate(47.669994 -41.407812) scale(0.7)"/>
      <use xlink:href="#LatinModernMath-Regular-65" transform="translate(75.109991 -41.407812) scale(0.7)"/>
      <use xlink:href="#LatinModernMath-Regular-64" transform="translate(106.189987 -41.407812) scale(0.7)"/>
      <use xlink:href="#LatinModernMath-Regular-2e" transform="translate(145.109981 -41.407812) scale(0.7)"/>
      <path d="M 0 13.426563 
L 0 19.676563 
L 176.860988 19.676563 
L 176.860988 13.426563 
L 0 13.426563 
z
"/>
     </g>
    </g>
   </g>
  </g>
 </g>
 <defs>
  <clipPath id="pb9686d4b57">
   <rect x="53.38625" y="22.290307" width="334.8" height="165.030698"/>
  </clipPath>
  <clipPath id="pecaa268fb4">
   <rect x="53.38625" y="202.792633" width="334.8" height="41.257674"/>
  </clipPath>
 </defs>
 <defs>
  <pattern id="he5bae9c1d3" patternUnits="userSpaceOnUse" x="0" y="0" width="72" height="72">
   <rect x="0" y="0" width="73" height="73" fill="none"/>
   <path d="M -36 36 
L 36 -36 
M -33 39 
L 39 -33 
M -30 42 
L 42 -30 
M -27 45 
L 45 -27 
M -24 48 
L 48 -24 
M -21 51 
L 51 -21 
M -18 54 
L 54 -18 
M -15 57 
L 57 -15 
M -12 60 
L 60 -12 
M -9 63 
L 63 -9 
M -6 66 
L 66 -6 
M -3 69 
L 69 -3 
M 0 72 
L 72 0 
M 3 75 
L 75 3 
M 6 78 
L 78 6 
M 9 81 
L 81 9 
M 12 84 
L 84 12 
M 15 87 
L 87 15 
M 18 90 
L 90 18 
M 21 93 
L 93 21 
M 24 96 
L 96 24 
M 27 99 
L 99 27 
M 30 102 
L 102 30 
M 33 105 
L 105 33 
M 36 108 
L 108 36 
" style="fill: #696969; stroke: #696969; stroke-width: 1.0; stroke-linecap: butt; stroke-linejoin: miter"/>
  </pattern>
 </defs>
</svg>
