<?xml version="1.0" encoding="utf-8" standalone="no"?>
<!DOCTYPE svg PUBLIC "-//W3C//DTD SVG 1.1//EN"
  "http://www.w3.org/Graphics/SVG/1.1/DTD/svg11.dtd">
<svg xmlns:xlink="http://www.w3.org/1999/xlink" width="415.64pt" height="350.411009pt" viewBox="0 0 415.64 350.411009" xmlns="http://www.w3.org/2000/svg" version="1.1">
 <metadata>
  <rdf:RDF xmlns:dc="http://purl.org/dc/elements/1.1/" xmlns:cc="http://creativecommons.org/ns#" xmlns:rdf="http://www.w3.org/1999/02/22-rdf-syntax-ns#">
   <cc:Work>
    <dc:creator>
     <cc:Agent>
      <dc:title>カリビアンカフェ</dc:title>
     </cc:Agent>
    </dc:creator>
   </cc:Work>
  </rdf:RDF>
 </metadata>
 <defs>
  <style type="text/css">*{stroke-linejoin: round; stroke-linecap: butt}</style>
 </defs>
 <g id="figure_1">
  <g id="patch_1">
   <path d="M 0 350.411009 
L 415.64 350.411009 
L 415.64 0 
L 0 0 
z
" style="fill: #ffffff"/>
  </g>
  <g id="axes_1">
   <g id="patch_2">
    <path d="M 73.64 228.991256 
L 408.44 228.991256 
L 408.44 22.702884 
L 73.64 22.702884 
z
" style="fill: #ffffff"/>
   </g>
   <g id="patch_3">
    <path d="M 73.64 228.919739 
L 73.64 228.919739 
L 80.336 228.919739 
L 80.336 228.776705 
L 87.032 228.776705 
L 87.032 228.419121 
L 93.728 228.419121 
L 93.728 228.061536 
L 100.424 228.061536 
L 100.424 227.0603 
L 107.12 227.0603 
L 107.12 225.701479 
L 113.816 225.701479 
L 113.816 223.412939 
L 120.512 223.412939 
L 120.512 217.834622 
L 127.208 217.834622 
L 127.208 210.039282 
L 133.904 210.039282 
L 133.904 203.960347 
L 140.6 203.960347 
L 140.6 183.148933 
L 147.296 183.148933 
L 147.296 168.487972 
L 153.992 168.487972 
L 153.992 145.888637 
L 160.688 145.888637 
L 160.688 123.575369 
L 167.384 123.575369 
L 167.384 101.619686 
L 174.08 101.619686 
L 174.08 87.030242 
L 180.776 87.030242 
L 180.776 78.948834 
L 187.472 78.948834 
L 187.472 78.376699 
L 194.168 78.376699 
L 194.168 87.459343 
L 200.864 87.459343 
L 200.864 94.324964 
L 207.56 94.324964 
L 207.56 103.836709 
L 214.256 103.836709 
L 214.256 110.487779 
L 220.952 110.487779 
L 220.952 124.719639 
L 227.648 124.719639 
L 227.648 119.856491 
L 234.344 119.856491 
L 234.344 122.717167 
L 241.04 122.717167 
L 241.04 120.929245 
L 247.736 120.929245 
L 247.736 129.511271 
L 254.432 129.511271 
L 254.432 140.667904 
L 261.128 140.667904 
L 261.128 150.608751 
L 267.824 150.608751 
L 267.824 162.194486 
L 274.52 162.194486 
L 274.52 172.349884 
L 281.216 172.349884 
L 281.216 190.300622 
L 287.912 190.300622 
L 287.912 201.457256 
L 294.608 201.457256 
L 294.608 210.611417 
L 301.304 210.611417 
L 301.304 216.690352 
L 308 216.690352 
L 308 221.696534 
L 314.696 221.696534 
L 314.696 224.77176 
L 321.392 224.77176 
L 321.392 226.774232 
L 328.088 226.774232 
L 328.088 227.417884 
L 334.784 227.417884 
L 334.784 228.490638 
L 341.48 228.490638 
L 341.48 228.562155 
L 348.176 228.562155 
L 348.176 228.848222 
L 354.872 228.848222 
L 354.872 228.919739 
L 361.568 228.919739 
L 361.568 228.919739 
L 368.264 228.919739 
L 368.264 228.991256 
L 374.96 228.991256 
L 374.96 228.919739 
L 381.656 228.919739 
L 381.656 228.919739 
L 388.352 228.919739 
L 388.352 228.991256 
L 395.048 228.991256 
L 395.048 228.991256 
L 401.744 228.991256 
L 401.744 228.991256 
L 408.44 228.991256 
L 408.44 228.991256 
L 401.744 228.991256 
L 401.744 228.991256 
L 395.048 228.991256 
L 395.048 228.991256 
L 388.352 228.991256 
L 388.352 228.991256 
L 381.656 228.991256 
L 381.656 228.991256 
L 374.96 228.991256 
L 374.96 228.991256 
L 368.264 228.991256 
L 368.264 228.919739 
L 361.568 228.919739 
L 361.568 228.991256 
L 354.872 228.991256 
L 354.872 228.991256 
L 348.176 228.991256 
L 348.176 228.705188 
L 341.48 228.705188 
L 341.48 228.848222 
L 334.784 228.848222 
L 334.784 228.419121 
L 328.088 228.419121 
L 328.088 228.276087 
L 321.392 228.276087 
L 321.392 227.703952 
L 314.696 227.703952 
L 314.696 225.844513 
L 308 225.844513 
L 308 223.84204 
L 301.304 223.84204 
L 301.304 220.695297 
L 294.608 220.695297 
L 294.608 215.260014 
L 287.912 215.260014 
L 287.912 209.109562 
L 281.216 209.109562 
L 281.216 199.311749 
L 274.52 199.311749 
L 274.52 192.946746 
L 267.824 192.946746 
L 267.824 186.939328 
L 261.128 186.939328 
L 261.128 182.648315 
L 254.432 182.648315 
L 254.432 175.139042 
L 247.736 175.139042 
L 247.736 168.058871 
L 241.04 168.058871 
L 241.04 165.269712 
L 234.344 165.269712 
L 234.344 161.836902 
L 227.648 161.836902 
L 227.648 162.909655 
L 220.952 162.909655 
L 220.952 148.534762 
L 214.256 148.534762 
L 214.256 139.595151 
L 207.56 139.595151 
L 207.56 134.374419 
L 200.864 134.374419 
L 200.864 126.293011 
L 194.168 126.293011 
L 194.168 122.931717 
L 187.472 122.931717 
L 187.472 123.432335 
L 180.776 123.432335 
L 180.776 126.793629 
L 174.08 126.793629 
L 174.08 135.518689 
L 167.384 135.518689 
L 167.384 148.034143 
L 160.688 148.034143 
L 160.688 162.623588 
L 153.992 162.623588 
L 153.992 180.431292 
L 147.296 180.431292 
L 147.296 190.300622 
L 140.6 190.300622 
L 140.6 207.393157 
L 133.904 207.393157 
L 133.904 211.827204 
L 127.208 211.827204 
L 127.208 218.835858 
L 120.512 218.835858 
L 120.512 223.84204 
L 113.816 223.84204 
L 113.816 225.91603 
L 107.12 225.91603 
L 107.12 227.131817 
L 100.424 227.131817 
L 100.424 228.061536 
L 93.728 228.061536 
L 93.728 228.419121 
L 87.032 228.419121 
L 87.032 228.776705 
L 80.336 228.776705 
L 80.336 228.919739 
z
" clip-path="url(#p440ee2d036)" style="fill: #b1dcc2; stroke: #000000; stroke-width: 0.5; stroke-linejoin: miter"/>
   </g>
   <g id="patch_4">
    <path d="M 73.64 228.991256 
L 73.64 228.919739 
L 80.336 228.919739 
L 80.336 228.776705 
L 87.032 228.776705 
L 87.032 228.419121 
L 93.728 228.419121 
L 93.728 228.061536 
L 100.424 228.061536 
L 100.424 227.131817 
L 107.12 227.131817 
L 107.12 225.91603 
L 113.816 225.91603 
L 113.816 223.84204 
L 120.512 223.84204 
L 120.512 218.835858 
L 127.208 218.835858 
L 127.208 211.827204 
L 133.904 211.827204 
L 133.904 207.393157 
L 140.6 207.393157 
L 140.6 190.300622 
L 147.296 190.300622 
L 147.296 180.431292 
L 153.992 180.431292 
L 153.992 162.623588 
L 160.688 162.623588 
L 160.688 148.034143 
L 167.384 148.034143 
L 167.384 135.518689 
L 174.08 135.518689 
L 174.08 126.793629 
L 180.776 126.793629 
L 180.776 123.432335 
L 187.472 123.432335 
L 187.472 122.931717 
L 194.168 122.931717 
L 194.168 126.293011 
L 200.864 126.293011 
L 200.864 134.374419 
L 207.56 134.374419 
L 207.56 139.595151 
L 214.256 139.595151 
L 214.256 148.534762 
L 220.952 148.534762 
L 220.952 162.909655 
L 227.648 162.909655 
L 227.648 161.836902 
L 234.344 161.836902 
L 234.344 165.269712 
L 241.04 165.269712 
L 241.04 168.058871 
L 247.736 168.058871 
L 247.736 175.139042 
L 254.432 175.139042 
L 254.432 182.648315 
L 261.128 182.648315 
L 261.128 186.939328 
L 267.824 186.939328 
L 267.824 192.946746 
L 274.52 192.946746 
L 274.52 199.311749 
L 281.216 199.311749 
L 281.216 209.109562 
L 287.912 209.109562 
L 287.912 215.260014 
L 294.608 215.260014 
L 294.608 220.695297 
L 301.304 220.695297 
L 301.304 223.84204 
L 308 223.84204 
L 308 225.844513 
L 314.696 225.844513 
L 314.696 227.703952 
L 321.392 227.703952 
L 321.392 228.276087 
L 328.088 228.276087 
L 328.088 228.419121 
L 334.784 228.419121 
L 334.784 228.848222 
L 341.48 228.848222 
L 341.48 228.705188 
L 348.176 228.705188 
L 348.176 228.991256 
L 354.872 228.991256 
L 354.872 228.991256 
L 361.568 228.991256 
L 361.568 228.919739 
L 368.264 228.919739 
L 368.264 228.991256 
L 374.96 228.991256 
L 374.96 228.991256 
L 381.656 228.991256 
L 381.656 228.991256 
L 388.352 228.991256 
L 388.352 228.991256 
L 395.048 228.991256 
L 395.048 228.991256 
L 401.744 228.991256 
L 401.744 228.991256 
L 408.44 228.991256 
L 408.44 228.991256 
L 401.744 228.991256 
L 401.744 228.991256 
L 395.048 228.991256 
L 395.048 228.991256 
L 388.352 228.991256 
L 388.352 228.991256 
L 381.656 228.991256 
L 381.656 228.991256 
L 374.96 228.991256 
L 374.96 228.991256 
L 368.264 228.991256 
L 368.264 228.991256 
L 361.568 228.991256 
L 361.568 228.991256 
L 354.872 228.991256 
L 354.872 228.991256 
L 348.176 228.991256 
L 348.176 228.848222 
L 341.48 228.848222 
L 341.48 228.919739 
L 334.784 228.919739 
L 334.784 228.633671 
L 328.088 228.633671 
L 328.088 228.633671 
L 321.392 228.633671 
L 321.392 228.490638 
L 314.696 228.490638 
L 314.696 226.774232 
L 308 226.774232 
L 308 226.273614 
L 301.304 226.273614 
L 301.304 223.62749 
L 294.608 223.62749 
L 294.608 220.552264 
L 287.912 220.552264 
L 287.912 216.261251 
L 281.216 216.261251 
L 281.216 208.823495 
L 274.52 208.823495 
L 274.52 205.176134 
L 267.824 205.176134 
L 267.824 202.100908 
L 261.128 202.100908 
L 261.128 199.383266 
L 254.432 199.383266 
L 254.432 192.231578 
L 247.736 192.231578 
L 247.736 192.660679 
L 241.04 192.660679 
L 241.04 191.444892 
L 234.344 191.444892 
L 234.344 191.587926 
L 227.648 191.587926 
L 227.648 193.804949 
L 220.952 193.804949 
L 220.952 189.65697 
L 214.256 189.65697 
L 214.256 187.940565 
L 207.56 187.940565 
L 207.56 184.007136 
L 200.864 184.007136 
L 200.864 182.505281 
L 194.168 182.505281 
L 194.168 179.143988 
L 187.472 179.143988 
L 187.472 182.719832 
L 180.776 182.719832 
L 180.776 184.293203 
L 174.08 184.293203 
L 174.08 188.155115 
L 167.384 188.155115 
L 167.384 191.873993 
L 160.688 191.873993 
L 160.688 200.026918 
L 153.992 200.026918 
L 153.992 208.823495 
L 147.296 208.823495 
L 147.296 213.186025 
L 140.6 213.186025 
L 140.6 220.909848 
L 133.904 220.909848 
L 133.904 222.626253 
L 127.208 222.626253 
L 127.208 224.843277 
L 120.512 224.843277 
L 120.512 227.632435 
L 113.816 227.632435 
L 113.816 227.846986 
L 107.12 227.846986 
L 107.12 228.562155 
L 100.424 228.562155 
L 100.424 228.633671 
L 93.728 228.633671 
L 93.728 228.705188 
L 87.032 228.705188 
L 87.032 228.919739 
L 80.336 228.919739 
L 80.336 228.991256 
z
" clip-path="url(#p440ee2d036)" style="fill: #b67b76; stroke: #000000; stroke-width: 0.5; stroke-linejoin: miter"/>
   </g>
   <g id="patch_5">
    <path d="M 73.64 228.991256 
L 73.64 228.991256 
L 80.336 228.991256 
L 80.336 228.919739 
L 87.032 228.919739 
L 87.032 228.705188 
L 93.728 228.705188 
L 93.728 228.633671 
L 100.424 228.633671 
L 100.424 228.562155 
L 107.12 228.562155 
L 107.12 227.846986 
L 113.816 227.846986 
L 113.816 227.632435 
L 120.512 227.632435 
L 120.512 224.843277 
L 127.208 224.843277 
L 127.208 222.626253 
L 133.904 222.626253 
L 133.904 220.909848 
L 140.6 220.909848 
L 140.6 213.186025 
L 147.296 213.186025 
L 147.296 208.823495 
L 153.992 208.823495 
L 153.992 200.026918 
L 160.688 200.026918 
L 160.688 191.873993 
L 167.384 191.873993 
L 167.384 188.155115 
L 174.08 188.155115 
L 174.08 184.293203 
L 180.776 184.293203 
L 180.776 182.719832 
L 187.472 182.719832 
L 187.472 179.143988 
L 194.168 179.143988 
L 194.168 182.505281 
L 200.864 182.505281 
L 200.864 184.007136 
L 207.56 184.007136 
L 207.56 187.940565 
L 214.256 187.940565 
L 214.256 189.65697 
L 220.952 189.65697 
L 220.952 193.804949 
L 227.648 193.804949 
L 227.648 191.587926 
L 234.344 191.587926 
L 234.344 191.444892 
L 241.04 191.444892 
L 241.04 192.660679 
L 247.736 192.660679 
L 247.736 192.231578 
L 254.432 192.231578 
L 254.432 199.383266 
L 261.128 199.383266 
L 261.128 202.100908 
L 267.824 202.100908 
L 267.824 205.176134 
L 274.52 205.176134 
L 274.52 208.823495 
L 281.216 208.823495 
L 281.216 216.261251 
L 287.912 216.261251 
L 287.912 220.552264 
L 294.608 220.552264 
L 294.608 223.62749 
L 301.304 223.62749 
L 301.304 226.273614 
L 308 226.273614 
L 308 226.774232 
L 314.696 226.774232 
L 314.696 228.490638 
L 321.392 228.490638 
L 321.392 228.633671 
L 328.088 228.633671 
L 328.088 228.633671 
L 334.784 228.633671 
L 334.784 228.919739 
L 341.48 228.919739 
L 341.48 228.848222 
L 348.176 228.848222 
L 348.176 228.991256 
L 354.872 228.991256 
L 354.872 228.991256 
L 361.568 228.991256 
L 361.568 228.991256 
L 368.264 228.991256 
L 368.264 228.991256 
L 374.96 228.991256 
L 374.96 228.991256 
L 381.656 228.991256 
L 381.656 228.991256 
L 388.352 228.991256 
L 388.352 228.991256 
L 395.048 228.991256 
L 395.048 228.991256 
L 401.744 228.991256 
L 401.744 228.991256 
L 408.44 228.991256 
L 408.44 228.991256 
L 401.744 228.991256 
L 401.744 228.991256 
L 395.048 228.991256 
L 395.048 228.991256 
L 388.352 228.991256 
L 388.352 228.991256 
L 381.656 228.991256 
L 381.656 228.991256 
L 374.96 228.991256 
L 374.96 228.991256 
L 368.264 228.991256 
L 368.264 228.991256 
L 361.568 228.991256 
L 361.568 228.991256 
L 354.872 228.991256 
L 354.872 228.991256 
L 348.176 228.991256 
L 348.176 228.991256 
L 341.48 228.991256 
L 341.48 228.991256 
L 334.784 228.991256 
L 334.784 228.991256 
L 328.088 228.991256 
L 328.088 228.991256 
L 321.392 228.991256 
L 321.392 228.991256 
L 314.696 228.991256 
L 314.696 228.991256 
L 308 228.991256 
L 308 228.991256 
L 301.304 228.991256 
L 301.304 228.991256 
L 294.608 228.991256 
L 294.608 228.991256 
L 287.912 228.991256 
L 287.912 228.991256 
L 281.216 228.991256 
L 281.216 228.991256 
L 274.52 228.991256 
L 274.52 228.991256 
L 267.824 228.991256 
L 267.824 228.991256 
L 261.128 228.991256 
L 261.128 228.991256 
L 254.432 228.991256 
L 254.432 228.991256 
L 247.736 228.991256 
L 247.736 228.991256 
L 241.04 228.991256 
L 241.04 228.991256 
L 234.344 228.991256 
L 234.344 228.991256 
L 227.648 228.991256 
L 227.648 228.991256 
L 220.952 228.991256 
L 220.952 228.991256 
L 214.256 228.991256 
L 214.256 228.991256 
L 207.56 228.991256 
L 207.56 228.991256 
L 200.864 228.991256 
L 200.864 228.991256 
L 194.168 228.991256 
L 194.168 228.991256 
L 187.472 228.991256 
L 187.472 228.991256 
L 180.776 228.991256 
L 180.776 228.991256 
L 174.08 228.991256 
L 174.08 228.991256 
L 167.384 228.991256 
L 167.384 228.991256 
L 160.688 228.991256 
L 160.688 228.991256 
L 153.992 228.991256 
L 153.992 228.991256 
L 147.296 228.991256 
L 147.296 228.991256 
L 140.6 228.991256 
L 140.6 228.991256 
L 133.904 228.991256 
L 133.904 228.991256 
L 127.208 228.991256 
L 127.208 228.991256 
L 120.512 228.991256 
L 120.512 228.991256 
L 113.816 228.991256 
L 113.816 228.991256 
L 107.12 228.991256 
L 107.12 228.991256 
L 100.424 228.991256 
L 100.424 228.991256 
L 93.728 228.991256 
L 93.728 228.991256 
L 87.032 228.991256 
L 87.032 228.991256 
L 80.336 228.991256 
L 80.336 228.991256 
z
" clip-path="url(#p440ee2d036)" style="fill: #3d4c74; stroke: #000000; stroke-width: 0.5; stroke-linejoin: miter"/>
   </g>
   <g id="patch_6">
    <path d="M 73.64 228.991256 
L 80.336 228.991256 
L 80.336 228.848222 
L 73.64 228.848222 
z
" clip-path="url(#p440ee2d036)" style="fill: url(#hcddca885b2)"/>
   </g>
   <g id="patch_7">
    <path d="M 80.336 228.900576 
L 87.032 228.900576 
L 87.032 228.652834 
L 80.336 228.652834 
z
" clip-path="url(#p440ee2d036)" style="fill: url(#hcddca885b2)"/>
   </g>
   <g id="patch_8">
    <path d="M 87.032 228.621401 
L 93.728 228.621401 
L 93.728 228.21684 
L 87.032 228.21684 
z
" clip-path="url(#p440ee2d036)" style="fill: url(#hcddca885b2)"/>
   </g>
   <g id="patch_9">
    <path d="M 93.728 228.319394 
L 100.424 228.319394 
L 100.424 227.803679 
L 93.728 227.803679 
z
" clip-path="url(#p440ee2d036)" style="fill: url(#hcddca885b2)"/>
   </g>
   <g id="patch_10">
    <path d="M 100.424 227.431913 
L 107.12 227.431913 
L 107.12 226.688687 
L 100.424 226.688687 
z
" clip-path="url(#p440ee2d036)" style="fill: url(#hcddca885b2)"/>
   </g>
   <g id="patch_11">
    <path d="M 107.12 226.18653 
L 113.816 226.18653 
L 113.816 225.216428 
L 107.12 225.216428 
z
" clip-path="url(#p440ee2d036)" style="fill: url(#hcddca885b2)"/>
   </g>
   <g id="patch_12">
    <path d="M 113.816 224.044559 
L 120.512 224.044559 
L 120.512 222.781319 
L 113.816 222.781319 
z
" clip-path="url(#p440ee2d036)" style="fill: url(#hcddca885b2)"/>
   </g>
   <g id="patch_13">
    <path d="M 120.512 218.727868 
L 127.208 218.727868 
L 127.208 216.941376 
L 120.512 216.941376 
z
" clip-path="url(#p440ee2d036)" style="fill: url(#hcddca885b2)"/>
   </g>
   <g id="patch_14">
    <path d="M 127.208 211.203492 
L 133.904 211.203492 
L 133.904 208.875071 
L 127.208 208.875071 
z
" clip-path="url(#p440ee2d036)" style="fill: url(#hcddca885b2)"/>
   </g>
   <g id="patch_15">
    <path d="M 133.904 205.298305 
L 140.6 205.298305 
L 140.6 202.622388 
L 133.904 202.622388 
z
" clip-path="url(#p440ee2d036)" style="fill: url(#hcddca885b2)"/>
   </g>
   <g id="patch_16">
    <path d="M 140.6 184.959596 
L 147.296 184.959596 
L 147.296 181.33827 
L 140.6 181.33827 
z
" clip-path="url(#p440ee2d036)" style="fill: url(#hcddca885b2)"/>
   </g>
   <g id="patch_17">
    <path d="M 147.296 170.568118 
L 153.992 170.568118 
L 153.992 166.407826 
L 147.296 166.407826 
z
" clip-path="url(#p440ee2d036)" style="fill: url(#hcddca885b2)"/>
   </g>
   <g id="patch_18">
    <path d="M 153.992 148.326513 
L 160.688 148.326513 
L 160.688 143.450761 
L 153.992 143.450761 
z
" clip-path="url(#p440ee2d036)" style="fill: url(#hcddca885b2)"/>
   </g>
   <g id="patch_19">
    <path d="M 160.688 126.321096 
L 167.384 126.321096 
L 167.384 120.829642 
L 160.688 120.829642 
z
" clip-path="url(#p440ee2d036)" style="fill: url(#hcddca885b2)"/>
   </g>
   <g id="patch_20">
    <path d="M 167.384 104.637834 
L 174.08 104.637834 
L 174.08 98.601538 
L 167.384 98.601538 
z
" clip-path="url(#p440ee2d036)" style="fill: url(#hcddca885b2)"/>
   </g>
   <g id="patch_21">
    <path d="M 174.08 90.216558 
L 180.776 90.216558 
L 180.776 83.843926 
L 174.08 83.843926 
z
" clip-path="url(#p440ee2d036)" style="fill: url(#hcddca885b2)"/>
   </g>
   <g id="patch_22">
    <path d="M 180.776 82.224588 
L 187.472 82.224588 
L 187.472 75.673079 
L 180.776 75.673079 
z
" clip-path="url(#p440ee2d036)" style="fill: url(#hcddca885b2)"/>
   </g>
   <g id="patch_23">
    <path d="M 187.472 81.658693 
L 194.168 81.658693 
L 194.168 75.094705 
L 187.472 75.094705 
z
" clip-path="url(#p440ee2d036)" style="fill: url(#hcddca885b2)"/>
   </g>
   <g id="patch_24">
    <path d="M 194.168 90.64084 
L 200.864 90.64084 
L 200.864 84.277846 
L 194.168 84.277846 
z
" clip-path="url(#p440ee2d036)" style="fill: url(#hcddca885b2)"/>
   </g>
   <g id="patch_25">
    <path d="M 200.864 97.428335 
L 207.56 97.428335 
L 207.56 91.221592 
L 200.864 91.221592 
z
" clip-path="url(#p440ee2d036)" style="fill: url(#hcddca885b2)"/>
   </g>
   <g id="patch_26">
    <path d="M 207.56 106.828475 
L 214.256 106.828475 
L 214.256 100.844943 
L 207.56 100.844943 
z
" clip-path="url(#p440ee2d036)" style="fill: url(#hcddca885b2)"/>
   </g>
   <g id="patch_27">
    <path d="M 214.256 113.398965 
L 220.952 113.398965 
L 220.952 107.576594 
L 214.256 107.576594 
z
" clip-path="url(#p440ee2d036)" style="fill: url(#hcddca885b2)"/>
   </g>
   <g id="patch_28">
    <path d="M 220.952 127.450423 
L 227.648 127.450423 
L 227.648 121.988855 
L 220.952 121.988855 
z
" clip-path="url(#p440ee2d036)" style="fill: url(#hcddca885b2)"/>
   </g>
   <g id="patch_29">
    <path d="M 227.648 122.65023 
L 234.344 122.65023 
L 234.344 117.062752 
L 227.648 117.062752 
z
" clip-path="url(#p440ee2d036)" style="fill: url(#hcddca885b2)"/>
   </g>
   <g id="patch_30">
    <path d="M 234.344 125.474047 
L 241.04 125.474047 
L 241.04 119.960286 
L 234.344 119.960286 
z
" clip-path="url(#p440ee2d036)" style="fill: url(#hcddca885b2)"/>
   </g>
   <g id="patch_31">
    <path d="M 241.04 123.709219 
L 247.736 123.709219 
L 247.736 118.14927 
L 241.04 118.14927 
z
" clip-path="url(#p440ee2d036)" style="fill: url(#hcddca885b2)"/>
   </g>
   <g id="patch_32">
    <path d="M 247.736 132.178572 
L 254.432 132.178572 
L 254.432 126.843969 
L 247.736 126.843969 
z
" clip-path="url(#p440ee2d036)" style="fill: url(#hcddca885b2)"/>
   </g>
   <g id="patch_33">
    <path d="M 254.432 143.181191 
L 261.128 143.181191 
L 261.128 138.154618 
L 254.432 138.154618 
z
" clip-path="url(#p440ee2d036)" style="fill: url(#hcddca885b2)"/>
   </g>
   <g id="patch_34">
    <path d="M 261.128 152.976381 
L 267.824 152.976381 
L 267.824 148.241121 
L 261.128 148.241121 
z
" clip-path="url(#p440ee2d036)" style="fill: url(#hcddca885b2)"/>
   </g>
   <g id="patch_35">
    <path d="M 267.824 164.380143 
L 274.52 164.380143 
L 274.52 160.008829 
L 267.824 160.008829 
z
" clip-path="url(#p440ee2d036)" style="fill: url(#hcddca885b2)"/>
   </g>
   <g id="patch_36">
    <path d="M 274.52 174.362547 
L 281.216 174.362547 
L 281.216 170.33722 
L 274.52 170.33722 
z
" clip-path="url(#p440ee2d036)" style="fill: url(#hcddca885b2)"/>
   </g>
   <g id="patch_37">
    <path d="M 281.216 191.964062 
L 287.912 191.964062 
L 287.912 188.637181 
L 281.216 188.637181 
z
" clip-path="url(#p440ee2d036)" style="fill: url(#hcddca885b2)"/>
   </g>
   <g id="patch_38">
    <path d="M 287.912 202.860518 
L 294.608 202.860518 
L 294.608 200.053993 
L 287.912 200.053993 
z
" clip-path="url(#p440ee2d036)" style="fill: url(#hcddca885b2)"/>
   </g>
   <g id="patch_39">
    <path d="M 294.608 211.75792 
L 301.304 211.75792 
L 301.304 209.464914 
L 294.608 209.464914 
z
" clip-path="url(#p440ee2d036)" style="fill: url(#hcddca885b2)"/>
   </g>
   <g id="patch_40">
    <path d="M 301.304 217.628287 
L 308 217.628287 
L 308 215.752417 
L 301.304 215.752417 
z
" clip-path="url(#p440ee2d036)" style="fill: url(#hcddca885b2)"/>
   </g>
   <g id="patch_41">
    <path d="M 308 222.418819 
L 314.696 222.418819 
L 314.696 220.974249 
L 308 220.974249 
z
" clip-path="url(#p440ee2d036)" style="fill: url(#hcddca885b2)"/>
   </g>
   <g id="patch_42">
    <path d="M 314.696 225.321091 
L 321.392 225.321091 
L 321.392 224.222428 
L 314.696 224.222428 
z
" clip-path="url(#p440ee2d036)" style="fill: url(#hcddca885b2)"/>
   </g>
   <g id="patch_43">
    <path d="M 321.392 227.172422 
L 328.088 227.172422 
L 328.088 226.376043 
L 321.392 226.376043 
z
" clip-path="url(#p440ee2d036)" style="fill: url(#hcddca885b2)"/>
   </g>
   <g id="patch_44">
    <path d="M 328.088 227.753328 
L 334.784 227.753328 
L 334.784 227.08244 
L 328.088 227.08244 
z
" clip-path="url(#p440ee2d036)" style="fill: url(#hcddca885b2)"/>
   </g>
   <g id="patch_45">
    <path d="M 334.784 228.679854 
L 341.48 228.679854 
L 341.48 228.301422 
L 334.784 228.301422 
z
" clip-path="url(#p440ee2d036)" style="fill: url(#hcddca885b2)"/>
   </g>
   <g id="patch_46">
    <path d="M 341.48 228.737334 
L 348.176 228.737334 
L 348.176 228.386975 
L 341.48 228.386975 
z
" clip-path="url(#p440ee2d036)" style="fill: url(#hcddca885b2)"/>
   </g>
   <g id="patch_47">
    <path d="M 348.176 228.949362 
L 354.872 228.949362 
L 354.872 228.747082 
L 348.176 228.747082 
z
" clip-path="url(#p440ee2d036)" style="fill: url(#hcddca885b2)"/>
   </g>
   <g id="patch_48">
    <path d="M 354.872 228.991256 
L 361.568 228.991256 
L 361.568 228.848222 
L 354.872 228.848222 
z
" clip-path="url(#p440ee2d036)" style="fill: url(#hcddca885b2)"/>
   </g>
   <g id="patch_49">
    <path d="M 361.568 228.991256 
L 368.264 228.991256 
L 368.264 228.848222 
L 361.568 228.848222 
z
" clip-path="url(#p440ee2d036)" style="fill: url(#hcddca885b2)"/>
   </g>
   <g id="patch_50">
    <path d="M 368.264 228.991256 
L 374.96 228.991256 
L 374.96 228.991256 
L 368.264 228.991256 
z
" clip-path="url(#p440ee2d036)" style="fill: url(#hcddca885b2)"/>
   </g>
   <g id="patch_51">
    <path d="M 374.96 228.991256 
L 381.656 228.991256 
L 381.656 228.848222 
L 374.96 228.848222 
z
" clip-path="url(#p440ee2d036)" style="fill: url(#hcddca885b2)"/>
   </g>
   <g id="patch_52">
    <path d="M 381.656 228.991256 
L 388.352 228.991256 
L 388.352 228.848222 
L 381.656 228.848222 
z
" clip-path="url(#p440ee2d036)" style="fill: url(#hcddca885b2)"/>
   </g>
   <g id="patch_53">
    <path d="M 388.352 228.991256 
L 395.048 228.991256 
L 395.048 228.991256 
L 388.352 228.991256 
z
" clip-path="url(#p440ee2d036)" style="fill: url(#hcddca885b2)"/>
   </g>
   <g id="patch_54">
    <path d="M 395.048 228.991256 
L 401.744 228.991256 
L 401.744 228.991256 
L 395.048 228.991256 
z
" clip-path="url(#p440ee2d036)" style="fill: url(#hcddca885b2)"/>
   </g>
   <g id="patch_55">
    <path d="M 401.744 228.991256 
L 408.44 228.991256 
L 408.44 228.991256 
L 401.744 228.991256 
z
" clip-path="url(#p440ee2d036)" style="fill: url(#hcddca885b2)"/>
   </g>
   <g id="LineCollection_1">
    <path d="M 76.988 228.954152 
L 76.988 228.282596 
" clip-path="url(#p440ee2d036)" style="fill: none; stroke: #000000; stroke-width: 1.5"/>
    <path d="M 83.684 228.839154 
L 83.684 227.995154 
" clip-path="url(#p440ee2d036)" style="fill: none; stroke: #000000; stroke-width: 1.5"/>
    <path d="M 90.38 228.697593 
L 90.38 227.72017 
" clip-path="url(#p440ee2d036)" style="fill: none; stroke: #000000; stroke-width: 1.5"/>
    <path d="M 97.076 228.042261 
L 97.076 226.678056 
" clip-path="url(#p440ee2d036)" style="fill: none; stroke: #000000; stroke-width: 1.5"/>
    <path d="M 103.772 226.963481 
L 103.772 225.190238 
" clip-path="url(#p440ee2d036)" style="fill: none; stroke: #000000; stroke-width: 1.5"/>
    <path d="M 110.468 222.935024 
L 110.468 220.209464 
" clip-path="url(#p440ee2d036)" style="fill: none; stroke: #000000; stroke-width: 1.5"/>
    <path d="M 117.164 219.965506 
L 117.164 216.738781 
" clip-path="url(#p440ee2d036)" style="fill: none; stroke: #000000; stroke-width: 1.5"/>
    <path d="M 123.86 214.7389 
L 123.86 210.799974 
" clip-path="url(#p440ee2d036)" style="fill: none; stroke: #000000; stroke-width: 1.5"/>
    <path d="M 130.556 205.362604 
L 130.556 200.419505 
" clip-path="url(#p440ee2d036)" style="fill: none; stroke: #000000; stroke-width: 1.5"/>
    <path d="M 137.252 189.070868 
L 137.252 182.778775 
" clip-path="url(#p440ee2d036)" style="fill: none; stroke: #000000; stroke-width: 1.5"/>
    <path d="M 143.948 179.522651 
L 143.948 172.568329 
" clip-path="url(#p440ee2d036)" style="fill: none; stroke: #000000; stroke-width: 1.5"/>
    <path d="M 150.644 155.326776 
L 150.644 146.937328 
" clip-path="url(#p440ee2d036)" style="fill: none; stroke: #000000; stroke-width: 1.5"/>
    <path d="M 157.34 119.682594 
L 157.34 109.558586 
" clip-path="url(#p440ee2d036)" style="fill: none; stroke: #000000; stroke-width: 1.5"/>
    <path d="M 164.036 100.545044 
L 164.036 89.60722 
" clip-path="url(#p440ee2d036)" style="fill: none; stroke: #000000; stroke-width: 1.5"/>
    <path d="M 170.732 66.619156 
L 170.732 54.375634 
" clip-path="url(#p440ee2d036)" style="fill: none; stroke: #000000; stroke-width: 1.5"/>
    <path d="M 177.428 60.289872 
L 177.428 47.818417 
" clip-path="url(#p440ee2d036)" style="fill: none; stroke: #000000; stroke-width: 1.5"/>
    <path d="M 184.124 54.380659 
L 184.124 41.700225 
" clip-path="url(#p440ee2d036)" style="fill: none; stroke: #000000; stroke-width: 1.5"/>
    <path d="M 190.82 45.513631 
L 190.82 32.52614 
" clip-path="url(#p440ee2d036)" style="fill: none; stroke: #000000; stroke-width: 1.5"/>
    <path d="M 197.516 55.647067 
L 197.516 43.011118 
" clip-path="url(#p440ee2d036)" style="fill: none; stroke: #000000; stroke-width: 1.5"/>
    <path d="M 204.212 64.931557 
L 204.212 52.626833 
" clip-path="url(#p440ee2d036)" style="fill: none; stroke: #000000; stroke-width: 1.5"/>
    <path d="M 210.908 99.913611 
L 210.908 88.950006 
" clip-path="url(#p440ee2d036)" style="fill: none; stroke: #000000; stroke-width: 1.5"/>
    <path d="M 217.604 119.472473 
L 217.604 109.339159 
" clip-path="url(#p440ee2d036)" style="fill: none; stroke: #000000; stroke-width: 1.5"/>
    <path d="M 224.3 134.589191 
L 224.3 125.149866 
" clip-path="url(#p440ee2d036)" style="fill: none; stroke: #000000; stroke-width: 1.5"/>
    <path d="M 230.996 143.394628 
L 230.996 134.385386 
" clip-path="url(#p440ee2d036)" style="fill: none; stroke: #000000; stroke-width: 1.5"/>
    <path d="M 237.692 170.361553 
L 237.692 162.829662 
" clip-path="url(#p440ee2d036)" style="fill: none; stroke: #000000; stroke-width: 1.5"/>
    <path d="M 244.388 173.27899 
L 244.388 165.925801 
" clip-path="url(#p440ee2d036)" style="fill: none; stroke: #000000; stroke-width: 1.5"/>
    <path d="M 251.084 176.610376 
L 251.084 169.467057 
" clip-path="url(#p440ee2d036)" style="fill: none; stroke: #000000; stroke-width: 1.5"/>
    <path d="M 257.78 184.716175 
L 257.78 178.113238 
" clip-path="url(#p440ee2d036)" style="fill: none; stroke: #000000; stroke-width: 1.5"/>
    <path d="M 264.476 194.863771 
L 264.476 189.012743 
" clip-path="url(#p440ee2d036)" style="fill: none; stroke: #000000; stroke-width: 1.5"/>
    <path d="M 271.172 197.753451 
L 271.172 192.136442 
" clip-path="url(#p440ee2d036)" style="fill: none; stroke: #000000; stroke-width: 1.5"/>
    <path d="M 277.868 207.410491 
L 277.868 202.666711 
" clip-path="url(#p440ee2d036)" style="fill: none; stroke: #000000; stroke-width: 1.5"/>
    <path d="M 284.564 209.045503 
L 284.564 204.467729 
" clip-path="url(#p440ee2d036)" style="fill: none; stroke: #000000; stroke-width: 1.5"/>
    <path d="M 291.26 214.536511 
L 291.26 210.572894 
" clip-path="url(#p440ee2d036)" style="fill: none; stroke: #000000; stroke-width: 1.5"/>
    <path d="M 297.956 216.959286 
L 297.956 213.303638 
" clip-path="url(#p440ee2d036)" style="fill: none; stroke: #000000; stroke-width: 1.5"/>
    <path d="M 304.652 221.555037 
L 304.652 218.584235 
" clip-path="url(#p440ee2d036)" style="fill: none; stroke: #000000; stroke-width: 1.5"/>
    <path d="M 311.348 224.301353 
L 311.348 221.847747 
" clip-path="url(#p440ee2d036)" style="fill: none; stroke: #000000; stroke-width: 1.5"/>
    <path d="M 318.044 225.457287 
L 318.044 223.266357 
" clip-path="url(#p440ee2d036)" style="fill: none; stroke: #000000; stroke-width: 1.5"/>
    <path d="M 324.74 227.690455 
L 324.74 226.175496 
" clip-path="url(#p440ee2d036)" style="fill: none; stroke: #000000; stroke-width: 1.5"/>
    <path d="M 331.436 228.213751 
L 331.436 226.932918 
" clip-path="url(#p440ee2d036)" style="fill: none; stroke: #000000; stroke-width: 1.5"/>
    <path d="M 338.132 228.954152 
L 338.132 228.282596 
" clip-path="url(#p440ee2d036)" style="fill: none; stroke: #000000; stroke-width: 1.5"/>
    <path d="M 344.828 228.595848 
" clip-path="url(#p440ee2d036)" style="fill: none; stroke: #000000; stroke-width: 1.5"/>
    <path d="M 351.524 228.595848 
" clip-path="url(#p440ee2d036)" style="fill: none; stroke: #000000; stroke-width: 1.5"/>
    <path d="M 358.22 228.839154 
L 358.22 227.995154 
" clip-path="url(#p440ee2d036)" style="fill: none; stroke: #000000; stroke-width: 1.5"/>
    <path d="M 364.916 228.595848 
" clip-path="url(#p440ee2d036)" style="fill: none; stroke: #000000; stroke-width: 1.5"/>
    <path d="M 371.612 228.595848 
" clip-path="url(#p440ee2d036)" style="fill: none; stroke: #000000; stroke-width: 1.5"/>
    <path d="M 378.308 228.595848 
" clip-path="url(#p440ee2d036)" style="fill: none; stroke: #000000; stroke-width: 1.5"/>
    <path d="M 385.004 228.595848 
" clip-path="url(#p440ee2d036)" style="fill: none; stroke: #000000; stroke-width: 1.5"/>
    <path d="M 391.7 228.595848 
" clip-path="url(#p440ee2d036)" style="fill: none; stroke: #000000; stroke-width: 1.5"/>
    <path d="M 398.396 228.595848 
" clip-path="url(#p440ee2d036)" style="fill: none; stroke: #000000; stroke-width: 1.5"/>
    <path d="M 405.092 228.595848 
" clip-path="url(#p440ee2d036)" style="fill: none; stroke: #000000; stroke-width: 1.5"/>
   </g>
   <g id="line2d_1">
    <defs>
     <path id="meae5c0c399" d="M 0 1.5 
C 0.397805 1.5 0.77937 1.341951 1.06066 1.06066 
C 1.341951 0.77937 1.5 0.397805 1.5 0 
C 1.5 -0.397805 1.341951 -0.77937 1.06066 -1.06066 
C 0.77937 -1.341951 0.397805 -1.5 0 -1.5 
C -0.397805 -1.5 -0.77937 -1.341951 -1.06066 -1.06066 
C -1.341951 -0.77937 -1.5 -0.397805 -1.5 0 
C -1.5 0.397805 -1.341951 0.77937 -1.06066 1.06066 
C -0.77937 1.341951 -0.397805 1.5 0 1.5 
z
" style="stroke: #000000"/>
    </defs>
    <g clip-path="url(#p440ee2d036)">
     <use xlink:href="#meae5c0c399" x="76.988" y="228.77648" style="stroke: #000000"/>
     <use xlink:href="#meae5c0c399" x="83.684" y="228.561703" style="stroke: #000000"/>
     <use xlink:href="#meae5c0c399" x="90.38" y="228.346927" style="stroke: #000000"/>
     <use xlink:href="#meae5c0c399" x="97.076" y="227.487822" style="stroke: #000000"/>
     <use xlink:href="#meae5c0c399" x="103.772" y="226.199165" style="stroke: #000000"/>
     <use xlink:href="#meae5c0c399" x="110.468" y="221.688864" style="stroke: #000000"/>
     <use xlink:href="#meae5c0c399" x="117.164" y="218.467221" style="stroke: #000000"/>
     <use xlink:href="#meae5c0c399" x="123.86" y="212.88304" style="stroke: #000000"/>
     <use xlink:href="#meae5c0c399" x="130.556" y="203.003334" style="stroke: #000000"/>
     <use xlink:href="#meae5c0c399" x="137.252" y="186.036013" style="stroke: #000000"/>
     <use xlink:href="#meae5c0c399" x="143.948" y="176.156307" style="stroke: #000000"/>
     <use xlink:href="#meae5c0c399" x="150.644" y="151.242266" style="stroke: #000000"/>
     <use xlink:href="#meae5c0c399" x="157.34" y="114.730309" style="stroke: #000000"/>
     <use xlink:href="#meae5c0c399" x="164.036" y="95.185673" style="stroke: #000000"/>
     <use xlink:href="#meae5c0c399" x="170.732" y="60.606703" style="stroke: #000000"/>
     <use xlink:href="#meae5c0c399" x="177.428" y="54.163416" style="stroke: #000000"/>
     <use xlink:href="#meae5c0c399" x="184.124" y="48.149682" style="stroke: #000000"/>
     <use xlink:href="#meae5c0c399" x="190.82" y="39.129081" style="stroke: #000000"/>
     <use xlink:href="#meae5c0c399" x="197.516" y="49.438339" style="stroke: #000000"/>
     <use xlink:href="#meae5c0c399" x="204.212" y="58.888493" style="stroke: #000000"/>
     <use xlink:href="#meae5c0c399" x="210.908" y="94.541345" style="stroke: #000000"/>
     <use xlink:href="#meae5c0c399" x="217.604" y="114.515533" style="stroke: #000000"/>
     <use xlink:href="#meae5c0c399" x="224.3" y="129.97942" style="stroke: #000000"/>
     <use xlink:href="#meae5c0c399" x="230.996" y="139.000021" style="stroke: #000000"/>
     <use xlink:href="#meae5c0c399" x="237.692" y="166.706153" style="stroke: #000000"/>
     <use xlink:href="#meae5c0c399" x="244.388" y="169.71302" style="stroke: #000000"/>
     <use xlink:href="#meae5c0c399" x="251.084" y="173.14944" style="stroke: #000000"/>
     <use xlink:href="#meae5c0c399" x="257.78" y="181.525712" style="stroke: #000000"/>
     <use xlink:href="#meae5c0c399" x="264.476" y="192.049747" style="stroke: #000000"/>
     <use xlink:href="#meae5c0c399" x="271.172" y="195.056614" style="stroke: #000000"/>
     <use xlink:href="#meae5c0c399" x="277.868" y="205.151096" style="stroke: #000000"/>
     <use xlink:href="#meae5c0c399" x="284.564" y="206.869306" style="stroke: #000000"/>
     <use xlink:href="#meae5c0c399" x="291.26" y="212.668263" style="stroke: #000000"/>
     <use xlink:href="#meae5c0c399" x="297.956" y="215.245578" style="stroke: #000000"/>
     <use xlink:href="#meae5c0c399" x="304.652" y="220.185431" style="stroke: #000000"/>
     <use xlink:href="#meae5c0c399" x="311.348" y="223.192298" style="stroke: #000000"/>
     <use xlink:href="#meae5c0c399" x="318.044" y="224.480955" style="stroke: #000000"/>
     <use xlink:href="#meae5c0c399" x="324.74" y="227.05827" style="stroke: #000000"/>
     <use xlink:href="#meae5c0c399" x="331.436" y="227.702599" style="stroke: #000000"/>
     <use xlink:href="#meae5c0c399" x="338.132" y="228.77648" style="stroke: #000000"/>
     <use xlink:href="#meae5c0c399" x="344.828" y="228.991256" style="stroke: #000000"/>
     <use xlink:href="#meae5c0c399" x="351.524" y="228.991256" style="stroke: #000000"/>
     <use xlink:href="#meae5c0c399" x="358.22" y="228.561703" style="stroke: #000000"/>
     <use xlink:href="#meae5c0c399" x="364.916" y="228.991256" style="stroke: #000000"/>
     <use xlink:href="#meae5c0c399" x="371.612" y="228.991256" style="stroke: #000000"/>
     <use xlink:href="#meae5c0c399" x="378.308" y="228.991256" style="stroke: #000000"/>
     <use xlink:href="#meae5c0c399" x="385.004" y="228.991256" style="stroke: #000000"/>
     <use xlink:href="#meae5c0c399" x="391.7" y="228.991256" style="stroke: #000000"/>
     <use xlink:href="#meae5c0c399" x="398.396" y="228.991256" style="stroke: #000000"/>
     <use xlink:href="#meae5c0c399" x="405.092" y="228.991256" style="stroke: #000000"/>
    </g>
   </g>
   <g id="patch_56">
    <path d="M 73.64 228.991256 
L 73.64 22.702884 
" style="fill: none; stroke: #000000; stroke-linejoin: miter; stroke-linecap: square"/>
   </g>
   <g id="patch_57">
    <path d="M 408.44 228.991256 
L 408.44 22.702884 
" style="fill: none; stroke: #000000; stroke-linejoin: miter; stroke-linecap: square"/>
   </g>
   <g id="patch_58">
    <path d="M 73.64 228.991256 
L 408.44 228.991256 
" style="fill: none; stroke: #000000; stroke-linejoin: miter; stroke-linecap: square"/>
   </g>
   <g id="patch_59">
    <path d="M 73.64 22.702884 
L 408.44 22.702884 
" style="fill: none; stroke: #000000; stroke-linejoin: miter; stroke-linecap: square"/>
   </g>
   <g id="matplotlib.axis_1">
    <g id="xtick_1">
     <g id="line2d_2">
      <defs>
       <path id="m8dec1b3d1d" d="M 0 0 
L 0 -6 
" style="stroke: #1a1a1a; stroke-width: 0.8"/>
      </defs>
      <g>
       <use xlink:href="#m8dec1b3d1d" x="137.411429" y="228.991256" style="fill: #1a1a1a; stroke: #1a1a1a; stroke-width: 0.8"/>
      </g>
     </g>
    </g>
    <g id="xtick_2">
     <g id="line2d_3">
      <g>
       <use xlink:href="#m8dec1b3d1d" x="217.125714" y="228.991256" style="fill: #1a1a1a; stroke: #1a1a1a; stroke-width: 0.8"/>
      </g>
     </g>
    </g>
    <g id="xtick_3">
     <g id="line2d_4">
      <g>
       <use xlink:href="#m8dec1b3d1d" x="296.84" y="228.991256" style="fill: #1a1a1a; stroke: #1a1a1a; stroke-width: 0.8"/>
      </g>
     </g>
    </g>
    <g id="xtick_4">
     <g id="line2d_5">
      <g>
       <use xlink:href="#m8dec1b3d1d" x="376.554286" y="228.991256" style="fill: #1a1a1a; stroke: #1a1a1a; stroke-width: 0.8"/>
      </g>
     </g>
    </g>
    <g id="xtick_5">
     <g id="line2d_6">
      <defs>
       <path id="m131efc0c90" d="M 0 0 
L 0 -3 
" style="stroke: #1a1a1a; stroke-width: 0.6"/>
      </defs>
      <g>
       <use xlink:href="#m131efc0c90" x="89.582857" y="228.991256" style="fill: #1a1a1a; stroke: #1a1a1a; stroke-width: 0.6"/>
      </g>
     </g>
    </g>
    <g id="xtick_6">
     <g id="line2d_7">
      <g>
       <use xlink:href="#m131efc0c90" x="105.525714" y="228.991256" style="fill: #1a1a1a; stroke: #1a1a1a; stroke-width: 0.6"/>
      </g>
     </g>
    </g>
    <g id="xtick_7">
     <g id="line2d_8">
      <g>
       <use xlink:href="#m131efc0c90" x="121.468571" y="228.991256" style="fill: #1a1a1a; stroke: #1a1a1a; stroke-width: 0.6"/>
      </g>
     </g>
    </g>
    <g id="xtick_8">
     <g id="line2d_9">
      <g>
       <use xlink:href="#m131efc0c90" x="153.354286" y="228.991256" style="fill: #1a1a1a; stroke: #1a1a1a; stroke-width: 0.6"/>
      </g>
     </g>
    </g>
    <g id="xtick_9">
     <g id="line2d_10">
      <g>
       <use xlink:href="#m131efc0c90" x="169.297143" y="228.991256" style="fill: #1a1a1a; stroke: #1a1a1a; stroke-width: 0.6"/>
      </g>
     </g>
    </g>
    <g id="xtick_10">
     <g id="line2d_11">
      <g>
       <use xlink:href="#m131efc0c90" x="185.24" y="228.991256" style="fill: #1a1a1a; stroke: #1a1a1a; stroke-width: 0.6"/>
      </g>
     </g>
    </g>
    <g id="xtick_11">
     <g id="line2d_12">
      <g>
       <use xlink:href="#m131efc0c90" x="201.182857" y="228.991256" style="fill: #1a1a1a; stroke: #1a1a1a; stroke-width: 0.6"/>
      </g>
     </g>
    </g>
    <g id="xtick_12">
     <g id="line2d_13">
      <g>
       <use xlink:href="#m131efc0c90" x="233.068571" y="228.991256" style="fill: #1a1a1a; stroke: #1a1a1a; stroke-width: 0.6"/>
      </g>
     </g>
    </g>
    <g id="xtick_13">
     <g id="line2d_14">
      <g>
       <use xlink:href="#m131efc0c90" x="249.011429" y="228.991256" style="fill: #1a1a1a; stroke: #1a1a1a; stroke-width: 0.6"/>
      </g>
     </g>
    </g>
    <g id="xtick_14">
     <g id="line2d_15">
      <g>
       <use xlink:href="#m131efc0c90" x="264.954286" y="228.991256" style="fill: #1a1a1a; stroke: #1a1a1a; stroke-width: 0.6"/>
      </g>
     </g>
    </g>
    <g id="xtick_15">
     <g id="line2d_16">
      <g>
       <use xlink:href="#m131efc0c90" x="280.897143" y="228.991256" style="fill: #1a1a1a; stroke: #1a1a1a; stroke-width: 0.6"/>
      </g>
     </g>
    </g>
    <g id="xtick_16">
     <g id="line2d_17">
      <g>
       <use xlink:href="#m131efc0c90" x="312.782857" y="228.991256" style="fill: #1a1a1a; stroke: #1a1a1a; stroke-width: 0.6"/>
      </g>
     </g>
    </g>
    <g id="xtick_17">
     <g id="line2d_18">
      <g>
       <use xlink:href="#m131efc0c90" x="328.725714" y="228.991256" style="fill: #1a1a1a; stroke: #1a1a1a; stroke-width: 0.6"/>
      </g>
     </g>
    </g>
    <g id="xtick_18">
     <g id="line2d_19">
      <g>
       <use xlink:href="#m131efc0c90" x="344.668571" y="228.991256" style="fill: #1a1a1a; stroke: #1a1a1a; stroke-width: 0.6"/>
      </g>
     </g>
    </g>
    <g id="xtick_19">
     <g id="line2d_20">
      <g>
       <use xlink:href="#m131efc0c90" x="360.611429" y="228.991256" style="fill: #1a1a1a; stroke: #1a1a1a; stroke-width: 0.6"/>
      </g>
     </g>
    </g>
    <g id="xtick_20">
     <g id="line2d_21">
      <g>
       <use xlink:href="#m131efc0c90" x="392.497143" y="228.991256" style="fill: #1a1a1a; stroke: #1a1a1a; stroke-width: 0.6"/>
      </g>
     </g>
    </g>
    <g id="xtick_21">
     <g id="line2d_22">
      <g>
       <use xlink:href="#m131efc0c90" x="408.44" y="228.991256" style="fill: #1a1a1a; stroke: #1a1a1a; stroke-width: 0.6"/>
      </g>
     </g>
    </g>
   </g>
   <g id="matplotlib.axis_2">
    <g id="ytick_1">
     <g id="line2d_23">
      <defs>
       <path id="mc947610920" d="M 0 0 
L 6 0 
" style="stroke: #1a1a1a; stroke-width: 0.8"/>
      </defs>
      <g>
       <use xlink:href="#mc947610920" x="73.64" y="228.991256" style="fill: #1a1a1a; stroke: #1a1a1a; stroke-width: 0.8"/>
      </g>
     </g>
     <g id="text_1">
      <!-- $\mathdefault{0}$ -->
      <g style="fill: #1a1a1a" transform="translate(61.14 234.196725) scale(0.15 -0.15)">
       <defs>
        <path id="LatinModernMath-Regular-30" d="M 2944 2048 
C 2944 2560 2912 3072 2688 3546 
C 2394 4160 1869 4262 1600 4262 
C 1216 4262 749 4096 486 3501 
C 282 3059 250 2560 250 2048 
C 250 1568 275 992 538 506 
C 813 -13 1280 -141 1594 -141 
C 1939 -141 2426 -6 2707 602 
C 2912 1043 2944 1542 2944 2048 
z
M 2413 2125 
C 2413 1645 2413 1210 2342 800 
C 2246 192 1882 0 1594 0 
C 1344 0 966 160 851 774 
C 781 1158 781 1747 781 2125 
C 781 2534 781 2957 832 3302 
C 954 4064 1434 4122 1594 4122 
C 1805 4122 2227 4006 2349 3373 
C 2413 3014 2413 2528 2413 2125 
z
" transform="scale(0.015625)"/>
       </defs>
       <use xlink:href="#LatinModernMath-Regular-30" transform="translate(0 0.40625)"/>
      </g>
     </g>
    </g>
    <g id="ytick_2">
     <g id="line2d_24">
      <g>
       <use xlink:href="#mc947610920" x="73.64" y="186.036013" style="fill: #1a1a1a; stroke: #1a1a1a; stroke-width: 0.8"/>
      </g>
     </g>
     <g id="text_2">
      <!-- $\mathdefault{200}$ -->
      <g style="fill: #1a1a1a" transform="translate(46.14 191.241481) scale(0.15 -0.15)">
       <defs>
        <path id="LatinModernMath-Regular-32" d="M 2874 1114 
L 2714 1114 
C 2682 922 2637 640 2573 544 
C 2528 493 2106 493 1965 493 
L 813 493 
L 1491 1152 
C 2490 2035 2874 2381 2874 3021 
C 2874 3750 2298 4262 1517 4262 
C 794 4262 320 3674 320 3104 
C 320 2746 640 2746 659 2746 
C 768 2746 992 2822 992 3085 
C 992 3251 877 3418 653 3418 
C 602 3418 589 3418 570 3411 
C 717 3827 1062 4064 1434 4064 
C 2016 4064 2291 3546 2291 3021 
C 2291 2509 1971 2003 1619 1606 
L 390 237 
C 320 166 320 154 320 0 
L 2694 0 
L 2874 1114 
z
" transform="scale(0.015625)"/>
       </defs>
       <use xlink:href="#LatinModernMath-Regular-32" transform="translate(0 0.40625)"/>
       <use xlink:href="#LatinModernMath-Regular-30" transform="translate(49.999985 0.40625)"/>
       <use xlink:href="#LatinModernMath-Regular-30" transform="translate(99.999969 0.40625)"/>
      </g>
     </g>
    </g>
    <g id="ytick_3">
     <g id="line2d_25">
      <g>
       <use xlink:href="#mc947610920" x="73.64" y="143.080769" style="fill: #1a1a1a; stroke: #1a1a1a; stroke-width: 0.8"/>
      </g>
     </g>
     <g id="text_3">
      <!-- $\mathdefault{400}$ -->
      <g style="fill: #1a1a1a" transform="translate(46.14 148.286238) scale(0.15 -0.15)">
       <defs>
        <path id="LatinModernMath-Regular-34" d="M 3014 1056 
L 3014 1254 
L 2374 1254 
L 2374 4166 
C 2374 4294 2374 4333 2272 4333 
C 2214 4333 2195 4333 2144 4256 
L 179 1254 
L 179 1056 
L 1882 1056 
L 1882 499 
C 1882 269 1869 198 1395 198 
L 1261 198 
L 1261 0 
C 1523 19 1856 19 2125 19 
C 2394 19 2733 19 2995 0 
L 2995 198 
L 2861 198 
C 2387 198 2374 269 2374 499 
L 2374 1056 
L 3014 1056 
z
M 1920 1254 
L 358 1254 
L 1920 3642 
L 1920 1254 
z
" transform="scale(0.015625)"/>
       </defs>
       <use xlink:href="#LatinModernMath-Regular-34" transform="translate(0 0.296875)"/>
       <use xlink:href="#LatinModernMath-Regular-30" transform="translate(49.999985 0.296875)"/>
       <use xlink:href="#LatinModernMath-Regular-30" transform="translate(99.999969 0.296875)"/>
      </g>
     </g>
    </g>
    <g id="ytick_4">
     <g id="line2d_26">
      <g>
       <use xlink:href="#mc947610920" x="73.64" y="100.125526" style="fill: #1a1a1a; stroke: #1a1a1a; stroke-width: 0.8"/>
      </g>
     </g>
     <g id="text_4">
      <!-- $\mathdefault{600}$ -->
      <g style="fill: #1a1a1a" transform="translate(46.14 105.330995) scale(0.15 -0.15)">
       <defs>
        <path id="LatinModernMath-Regular-36" d="M 2925 1306 
C 2925 2118 2355 2733 1645 2733 
C 1210 2733 973 2406 845 2099 
L 845 2253 
C 845 3872 1638 4102 1965 4102 
C 2118 4102 2387 4064 2528 3846 
C 2432 3846 2176 3846 2176 3558 
C 2176 3360 2330 3264 2470 3264 
C 2573 3264 2765 3322 2765 3571 
C 2765 3955 2483 4262 1952 4262 
C 1133 4262 269 3437 269 2022 
C 269 314 1011 -141 1606 -141 
C 2317 -141 2925 461 2925 1306 
z
M 2349 1312 
C 2349 1005 2349 685 2240 454 
C 2048 70 1754 38 1606 38 
C 1203 38 1011 422 973 518 
C 858 819 858 1331 858 1446 
C 858 1946 1062 2586 1638 2586 
C 1741 2586 2035 2586 2234 2189 
C 2349 1952 2349 1626 2349 1312 
z
" transform="scale(0.015625)"/>
       </defs>
       <use xlink:href="#LatinModernMath-Regular-36" transform="translate(0 0.40625)"/>
       <use xlink:href="#LatinModernMath-Regular-30" transform="translate(49.999985 0.40625)"/>
       <use xlink:href="#LatinModernMath-Regular-30" transform="translate(99.999969 0.40625)"/>
      </g>
     </g>
    </g>
    <g id="ytick_5">
     <g id="line2d_27">
      <g>
       <use xlink:href="#mc947610920" x="73.64" y="57.170283" style="fill: #1a1a1a; stroke: #1a1a1a; stroke-width: 0.8"/>
      </g>
     </g>
     <g id="text_5">
      <!-- $\mathdefault{800}$ -->
      <g style="fill: #1a1a1a" transform="translate(46.14 62.375752) scale(0.15 -0.15)">
       <defs>
        <path id="LatinModernMath-Regular-38" d="M 2925 1075 
C 2925 1306 2854 1594 2611 1862 
C 2490 1997 2387 2061 1978 2317 
C 2438 2554 2752 2886 2752 3309 
C 2752 3898 2182 4262 1600 4262 
C 960 4262 442 3789 442 3194 
C 442 3078 454 2790 723 2490 
C 794 2413 1030 2253 1190 2144 
C 819 1958 269 1600 269 966 
C 269 288 922 -141 1594 -141 
C 2317 -141 2925 390 2925 1075 
z
M 2470 3309 
C 2470 2944 2221 2637 1837 2413 
L 1043 2925 
C 749 3117 723 3334 723 3443 
C 723 3834 1139 4102 1594 4102 
C 2061 4102 2470 3770 2470 3309 
z
M 2605 845 
C 2605 371 2125 38 1600 38 
C 1050 38 589 435 589 966 
C 589 1338 794 1747 1338 2048 
L 2125 1549 
C 2304 1427 2605 1235 2605 845 
z
" transform="scale(0.015625)"/>
       </defs>
       <use xlink:href="#LatinModernMath-Regular-38" transform="translate(0 0.40625)"/>
       <use xlink:href="#LatinModernMath-Regular-30" transform="translate(49.999985 0.40625)"/>
       <use xlink:href="#LatinModernMath-Regular-30" transform="translate(99.999969 0.40625)"/>
      </g>
     </g>
    </g>
    <g id="ytick_6">
     <g id="line2d_28">
      <defs>
       <path id="m5f9d1e6504" d="M 0 0 
L 3 0 
" style="stroke: #1a1a1a; stroke-width: 0.6"/>
      </defs>
      <g>
       <use xlink:href="#m5f9d1e6504" x="73.64" y="218.252445" style="fill: #1a1a1a; stroke: #1a1a1a; stroke-width: 0.6"/>
      </g>
     </g>
    </g>
    <g id="ytick_7">
     <g id="line2d_29">
      <g>
       <use xlink:href="#m5f9d1e6504" x="73.64" y="207.513634" style="fill: #1a1a1a; stroke: #1a1a1a; stroke-width: 0.6"/>
      </g>
     </g>
    </g>
    <g id="ytick_8">
     <g id="line2d_30">
      <g>
       <use xlink:href="#m5f9d1e6504" x="73.64" y="196.774823" style="fill: #1a1a1a; stroke: #1a1a1a; stroke-width: 0.6"/>
      </g>
     </g>
    </g>
    <g id="ytick_9">
     <g id="line2d_31">
      <g>
       <use xlink:href="#m5f9d1e6504" x="73.64" y="175.297202" style="fill: #1a1a1a; stroke: #1a1a1a; stroke-width: 0.6"/>
      </g>
     </g>
    </g>
    <g id="ytick_10">
     <g id="line2d_32">
      <g>
       <use xlink:href="#m5f9d1e6504" x="73.64" y="164.558391" style="fill: #1a1a1a; stroke: #1a1a1a; stroke-width: 0.6"/>
      </g>
     </g>
    </g>
    <g id="ytick_11">
     <g id="line2d_33">
      <g>
       <use xlink:href="#m5f9d1e6504" x="73.64" y="153.81958" style="fill: #1a1a1a; stroke: #1a1a1a; stroke-width: 0.6"/>
      </g>
     </g>
    </g>
    <g id="ytick_12">
     <g id="line2d_34">
      <g>
       <use xlink:href="#m5f9d1e6504" x="73.64" y="132.341959" style="fill: #1a1a1a; stroke: #1a1a1a; stroke-width: 0.6"/>
      </g>
     </g>
    </g>
    <g id="ytick_13">
     <g id="line2d_35">
      <g>
       <use xlink:href="#m5f9d1e6504" x="73.64" y="121.603148" style="fill: #1a1a1a; stroke: #1a1a1a; stroke-width: 0.6"/>
      </g>
     </g>
    </g>
    <g id="ytick_14">
     <g id="line2d_36">
      <g>
       <use xlink:href="#m5f9d1e6504" x="73.64" y="110.864337" style="fill: #1a1a1a; stroke: #1a1a1a; stroke-width: 0.6"/>
      </g>
     </g>
    </g>
    <g id="ytick_15">
     <g id="line2d_37">
      <g>
       <use xlink:href="#m5f9d1e6504" x="73.64" y="89.386716" style="fill: #1a1a1a; stroke: #1a1a1a; stroke-width: 0.6"/>
      </g>
     </g>
    </g>
    <g id="ytick_16">
     <g id="line2d_38">
      <g>
       <use xlink:href="#m5f9d1e6504" x="73.64" y="78.647905" style="fill: #1a1a1a; stroke: #1a1a1a; stroke-width: 0.6"/>
      </g>
     </g>
    </g>
    <g id="ytick_17">
     <g id="line2d_39">
      <g>
       <use xlink:href="#m5f9d1e6504" x="73.64" y="67.909094" style="fill: #1a1a1a; stroke: #1a1a1a; stroke-width: 0.6"/>
      </g>
     </g>
    </g>
    <g id="ytick_18">
     <g id="line2d_40">
      <g>
       <use xlink:href="#m5f9d1e6504" x="73.64" y="46.431472" style="fill: #1a1a1a; stroke: #1a1a1a; stroke-width: 0.6"/>
      </g>
     </g>
    </g>
    <g id="ytick_19">
     <g id="line2d_41">
      <g>
       <use xlink:href="#m5f9d1e6504" x="73.64" y="35.692662" style="fill: #1a1a1a; stroke: #1a1a1a; stroke-width: 0.6"/>
      </g>
     </g>
    </g>
    <g id="ytick_20">
     <g id="line2d_42">
      <g>
       <use xlink:href="#m5f9d1e6504" x="73.64" y="24.953851" style="fill: #1a1a1a; stroke: #1a1a1a; stroke-width: 0.6"/>
      </g>
     </g>
    </g>
    <g id="text_6">
     <!-- Entries -->
     <g style="fill: #1a1a1a" transform="translate(36.646875 154.053632) rotate(-90) scale(0.18 -0.18)">
      <defs>
       <path id="LatinModernMath-Regular-45" d="M 4173 1651 
L 4013 1651 
C 3853 666 3706 198 2605 198 
L 1754 198 
C 1453 198 1440 243 1440 454 
L 1440 2163 
L 2016 2163 
C 2637 2163 2707 1958 2707 1414 
L 2867 1414 
L 2867 3110 
L 2707 3110 
C 2707 2560 2637 2362 2016 2362 
L 1440 2362 
L 1440 3898 
C 1440 4109 1453 4154 1754 4154 
L 2579 4154 
C 3558 4154 3731 3802 3834 2912 
L 3994 2912 
L 3814 4352 
L 211 4352 
L 211 4154 
L 365 4154 
C 858 4154 870 4083 870 3853 
L 870 499 
C 870 269 858 198 365 198 
L 211 198 
L 211 0 
L 3904 0 
L 4173 1651 
z
" transform="scale(0.015625)"/>
       <path id="LatinModernMath-Regular-6e" d="M 3424 0 
L 3424 198 
C 3091 198 2931 198 2925 390 
L 2925 1613 
C 2925 2163 2925 2362 2726 2592 
C 2637 2701 2426 2829 2054 2829 
C 1587 2829 1286 2554 1107 2157 
L 1107 2829 
L 205 2758 
L 205 2560 
C 653 2560 704 2515 704 2202 
L 704 486 
C 704 198 634 198 205 198 
L 205 0 
L 928 19 
L 1645 0 
L 1645 198 
C 1216 198 1146 198 1146 486 
L 1146 1664 
C 1146 2330 1600 2688 2010 2688 
C 2413 2688 2483 2342 2483 1978 
L 2483 486 
C 2483 198 2413 198 1984 198 
L 1984 0 
L 2707 19 
L 3424 0 
z
" transform="scale(0.015625)"/>
       <path id="LatinModernMath-Regular-74" d="M 2125 794 
L 2125 1158 
L 1965 1158 
L 1965 806 
C 1965 333 1773 90 1536 90 
C 1107 90 1107 672 1107 781 
L 1107 2560 
L 2022 2560 
L 2022 2758 
L 1107 2758 
L 1107 3936 
L 947 3936 
C 941 3411 749 2726 122 2701 
L 122 2560 
L 666 2560 
L 666 794 
C 666 6 1261 -70 1491 -70 
C 1946 -70 2125 384 2125 794 
z
" transform="scale(0.015625)"/>
       <path id="LatinModernMath-Regular-72" d="M 2330 2438 
C 2330 2643 2131 2829 1856 2829 
C 1389 2829 1158 2400 1069 2125 
L 1069 2829 
L 179 2758 
L 179 2560 
C 627 2560 678 2515 678 2202 
L 678 486 
C 678 198 608 198 179 198 
L 179 0 
L 909 19 
C 1165 19 1466 19 1722 0 
L 1722 198 
L 1587 198 
C 1114 198 1101 269 1101 499 
L 1101 1485 
C 1101 2118 1370 2688 1856 2688 
C 1901 2688 1914 2688 1926 2682 
C 1907 2675 1779 2598 1779 2432 
C 1779 2253 1914 2157 2054 2157 
C 2170 2157 2330 2234 2330 2438 
z
" transform="scale(0.015625)"/>
       <path id="LatinModernMath-Regular-69" d="M 1581 0 
L 1581 198 
C 1158 198 1133 230 1133 480 
L 1133 2829 
L 237 2758 
L 237 2560 
C 653 2560 710 2522 710 2208 
L 710 486 
C 710 198 640 198 211 198 
L 211 0 
L 915 19 
C 1139 19 1363 6 1581 0 
z
M 1229 3866 
C 1229 4038 1082 4205 890 4205 
C 672 4205 544 4026 544 3866 
C 544 3693 691 3526 883 3526 
C 1101 3526 1229 3706 1229 3866 
z
" transform="scale(0.015625)"/>
       <path id="LatinModernMath-Regular-65" d="M 2656 762 
C 2656 826 2605 838 2573 838 
C 2515 838 2502 800 2490 749 
C 2266 90 1690 90 1626 90 
C 1306 90 1050 282 902 518 
C 710 826 710 1248 710 1478 
L 2496 1478 
C 2637 1478 2656 1478 2656 1613 
C 2656 2246 2310 2867 1510 2867 
C 768 2867 179 2208 179 1408 
C 179 550 851 -70 1587 -70 
C 2368 -70 2656 640 2656 762 
z
M 2234 1613 
L 717 1613 
C 755 2566 1293 2726 1510 2726 
C 2170 2726 2234 1862 2234 1613 
z
" transform="scale(0.015625)"/>
       <path id="LatinModernMath-Regular-73" d="M 2304 819 
C 2304 1158 2112 1350 2035 1427 
C 1824 1632 1574 1683 1306 1734 
C 947 1805 518 1888 518 2259 
C 518 2483 685 2746 1235 2746 
C 1939 2746 1971 2170 1984 1971 
C 1990 1914 2061 1914 2061 1914 
C 2144 1914 2144 1946 2144 2067 
L 2144 2714 
C 2144 2822 2144 2867 2074 2867 
C 2042 2867 2029 2867 1946 2790 
C 1926 2765 1862 2707 1837 2688 
C 1594 2867 1331 2867 1235 2867 
C 454 2867 211 2438 211 2080 
C 211 1856 314 1677 486 1536 
C 691 1370 870 1331 1331 1242 
C 1472 1216 1997 1114 1997 653 
C 1997 326 1773 70 1274 70 
C 736 70 506 435 384 979 
C 365 1062 358 1088 294 1088 
C 211 1088 211 1043 211 928 
L 211 83 
C 211 -26 211 -70 282 -70 
C 314 -70 320 -64 442 58 
C 454 70 454 83 570 205 
C 851 -64 1139 -70 1274 -70 
C 2010 -70 2304 358 2304 819 
z
" transform="scale(0.015625)"/>
      </defs>
      <use xlink:href="#LatinModernMath-Regular-45"/>
      <use xlink:href="#LatinModernMath-Regular-6e" x="68.099991"/>
      <use xlink:href="#LatinModernMath-Regular-74" x="123.699982"/>
      <use xlink:href="#LatinModernMath-Regular-72" x="162.599976"/>
      <use xlink:href="#LatinModernMath-Regular-69" x="201.799973"/>
      <use xlink:href="#LatinModernMath-Regular-65" x="229.59996"/>
      <use xlink:href="#LatinModernMath-Regular-73" x="273.999954"/>
     </g>
    </g>
   </g>
   <g id="text_7">
    <!-- $\mathrm{\mathbf{Beast\,\,III}}$ $\int\,\mathcal{L}\,\mathrm{dt}=(1 + 0.74)\,ab^{-1}$ -->
    <g style="fill: #1a1a1a" transform="translate(236.84 16.92) scale(0.12 -0.12)">
     <defs>
      <path id="Cmb10-42" d="M 219 0 
L 219 325 
L 819 325 
L 819 4063 
L 219 4063 
L 219 4391 
L 2631 4391 
Q 2991 4391 3306 4270 
Q 3622 4150 3817 3898 
Q 4013 3647 4013 3278 
Q 4013 2888 3752 2636 
Q 3491 2384 3078 2297 
Q 3559 2238 3871 1952 
Q 4184 1666 4184 1197 
Q 4184 625 3789 312 
Q 3394 0 2809 0 
L 219 0 
z
M 1684 325 
L 2631 325 
Q 2838 325 2970 459 
Q 3103 594 3161 794 
Q 3219 994 3219 1197 
Q 3219 1384 3178 1606 
Q 3138 1828 3025 1992 
Q 2913 2156 2719 2156 
L 1684 2156 
L 1684 325 
z
M 1684 2413 
L 2450 2413 
Q 2766 2413 2922 2677 
Q 3078 2941 3078 3278 
Q 3078 3569 2978 3816 
Q 2878 4063 2631 4063 
L 1684 4063 
L 1684 2413 
z
" transform="scale(0.015625)"/>
      <path id="Cmb10-65" d="M 178 1441 
Q 178 1856 350 2189 
Q 522 2522 842 2711 
Q 1163 2900 1581 2900 
Q 2003 2900 2275 2726 
Q 2547 2553 2675 2242 
Q 2803 1931 2803 1522 
Q 2803 1428 2700 1394 
L 1025 1394 
Q 1025 1078 1070 829 
Q 1116 581 1275 412 
Q 1434 244 1741 244 
Q 2000 244 2208 394 
Q 2416 544 2484 788 
Q 2519 847 2578 863 
L 2700 863 
Q 2803 841 2803 750 
Q 2803 744 2797 709 
Q 2722 475 2553 308 
Q 2384 141 2150 51 
Q 1916 -38 1672 -38 
Q 1347 -38 1072 67 
Q 797 172 597 367 
Q 397 563 287 836 
Q 178 1109 178 1441 
z
M 1025 1631 
L 2169 1631 
Q 2169 1869 2120 2095 
Q 2072 2322 1940 2483 
Q 1809 2644 1581 2644 
Q 1250 2644 1137 2341 
Q 1025 2038 1025 1631 
z
" transform="scale(0.015625)"/>
      <path id="Cmb10-61" d="M 178 716 
Q 178 1081 468 1304 
Q 759 1528 1157 1618 
Q 1556 1709 1925 1709 
L 1925 1947 
Q 1925 2228 1803 2436 
Q 1681 2644 1416 2644 
Q 1244 2644 1050 2613 
Q 1184 2488 1184 2297 
Q 1184 2119 1068 2000 
Q 953 1881 775 1881 
Q 597 1881 478 2000 
Q 359 2119 359 2297 
Q 359 2541 529 2675 
Q 700 2809 937 2854 
Q 1175 2900 1422 2900 
Q 1731 2900 2018 2804 
Q 2306 2709 2493 2498 
Q 2681 2288 2681 1966 
L 2681 453 
Q 2709 325 3003 325 
Q 3084 306 3103 225 
L 3103 103 
Q 3084 19 3003 0 
L 2559 0 
Q 2366 0 2200 100 
Q 2034 200 2034 384 
L 2034 434 
Q 1922 219 1709 90 
Q 1497 -38 1253 -38 
Q 850 -38 514 153 
Q 178 344 178 716 
z
M 1331 219 
Q 1497 219 1633 305 
Q 1769 391 1847 533 
Q 1925 675 1925 838 
L 1925 1478 
Q 1697 1478 1472 1389 
Q 1247 1300 1100 1125 
Q 953 950 953 716 
Q 953 534 1058 376 
Q 1163 219 1331 219 
z
" transform="scale(0.015625)"/>
      <path id="Cmb10-73" d="M 213 44 
L 213 934 
Q 228 994 294 1013 
L 459 1013 
Q 522 991 538 934 
Q 703 219 1259 219 
Q 1825 219 1825 684 
Q 1825 800 1765 892 
Q 1706 984 1609 1045 
Q 1513 1106 1403 1131 
L 1019 1209 
Q 672 1294 442 1508 
Q 213 1722 213 2041 
Q 213 2272 292 2440 
Q 372 2609 517 2711 
Q 663 2813 847 2856 
Q 1031 2900 1259 2900 
Q 1559 2900 1759 2791 
L 1966 2894 
L 1991 2900 
L 2069 2900 
Q 2128 2884 2144 2822 
L 2144 2119 
Q 2128 2050 2069 2034 
L 1900 2034 
Q 1834 2050 1819 2119 
Q 1819 2288 1748 2411 
Q 1678 2534 1550 2601 
Q 1422 2669 1247 2669 
Q 691 2669 691 2284 
Q 691 2144 811 2048 
Q 931 1953 1088 1913 
L 1478 1838 
Q 1713 1778 1897 1654 
Q 2081 1531 2192 1339 
Q 2303 1147 2303 909 
Q 2303 428 2022 195 
Q 1741 -38 1259 -38 
Q 897 -38 659 141 
L 391 -31 
L 366 -38 
L 294 -38 
Q 228 -22 213 44 
z
" transform="scale(0.015625)"/>
      <path id="Cmb10-74" d="M 513 750 
L 513 2516 
L 122 2516 
L 122 2772 
Q 416 2772 600 2976 
Q 784 3181 862 3482 
Q 941 3784 941 4063 
L 1269 4063 
L 1269 2841 
L 2028 2841 
L 2028 2516 
L 1269 2516 
L 1269 769 
Q 1269 553 1320 398 
Q 1372 244 1538 244 
Q 1688 244 1747 409 
Q 1806 575 1806 769 
L 1806 1131 
L 2131 1131 
L 2131 750 
Q 2131 563 2051 378 
Q 1972 194 1822 78 
Q 1672 -38 1472 -38 
Q 1047 -38 780 151 
Q 513 341 513 750 
z
" transform="scale(0.015625)"/>
      <path id="Cmb10-49" d="M 166 0 
L 166 325 
L 800 325 
L 800 4063 
L 166 4063 
L 166 4391 
L 2369 4391 
L 2369 4063 
L 1734 4063 
L 1734 325 
L 2369 325 
L 2369 0 
L 166 0 
z
" transform="scale(0.015625)"/>
      <path id="LatinModernMath-Regular-20" transform="scale(0.015625)"/>
      <path id="LatinModernMath-Regular-222b" d="M 3898 4621 
C 3898 4928 3578 5152 3194 5152 
C 2586 5152 2336 4531 2227 4045 
C 2150 3693 1920 1888 1862 1114 
L 1741 -480 
C 1658 -1530 1427 -1818 1062 -1818 
C 979 -1818 787 -1798 653 -1683 
C 838 -1658 890 -1510 890 -1421 
C 890 -1235 749 -1152 627 -1152 
C 499 -1152 358 -1235 358 -1427 
C 358 -1734 678 -1958 1062 -1958 
C 1670 -1958 1978 -1402 2118 -826 
C 2202 -493 2432 1370 2483 2080 
L 2605 3674 
C 2694 4851 2912 5011 3200 5011 
C 3264 5011 3462 4998 3603 4877 
C 3418 4851 3366 4704 3366 4614 
C 3366 4429 3507 4346 3629 4346 
C 3757 4346 3898 4429 3898 4621 
z
" transform="scale(0.015625)"/>
      <path id="Cmsy10-4c" d="M 238 -141 
Q 197 -141 197 -97 
Q 197 -72 219 -38 
Q 266 38 359 130 
Q 453 222 494 275 
Q 656 509 750 691 
Q 913 1028 1031 1466 
Q 1206 2163 1348 2597 
Q 1491 3031 1722 3419 
Q 1903 3719 2168 3967 
Q 2434 4216 2757 4364 
Q 3081 4513 3419 4513 
L 3456 4513 
Q 3622 4513 3734 4430 
Q 3847 4347 3905 4208 
Q 3963 4069 3963 3909 
Q 3963 3666 3884 3572 
Q 3663 3331 3359 3291 
L 3322 3291 
Q 3284 3291 3284 3334 
Q 3284 3341 3300 3431 
Q 3316 3522 3316 3584 
Q 3316 3791 3212 3944 
Q 3109 4097 2906 4097 
Q 2669 4097 2669 4056 
Q 2494 3934 2333 3651 
Q 2172 3369 2051 3039 
Q 1931 2709 1837 2376 
Q 1744 2044 1672 1753 
Q 1594 1438 1470 1148 
Q 1347 859 1178 603 
Q 1253 628 1363 628 
L 1403 628 
Q 1625 628 1847 583 
Q 2069 538 2378 450 
Q 2688 363 2894 320 
Q 3100 278 3328 275 
Q 3397 275 3440 337 
Q 3484 400 3526 511 
Q 3569 622 3597 659 
Q 3694 766 3834 844 
Q 3975 922 4116 941 
L 4153 941 
Q 4172 941 4184 928 
Q 4197 916 4197 897 
Q 4197 897 4191 878 
Q 4128 628 3897 386 
Q 3666 144 3370 1 
Q 3075 -141 2828 -141 
L 2791 -141 
Q 2569 -141 2356 -100 
Q 2144 -59 1834 28 
Q 1525 116 1304 162 
Q 1084 209 863 213 
Q 578 -100 275 -141 
L 238 -141 
z
" transform="scale(0.015625)"/>
      <path id="Cmr10-64" d="M 1563 -72 
Q 1184 -72 871 133 
Q 559 338 386 672 
Q 213 1006 213 1381 
Q 213 1769 402 2101 
Q 591 2434 916 2631 
Q 1241 2828 1631 2828 
Q 1866 2828 2075 2729 
Q 2284 2631 2438 2456 
L 2438 3788 
Q 2438 3959 2386 4036 
Q 2334 4113 2239 4130 
Q 2144 4147 1941 4147 
L 1941 4372 
L 2888 4441 
L 2888 581 
Q 2888 413 2939 336 
Q 2991 259 3086 242 
Q 3181 225 3384 225 
L 3384 0 
L 2419 -72 
L 2419 331 
Q 2253 141 2025 34 
Q 1797 -72 1563 -72 
z
M 909 556 
Q 1019 347 1201 222 
Q 1384 97 1600 97 
Q 1866 97 2087 250 
Q 2309 403 2419 647 
L 2419 2181 
Q 2344 2322 2230 2433 
Q 2116 2544 1973 2603 
Q 1831 2663 1672 2663 
Q 1338 2663 1134 2473 
Q 931 2284 850 1990 
Q 769 1697 769 1375 
Q 769 1119 795 928 
Q 822 738 909 556 
z
" transform="scale(0.015625)"/>
      <path id="Cmr10-74" d="M 653 769 
L 653 2534 
L 122 2534 
L 122 2700 
Q 541 2700 737 3090 
Q 934 3481 934 3938 
L 1119 3938 
L 1119 2759 
L 2022 2759 
L 2022 2534 
L 1119 2534 
L 1119 781 
Q 1119 516 1208 316 
Q 1297 116 1528 116 
Q 1747 116 1844 327 
Q 1941 538 1941 781 
L 1941 1159 
L 2125 1159 
L 2125 769 
Q 2125 569 2051 373 
Q 1978 178 1834 53 
Q 1691 -72 1484 -72 
Q 1100 -72 876 158 
Q 653 388 653 769 
z
" transform="scale(0.015625)"/>
      <path id="LatinModernMath-Regular-3d" d="M 4621 2221 
C 4621 2291 4563 2349 4493 2349 
L 486 2349 
C 416 2349 358 2291 358 2221 
C 358 2150 416 2093 486 2093 
L 4493 2093 
C 4563 2093 4621 2150 4621 2221 
z
M 4621 979 
C 4621 1050 4563 1107 4493 1107 
L 486 1107 
C 416 1107 358 1050 358 979 
C 358 909 416 851 486 851 
L 4493 851 
C 4563 851 4621 909 4621 979 
z
" transform="scale(0.015625)"/>
      <path id="LatinModernMath-Regular-28" d="M 2125 -1523 
C 2125 -1504 2112 -1485 2099 -1472 
C 1434 -973 992 307 992 1331 
L 992 1869 
C 992 2893 1434 4173 2099 4672 
C 2112 4685 2125 4704 2125 4723 
C 2125 4755 2093 4787 2061 4787 
C 2048 4787 2035 4781 2022 4774 
C 1318 4243 646 2963 646 1869 
L 646 1331 
C 646 237 1318 -1043 2022 -1574 
C 2035 -1581 2048 -1587 2061 -1587 
C 2093 -1587 2125 -1555 2125 -1523 
z
" transform="scale(0.015625)"/>
      <path id="LatinModernMath-Regular-31" d="M 2682 0 
L 2682 198 
L 2477 198 
C 1901 198 1882 269 1882 506 
L 1882 4096 
C 1882 4250 1882 4262 1734 4262 
C 1338 3853 774 3853 570 3853 
L 570 3654 
C 698 3654 1075 3654 1408 3821 
L 1408 506 
C 1408 275 1389 198 813 198 
L 608 198 
L 608 0 
C 832 19 1389 19 1645 19 
C 1901 19 2458 19 2682 0 
z
" transform="scale(0.015625)"/>
      <path id="LatinModernMath-Regular-2b" d="M 4621 1600 
C 4621 1670 4563 1728 4493 1728 
L 2618 1728 
L 2618 3603 
C 2618 3674 2560 3731 2490 3731 
C 2419 3731 2362 3674 2362 3603 
L 2362 1728 
L 486 1728 
C 416 1728 358 1670 358 1600 
C 358 1530 416 1472 486 1472 
L 2362 1472 
L 2362 -403 
C 2362 -474 2419 -531 2490 -531 
C 2560 -531 2618 -474 2618 -403 
L 2618 1472 
L 4493 1472 
C 4563 1472 4621 1530 4621 1600 
z
" transform="scale(0.015625)"/>
      <path id="LatinModernMath-Regular-2e" d="M 1229 339 
C 1229 525 1075 678 890 678 
C 704 678 550 525 550 339 
C 550 154 704 0 890 0 
C 1075 0 1229 154 1229 339 
z
" transform="scale(0.015625)"/>
      <path id="LatinModernMath-Regular-37" d="M 3104 4122 
L 1549 4122 
C 768 4122 755 4205 730 4326 
L 570 4326 
L 358 3008 
L 518 3008 
C 538 3110 595 3514 678 3590 
C 723 3629 1222 3629 1306 3629 
L 2630 3629 
L 1914 2618 
C 1338 1754 1126 864 1126 211 
C 1126 147 1126 -141 1421 -141 
C 1715 -141 1715 147 1715 211 
L 1715 538 
C 1715 890 1734 1242 1786 1587 
C 1811 1734 1901 2285 2182 2682 
L 3046 3898 
C 3104 3974 3104 3987 3104 4122 
z
" transform="scale(0.015625)"/>
      <path id="LatinModernMath-Regular-29" d="M 1843 1331 
L 1843 1869 
C 1843 2963 1171 4243 467 4774 
C 454 4781 442 4787 429 4787 
C 397 4787 365 4755 365 4723 
C 365 4704 378 4685 390 4672 
C 1056 4173 1498 2893 1498 1869 
L 1498 1331 
C 1498 307 1056 -973 390 -1472 
C 378 -1485 365 -1504 365 -1523 
C 365 -1555 397 -1587 429 -1587 
C 442 -1587 454 -1581 467 -1574 
C 1171 -1043 1843 237 1843 1331 
z
" transform="scale(0.015625)"/>
      <path id="LatinModernMath-Regular-61" d="M 3091 570 
L 3091 928 
L 2931 928 
L 2931 570 
C 2931 198 2771 160 2701 160 
C 2490 160 2464 448 2464 480 
L 2464 1760 
C 2464 2029 2464 2278 2234 2515 
C 1984 2765 1664 2867 1357 2867 
C 832 2867 390 2566 390 2144 
C 390 1952 518 1843 685 1843 
C 864 1843 979 1971 979 2138 
C 979 2214 947 2426 653 2432 
C 826 2656 1139 2726 1344 2726 
C 1658 2726 2022 2477 2022 1907 
L 2022 1670 
C 1696 1651 1248 1632 845 1440 
C 365 1222 205 890 205 608 
C 205 90 826 -70 1229 -70 
C 1651 -70 1946 186 2067 486 
C 2093 230 2266 -38 2566 -38 
C 2701 -38 3091 51 3091 570 
z
M 2022 896 
C 2022 288 1562 70 1274 70 
C 960 70 698 294 698 614 
C 698 966 966 1498 2022 1536 
L 2022 896 
z
" transform="scale(0.015625)"/>
      <path id="LatinModernMath-Regular-62" d="M 3334 1382 
C 3334 2195 2707 2829 1978 2829 
C 1478 2829 1203 2528 1101 2413 
L 1101 4442 
L 179 4371 
L 179 4173 
C 627 4173 678 4128 678 3814 
L 678 0 
L 838 0 
L 1069 397 
C 1165 250 1434 -70 1907 -70 
C 2669 -70 3334 557 3334 1382 
z
M 2803 1389 
C 2803 1152 2790 768 2605 480 
C 2470 282 2227 70 1882 70 
C 1594 70 1363 224 1210 461 
C 1120 595 1120 614 1120 730 
L 1120 2048 
C 1120 2170 1120 2176 1190 2278 
C 1440 2637 1792 2688 1946 2688 
C 2234 2688 2464 2522 2618 2278 
C 2784 2016 2803 1651 2803 1389 
z
" transform="scale(0.015625)"/>
      <path id="LatinModernMath-Regular-2212" d="M 4621 1600 
C 4621 1670 4563 1728 4493 1728 
L 486 1728 
C 416 1728 358 1670 358 1600 
C 358 1530 416 1472 486 1472 
L 4493 1472 
C 4563 1472 4621 1530 4621 1600 
z
" transform="scale(0.015625)"/>
     </defs>
     <use xlink:href="#Cmb10-42" transform="translate(0 0.5)"/>
     <use xlink:href="#Cmb10-65" transform="translate(71.09375 0.5)"/>
     <use xlink:href="#Cmb10-61" transform="translate(117.675781 0.5)"/>
     <use xlink:href="#Cmb10-73" transform="translate(166.259766 0.5)"/>
     <use xlink:href="#Cmb10-74" transform="translate(205.664062 0.5)"/>
     <use xlink:href="#Cmb10-49" transform="translate(273.942643 0.5)"/>
     <use xlink:href="#Cmb10-49" transform="translate(313.639908 0.5)"/>
     <use xlink:href="#Cmb10-49" transform="translate(353.337174 0.5)"/>
     <use xlink:href="#LatinModernMath-Regular-20" transform="translate(393.034439 0.5)"/>
     <use xlink:href="#LatinModernMath-Regular-222b" transform="translate(426.234436 0.5)"/>
     <use xlink:href="#Cmsy10-4c" transform="translate(507.366875 0.5)"/>
     <use xlink:href="#Cmr10-64" transform="translate(590.895814 0.5)"/>
     <use xlink:href="#Cmr10-74" transform="translate(646.413392 0.5)"/>
     <use xlink:href="#LatinModernMath-Regular-3d" transform="translate(702.790345 0.5)"/>
     <use xlink:href="#LatinModernMath-Regular-28" transform="translate(798.148927 0.5)"/>
     <use xlink:href="#LatinModernMath-Regular-31" transform="translate(837.04892 0.5)"/>
     <use xlink:href="#LatinModernMath-Regular-2b" transform="translate(904.607499 0.5)"/>
     <use xlink:href="#LatinModernMath-Regular-30" transform="translate(999.96608 0.5)"/>
     <use xlink:href="#LatinModernMath-Regular-2e" transform="translate(1049.966065 0.5)"/>
     <use xlink:href="#LatinModernMath-Regular-37" transform="translate(1077.766053 0.5)"/>
     <use xlink:href="#LatinModernMath-Regular-34" transform="translate(1127.766038 0.5)"/>
     <use xlink:href="#LatinModernMath-Regular-29" transform="translate(1177.766022 0.5)"/>
     <use xlink:href="#LatinModernMath-Regular-61" transform="translate(1231.29847 0.5)"/>
     <use xlink:href="#LatinModernMath-Regular-62" transform="translate(1281.298455 0.5)"/>
     <use xlink:href="#LatinModernMath-Regular-2212" transform="translate(1337.652587 30.665625) scale(0.7)"/>
     <use xlink:href="#LatinModernMath-Regular-31" transform="translate(1392.112578 30.665625) scale(0.7)"/>
    </g>
   </g>
   <g id="legend_1">
    <g id="patch_60">
     <path d="M 290.99375 41.902884 
L 314.99375 41.902884 
L 314.99375 33.502884 
L 290.99375 33.502884 
z
" style="fill: #b1dcc2; stroke: #000000; stroke-width: 0.5; stroke-linejoin: miter"/>
    </g>
    <g id="text_8">
     <!-- c2 -->
     <g style="fill: #1a1a1a" transform="translate(324.59375 41.902884) scale(0.12 -0.12)">
      <defs>
       <path id="LatinModernMath-Regular-63" d="M 2656 762 
C 2656 826 2592 826 2573 826 
C 2515 826 2502 800 2490 762 
C 2304 166 1888 90 1651 90 
C 1312 90 749 365 749 1395 
C 749 2438 1274 2707 1613 2707 
C 1670 2707 2074 2701 2298 2470 
C 2035 2451 1997 2259 1997 2176 
C 1997 2010 2112 1882 2291 1882 
C 2458 1882 2586 1990 2586 2182 
C 2586 2618 2099 2867 1606 2867 
C 806 2867 218 2176 218 1382 
C 218 563 851 -70 1594 -70 
C 2451 -70 2656 698 2656 762 
z
" transform="scale(0.015625)"/>
      </defs>
      <use xlink:href="#LatinModernMath-Regular-63"/>
      <use xlink:href="#LatinModernMath-Regular-32" x="44.399994"/>
     </g>
    </g>
    <g id="patch_61">
     <path d="M 290.99375 58.631634 
L 314.99375 58.631634 
L 314.99375 50.231634 
L 290.99375 50.231634 
z
" style="fill: #b67b76; stroke: #000000; stroke-width: 0.5; stroke-linejoin: miter"/>
    </g>
    <g id="text_9">
     <!-- c1 -->
     <g style="fill: #1a1a1a" transform="translate(324.59375 58.631634) scale(0.12 -0.12)">
      <use xlink:href="#LatinModernMath-Regular-63"/>
      <use xlink:href="#LatinModernMath-Regular-31" x="44.399994"/>
     </g>
    </g>
    <g id="patch_62">
     <path d="M 290.99375 75.360384 
L 314.99375 75.360384 
L 314.99375 66.960384 
L 290.99375 66.960384 
z
" style="fill: #3d4c74; stroke: #000000; stroke-width: 0.5; stroke-linejoin: miter"/>
    </g>
    <g id="text_10">
     <!-- c0 -->
     <g style="fill: #1a1a1a" transform="translate(324.59375 75.360384) scale(0.12 -0.12)">
      <use xlink:href="#LatinModernMath-Regular-63"/>
      <use xlink:href="#LatinModernMath-Regular-30" x="44.399994"/>
     </g>
    </g>
    <g id="LineCollection_2">
     <path d="M 302.99375 93.889134 
L 302.99375 81.889134 
" style="fill: none; stroke: #000000; stroke-width: 1.5"/>
    </g>
    <g id="line2d_43"/>
    <g id="line2d_44">
     <g>
      <use xlink:href="#meae5c0c399" x="302.99375" y="87.889134" style="stroke: #000000"/>
     </g>
    </g>
    <g id="text_11">
     <!-- Data -->
     <g style="fill: #1a1a1a" transform="translate(324.59375 92.089134) scale(0.12 -0.12)">
      <defs>
       <path id="LatinModernMath-Regular-44" d="M 4525 2150 
C 4525 3366 3661 4371 2566 4371 
L 224 4371 
L 224 4173 
L 378 4173 
C 870 4173 883 4102 883 3872 
L 883 499 
C 883 269 870 198 378 198 
L 224 198 
L 224 0 
L 2566 0 
C 3642 0 4525 947 4525 2150 
z
M 3885 2150 
C 3885 1440 3763 1056 3533 742 
C 3405 570 3040 198 2394 198 
L 1747 198 
C 1446 198 1434 243 1434 454 
L 1434 3917 
C 1434 4128 1446 4173 1747 4173 
L 2387 4173 
C 2784 4173 3226 4032 3552 3578 
C 3827 3200 3885 2650 3885 2150 
z
" transform="scale(0.015625)"/>
      </defs>
      <use xlink:href="#LatinModernMath-Regular-44"/>
      <use xlink:href="#LatinModernMath-Regular-61" x="76.399994"/>
      <use xlink:href="#LatinModernMath-Regular-74" x="126.399979"/>
      <use xlink:href="#LatinModernMath-Regular-61" x="165.299973"/>
     </g>
    </g>
    <g id="patch_63">
     <path d="M 290.99375 108.817884 
L 314.99375 108.817884 
L 314.99375 100.417884 
L 290.99375 100.417884 
z
" style="fill: url(#hcddca885b2)"/>
    </g>
    <g id="text_12">
     <!-- MC stat. unc. -->
     <g style="fill: #1a1a1a" transform="translate(324.59375 108.817884) scale(0.12 -0.12)">
      <defs>
       <path id="LatinModernMath-Regular-4d" d="M 5626 0 
L 5626 198 
L 5472 198 
C 4979 198 4966 269 4966 499 
L 4966 3872 
C 4966 4102 4979 4173 5472 4173 
L 5626 4173 
L 5626 4371 
L 4544 4371 
C 4378 4371 4378 4365 4333 4250 
L 2931 646 
L 1542 4230 
C 1485 4371 1466 4371 1318 4371 
L 237 4371 
L 237 4173 
L 390 4173 
C 883 4173 896 4102 896 3872 
L 896 672 
C 896 499 896 198 237 198 
L 237 0 
L 986 19 
L 1734 0 
L 1734 198 
C 1075 198 1075 499 1075 672 
L 1075 4122 
L 1082 4122 
L 2624 141 
C 2656 58 2688 0 2752 0 
C 2822 0 2842 51 2867 122 
L 4442 4173 
L 4448 4173 
L 4448 499 
C 4448 269 4435 198 3942 198 
L 3789 198 
L 3789 0 
C 4026 19 4461 19 4710 19 
C 4960 19 5389 19 5626 0 
z
" transform="scale(0.015625)"/>
       <path id="LatinModernMath-Regular-43" d="M 4256 1491 
C 4256 1555 4256 1600 4173 1600 
C 4102 1600 4102 1562 4096 1498 
C 4045 582 3360 58 2662 58 
C 2272 58 1018 275 1018 2182 
C 1018 4096 2266 4314 2656 4314 
C 3354 4314 3923 3731 4051 2797 
C 4064 2707 4064 2688 4154 2688 
C 4256 2688 4256 2707 4256 2842 
L 4256 4358 
C 4256 4467 4256 4512 4186 4512 
C 4160 4512 4134 4512 4083 4435 
L 3763 3962 
C 3526 4192 3200 4512 2586 4512 
C 1389 4512 358 3494 358 2189 
C 358 864 1395 -141 2586 -141 
C 3629 -141 4256 749 4256 1491 
z
" transform="scale(0.015625)"/>
       <path id="LatinModernMath-Regular-75" d="M 3424 0 
L 3424 198 
C 2976 198 2925 243 2925 557 
L 2925 2829 
L 1984 2758 
L 1984 2560 
C 2432 2560 2483 2515 2483 2202 
L 2483 1062 
C 2483 506 2176 70 1709 70 
C 1171 70 1146 371 1146 704 
L 1146 2829 
L 205 2758 
L 205 2560 
C 704 2560 704 2541 704 1971 
L 704 1011 
C 704 512 704 -70 1677 -70 
C 2035 -70 2317 109 2502 506 
L 2502 -70 
L 3424 0 
z
" transform="scale(0.015625)"/>
      </defs>
      <use xlink:href="#LatinModernMath-Regular-4d"/>
      <use xlink:href="#LatinModernMath-Regular-43" x="91.699982"/>
      <use xlink:href="#LatinModernMath-Regular-20" x="163.899963"/>
      <use xlink:href="#LatinModernMath-Regular-73" x="197.09996"/>
      <use xlink:href="#LatinModernMath-Regular-74" x="236.499954"/>
      <use xlink:href="#LatinModernMath-Regular-61" x="275.399948"/>
      <use xlink:href="#LatinModernMath-Regular-74" x="325.399933"/>
      <use xlink:href="#LatinModernMath-Regular-2e" x="364.299927"/>
      <use xlink:href="#LatinModernMath-Regular-20" x="392.099915"/>
      <use xlink:href="#LatinModernMath-Regular-75" x="425.299911"/>
      <use xlink:href="#LatinModernMath-Regular-6e" x="480.899902"/>
      <use xlink:href="#LatinModernMath-Regular-63" x="536.499893"/>
      <use xlink:href="#LatinModernMath-Regular-2e" x="580.899887"/>
     </g>
    </g>
   </g>
  </g>
  <g id="axes_2">
   <g id="patch_64">
    <path d="M 73.64 299.902884 
L 408.44 299.902884 
L 408.44 248.330791 
L 73.64 248.330791 
z
" style="fill: #ffffff"/>
   </g>
   <g id="patch_65">
    <path d="M 73.64 274.116837 
L 73.64 270.259306 
L 80.336 270.259306 
L 80.336 270.467603 
L 87.032 270.467603 
L 87.032 273.19714 
L 93.728 273.19714 
L 93.728 269.278047 
L 100.424 269.278047 
L 100.424 268.891255 
L 107.12 268.891255 
L 107.12 258.641657 
L 113.816 258.641657 
L 113.816 258.430204 
L 120.512 258.430204 
L 120.512 261.71837 
L 127.208 261.71837 
L 127.208 260.324562 
L 133.904 260.324562 
L 133.904 246.245871 
L 140.6 246.245871 
L 140.6 264.682346 
L 147.296 264.682346 
L 147.296 254.713325 
L 153.992 254.713325 
L 153.992 245.005357 
L 160.688 245.005357 
L 160.688 249.803174 
L 167.384 249.803174 
L 167.384 242.676693 
L 174.08 242.676693 
L 174.08 249.571063 
L 180.776 249.571063 
L 180.776 251.55331 
L 187.472 251.55331 
L 187.472 245.921241 
L 194.168 245.921241 
L 194.168 246.010343 
L 200.864 246.010343 
L 200.864 247.215026 
L 207.56 247.215026 
L 207.56 266.320925 
L 214.256 266.320925 
L 214.256 277.614483 
L 220.952 277.614483 
L 220.952 279.006012 
L 227.648 279.006012 
L 227.648 292.418539 
L 234.344 292.418539 
L 234.344 321.808199 
L 241.04 321.808199 
L 241.04 327.668912 
L 247.736 327.668912 
L 247.736 323.61219 
L 254.432 323.61219 
L 254.432 323.835269 
L 261.128 323.835269 
L 261.128 329.616211 
L 267.824 329.616211 
L 267.824 320.580253 
L 274.52 320.580253 
L 274.52 327.024164 
L 281.216 327.024164 
L 281.216 303.36584 
L 287.912 303.36584 
L 287.912 297.043476 
L 294.608 297.043476 
L 294.608 284.714614 
L 301.304 284.714614 
L 301.304 283.830173 
L 308 283.830173 
L 308 279.170953 
L 314.696 279.170953 
L 314.696 272.778098 
L 321.392 272.778098 
L 321.392 275.62944 
L 328.088 275.62944 
L 328.088 275.865678 
L 334.784 275.865678 
L 334.784 276.904089 
L 341.48 276.904089 
L 341.48 279.233808 
L 348.176 279.233808 
L 348.176 275.924204 
L 354.872 275.924204 
L 354.872 267.672387 
L 361.568 267.672387 
L 361.568 275.034722 
L 368.264 275.034722 
L 368.264 274.116837 
L 374.96 274.116837 
L 374.96 275.034722 
L 381.656 275.034722 
L 381.656 275.034722 
L 388.352 275.034722 
L 388.352 274.116837 
L 395.048 274.116837 
L 395.048 274.116837 
L 401.744 274.116837 
L 401.744 274.116837 
L 408.44 274.116837 
L 408.44 274.116837 
L 401.744 274.116837 
L 401.744 274.116837 
L 395.048 274.116837 
L 395.048 274.116837 
L 388.352 274.116837 
L 388.352 274.116837 
L 381.656 274.116837 
L 381.656 274.116837 
L 374.96 274.116837 
L 374.96 274.116837 
L 368.264 274.116837 
L 368.264 274.116837 
L 361.568 274.116837 
L 361.568 274.116837 
L 354.872 274.116837 
L 354.872 274.116837 
L 348.176 274.116837 
L 348.176 274.116837 
L 341.48 274.116837 
L 341.48 274.116837 
L 334.784 274.116837 
L 334.784 274.116837 
L 328.088 274.116837 
L 328.088 274.116837 
L 321.392 274.116837 
L 321.392 274.116837 
L 314.696 274.116837 
L 314.696 274.116837 
L 308 274.116837 
L 308 274.116837 
L 301.304 274.116837 
L 301.304 274.116837 
L 294.608 274.116837 
L 294.608 274.116837 
L 287.912 274.116837 
L 287.912 274.116837 
L 281.216 274.116837 
L 281.216 274.116837 
L 274.52 274.116837 
L 274.52 274.116837 
L 267.824 274.116837 
L 267.824 274.116837 
L 261.128 274.116837 
L 261.128 274.116837 
L 254.432 274.116837 
L 254.432 274.116837 
L 247.736 274.116837 
L 247.736 274.116837 
L 241.04 274.116837 
L 241.04 274.116837 
L 234.344 274.116837 
L 234.344 274.116837 
L 227.648 274.116837 
L 227.648 274.116837 
L 220.952 274.116837 
L 220.952 274.116837 
L 214.256 274.116837 
L 214.256 274.116837 
L 207.56 274.116837 
L 207.56 274.116837 
L 200.864 274.116837 
L 200.864 274.116837 
L 194.168 274.116837 
L 194.168 274.116837 
L 187.472 274.116837 
L 187.472 274.116837 
L 180.776 274.116837 
L 180.776 274.116837 
L 174.08 274.116837 
L 174.08 274.116837 
L 167.384 274.116837 
L 167.384 274.116837 
L 160.688 274.116837 
L 160.688 274.116837 
L 153.992 274.116837 
L 153.992 274.116837 
L 147.296 274.116837 
L 147.296 274.116837 
L 140.6 274.116837 
L 140.6 274.116837 
L 133.904 274.116837 
L 133.904 274.116837 
L 127.208 274.116837 
L 127.208 274.116837 
L 120.512 274.116837 
L 120.512 274.116837 
L 113.816 274.116837 
L 113.816 274.116837 
L 107.12 274.116837 
L 107.12 274.116837 
L 100.424 274.116837 
L 100.424 274.116837 
L 93.728 274.116837 
L 93.728 274.116837 
L 87.032 274.116837 
L 87.032 274.116837 
L 80.336 274.116837 
L 80.336 274.116837 
z
" clip-path="url(#pcbdffcbf6a)" style="fill: #a9a9a9"/>
   </g>
   <g id="line2d_45">
    <path d="M 73.64 274.116837 
L 408.44 274.116837 
" clip-path="url(#pcbdffcbf6a)" style="fill: none; stroke-dasharray: 3.7,1.6; stroke-dashoffset: 0; stroke: #000000"/>
   </g>
   <g id="patch_66">
    <path d="M 73.64 299.902884 
L 73.64 248.330791 
" style="fill: none; stroke: #000000; stroke-linejoin: miter; stroke-linecap: square"/>
   </g>
   <g id="patch_67">
    <path d="M 408.44 299.902884 
L 408.44 248.330791 
" style="fill: none; stroke: #000000; stroke-linejoin: miter; stroke-linecap: square"/>
   </g>
   <g id="patch_68">
    <path d="M 73.64 299.902884 
L 408.44 299.902884 
" style="fill: none; stroke: #000000; stroke-linejoin: miter; stroke-linecap: square"/>
   </g>
   <g id="patch_69">
    <path d="M 73.64 248.330791 
L 408.44 248.330791 
" style="fill: none; stroke: #000000; stroke-linejoin: miter; stroke-linecap: square"/>
   </g>
   <g id="matplotlib.axis_3">
    <g id="xtick_22">
     <g id="line2d_46">
      <g>
       <use xlink:href="#m8dec1b3d1d" x="137.411429" y="299.902884" style="fill: #1a1a1a; stroke: #1a1a1a; stroke-width: 0.8"/>
      </g>
     </g>
     <g id="text_13">
      <!-- $\mathdefault{−5}$ -->
      <g style="fill: #1a1a1a" transform="translate(127.811429 318.313821) scale(0.15 -0.15)">
       <defs>
        <path id="LatinModernMath-Regular-35" d="M 2874 1286 
C 2874 2048 2349 2688 1658 2688 
C 1350 2688 1075 2586 845 2362 
L 845 3610 
C 973 3571 1184 3526 1389 3526 
C 2176 3526 2624 4109 2624 4192 
C 2624 4230 2605 4262 2560 4262 
C 2560 4262 2541 4262 2509 4243 
C 2381 4186 2067 4058 1638 4058 
C 1382 4058 1088 4102 787 4237 
C 736 4256 710 4256 710 4256 
C 646 4256 646 4205 646 4102 
L 646 2208 
C 646 2093 646 2042 736 2042 
C 781 2042 794 2061 819 2099 
C 890 2202 1126 2547 1645 2547 
C 1978 2547 2138 2253 2189 2138 
C 2291 1901 2304 1651 2304 1331 
C 2304 1107 2304 723 2150 454 
C 1997 205 1760 38 1466 38 
C 998 38 634 378 525 755 
C 544 749 563 742 634 742 
C 845 742 954 902 954 1056 
C 954 1210 845 1370 634 1370 
C 544 1370 320 1325 320 1030 
C 320 480 762 -141 1478 -141 
C 2221 -141 2874 474 2874 1286 
z
" transform="scale(0.015625)"/>
       </defs>
       <use xlink:href="#LatinModernMath-Regular-2212" transform="translate(0 0.40625)"/>
       <use xlink:href="#LatinModernMath-Regular-35" transform="translate(77.799988 0.40625)"/>
      </g>
     </g>
    </g>
    <g id="xtick_23">
     <g id="line2d_47">
      <g>
       <use xlink:href="#m8dec1b3d1d" x="217.125714" y="299.902884" style="fill: #1a1a1a; stroke: #1a1a1a; stroke-width: 0.8"/>
      </g>
     </g>
     <g id="text_14">
      <!-- $\mathdefault{0}$ -->
      <g style="fill: #1a1a1a" transform="translate(213.375714 318.313821) scale(0.15 -0.15)">
       <use xlink:href="#LatinModernMath-Regular-30" transform="translate(0 0.40625)"/>
      </g>
     </g>
    </g>
    <g id="xtick_24">
     <g id="line2d_48">
      <g>
       <use xlink:href="#m8dec1b3d1d" x="296.84" y="299.902884" style="fill: #1a1a1a; stroke: #1a1a1a; stroke-width: 0.8"/>
      </g>
     </g>
     <g id="text_15">
      <!-- $\mathdefault{5}$ -->
      <g style="fill: #1a1a1a" transform="translate(293.09 318.313821) scale(0.15 -0.15)">
       <use xlink:href="#LatinModernMath-Regular-35" transform="translate(0 0.40625)"/>
      </g>
     </g>
    </g>
    <g id="xtick_25">
     <g id="line2d_49">
      <g>
       <use xlink:href="#m8dec1b3d1d" x="376.554286" y="299.902884" style="fill: #1a1a1a; stroke: #1a1a1a; stroke-width: 0.8"/>
      </g>
     </g>
     <g id="text_16">
      <!-- $\mathdefault{10}$ -->
      <g style="fill: #1a1a1a" transform="translate(369.054286 318.313821) scale(0.15 -0.15)">
       <use xlink:href="#LatinModernMath-Regular-31" transform="translate(0 0.40625)"/>
       <use xlink:href="#LatinModernMath-Regular-30" transform="translate(49.999985 0.40625)"/>
      </g>
     </g>
    </g>
    <g id="xtick_26">
     <g id="line2d_50">
      <g>
       <use xlink:href="#m131efc0c90" x="89.582857" y="299.902884" style="fill: #1a1a1a; stroke: #1a1a1a; stroke-width: 0.6"/>
      </g>
     </g>
    </g>
    <g id="xtick_27">
     <g id="line2d_51">
      <g>
       <use xlink:href="#m131efc0c90" x="105.525714" y="299.902884" style="fill: #1a1a1a; stroke: #1a1a1a; stroke-width: 0.6"/>
      </g>
     </g>
    </g>
    <g id="xtick_28">
     <g id="line2d_52">
      <g>
       <use xlink:href="#m131efc0c90" x="121.468571" y="299.902884" style="fill: #1a1a1a; stroke: #1a1a1a; stroke-width: 0.6"/>
      </g>
     </g>
    </g>
    <g id="xtick_29">
     <g id="line2d_53">
      <g>
       <use xlink:href="#m131efc0c90" x="153.354286" y="299.902884" style="fill: #1a1a1a; stroke: #1a1a1a; stroke-width: 0.6"/>
      </g>
     </g>
    </g>
    <g id="xtick_30">
     <g id="line2d_54">
      <g>
       <use xlink:href="#m131efc0c90" x="169.297143" y="299.902884" style="fill: #1a1a1a; stroke: #1a1a1a; stroke-width: 0.6"/>
      </g>
     </g>
    </g>
    <g id="xtick_31">
     <g id="line2d_55">
      <g>
       <use xlink:href="#m131efc0c90" x="185.24" y="299.902884" style="fill: #1a1a1a; stroke: #1a1a1a; stroke-width: 0.6"/>
      </g>
     </g>
    </g>
    <g id="xtick_32">
     <g id="line2d_56">
      <g>
       <use xlink:href="#m131efc0c90" x="201.182857" y="299.902884" style="fill: #1a1a1a; stroke: #1a1a1a; stroke-width: 0.6"/>
      </g>
     </g>
    </g>
    <g id="xtick_33">
     <g id="line2d_57">
      <g>
       <use xlink:href="#m131efc0c90" x="233.068571" y="299.902884" style="fill: #1a1a1a; stroke: #1a1a1a; stroke-width: 0.6"/>
      </g>
     </g>
    </g>
    <g id="xtick_34">
     <g id="line2d_58">
      <g>
       <use xlink:href="#m131efc0c90" x="249.011429" y="299.902884" style="fill: #1a1a1a; stroke: #1a1a1a; stroke-width: 0.6"/>
      </g>
     </g>
    </g>
    <g id="xtick_35">
     <g id="line2d_59">
      <g>
       <use xlink:href="#m131efc0c90" x="264.954286" y="299.902884" style="fill: #1a1a1a; stroke: #1a1a1a; stroke-width: 0.6"/>
      </g>
     </g>
    </g>
    <g id="xtick_36">
     <g id="line2d_60">
      <g>
       <use xlink:href="#m131efc0c90" x="280.897143" y="299.902884" style="fill: #1a1a1a; stroke: #1a1a1a; stroke-width: 0.6"/>
      </g>
     </g>
    </g>
    <g id="xtick_37">
     <g id="line2d_61">
      <g>
       <use xlink:href="#m131efc0c90" x="312.782857" y="299.902884" style="fill: #1a1a1a; stroke: #1a1a1a; stroke-width: 0.6"/>
      </g>
     </g>
    </g>
    <g id="xtick_38">
     <g id="line2d_62">
      <g>
       <use xlink:href="#m131efc0c90" x="328.725714" y="299.902884" style="fill: #1a1a1a; stroke: #1a1a1a; stroke-width: 0.6"/>
      </g>
     </g>
    </g>
    <g id="xtick_39">
     <g id="line2d_63">
      <g>
       <use xlink:href="#m131efc0c90" x="344.668571" y="299.902884" style="fill: #1a1a1a; stroke: #1a1a1a; stroke-width: 0.6"/>
      </g>
     </g>
    </g>
    <g id="xtick_40">
     <g id="line2d_64">
      <g>
       <use xlink:href="#m131efc0c90" x="360.611429" y="299.902884" style="fill: #1a1a1a; stroke: #1a1a1a; stroke-width: 0.6"/>
      </g>
     </g>
    </g>
    <g id="xtick_41">
     <g id="line2d_65">
      <g>
       <use xlink:href="#m131efc0c90" x="392.497143" y="299.902884" style="fill: #1a1a1a; stroke: #1a1a1a; stroke-width: 0.6"/>
      </g>
     </g>
    </g>
    <g id="xtick_42">
     <g id="line2d_66">
      <g>
       <use xlink:href="#m131efc0c90" x="408.44" y="299.902884" style="fill: #1a1a1a; stroke: #1a1a1a; stroke-width: 0.6"/>
      </g>
     </g>
    </g>
    <g id="text_17">
     <!-- variable_1 -->
     <g style="fill: #1a1a1a" transform="translate(202.259844 339.717884) scale(0.18 -0.18)">
      <defs>
       <path id="LatinModernMath-Regular-76" d="M 3251 2560 
L 3251 2758 
C 3104 2746 2918 2739 2771 2739 
L 2214 2758 
L 2214 2560 
C 2451 2554 2522 2406 2522 2285 
C 2522 2227 2509 2202 2483 2131 
L 1830 499 
L 1114 2285 
C 1075 2368 1075 2394 1075 2394 
C 1075 2560 1325 2560 1440 2560 
L 1440 2758 
L 742 2739 
C 570 2739 314 2746 122 2758 
L 122 2560 
C 525 2560 550 2522 634 2323 
L 1555 51 
C 1594 -38 1606 -70 1690 -70 
C 1773 -70 1798 -13 1824 51 
L 2662 2131 
C 2720 2278 2829 2554 3251 2560 
z
" transform="scale(0.015625)"/>
       <path id="LatinModernMath-Regular-6c" d="M 1632 0 
L 1632 198 
C 1203 198 1133 198 1133 486 
L 1133 4442 
L 211 4371 
L 211 4173 
C 659 4173 710 4128 710 3814 
L 710 486 
C 710 198 640 198 211 198 
L 211 0 
L 922 19 
L 1632 0 
z
" transform="scale(0.015625)"/>
       <path id="LatinModernMath-Regular-5f" d="M 2131 -896 
L 2131 -640 
L 0 -640 
L 0 -896 
L 2131 -896 
z
" transform="scale(0.015625)"/>
      </defs>
      <use xlink:href="#LatinModernMath-Regular-76"/>
      <use xlink:href="#LatinModernMath-Regular-61" x="52.799988"/>
      <use xlink:href="#LatinModernMath-Regular-72" x="102.799973"/>
      <use xlink:href="#LatinModernMath-Regular-69" x="141.999969"/>
      <use xlink:href="#LatinModernMath-Regular-61" x="169.799957"/>
      <use xlink:href="#LatinModernMath-Regular-62" x="219.799942"/>
      <use xlink:href="#LatinModernMath-Regular-6c" x="275.399933"/>
      <use xlink:href="#LatinModernMath-Regular-65" x="303.199921"/>
      <use xlink:href="#LatinModernMath-Regular-5f" x="347.599915"/>
      <use xlink:href="#LatinModernMath-Regular-31" x="380.899902"/>
     </g>
    </g>
   </g>
   <g id="matplotlib.axis_4">
    <g id="ytick_21">
     <g id="line2d_67">
      <g>
       <use xlink:href="#mc947610920" x="73.64" y="299.902884" style="fill: #1a1a1a; stroke: #1a1a1a; stroke-width: 0.8"/>
      </g>
     </g>
     <g id="text_18">
      <!-- $\mathdefault{−5}$ -->
      <g style="fill: #1a1a1a" transform="translate(49.44 305.108352) scale(0.15 -0.15)">
       <use xlink:href="#LatinModernMath-Regular-2212" transform="translate(0 0.40625)"/>
       <use xlink:href="#LatinModernMath-Regular-35" transform="translate(77.799988 0.40625)"/>
      </g>
     </g>
    </g>
    <g id="ytick_22">
     <g id="line2d_68">
      <g>
       <use xlink:href="#mc947610920" x="73.64" y="274.116837" style="fill: #1a1a1a; stroke: #1a1a1a; stroke-width: 0.8"/>
      </g>
     </g>
     <g id="text_19">
      <!-- $\mathdefault{0}$ -->
      <g style="fill: #1a1a1a" transform="translate(61.14 279.322306) scale(0.15 -0.15)">
       <use xlink:href="#LatinModernMath-Regular-30" transform="translate(0 0.40625)"/>
      </g>
     </g>
    </g>
    <g id="ytick_23">
     <g id="line2d_69">
      <g>
       <use xlink:href="#mc947610920" x="73.64" y="248.330791" style="fill: #1a1a1a; stroke: #1a1a1a; stroke-width: 0.8"/>
      </g>
     </g>
     <g id="text_20">
      <!-- $\mathdefault{5}$ -->
      <g style="fill: #1a1a1a" transform="translate(61.14 253.536259) scale(0.15 -0.15)">
       <use xlink:href="#LatinModernMath-Regular-35" transform="translate(0 0.40625)"/>
      </g>
     </g>
    </g>
    <g id="ytick_24">
     <g id="line2d_70">
      <g>
       <use xlink:href="#m5f9d1e6504" x="73.64" y="294.745674" style="fill: #1a1a1a; stroke: #1a1a1a; stroke-width: 0.6"/>
      </g>
     </g>
    </g>
    <g id="ytick_25">
     <g id="line2d_71">
      <g>
       <use xlink:href="#m5f9d1e6504" x="73.64" y="289.588465" style="fill: #1a1a1a; stroke: #1a1a1a; stroke-width: 0.6"/>
      </g>
     </g>
    </g>
    <g id="ytick_26">
     <g id="line2d_72">
      <g>
       <use xlink:href="#m5f9d1e6504" x="73.64" y="284.431256" style="fill: #1a1a1a; stroke: #1a1a1a; stroke-width: 0.6"/>
      </g>
     </g>
    </g>
    <g id="ytick_27">
     <g id="line2d_73">
      <g>
       <use xlink:href="#m5f9d1e6504" x="73.64" y="279.274047" style="fill: #1a1a1a; stroke: #1a1a1a; stroke-width: 0.6"/>
      </g>
     </g>
    </g>
    <g id="ytick_28">
     <g id="line2d_74">
      <g>
       <use xlink:href="#m5f9d1e6504" x="73.64" y="268.959628" style="fill: #1a1a1a; stroke: #1a1a1a; stroke-width: 0.6"/>
      </g>
     </g>
    </g>
    <g id="ytick_29">
     <g id="line2d_75">
      <g>
       <use xlink:href="#m5f9d1e6504" x="73.64" y="263.802419" style="fill: #1a1a1a; stroke: #1a1a1a; stroke-width: 0.6"/>
      </g>
     </g>
    </g>
    <g id="ytick_30">
     <g id="line2d_76">
      <g>
       <use xlink:href="#m5f9d1e6504" x="73.64" y="258.645209" style="fill: #1a1a1a; stroke: #1a1a1a; stroke-width: 0.6"/>
      </g>
     </g>
    </g>
    <g id="ytick_31">
     <g id="line2d_77">
      <g>
       <use xlink:href="#m5f9d1e6504" x="73.64" y="253.488" style="fill: #1a1a1a; stroke: #1a1a1a; stroke-width: 0.6"/>
      </g>
     </g>
    </g>
    <g id="text_21">
     <!-- $\frac{ Data - Pred. }{ \sqrt{\sigma^2_{Data} + \sigma^2_{Pred.}} } $ -->
     <g style="fill: #1a1a1a" transform="translate(22.86 317.406837) rotate(-90) scale(0.18 -0.18)">
      <defs>
       <path id="LatinModernMath-Regular-50" d="M 3994 3181 
C 3994 3808 3360 4371 2483 4371 
L 224 4371 
L 224 4173 
L 378 4173 
C 870 4173 883 4102 883 3872 
L 883 499 
C 883 269 870 198 378 198 
L 224 198 
L 224 0 
C 448 19 922 19 1165 19 
C 1408 19 1888 19 2112 0 
L 2112 198 
L 1958 198 
C 1466 198 1453 269 1453 499 
L 1453 2022 
L 2534 2022 
C 3302 2022 3994 2541 3994 3181 
z
M 3334 3181 
C 3334 2880 3334 2189 2317 2189 
L 1434 2189 
L 1434 3917 
C 1434 4128 1446 4173 1747 4173 
L 2317 4173 
C 3334 4173 3334 3494 3334 3181 
z
" transform="scale(0.015625)"/>
       <path id="LatinModernMath-Regular-64" d="M 3373 0 
L 3373 198 
C 2925 198 2874 243 2874 557 
L 2874 4442 
L 1952 4371 
L 1952 4173 
C 2400 4173 2451 4128 2451 3814 
L 2451 2432 
C 2266 2662 1990 2829 1645 2829 
C 890 2829 218 2202 218 1376 
C 218 563 845 -70 1574 -70 
C 1984 -70 2272 147 2432 352 
L 2432 -70 
L 3373 0 
z
M 2432 755 
C 2432 640 2432 627 2362 518 
C 2170 211 1882 70 1606 70 
C 1318 70 1088 237 934 480 
C 768 742 749 1107 749 1370 
C 749 1606 762 1990 947 2278 
C 1082 2477 1325 2688 1670 2688 
C 1894 2688 2163 2592 2362 2304 
C 2432 2195 2432 2182 2432 2067 
L 2432 755 
z
" transform="scale(0.015625)"/>
       <path id="Cmex10-71" d="M 2713 -11263 
L 1259 -6188 
L 819 -6700 
L 703 -6578 
L 1619 -5503 
L 2981 -10266 
L 6284 178 
Q 6306 256 6400 256 
Q 6453 256 6490 218 
Q 6528 181 6528 128 
L 6528 103 
L 2963 -11188 
Q 2925 -11263 2853 -11263 
L 2713 -11263 
z
" transform="scale(0.015625)"/>
       <path id="LatinModernMath-Regular-3c3" d="M 3379 2605 
C 3341 2758 3206 2758 3091 2758 
L 1632 2758 
C 666 2758 224 1702 410 941 
C 550 378 1043 -70 1626 -70 
C 2381 -70 3040 704 2790 1690 
C 2765 1798 2688 2106 2419 2387 
L 3123 2387 
C 3206 2387 3437 2387 3379 2605 
z
M 2362 1766 
C 2438 1466 2438 941 2304 614 
C 2150 237 1843 70 1594 70 
C 1280 70 966 301 851 762 
C 806 954 749 1478 883 1856 
C 1037 2298 1402 2387 1619 2387 
C 2157 2387 2310 1965 2362 1766 
z
" transform="scale(0.015625)"/>
      </defs>
      <use xlink:href="#LatinModernMath-Regular-44" transform="translate(31 38.415625) scale(0.7)"/>
      <use xlink:href="#LatinModernMath-Regular-61" transform="translate(84.479996 38.415625) scale(0.7)"/>
      <use xlink:href="#LatinModernMath-Regular-74" transform="translate(119.479985 38.415625) scale(0.7)"/>
      <use xlink:href="#LatinModernMath-Regular-61" transform="translate(146.709981 38.415625) scale(0.7)"/>
      <use xlink:href="#LatinModernMath-Regular-2212" transform="translate(194.000986 38.415625) scale(0.7)"/>
      <use xlink:href="#LatinModernMath-Regular-50" transform="translate(260.751993 38.415625) scale(0.7)"/>
      <use xlink:href="#LatinModernMath-Regular-72" transform="translate(308.421986 38.415625) scale(0.7)"/>
      <use xlink:href="#LatinModernMath-Regular-65" transform="translate(335.861984 38.415625) scale(0.7)"/>
      <use xlink:href="#LatinModernMath-Regular-64" transform="translate(366.94198 38.415625) scale(0.7)"/>
      <use xlink:href="#LatinModernMath-Regular-2e" transform="translate(405.861974 38.415625) scale(0.7)"/>
      <use xlink:href="#Cmex10-71" transform="translate(0 0.0125) scale(0.543386)"/>
      <use xlink:href="#LatinModernMath-Regular-3c3" transform="translate(63.0875 -80.282187) scale(0.7)"/>
      <use xlink:href="#LatinModernMath-Regular-32" transform="translate(105.545394 -53.149531) scale(0.49)"/>
      <use xlink:href="#LatinModernMath-Regular-44" transform="translate(105.545394 -95.365) scale(0.49)"/>
      <use xlink:href="#LatinModernMath-Regular-61" transform="translate(142.981391 -95.365) scale(0.49)"/>
      <use xlink:href="#LatinModernMath-Regular-74" transform="translate(167.481384 -95.365) scale(0.49)"/>
      <use xlink:href="#LatinModernMath-Regular-61" transform="translate(186.542381 -95.365) scale(0.49)"/>
      <use xlink:href="#LatinModernMath-Regular-2b" transform="translate(224.84167 -80.282187) scale(0.7)"/>
      <use xlink:href="#LatinModernMath-Regular-3c3" transform="translate(291.592677 -80.282187) scale(0.7)"/>
      <use xlink:href="#LatinModernMath-Regular-32" transform="translate(334.050571 -52.605937) scale(0.49)"/>
      <use xlink:href="#LatinModernMath-Regular-50" transform="translate(334.050571 -95.365) scale(0.49)"/>
      <use xlink:href="#LatinModernMath-Regular-72" transform="translate(367.419567 -95.365) scale(0.49)"/>
      <use xlink:href="#LatinModernMath-Regular-65" transform="translate(386.627565 -95.365) scale(0.49)"/>
      <use xlink:href="#LatinModernMath-Regular-64" transform="translate(408.383562 -95.365) scale(0.49)"/>
      <use xlink:href="#LatinModernMath-Regular-2e" transform="translate(435.627558 -95.365) scale(0.49)"/>
      <path d="M 0 12.65 
L 0 18.9 
L 468.111544 18.9 
L 468.111544 12.65 
L 0 12.65 
z
"/>
      <path d="M 54.3375 -2.35 
L 54.3375 2.025 
L 468.111544 2.025 
L 468.111544 -2.35 
L 54.3375 -2.35 
z
"/>
     </g>
    </g>
   </g>
  </g>
 </g>
 <defs>
  <clipPath id="p440ee2d036">
   <rect x="73.64" y="22.702884" width="334.8" height="206.288372"/>
  </clipPath>
  <clipPath id="pcbdffcbf6a">
   <rect x="73.64" y="248.330791" width="334.8" height="51.572093"/>
  </clipPath>
 </defs>
 <defs>
  <pattern id="hcddca885b2" patternUnits="userSpaceOnUse" x="0" y="0" width="72" height="72">
   <rect x="0" y="0" width="73" height="73" fill="none"/>
   <path d="M -36 36 
L 36 -36 
M -33 39 
L 39 -33 
M -30 42 
L 42 -30 
M -27 45 
L 45 -27 
M -24 48 
L 48 -24 
M -21 51 
L 51 -21 
M -18 54 
L 54 -18 
M -15 57 
L 57 -15 
M -12 60 
L 60 -12 
M -9 63 
L 63 -9 
M -6 66 
L 66 -6 
M -3 69 
L 69 -3 
M 0 72 
L 72 0 
M 3 75 
L 75 3 
M 6 78 
L 78 6 
M 9 81 
L 81 9 
M 12 84 
L 84 12 
M 15 87 
L 87 15 
M 18 90 
L 90 18 
M 21 93 
L 93 21 
M 24 96 
L 96 24 
M 27 99 
L 99 27 
M 30 102 
L 102 30 
M 33 105 
L 105 33 
M 36 108 
L 108 36 
" style="fill: #696969; stroke: #696969; stroke-width: 1.0; stroke-linecap: butt; stroke-linejoin: miter"/>
  </pattern>
 </defs>
</svg>
