<?xml version="1.0" encoding="utf-8" standalone="no"?>
<!DOCTYPE svg PUBLIC "-//W3C//DTD SVG 1.1//EN"
  "http://www.w3.org/Graphics/SVG/1.1/DTD/svg11.dtd">
<svg xmlns:xlink="http://www.w3.org/1999/xlink" width="417.68pt" height="296.208744pt" viewBox="0 0 417.68 296.208744" xmlns="http://www.w3.org/2000/svg" version="1.1">
 <metadata>
  <rdf:RDF xmlns:dc="http://purl.org/dc/elements/1.1/" xmlns:cc="http://creativecommons.org/ns#" xmlns:rdf="http://www.w3.org/1999/02/22-rdf-syntax-ns#">
   <cc:Work>
    <dc:type rdf:resource="http://purl.org/dc/dcmitype/StillImage"/>
    <dc:date>2023-07-19T12:15:14.596974</dc:date>
    <dc:format>image/svg+xml</dc:format>
    <dc:creator>
     <cc:Agent>
      <dc:title>Matplotlib v3.6.2, https://matplotlib.org/</dc:title>
     </cc:Agent>
    </dc:creator>
   </cc:Work>
  </rdf:RDF>
 </metadata>
 <defs>
  <style type="text/css">*{stroke-linejoin: round; stroke-linecap: butt}</style>
 </defs>
 <g id="figure_1">
  <g id="patch_1">
   <path d="M 0 296.208744 
L 417.68 296.208744 
L 417.68 0 
L 0 0 
z
" style="fill: #ffffff"/>
  </g>
  <g id="axes_1">
   <g id="patch_2">
    <path d="M 75.68 186.841005 
L 410.48 186.841005 
L 410.48 21.810307 
L 75.68 21.810307 
z
" style="fill: #ffffff"/>
   </g>
   <g id="patch_3">
    <path d="M 75.68 186.841005 
L 75.68 186.841005 
L 82.376 186.841005 
L 82.376 186.841005 
L 89.072 186.841005 
L 89.072 186.72656 
L 95.768 186.72656 
L 95.768 186.72656 
L 102.464 186.72656 
L 102.464 186.554894 
L 109.16 186.554894 
L 109.16 186.154339 
L 115.856 186.154339 
L 115.856 185.811007 
L 122.552 185.811007 
L 122.552 184.437676 
L 129.248 184.437676 
L 129.248 183.464901 
L 135.944 183.464901 
L 135.944 180.031575 
L 142.64 180.031575 
L 142.64 174.023254 
L 149.336 174.023254 
L 149.336 168.47271 
L 156.032 168.47271 
L 156.032 156.112736 
L 162.728 156.112736 
L 162.728 144.553872 
L 169.424 144.553872 
L 169.424 127.90224 
L 176.12 127.90224 
L 176.12 108.84728 
L 182.816 108.84728 
L 182.816 89.162877 
L 189.512 89.162877 
L 189.512 79.206232 
L 196.208 79.206232 
L 196.208 68.562921 
L 202.904 68.562921 
L 202.904 65.873482 
L 209.6 65.873482 
L 209.6 70.107918 
L 216.296 70.107918 
L 216.296 76.516793 
L 222.992 76.516793 
L 222.992 84.413443 
L 229.688 84.413443 
L 229.688 90.250097 
L 236.384 90.250097 
L 236.384 100.778964 
L 243.08 100.778964 
L 243.08 99.691744 
L 249.776 99.691744 
L 249.776 100.206743 
L 256.472 100.206743 
L 256.472 101.179519 
L 263.168 101.179519 
L 263.168 105.29951 
L 269.864 105.29951 
L 269.864 111.536719 
L 276.56 111.536719 
L 276.56 121.493365 
L 283.256 121.493365 
L 283.256 129.790569 
L 289.952 129.790569 
L 289.952 139.289438 
L 296.648 139.289438 
L 296.648 148.845529 
L 303.344 148.845529 
L 303.344 161.262725 
L 310.04 161.262725 
L 310.04 170.246595 
L 316.736 170.246595 
L 316.736 175.568251 
L 323.432 175.568251 
L 323.432 179.573798 
L 330.128 179.573798 
L 330.128 182.778235 
L 336.824 182.778235 
L 336.824 184.26601 
L 343.52 184.26601 
L 343.52 185.753785 
L 350.216 185.753785 
L 350.216 185.925451 
L 356.912 185.925451 
L 356.912 186.383228 
L 363.608 186.383228 
L 363.608 186.72656 
L 370.304 186.72656 
L 370.304 186.783783 
L 377 186.783783 
L 377 186.783783 
L 383.696 186.783783 
L 383.696 186.841005 
L 390.392 186.841005 
L 390.392 186.783783 
L 397.088 186.783783 
L 397.088 186.783783 
L 403.784 186.783783 
L 403.784 186.841005 
L 410.48 186.841005 
L 410.48 186.841005 
L 403.784 186.841005 
L 403.784 186.841005 
L 397.088 186.841005 
L 397.088 186.841005 
L 390.392 186.841005 
L 390.392 186.841005 
L 383.696 186.841005 
L 383.696 186.783783 
L 377 186.783783 
L 377 186.841005 
L 370.304 186.841005 
L 370.304 186.841005 
L 363.608 186.841005 
L 363.608 186.554894 
L 356.912 186.554894 
L 356.912 186.612116 
L 350.216 186.612116 
L 350.216 186.383228 
L 343.52 186.383228 
L 343.52 185.982673 
L 336.824 185.982673 
L 336.824 185.696563 
L 330.128 185.696563 
L 330.128 183.693789 
L 323.432 183.693789 
L 323.432 181.404905 
L 316.736 181.404905 
L 316.736 179.402131 
L 310.04 179.402131 
L 310.04 173.679921 
L 303.344 173.679921 
L 303.344 167.442712 
L 296.648 167.442712 
L 296.648 161.319947 
L 289.952 161.319947 
L 289.952 156.456069 
L 283.256 156.456069 
L 283.256 152.507744 
L 276.56 152.507744 
L 276.56 145.86998 
L 269.864 145.86998 
L 269.864 143.294985 
L 263.168 143.294985 
L 263.168 137.744442 
L 256.472 137.744442 
L 256.472 134.139449 
L 249.776 134.139449 
L 249.776 132.079454 
L 243.08 132.079454 
L 243.08 129.847792 
L 236.384 129.847792 
L 236.384 120.692255 
L 229.688 120.692255 
L 229.688 114.28338 
L 222.992 114.28338 
L 222.992 107.588394 
L 216.296 107.588394 
L 216.296 104.269512 
L 209.6 104.269512 
L 209.6 101.065075 
L 202.904 101.065075 
L 202.904 102.83896 
L 196.208 102.83896 
L 196.208 109.820056 
L 189.512 109.820056 
L 189.512 112.623939 
L 182.816 112.623939 
L 182.816 125.842244 
L 176.12 125.842244 
L 176.12 140.090548 
L 169.424 140.090548 
L 169.424 151.763856 
L 162.728 151.763856 
L 162.728 161.548836 
L 156.032 161.548836 
L 156.032 170.418262 
L 149.336 170.418262 
L 149.336 175.28214 
L 142.64 175.28214 
L 142.64 180.546573 
L 135.944 180.546573 
L 135.944 183.808233 
L 129.248 183.808233 
L 129.248 184.494898 
L 122.552 184.494898 
L 122.552 185.868229 
L 115.856 185.868229 
L 115.856 186.154339 
L 109.16 186.154339 
L 109.16 186.554894 
L 102.464 186.554894 
L 102.464 186.72656 
L 95.768 186.72656 
L 95.768 186.72656 
L 89.072 186.72656 
L 89.072 186.841005 
L 82.376 186.841005 
L 82.376 186.841005 
z
" clip-path="url(#p4a3757f549)" style="fill: #b1dcc2; stroke: #000000; stroke-width: 0.5; stroke-linejoin: miter"/>
   </g>
   <g id="patch_4">
    <path d="M 75.68 186.841005 
L 75.68 186.841005 
L 82.376 186.841005 
L 82.376 186.841005 
L 89.072 186.841005 
L 89.072 186.72656 
L 95.768 186.72656 
L 95.768 186.72656 
L 102.464 186.72656 
L 102.464 186.554894 
L 109.16 186.554894 
L 109.16 186.154339 
L 115.856 186.154339 
L 115.856 185.868229 
L 122.552 185.868229 
L 122.552 184.494898 
L 129.248 184.494898 
L 129.248 183.808233 
L 135.944 183.808233 
L 135.944 180.546573 
L 142.64 180.546573 
L 142.64 175.28214 
L 149.336 175.28214 
L 149.336 170.418262 
L 156.032 170.418262 
L 156.032 161.548836 
L 162.728 161.548836 
L 162.728 151.763856 
L 169.424 151.763856 
L 169.424 140.090548 
L 176.12 140.090548 
L 176.12 125.842244 
L 182.816 125.842244 
L 182.816 112.623939 
L 189.512 112.623939 
L 189.512 109.820056 
L 196.208 109.820056 
L 196.208 102.83896 
L 202.904 102.83896 
L 202.904 101.065075 
L 209.6 101.065075 
L 209.6 104.269512 
L 216.296 104.269512 
L 216.296 107.588394 
L 222.992 107.588394 
L 222.992 114.28338 
L 229.688 114.28338 
L 229.688 120.692255 
L 236.384 120.692255 
L 236.384 129.847792 
L 243.08 129.847792 
L 243.08 132.079454 
L 249.776 132.079454 
L 249.776 134.139449 
L 256.472 134.139449 
L 256.472 137.744442 
L 263.168 137.744442 
L 263.168 143.294985 
L 269.864 143.294985 
L 269.864 145.86998 
L 276.56 145.86998 
L 276.56 152.507744 
L 283.256 152.507744 
L 283.256 156.456069 
L 289.952 156.456069 
L 289.952 161.319947 
L 296.648 161.319947 
L 296.648 167.442712 
L 303.344 167.442712 
L 303.344 173.679921 
L 310.04 173.679921 
L 310.04 179.402131 
L 316.736 179.402131 
L 316.736 181.404905 
L 323.432 181.404905 
L 323.432 183.693789 
L 330.128 183.693789 
L 330.128 185.696563 
L 336.824 185.696563 
L 336.824 185.982673 
L 343.52 185.982673 
L 343.52 186.383228 
L 350.216 186.383228 
L 350.216 186.612116 
L 356.912 186.612116 
L 356.912 186.554894 
L 363.608 186.554894 
L 363.608 186.841005 
L 370.304 186.841005 
L 370.304 186.841005 
L 377 186.841005 
L 377 186.783783 
L 383.696 186.783783 
L 383.696 186.841005 
L 390.392 186.841005 
L 390.392 186.841005 
L 397.088 186.841005 
L 397.088 186.841005 
L 403.784 186.841005 
L 403.784 186.841005 
L 410.48 186.841005 
L 410.48 186.841005 
L 403.784 186.841005 
L 403.784 186.841005 
L 397.088 186.841005 
L 397.088 186.841005 
L 390.392 186.841005 
L 390.392 186.841005 
L 383.696 186.841005 
L 383.696 186.841005 
L 377 186.841005 
L 377 186.841005 
L 370.304 186.841005 
L 370.304 186.841005 
L 363.608 186.841005 
L 363.608 186.669338 
L 356.912 186.669338 
L 356.912 186.783783 
L 350.216 186.783783 
L 350.216 186.44045 
L 343.52 186.44045 
L 343.52 186.497672 
L 336.824 186.497672 
L 336.824 186.383228 
L 330.128 186.383228 
L 330.128 184.609343 
L 323.432 184.609343 
L 323.432 183.865455 
L 316.736 183.865455 
L 316.736 182.09157 
L 310.04 182.09157 
L 310.04 178.5438 
L 303.344 178.5438 
L 303.344 174.137698 
L 296.648 174.137698 
L 296.648 169.617152 
L 289.952 169.617152 
L 289.952 167.271046 
L 283.256 167.271046 
L 283.256 164.181052 
L 276.56 164.181052 
L 276.56 160.461616 
L 269.864 160.461616 
L 269.864 158.40162 
L 263.168 158.40162 
L 263.168 158.344398 
L 256.472 158.344398 
L 256.472 156.055514 
L 249.776 156.055514 
L 249.776 156.742179 
L 243.08 156.742179 
L 243.08 157.085512 
L 236.384 157.085512 
L 236.384 155.769404 
L 229.688 155.769404 
L 229.688 152.336077 
L 222.992 152.336077 
L 222.992 151.191635 
L 216.296 151.191635 
L 216.296 148.101642 
L 209.6 148.101642 
L 209.6 147.701087 
L 202.904 147.701087 
L 202.904 149.818305 
L 196.208 149.818305 
L 196.208 153.709408 
L 189.512 153.709408 
L 189.512 153.48052 
L 182.816 153.48052 
L 182.816 159.774951 
L 176.12 159.774951 
L 176.12 165.783271 
L 169.424 165.783271 
L 169.424 172.764368 
L 162.728 172.764368 
L 162.728 177.284914 
L 156.032 177.284914 
L 156.032 180.260463 
L 149.336 180.260463 
L 149.336 182.663791 
L 142.64 182.663791 
L 142.64 184.666565 
L 135.944 184.666565 
L 135.944 185.925451 
L 129.248 185.925451 
L 129.248 185.982673 
L 122.552 185.982673 
L 122.552 186.497672 
L 115.856 186.497672 
L 115.856 186.612116 
L 109.16 186.612116 
L 109.16 186.72656 
L 102.464 186.72656 
L 102.464 186.783783 
L 95.768 186.783783 
L 95.768 186.841005 
L 89.072 186.841005 
L 89.072 186.841005 
L 82.376 186.841005 
L 82.376 186.841005 
z
" clip-path="url(#p4a3757f549)" style="fill: #b67b76; stroke: #000000; stroke-width: 0.5; stroke-linejoin: miter"/>
   </g>
   <g id="patch_5">
    <path d="M 75.68 186.841005 
L 75.68 186.841005 
L 82.376 186.841005 
L 82.376 186.841005 
L 89.072 186.841005 
L 89.072 186.841005 
L 95.768 186.841005 
L 95.768 186.783783 
L 102.464 186.783783 
L 102.464 186.72656 
L 109.16 186.72656 
L 109.16 186.612116 
L 115.856 186.612116 
L 115.856 186.497672 
L 122.552 186.497672 
L 122.552 185.982673 
L 129.248 185.982673 
L 129.248 185.925451 
L 135.944 185.925451 
L 135.944 184.666565 
L 142.64 184.666565 
L 142.64 182.663791 
L 149.336 182.663791 
L 149.336 180.260463 
L 156.032 180.260463 
L 156.032 177.284914 
L 162.728 177.284914 
L 162.728 172.764368 
L 169.424 172.764368 
L 169.424 165.783271 
L 176.12 165.783271 
L 176.12 159.774951 
L 182.816 159.774951 
L 182.816 153.48052 
L 189.512 153.48052 
L 189.512 153.709408 
L 196.208 153.709408 
L 196.208 149.818305 
L 202.904 149.818305 
L 202.904 147.701087 
L 209.6 147.701087 
L 209.6 148.101642 
L 216.296 148.101642 
L 216.296 151.191635 
L 222.992 151.191635 
L 222.992 152.336077 
L 229.688 152.336077 
L 229.688 155.769404 
L 236.384 155.769404 
L 236.384 157.085512 
L 243.08 157.085512 
L 243.08 156.742179 
L 249.776 156.742179 
L 249.776 156.055514 
L 256.472 156.055514 
L 256.472 158.344398 
L 263.168 158.344398 
L 263.168 158.40162 
L 269.864 158.40162 
L 269.864 160.461616 
L 276.56 160.461616 
L 276.56 164.181052 
L 283.256 164.181052 
L 283.256 167.271046 
L 289.952 167.271046 
L 289.952 169.617152 
L 296.648 169.617152 
L 296.648 174.137698 
L 303.344 174.137698 
L 303.344 178.5438 
L 310.04 178.5438 
L 310.04 182.09157 
L 316.736 182.09157 
L 316.736 183.865455 
L 323.432 183.865455 
L 323.432 184.609343 
L 330.128 184.609343 
L 330.128 186.383228 
L 336.824 186.383228 
L 336.824 186.497672 
L 343.52 186.497672 
L 343.52 186.44045 
L 350.216 186.44045 
L 350.216 186.783783 
L 356.912 186.783783 
L 356.912 186.669338 
L 363.608 186.669338 
L 363.608 186.841005 
L 370.304 186.841005 
L 370.304 186.841005 
L 377 186.841005 
L 377 186.841005 
L 383.696 186.841005 
L 383.696 186.841005 
L 390.392 186.841005 
L 390.392 186.841005 
L 397.088 186.841005 
L 397.088 186.841005 
L 403.784 186.841005 
L 403.784 186.841005 
L 410.48 186.841005 
L 410.48 186.841005 
L 403.784 186.841005 
L 403.784 186.841005 
L 397.088 186.841005 
L 397.088 186.841005 
L 390.392 186.841005 
L 390.392 186.841005 
L 383.696 186.841005 
L 383.696 186.841005 
L 377 186.841005 
L 377 186.841005 
L 370.304 186.841005 
L 370.304 186.841005 
L 363.608 186.841005 
L 363.608 186.841005 
L 356.912 186.841005 
L 356.912 186.841005 
L 350.216 186.841005 
L 350.216 186.841005 
L 343.52 186.841005 
L 343.52 186.841005 
L 336.824 186.841005 
L 336.824 186.841005 
L 330.128 186.841005 
L 330.128 186.841005 
L 323.432 186.841005 
L 323.432 186.841005 
L 316.736 186.841005 
L 316.736 186.841005 
L 310.04 186.841005 
L 310.04 186.841005 
L 303.344 186.841005 
L 303.344 186.841005 
L 296.648 186.841005 
L 296.648 186.841005 
L 289.952 186.841005 
L 289.952 186.841005 
L 283.256 186.841005 
L 283.256 186.841005 
L 276.56 186.841005 
L 276.56 186.841005 
L 269.864 186.841005 
L 269.864 186.841005 
L 263.168 186.841005 
L 263.168 186.841005 
L 256.472 186.841005 
L 256.472 186.841005 
L 249.776 186.841005 
L 249.776 186.841005 
L 243.08 186.841005 
L 243.08 186.841005 
L 236.384 186.841005 
L 236.384 186.841005 
L 229.688 186.841005 
L 229.688 186.841005 
L 222.992 186.841005 
L 222.992 186.841005 
L 216.296 186.841005 
L 216.296 186.841005 
L 209.6 186.841005 
L 209.6 186.841005 
L 202.904 186.841005 
L 202.904 186.841005 
L 196.208 186.841005 
L 196.208 186.841005 
L 189.512 186.841005 
L 189.512 186.841005 
L 182.816 186.841005 
L 182.816 186.841005 
L 176.12 186.841005 
L 176.12 186.841005 
L 169.424 186.841005 
L 169.424 186.841005 
L 162.728 186.841005 
L 162.728 186.841005 
L 156.032 186.841005 
L 156.032 186.841005 
L 149.336 186.841005 
L 149.336 186.841005 
L 142.64 186.841005 
L 142.64 186.841005 
L 135.944 186.841005 
L 135.944 186.841005 
L 129.248 186.841005 
L 129.248 186.841005 
L 122.552 186.841005 
L 122.552 186.841005 
L 115.856 186.841005 
L 115.856 186.841005 
L 109.16 186.841005 
L 109.16 186.841005 
L 102.464 186.841005 
L 102.464 186.841005 
L 95.768 186.841005 
L 95.768 186.841005 
L 89.072 186.841005 
L 89.072 186.841005 
L 82.376 186.841005 
L 82.376 186.841005 
z
" clip-path="url(#p4a3757f549)" style="fill: #3d4c74; stroke: #000000; stroke-width: 0.5; stroke-linejoin: miter"/>
   </g>
   <g id="patch_6">
    <path d="M 75.68 186.841005 
L 82.376 186.841005 
L 82.376 186.841005 
L 75.68 186.841005 
z
" clip-path="url(#p4a3757f549)" style="fill: url(#h41abb06849)"/>
   </g>
   <g id="patch_7">
    <path d="M 82.376 186.841005 
L 89.072 186.841005 
L 89.072 186.841005 
L 82.376 186.841005 
z
" clip-path="url(#p4a3757f549)" style="fill: url(#h41abb06849)"/>
   </g>
   <g id="patch_8">
    <path d="M 89.072 186.807485 
L 95.768 186.807485 
L 95.768 186.645636 
L 89.072 186.645636 
z
" clip-path="url(#p4a3757f549)" style="fill: url(#h41abb06849)"/>
   </g>
   <g id="patch_9">
    <path d="M 95.768 186.807485 
L 102.464 186.807485 
L 102.464 186.645636 
L 95.768 186.645636 
z
" clip-path="url(#p4a3757f549)" style="fill: url(#h41abb06849)"/>
   </g>
   <g id="patch_10">
    <path d="M 102.464 186.682847 
L 109.16 186.682847 
L 109.16 186.426942 
L 102.464 186.426942 
z
" clip-path="url(#p4a3757f549)" style="fill: url(#h41abb06849)"/>
   </g>
   <g id="patch_11">
    <path d="M 109.16 186.352563 
L 115.856 186.352563 
L 115.856 185.956116 
L 109.16 185.956116 
z
" clip-path="url(#p4a3757f549)" style="fill: url(#h41abb06849)"/>
   </g>
   <g id="patch_12">
    <path d="M 115.856 186.05378 
L 122.552 186.05378 
L 122.552 185.568234 
L 115.856 185.568234 
z
" clip-path="url(#p4a3757f549)" style="fill: url(#h41abb06849)"/>
   </g>
   <g id="patch_13">
    <path d="M 122.552 184.808518 
L 129.248 184.808518 
L 129.248 184.066835 
L 122.552 184.066835 
z
" clip-path="url(#p4a3757f549)" style="fill: url(#h41abb06849)"/>
   </g>
   <g id="patch_14">
    <path d="M 129.248 183.904432 
L 135.944 183.904432 
L 135.944 183.025369 
L 129.248 183.025369 
z
" clip-path="url(#p4a3757f549)" style="fill: url(#h41abb06849)"/>
   </g>
   <g id="patch_15">
    <path d="M 135.944 180.655794 
L 142.64 180.655794 
L 142.64 179.407355 
L 135.944 179.407355 
z
" clip-path="url(#p4a3757f549)" style="fill: url(#h41abb06849)"/>
   </g>
   <g id="patch_16">
    <path d="M 142.64 174.879676 
L 149.336 174.879676 
L 149.336 173.166832 
L 142.64 173.166832 
z
" clip-path="url(#p4a3757f549)" style="fill: url(#h41abb06849)"/>
   </g>
   <g id="patch_17">
    <path d="M 149.336 169.497928 
L 156.032 169.497928 
L 156.032 167.447492 
L 149.336 167.447492 
z
" clip-path="url(#p4a3757f549)" style="fill: url(#h41abb06849)"/>
   </g>
   <g id="patch_18">
    <path d="M 156.032 157.438759 
L 162.728 157.438759 
L 162.728 154.786714 
L 156.032 154.786714 
z
" clip-path="url(#p4a3757f549)" style="fill: url(#h41abb06849)"/>
   </g>
   <g id="patch_19">
    <path d="M 162.728 146.109429 
L 169.424 146.109429 
L 169.424 142.998314 
L 162.728 142.998314 
z
" clip-path="url(#p4a3757f549)" style="fill: url(#h41abb06849)"/>
   </g>
   <g id="patch_20">
    <path d="M 169.424 129.738704 
L 176.12 129.738704 
L 176.12 126.065776 
L 169.424 126.065776 
z
" clip-path="url(#p4a3757f549)" style="fill: url(#h41abb06849)"/>
   </g>
   <g id="patch_21">
    <path d="M 176.12 110.959853 
L 182.816 110.959853 
L 182.816 106.734707 
L 176.12 106.734707 
z
" clip-path="url(#p4a3757f549)" style="fill: url(#h41abb06849)"/>
   </g>
   <g id="patch_22">
    <path d="M 182.816 91.527058 
L 189.512 91.527058 
L 189.512 86.798697 
L 182.816 86.798697 
z
" clip-path="url(#p4a3757f549)" style="fill: url(#h41abb06849)"/>
   </g>
   <g id="patch_23">
    <path d="M 189.512 81.687983 
L 196.208 81.687983 
L 196.208 76.724481 
L 189.512 76.724481 
z
" clip-path="url(#p4a3757f549)" style="fill: url(#h41abb06849)"/>
   </g>
   <g id="patch_24">
    <path d="M 196.208 71.164482 
L 202.904 71.164482 
L 202.904 65.96136 
L 196.208 65.96136 
z
" clip-path="url(#p4a3757f549)" style="fill: url(#h41abb06849)"/>
   </g>
   <g id="patch_25">
    <path d="M 202.904 68.504455 
L 209.6 68.504455 
L 209.6 63.24251 
L 202.904 63.24251 
z
" clip-path="url(#p4a3757f549)" style="fill: url(#h41abb06849)"/>
   </g>
   <g id="patch_26">
    <path d="M 209.6 72.692432 
L 216.296 72.692432 
L 216.296 67.523404 
L 209.6 67.523404 
z
" clip-path="url(#p4a3757f549)" style="fill: url(#h41abb06849)"/>
   </g>
   <g id="patch_27">
    <path d="M 216.296 79.029358 
L 222.992 79.029358 
L 222.992 74.004228 
L 216.296 74.004228 
z
" clip-path="url(#p4a3757f549)" style="fill: url(#h41abb06849)"/>
   </g>
   <g id="patch_28">
    <path d="M 222.992 86.834418 
L 229.688 86.834418 
L 229.688 81.992468 
L 222.992 81.992468 
z
" clip-path="url(#p4a3757f549)" style="fill: url(#h41abb06849)"/>
   </g>
   <g id="patch_29">
    <path d="M 229.688 92.601083 
L 236.384 92.601083 
L 236.384 87.899111 
L 229.688 87.899111 
z
" clip-path="url(#p4a3757f549)" style="fill: url(#h41abb06849)"/>
   </g>
   <g id="patch_30">
    <path d="M 236.384 102.998119 
L 243.08 102.998119 
L 243.08 98.559809 
L 236.384 98.559809 
z
" clip-path="url(#p4a3757f549)" style="fill: url(#h41abb06849)"/>
   </g>
   <g id="patch_31">
    <path d="M 243.08 101.924873 
L 249.776 101.924873 
L 249.776 97.458615 
L 243.08 97.458615 
z
" clip-path="url(#p4a3757f549)" style="fill: url(#h41abb06849)"/>
   </g>
   <g id="patch_32">
    <path d="M 249.776 102.433264 
L 256.472 102.433264 
L 256.472 97.980222 
L 249.776 97.980222 
z
" clip-path="url(#p4a3757f549)" style="fill: url(#h41abb06849)"/>
   </g>
   <g id="patch_33">
    <path d="M 256.472 103.393504 
L 263.168 103.393504 
L 263.168 98.965534 
L 256.472 98.965534 
z
" clip-path="url(#p4a3757f549)" style="fill: url(#h41abb06849)"/>
   </g>
   <g id="patch_34">
    <path d="M 263.168 107.459597 
L 269.864 107.459597 
L 269.864 103.139423 
L 263.168 103.139423 
z
" clip-path="url(#p4a3757f549)" style="fill: url(#h41abb06849)"/>
   </g>
   <g id="patch_35">
    <path d="M 269.864 113.612549 
L 276.56 113.612549 
L 276.56 109.460889 
L 269.864 109.460889 
z
" clip-path="url(#p4a3757f549)" style="fill: url(#h41abb06849)"/>
   </g>
   <g id="patch_36">
    <path d="M 276.56 123.427099 
L 283.256 123.427099 
L 283.256 119.55963 
L 276.56 119.55963 
z
" clip-path="url(#p4a3757f549)" style="fill: url(#h41abb06849)"/>
   </g>
   <g id="patch_37">
    <path d="M 283.256 131.597375 
L 289.952 131.597375 
L 289.952 127.983764 
L 283.256 127.983764 
z
" clip-path="url(#p4a3757f549)" style="fill: url(#h41abb06849)"/>
   </g>
   <g id="patch_38">
    <path d="M 289.952 140.938984 
L 296.648 140.938984 
L 296.648 137.639893 
L 289.952 137.639893 
z
" clip-path="url(#p4a3757f549)" style="fill: url(#h41abb06849)"/>
   </g>
   <g id="patch_39">
    <path d="M 296.648 150.32004 
L 303.344 150.32004 
L 303.344 147.371019 
L 296.648 147.371019 
z
" clip-path="url(#p4a3757f549)" style="fill: url(#h41abb06849)"/>
   </g>
   <g id="patch_40">
    <path d="M 303.344 162.472536 
L 310.04 162.472536 
L 310.04 160.052914 
L 303.344 160.052914 
z
" clip-path="url(#p4a3757f549)" style="fill: url(#h41abb06849)"/>
   </g>
   <g id="patch_41">
    <path d="M 310.04 171.221053 
L 316.736 171.221053 
L 316.736 169.272138 
L 310.04 169.272138 
z
" clip-path="url(#p4a3757f549)" style="fill: url(#h41abb06849)"/>
   </g>
   <g id="patch_42">
    <path d="M 316.736 176.371401 
L 323.432 176.371401 
L 323.432 174.7651 
L 316.736 174.7651 
z
" clip-path="url(#p4a3757f549)" style="fill: url(#h41abb06849)"/>
   </g>
   <g id="patch_43">
    <path d="M 323.432 180.218658 
L 330.128 180.218658 
L 330.128 178.928937 
L 323.432 178.928937 
z
" clip-path="url(#p4a3757f549)" style="fill: url(#h41abb06849)"/>
   </g>
   <g id="patch_44">
    <path d="M 330.128 183.260397 
L 336.824 183.260397 
L 336.824 182.296073 
L 330.128 182.296073 
z
" clip-path="url(#p4a3757f549)" style="fill: url(#h41abb06849)"/>
   </g>
   <g id="patch_45">
    <path d="M 336.824 184.649868 
L 343.52 184.649868 
L 343.52 183.882153 
L 336.824 183.882153 
z
" clip-path="url(#p4a3757f549)" style="fill: url(#h41abb06849)"/>
   </g>
   <g id="patch_46">
    <path d="M 343.52 186.00321 
L 350.216 186.00321 
L 350.216 185.504359 
L 343.52 185.504359 
z
" clip-path="url(#p4a3757f549)" style="fill: url(#h41abb06849)"/>
   </g>
   <g id="patch_47">
    <path d="M 350.216 186.154339 
L 356.912 186.154339 
L 356.912 185.696563 
L 350.216 185.696563 
z
" clip-path="url(#p4a3757f549)" style="fill: url(#h41abb06849)"/>
   </g>
   <g id="patch_48">
    <path d="M 356.912 186.545076 
L 363.608 186.545076 
L 363.608 186.221379 
L 356.912 186.221379 
z
" clip-path="url(#p4a3757f549)" style="fill: url(#h41abb06849)"/>
   </g>
   <g id="patch_49">
    <path d="M 363.608 186.807485 
L 370.304 186.807485 
L 370.304 186.645636 
L 363.608 186.645636 
z
" clip-path="url(#p4a3757f549)" style="fill: url(#h41abb06849)"/>
   </g>
   <g id="patch_50">
    <path d="M 370.304 186.841005 
L 377 186.841005 
L 377 186.72656 
L 370.304 186.72656 
z
" clip-path="url(#p4a3757f549)" style="fill: url(#h41abb06849)"/>
   </g>
   <g id="patch_51">
    <path d="M 377 186.841005 
L 383.696 186.841005 
L 383.696 186.72656 
L 377 186.72656 
z
" clip-path="url(#p4a3757f549)" style="fill: url(#h41abb06849)"/>
   </g>
   <g id="patch_52">
    <path d="M 383.696 186.841005 
L 390.392 186.841005 
L 390.392 186.841005 
L 383.696 186.841005 
z
" clip-path="url(#p4a3757f549)" style="fill: url(#h41abb06849)"/>
   </g>
   <g id="patch_53">
    <path d="M 390.392 186.841005 
L 397.088 186.841005 
L 397.088 186.72656 
L 390.392 186.72656 
z
" clip-path="url(#p4a3757f549)" style="fill: url(#h41abb06849)"/>
   </g>
   <g id="patch_54">
    <path d="M 397.088 186.841005 
L 403.784 186.841005 
L 403.784 186.72656 
L 397.088 186.72656 
z
" clip-path="url(#p4a3757f549)" style="fill: url(#h41abb06849)"/>
   </g>
   <g id="patch_55">
    <path d="M 403.784 186.841005 
L 410.48 186.841005 
L 410.48 186.841005 
L 403.784 186.841005 
z
" clip-path="url(#p4a3757f549)" style="fill: url(#h41abb06849)"/>
   </g>
   <g id="LineCollection_1">
    <path d="M 79.028 186.524679 
" clip-path="url(#p4a3757f549)" style="fill: none; stroke: #000000; stroke-width: 1.5"/>
    <path d="M 85.724 186.719324 
L 85.724 186.044123 
" clip-path="url(#p4a3757f549)" style="fill: none; stroke: #000000; stroke-width: 1.5"/>
    <path d="M 92.42 186.811322 
L 92.42 186.274077 
" clip-path="url(#p4a3757f549)" style="fill: none; stroke: #000000; stroke-width: 1.5"/>
    <path d="M 99.116 186.811322 
L 99.116 186.274077 
" clip-path="url(#p4a3757f549)" style="fill: none; stroke: #000000; stroke-width: 1.5"/>
    <path d="M 105.812 186.811322 
L 105.812 186.274077 
" clip-path="url(#p4a3757f549)" style="fill: none; stroke: #000000; stroke-width: 1.5"/>
    <path d="M 112.508 185.942104 
L 112.508 184.788579 
" clip-path="url(#p4a3757f549)" style="fill: none; stroke: #000000; stroke-width: 1.5"/>
    <path d="M 119.204 186.081809 
L 119.204 184.990445 
" clip-path="url(#p4a3757f549)" style="fill: none; stroke: #000000; stroke-width: 1.5"/>
    <path d="M 125.9 182.933746 
L 125.9 180.93819 
" clip-path="url(#p4a3757f549)" style="fill: none; stroke: #000000; stroke-width: 1.5"/>
    <path d="M 132.596 180.575009 
L 132.596 178.145441 
" clip-path="url(#p4a3757f549)" style="fill: none; stroke: #000000; stroke-width: 1.5"/>
    <path d="M 139.292 177.537365 
L 139.292 174.656086 
" clip-path="url(#p4a3757f549)" style="fill: none; stroke: #000000; stroke-width: 1.5"/>
    <path d="M 145.988 170.884402 
L 145.988 167.222183 
" clip-path="url(#p4a3757f549)" style="fill: none; stroke: #000000; stroke-width: 1.5"/>
    <path d="M 152.684 160.034722 
L 152.684 155.393357 
" clip-path="url(#p4a3757f549)" style="fill: none; stroke: #000000; stroke-width: 1.5"/>
    <path d="M 159.38 151.752989 
L 159.38 146.493799 
" clip-path="url(#p4a3757f549)" style="fill: none; stroke: #000000; stroke-width: 1.5"/>
    <path d="M 166.076 132.089987 
L 166.076 125.60818 
" clip-path="url(#p4a3757f549)" style="fill: none; stroke: #000000; stroke-width: 1.5"/>
    <path d="M 172.772 114.842556 
L 172.772 107.461076 
" clip-path="url(#p4a3757f549)" style="fill: none; stroke: #000000; stroke-width: 1.5"/>
    <path d="M 179.468 87.114387 
L 179.468 78.488928 
" clip-path="url(#p4a3757f549)" style="fill: none; stroke: #000000; stroke-width: 1.5"/>
    <path d="M 186.164 65.041098 
L 186.164 55.545449 
" clip-path="url(#p4a3757f549)" style="fill: none; stroke: #000000; stroke-width: 1.5"/>
    <path d="M 192.86 58.630747 
L 192.86 48.897484 
" clip-path="url(#p4a3757f549)" style="fill: none; stroke: #000000; stroke-width: 1.5"/>
    <path d="M 199.556 46.139337 
L 199.556 35.959529 
" clip-path="url(#p4a3757f549)" style="fill: none; stroke: #000000; stroke-width: 1.5"/>
    <path d="M 206.252 40.058905 
L 206.252 29.668912 
" clip-path="url(#p4a3757f549)" style="fill: none; stroke: #000000; stroke-width: 1.5"/>
    <path d="M 212.948 44.957203 
L 212.948 34.736181 
" clip-path="url(#p4a3757f549)" style="fill: none; stroke: #000000; stroke-width: 1.5"/>
    <path d="M 219.644 54.749384 
L 219.644 44.875128 
" clip-path="url(#p4a3757f549)" style="fill: none; stroke: #000000; stroke-width: 1.5"/>
    <path d="M 226.34 71.279767 
L 226.34 62.021449 
" clip-path="url(#p4a3757f549)" style="fill: none; stroke: #000000; stroke-width: 1.5"/>
    <path d="M 233.036 94.349688 
L 233.036 86.030099 
" clip-path="url(#p4a3757f549)" style="fill: none; stroke: #000000; stroke-width: 1.5"/>
    <path d="M 239.732 103.259316 
L 239.732 95.33331 
" clip-path="url(#p4a3757f549)" style="fill: none; stroke: #000000; stroke-width: 1.5"/>
    <path d="M 246.428 118.196078 
L 246.428 110.980296 
" clip-path="url(#p4a3757f549)" style="fill: none; stroke: #000000; stroke-width: 1.5"/>
    <path d="M 253.124 131.588539 
L 253.124 125.078722 
" clip-path="url(#p4a3757f549)" style="fill: none; stroke: #000000; stroke-width: 1.5"/>
    <path d="M 259.82 143.770625 
L 259.82 137.981898 
" clip-path="url(#p4a3757f549)" style="fill: none; stroke: #000000; stroke-width: 1.5"/>
    <path d="M 266.516 142.771089 
L 266.516 136.919641 
" clip-path="url(#p4a3757f549)" style="fill: none; stroke: #000000; stroke-width: 1.5"/>
    <path d="M 273.212 149.095168 
L 273.212 143.65355 
" clip-path="url(#p4a3757f549)" style="fill: none; stroke: #000000; stroke-width: 1.5"/>
    <path d="M 279.908 155.733207 
L 279.908 150.76064 
" clip-path="url(#p4a3757f549)" style="fill: none; stroke: #000000; stroke-width: 1.5"/>
    <path d="M 286.604 159.869507 
L 286.604 155.21495 
" clip-path="url(#p4a3757f549)" style="fill: none; stroke: #000000; stroke-width: 1.5"/>
    <path d="M 293.3 166.460817 
L 293.3 162.368369 
" clip-path="url(#p4a3757f549)" style="fill: none; stroke: #000000; stroke-width: 1.5"/>
    <path d="M 299.996 171.047724 
L 299.996 167.402462 
" clip-path="url(#p4a3757f549)" style="fill: none; stroke: #000000; stroke-width: 1.5"/>
    <path d="M 306.692 175.115232 
L 306.692 171.924714 
" clip-path="url(#p4a3757f549)" style="fill: none; stroke: #000000; stroke-width: 1.5"/>
    <path d="M 313.388 175.600965 
L 313.388 172.469709 
" clip-path="url(#p4a3757f549)" style="fill: none; stroke: #000000; stroke-width: 1.5"/>
    <path d="M 320.084 179.939158 
L 320.084 177.407296 
" clip-path="url(#p4a3757f549)" style="fill: none; stroke: #000000; stroke-width: 1.5"/>
    <path d="M 326.78 182.622202 
L 326.78 180.563002 
" clip-path="url(#p4a3757f549)" style="fill: none; stroke: #000000; stroke-width: 1.5"/>
    <path d="M 333.476 183.553144 
L 333.476 181.692057 
" clip-path="url(#p4a3757f549)" style="fill: none; stroke: #000000; stroke-width: 1.5"/>
    <path d="M 340.172 185.218785 
L 340.172 183.80019 
" clip-path="url(#p4a3757f549)" style="fill: none; stroke: #000000; stroke-width: 1.5"/>
    <path d="M 346.868 186.081809 
L 346.868 184.990445 
" clip-path="url(#p4a3757f549)" style="fill: none; stroke: #000000; stroke-width: 1.5"/>
    <path d="M 353.564 186.606075 
L 353.564 185.824136 
" clip-path="url(#p4a3757f549)" style="fill: none; stroke: #000000; stroke-width: 1.5"/>
    <path d="M 360.26 186.524679 
" clip-path="url(#p4a3757f549)" style="fill: none; stroke: #000000; stroke-width: 1.5"/>
    <path d="M 366.956 186.524679 
" clip-path="url(#p4a3757f549)" style="fill: none; stroke: #000000; stroke-width: 1.5"/>
    <path d="M 373.652 186.524679 
" clip-path="url(#p4a3757f549)" style="fill: none; stroke: #000000; stroke-width: 1.5"/>
    <path d="M 380.348 186.719324 
L 380.348 186.044123 
" clip-path="url(#p4a3757f549)" style="fill: none; stroke: #000000; stroke-width: 1.5"/>
    <path d="M 387.044 186.524679 
" clip-path="url(#p4a3757f549)" style="fill: none; stroke: #000000; stroke-width: 1.5"/>
    <path d="M 393.74 186.524679 
" clip-path="url(#p4a3757f549)" style="fill: none; stroke: #000000; stroke-width: 1.5"/>
    <path d="M 400.436 186.524679 
" clip-path="url(#p4a3757f549)" style="fill: none; stroke: #000000; stroke-width: 1.5"/>
    <path d="M 407.132 186.524679 
" clip-path="url(#p4a3757f549)" style="fill: none; stroke: #000000; stroke-width: 1.5"/>
   </g>
   <g id="line2d_1">
    <defs>
     <path id="md7f598efa8" d="M 0 1.5 
C 0.397805 1.5 0.77937 1.341951 1.06066 1.06066 
C 1.341951 0.77937 1.5 0.397805 1.5 0 
C 1.5 -0.397805 1.341951 -0.77937 1.06066 -1.06066 
C 0.77937 -1.341951 0.397805 -1.5 0 -1.5 
C -0.397805 -1.5 -0.77937 -1.341951 -1.06066 -1.06066 
C -1.341951 -0.77937 -1.5 -0.397805 -1.5 0 
C -1.5 0.397805 -1.341951 0.77937 -1.06066 1.06066 
C -0.77937 1.341951 -0.397805 1.5 0 1.5 
z
" style="stroke: #000000"/>
    </defs>
    <g clip-path="url(#p4a3757f549)">
     <use xlink:href="#md7f598efa8" x="79.028" y="186.841005" style="stroke: #000000"/>
     <use xlink:href="#md7f598efa8" x="85.724" y="186.497363" style="stroke: #000000"/>
     <use xlink:href="#md7f598efa8" x="92.42" y="186.669184" style="stroke: #000000"/>
     <use xlink:href="#md7f598efa8" x="99.116" y="186.669184" style="stroke: #000000"/>
     <use xlink:href="#md7f598efa8" x="105.812" y="186.669184" style="stroke: #000000"/>
     <use xlink:href="#md7f598efa8" x="112.508" y="185.466437" style="stroke: #000000"/>
     <use xlink:href="#md7f598efa8" x="119.204" y="185.638258" style="stroke: #000000"/>
     <use xlink:href="#md7f598efa8" x="125.9" y="182.030017" style="stroke: #000000"/>
     <use xlink:href="#md7f598efa8" x="132.596" y="179.452703" style="stroke: #000000"/>
     <use xlink:href="#md7f598efa8" x="139.292" y="176.188104" style="stroke: #000000"/>
     <use xlink:href="#md7f598efa8" x="145.988" y="169.143444" style="stroke: #000000"/>
     <use xlink:href="#md7f598efa8" x="152.684" y="157.80326" style="stroke: #000000"/>
     <use xlink:href="#md7f598efa8" x="159.38" y="149.212212" style="stroke: #000000"/>
     <use xlink:href="#md7f598efa8" x="166.076" y="128.937337" style="stroke: #000000"/>
     <use xlink:href="#md7f598efa8" x="172.772" y="111.239777" style="stroke: #000000"/>
     <use xlink:href="#md7f598efa8" x="179.468" y="82.889316" style="stroke: #000000"/>
     <use xlink:href="#md7f598efa8" x="186.164" y="60.380769" style="stroke: #000000"/>
     <use xlink:href="#md7f598efa8" x="192.86" y="53.851572" style="stroke: #000000"/>
     <use xlink:href="#md7f598efa8" x="199.556" y="41.13682" style="stroke: #000000"/>
     <use xlink:href="#md7f598efa8" x="206.252" y="34.951265" style="stroke: #000000"/>
     <use xlink:href="#md7f598efa8" x="212.948" y="39.934073" style="stroke: #000000"/>
     <use xlink:href="#md7f598efa8" x="219.644" y="49.899689" style="stroke: #000000"/>
     <use xlink:href="#md7f598efa8" x="226.34" y="66.738145" style="stroke: #000000"/>
     <use xlink:href="#md7f598efa8" x="233.036" y="90.277618" style="stroke: #000000"/>
     <use xlink:href="#md7f598efa8" x="239.732" y="99.38413" style="stroke: #000000"/>
     <use xlink:href="#md7f598efa8" x="246.428" y="114.676196" style="stroke: #000000"/>
     <use xlink:href="#md7f598efa8" x="253.124" y="128.421874" style="stroke: #000000"/>
     <use xlink:href="#md7f598efa8" x="259.82" y="140.964805" style="stroke: #000000"/>
     <use xlink:href="#md7f598efa8" x="266.516" y="139.933879" style="stroke: #000000"/>
     <use xlink:href="#md7f598efa8" x="273.212" y="146.463076" style="stroke: #000000"/>
     <use xlink:href="#md7f598efa8" x="279.908" y="153.335915" style="stroke: #000000"/>
     <use xlink:href="#md7f598efa8" x="286.604" y="157.631439" style="stroke: #000000"/>
     <use xlink:href="#md7f598efa8" x="293.3" y="164.504278" style="stroke: #000000"/>
     <use xlink:href="#md7f598efa8" x="299.996" y="169.315265" style="stroke: #000000"/>
     <use xlink:href="#md7f598efa8" x="306.692" y="173.61079" style="stroke: #000000"/>
     <use xlink:href="#md7f598efa8" x="313.388" y="174.126253" style="stroke: #000000"/>
     <use xlink:href="#md7f598efa8" x="320.084" y="178.765419" style="stroke: #000000"/>
     <use xlink:href="#md7f598efa8" x="326.78" y="181.686375" style="stroke: #000000"/>
     <use xlink:href="#md7f598efa8" x="333.476" y="182.717301" style="stroke: #000000"/>
     <use xlink:href="#md7f598efa8" x="340.172" y="184.607332" style="stroke: #000000"/>
     <use xlink:href="#md7f598efa8" x="346.868" y="185.638258" style="stroke: #000000"/>
     <use xlink:href="#md7f598efa8" x="353.564" y="186.325542" style="stroke: #000000"/>
     <use xlink:href="#md7f598efa8" x="360.26" y="186.841005" style="stroke: #000000"/>
     <use xlink:href="#md7f598efa8" x="366.956" y="186.841005" style="stroke: #000000"/>
     <use xlink:href="#md7f598efa8" x="373.652" y="186.841005" style="stroke: #000000"/>
     <use xlink:href="#md7f598efa8" x="380.348" y="186.497363" style="stroke: #000000"/>
     <use xlink:href="#md7f598efa8" x="387.044" y="186.841005" style="stroke: #000000"/>
     <use xlink:href="#md7f598efa8" x="393.74" y="186.841005" style="stroke: #000000"/>
     <use xlink:href="#md7f598efa8" x="400.436" y="186.841005" style="stroke: #000000"/>
     <use xlink:href="#md7f598efa8" x="407.132" y="186.841005" style="stroke: #000000"/>
    </g>
   </g>
   <g id="patch_56">
    <path d="M 75.68 186.841005 
L 75.68 21.810307 
" style="fill: none; stroke: #000000; stroke-linejoin: miter; stroke-linecap: square"/>
   </g>
   <g id="patch_57">
    <path d="M 410.48 186.841005 
L 410.48 21.810307 
" style="fill: none; stroke: #000000; stroke-linejoin: miter; stroke-linecap: square"/>
   </g>
   <g id="patch_58">
    <path d="M 75.68 186.841005 
L 410.48 186.841005 
" style="fill: none; stroke: #000000; stroke-linejoin: miter; stroke-linecap: square"/>
   </g>
   <g id="patch_59">
    <path d="M 75.68 21.810307 
L 410.48 21.810307 
" style="fill: none; stroke: #000000; stroke-linejoin: miter; stroke-linecap: square"/>
   </g>
   <g id="matplotlib.axis_1">
    <g id="xtick_1">
     <g id="line2d_2">
      <defs>
       <path id="m8712ac87e9" d="M 0 0 
L 0 -6 
" style="stroke: #1a1a1a; stroke-width: 0.8"/>
      </defs>
      <g>
       <use xlink:href="#m8712ac87e9" x="75.68" y="186.841005" style="fill: #1a1a1a; stroke: #1a1a1a; stroke-width: 0.8"/>
      </g>
     </g>
    </g>
    <g id="xtick_2">
     <g id="line2d_3">
      <g>
       <use xlink:href="#m8712ac87e9" x="155.394286" y="186.841005" style="fill: #1a1a1a; stroke: #1a1a1a; stroke-width: 0.8"/>
      </g>
     </g>
    </g>
    <g id="xtick_3">
     <g id="line2d_4">
      <g>
       <use xlink:href="#m8712ac87e9" x="235.108571" y="186.841005" style="fill: #1a1a1a; stroke: #1a1a1a; stroke-width: 0.8"/>
      </g>
     </g>
    </g>
    <g id="xtick_4">
     <g id="line2d_5">
      <g>
       <use xlink:href="#m8712ac87e9" x="314.822857" y="186.841005" style="fill: #1a1a1a; stroke: #1a1a1a; stroke-width: 0.8"/>
      </g>
     </g>
    </g>
    <g id="xtick_5">
     <g id="line2d_6">
      <g>
       <use xlink:href="#m8712ac87e9" x="394.537143" y="186.841005" style="fill: #1a1a1a; stroke: #1a1a1a; stroke-width: 0.8"/>
      </g>
     </g>
    </g>
    <g id="xtick_6">
     <g id="line2d_7">
      <defs>
       <path id="m2c3e7ffbe4" d="M 0 0 
L 0 -3 
" style="stroke: #1a1a1a; stroke-width: 0.6"/>
      </defs>
      <g>
       <use xlink:href="#m2c3e7ffbe4" x="91.622857" y="186.841005" style="fill: #1a1a1a; stroke: #1a1a1a; stroke-width: 0.6"/>
      </g>
     </g>
    </g>
    <g id="xtick_7">
     <g id="line2d_8">
      <g>
       <use xlink:href="#m2c3e7ffbe4" x="107.565714" y="186.841005" style="fill: #1a1a1a; stroke: #1a1a1a; stroke-width: 0.6"/>
      </g>
     </g>
    </g>
    <g id="xtick_8">
     <g id="line2d_9">
      <g>
       <use xlink:href="#m2c3e7ffbe4" x="123.508571" y="186.841005" style="fill: #1a1a1a; stroke: #1a1a1a; stroke-width: 0.6"/>
      </g>
     </g>
    </g>
    <g id="xtick_9">
     <g id="line2d_10">
      <g>
       <use xlink:href="#m2c3e7ffbe4" x="139.451429" y="186.841005" style="fill: #1a1a1a; stroke: #1a1a1a; stroke-width: 0.6"/>
      </g>
     </g>
    </g>
    <g id="xtick_10">
     <g id="line2d_11">
      <g>
       <use xlink:href="#m2c3e7ffbe4" x="171.337143" y="186.841005" style="fill: #1a1a1a; stroke: #1a1a1a; stroke-width: 0.6"/>
      </g>
     </g>
    </g>
    <g id="xtick_11">
     <g id="line2d_12">
      <g>
       <use xlink:href="#m2c3e7ffbe4" x="187.28" y="186.841005" style="fill: #1a1a1a; stroke: #1a1a1a; stroke-width: 0.6"/>
      </g>
     </g>
    </g>
    <g id="xtick_12">
     <g id="line2d_13">
      <g>
       <use xlink:href="#m2c3e7ffbe4" x="203.222857" y="186.841005" style="fill: #1a1a1a; stroke: #1a1a1a; stroke-width: 0.6"/>
      </g>
     </g>
    </g>
    <g id="xtick_13">
     <g id="line2d_14">
      <g>
       <use xlink:href="#m2c3e7ffbe4" x="219.165714" y="186.841005" style="fill: #1a1a1a; stroke: #1a1a1a; stroke-width: 0.6"/>
      </g>
     </g>
    </g>
    <g id="xtick_14">
     <g id="line2d_15">
      <g>
       <use xlink:href="#m2c3e7ffbe4" x="251.051429" y="186.841005" style="fill: #1a1a1a; stroke: #1a1a1a; stroke-width: 0.6"/>
      </g>
     </g>
    </g>
    <g id="xtick_15">
     <g id="line2d_16">
      <g>
       <use xlink:href="#m2c3e7ffbe4" x="266.994286" y="186.841005" style="fill: #1a1a1a; stroke: #1a1a1a; stroke-width: 0.6"/>
      </g>
     </g>
    </g>
    <g id="xtick_16">
     <g id="line2d_17">
      <g>
       <use xlink:href="#m2c3e7ffbe4" x="282.937143" y="186.841005" style="fill: #1a1a1a; stroke: #1a1a1a; stroke-width: 0.6"/>
      </g>
     </g>
    </g>
    <g id="xtick_17">
     <g id="line2d_18">
      <g>
       <use xlink:href="#m2c3e7ffbe4" x="298.88" y="186.841005" style="fill: #1a1a1a; stroke: #1a1a1a; stroke-width: 0.6"/>
      </g>
     </g>
    </g>
    <g id="xtick_18">
     <g id="line2d_19">
      <g>
       <use xlink:href="#m2c3e7ffbe4" x="330.765714" y="186.841005" style="fill: #1a1a1a; stroke: #1a1a1a; stroke-width: 0.6"/>
      </g>
     </g>
    </g>
    <g id="xtick_19">
     <g id="line2d_20">
      <g>
       <use xlink:href="#m2c3e7ffbe4" x="346.708571" y="186.841005" style="fill: #1a1a1a; stroke: #1a1a1a; stroke-width: 0.6"/>
      </g>
     </g>
    </g>
    <g id="xtick_20">
     <g id="line2d_21">
      <g>
       <use xlink:href="#m2c3e7ffbe4" x="362.651429" y="186.841005" style="fill: #1a1a1a; stroke: #1a1a1a; stroke-width: 0.6"/>
      </g>
     </g>
    </g>
    <g id="xtick_21">
     <g id="line2d_22">
      <g>
       <use xlink:href="#m2c3e7ffbe4" x="378.594286" y="186.841005" style="fill: #1a1a1a; stroke: #1a1a1a; stroke-width: 0.6"/>
      </g>
     </g>
    </g>
    <g id="xtick_22">
     <g id="line2d_23">
      <g>
       <use xlink:href="#m2c3e7ffbe4" x="410.48" y="186.841005" style="fill: #1a1a1a; stroke: #1a1a1a; stroke-width: 0.6"/>
      </g>
     </g>
    </g>
   </g>
   <g id="matplotlib.axis_2">
    <g id="ytick_1">
     <g id="line2d_24">
      <defs>
       <path id="mcf981b272a" d="M 0 0 
L 6 0 
" style="stroke: #1a1a1a; stroke-width: 0.8"/>
      </defs>
      <g>
       <use xlink:href="#mcf981b272a" x="75.68" y="186.841005" style="fill: #1a1a1a; stroke: #1a1a1a; stroke-width: 0.8"/>
      </g>
     </g>
     <g id="text_1">
      <!-- $\mathdefault{0}$ -->
      <g style="fill: #1a1a1a" transform="translate(61.08 192.539833) scale(0.15 -0.15)">
       <defs>
        <path id="DejaVuSerif-30" d="M 2034 219 
Q 2513 219 2750 744 
Q 2988 1269 2988 2328 
Q 2988 3391 2750 3916 
Q 2513 4441 2034 4441 
Q 1556 4441 1318 3916 
Q 1081 3391 1081 2328 
Q 1081 1269 1318 744 
Q 1556 219 2034 219 
z
M 2034 -91 
Q 1275 -91 848 546 
Q 422 1184 422 2328 
Q 422 3475 848 4112 
Q 1275 4750 2034 4750 
Q 2797 4750 3222 4112 
Q 3647 3475 3647 2328 
Q 3647 1184 3222 546 
Q 2797 -91 2034 -91 
z
" transform="scale(0.015625)"/>
       </defs>
       <use xlink:href="#DejaVuSerif-30" transform="translate(0 0.78125)"/>
      </g>
     </g>
    </g>
    <g id="ytick_2">
     <g id="line2d_25">
      <g>
       <use xlink:href="#mcf981b272a" x="75.68" y="152.47681" style="fill: #1a1a1a; stroke: #1a1a1a; stroke-width: 0.8"/>
      </g>
     </g>
     <g id="text_2">
      <!-- $\mathdefault{200}$ -->
      <g style="fill: #1a1a1a" transform="translate(42.03 158.175638) scale(0.15 -0.15)">
       <defs>
        <path id="DejaVuSerif-32" d="M 819 3553 
L 469 3553 
L 469 4384 
Q 803 4563 1142 4656 
Q 1481 4750 1806 4750 
Q 2534 4750 2956 4397 
Q 3378 4044 3378 3438 
Q 3378 2753 2422 1800 
Q 2347 1728 2309 1691 
L 1131 513 
L 3078 513 
L 3078 1088 
L 3444 1088 
L 3444 0 
L 434 0 
L 434 341 
L 1850 1753 
Q 2319 2222 2519 2614 
Q 2719 3006 2719 3438 
Q 2719 3909 2473 4175 
Q 2228 4441 1797 4441 
Q 1350 4441 1106 4219 
Q 863 3997 819 3553 
z
" transform="scale(0.015625)"/>
       </defs>
       <use xlink:href="#DejaVuSerif-32" transform="translate(0 0.78125)"/>
       <use xlink:href="#DejaVuSerif-30" transform="translate(63.623047 0.78125)"/>
       <use xlink:href="#DejaVuSerif-30" transform="translate(127.246094 0.78125)"/>
      </g>
     </g>
    </g>
    <g id="ytick_3">
     <g id="line2d_26">
      <g>
       <use xlink:href="#mcf981b272a" x="75.68" y="118.112616" style="fill: #1a1a1a; stroke: #1a1a1a; stroke-width: 0.8"/>
      </g>
     </g>
     <g id="text_3">
      <!-- $\mathdefault{400}$ -->
      <g style="fill: #1a1a1a" transform="translate(42.03 123.811444) scale(0.15 -0.15)">
       <defs>
        <path id="DejaVuSerif-34" d="M 2234 1581 
L 2234 4063 
L 641 1581 
L 2234 1581 
z
M 3609 0 
L 1484 0 
L 1484 331 
L 2234 331 
L 2234 1247 
L 197 1247 
L 197 1588 
L 2241 4750 
L 2859 4750 
L 2859 1581 
L 3750 1581 
L 3750 1247 
L 2859 1247 
L 2859 331 
L 3609 331 
L 3609 0 
z
" transform="scale(0.015625)"/>
       </defs>
       <use xlink:href="#DejaVuSerif-34" transform="translate(0 0.78125)"/>
       <use xlink:href="#DejaVuSerif-30" transform="translate(63.623047 0.78125)"/>
       <use xlink:href="#DejaVuSerif-30" transform="translate(127.246094 0.78125)"/>
      </g>
     </g>
    </g>
    <g id="ytick_4">
     <g id="line2d_27">
      <g>
       <use xlink:href="#mcf981b272a" x="75.68" y="83.748421" style="fill: #1a1a1a; stroke: #1a1a1a; stroke-width: 0.8"/>
      </g>
     </g>
     <g id="text_4">
      <!-- $\mathdefault{600}$ -->
      <g style="fill: #1a1a1a" transform="translate(42.03 89.447249) scale(0.15 -0.15)">
       <defs>
        <path id="DejaVuSerif-36" d="M 2094 219 
Q 2534 219 2771 542 
Q 3009 866 3009 1472 
Q 3009 2078 2771 2401 
Q 2534 2725 2094 2725 
Q 1647 2725 1412 2412 
Q 1178 2100 1178 1509 
Q 1178 888 1415 553 
Q 1653 219 2094 219 
z
M 1075 2569 
Q 1288 2803 1556 2918 
Q 1825 3034 2163 3034 
Q 2859 3034 3264 2615 
Q 3669 2197 3669 1472 
Q 3669 763 3233 336 
Q 2797 -91 2069 -91 
Q 1278 -91 853 498 
Q 428 1088 428 2181 
Q 428 3406 931 4078 
Q 1434 4750 2350 4750 
Q 2597 4750 2869 4703 
Q 3141 4656 3425 4563 
L 3425 3794 
L 3072 3794 
Q 3034 4109 2831 4275 
Q 2628 4441 2284 4441 
Q 1678 4441 1381 3981 
Q 1084 3522 1075 2569 
z
" transform="scale(0.015625)"/>
       </defs>
       <use xlink:href="#DejaVuSerif-36" transform="translate(0 0.78125)"/>
       <use xlink:href="#DejaVuSerif-30" transform="translate(63.623047 0.78125)"/>
       <use xlink:href="#DejaVuSerif-30" transform="translate(127.246094 0.78125)"/>
      </g>
     </g>
    </g>
    <g id="ytick_5">
     <g id="line2d_28">
      <g>
       <use xlink:href="#mcf981b272a" x="75.68" y="49.384227" style="fill: #1a1a1a; stroke: #1a1a1a; stroke-width: 0.8"/>
      </g>
     </g>
     <g id="text_5">
      <!-- $\mathdefault{800}$ -->
      <g style="fill: #1a1a1a" transform="translate(42.03 55.083055) scale(0.15 -0.15)">
       <defs>
        <path id="DejaVuSerif-38" d="M 2981 1275 
Q 2981 1775 2732 2051 
Q 2484 2328 2034 2328 
Q 1584 2328 1336 2051 
Q 1088 1775 1088 1275 
Q 1088 772 1336 495 
Q 1584 219 2034 219 
Q 2484 219 2732 495 
Q 2981 772 2981 1275 
z
M 2853 3541 
Q 2853 3966 2637 4203 
Q 2422 4441 2034 4441 
Q 1650 4441 1433 4203 
Q 1216 3966 1216 3541 
Q 1216 3113 1433 2875 
Q 1650 2638 2034 2638 
Q 2422 2638 2637 2875 
Q 2853 3113 2853 3541 
z
M 2516 2484 
Q 3047 2413 3344 2092 
Q 3641 1772 3641 1275 
Q 3641 619 3225 264 
Q 2809 -91 2034 -91 
Q 1263 -91 845 264 
Q 428 619 428 1275 
Q 428 1772 725 2092 
Q 1022 2413 1556 2484 
Q 1084 2569 832 2842 
Q 581 3116 581 3541 
Q 581 4103 968 4426 
Q 1356 4750 2034 4750 
Q 2713 4750 3100 4426 
Q 3488 4103 3488 3541 
Q 3488 3116 3236 2842 
Q 2984 2569 2516 2484 
z
" transform="scale(0.015625)"/>
       </defs>
       <use xlink:href="#DejaVuSerif-38" transform="translate(0 0.78125)"/>
       <use xlink:href="#DejaVuSerif-30" transform="translate(63.623047 0.78125)"/>
       <use xlink:href="#DejaVuSerif-30" transform="translate(127.246094 0.78125)"/>
      </g>
     </g>
    </g>
    <g id="ytick_6">
     <g id="line2d_29">
      <defs>
       <path id="me8cfa20a73" d="M 0 0 
L 3 0 
" style="stroke: #1a1a1a; stroke-width: 0.6"/>
      </defs>
      <g>
       <use xlink:href="#me8cfa20a73" x="75.68" y="178.249956" style="fill: #1a1a1a; stroke: #1a1a1a; stroke-width: 0.6"/>
      </g>
     </g>
    </g>
    <g id="ytick_7">
     <g id="line2d_30">
      <g>
       <use xlink:href="#me8cfa20a73" x="75.68" y="169.658907" style="fill: #1a1a1a; stroke: #1a1a1a; stroke-width: 0.6"/>
      </g>
     </g>
    </g>
    <g id="ytick_8">
     <g id="line2d_31">
      <g>
       <use xlink:href="#me8cfa20a73" x="75.68" y="161.067859" style="fill: #1a1a1a; stroke: #1a1a1a; stroke-width: 0.6"/>
      </g>
     </g>
    </g>
    <g id="ytick_9">
     <g id="line2d_32">
      <g>
       <use xlink:href="#me8cfa20a73" x="75.68" y="143.885761" style="fill: #1a1a1a; stroke: #1a1a1a; stroke-width: 0.6"/>
      </g>
     </g>
    </g>
    <g id="ytick_10">
     <g id="line2d_33">
      <g>
       <use xlink:href="#me8cfa20a73" x="75.68" y="135.294713" style="fill: #1a1a1a; stroke: #1a1a1a; stroke-width: 0.6"/>
      </g>
     </g>
    </g>
    <g id="ytick_11">
     <g id="line2d_34">
      <g>
       <use xlink:href="#me8cfa20a73" x="75.68" y="126.703664" style="fill: #1a1a1a; stroke: #1a1a1a; stroke-width: 0.6"/>
      </g>
     </g>
    </g>
    <g id="ytick_12">
     <g id="line2d_35">
      <g>
       <use xlink:href="#me8cfa20a73" x="75.68" y="109.521567" style="fill: #1a1a1a; stroke: #1a1a1a; stroke-width: 0.6"/>
      </g>
     </g>
    </g>
    <g id="ytick_13">
     <g id="line2d_36">
      <g>
       <use xlink:href="#me8cfa20a73" x="75.68" y="100.930518" style="fill: #1a1a1a; stroke: #1a1a1a; stroke-width: 0.6"/>
      </g>
     </g>
    </g>
    <g id="ytick_14">
     <g id="line2d_37">
      <g>
       <use xlink:href="#me8cfa20a73" x="75.68" y="92.33947" style="fill: #1a1a1a; stroke: #1a1a1a; stroke-width: 0.6"/>
      </g>
     </g>
    </g>
    <g id="ytick_15">
     <g id="line2d_38">
      <g>
       <use xlink:href="#me8cfa20a73" x="75.68" y="75.157372" style="fill: #1a1a1a; stroke: #1a1a1a; stroke-width: 0.6"/>
      </g>
     </g>
    </g>
    <g id="ytick_16">
     <g id="line2d_39">
      <g>
       <use xlink:href="#me8cfa20a73" x="75.68" y="66.566324" style="fill: #1a1a1a; stroke: #1a1a1a; stroke-width: 0.6"/>
      </g>
     </g>
    </g>
    <g id="ytick_17">
     <g id="line2d_40">
      <g>
       <use xlink:href="#me8cfa20a73" x="75.68" y="57.975275" style="fill: #1a1a1a; stroke: #1a1a1a; stroke-width: 0.6"/>
      </g>
     </g>
    </g>
    <g id="ytick_18">
     <g id="line2d_41">
      <g>
       <use xlink:href="#me8cfa20a73" x="75.68" y="40.793178" style="fill: #1a1a1a; stroke: #1a1a1a; stroke-width: 0.6"/>
      </g>
     </g>
    </g>
    <g id="ytick_19">
     <g id="line2d_42">
      <g>
       <use xlink:href="#me8cfa20a73" x="75.68" y="32.202129" style="fill: #1a1a1a; stroke: #1a1a1a; stroke-width: 0.6"/>
      </g>
     </g>
    </g>
    <g id="ytick_20">
     <g id="line2d_43">
      <g>
       <use xlink:href="#me8cfa20a73" x="75.68" y="23.611081" style="fill: #1a1a1a; stroke: #1a1a1a; stroke-width: 0.6"/>
      </g>
     </g>
    </g>
    <g id="text_6">
     <!-- Entries -->
     <g style="fill: #1a1a1a" transform="translate(32.286563 137.434406) rotate(-90) scale(0.18 -0.18)">
      <defs>
       <path id="DejaVuSerif-45" d="M 353 0 
L 353 331 
L 947 331 
L 947 4331 
L 353 4331 
L 353 4666 
L 4109 4666 
L 4109 3628 
L 3725 3628 
L 3725 4281 
L 1581 4281 
L 1581 2719 
L 3109 2719 
L 3109 3303 
L 3494 3303 
L 3494 1753 
L 3109 1753 
L 3109 2338 
L 1581 2338 
L 1581 384 
L 3775 384 
L 3775 1038 
L 4159 1038 
L 4159 0 
L 353 0 
z
" transform="scale(0.015625)"/>
       <path id="DejaVuSerif-6e" d="M 263 0 
L 263 331 
L 781 331 
L 781 2988 
L 231 2988 
L 231 3322 
L 1356 3322 
L 1356 2731 
Q 1516 3069 1770 3241 
Q 2025 3413 2363 3413 
Q 2913 3413 3172 3097 
Q 3431 2781 3431 2113 
L 3431 331 
L 3944 331 
L 3944 0 
L 2356 0 
L 2356 331 
L 2853 331 
L 2853 1931 
Q 2853 2541 2703 2767 
Q 2553 2994 2175 2994 
Q 1775 2994 1565 2701 
Q 1356 2409 1356 1850 
L 1356 331 
L 1856 331 
L 1856 0 
L 263 0 
z
" transform="scale(0.015625)"/>
       <path id="DejaVuSerif-74" d="M 691 2988 
L 184 2988 
L 184 3322 
L 691 3322 
L 691 4353 
L 1269 4353 
L 1269 3322 
L 2350 3322 
L 2350 2988 
L 1269 2988 
L 1269 878 
Q 1269 456 1350 337 
Q 1431 219 1650 219 
Q 1875 219 1978 351 
Q 2081 484 2088 781 
L 2522 781 
Q 2497 328 2275 118 
Q 2053 -91 1600 -91 
Q 1103 -91 897 129 
Q 691 350 691 878 
L 691 2988 
z
" transform="scale(0.015625)"/>
       <path id="DejaVuSerif-72" d="M 3059 3328 
L 3059 2497 
L 2728 2497 
Q 2713 2744 2591 2866 
Q 2469 2988 2234 2988 
Q 1809 2988 1582 2694 
Q 1356 2400 1356 1850 
L 1356 331 
L 2022 331 
L 2022 0 
L 263 0 
L 263 331 
L 781 331 
L 781 2994 
L 231 2994 
L 231 3322 
L 1356 3322 
L 1356 2731 
Q 1525 3078 1790 3245 
Q 2056 3413 2438 3413 
Q 2578 3413 2733 3391 
Q 2888 3369 3059 3328 
z
" transform="scale(0.015625)"/>
       <path id="DejaVuSerif-69" d="M 622 4353 
Q 622 4497 726 4603 
Q 831 4709 978 4709 
Q 1122 4709 1226 4603 
Q 1331 4497 1331 4353 
Q 1331 4206 1228 4103 
Q 1125 4000 978 4000 
Q 831 4000 726 4103 
Q 622 4206 622 4353 
z
M 1356 331 
L 1900 331 
L 1900 0 
L 231 0 
L 231 331 
L 781 331 
L 781 2988 
L 231 2988 
L 231 3322 
L 1356 3322 
L 1356 331 
z
" transform="scale(0.015625)"/>
       <path id="DejaVuSerif-65" d="M 3469 1600 
L 991 1600 
L 991 1575 
Q 991 903 1244 561 
Q 1497 219 1991 219 
Q 2369 219 2611 417 
Q 2853 616 2950 1006 
L 3413 1006 
Q 3275 459 2904 184 
Q 2534 -91 1931 -91 
Q 1203 -91 761 389 
Q 319 869 319 1663 
Q 319 2450 753 2931 
Q 1188 3413 1894 3413 
Q 2647 3413 3050 2948 
Q 3453 2484 3469 1600 
z
M 2791 1931 
Q 2772 2513 2545 2808 
Q 2319 3103 1894 3103 
Q 1497 3103 1269 2806 
Q 1041 2509 991 1931 
L 2791 1931 
z
" transform="scale(0.015625)"/>
       <path id="DejaVuSerif-73" d="M 359 184 
L 359 959 
L 691 959 
Q 703 588 923 403 
Q 1144 219 1575 219 
Q 1963 219 2166 364 
Q 2369 509 2369 788 
Q 2369 1006 2220 1140 
Q 2072 1275 1594 1428 
L 1178 1569 
Q 750 1706 558 1912 
Q 366 2119 366 2438 
Q 366 2894 700 3153 
Q 1034 3413 1625 3413 
Q 1888 3413 2178 3344 
Q 2469 3275 2778 3144 
L 2778 2419 
L 2447 2419 
Q 2434 2741 2221 2922 
Q 2009 3103 1644 3103 
Q 1281 3103 1095 2975 
Q 909 2847 909 2591 
Q 909 2381 1050 2254 
Q 1191 2128 1613 1997 
L 2069 1856 
Q 2541 1709 2748 1489 
Q 2956 1269 2956 922 
Q 2956 450 2595 179 
Q 2234 -91 1600 -91 
Q 1278 -91 972 -22 
Q 666 47 359 184 
z
" transform="scale(0.015625)"/>
      </defs>
      <use xlink:href="#DejaVuSerif-45"/>
      <use xlink:href="#DejaVuSerif-6e" x="72.998047"/>
      <use xlink:href="#DejaVuSerif-74" x="137.402344"/>
      <use xlink:href="#DejaVuSerif-72" x="177.587891"/>
      <use xlink:href="#DejaVuSerif-69" x="225.390625"/>
      <use xlink:href="#DejaVuSerif-65" x="257.373047"/>
      <use xlink:href="#DejaVuSerif-73" x="316.552734"/>
     </g>
    </g>
   </g>
   <g id="text_7">
    <!-- $\mathrm{\mathbf{Beast\,\,III}}$ $\int\,\mathcal{L}\,dt=(1 + 0.74)\,ab^{-1}$ -->
    <g style="fill: #1a1a1a" transform="translate(227.24 17.664375) scale(0.12 -0.12)">
     <defs>
      <path id="Cmb10-42" d="M 219 0 
L 219 325 
L 819 325 
L 819 4063 
L 219 4063 
L 219 4391 
L 2631 4391 
Q 2991 4391 3306 4270 
Q 3622 4150 3817 3898 
Q 4013 3647 4013 3278 
Q 4013 2888 3752 2636 
Q 3491 2384 3078 2297 
Q 3559 2238 3871 1952 
Q 4184 1666 4184 1197 
Q 4184 625 3789 312 
Q 3394 0 2809 0 
L 219 0 
z
M 1684 325 
L 2631 325 
Q 2838 325 2970 459 
Q 3103 594 3161 794 
Q 3219 994 3219 1197 
Q 3219 1384 3178 1606 
Q 3138 1828 3025 1992 
Q 2913 2156 2719 2156 
L 1684 2156 
L 1684 325 
z
M 1684 2413 
L 2450 2413 
Q 2766 2413 2922 2677 
Q 3078 2941 3078 3278 
Q 3078 3569 2978 3816 
Q 2878 4063 2631 4063 
L 1684 4063 
L 1684 2413 
z
" transform="scale(0.015625)"/>
      <path id="Cmb10-65" d="M 178 1441 
Q 178 1856 350 2189 
Q 522 2522 842 2711 
Q 1163 2900 1581 2900 
Q 2003 2900 2275 2726 
Q 2547 2553 2675 2242 
Q 2803 1931 2803 1522 
Q 2803 1428 2700 1394 
L 1025 1394 
Q 1025 1078 1070 829 
Q 1116 581 1275 412 
Q 1434 244 1741 244 
Q 2000 244 2208 394 
Q 2416 544 2484 788 
Q 2519 847 2578 863 
L 2700 863 
Q 2803 841 2803 750 
Q 2803 744 2797 709 
Q 2722 475 2553 308 
Q 2384 141 2150 51 
Q 1916 -38 1672 -38 
Q 1347 -38 1072 67 
Q 797 172 597 367 
Q 397 563 287 836 
Q 178 1109 178 1441 
z
M 1025 1631 
L 2169 1631 
Q 2169 1869 2120 2095 
Q 2072 2322 1940 2483 
Q 1809 2644 1581 2644 
Q 1250 2644 1137 2341 
Q 1025 2038 1025 1631 
z
" transform="scale(0.015625)"/>
      <path id="Cmb10-61" d="M 178 716 
Q 178 1081 468 1304 
Q 759 1528 1157 1618 
Q 1556 1709 1925 1709 
L 1925 1947 
Q 1925 2228 1803 2436 
Q 1681 2644 1416 2644 
Q 1244 2644 1050 2613 
Q 1184 2488 1184 2297 
Q 1184 2119 1068 2000 
Q 953 1881 775 1881 
Q 597 1881 478 2000 
Q 359 2119 359 2297 
Q 359 2541 529 2675 
Q 700 2809 937 2854 
Q 1175 2900 1422 2900 
Q 1731 2900 2018 2804 
Q 2306 2709 2493 2498 
Q 2681 2288 2681 1966 
L 2681 453 
Q 2709 325 3003 325 
Q 3084 306 3103 225 
L 3103 103 
Q 3084 19 3003 0 
L 2559 0 
Q 2366 0 2200 100 
Q 2034 200 2034 384 
L 2034 434 
Q 1922 219 1709 90 
Q 1497 -38 1253 -38 
Q 850 -38 514 153 
Q 178 344 178 716 
z
M 1331 219 
Q 1497 219 1633 305 
Q 1769 391 1847 533 
Q 1925 675 1925 838 
L 1925 1478 
Q 1697 1478 1472 1389 
Q 1247 1300 1100 1125 
Q 953 950 953 716 
Q 953 534 1058 376 
Q 1163 219 1331 219 
z
" transform="scale(0.015625)"/>
      <path id="Cmb10-73" d="M 213 44 
L 213 934 
Q 228 994 294 1013 
L 459 1013 
Q 522 991 538 934 
Q 703 219 1259 219 
Q 1825 219 1825 684 
Q 1825 800 1765 892 
Q 1706 984 1609 1045 
Q 1513 1106 1403 1131 
L 1019 1209 
Q 672 1294 442 1508 
Q 213 1722 213 2041 
Q 213 2272 292 2440 
Q 372 2609 517 2711 
Q 663 2813 847 2856 
Q 1031 2900 1259 2900 
Q 1559 2900 1759 2791 
L 1966 2894 
L 1991 2900 
L 2069 2900 
Q 2128 2884 2144 2822 
L 2144 2119 
Q 2128 2050 2069 2034 
L 1900 2034 
Q 1834 2050 1819 2119 
Q 1819 2288 1748 2411 
Q 1678 2534 1550 2601 
Q 1422 2669 1247 2669 
Q 691 2669 691 2284 
Q 691 2144 811 2048 
Q 931 1953 1088 1913 
L 1478 1838 
Q 1713 1778 1897 1654 
Q 2081 1531 2192 1339 
Q 2303 1147 2303 909 
Q 2303 428 2022 195 
Q 1741 -38 1259 -38 
Q 897 -38 659 141 
L 391 -31 
L 366 -38 
L 294 -38 
Q 228 -22 213 44 
z
" transform="scale(0.015625)"/>
      <path id="Cmb10-74" d="M 513 750 
L 513 2516 
L 122 2516 
L 122 2772 
Q 416 2772 600 2976 
Q 784 3181 862 3482 
Q 941 3784 941 4063 
L 1269 4063 
L 1269 2841 
L 2028 2841 
L 2028 2516 
L 1269 2516 
L 1269 769 
Q 1269 553 1320 398 
Q 1372 244 1538 244 
Q 1688 244 1747 409 
Q 1806 575 1806 769 
L 1806 1131 
L 2131 1131 
L 2131 750 
Q 2131 563 2051 378 
Q 1972 194 1822 78 
Q 1672 -38 1472 -38 
Q 1047 -38 780 151 
Q 513 341 513 750 
z
" transform="scale(0.015625)"/>
      <path id="Cmb10-49" d="M 166 0 
L 166 325 
L 800 325 
L 800 4063 
L 166 4063 
L 166 4391 
L 2369 4391 
L 2369 4063 
L 1734 4063 
L 1734 325 
L 2369 325 
L 2369 0 
L 166 0 
z
" transform="scale(0.015625)"/>
      <path id="DejaVuSerif-20" transform="scale(0.015625)"/>
      <path id="DejaVuSerif-222b" d="M 972 -819 
Q 1303 -819 1347 1331 
Q 1353 1669 1356 1847 
Q 1394 3456 1691 4150 
Q 1988 4844 2619 4844 
Q 2869 4844 3025 4712 
Q 3181 4581 3181 4378 
Q 3181 4209 3081 4111 
Q 2981 4013 2809 4013 
Q 2678 4013 2590 4072 
Q 2503 4131 2466 4241 
Q 2447 4288 2433 4400 
Q 2419 4513 2369 4513 
Q 2034 4513 1991 2578 
Q 1978 1975 1966 1631 
Q 1913 134 1617 -512 
Q 1322 -1159 709 -1159 
Q 463 -1159 305 -1029 
Q 147 -900 147 -697 
Q 147 -522 253 -423 
Q 359 -325 550 -325 
Q 653 -325 728 -370 
Q 803 -416 850 -503 
Q 881 -559 897 -689 
Q 913 -819 972 -819 
z
" transform="scale(0.015625)"/>
      <path id="Cmsy10-4c" d="M 238 -141 
Q 197 -141 197 -97 
Q 197 -72 219 -38 
Q 266 38 359 130 
Q 453 222 494 275 
Q 656 509 750 691 
Q 913 1028 1031 1466 
Q 1206 2163 1348 2597 
Q 1491 3031 1722 3419 
Q 1903 3719 2168 3967 
Q 2434 4216 2757 4364 
Q 3081 4513 3419 4513 
L 3456 4513 
Q 3622 4513 3734 4430 
Q 3847 4347 3905 4208 
Q 3963 4069 3963 3909 
Q 3963 3666 3884 3572 
Q 3663 3331 3359 3291 
L 3322 3291 
Q 3284 3291 3284 3334 
Q 3284 3341 3300 3431 
Q 3316 3522 3316 3584 
Q 3316 3791 3212 3944 
Q 3109 4097 2906 4097 
Q 2669 4097 2669 4056 
Q 2494 3934 2333 3651 
Q 2172 3369 2051 3039 
Q 1931 2709 1837 2376 
Q 1744 2044 1672 1753 
Q 1594 1438 1470 1148 
Q 1347 859 1178 603 
Q 1253 628 1363 628 
L 1403 628 
Q 1625 628 1847 583 
Q 2069 538 2378 450 
Q 2688 363 2894 320 
Q 3100 278 3328 275 
Q 3397 275 3440 337 
Q 3484 400 3526 511 
Q 3569 622 3597 659 
Q 3694 766 3834 844 
Q 3975 922 4116 941 
L 4153 941 
Q 4172 941 4184 928 
Q 4197 916 4197 897 
Q 4197 897 4191 878 
Q 4128 628 3897 386 
Q 3666 144 3370 1 
Q 3075 -141 2828 -141 
L 2791 -141 
Q 2569 -141 2356 -100 
Q 2144 -59 1834 28 
Q 1525 116 1304 162 
Q 1084 209 863 213 
Q 578 -100 275 -141 
L 238 -141 
z
" transform="scale(0.015625)"/>
      <path id="DejaVuSerif-64" d="M 3359 331 
L 3909 331 
L 3909 0 
L 2784 0 
L 2784 519 
Q 2616 206 2355 57 
Q 2094 -91 1709 -91 
Q 1097 -91 708 395 
Q 319 881 319 1663 
Q 319 2444 706 2928 
Q 1094 3413 1709 3413 
Q 2094 3413 2355 3264 
Q 2616 3116 2784 2803 
L 2784 4531 
L 2241 4531 
L 2241 4863 
L 3359 4863 
L 3359 331 
z
M 2784 1497 
L 2784 1825 
Q 2784 2422 2554 2737 
Q 2325 3053 1888 3053 
Q 1444 3053 1217 2703 
Q 991 2353 991 1663 
Q 991 975 1217 622 
Q 1444 269 1888 269 
Q 2325 269 2554 583 
Q 2784 897 2784 1497 
z
" transform="scale(0.015625)"/>
      <path id="DejaVuSerif-3d" d="M 678 2894 
L 4684 2894 
L 4684 2394 
L 678 2394 
L 678 2894 
z
M 678 1619 
L 4684 1619 
L 4684 1119 
L 678 1119 
L 678 1619 
z
" transform="scale(0.015625)"/>
      <path id="DejaVuSerif-28" d="M 2041 -997 
Q 1281 -656 893 83 
Q 506 822 506 1931 
Q 506 3044 893 3783 
Q 1281 4522 2041 4863 
L 2041 4556 
Q 1559 4225 1350 3623 
Q 1141 3022 1141 1931 
Q 1141 844 1350 242 
Q 1559 -359 2041 -691 
L 2041 -997 
z
" transform="scale(0.015625)"/>
      <path id="DejaVuSerif-31" d="M 909 0 
L 909 331 
L 1722 331 
L 1722 4213 
L 781 3603 
L 781 4013 
L 1919 4750 
L 2350 4750 
L 2350 331 
L 3163 331 
L 3163 0 
L 909 0 
z
" transform="scale(0.015625)"/>
      <path id="DejaVuSerif-2b" d="M 2931 4013 
L 2931 2259 
L 4684 2259 
L 4684 1753 
L 2931 1753 
L 2931 0 
L 2431 0 
L 2431 1753 
L 678 1753 
L 678 2259 
L 2431 2259 
L 2431 4013 
L 2931 4013 
z
" transform="scale(0.015625)"/>
      <path id="DejaVuSerif-2e" d="M 603 325 
Q 603 500 722 622 
Q 841 744 1019 744 
Q 1191 744 1312 622 
Q 1434 500 1434 325 
Q 1434 153 1312 31 
Q 1191 -91 1019 -91 
Q 841 -91 722 29 
Q 603 150 603 325 
z
" transform="scale(0.015625)"/>
      <path id="DejaVuSerif-37" d="M 3609 4347 
L 1784 0 
L 1319 0 
L 3059 4153 
L 903 4153 
L 903 3578 
L 538 3578 
L 538 4666 
L 3609 4666 
L 3609 4347 
z
" transform="scale(0.015625)"/>
      <path id="DejaVuSerif-29" d="M 453 -997 
L 453 -691 
Q 934 -359 1145 242 
Q 1356 844 1356 1931 
Q 1356 3022 1145 3623 
Q 934 4225 453 4556 
L 453 4863 
Q 1216 4522 1603 3783 
Q 1991 3044 1991 1931 
Q 1991 822 1603 83 
Q 1216 -656 453 -997 
z
" transform="scale(0.015625)"/>
      <path id="DejaVuSerif-61" d="M 2547 1044 
L 2547 1747 
L 1806 1747 
Q 1378 1747 1168 1562 
Q 959 1378 959 997 
Q 959 650 1171 447 
Q 1384 244 1747 244 
Q 2106 244 2326 466 
Q 2547 688 2547 1044 
z
M 3122 2075 
L 3122 331 
L 3634 331 
L 3634 0 
L 2547 0 
L 2547 359 
Q 2356 128 2106 18 
Q 1856 -91 1522 -91 
Q 969 -91 644 203 
Q 319 497 319 997 
Q 319 1513 691 1797 
Q 1063 2081 1741 2081 
L 2547 2081 
L 2547 2309 
Q 2547 2688 2317 2895 
Q 2088 3103 1672 3103 
Q 1328 3103 1125 2947 
Q 922 2791 872 2484 
L 575 2484 
L 575 3156 
Q 875 3284 1158 3348 
Q 1441 3413 1709 3413 
Q 2400 3413 2761 3070 
Q 3122 2728 3122 2075 
z
" transform="scale(0.015625)"/>
      <path id="DejaVuSerif-62" d="M 738 331 
L 738 4531 
L 184 4531 
L 184 4863 
L 1313 4863 
L 1313 2803 
Q 1481 3116 1742 3264 
Q 2003 3413 2388 3413 
Q 3000 3413 3387 2928 
Q 3775 2444 3775 1663 
Q 3775 881 3387 395 
Q 3000 -91 2388 -91 
Q 2003 -91 1742 57 
Q 1481 206 1313 519 
L 1313 0 
L 184 0 
L 184 331 
L 738 331 
z
M 1313 1497 
Q 1313 897 1542 583 
Q 1772 269 2209 269 
Q 2650 269 2876 622 
Q 3103 975 3103 1663 
Q 3103 2353 2876 2703 
Q 2650 3053 2209 3053 
Q 1772 3053 1542 2737 
Q 1313 2422 1313 1825 
L 1313 1497 
z
" transform="scale(0.015625)"/>
      <path id="DejaVuSerif-2212" d="M 678 2259 
L 4684 2259 
L 4684 1753 
L 678 1753 
L 678 2259 
z
" transform="scale(0.015625)"/>
     </defs>
     <use xlink:href="#Cmb10-42" transform="translate(0 0.7125)"/>
     <use xlink:href="#Cmb10-65" transform="translate(71.09375 0.7125)"/>
     <use xlink:href="#Cmb10-61" transform="translate(117.675781 0.7125)"/>
     <use xlink:href="#Cmb10-73" transform="translate(166.259766 0.7125)"/>
     <use xlink:href="#Cmb10-74" transform="translate(205.664062 0.7125)"/>
     <use xlink:href="#Cmb10-49" transform="translate(273.942643 0.7125)"/>
     <use xlink:href="#Cmb10-49" transform="translate(313.639908 0.7125)"/>
     <use xlink:href="#Cmb10-49" transform="translate(353.337174 0.7125)"/>
     <use xlink:href="#DejaVuSerif-20" transform="translate(393.034439 0.7125)"/>
     <use xlink:href="#DejaVuSerif-222b" transform="translate(424.821549 0.7125)"/>
     <use xlink:href="#Cmsy10-4c" transform="translate(491.553612 0.7125)"/>
     <use xlink:href="#DejaVuSerif-64" transform="translate(575.082551 0.7125)"/>
     <use xlink:href="#DejaVuSerif-74" transform="translate(639.096223 0.7125)"/>
     <use xlink:href="#DejaVuSerif-3d" transform="translate(696.840363 0.7125)"/>
     <use xlink:href="#DejaVuSerif-28" transform="translate(798.18802 0.7125)"/>
     <use xlink:href="#DejaVuSerif-31" transform="translate(837.201691 0.7125)"/>
     <use xlink:href="#DejaVuSerif-2b" transform="translate(918.383332 0.7125)"/>
     <use xlink:href="#DejaVuSerif-30" transform="translate(1019.730988 0.7125)"/>
     <use xlink:href="#DejaVuSerif-2e" transform="translate(1083.354035 0.7125)"/>
     <use xlink:href="#DejaVuSerif-37" transform="translate(1115.141145 0.7125)"/>
     <use xlink:href="#DejaVuSerif-34" transform="translate(1178.764191 0.7125)"/>
     <use xlink:href="#DejaVuSerif-29" transform="translate(1242.387238 0.7125)"/>
     <use xlink:href="#DejaVuSerif-61" transform="translate(1296.033364 0.7125)"/>
     <use xlink:href="#DejaVuSerif-62" transform="translate(1355.652505 0.7125)"/>
     <use xlink:href="#DejaVuSerif-2212" transform="translate(1420.574536 37.046875) scale(0.7)"/>
     <use xlink:href="#DejaVuSerif-31" transform="translate(1479.22688 37.046875) scale(0.7)"/>
    </g>
   </g>
   <g id="legend_1">
    <g id="patch_60">
     <path d="M 307.44125 41.728432 
L 331.44125 41.728432 
L 331.44125 33.328432 
L 307.44125 33.328432 
z
" style="fill: #b1dcc2; stroke: #000000; stroke-width: 0.5; stroke-linejoin: miter"/>
    </g>
    <g id="text_8">
     <!-- c2 -->
     <g style="fill: #1a1a1a" transform="translate(341.04125 41.728432) scale(0.12 -0.12)">
      <defs>
       <path id="DejaVuSerif-63" d="M 3291 997 
Q 3169 466 2822 187 
Q 2475 -91 1925 -91 
Q 1200 -91 759 389 
Q 319 869 319 1663 
Q 319 2459 759 2936 
Q 1200 3413 1925 3413 
Q 2241 3413 2553 3339 
Q 2866 3266 3181 3116 
L 3181 2266 
L 2847 2266 
Q 2781 2703 2561 2903 
Q 2341 3103 1931 3103 
Q 1466 3103 1228 2742 
Q 991 2381 991 1663 
Q 991 944 1227 581 
Q 1463 219 1931 219 
Q 2303 219 2525 412 
Q 2747 606 2828 997 
L 3291 997 
z
" transform="scale(0.015625)"/>
      </defs>
      <use xlink:href="#DejaVuSerif-63"/>
      <use xlink:href="#DejaVuSerif-32" x="56.005859"/>
     </g>
    </g>
    <g id="patch_61">
     <path d="M 307.44125 59.342182 
L 331.44125 59.342182 
L 331.44125 50.942182 
L 307.44125 50.942182 
z
" style="fill: #b67b76; stroke: #000000; stroke-width: 0.5; stroke-linejoin: miter"/>
    </g>
    <g id="text_9">
     <!-- c1 -->
     <g style="fill: #1a1a1a" transform="translate(341.04125 59.342182) scale(0.12 -0.12)">
      <use xlink:href="#DejaVuSerif-63"/>
      <use xlink:href="#DejaVuSerif-31" x="56.005859"/>
     </g>
    </g>
    <g id="patch_62">
     <path d="M 307.44125 76.955932 
L 331.44125 76.955932 
L 331.44125 68.555932 
L 307.44125 68.555932 
z
" style="fill: #3d4c74; stroke: #000000; stroke-width: 0.5; stroke-linejoin: miter"/>
    </g>
    <g id="text_10">
     <!-- c0 -->
     <g style="fill: #1a1a1a" transform="translate(341.04125 76.955932) scale(0.12 -0.12)">
      <use xlink:href="#DejaVuSerif-63"/>
      <use xlink:href="#DejaVuSerif-30" x="56.005859"/>
     </g>
    </g>
    <g id="LineCollection_2">
     <path d="M 319.44125 96.369682 
L 319.44125 84.369682 
" style="fill: none; stroke: #000000; stroke-width: 1.5"/>
    </g>
    <g id="line2d_44"/>
    <g id="line2d_45">
     <g>
      <use xlink:href="#md7f598efa8" x="319.44125" y="90.369682" style="stroke: #000000"/>
     </g>
    </g>
    <g id="text_11">
     <!-- Data -->
     <g style="fill: #1a1a1a" transform="translate(341.04125 94.569682) scale(0.12 -0.12)">
      <defs>
       <path id="DejaVuSerif-44" d="M 1581 331 
L 2163 331 
Q 3072 331 3558 850 
Q 4044 1369 4044 2338 
Q 4044 3306 3559 3818 
Q 3075 4331 2163 4331 
L 1581 4331 
L 1581 331 
z
M 353 0 
L 353 331 
L 947 331 
L 947 4331 
L 353 4331 
L 353 4666 
L 2209 4666 
Q 3416 4666 4089 4050 
Q 4763 3434 4763 2338 
Q 4763 1238 4088 619 
Q 3413 0 2209 0 
L 353 0 
z
" transform="scale(0.015625)"/>
      </defs>
      <use xlink:href="#DejaVuSerif-44"/>
      <use xlink:href="#DejaVuSerif-61" x="80.175781"/>
      <use xlink:href="#DejaVuSerif-74" x="139.794922"/>
      <use xlink:href="#DejaVuSerif-61" x="179.980469"/>
     </g>
    </g>
    <g id="patch_63">
     <path d="M 307.44125 112.183432 
L 331.44125 112.183432 
L 331.44125 103.783432 
L 307.44125 103.783432 
z
" style="fill: url(#h41abb06849)"/>
    </g>
    <g id="text_12">
     <!-- Stat. unc. -->
     <g style="fill: #1a1a1a" transform="translate(341.04125 112.183432) scale(0.12 -0.12)">
      <defs>
       <path id="DejaVuSerif-53" d="M 594 225 
L 594 1288 
L 953 1284 
Q 969 753 1261 498 
Q 1553 244 2150 244 
Q 2706 244 2998 464 
Q 3291 684 3291 1106 
Q 3291 1444 3114 1625 
Q 2938 1806 2369 1978 
L 1753 2163 
Q 1084 2366 811 2669 
Q 538 2972 538 3500 
Q 538 4094 959 4422 
Q 1381 4750 2144 4750 
Q 2469 4750 2856 4679 
Q 3244 4609 3681 4475 
L 3681 3481 
L 3328 3481 
Q 3275 3975 2998 4195 
Q 2722 4416 2156 4416 
Q 1663 4416 1405 4214 
Q 1147 4013 1147 3628 
Q 1147 3294 1340 3103 
Q 1534 2913 2163 2725 
L 2741 2553 
Q 3375 2363 3645 2067 
Q 3916 1772 3916 1275 
Q 3916 597 3481 253 
Q 3047 -91 2188 -91 
Q 1803 -91 1404 -12 
Q 1006 66 594 225 
z
" transform="scale(0.015625)"/>
       <path id="DejaVuSerif-75" d="M 2266 3322 
L 3341 3322 
L 3341 331 
L 3884 331 
L 3884 0 
L 2766 0 
L 2766 588 
Q 2606 256 2353 82 
Q 2100 -91 1766 -91 
Q 1213 -91 952 223 
Q 691 538 691 1209 
L 691 2988 
L 172 2988 
L 172 3322 
L 1269 3322 
L 1269 1388 
Q 1269 781 1417 556 
Q 1566 331 1947 331 
Q 2347 331 2556 625 
Q 2766 919 2766 1478 
L 2766 2988 
L 2266 2988 
L 2266 3322 
z
" transform="scale(0.015625)"/>
      </defs>
      <use xlink:href="#DejaVuSerif-53"/>
      <use xlink:href="#DejaVuSerif-74" x="68.505859"/>
      <use xlink:href="#DejaVuSerif-61" x="108.691406"/>
      <use xlink:href="#DejaVuSerif-74" x="168.310547"/>
      <use xlink:href="#DejaVuSerif-2e" x="208.496094"/>
      <use xlink:href="#DejaVuSerif-20" x="240.283203"/>
      <use xlink:href="#DejaVuSerif-75" x="272.070312"/>
      <use xlink:href="#DejaVuSerif-6e" x="336.474609"/>
      <use xlink:href="#DejaVuSerif-63" x="400.878906"/>
      <use xlink:href="#DejaVuSerif-2e" x="456.884766"/>
     </g>
    </g>
   </g>
  </g>
  <g id="axes_2">
   <g id="patch_64">
    <path d="M 75.68 243.570307 
L 410.48 243.570307 
L 410.48 202.312633 
L 75.68 202.312633 
z
" style="fill: #ffffff"/>
   </g>
   <g id="patch_65">
    <path d="M 75.68 222.94147 
L 75.68 222.94147 
L 82.376 222.94147 
L 82.376 216.553916 
L 89.072 216.553916 
L 89.072 221.494156 
L 95.768 221.494156 
L 95.768 221.494156 
L 102.464 221.494156 
L 102.464 224.076847 
L 109.16 224.076847 
L 109.16 217.433933 
L 115.856 217.433933 
L 115.856 221.531937 
L 122.552 221.531937 
L 122.552 212.772689 
L 129.248 212.772689 
L 129.248 209.207682 
L 135.944 209.207682 
L 135.944 212.275092 
L 142.64 212.275092 
L 142.64 212.564748 
L 149.336 212.564748 
L 149.336 205.01601 
L 156.032 205.01601 
L 156.032 213.007735 
L 162.728 213.007735 
L 162.728 204.614171 
L 169.424 204.614171 
L 169.424 205.941414 
L 176.12 205.941414 
L 176.12 200.269731 
L 182.816 200.269731 
L 182.816 200.217599 
L 189.512 200.217599 
L 189.512 203.516226 
L 196.208 203.516226 
L 196.208 202.873612 
L 202.904 202.873612 
L 202.904 200.736377 
L 209.6 200.736377 
L 209.6 200.904014 
L 216.296 200.904014 
L 216.296 202.835705 
L 222.992 202.835705 
L 222.992 208.772072 
L 229.688 208.772072 
L 229.688 222.964858 
L 236.384 222.964858 
L 236.384 221.652787 
L 243.08 221.652787 
L 243.08 237.258287 
L 249.776 237.258287 
L 249.776 251.922579 
L 256.472 251.922579 
L 256.472 267.128634 
L 263.168 267.128634 
L 263.168 261.474685 
L 269.864 261.474685 
L 269.864 264.192379 
L 276.56 264.192379 
L 276.56 263.735299 
L 283.256 263.735299 
L 283.256 261.010539 
L 289.952 261.010539 
L 289.952 261.489534 
L 296.648 261.489534 
L 296.648 257.909493 
L 303.344 257.909493 
L 303.344 247.490918 
L 310.04 247.490918 
L 310.04 231.269976 
L 316.736 231.269976 
L 316.736 231.301541 
L 323.432 231.301541 
L 323.432 229.670395 
L 330.128 229.670395 
L 330.128 222.680936 
L 336.824 222.680936 
L 336.824 224.51706 
L 343.52 224.51706 
L 343.52 222.004815 
L 350.216 222.004815 
L 350.216 225.936293 
L 356.912 225.936293 
L 356.912 228.256803 
L 363.608 228.256803 
L 363.608 224.387567 
L 370.304 224.387567 
L 370.304 223.675885 
L 377 223.675885 
L 377 217.786113 
L 383.696 217.786113 
L 383.696 222.94147 
L 390.392 222.94147 
L 390.392 223.675885 
L 397.088 223.675885 
L 397.088 223.675885 
L 403.784 223.675885 
L 403.784 222.94147 
L 410.48 222.94147 
L 410.48 222.94147 
L 403.784 222.94147 
L 403.784 222.94147 
L 397.088 222.94147 
L 397.088 222.94147 
L 390.392 222.94147 
L 390.392 222.94147 
L 383.696 222.94147 
L 383.696 222.94147 
L 377 222.94147 
L 377 222.94147 
L 370.304 222.94147 
L 370.304 222.94147 
L 363.608 222.94147 
L 363.608 222.94147 
L 356.912 222.94147 
L 356.912 222.94147 
L 350.216 222.94147 
L 350.216 222.94147 
L 343.52 222.94147 
L 343.52 222.94147 
L 336.824 222.94147 
L 336.824 222.94147 
L 330.128 222.94147 
L 330.128 222.94147 
L 323.432 222.94147 
L 323.432 222.94147 
L 316.736 222.94147 
L 316.736 222.94147 
L 310.04 222.94147 
L 310.04 222.94147 
L 303.344 222.94147 
L 303.344 222.94147 
L 296.648 222.94147 
L 296.648 222.94147 
L 289.952 222.94147 
L 289.952 222.94147 
L 283.256 222.94147 
L 283.256 222.94147 
L 276.56 222.94147 
L 276.56 222.94147 
L 269.864 222.94147 
L 269.864 222.94147 
L 263.168 222.94147 
L 263.168 222.94147 
L 256.472 222.94147 
L 256.472 222.94147 
L 249.776 222.94147 
L 249.776 222.94147 
L 243.08 222.94147 
L 243.08 222.94147 
L 236.384 222.94147 
L 236.384 222.94147 
L 229.688 222.94147 
L 229.688 222.94147 
L 222.992 222.94147 
L 222.992 222.94147 
L 216.296 222.94147 
L 216.296 222.94147 
L 209.6 222.94147 
L 209.6 222.94147 
L 202.904 222.94147 
L 202.904 222.94147 
L 196.208 222.94147 
L 196.208 222.94147 
L 189.512 222.94147 
L 189.512 222.94147 
L 182.816 222.94147 
L 182.816 222.94147 
L 176.12 222.94147 
L 176.12 222.94147 
L 169.424 222.94147 
L 169.424 222.94147 
L 162.728 222.94147 
L 162.728 222.94147 
L 156.032 222.94147 
L 156.032 222.94147 
L 149.336 222.94147 
L 149.336 222.94147 
L 142.64 222.94147 
L 142.64 222.94147 
L 135.944 222.94147 
L 135.944 222.94147 
L 129.248 222.94147 
L 129.248 222.94147 
L 122.552 222.94147 
L 122.552 222.94147 
L 115.856 222.94147 
L 115.856 222.94147 
L 109.16 222.94147 
L 109.16 222.94147 
L 102.464 222.94147 
L 102.464 222.94147 
L 95.768 222.94147 
L 95.768 222.94147 
L 89.072 222.94147 
L 89.072 222.94147 
L 82.376 222.94147 
L 82.376 222.94147 
z
" clip-path="url(#p14bcc4cdfd)" style="fill: #a9a9a9"/>
   </g>
   <g id="line2d_46">
    <path d="M 75.68 222.94147 
L 410.48 222.94147 
" clip-path="url(#p14bcc4cdfd)" style="fill: none; stroke-dasharray: 3.7,1.6; stroke-dashoffset: 0; stroke: #000000"/>
   </g>
   <g id="patch_66">
    <path d="M 75.68 243.570307 
L 75.68 202.312633 
" style="fill: none; stroke: #000000; stroke-linejoin: miter; stroke-linecap: square"/>
   </g>
   <g id="patch_67">
    <path d="M 410.48 243.570307 
L 410.48 202.312633 
" style="fill: none; stroke: #000000; stroke-linejoin: miter; stroke-linecap: square"/>
   </g>
   <g id="patch_68">
    <path d="M 75.68 243.570307 
L 410.48 243.570307 
" style="fill: none; stroke: #000000; stroke-linejoin: miter; stroke-linecap: square"/>
   </g>
   <g id="patch_69">
    <path d="M 75.68 202.312633 
L 410.48 202.312633 
" style="fill: none; stroke: #000000; stroke-linejoin: miter; stroke-linecap: square"/>
   </g>
   <g id="matplotlib.axis_3">
    <g id="xtick_23">
     <g id="line2d_47">
      <g>
       <use xlink:href="#m8712ac87e9" x="75.68" y="243.570307" style="fill: #1a1a1a; stroke: #1a1a1a; stroke-width: 0.8"/>
      </g>
     </g>
     <g id="text_13">
      <!-- $\mathdefault{10}$ -->
      <g style="fill: #1a1a1a" transform="translate(59.78 261.967963) scale(0.15 -0.15)">
       <use xlink:href="#DejaVuSerif-2212" transform="translate(0 0.78125)"/>
       <use xlink:href="#DejaVuSerif-31" transform="translate(83.789062 0.78125)"/>
       <use xlink:href="#DejaVuSerif-30" transform="translate(147.412109 0.78125)"/>
      </g>
     </g>
    </g>
    <g id="xtick_24">
     <g id="line2d_48">
      <g>
       <use xlink:href="#m8712ac87e9" x="155.394286" y="243.570307" style="fill: #1a1a1a; stroke: #1a1a1a; stroke-width: 0.8"/>
      </g>
     </g>
     <g id="text_14">
      <!-- $\mathdefault{5}$ -->
      <g style="fill: #1a1a1a" transform="translate(144.294286 261.967963) scale(0.15 -0.15)">
       <defs>
        <path id="DejaVuSerif-35" d="M 3219 4666 
L 3219 4153 
L 1081 4153 
L 1081 2816 
Q 1244 2928 1461 2984 
Q 1678 3041 1947 3041 
Q 2703 3041 3140 2622 
Q 3578 2203 3578 1478 
Q 3578 738 3136 323 
Q 2694 -91 1894 -91 
Q 1572 -91 1234 -12 
Q 897 66 544 225 
L 544 1131 
L 897 1131 
Q 925 688 1179 453 
Q 1434 219 1894 219 
Q 2388 219 2653 544 
Q 2919 869 2919 1478 
Q 2919 2084 2655 2407 
Q 2391 2731 1894 2731 
Q 1613 2731 1398 2631 
Q 1184 2531 1019 2322 
L 750 2322 
L 750 4666 
L 3219 4666 
z
" transform="scale(0.015625)"/>
       </defs>
       <use xlink:href="#DejaVuSerif-2212" transform="translate(0 0.09375)"/>
       <use xlink:href="#DejaVuSerif-35" transform="translate(83.789062 0.09375)"/>
      </g>
     </g>
    </g>
    <g id="xtick_25">
     <g id="line2d_49">
      <g>
       <use xlink:href="#m8712ac87e9" x="235.108571" y="243.570307" style="fill: #1a1a1a; stroke: #1a1a1a; stroke-width: 0.8"/>
      </g>
     </g>
     <g id="text_15">
      <!-- $\mathdefault{0}$ -->
      <g style="fill: #1a1a1a" transform="translate(230.308571 261.967963) scale(0.15 -0.15)">
       <use xlink:href="#DejaVuSerif-30" transform="translate(0 0.78125)"/>
      </g>
     </g>
    </g>
    <g id="xtick_26">
     <g id="line2d_50">
      <g>
       <use xlink:href="#m8712ac87e9" x="314.822857" y="243.570307" style="fill: #1a1a1a; stroke: #1a1a1a; stroke-width: 0.8"/>
      </g>
     </g>
     <g id="text_16">
      <!-- $\mathdefault{5}$ -->
      <g style="fill: #1a1a1a" transform="translate(310.022857 261.967963) scale(0.15 -0.15)">
       <use xlink:href="#DejaVuSerif-35" transform="translate(0 0.09375)"/>
      </g>
     </g>
    </g>
    <g id="xtick_27">
     <g id="line2d_51">
      <g>
       <use xlink:href="#m8712ac87e9" x="394.537143" y="243.570307" style="fill: #1a1a1a; stroke: #1a1a1a; stroke-width: 0.8"/>
      </g>
     </g>
     <g id="text_17">
      <!-- $\mathdefault{10}$ -->
      <g style="fill: #1a1a1a" transform="translate(384.937143 261.967963) scale(0.15 -0.15)">
       <use xlink:href="#DejaVuSerif-31" transform="translate(0 0.78125)"/>
       <use xlink:href="#DejaVuSerif-30" transform="translate(63.623047 0.78125)"/>
      </g>
     </g>
    </g>
    <g id="xtick_28">
     <g id="line2d_52">
      <g>
       <use xlink:href="#m2c3e7ffbe4" x="91.622857" y="243.570307" style="fill: #1a1a1a; stroke: #1a1a1a; stroke-width: 0.6"/>
      </g>
     </g>
    </g>
    <g id="xtick_29">
     <g id="line2d_53">
      <g>
       <use xlink:href="#m2c3e7ffbe4" x="107.565714" y="243.570307" style="fill: #1a1a1a; stroke: #1a1a1a; stroke-width: 0.6"/>
      </g>
     </g>
    </g>
    <g id="xtick_30">
     <g id="line2d_54">
      <g>
       <use xlink:href="#m2c3e7ffbe4" x="123.508571" y="243.570307" style="fill: #1a1a1a; stroke: #1a1a1a; stroke-width: 0.6"/>
      </g>
     </g>
    </g>
    <g id="xtick_31">
     <g id="line2d_55">
      <g>
       <use xlink:href="#m2c3e7ffbe4" x="139.451429" y="243.570307" style="fill: #1a1a1a; stroke: #1a1a1a; stroke-width: 0.6"/>
      </g>
     </g>
    </g>
    <g id="xtick_32">
     <g id="line2d_56">
      <g>
       <use xlink:href="#m2c3e7ffbe4" x="171.337143" y="243.570307" style="fill: #1a1a1a; stroke: #1a1a1a; stroke-width: 0.6"/>
      </g>
     </g>
    </g>
    <g id="xtick_33">
     <g id="line2d_57">
      <g>
       <use xlink:href="#m2c3e7ffbe4" x="187.28" y="243.570307" style="fill: #1a1a1a; stroke: #1a1a1a; stroke-width: 0.6"/>
      </g>
     </g>
    </g>
    <g id="xtick_34">
     <g id="line2d_58">
      <g>
       <use xlink:href="#m2c3e7ffbe4" x="203.222857" y="243.570307" style="fill: #1a1a1a; stroke: #1a1a1a; stroke-width: 0.6"/>
      </g>
     </g>
    </g>
    <g id="xtick_35">
     <g id="line2d_59">
      <g>
       <use xlink:href="#m2c3e7ffbe4" x="219.165714" y="243.570307" style="fill: #1a1a1a; stroke: #1a1a1a; stroke-width: 0.6"/>
      </g>
     </g>
    </g>
    <g id="xtick_36">
     <g id="line2d_60">
      <g>
       <use xlink:href="#m2c3e7ffbe4" x="251.051429" y="243.570307" style="fill: #1a1a1a; stroke: #1a1a1a; stroke-width: 0.6"/>
      </g>
     </g>
    </g>
    <g id="xtick_37">
     <g id="line2d_61">
      <g>
       <use xlink:href="#m2c3e7ffbe4" x="266.994286" y="243.570307" style="fill: #1a1a1a; stroke: #1a1a1a; stroke-width: 0.6"/>
      </g>
     </g>
    </g>
    <g id="xtick_38">
     <g id="line2d_62">
      <g>
       <use xlink:href="#m2c3e7ffbe4" x="282.937143" y="243.570307" style="fill: #1a1a1a; stroke: #1a1a1a; stroke-width: 0.6"/>
      </g>
     </g>
    </g>
    <g id="xtick_39">
     <g id="line2d_63">
      <g>
       <use xlink:href="#m2c3e7ffbe4" x="298.88" y="243.570307" style="fill: #1a1a1a; stroke: #1a1a1a; stroke-width: 0.6"/>
      </g>
     </g>
    </g>
    <g id="xtick_40">
     <g id="line2d_64">
      <g>
       <use xlink:href="#m2c3e7ffbe4" x="330.765714" y="243.570307" style="fill: #1a1a1a; stroke: #1a1a1a; stroke-width: 0.6"/>
      </g>
     </g>
    </g>
    <g id="xtick_41">
     <g id="line2d_65">
      <g>
       <use xlink:href="#m2c3e7ffbe4" x="346.708571" y="243.570307" style="fill: #1a1a1a; stroke: #1a1a1a; stroke-width: 0.6"/>
      </g>
     </g>
    </g>
    <g id="xtick_42">
     <g id="line2d_66">
      <g>
       <use xlink:href="#m2c3e7ffbe4" x="362.651429" y="243.570307" style="fill: #1a1a1a; stroke: #1a1a1a; stroke-width: 0.6"/>
      </g>
     </g>
    </g>
    <g id="xtick_43">
     <g id="line2d_67">
      <g>
       <use xlink:href="#m2c3e7ffbe4" x="378.594286" y="243.570307" style="fill: #1a1a1a; stroke: #1a1a1a; stroke-width: 0.6"/>
      </g>
     </g>
    </g>
    <g id="xtick_44">
     <g id="line2d_68">
      <g>
       <use xlink:href="#m2c3e7ffbe4" x="410.48" y="243.570307" style="fill: #1a1a1a; stroke: #1a1a1a; stroke-width: 0.6"/>
      </g>
     </g>
    </g>
    <g id="text_18">
     <!-- variable_1 -->
     <g style="fill: #1a1a1a" transform="translate(195.889063 284.764682) scale(0.18 -0.18)">
      <defs>
       <path id="DejaVuSerif-76" d="M 1581 0 
L 359 2988 
L -19 2988 
L -19 3322 
L 1509 3322 
L 1509 2988 
L 978 2988 
L 1913 703 
L 2847 2988 
L 2350 2988 
L 2350 3322 
L 3597 3322 
L 3597 2988 
L 3225 2988 
L 2003 0 
L 1581 0 
z
" transform="scale(0.015625)"/>
       <path id="DejaVuSerif-6c" d="M 1313 331 
L 1856 331 
L 1856 0 
L 184 0 
L 184 331 
L 738 331 
L 738 4531 
L 184 4531 
L 184 4863 
L 1313 4863 
L 1313 331 
z
" transform="scale(0.015625)"/>
       <path id="DejaVuSerif-5f" d="M 3200 -1259 
L 3200 -1509 
L 0 -1509 
L 0 -1259 
L 3200 -1259 
z
" transform="scale(0.015625)"/>
      </defs>
      <use xlink:href="#DejaVuSerif-76"/>
      <use xlink:href="#DejaVuSerif-61" x="56.494141"/>
      <use xlink:href="#DejaVuSerif-72" x="116.113281"/>
      <use xlink:href="#DejaVuSerif-69" x="163.916016"/>
      <use xlink:href="#DejaVuSerif-61" x="195.898438"/>
      <use xlink:href="#DejaVuSerif-62" x="255.517578"/>
      <use xlink:href="#DejaVuSerif-6c" x="319.53125"/>
      <use xlink:href="#DejaVuSerif-65" x="351.513672"/>
      <use xlink:href="#DejaVuSerif-5f" x="410.693359"/>
      <use xlink:href="#DejaVuSerif-31" x="460.693359"/>
     </g>
    </g>
   </g>
   <g id="matplotlib.axis_4">
    <g id="ytick_21">
     <g id="line2d_69">
      <g>
       <use xlink:href="#mcf981b272a" x="75.68" y="243.570307" style="fill: #1a1a1a; stroke: #1a1a1a; stroke-width: 0.8"/>
      </g>
     </g>
     <g id="text_19">
      <!-- $\mathdefault{5}$ -->
      <g style="fill: #1a1a1a" transform="translate(48.48 249.269135) scale(0.15 -0.15)">
       <use xlink:href="#DejaVuSerif-2212" transform="translate(0 0.09375)"/>
       <use xlink:href="#DejaVuSerif-35" transform="translate(83.789062 0.09375)"/>
      </g>
     </g>
    </g>
    <g id="ytick_22">
     <g id="line2d_70">
      <g>
       <use xlink:href="#mcf981b272a" x="75.68" y="222.94147" style="fill: #1a1a1a; stroke: #1a1a1a; stroke-width: 0.8"/>
      </g>
     </g>
     <g id="text_20">
      <!-- $\mathdefault{0}$ -->
      <g style="fill: #1a1a1a" transform="translate(61.08 228.640298) scale(0.15 -0.15)">
       <use xlink:href="#DejaVuSerif-30" transform="translate(0 0.78125)"/>
      </g>
     </g>
    </g>
    <g id="ytick_23">
     <g id="line2d_71">
      <g>
       <use xlink:href="#mcf981b272a" x="75.68" y="202.312633" style="fill: #1a1a1a; stroke: #1a1a1a; stroke-width: 0.8"/>
      </g>
     </g>
     <g id="text_21">
      <!-- $\mathdefault{5}$ -->
      <g style="fill: #1a1a1a" transform="translate(61.08 208.011461) scale(0.15 -0.15)">
       <use xlink:href="#DejaVuSerif-35" transform="translate(0 0.09375)"/>
      </g>
     </g>
    </g>
    <g id="ytick_24">
     <g id="line2d_72">
      <g>
       <use xlink:href="#me8cfa20a73" x="75.68" y="239.44454" style="fill: #1a1a1a; stroke: #1a1a1a; stroke-width: 0.6"/>
      </g>
     </g>
    </g>
    <g id="ytick_25">
     <g id="line2d_73">
      <g>
       <use xlink:href="#me8cfa20a73" x="75.68" y="235.318772" style="fill: #1a1a1a; stroke: #1a1a1a; stroke-width: 0.6"/>
      </g>
     </g>
    </g>
    <g id="ytick_26">
     <g id="line2d_74">
      <g>
       <use xlink:href="#me8cfa20a73" x="75.68" y="231.193005" style="fill: #1a1a1a; stroke: #1a1a1a; stroke-width: 0.6"/>
      </g>
     </g>
    </g>
    <g id="ytick_27">
     <g id="line2d_75">
      <g>
       <use xlink:href="#me8cfa20a73" x="75.68" y="227.067237" style="fill: #1a1a1a; stroke: #1a1a1a; stroke-width: 0.6"/>
      </g>
     </g>
    </g>
    <g id="ytick_28">
     <g id="line2d_76">
      <g>
       <use xlink:href="#me8cfa20a73" x="75.68" y="218.815702" style="fill: #1a1a1a; stroke: #1a1a1a; stroke-width: 0.6"/>
      </g>
     </g>
    </g>
    <g id="ytick_29">
     <g id="line2d_77">
      <g>
       <use xlink:href="#me8cfa20a73" x="75.68" y="214.689935" style="fill: #1a1a1a; stroke: #1a1a1a; stroke-width: 0.6"/>
      </g>
     </g>
    </g>
    <g id="ytick_30">
     <g id="line2d_78">
      <g>
       <use xlink:href="#me8cfa20a73" x="75.68" y="210.564167" style="fill: #1a1a1a; stroke: #1a1a1a; stroke-width: 0.6"/>
      </g>
     </g>
    </g>
    <g id="ytick_31">
     <g id="line2d_79">
      <g>
       <use xlink:href="#me8cfa20a73" x="75.68" y="206.4384" style="fill: #1a1a1a; stroke: #1a1a1a; stroke-width: 0.6"/>
      </g>
     </g>
    </g>
    <g id="text_22">
     <!-- $\frac{ Data - Pred. }{ \sqrt{\sigma^2_{Data} + \sigma^2_{Pred.}} } $ -->
     <g style="fill: #1a1a1a" transform="translate(25.02 270.73147) rotate(-90) scale(0.18 -0.18)">
      <defs>
       <path id="DejaVuSerif-50" d="M 1581 2375 
L 2406 2375 
Q 2872 2375 3115 2626 
Q 3359 2878 3359 3353 
Q 3359 3831 3115 4081 
Q 2872 4331 2406 4331 
L 1581 4331 
L 1581 2375 
z
M 353 0 
L 353 331 
L 947 331 
L 947 4331 
L 353 4331 
L 353 4666 
L 2559 4666 
Q 3259 4666 3668 4311 
Q 4078 3956 4078 3353 
Q 4078 2753 3668 2397 
Q 3259 2041 2559 2041 
L 1581 2041 
L 1581 331 
L 2303 331 
L 2303 0 
L 353 0 
z
" transform="scale(0.015625)"/>
       <path id="Cmex10-71" d="M 2713 -11263 
L 1259 -6188 
L 819 -6700 
L 703 -6578 
L 1619 -5503 
L 2981 -10266 
L 6284 178 
Q 6306 256 6400 256 
Q 6453 256 6490 218 
Q 6528 181 6528 128 
L 6528 103 
L 2963 -11188 
Q 2925 -11263 2853 -11263 
L 2713 -11263 
z
" transform="scale(0.015625)"/>
       <path id="DejaVuSerif-3c3" d="M 1925 219 
Q 2388 219 2623 584 
Q 2859 950 2859 1663 
Q 2859 2309 2625 2706 
Q 2416 3044 1925 3047 
Q 1447 3047 1225 2706 
Q 991 2341 991 1663 
Q 991 950 1228 584 
Q 1466 219 1925 219 
z
M 1931 3322 
Q 3206 3322 4181 3322 
L 4181 2988 
L 3038 2988 
Q 3531 2509 3531 1663 
Q 3531 869 3092 389 
Q 2653 -91 1925 -91 
Q 1200 -91 759 389 
Q 319 869 319 1662 
Q 319 2456 756 2934 
Q 1113 3322 1931 3322 
z
" transform="scale(0.015625)"/>
      </defs>
      <use xlink:href="#DejaVuSerif-44" transform="translate(33 45.810938) scale(0.7)"/>
      <use xlink:href="#DejaVuSerif-61" transform="translate(89.123047 45.810938) scale(0.7)"/>
      <use xlink:href="#DejaVuSerif-74" transform="translate(130.856445 45.810938) scale(0.7)"/>
      <use xlink:href="#DejaVuSerif-61" transform="translate(158.986328 45.810938) scale(0.7)"/>
      <use xlink:href="#DejaVuSerif-2212" transform="translate(213.010742 45.810938) scale(0.7)"/>
      <use xlink:href="#DejaVuSerif-50" transform="translate(283.954102 45.810938) scale(0.7)"/>
      <use xlink:href="#DejaVuSerif-72" transform="translate(331.053711 45.810938) scale(0.7)"/>
      <use xlink:href="#DejaVuSerif-65" transform="translate(364.515625 45.810938) scale(0.7)"/>
      <use xlink:href="#DejaVuSerif-64" transform="translate(405.941406 45.810938) scale(0.7)"/>
      <use xlink:href="#DejaVuSerif-2e" transform="translate(450.750977 45.810938) scale(0.7)"/>
      <use xlink:href="#Cmex10-71" transform="translate(0 7.030469) scale(0.582946)"/>
      <use xlink:href="#DejaVuSerif-3c3" transform="translate(67.035937 -76.991719) scale(0.7)"/>
      <use xlink:href="#DejaVuSerif-32" transform="translate(115.454992 -50.684844) scale(0.49)"/>
      <use xlink:href="#DejaVuSerif-44" transform="translate(115.454992 -95.158906) scale(0.49)"/>
      <use xlink:href="#DejaVuSerif-61" transform="translate(154.741125 -95.158906) scale(0.49)"/>
      <use xlink:href="#DejaVuSerif-74" transform="translate(183.954504 -95.158906) scale(0.49)"/>
      <use xlink:href="#DejaVuSerif-61" transform="translate(203.645422 -95.158906) scale(0.49)"/>
      <use xlink:href="#DejaVuSerif-2b" transform="translate(246.966535 -76.991719) scale(0.7)"/>
      <use xlink:href="#DejaVuSerif-3c3" transform="translate(317.909895 -76.991719) scale(0.7)"/>
      <use xlink:href="#DejaVuSerif-32" transform="translate(366.328949 -49.176562) scale(0.49)"/>
      <use xlink:href="#DejaVuSerif-50" transform="translate(366.328949 -95.158906) scale(0.49)"/>
      <use xlink:href="#DejaVuSerif-72" transform="translate(399.298676 -95.158906) scale(0.49)"/>
      <use xlink:href="#DejaVuSerif-65" transform="translate(422.722016 -95.158906) scale(0.49)"/>
      <use xlink:href="#DejaVuSerif-64" transform="translate(451.720062 -95.158906) scale(0.49)"/>
      <use xlink:href="#DejaVuSerif-2e" transform="translate(483.086762 -95.158906) scale(0.49)"/>
      <path d="M 0 19.815625 
L 0 26.065625 
L 517.832875 26.065625 
L 517.832875 19.815625 
L 0 19.815625 
z
"/>
      <path d="M 58.285937 4.815625 
L 58.285937 9.190625 
L 517.832875 9.190625 
L 517.832875 4.815625 
L 58.285937 4.815625 
z
"/>
     </g>
    </g>
   </g>
  </g>
 </g>
 <defs>
  <clipPath id="p4a3757f549">
   <rect x="75.68" y="21.810307" width="334.8" height="165.030698"/>
  </clipPath>
  <clipPath id="p14bcc4cdfd">
   <rect x="75.68" y="202.312633" width="334.8" height="41.257674"/>
  </clipPath>
 </defs>
 <defs>
  <pattern id="h41abb06849" patternUnits="userSpaceOnUse" x="0" y="0" width="72" height="72">
   <rect x="0" y="0" width="73" height="73" fill="none"/>
   <path d="M -36 36 
L 36 -36 
M -33 39 
L 39 -33 
M -30 42 
L 42 -30 
M -27 45 
L 45 -27 
M -24 48 
L 48 -24 
M -21 51 
L 51 -21 
M -18 54 
L 54 -18 
M -15 57 
L 57 -15 
M -12 60 
L 60 -12 
M -9 63 
L 63 -9 
M -6 66 
L 66 -6 
M -3 69 
L 69 -3 
M 0 72 
L 72 0 
M 3 75 
L 75 3 
M 6 78 
L 78 6 
M 9 81 
L 81 9 
M 12 84 
L 84 12 
M 15 87 
L 87 15 
M 18 90 
L 90 18 
M 21 93 
L 93 21 
M 24 96 
L 96 24 
M 27 99 
L 99 27 
M 30 102 
L 102 30 
M 33 105 
L 105 33 
M 36 108 
L 108 36 
" style="fill: #696969; stroke: #696969; stroke-width: 1.0; stroke-linecap: butt; stroke-linejoin: miter"/>
  </pattern>
 </defs>
</svg>
