<?xml version="1.0" encoding="utf-8" standalone="no"?>
<!DOCTYPE svg PUBLIC "-//W3C//DTD SVG 1.1//EN"
  "http://www.w3.org/Graphics/SVG/1.1/DTD/svg11.dtd">
<svg xmlns:xlink="http://www.w3.org/1999/xlink" width="432pt" height="288pt" viewBox="0 0 432 288" xmlns="http://www.w3.org/2000/svg" version="1.1">
 <metadata>
  <rdf:RDF xmlns:dc="http://purl.org/dc/elements/1.1/" xmlns:cc="http://creativecommons.org/ns#" xmlns:rdf="http://www.w3.org/1999/02/22-rdf-syntax-ns#">
   <cc:Work>
    <dc:type rdf:resource="http://purl.org/dc/dcmitype/StillImage"/>
    <dc:date>2023-06-02T18:33:10.179323</dc:date>
    <dc:format>image/svg+xml</dc:format>
    <dc:creator>
     <cc:Agent>
      <dc:title>Matplotlib v3.7.1, https://matplotlib.org/</dc:title>
     </cc:Agent>
    </dc:creator>
   </cc:Work>
  </rdf:RDF>
 </metadata>
 <defs>
  <style type="text/css">*{stroke-linejoin: round; stroke-linecap: butt}</style>
 </defs>
 <g id="figure_1">
  <g id="patch_1">
   <path d="M 0 288 
L 432 288 
L 432 0 
L 0 0 
z
" style="fill: #ffffff"/>
  </g>
  <g id="axes_1">
   <g id="patch_2">
    <path d="M 62.64 176.465455 
L 419.04 176.465455 
L 419.04 17.28 
L 62.64 17.28 
z
" style="fill: #ffffff"/>
   </g>
   <g id="patch_3">
    <path d="M 62.64 143.284838 
L 62.64 140.922526 
L 107.19 140.922526 
L 107.19 91.479524 
L 151.74 91.479524 
L 151.74 90.753638 
L 196.29 90.753638 
L 196.29 163.97258 
L 240.84 163.97258 
L 240.84 159.738247 
L 285.39 159.738247 
L 285.39 96.439743 
L 329.94 96.439743 
L 329.94 46.11167 
L 374.49 46.11167 
L 374.49 134.090287 
L 419.04 134.090287 
L 419.04 138.509275 
L 374.49 138.509275 
L 374.49 58.942017 
L 329.94 58.942017 
L 329.94 112.001713 
L 285.39 112.001713 
L 285.39 164.475606 
L 240.84 164.475606 
L 240.84 167.264535 
L 196.29 167.264535 
L 196.29 101.571882 
L 151.74 101.571882 
L 151.74 107.423539 
L 107.19 107.423539 
L 107.19 143.284838 
z
" clip-path="url(#p67f3b3cf28)" style="fill: #b1dcc2; stroke: #000000; stroke-width: 0.5; stroke-linejoin: miter"/>
   </g>
   <g id="patch_4">
    <path d="M 62.64 144.182644 
L 62.64 143.284838 
L 107.19 143.284838 
L 107.19 107.423539 
L 151.74 107.423539 
L 151.74 101.571882 
L 196.29 101.571882 
L 196.29 167.264535 
L 240.84 167.264535 
L 240.84 164.475606 
L 285.39 164.475606 
L 285.39 112.001713 
L 329.94 112.001713 
L 329.94 58.942017 
L 374.49 58.942017 
L 374.49 138.509275 
L 419.04 138.509275 
L 419.04 142.374298 
L 374.49 142.374298 
L 374.49 89.511992 
L 329.94 89.511992 
L 329.94 135.421077 
L 285.39 135.421077 
L 285.39 169.25117 
L 240.84 169.25117 
L 240.84 168.576223 
L 196.29 168.576223 
L 196.29 104.21436 
L 151.74 104.21436 
L 151.74 110.327082 
L 107.19 110.327082 
L 107.19 144.182644 
z
" clip-path="url(#p67f3b3cf28)" style="fill: #a9c593; stroke: #000000; stroke-width: 0.5; stroke-linejoin: miter"/>
   </g>
   <g id="patch_5">
    <path d="M 62.64 144.704773 
L 62.64 144.182644 
L 107.19 144.182644 
L 107.19 110.327082 
L 151.74 110.327082 
L 151.74 104.21436 
L 196.29 104.21436 
L 196.29 168.576223 
L 240.84 168.576223 
L 240.84 169.25117 
L 285.39 169.25117 
L 285.39 135.421077 
L 329.94 135.421077 
L 329.94 89.511992 
L 374.49 89.511992 
L 374.49 142.374298 
L 419.04 142.374298 
L 419.04 154.294104 
L 374.49 154.294104 
L 374.49 105.959033 
L 329.94 105.959033 
L 329.94 136.427129 
L 285.39 136.427129 
L 285.39 169.289374 
L 240.84 169.289374 
L 240.84 170.499184 
L 196.29 170.499184 
L 196.29 131.785281 
L 151.74 131.785281 
L 151.74 120.304826 
L 107.19 120.304826 
L 107.19 144.704773 
z
" clip-path="url(#p67f3b3cf28)" style="fill: #b2a275; stroke: #000000; stroke-width: 0.5; stroke-linejoin: miter"/>
   </g>
   <g id="patch_6">
    <path d="M 62.64 153.657363 
L 62.64 144.704773 
L 107.19 144.704773 
L 107.19 120.304826 
L 151.74 120.304826 
L 151.74 131.785281 
L 196.29 131.785281 
L 196.29 170.499184 
L 240.84 170.499184 
L 240.84 169.289374 
L 285.39 169.289374 
L 285.39 136.427129 
L 329.94 136.427129 
L 329.94 105.959033 
L 374.49 105.959033 
L 374.49 154.294104 
L 419.04 154.294104 
L 419.04 163.877069 
L 374.49 163.877069 
L 374.49 133.307094 
L 329.94 133.307094 
L 329.94 150.072506 
L 285.39 150.072506 
L 285.39 170.957638 
L 240.84 170.957638 
L 240.84 170.60743 
L 196.29 170.60743 
L 196.29 134.109389 
L 151.74 134.109389 
L 151.74 126.111912 
L 107.19 126.111912 
L 107.19 153.657363 
z
" clip-path="url(#p67f3b3cf28)" style="fill: #b67b76; stroke: #000000; stroke-width: 0.5; stroke-linejoin: miter"/>
   </g>
   <g id="patch_7">
    <path d="M 62.64 154.001203 
L 62.64 153.657363 
L 107.19 153.657363 
L 107.19 126.111912 
L 151.74 126.111912 
L 151.74 134.109389 
L 196.29 134.109389 
L 196.29 170.60743 
L 240.84 170.60743 
L 240.84 170.957638 
L 285.39 170.957638 
L 285.39 150.072506 
L 329.94 150.072506 
L 329.94 133.307094 
L 374.49 133.307094 
L 374.49 163.877069 
L 419.04 163.877069 
L 419.04 170.206282 
L 374.49 170.206282 
L 374.49 154.695252 
L 329.94 154.695252 
L 329.94 159.674573 
L 285.39 159.674573 
L 285.39 171.96369 
L 240.84 171.96369 
L 240.84 175.147399 
L 196.29 175.147399 
L 196.29 154.631578 
L 151.74 154.631578 
L 151.74 132.842273 
L 107.19 132.842273 
L 107.19 154.001203 
z
" clip-path="url(#p67f3b3cf28)" style="fill: #a15f86; stroke: #000000; stroke-width: 0.5; stroke-linejoin: miter"/>
   </g>
   <g id="patch_8">
    <path d="M 62.64 171.314213 
L 62.64 154.001203 
L 107.19 154.001203 
L 107.19 132.842273 
L 151.74 132.842273 
L 151.74 154.631578 
L 196.29 154.631578 
L 196.29 175.147399 
L 240.84 175.147399 
L 240.84 171.96369 
L 285.39 171.96369 
L 285.39 159.674573 
L 329.94 159.674573 
L 329.94 154.695252 
L 374.49 154.695252 
L 374.49 170.206282 
L 419.04 170.206282 
L 419.04 170.709309 
L 374.49 170.709309 
L 374.49 159.789186 
L 329.94 159.789186 
L 329.94 169.633215 
L 285.39 169.633215 
L 285.39 176.153451 
L 240.84 176.153451 
L 240.84 175.68863 
L 196.29 175.68863 
L 196.29 164.36736 
L 151.74 164.36736 
L 151.74 154.096714 
L 107.19 154.096714 
L 107.19 171.314213 
z
" clip-path="url(#p67f3b3cf28)" style="fill: #73528c; stroke: #000000; stroke-width: 0.5; stroke-linejoin: miter"/>
   </g>
   <g id="patch_9">
    <path d="M 62.64 176.465455 
L 62.64 171.314213 
L 107.19 171.314213 
L 107.19 154.096714 
L 151.74 154.096714 
L 151.74 164.36736 
L 196.29 164.36736 
L 196.29 175.68863 
L 240.84 175.68863 
L 240.84 176.153451 
L 285.39 176.153451 
L 285.39 169.633215 
L 329.94 169.633215 
L 329.94 159.789186 
L 374.49 159.789186 
L 374.49 170.709309 
L 419.04 170.709309 
L 419.04 176.465455 
L 374.49 176.465455 
L 374.49 176.465455 
L 329.94 176.465455 
L 329.94 176.465455 
L 285.39 176.465455 
L 285.39 176.465455 
L 240.84 176.465455 
L 240.84 176.465455 
L 196.29 176.465455 
L 196.29 176.465455 
L 151.74 176.465455 
L 151.74 176.465455 
L 107.19 176.465455 
L 107.19 176.465455 
z
" clip-path="url(#p67f3b3cf28)" style="fill: #3d4c74; stroke: #000000; stroke-width: 0.5; stroke-linejoin: miter"/>
   </g>
   <g id="patch_10">
    <path d="M 62.64 141.398254 
L 107.19 141.398254 
L 107.19 140.446799 
L 62.64 140.446799 
z
" clip-path="url(#p67f3b3cf28)" style="fill: url(#h3c56dc72de)"/>
   </g>
   <g id="patch_11">
    <path d="M 107.19 92.215147 
L 151.74 92.215147 
L 151.74 90.743901 
L 107.19 90.743901 
z
" clip-path="url(#p67f3b3cf28)" style="fill: url(#h3c56dc72de)"/>
   </g>
   <g id="patch_12">
    <path d="M 151.74 91.492396 
L 196.29 91.492396 
L 196.29 90.014881 
L 151.74 90.014881 
z
" clip-path="url(#p67f3b3cf28)" style="fill: url(#h3c56dc72de)"/>
   </g>
   <g id="patch_13">
    <path d="M 196.29 164.254621 
L 240.84 164.254621 
L 240.84 163.690539 
L 196.29 163.690539 
z
" clip-path="url(#p67f3b3cf28)" style="fill: url(#h3c56dc72de)"/>
   </g>
   <g id="patch_14">
    <path d="M 240.84 160.064604 
L 285.39 160.064604 
L 285.39 159.41189 
L 240.84 159.41189 
z
" clip-path="url(#p67f3b3cf28)" style="fill: url(#h3c56dc72de)"/>
   </g>
   <g id="patch_15">
    <path d="M 285.39 97.153576 
L 329.94 97.153576 
L 329.94 95.72591 
L 285.39 95.72591 
z
" clip-path="url(#p67f3b3cf28)" style="fill: url(#h3c56dc72de)"/>
   </g>
   <g id="patch_16">
    <path d="M 329.94 47.022722 
L 374.49 47.022722 
L 374.49 45.200617 
L 329.94 45.200617 
z
" clip-path="url(#p67f3b3cf28)" style="fill: url(#h3c56dc72de)"/>
   </g>
   <g id="patch_17">
    <path d="M 374.49 134.609729 
L 419.04 134.609729 
L 419.04 133.570844 
L 374.49 133.570844 
z
" clip-path="url(#p67f3b3cf28)" style="fill: url(#h3c56dc72de)"/>
   </g>
   <g id="patch_18">
    <path d="M 62.64 176.465455 
L 62.64 174.529759 
L 107.19 174.529759 
L 107.19 173.033416 
L 151.74 173.033416 
L 151.74 167.200861 
L 196.29 167.200861 
L 196.29 171.753565 
L 240.84 171.753565 
L 240.84 171.339683 
L 285.39 171.339683 
L 285.39 157.465079 
L 329.94 157.465079 
L 329.94 157.350465 
L 374.49 157.350465 
L 374.49 169.639582 
L 419.04 169.639582 
L 419.04 176.465455 
" clip-path="url(#p67f3b3cf28)" style="fill: none; stroke: #ff0000; stroke-linejoin: miter"/>
   </g>
   <g id="LineCollection_1">
    <path d="M 84.915 174.640326 
L 84.915 174.261281 
" clip-path="url(#p67f3b3cf28)" style="fill: none; stroke: #000000; stroke-width: 1.5"/>
    <path d="M 129.465 128.600845 
L 129.465 126.735372 
" clip-path="url(#p67f3b3cf28)" style="fill: none; stroke: #000000; stroke-width: 1.5"/>
    <path d="M 174.015 92.458867 
L 174.015 89.993334 
" clip-path="url(#p67f3b3cf28)" style="fill: none; stroke: #000000; stroke-width: 1.5"/>
    <path d="M 218.565 169.012178 
L 218.565 168.26507 
" clip-path="url(#p67f3b3cf28)" style="fill: none; stroke: #000000; stroke-width: 1.5"/>
    <path d="M 263.115 175.979524 
L 263.115 175.774687 
" clip-path="url(#p67f3b3cf28)" style="fill: none; stroke: #000000; stroke-width: 1.5"/>
    <path d="M 307.665 171.460253 
L 307.665 170.844709 
" clip-path="url(#p67f3b3cf28)" style="fill: none; stroke: #000000; stroke-width: 1.5"/>
    <path d="M 352.215 154.862563 
L 352.215 153.603392 
" clip-path="url(#p67f3b3cf28)" style="fill: none; stroke: #000000; stroke-width: 1.5"/>
    <path d="M 396.765 153.719893 
L 396.765 152.428322 
" clip-path="url(#p67f3b3cf28)" style="fill: none; stroke: #000000; stroke-width: 1.5"/>
   </g>
   <g id="line2d_1">
    <defs>
     <path id="ma74e2c924c" d="M 0 1.5 
C 0.397805 1.5 0.77937 1.341951 1.06066 1.06066 
C 1.341951 0.77937 1.5 0.397805 1.5 0 
C 1.5 -0.397805 1.341951 -0.77937 1.06066 -1.06066 
C 0.77937 -1.341951 0.397805 -1.5 0 -1.5 
C -0.397805 -1.5 -0.77937 -1.341951 -1.06066 -1.06066 
C -1.341951 -0.77937 -1.5 -0.397805 -1.5 0 
C -1.5 0.397805 -1.341951 0.77937 -1.06066 1.06066 
C -0.77937 1.341951 -0.397805 1.5 0 1.5 
z
" style="stroke: #000000"/>
    </defs>
    <g clip-path="url(#p67f3b3cf28)">
     <use xlink:href="#ma74e2c924c" x="84.915" y="174.450803" style="stroke: #000000"/>
     <use xlink:href="#ma74e2c924c" x="129.465" y="127.668109" style="stroke: #000000"/>
     <use xlink:href="#ma74e2c924c" x="174.015" y="91.226101" style="stroke: #000000"/>
     <use xlink:href="#ma74e2c924c" x="218.565" y="168.638624" style="stroke: #000000"/>
     <use xlink:href="#ma74e2c924c" x="263.115" y="175.877105" style="stroke: #000000"/>
     <use xlink:href="#ma74e2c924c" x="307.665" y="171.152481" style="stroke: #000000"/>
     <use xlink:href="#ma74e2c924c" x="352.215" y="154.232977" style="stroke: #000000"/>
     <use xlink:href="#ma74e2c924c" x="396.765" y="153.074107" style="stroke: #000000"/>
    </g>
   </g>
   <g id="patch_19">
    <path d="M 62.64 176.465455 
L 62.64 17.28 
" style="fill: none; stroke: #000000; stroke-width: 1.2; stroke-linejoin: miter; stroke-linecap: square"/>
   </g>
   <g id="patch_20">
    <path d="M 419.04 176.465455 
L 419.04 17.28 
" style="fill: none; stroke: #000000; stroke-width: 1.2; stroke-linejoin: miter; stroke-linecap: square"/>
   </g>
   <g id="patch_21">
    <path d="M 62.64 176.465455 
L 419.04 176.465455 
" style="fill: none; stroke: #000000; stroke-width: 1.2; stroke-linejoin: miter; stroke-linecap: square"/>
   </g>
   <g id="patch_22">
    <path d="M 62.64 17.28 
L 419.04 17.28 
" style="fill: none; stroke: #000000; stroke-width: 1.2; stroke-linejoin: miter; stroke-linecap: square"/>
   </g>
   <g id="matplotlib.axis_1">
    <g id="xtick_1">
     <g id="line2d_2">
      <defs>
       <path id="mf25b35457c" d="M 0 0 
L 0 -6 
" style="stroke: #1a1a1a; stroke-width: 0.8"/>
      </defs>
      <g>
       <use xlink:href="#mf25b35457c" x="62.64" y="176.465455" style="fill: #1a1a1a; stroke: #1a1a1a; stroke-width: 0.8"/>
      </g>
     </g>
     <g id="line2d_3">
      <defs>
       <path id="m415e4ea606" d="M 0 0 
L 0 6 
" style="stroke: #1a1a1a; stroke-width: 0.8"/>
      </defs>
      <g>
       <use xlink:href="#m415e4ea606" x="62.64" y="17.28" style="fill: #1a1a1a; stroke: #1a1a1a; stroke-width: 0.8"/>
      </g>
     </g>
    </g>
    <g id="xtick_2">
     <g id="line2d_4">
      <g>
       <use xlink:href="#mf25b35457c" x="151.74" y="176.465455" style="fill: #1a1a1a; stroke: #1a1a1a; stroke-width: 0.8"/>
      </g>
     </g>
     <g id="line2d_5">
      <g>
       <use xlink:href="#m415e4ea606" x="151.74" y="17.28" style="fill: #1a1a1a; stroke: #1a1a1a; stroke-width: 0.8"/>
      </g>
     </g>
    </g>
    <g id="xtick_3">
     <g id="line2d_6">
      <g>
       <use xlink:href="#mf25b35457c" x="240.84" y="176.465455" style="fill: #1a1a1a; stroke: #1a1a1a; stroke-width: 0.8"/>
      </g>
     </g>
     <g id="line2d_7">
      <g>
       <use xlink:href="#m415e4ea606" x="240.84" y="17.28" style="fill: #1a1a1a; stroke: #1a1a1a; stroke-width: 0.8"/>
      </g>
     </g>
    </g>
    <g id="xtick_4">
     <g id="line2d_8">
      <g>
       <use xlink:href="#mf25b35457c" x="329.94" y="176.465455" style="fill: #1a1a1a; stroke: #1a1a1a; stroke-width: 0.8"/>
      </g>
     </g>
     <g id="line2d_9">
      <g>
       <use xlink:href="#m415e4ea606" x="329.94" y="17.28" style="fill: #1a1a1a; stroke: #1a1a1a; stroke-width: 0.8"/>
      </g>
     </g>
    </g>
    <g id="xtick_5">
     <g id="line2d_10">
      <g>
       <use xlink:href="#mf25b35457c" x="419.04" y="176.465455" style="fill: #1a1a1a; stroke: #1a1a1a; stroke-width: 0.8"/>
      </g>
     </g>
     <g id="line2d_11">
      <g>
       <use xlink:href="#m415e4ea606" x="419.04" y="17.28" style="fill: #1a1a1a; stroke: #1a1a1a; stroke-width: 0.8"/>
      </g>
     </g>
    </g>
    <g id="xtick_6">
     <g id="line2d_12">
      <defs>
       <path id="m8de44d0989" d="M 0 0 
L 0 -3 
" style="stroke: #1a1a1a; stroke-width: 0.6"/>
      </defs>
      <g>
       <use xlink:href="#m8de44d0989" x="84.915" y="176.465455" style="fill: #1a1a1a; stroke: #1a1a1a; stroke-width: 0.6"/>
      </g>
     </g>
     <g id="line2d_13">
      <defs>
       <path id="m8ce5376049" d="M 0 0 
L 0 3 
" style="stroke: #1a1a1a; stroke-width: 0.6"/>
      </defs>
      <g>
       <use xlink:href="#m8ce5376049" x="84.915" y="17.28" style="fill: #1a1a1a; stroke: #1a1a1a; stroke-width: 0.6"/>
      </g>
     </g>
    </g>
    <g id="xtick_7">
     <g id="line2d_14">
      <g>
       <use xlink:href="#m8de44d0989" x="107.19" y="176.465455" style="fill: #1a1a1a; stroke: #1a1a1a; stroke-width: 0.6"/>
      </g>
     </g>
     <g id="line2d_15">
      <g>
       <use xlink:href="#m8ce5376049" x="107.19" y="17.28" style="fill: #1a1a1a; stroke: #1a1a1a; stroke-width: 0.6"/>
      </g>
     </g>
    </g>
    <g id="xtick_8">
     <g id="line2d_16">
      <g>
       <use xlink:href="#m8de44d0989" x="129.465" y="176.465455" style="fill: #1a1a1a; stroke: #1a1a1a; stroke-width: 0.6"/>
      </g>
     </g>
     <g id="line2d_17">
      <g>
       <use xlink:href="#m8ce5376049" x="129.465" y="17.28" style="fill: #1a1a1a; stroke: #1a1a1a; stroke-width: 0.6"/>
      </g>
     </g>
    </g>
    <g id="xtick_9">
     <g id="line2d_18">
      <g>
       <use xlink:href="#m8de44d0989" x="174.015" y="176.465455" style="fill: #1a1a1a; stroke: #1a1a1a; stroke-width: 0.6"/>
      </g>
     </g>
     <g id="line2d_19">
      <g>
       <use xlink:href="#m8ce5376049" x="174.015" y="17.28" style="fill: #1a1a1a; stroke: #1a1a1a; stroke-width: 0.6"/>
      </g>
     </g>
    </g>
    <g id="xtick_10">
     <g id="line2d_20">
      <g>
       <use xlink:href="#m8de44d0989" x="196.29" y="176.465455" style="fill: #1a1a1a; stroke: #1a1a1a; stroke-width: 0.6"/>
      </g>
     </g>
     <g id="line2d_21">
      <g>
       <use xlink:href="#m8ce5376049" x="196.29" y="17.28" style="fill: #1a1a1a; stroke: #1a1a1a; stroke-width: 0.6"/>
      </g>
     </g>
    </g>
    <g id="xtick_11">
     <g id="line2d_22">
      <g>
       <use xlink:href="#m8de44d0989" x="218.565" y="176.465455" style="fill: #1a1a1a; stroke: #1a1a1a; stroke-width: 0.6"/>
      </g>
     </g>
     <g id="line2d_23">
      <g>
       <use xlink:href="#m8ce5376049" x="218.565" y="17.28" style="fill: #1a1a1a; stroke: #1a1a1a; stroke-width: 0.6"/>
      </g>
     </g>
    </g>
    <g id="xtick_12">
     <g id="line2d_24">
      <g>
       <use xlink:href="#m8de44d0989" x="263.115" y="176.465455" style="fill: #1a1a1a; stroke: #1a1a1a; stroke-width: 0.6"/>
      </g>
     </g>
     <g id="line2d_25">
      <g>
       <use xlink:href="#m8ce5376049" x="263.115" y="17.28" style="fill: #1a1a1a; stroke: #1a1a1a; stroke-width: 0.6"/>
      </g>
     </g>
    </g>
    <g id="xtick_13">
     <g id="line2d_26">
      <g>
       <use xlink:href="#m8de44d0989" x="285.39" y="176.465455" style="fill: #1a1a1a; stroke: #1a1a1a; stroke-width: 0.6"/>
      </g>
     </g>
     <g id="line2d_27">
      <g>
       <use xlink:href="#m8ce5376049" x="285.39" y="17.28" style="fill: #1a1a1a; stroke: #1a1a1a; stroke-width: 0.6"/>
      </g>
     </g>
    </g>
    <g id="xtick_14">
     <g id="line2d_28">
      <g>
       <use xlink:href="#m8de44d0989" x="307.665" y="176.465455" style="fill: #1a1a1a; stroke: #1a1a1a; stroke-width: 0.6"/>
      </g>
     </g>
     <g id="line2d_29">
      <g>
       <use xlink:href="#m8ce5376049" x="307.665" y="17.28" style="fill: #1a1a1a; stroke: #1a1a1a; stroke-width: 0.6"/>
      </g>
     </g>
    </g>
    <g id="xtick_15">
     <g id="line2d_30">
      <g>
       <use xlink:href="#m8de44d0989" x="352.215" y="176.465455" style="fill: #1a1a1a; stroke: #1a1a1a; stroke-width: 0.6"/>
      </g>
     </g>
     <g id="line2d_31">
      <g>
       <use xlink:href="#m8ce5376049" x="352.215" y="17.28" style="fill: #1a1a1a; stroke: #1a1a1a; stroke-width: 0.6"/>
      </g>
     </g>
    </g>
    <g id="xtick_16">
     <g id="line2d_32">
      <g>
       <use xlink:href="#m8de44d0989" x="374.49" y="176.465455" style="fill: #1a1a1a; stroke: #1a1a1a; stroke-width: 0.6"/>
      </g>
     </g>
     <g id="line2d_33">
      <g>
       <use xlink:href="#m8ce5376049" x="374.49" y="17.28" style="fill: #1a1a1a; stroke: #1a1a1a; stroke-width: 0.6"/>
      </g>
     </g>
    </g>
    <g id="xtick_17">
     <g id="line2d_34">
      <g>
       <use xlink:href="#m8de44d0989" x="396.765" y="176.465455" style="fill: #1a1a1a; stroke: #1a1a1a; stroke-width: 0.6"/>
      </g>
     </g>
     <g id="line2d_35">
      <g>
       <use xlink:href="#m8ce5376049" x="396.765" y="17.28" style="fill: #1a1a1a; stroke: #1a1a1a; stroke-width: 0.6"/>
      </g>
     </g>
    </g>
   </g>
   <g id="matplotlib.axis_2">
    <g id="ytick_1">
     <g id="line2d_36">
      <defs>
       <path id="mfce50b6cce" d="M 0 0 
L 6 0 
" style="stroke: #1a1a1a; stroke-width: 0.8"/>
      </defs>
      <g>
       <use xlink:href="#mfce50b6cce" x="62.64" y="176.465455" style="fill: #1a1a1a; stroke: #1a1a1a; stroke-width: 0.8"/>
      </g>
     </g>
     <g id="line2d_37">
      <defs>
       <path id="m314a9ee455" d="M 0 0 
L -6 0 
" style="stroke: #1a1a1a; stroke-width: 0.8"/>
      </defs>
      <g>
       <use xlink:href="#m314a9ee455" x="419.04" y="176.465455" style="fill: #1a1a1a; stroke: #1a1a1a; stroke-width: 0.8"/>
      </g>
     </g>
     <g id="text_1">
      <!-- $\mathdefault{0.0}$ -->
      <g style="fill: #1a1a1a" transform="translate(32.64 182.164283) scale(0.15 -0.15)">
       <defs>
        <path id="DejaVuSerif-30" d="M 2034 219 
Q 2513 219 2750 744 
Q 2988 1269 2988 2328 
Q 2988 3391 2750 3916 
Q 2513 4441 2034 4441 
Q 1556 4441 1318 3916 
Q 1081 3391 1081 2328 
Q 1081 1269 1318 744 
Q 1556 219 2034 219 
z
M 2034 -91 
Q 1275 -91 848 546 
Q 422 1184 422 2328 
Q 422 3475 848 4112 
Q 1275 4750 2034 4750 
Q 2797 4750 3222 4112 
Q 3647 3475 3647 2328 
Q 3647 1184 3222 546 
Q 2797 -91 2034 -91 
z
" transform="scale(0.015625)"/>
        <path id="DejaVuSerif-2e" d="M 603 325 
Q 603 500 722 622 
Q 841 744 1019 744 
Q 1191 744 1312 622 
Q 1434 500 1434 325 
Q 1434 153 1312 31 
Q 1191 -91 1019 -91 
Q 841 -91 722 29 
Q 603 150 603 325 
z
" transform="scale(0.015625)"/>
       </defs>
       <use xlink:href="#DejaVuSerif-30" transform="translate(0 0.78125)"/>
       <use xlink:href="#DejaVuSerif-2e" transform="translate(63.623047 0.78125)"/>
       <use xlink:href="#DejaVuSerif-30" transform="translate(95.410156 0.78125)"/>
      </g>
     </g>
    </g>
    <g id="ytick_2">
     <g id="line2d_38">
      <g>
       <use xlink:href="#mfce50b6cce" x="62.64" y="144.628364" style="fill: #1a1a1a; stroke: #1a1a1a; stroke-width: 0.8"/>
      </g>
     </g>
     <g id="line2d_39">
      <g>
       <use xlink:href="#m314a9ee455" x="419.04" y="144.628364" style="fill: #1a1a1a; stroke: #1a1a1a; stroke-width: 0.8"/>
      </g>
     </g>
     <g id="text_2">
      <!-- $\mathdefault{0.5}$ -->
      <g style="fill: #1a1a1a" transform="translate(32.64 150.327192) scale(0.15 -0.15)">
       <defs>
        <path id="DejaVuSerif-35" d="M 3219 4666 
L 3219 4153 
L 1081 4153 
L 1081 2816 
Q 1244 2928 1461 2984 
Q 1678 3041 1947 3041 
Q 2703 3041 3140 2622 
Q 3578 2203 3578 1478 
Q 3578 738 3136 323 
Q 2694 -91 1894 -91 
Q 1572 -91 1234 -12 
Q 897 66 544 225 
L 544 1131 
L 897 1131 
Q 925 688 1179 453 
Q 1434 219 1894 219 
Q 2388 219 2653 544 
Q 2919 869 2919 1478 
Q 2919 2084 2655 2407 
Q 2391 2731 1894 2731 
Q 1613 2731 1398 2631 
Q 1184 2531 1019 2322 
L 750 2322 
L 750 4666 
L 3219 4666 
z
" transform="scale(0.015625)"/>
       </defs>
       <use xlink:href="#DejaVuSerif-30" transform="translate(0 0.78125)"/>
       <use xlink:href="#DejaVuSerif-2e" transform="translate(63.623047 0.78125)"/>
       <use xlink:href="#DejaVuSerif-35" transform="translate(95.410156 0.78125)"/>
      </g>
     </g>
    </g>
    <g id="ytick_3">
     <g id="line2d_40">
      <g>
       <use xlink:href="#mfce50b6cce" x="62.64" y="112.791273" style="fill: #1a1a1a; stroke: #1a1a1a; stroke-width: 0.8"/>
      </g>
     </g>
     <g id="line2d_41">
      <g>
       <use xlink:href="#m314a9ee455" x="419.04" y="112.791273" style="fill: #1a1a1a; stroke: #1a1a1a; stroke-width: 0.8"/>
      </g>
     </g>
     <g id="text_3">
      <!-- $\mathdefault{1.0}$ -->
      <g style="fill: #1a1a1a" transform="translate(32.64 118.490101) scale(0.15 -0.15)">
       <defs>
        <path id="DejaVuSerif-31" d="M 909 0 
L 909 331 
L 1722 331 
L 1722 4213 
L 781 3603 
L 781 4013 
L 1919 4750 
L 2350 4750 
L 2350 331 
L 3163 331 
L 3163 0 
L 909 0 
z
" transform="scale(0.015625)"/>
       </defs>
       <use xlink:href="#DejaVuSerif-31" transform="translate(0 0.78125)"/>
       <use xlink:href="#DejaVuSerif-2e" transform="translate(63.623047 0.78125)"/>
       <use xlink:href="#DejaVuSerif-30" transform="translate(95.410156 0.78125)"/>
      </g>
     </g>
    </g>
    <g id="ytick_4">
     <g id="line2d_42">
      <g>
       <use xlink:href="#mfce50b6cce" x="62.64" y="80.954182" style="fill: #1a1a1a; stroke: #1a1a1a; stroke-width: 0.8"/>
      </g>
     </g>
     <g id="line2d_43">
      <g>
       <use xlink:href="#m314a9ee455" x="419.04" y="80.954182" style="fill: #1a1a1a; stroke: #1a1a1a; stroke-width: 0.8"/>
      </g>
     </g>
     <g id="text_4">
      <!-- $\mathdefault{1.5}$ -->
      <g style="fill: #1a1a1a" transform="translate(32.64 86.65301) scale(0.15 -0.15)">
       <use xlink:href="#DejaVuSerif-31" transform="translate(0 0.78125)"/>
       <use xlink:href="#DejaVuSerif-2e" transform="translate(63.623047 0.78125)"/>
       <use xlink:href="#DejaVuSerif-35" transform="translate(95.410156 0.78125)"/>
      </g>
     </g>
    </g>
    <g id="ytick_5">
     <g id="line2d_44">
      <g>
       <use xlink:href="#mfce50b6cce" x="62.64" y="49.117091" style="fill: #1a1a1a; stroke: #1a1a1a; stroke-width: 0.8"/>
      </g>
     </g>
     <g id="line2d_45">
      <g>
       <use xlink:href="#m314a9ee455" x="419.04" y="49.117091" style="fill: #1a1a1a; stroke: #1a1a1a; stroke-width: 0.8"/>
      </g>
     </g>
     <g id="text_5">
      <!-- $\mathdefault{2.0}$ -->
      <g style="fill: #1a1a1a" transform="translate(32.64 54.815919) scale(0.15 -0.15)">
       <defs>
        <path id="DejaVuSerif-32" d="M 819 3553 
L 469 3553 
L 469 4384 
Q 803 4563 1142 4656 
Q 1481 4750 1806 4750 
Q 2534 4750 2956 4397 
Q 3378 4044 3378 3438 
Q 3378 2753 2422 1800 
Q 2347 1728 2309 1691 
L 1131 513 
L 3078 513 
L 3078 1088 
L 3444 1088 
L 3444 0 
L 434 0 
L 434 341 
L 1850 1753 
Q 2319 2222 2519 2614 
Q 2719 3006 2719 3438 
Q 2719 3909 2473 4175 
Q 2228 4441 1797 4441 
Q 1350 4441 1106 4219 
Q 863 3997 819 3553 
z
" transform="scale(0.015625)"/>
       </defs>
       <use xlink:href="#DejaVuSerif-32" transform="translate(0 0.78125)"/>
       <use xlink:href="#DejaVuSerif-2e" transform="translate(63.623047 0.78125)"/>
       <use xlink:href="#DejaVuSerif-30" transform="translate(95.410156 0.78125)"/>
      </g>
     </g>
    </g>
    <g id="ytick_6">
     <g id="line2d_46">
      <g>
       <use xlink:href="#mfce50b6cce" x="62.64" y="17.28" style="fill: #1a1a1a; stroke: #1a1a1a; stroke-width: 0.8"/>
      </g>
     </g>
     <g id="line2d_47">
      <g>
       <use xlink:href="#m314a9ee455" x="419.04" y="17.28" style="fill: #1a1a1a; stroke: #1a1a1a; stroke-width: 0.8"/>
      </g>
     </g>
     <g id="text_6">
      <!-- $\mathdefault{2.5}$ -->
      <g style="fill: #1a1a1a" transform="translate(32.64 22.978828) scale(0.15 -0.15)">
       <use xlink:href="#DejaVuSerif-32" transform="translate(0 0.78125)"/>
       <use xlink:href="#DejaVuSerif-2e" transform="translate(63.623047 0.78125)"/>
       <use xlink:href="#DejaVuSerif-35" transform="translate(95.410156 0.78125)"/>
      </g>
     </g>
    </g>
    <g id="ytick_7">
     <g id="line2d_48">
      <defs>
       <path id="m08ff7920e0" d="M 0 0 
L 3 0 
" style="stroke: #1a1a1a; stroke-width: 0.6"/>
      </defs>
      <g>
       <use xlink:href="#m08ff7920e0" x="62.64" y="170.098036" style="fill: #1a1a1a; stroke: #1a1a1a; stroke-width: 0.6"/>
      </g>
     </g>
     <g id="line2d_49">
      <defs>
       <path id="mbc3a3ed620" d="M 0 0 
L -3 0 
" style="stroke: #1a1a1a; stroke-width: 0.6"/>
      </defs>
      <g>
       <use xlink:href="#mbc3a3ed620" x="419.04" y="170.098036" style="fill: #1a1a1a; stroke: #1a1a1a; stroke-width: 0.6"/>
      </g>
     </g>
    </g>
    <g id="ytick_8">
     <g id="line2d_50">
      <g>
       <use xlink:href="#m08ff7920e0" x="62.64" y="163.730618" style="fill: #1a1a1a; stroke: #1a1a1a; stroke-width: 0.6"/>
      </g>
     </g>
     <g id="line2d_51">
      <g>
       <use xlink:href="#mbc3a3ed620" x="419.04" y="163.730618" style="fill: #1a1a1a; stroke: #1a1a1a; stroke-width: 0.6"/>
      </g>
     </g>
    </g>
    <g id="ytick_9">
     <g id="line2d_52">
      <g>
       <use xlink:href="#m08ff7920e0" x="62.64" y="157.3632" style="fill: #1a1a1a; stroke: #1a1a1a; stroke-width: 0.6"/>
      </g>
     </g>
     <g id="line2d_53">
      <g>
       <use xlink:href="#mbc3a3ed620" x="419.04" y="157.3632" style="fill: #1a1a1a; stroke: #1a1a1a; stroke-width: 0.6"/>
      </g>
     </g>
    </g>
    <g id="ytick_10">
     <g id="line2d_54">
      <g>
       <use xlink:href="#m08ff7920e0" x="62.64" y="150.995782" style="fill: #1a1a1a; stroke: #1a1a1a; stroke-width: 0.6"/>
      </g>
     </g>
     <g id="line2d_55">
      <g>
       <use xlink:href="#mbc3a3ed620" x="419.04" y="150.995782" style="fill: #1a1a1a; stroke: #1a1a1a; stroke-width: 0.6"/>
      </g>
     </g>
    </g>
    <g id="ytick_11">
     <g id="line2d_56">
      <g>
       <use xlink:href="#m08ff7920e0" x="62.64" y="138.260945" style="fill: #1a1a1a; stroke: #1a1a1a; stroke-width: 0.6"/>
      </g>
     </g>
     <g id="line2d_57">
      <g>
       <use xlink:href="#mbc3a3ed620" x="419.04" y="138.260945" style="fill: #1a1a1a; stroke: #1a1a1a; stroke-width: 0.6"/>
      </g>
     </g>
    </g>
    <g id="ytick_12">
     <g id="line2d_58">
      <g>
       <use xlink:href="#m08ff7920e0" x="62.64" y="131.893527" style="fill: #1a1a1a; stroke: #1a1a1a; stroke-width: 0.6"/>
      </g>
     </g>
     <g id="line2d_59">
      <g>
       <use xlink:href="#mbc3a3ed620" x="419.04" y="131.893527" style="fill: #1a1a1a; stroke: #1a1a1a; stroke-width: 0.6"/>
      </g>
     </g>
    </g>
    <g id="ytick_13">
     <g id="line2d_60">
      <g>
       <use xlink:href="#m08ff7920e0" x="62.64" y="125.526109" style="fill: #1a1a1a; stroke: #1a1a1a; stroke-width: 0.6"/>
      </g>
     </g>
     <g id="line2d_61">
      <g>
       <use xlink:href="#mbc3a3ed620" x="419.04" y="125.526109" style="fill: #1a1a1a; stroke: #1a1a1a; stroke-width: 0.6"/>
      </g>
     </g>
    </g>
    <g id="ytick_14">
     <g id="line2d_62">
      <g>
       <use xlink:href="#m08ff7920e0" x="62.64" y="119.158691" style="fill: #1a1a1a; stroke: #1a1a1a; stroke-width: 0.6"/>
      </g>
     </g>
     <g id="line2d_63">
      <g>
       <use xlink:href="#mbc3a3ed620" x="419.04" y="119.158691" style="fill: #1a1a1a; stroke: #1a1a1a; stroke-width: 0.6"/>
      </g>
     </g>
    </g>
    <g id="ytick_15">
     <g id="line2d_64">
      <g>
       <use xlink:href="#m08ff7920e0" x="62.64" y="106.423855" style="fill: #1a1a1a; stroke: #1a1a1a; stroke-width: 0.6"/>
      </g>
     </g>
     <g id="line2d_65">
      <g>
       <use xlink:href="#mbc3a3ed620" x="419.04" y="106.423855" style="fill: #1a1a1a; stroke: #1a1a1a; stroke-width: 0.6"/>
      </g>
     </g>
    </g>
    <g id="ytick_16">
     <g id="line2d_66">
      <g>
       <use xlink:href="#m08ff7920e0" x="62.64" y="100.056436" style="fill: #1a1a1a; stroke: #1a1a1a; stroke-width: 0.6"/>
      </g>
     </g>
     <g id="line2d_67">
      <g>
       <use xlink:href="#mbc3a3ed620" x="419.04" y="100.056436" style="fill: #1a1a1a; stroke: #1a1a1a; stroke-width: 0.6"/>
      </g>
     </g>
    </g>
    <g id="ytick_17">
     <g id="line2d_68">
      <g>
       <use xlink:href="#m08ff7920e0" x="62.64" y="93.689018" style="fill: #1a1a1a; stroke: #1a1a1a; stroke-width: 0.6"/>
      </g>
     </g>
     <g id="line2d_69">
      <g>
       <use xlink:href="#mbc3a3ed620" x="419.04" y="93.689018" style="fill: #1a1a1a; stroke: #1a1a1a; stroke-width: 0.6"/>
      </g>
     </g>
    </g>
    <g id="ytick_18">
     <g id="line2d_70">
      <g>
       <use xlink:href="#m08ff7920e0" x="62.64" y="87.3216" style="fill: #1a1a1a; stroke: #1a1a1a; stroke-width: 0.6"/>
      </g>
     </g>
     <g id="line2d_71">
      <g>
       <use xlink:href="#mbc3a3ed620" x="419.04" y="87.3216" style="fill: #1a1a1a; stroke: #1a1a1a; stroke-width: 0.6"/>
      </g>
     </g>
    </g>
    <g id="ytick_19">
     <g id="line2d_72">
      <g>
       <use xlink:href="#m08ff7920e0" x="62.64" y="74.586764" style="fill: #1a1a1a; stroke: #1a1a1a; stroke-width: 0.6"/>
      </g>
     </g>
     <g id="line2d_73">
      <g>
       <use xlink:href="#mbc3a3ed620" x="419.04" y="74.586764" style="fill: #1a1a1a; stroke: #1a1a1a; stroke-width: 0.6"/>
      </g>
     </g>
    </g>
    <g id="ytick_20">
     <g id="line2d_74">
      <g>
       <use xlink:href="#m08ff7920e0" x="62.64" y="68.219345" style="fill: #1a1a1a; stroke: #1a1a1a; stroke-width: 0.6"/>
      </g>
     </g>
     <g id="line2d_75">
      <g>
       <use xlink:href="#mbc3a3ed620" x="419.04" y="68.219345" style="fill: #1a1a1a; stroke: #1a1a1a; stroke-width: 0.6"/>
      </g>
     </g>
    </g>
    <g id="ytick_21">
     <g id="line2d_76">
      <g>
       <use xlink:href="#m08ff7920e0" x="62.64" y="61.851927" style="fill: #1a1a1a; stroke: #1a1a1a; stroke-width: 0.6"/>
      </g>
     </g>
     <g id="line2d_77">
      <g>
       <use xlink:href="#mbc3a3ed620" x="419.04" y="61.851927" style="fill: #1a1a1a; stroke: #1a1a1a; stroke-width: 0.6"/>
      </g>
     </g>
    </g>
    <g id="ytick_22">
     <g id="line2d_78">
      <g>
       <use xlink:href="#m08ff7920e0" x="62.64" y="55.484509" style="fill: #1a1a1a; stroke: #1a1a1a; stroke-width: 0.6"/>
      </g>
     </g>
     <g id="line2d_79">
      <g>
       <use xlink:href="#mbc3a3ed620" x="419.04" y="55.484509" style="fill: #1a1a1a; stroke: #1a1a1a; stroke-width: 0.6"/>
      </g>
     </g>
    </g>
    <g id="ytick_23">
     <g id="line2d_80">
      <g>
       <use xlink:href="#m08ff7920e0" x="62.64" y="42.749673" style="fill: #1a1a1a; stroke: #1a1a1a; stroke-width: 0.6"/>
      </g>
     </g>
     <g id="line2d_81">
      <g>
       <use xlink:href="#mbc3a3ed620" x="419.04" y="42.749673" style="fill: #1a1a1a; stroke: #1a1a1a; stroke-width: 0.6"/>
      </g>
     </g>
    </g>
    <g id="ytick_24">
     <g id="line2d_82">
      <g>
       <use xlink:href="#m08ff7920e0" x="62.64" y="36.382255" style="fill: #1a1a1a; stroke: #1a1a1a; stroke-width: 0.6"/>
      </g>
     </g>
     <g id="line2d_83">
      <g>
       <use xlink:href="#mbc3a3ed620" x="419.04" y="36.382255" style="fill: #1a1a1a; stroke: #1a1a1a; stroke-width: 0.6"/>
      </g>
     </g>
    </g>
    <g id="ytick_25">
     <g id="line2d_84">
      <g>
       <use xlink:href="#m08ff7920e0" x="62.64" y="30.014836" style="fill: #1a1a1a; stroke: #1a1a1a; stroke-width: 0.6"/>
      </g>
     </g>
     <g id="line2d_85">
      <g>
       <use xlink:href="#mbc3a3ed620" x="419.04" y="30.014836" style="fill: #1a1a1a; stroke: #1a1a1a; stroke-width: 0.6"/>
      </g>
     </g>
    </g>
    <g id="ytick_26">
     <g id="line2d_86">
      <g>
       <use xlink:href="#m08ff7920e0" x="62.64" y="23.647418" style="fill: #1a1a1a; stroke: #1a1a1a; stroke-width: 0.6"/>
      </g>
     </g>
     <g id="line2d_87">
      <g>
       <use xlink:href="#mbc3a3ed620" x="419.04" y="23.647418" style="fill: #1a1a1a; stroke: #1a1a1a; stroke-width: 0.6"/>
      </g>
     </g>
    </g>
    <g id="text_7">
     <!-- Entries -->
     <g style="fill: #1a1a1a" transform="translate(22.064687 137.338977) rotate(-90) scale(0.22 -0.22)">
      <defs>
       <path id="DejaVuSerif-45" d="M 353 0 
L 353 331 
L 947 331 
L 947 4331 
L 353 4331 
L 353 4666 
L 4109 4666 
L 4109 3628 
L 3725 3628 
L 3725 4281 
L 1581 4281 
L 1581 2719 
L 3109 2719 
L 3109 3303 
L 3494 3303 
L 3494 1753 
L 3109 1753 
L 3109 2338 
L 1581 2338 
L 1581 384 
L 3775 384 
L 3775 1038 
L 4159 1038 
L 4159 0 
L 353 0 
z
" transform="scale(0.015625)"/>
       <path id="DejaVuSerif-6e" d="M 263 0 
L 263 331 
L 781 331 
L 781 2988 
L 231 2988 
L 231 3322 
L 1356 3322 
L 1356 2731 
Q 1516 3069 1770 3241 
Q 2025 3413 2363 3413 
Q 2913 3413 3172 3097 
Q 3431 2781 3431 2113 
L 3431 331 
L 3944 331 
L 3944 0 
L 2356 0 
L 2356 331 
L 2853 331 
L 2853 1931 
Q 2853 2541 2703 2767 
Q 2553 2994 2175 2994 
Q 1775 2994 1565 2701 
Q 1356 2409 1356 1850 
L 1356 331 
L 1856 331 
L 1856 0 
L 263 0 
z
" transform="scale(0.015625)"/>
       <path id="DejaVuSerif-74" d="M 691 2988 
L 184 2988 
L 184 3322 
L 691 3322 
L 691 4353 
L 1269 4353 
L 1269 3322 
L 2350 3322 
L 2350 2988 
L 1269 2988 
L 1269 878 
Q 1269 456 1350 337 
Q 1431 219 1650 219 
Q 1875 219 1978 351 
Q 2081 484 2088 781 
L 2522 781 
Q 2497 328 2275 118 
Q 2053 -91 1600 -91 
Q 1103 -91 897 129 
Q 691 350 691 878 
L 691 2988 
z
" transform="scale(0.015625)"/>
       <path id="DejaVuSerif-72" d="M 3059 3328 
L 3059 2497 
L 2728 2497 
Q 2713 2744 2591 2866 
Q 2469 2988 2234 2988 
Q 1809 2988 1582 2694 
Q 1356 2400 1356 1850 
L 1356 331 
L 2022 331 
L 2022 0 
L 263 0 
L 263 331 
L 781 331 
L 781 2994 
L 231 2994 
L 231 3322 
L 1356 3322 
L 1356 2731 
Q 1525 3078 1790 3245 
Q 2056 3413 2438 3413 
Q 2578 3413 2733 3391 
Q 2888 3369 3059 3328 
z
" transform="scale(0.015625)"/>
       <path id="DejaVuSerif-69" d="M 622 4353 
Q 622 4497 726 4603 
Q 831 4709 978 4709 
Q 1122 4709 1226 4603 
Q 1331 4497 1331 4353 
Q 1331 4206 1228 4103 
Q 1125 4000 978 4000 
Q 831 4000 726 4103 
Q 622 4206 622 4353 
z
M 1356 331 
L 1900 331 
L 1900 0 
L 231 0 
L 231 331 
L 781 331 
L 781 2988 
L 231 2988 
L 231 3322 
L 1356 3322 
L 1356 331 
z
" transform="scale(0.015625)"/>
       <path id="DejaVuSerif-65" d="M 3469 1600 
L 991 1600 
L 991 1575 
Q 991 903 1244 561 
Q 1497 219 1991 219 
Q 2369 219 2611 417 
Q 2853 616 2950 1006 
L 3413 1006 
Q 3275 459 2904 184 
Q 2534 -91 1931 -91 
Q 1203 -91 761 389 
Q 319 869 319 1663 
Q 319 2450 753 2931 
Q 1188 3413 1894 3413 
Q 2647 3413 3050 2948 
Q 3453 2484 3469 1600 
z
M 2791 1931 
Q 2772 2513 2545 2808 
Q 2319 3103 1894 3103 
Q 1497 3103 1269 2806 
Q 1041 2509 991 1931 
L 2791 1931 
z
" transform="scale(0.015625)"/>
       <path id="DejaVuSerif-73" d="M 359 184 
L 359 959 
L 691 959 
Q 703 588 923 403 
Q 1144 219 1575 219 
Q 1963 219 2166 364 
Q 2369 509 2369 788 
Q 2369 1006 2220 1140 
Q 2072 1275 1594 1428 
L 1178 1569 
Q 750 1706 558 1912 
Q 366 2119 366 2438 
Q 366 2894 700 3153 
Q 1034 3413 1625 3413 
Q 1888 3413 2178 3344 
Q 2469 3275 2778 3144 
L 2778 2419 
L 2447 2419 
Q 2434 2741 2221 2922 
Q 2009 3103 1644 3103 
Q 1281 3103 1095 2975 
Q 909 2847 909 2591 
Q 909 2381 1050 2254 
Q 1191 2128 1613 1997 
L 2069 1856 
Q 2541 1709 2748 1489 
Q 2956 1269 2956 922 
Q 2956 450 2595 179 
Q 2234 -91 1600 -91 
Q 1278 -91 972 -22 
Q 666 47 359 184 
z
" transform="scale(0.015625)"/>
      </defs>
      <use xlink:href="#DejaVuSerif-45"/>
      <use xlink:href="#DejaVuSerif-6e" x="72.998047"/>
      <use xlink:href="#DejaVuSerif-74" x="137.402344"/>
      <use xlink:href="#DejaVuSerif-72" x="177.587891"/>
      <use xlink:href="#DejaVuSerif-69" x="225.390625"/>
      <use xlink:href="#DejaVuSerif-65" x="257.373047"/>
      <use xlink:href="#DejaVuSerif-73" x="316.552734"/>
     </g>
    </g>
    <g id="text_8">
     <!-- $\times\mathdefault{10^{4}}\mathdefault{}$ -->
     <g style="fill: #1a1a1a" transform="translate(62.64 14.28) scale(0.15 -0.15)">
      <defs>
       <path id="DejaVuSerif-d7" d="M 4481 3450 
L 3034 2003 
L 4481 563 
L 4122 213 
L 2681 1650 
L 1241 213 
L 884 563 
L 2322 2003 
L 884 3450 
L 1241 3803 
L 2681 2363 
L 4122 3803 
L 4481 3450 
z
" transform="scale(0.015625)"/>
       <path id="DejaVuSerif-34" d="M 2234 1581 
L 2234 4063 
L 641 1581 
L 2234 1581 
z
M 3609 0 
L 1484 0 
L 1484 331 
L 2234 331 
L 2234 1247 
L 197 1247 
L 197 1588 
L 2241 4750 
L 2859 4750 
L 2859 1581 
L 3750 1581 
L 3750 1247 
L 2859 1247 
L 2859 331 
L 3609 331 
L 3609 0 
z
" transform="scale(0.015625)"/>
      </defs>
      <use xlink:href="#DejaVuSerif-d7" transform="translate(0 0.7125)"/>
      <use xlink:href="#DejaVuSerif-31" transform="translate(83.789062 0.7125)"/>
      <use xlink:href="#DejaVuSerif-30" transform="translate(147.412109 0.7125)"/>
      <use xlink:href="#DejaVuSerif-34" transform="translate(211.943516 37.046875) scale(0.7)"/>
     </g>
    </g>
   </g>
   <g id="text_9">
    <!-- $\mathrm{\mathbf{Belle\,\,II}}$ $\int\,\mathcal{L}\,\mathrm{d}t=50000\,\mathrm{fb}^{-1}$ -->
    <g style="fill: #1a1a1a" transform="translate(276.48 12.504436) scale(0.12 -0.12)">
     <defs>
      <path id="Cmb10-42" d="M 219 0 
L 219 325 
L 819 325 
L 819 4063 
L 219 4063 
L 219 4391 
L 2631 4391 
Q 2991 4391 3306 4270 
Q 3622 4150 3817 3898 
Q 4013 3647 4013 3278 
Q 4013 2888 3752 2636 
Q 3491 2384 3078 2297 
Q 3559 2238 3871 1952 
Q 4184 1666 4184 1197 
Q 4184 625 3789 312 
Q 3394 0 2809 0 
L 219 0 
z
M 1684 325 
L 2631 325 
Q 2838 325 2970 459 
Q 3103 594 3161 794 
Q 3219 994 3219 1197 
Q 3219 1384 3178 1606 
Q 3138 1828 3025 1992 
Q 2913 2156 2719 2156 
L 1684 2156 
L 1684 325 
z
M 1684 2413 
L 2450 2413 
Q 2766 2413 2922 2677 
Q 3078 2941 3078 3278 
Q 3078 3569 2978 3816 
Q 2878 4063 2631 4063 
L 1684 4063 
L 1684 2413 
z
" transform="scale(0.015625)"/>
      <path id="Cmb10-65" d="M 178 1441 
Q 178 1856 350 2189 
Q 522 2522 842 2711 
Q 1163 2900 1581 2900 
Q 2003 2900 2275 2726 
Q 2547 2553 2675 2242 
Q 2803 1931 2803 1522 
Q 2803 1428 2700 1394 
L 1025 1394 
Q 1025 1078 1070 829 
Q 1116 581 1275 412 
Q 1434 244 1741 244 
Q 2000 244 2208 394 
Q 2416 544 2484 788 
Q 2519 847 2578 863 
L 2700 863 
Q 2803 841 2803 750 
Q 2803 744 2797 709 
Q 2722 475 2553 308 
Q 2384 141 2150 51 
Q 1916 -38 1672 -38 
Q 1347 -38 1072 67 
Q 797 172 597 367 
Q 397 563 287 836 
Q 178 1109 178 1441 
z
M 1025 1631 
L 2169 1631 
Q 2169 1869 2120 2095 
Q 2072 2322 1940 2483 
Q 1809 2644 1581 2644 
Q 1250 2644 1137 2341 
Q 1025 2038 1025 1631 
z
" transform="scale(0.015625)"/>
      <path id="Cmb10-6c" d="M 153 0 
L 153 325 
L 594 325 
L 594 3884 
Q 594 4003 469 4033 
Q 344 4063 153 4063 
L 153 4391 
L 1313 4441 
L 1313 325 
L 1753 325 
L 1753 0 
L 153 0 
z
" transform="scale(0.015625)"/>
      <path id="Cmb10-49" d="M 166 0 
L 166 325 
L 800 325 
L 800 4063 
L 166 4063 
L 166 4391 
L 2369 4391 
L 2369 4063 
L 1734 4063 
L 1734 325 
L 2369 325 
L 2369 0 
L 166 0 
z
" transform="scale(0.015625)"/>
      <path id="DejaVuSerif-20" transform="scale(0.015625)"/>
      <path id="DejaVuSerif-222b" d="M 972 -819 
Q 1303 -819 1347 1331 
Q 1353 1669 1356 1847 
Q 1394 3456 1691 4150 
Q 1988 4844 2619 4844 
Q 2869 4844 3025 4712 
Q 3181 4581 3181 4378 
Q 3181 4209 3081 4111 
Q 2981 4013 2809 4013 
Q 2678 4013 2590 4072 
Q 2503 4131 2466 4241 
Q 2447 4288 2433 4400 
Q 2419 4513 2369 4513 
Q 2034 4513 1991 2578 
Q 1978 1975 1966 1631 
Q 1913 134 1617 -512 
Q 1322 -1159 709 -1159 
Q 463 -1159 305 -1029 
Q 147 -900 147 -697 
Q 147 -522 253 -423 
Q 359 -325 550 -325 
Q 653 -325 728 -370 
Q 803 -416 850 -503 
Q 881 -559 897 -689 
Q 913 -819 972 -819 
z
" transform="scale(0.015625)"/>
      <path id="Cmsy10-4c" d="M 238 -141 
Q 197 -141 197 -97 
Q 197 -72 219 -38 
Q 266 38 359 130 
Q 453 222 494 275 
Q 656 509 750 691 
Q 913 1028 1031 1466 
Q 1206 2163 1348 2597 
Q 1491 3031 1722 3419 
Q 1903 3719 2168 3967 
Q 2434 4216 2757 4364 
Q 3081 4513 3419 4513 
L 3456 4513 
Q 3622 4513 3734 4430 
Q 3847 4347 3905 4208 
Q 3963 4069 3963 3909 
Q 3963 3666 3884 3572 
Q 3663 3331 3359 3291 
L 3322 3291 
Q 3284 3291 3284 3334 
Q 3284 3341 3300 3431 
Q 3316 3522 3316 3584 
Q 3316 3791 3212 3944 
Q 3109 4097 2906 4097 
Q 2669 4097 2669 4056 
Q 2494 3934 2333 3651 
Q 2172 3369 2051 3039 
Q 1931 2709 1837 2376 
Q 1744 2044 1672 1753 
Q 1594 1438 1470 1148 
Q 1347 859 1178 603 
Q 1253 628 1363 628 
L 1403 628 
Q 1625 628 1847 583 
Q 2069 538 2378 450 
Q 2688 363 2894 320 
Q 3100 278 3328 275 
Q 3397 275 3440 337 
Q 3484 400 3526 511 
Q 3569 622 3597 659 
Q 3694 766 3834 844 
Q 3975 922 4116 941 
L 4153 941 
Q 4172 941 4184 928 
Q 4197 916 4197 897 
Q 4197 897 4191 878 
Q 4128 628 3897 386 
Q 3666 144 3370 1 
Q 3075 -141 2828 -141 
L 2791 -141 
Q 2569 -141 2356 -100 
Q 2144 -59 1834 28 
Q 1525 116 1304 162 
Q 1084 209 863 213 
Q 578 -100 275 -141 
L 238 -141 
z
" transform="scale(0.015625)"/>
      <path id="Cmr10-64" d="M 1563 -72 
Q 1184 -72 871 133 
Q 559 338 386 672 
Q 213 1006 213 1381 
Q 213 1769 402 2101 
Q 591 2434 916 2631 
Q 1241 2828 1631 2828 
Q 1866 2828 2075 2729 
Q 2284 2631 2438 2456 
L 2438 3788 
Q 2438 3959 2386 4036 
Q 2334 4113 2239 4130 
Q 2144 4147 1941 4147 
L 1941 4372 
L 2888 4441 
L 2888 581 
Q 2888 413 2939 336 
Q 2991 259 3086 242 
Q 3181 225 3384 225 
L 3384 0 
L 2419 -72 
L 2419 331 
Q 2253 141 2025 34 
Q 1797 -72 1563 -72 
z
M 909 556 
Q 1019 347 1201 222 
Q 1384 97 1600 97 
Q 1866 97 2087 250 
Q 2309 403 2419 647 
L 2419 2181 
Q 2344 2322 2230 2433 
Q 2116 2544 1973 2603 
Q 1831 2663 1672 2663 
Q 1338 2663 1134 2473 
Q 931 2284 850 1990 
Q 769 1697 769 1375 
Q 769 1119 795 928 
Q 822 738 909 556 
z
" transform="scale(0.015625)"/>
      <path id="DejaVuSerif-3d" d="M 678 2894 
L 4684 2894 
L 4684 2394 
L 678 2394 
L 678 2894 
z
M 678 1619 
L 4684 1619 
L 4684 1119 
L 678 1119 
L 678 1619 
z
" transform="scale(0.015625)"/>
      <path id="Cmr10-66" d="M 206 0 
L 206 225 
Q 422 225 562 259 
Q 703 294 703 428 
L 703 2534 
L 213 2534 
L 213 2759 
L 703 2759 
L 703 3525 
Q 703 3731 789 3911 
Q 875 4091 1020 4225 
Q 1166 4359 1355 4436 
Q 1544 4513 1747 4513 
Q 1963 4513 2136 4384 
Q 2309 4256 2309 4044 
Q 2309 3922 2226 3839 
Q 2144 3756 2022 3756 
Q 1900 3756 1814 3839 
Q 1728 3922 1728 4044 
Q 1728 4244 1900 4313 
Q 1797 4347 1716 4347 
Q 1528 4347 1395 4214 
Q 1263 4081 1197 3890 
Q 1131 3700 1131 3513 
L 1131 2759 
L 1869 2759 
L 1869 2534 
L 1153 2534 
L 1153 428 
Q 1153 297 1340 261 
Q 1528 225 1772 225 
L 1772 0 
L 206 0 
z
" transform="scale(0.015625)"/>
      <path id="Cmr10-62" d="M 666 0 
L 666 3788 
Q 666 3959 614 4036 
Q 563 4113 466 4130 
Q 369 4147 166 4147 
L 166 4372 
L 1113 4441 
L 1113 2438 
Q 1219 2556 1361 2645 
Q 1503 2734 1665 2781 
Q 1828 2828 1997 2828 
Q 2284 2828 2529 2712 
Q 2775 2597 2956 2394 
Q 3138 2191 3239 1927 
Q 3341 1663 3341 1381 
Q 3341 994 3152 659 
Q 2963 325 2636 126 
Q 2309 -72 1919 -72 
Q 1675 -72 1447 53 
Q 1219 178 1069 384 
L 850 0 
L 666 0 
z
M 1131 628 
Q 1238 394 1438 245 
Q 1638 97 1881 97 
Q 2213 97 2417 287 
Q 2622 478 2703 768 
Q 2784 1059 2784 1381 
Q 2784 1922 2644 2203 
Q 2581 2328 2473 2434 
Q 2366 2541 2233 2602 
Q 2100 2663 1953 2663 
Q 1697 2663 1478 2527 
Q 1259 2391 1131 2163 
L 1131 628 
z
" transform="scale(0.015625)"/>
      <path id="DejaVuSerif-2212" d="M 678 2259 
L 4684 2259 
L 4684 1753 
L 678 1753 
L 678 2259 
z
" transform="scale(0.015625)"/>
     </defs>
     <use xlink:href="#Cmb10-42" transform="translate(0 0.7125)"/>
     <use xlink:href="#Cmb10-65" transform="translate(71.09375 0.7125)"/>
     <use xlink:href="#Cmb10-6c" transform="translate(117.675781 0.7125)"/>
     <use xlink:href="#Cmb10-6c" transform="translate(145.361328 0.7125)"/>
     <use xlink:href="#Cmb10-65" transform="translate(173.046875 0.7125)"/>
     <use xlink:href="#Cmb10-49" transform="translate(248.893814 0.7125)"/>
     <use xlink:href="#Cmb10-49" transform="translate(288.59108 0.7125)"/>
     <use xlink:href="#DejaVuSerif-20" transform="translate(328.288346 0.7125)"/>
     <use xlink:href="#DejaVuSerif-222b" transform="translate(360.075455 0.7125)"/>
     <use xlink:href="#Cmsy10-4c" transform="translate(426.807519 0.7125)"/>
     <use xlink:href="#Cmr10-64" transform="translate(510.336457 0.7125)"/>
     <use xlink:href="#DejaVuSerif-74" transform="translate(565.854035 0.7125)"/>
     <use xlink:href="#DejaVuSerif-3d" transform="translate(623.598176 0.7125)"/>
     <use xlink:href="#DejaVuSerif-35" transform="translate(724.945832 0.7125)"/>
     <use xlink:href="#DejaVuSerif-30" transform="translate(788.568879 0.7125)"/>
     <use xlink:href="#DejaVuSerif-30" transform="translate(852.191926 0.7125)"/>
     <use xlink:href="#DejaVuSerif-30" transform="translate(915.814973 0.7125)"/>
     <use xlink:href="#DejaVuSerif-30" transform="translate(979.43802 0.7125)"/>
     <use xlink:href="#Cmr10-66" transform="translate(1057.693521 0.7125)"/>
     <use xlink:href="#Cmr10-62" transform="translate(1088.211099 0.7125)"/>
     <use xlink:href="#DejaVuSerif-2212" transform="translate(1144.637036 37.046875) scale(0.7)"/>
     <use xlink:href="#DejaVuSerif-31" transform="translate(1203.28938 37.046875) scale(0.7)"/>
    </g>
   </g>
   <g id="legend_1">
    <g id="patch_23">
     <path d="M 71.64 33.878438 
L 91.64 33.878438 
L 91.64 26.878438 
L 71.64 26.878438 
z
" style="fill: #b1dcc2; stroke: #000000; stroke-width: 0.5; stroke-linejoin: miter"/>
    </g>
    <g id="text_10">
     <!-- c6 -->
     <g style="fill: #1a1a1a" transform="translate(99.64 33.878438) scale(0.1 -0.1)">
      <defs>
       <path id="DejaVuSerif-63" d="M 3291 997 
Q 3169 466 2822 187 
Q 2475 -91 1925 -91 
Q 1200 -91 759 389 
Q 319 869 319 1663 
Q 319 2459 759 2936 
Q 1200 3413 1925 3413 
Q 2241 3413 2553 3339 
Q 2866 3266 3181 3116 
L 3181 2266 
L 2847 2266 
Q 2781 2703 2561 2903 
Q 2341 3103 1931 3103 
Q 1466 3103 1228 2742 
Q 991 2381 991 1663 
Q 991 944 1227 581 
Q 1463 219 1931 219 
Q 2303 219 2525 412 
Q 2747 606 2828 997 
L 3291 997 
z
" transform="scale(0.015625)"/>
       <path id="DejaVuSerif-36" d="M 2094 219 
Q 2534 219 2771 542 
Q 3009 866 3009 1472 
Q 3009 2078 2771 2401 
Q 2534 2725 2094 2725 
Q 1647 2725 1412 2412 
Q 1178 2100 1178 1509 
Q 1178 888 1415 553 
Q 1653 219 2094 219 
z
M 1075 2569 
Q 1288 2803 1556 2918 
Q 1825 3034 2163 3034 
Q 2859 3034 3264 2615 
Q 3669 2197 3669 1472 
Q 3669 763 3233 336 
Q 2797 -91 2069 -91 
Q 1278 -91 853 498 
Q 428 1088 428 2181 
Q 428 3406 931 4078 
Q 1434 4750 2350 4750 
Q 2597 4750 2869 4703 
Q 3141 4656 3425 4563 
L 3425 3794 
L 3072 3794 
Q 3034 4109 2831 4275 
Q 2628 4441 2284 4441 
Q 1678 4441 1381 3981 
Q 1084 3522 1075 2569 
z
" transform="scale(0.015625)"/>
      </defs>
      <use xlink:href="#DejaVuSerif-63"/>
      <use xlink:href="#DejaVuSerif-36" x="56.005859"/>
     </g>
    </g>
    <g id="patch_24">
     <path d="M 71.64 48.556563 
L 91.64 48.556563 
L 91.64 41.556563 
L 71.64 41.556563 
z
" style="fill: #a9c593; stroke: #000000; stroke-width: 0.5; stroke-linejoin: miter"/>
    </g>
    <g id="text_11">
     <!-- c5 -->
     <g style="fill: #1a1a1a" transform="translate(99.64 48.556563) scale(0.1 -0.1)">
      <use xlink:href="#DejaVuSerif-63"/>
      <use xlink:href="#DejaVuSerif-35" x="56.005859"/>
     </g>
    </g>
    <g id="patch_25">
     <path d="M 71.64 63.234688 
L 91.64 63.234688 
L 91.64 56.234688 
L 71.64 56.234688 
z
" style="fill: #b2a275; stroke: #000000; stroke-width: 0.5; stroke-linejoin: miter"/>
    </g>
    <g id="text_12">
     <!-- c4 -->
     <g style="fill: #1a1a1a" transform="translate(99.64 63.234688) scale(0.1 -0.1)">
      <use xlink:href="#DejaVuSerif-63"/>
      <use xlink:href="#DejaVuSerif-34" x="56.005859"/>
     </g>
    </g>
    <g id="patch_26">
     <path d="M 71.64 77.912813 
L 91.64 77.912813 
L 91.64 70.912813 
L 71.64 70.912813 
z
" style="fill: #b67b76; stroke: #000000; stroke-width: 0.5; stroke-linejoin: miter"/>
    </g>
    <g id="text_13">
     <!-- c3 -->
     <g style="fill: #1a1a1a" transform="translate(99.64 77.912813) scale(0.1 -0.1)">
      <defs>
       <path id="DejaVuSerif-33" d="M 622 4469 
Q 988 4606 1323 4678 
Q 1659 4750 1953 4750 
Q 2638 4750 3022 4454 
Q 3406 4159 3406 3634 
Q 3406 3213 3140 2930 
Q 2875 2647 2388 2547 
Q 2963 2466 3280 2130 
Q 3597 1794 3597 1259 
Q 3597 606 3158 257 
Q 2719 -91 1894 -91 
Q 1528 -91 1179 -12 
Q 831 66 488 225 
L 488 1131 
L 838 1131 
Q 869 681 1141 450 
Q 1413 219 1906 219 
Q 2384 219 2661 495 
Q 2938 772 2938 1253 
Q 2938 1803 2653 2086 
Q 2369 2369 1819 2369 
L 1522 2369 
L 1522 2688 
L 1678 2688 
Q 2225 2688 2498 2914 
Q 2772 3141 2772 3597 
Q 2772 4006 2547 4223 
Q 2322 4441 1900 4441 
Q 1478 4441 1245 4241 
Q 1013 4041 972 3647 
L 622 3647 
L 622 4469 
z
" transform="scale(0.015625)"/>
      </defs>
      <use xlink:href="#DejaVuSerif-63"/>
      <use xlink:href="#DejaVuSerif-33" x="56.005859"/>
     </g>
    </g>
    <g id="patch_27">
     <path d="M 131.6025 33.878438 
L 151.6025 33.878438 
L 151.6025 26.878438 
L 131.6025 26.878438 
z
" style="fill: #a15f86; stroke: #000000; stroke-width: 0.5; stroke-linejoin: miter"/>
    </g>
    <g id="text_14">
     <!-- c2 -->
     <g style="fill: #1a1a1a" transform="translate(159.6025 33.878438) scale(0.1 -0.1)">
      <use xlink:href="#DejaVuSerif-63"/>
      <use xlink:href="#DejaVuSerif-32" x="56.005859"/>
     </g>
    </g>
    <g id="patch_28">
     <path d="M 131.6025 48.556563 
L 151.6025 48.556563 
L 151.6025 41.556563 
L 131.6025 41.556563 
z
" style="fill: #73528c; stroke: #000000; stroke-width: 0.5; stroke-linejoin: miter"/>
    </g>
    <g id="text_15">
     <!-- c1 -->
     <g style="fill: #1a1a1a" transform="translate(159.6025 48.556563) scale(0.1 -0.1)">
      <use xlink:href="#DejaVuSerif-63"/>
      <use xlink:href="#DejaVuSerif-31" x="56.005859"/>
     </g>
    </g>
    <g id="patch_29">
     <path d="M 131.6025 63.234688 
L 151.6025 63.234688 
L 151.6025 56.234688 
L 131.6025 56.234688 
z
" style="fill: #3d4c74; stroke: #000000; stroke-width: 0.5; stroke-linejoin: miter"/>
    </g>
    <g id="text_16">
     <!-- c0 -->
     <g style="fill: #1a1a1a" transform="translate(159.6025 63.234688) scale(0.1 -0.1)">
      <use xlink:href="#DejaVuSerif-63"/>
      <use xlink:href="#DejaVuSerif-30" x="56.005859"/>
     </g>
    </g>
    <g id="patch_30">
     <path d="M 191.565 33.878438 
L 211.565 33.878438 
L 211.565 26.878438 
L 191.565 26.878438 
L 191.565 33.878438 
z
" style="fill: none; stroke: #ff0000; stroke-linejoin: miter"/>
    </g>
    <g id="text_17">
     <!-- Signal -->
     <g style="fill: #1a1a1a" transform="translate(219.565 33.878438) scale(0.1 -0.1)">
      <defs>
       <path id="DejaVuSerif-53" d="M 594 225 
L 594 1288 
L 953 1284 
Q 969 753 1261 498 
Q 1553 244 2150 244 
Q 2706 244 2998 464 
Q 3291 684 3291 1106 
Q 3291 1444 3114 1625 
Q 2938 1806 2369 1978 
L 1753 2163 
Q 1084 2366 811 2669 
Q 538 2972 538 3500 
Q 538 4094 959 4422 
Q 1381 4750 2144 4750 
Q 2469 4750 2856 4679 
Q 3244 4609 3681 4475 
L 3681 3481 
L 3328 3481 
Q 3275 3975 2998 4195 
Q 2722 4416 2156 4416 
Q 1663 4416 1405 4214 
Q 1147 4013 1147 3628 
Q 1147 3294 1340 3103 
Q 1534 2913 2163 2725 
L 2741 2553 
Q 3375 2363 3645 2067 
Q 3916 1772 3916 1275 
Q 3916 597 3481 253 
Q 3047 -91 2188 -91 
Q 1803 -91 1404 -12 
Q 1006 66 594 225 
z
" transform="scale(0.015625)"/>
       <path id="DejaVuSerif-67" d="M 3359 2988 
L 3359 72 
Q 3359 -644 2965 -1033 
Q 2572 -1422 1844 -1422 
Q 1516 -1422 1216 -1362 
Q 916 -1303 641 -1184 
L 641 -488 
L 941 -488 
Q 997 -813 1206 -963 
Q 1416 -1113 1806 -1113 
Q 2313 -1113 2548 -827 
Q 2784 -541 2784 72 
L 2784 519 
Q 2616 206 2355 57 
Q 2094 -91 1709 -91 
Q 1097 -91 708 395 
Q 319 881 319 1663 
Q 319 2444 706 2928 
Q 1094 3413 1709 3413 
Q 2094 3413 2355 3264 
Q 2616 3116 2784 2803 
L 2784 3322 
L 3909 3322 
L 3909 2988 
L 3359 2988 
z
M 2784 1825 
Q 2784 2422 2554 2737 
Q 2325 3053 1888 3053 
Q 1444 3053 1217 2703 
Q 991 2353 991 1663 
Q 991 975 1217 622 
Q 1444 269 1888 269 
Q 2325 269 2554 583 
Q 2784 897 2784 1497 
L 2784 1825 
z
" transform="scale(0.015625)"/>
       <path id="DejaVuSerif-61" d="M 2547 1044 
L 2547 1747 
L 1806 1747 
Q 1378 1747 1168 1562 
Q 959 1378 959 997 
Q 959 650 1171 447 
Q 1384 244 1747 244 
Q 2106 244 2326 466 
Q 2547 688 2547 1044 
z
M 3122 2075 
L 3122 331 
L 3634 331 
L 3634 0 
L 2547 0 
L 2547 359 
Q 2356 128 2106 18 
Q 1856 -91 1522 -91 
Q 969 -91 644 203 
Q 319 497 319 997 
Q 319 1513 691 1797 
Q 1063 2081 1741 2081 
L 2547 2081 
L 2547 2309 
Q 2547 2688 2317 2895 
Q 2088 3103 1672 3103 
Q 1328 3103 1125 2947 
Q 922 2791 872 2484 
L 575 2484 
L 575 3156 
Q 875 3284 1158 3348 
Q 1441 3413 1709 3413 
Q 2400 3413 2761 3070 
Q 3122 2728 3122 2075 
z
" transform="scale(0.015625)"/>
       <path id="DejaVuSerif-6c" d="M 1313 331 
L 1856 331 
L 1856 0 
L 184 0 
L 184 331 
L 738 331 
L 738 4531 
L 184 4531 
L 184 4863 
L 1313 4863 
L 1313 331 
z
" transform="scale(0.015625)"/>
      </defs>
      <use xlink:href="#DejaVuSerif-53"/>
      <use xlink:href="#DejaVuSerif-69" x="68.505859"/>
      <use xlink:href="#DejaVuSerif-67" x="100.488281"/>
      <use xlink:href="#DejaVuSerif-6e" x="164.501953"/>
      <use xlink:href="#DejaVuSerif-61" x="228.90625"/>
      <use xlink:href="#DejaVuSerif-6c" x="288.525391"/>
     </g>
    </g>
    <g id="LineCollection_2">
     <path d="M 201.565 50.19875 
L 201.565 40.19875 
" style="fill: none; stroke: #000000; stroke-width: 1.5"/>
    </g>
    <g id="line2d_88"/>
    <g id="line2d_89">
     <g>
      <use xlink:href="#ma74e2c924c" x="201.565" y="45.19875" style="stroke: #000000"/>
     </g>
    </g>
    <g id="text_18">
     <!-- Data -->
     <g style="fill: #1a1a1a" transform="translate(219.565 48.69875) scale(0.1 -0.1)">
      <defs>
       <path id="DejaVuSerif-44" d="M 1581 331 
L 2163 331 
Q 3072 331 3558 850 
Q 4044 1369 4044 2338 
Q 4044 3306 3559 3818 
Q 3075 4331 2163 4331 
L 1581 4331 
L 1581 331 
z
M 353 0 
L 353 331 
L 947 331 
L 947 4331 
L 353 4331 
L 353 4666 
L 2209 4666 
Q 3416 4666 4089 4050 
Q 4763 3434 4763 2338 
Q 4763 1238 4088 619 
Q 3413 0 2209 0 
L 353 0 
z
" transform="scale(0.015625)"/>
      </defs>
      <use xlink:href="#DejaVuSerif-44"/>
      <use xlink:href="#DejaVuSerif-61" x="80.175781"/>
      <use xlink:href="#DejaVuSerif-74" x="139.794922"/>
      <use xlink:href="#DejaVuSerif-61" x="179.980469"/>
     </g>
    </g>
    <g id="patch_31">
     <path d="M 191.565 63.376875 
L 211.565 63.376875 
L 211.565 56.376875 
L 191.565 56.376875 
z
" style="fill: url(#h3c56dc72de)"/>
    </g>
    <g id="text_19">
     <!-- Stat. unc. -->
     <g style="fill: #1a1a1a" transform="translate(219.565 63.376875) scale(0.1 -0.1)">
      <defs>
       <path id="DejaVuSerif-75" d="M 2266 3322 
L 3341 3322 
L 3341 331 
L 3884 331 
L 3884 0 
L 2766 0 
L 2766 588 
Q 2606 256 2353 82 
Q 2100 -91 1766 -91 
Q 1213 -91 952 223 
Q 691 538 691 1209 
L 691 2988 
L 172 2988 
L 172 3322 
L 1269 3322 
L 1269 1388 
Q 1269 781 1417 556 
Q 1566 331 1947 331 
Q 2347 331 2556 625 
Q 2766 919 2766 1478 
L 2766 2988 
L 2266 2988 
L 2266 3322 
z
" transform="scale(0.015625)"/>
      </defs>
      <use xlink:href="#DejaVuSerif-53"/>
      <use xlink:href="#DejaVuSerif-74" x="68.505859"/>
      <use xlink:href="#DejaVuSerif-61" x="108.691406"/>
      <use xlink:href="#DejaVuSerif-74" x="168.310547"/>
      <use xlink:href="#DejaVuSerif-2e" x="208.496094"/>
      <use xlink:href="#DejaVuSerif-20" x="240.283203"/>
      <use xlink:href="#DejaVuSerif-75" x="272.070312"/>
      <use xlink:href="#DejaVuSerif-6e" x="336.474609"/>
      <use xlink:href="#DejaVuSerif-63" x="400.878906"/>
      <use xlink:href="#DejaVuSerif-2e" x="456.884766"/>
     </g>
    </g>
   </g>
  </g>
  <g id="axes_2">
   <g id="patch_32">
    <path d="M 62.64 236.16 
L 419.04 236.16 
L 419.04 196.363636 
L 62.64 196.363636 
z
" style="fill: #ffffff"/>
   </g>
   <g id="patch_33">
    <path d="M 62.64 216.528147 
L 107.19 216.528147 
L 107.19 215.995489 
L 62.64 215.995489 
z
" clip-path="url(#p311b270391)" style="fill: url(#h3c56dc72de)"/>
   </g>
   <g id="patch_34">
    <path d="M 107.19 216.434053 
L 151.74 216.434053 
L 151.74 216.089583 
L 107.19 216.089583 
z
" clip-path="url(#p311b270391)" style="fill: url(#h3c56dc72de)"/>
   </g>
   <g id="patch_35">
    <path d="M 151.74 216.433322 
L 196.29 216.433322 
L 196.29 216.090314 
L 151.74 216.090314 
z
" clip-path="url(#p311b270391)" style="fill: url(#h3c56dc72de)"/>
   </g>
   <g id="patch_36">
    <path d="M 196.29 216.711043 
L 240.84 216.711043 
L 240.84 215.812593 
L 196.29 215.812593 
z
" clip-path="url(#p311b270391)" style="fill: url(#h3c56dc72de)"/>
   </g>
   <g id="patch_37">
    <path d="M 240.84 216.650043 
L 285.39 216.650043 
L 285.39 215.873593 
L 240.84 215.873593 
z
" clip-path="url(#p311b270391)" style="fill: url(#h3c56dc72de)"/>
   </g>
   <g id="patch_38">
    <path d="M 285.39 216.439311 
L 329.94 216.439311 
L 329.94 216.084326 
L 285.39 216.084326 
z
" clip-path="url(#p311b270391)" style="fill: url(#h3c56dc72de)"/>
   </g>
   <g id="patch_39">
    <path d="M 329.94 216.400888 
L 374.49 216.400888 
L 374.49 216.122748 
L 329.94 216.122748 
z
" clip-path="url(#p311b270391)" style="fill: url(#h3c56dc72de)"/>
   </g>
   <g id="patch_40">
    <path d="M 374.49 216.505734 
L 419.04 216.505734 
L 419.04 216.017903 
L 374.49 216.017903 
z
" clip-path="url(#p311b270391)" style="fill: url(#h3c56dc72de)"/>
   </g>
   <g id="LineCollection_3">
    <path d="M 84.915 235.032127 
L 84.915 235.032127 
" clip-path="url(#p311b270391)" style="fill: none; stroke: #000000; stroke-width: 1.5"/>
    <path d="M 129.465 224.734833 
L 129.465 224.734833 
" clip-path="url(#p311b270391)" style="fill: none; stroke: #000000; stroke-width: 1.5"/>
    <path d="M 174.015 216.371501 
L 174.015 216.371501 
" clip-path="url(#p311b270391)" style="fill: none; stroke: #000000; stroke-width: 1.5"/>
    <path d="M 218.565 223.693718 
L 218.565 223.693718 
" clip-path="url(#p311b270391)" style="fill: none; stroke: #000000; stroke-width: 1.5"/>
    <path d="M 263.115 235.460117 
L 263.115 235.460117 
" clip-path="url(#p311b270391)" style="fill: none; stroke: #000000; stroke-width: 1.5"/>
    <path d="M 307.665 234.838943 
L 307.665 234.838943 
" clip-path="url(#p311b270391)" style="fill: none; stroke: #000000; stroke-width: 1.5"/>
    <path d="M 352.215 232.766268 
L 352.215 232.766268 
" clip-path="url(#p311b270391)" style="fill: none; stroke: #000000; stroke-width: 1.5"/>
    <path d="M 396.765 225.176084 
L 396.765 225.176084 
" clip-path="url(#p311b270391)" style="fill: none; stroke: #000000; stroke-width: 1.5"/>
   </g>
   <g id="LineCollection_4">
    <path d="M 84.915 236.903991 
L 84.915 233.160264 
" clip-path="url(#p311b270391)" style="fill: none; stroke: #000000; stroke-width: 1.5"/>
    <path d="M 129.465 225.115176 
L 129.465 224.354489 
" clip-path="url(#p311b270391)" style="fill: none; stroke: #000000; stroke-width: 1.5"/>
    <path d="M 174.015 216.659277 
L 174.015 216.083726 
" clip-path="url(#p311b270391)" style="fill: none; stroke: #000000; stroke-width: 1.5"/>
    <path d="M 218.565 224.643407 
L 218.565 222.74403 
" clip-path="url(#p311b270391)" style="fill: none; stroke: #000000; stroke-width: 1.5"/>
    <path d="M 263.115 238.923946 
L 263.115 231.996288 
" clip-path="url(#p311b270391)" style="fill: none; stroke: #000000; stroke-width: 1.5"/>
    <path d="M 307.665 235.991614 
L 307.665 233.686272 
" clip-path="url(#p311b270391)" style="fill: none; stroke: #000000; stroke-width: 1.5"/>
    <path d="M 352.215 233.32975 
L 352.215 232.202785 
" clip-path="url(#p311b270391)" style="fill: none; stroke: #000000; stroke-width: 1.5"/>
    <path d="M 396.765 225.725431 
L 396.765 224.626737 
" clip-path="url(#p311b270391)" style="fill: none; stroke: #000000; stroke-width: 1.5"/>
   </g>
   <g id="line2d_90">
    <path d="M 62.64 216.261818 
L 419.04 216.261818 
" clip-path="url(#p311b270391)" style="fill: none; stroke-dasharray: 3.7,1.6; stroke-dashoffset: 0; stroke: #000000"/>
   </g>
   <g id="line2d_91">
    <g clip-path="url(#p311b270391)">
     <use xlink:href="#ma74e2c924c" x="84.915" y="235.032127" style="stroke: #000000"/>
     <use xlink:href="#ma74e2c924c" x="129.465" y="224.734833" style="stroke: #000000"/>
     <use xlink:href="#ma74e2c924c" x="174.015" y="216.371501" style="stroke: #000000"/>
     <use xlink:href="#ma74e2c924c" x="218.565" y="223.693718" style="stroke: #000000"/>
     <use xlink:href="#ma74e2c924c" x="263.115" y="235.460117" style="stroke: #000000"/>
     <use xlink:href="#ma74e2c924c" x="307.665" y="234.838943" style="stroke: #000000"/>
     <use xlink:href="#ma74e2c924c" x="352.215" y="232.766268" style="stroke: #000000"/>
     <use xlink:href="#ma74e2c924c" x="396.765" y="225.176084" style="stroke: #000000"/>
    </g>
   </g>
   <g id="patch_41">
    <path d="M 62.64 236.16 
L 62.64 196.363636 
" style="fill: none; stroke: #000000; stroke-width: 1.2; stroke-linejoin: miter; stroke-linecap: square"/>
   </g>
   <g id="patch_42">
    <path d="M 419.04 236.16 
L 419.04 196.363636 
" style="fill: none; stroke: #000000; stroke-width: 1.2; stroke-linejoin: miter; stroke-linecap: square"/>
   </g>
   <g id="patch_43">
    <path d="M 62.64 236.16 
L 419.04 236.16 
" style="fill: none; stroke: #000000; stroke-width: 1.2; stroke-linejoin: miter; stroke-linecap: square"/>
   </g>
   <g id="patch_44">
    <path d="M 62.64 196.363636 
L 419.04 196.363636 
" style="fill: none; stroke: #000000; stroke-width: 1.2; stroke-linejoin: miter; stroke-linecap: square"/>
   </g>
   <g id="matplotlib.axis_3">
    <g id="xtick_18">
     <g id="line2d_92">
      <g>
       <use xlink:href="#mf25b35457c" x="62.64" y="236.16" style="fill: #1a1a1a; stroke: #1a1a1a; stroke-width: 0.8"/>
      </g>
     </g>
     <g id="line2d_93">
      <g>
       <use xlink:href="#m415e4ea606" x="62.64" y="196.363636" style="fill: #1a1a1a; stroke: #1a1a1a; stroke-width: 0.8"/>
      </g>
     </g>
     <g id="text_20">
      <!-- $\mathdefault{0}$ -->
      <g style="fill: #1a1a1a" transform="translate(57.84 253.557656) scale(0.15 -0.15)">
       <use xlink:href="#DejaVuSerif-30" transform="translate(0 0.78125)"/>
      </g>
     </g>
    </g>
    <g id="xtick_19">
     <g id="line2d_94">
      <g>
       <use xlink:href="#mf25b35457c" x="151.74" y="236.16" style="fill: #1a1a1a; stroke: #1a1a1a; stroke-width: 0.8"/>
      </g>
     </g>
     <g id="line2d_95">
      <g>
       <use xlink:href="#m415e4ea606" x="151.74" y="196.363636" style="fill: #1a1a1a; stroke: #1a1a1a; stroke-width: 0.8"/>
      </g>
     </g>
     <g id="text_21">
      <!-- $\mathdefault{2}$ -->
      <g style="fill: #1a1a1a" transform="translate(146.94 253.557656) scale(0.15 -0.15)">
       <use xlink:href="#DejaVuSerif-32" transform="translate(0 0.78125)"/>
      </g>
     </g>
    </g>
    <g id="xtick_20">
     <g id="line2d_96">
      <g>
       <use xlink:href="#mf25b35457c" x="240.84" y="236.16" style="fill: #1a1a1a; stroke: #1a1a1a; stroke-width: 0.8"/>
      </g>
     </g>
     <g id="line2d_97">
      <g>
       <use xlink:href="#m415e4ea606" x="240.84" y="196.363636" style="fill: #1a1a1a; stroke: #1a1a1a; stroke-width: 0.8"/>
      </g>
     </g>
     <g id="text_22">
      <!-- $\mathdefault{4}$ -->
      <g style="fill: #1a1a1a" transform="translate(236.04 253.557656) scale(0.15 -0.15)">
       <use xlink:href="#DejaVuSerif-34" transform="translate(0 0.78125)"/>
      </g>
     </g>
    </g>
    <g id="xtick_21">
     <g id="line2d_98">
      <g>
       <use xlink:href="#mf25b35457c" x="329.94" y="236.16" style="fill: #1a1a1a; stroke: #1a1a1a; stroke-width: 0.8"/>
      </g>
     </g>
     <g id="line2d_99">
      <g>
       <use xlink:href="#m415e4ea606" x="329.94" y="196.363636" style="fill: #1a1a1a; stroke: #1a1a1a; stroke-width: 0.8"/>
      </g>
     </g>
     <g id="text_23">
      <!-- $\mathdefault{6}$ -->
      <g style="fill: #1a1a1a" transform="translate(325.14 253.557656) scale(0.15 -0.15)">
       <use xlink:href="#DejaVuSerif-36" transform="translate(0 0.78125)"/>
      </g>
     </g>
    </g>
    <g id="xtick_22">
     <g id="line2d_100">
      <g>
       <use xlink:href="#mf25b35457c" x="419.04" y="236.16" style="fill: #1a1a1a; stroke: #1a1a1a; stroke-width: 0.8"/>
      </g>
     </g>
     <g id="line2d_101">
      <g>
       <use xlink:href="#m415e4ea606" x="419.04" y="196.363636" style="fill: #1a1a1a; stroke: #1a1a1a; stroke-width: 0.8"/>
      </g>
     </g>
     <g id="text_24">
      <!-- $\mathdefault{8}$ -->
      <g style="fill: #1a1a1a" transform="translate(414.24 253.557656) scale(0.15 -0.15)">
       <defs>
        <path id="DejaVuSerif-38" d="M 2981 1275 
Q 2981 1775 2732 2051 
Q 2484 2328 2034 2328 
Q 1584 2328 1336 2051 
Q 1088 1775 1088 1275 
Q 1088 772 1336 495 
Q 1584 219 2034 219 
Q 2484 219 2732 495 
Q 2981 772 2981 1275 
z
M 2853 3541 
Q 2853 3966 2637 4203 
Q 2422 4441 2034 4441 
Q 1650 4441 1433 4203 
Q 1216 3966 1216 3541 
Q 1216 3113 1433 2875 
Q 1650 2638 2034 2638 
Q 2422 2638 2637 2875 
Q 2853 3113 2853 3541 
z
M 2516 2484 
Q 3047 2413 3344 2092 
Q 3641 1772 3641 1275 
Q 3641 619 3225 264 
Q 2809 -91 2034 -91 
Q 1263 -91 845 264 
Q 428 619 428 1275 
Q 428 1772 725 2092 
Q 1022 2413 1556 2484 
Q 1084 2569 832 2842 
Q 581 3116 581 3541 
Q 581 4103 968 4426 
Q 1356 4750 2034 4750 
Q 2713 4750 3100 4426 
Q 3488 4103 3488 3541 
Q 3488 3116 3236 2842 
Q 2984 2569 2516 2484 
z
" transform="scale(0.015625)"/>
       </defs>
       <use xlink:href="#DejaVuSerif-38" transform="translate(0 0.78125)"/>
      </g>
     </g>
    </g>
    <g id="xtick_23">
     <g id="line2d_102">
      <g>
       <use xlink:href="#m8de44d0989" x="84.915" y="236.16" style="fill: #1a1a1a; stroke: #1a1a1a; stroke-width: 0.6"/>
      </g>
     </g>
     <g id="line2d_103">
      <g>
       <use xlink:href="#m8ce5376049" x="84.915" y="196.363636" style="fill: #1a1a1a; stroke: #1a1a1a; stroke-width: 0.6"/>
      </g>
     </g>
    </g>
    <g id="xtick_24">
     <g id="line2d_104">
      <g>
       <use xlink:href="#m8de44d0989" x="107.19" y="236.16" style="fill: #1a1a1a; stroke: #1a1a1a; stroke-width: 0.6"/>
      </g>
     </g>
     <g id="line2d_105">
      <g>
       <use xlink:href="#m8ce5376049" x="107.19" y="196.363636" style="fill: #1a1a1a; stroke: #1a1a1a; stroke-width: 0.6"/>
      </g>
     </g>
    </g>
    <g id="xtick_25">
     <g id="line2d_106">
      <g>
       <use xlink:href="#m8de44d0989" x="129.465" y="236.16" style="fill: #1a1a1a; stroke: #1a1a1a; stroke-width: 0.6"/>
      </g>
     </g>
     <g id="line2d_107">
      <g>
       <use xlink:href="#m8ce5376049" x="129.465" y="196.363636" style="fill: #1a1a1a; stroke: #1a1a1a; stroke-width: 0.6"/>
      </g>
     </g>
    </g>
    <g id="xtick_26">
     <g id="line2d_108">
      <g>
       <use xlink:href="#m8de44d0989" x="174.015" y="236.16" style="fill: #1a1a1a; stroke: #1a1a1a; stroke-width: 0.6"/>
      </g>
     </g>
     <g id="line2d_109">
      <g>
       <use xlink:href="#m8ce5376049" x="174.015" y="196.363636" style="fill: #1a1a1a; stroke: #1a1a1a; stroke-width: 0.6"/>
      </g>
     </g>
    </g>
    <g id="xtick_27">
     <g id="line2d_110">
      <g>
       <use xlink:href="#m8de44d0989" x="196.29" y="236.16" style="fill: #1a1a1a; stroke: #1a1a1a; stroke-width: 0.6"/>
      </g>
     </g>
     <g id="line2d_111">
      <g>
       <use xlink:href="#m8ce5376049" x="196.29" y="196.363636" style="fill: #1a1a1a; stroke: #1a1a1a; stroke-width: 0.6"/>
      </g>
     </g>
    </g>
    <g id="xtick_28">
     <g id="line2d_112">
      <g>
       <use xlink:href="#m8de44d0989" x="218.565" y="236.16" style="fill: #1a1a1a; stroke: #1a1a1a; stroke-width: 0.6"/>
      </g>
     </g>
     <g id="line2d_113">
      <g>
       <use xlink:href="#m8ce5376049" x="218.565" y="196.363636" style="fill: #1a1a1a; stroke: #1a1a1a; stroke-width: 0.6"/>
      </g>
     </g>
    </g>
    <g id="xtick_29">
     <g id="line2d_114">
      <g>
       <use xlink:href="#m8de44d0989" x="263.115" y="236.16" style="fill: #1a1a1a; stroke: #1a1a1a; stroke-width: 0.6"/>
      </g>
     </g>
     <g id="line2d_115">
      <g>
       <use xlink:href="#m8ce5376049" x="263.115" y="196.363636" style="fill: #1a1a1a; stroke: #1a1a1a; stroke-width: 0.6"/>
      </g>
     </g>
    </g>
    <g id="xtick_30">
     <g id="line2d_116">
      <g>
       <use xlink:href="#m8de44d0989" x="285.39" y="236.16" style="fill: #1a1a1a; stroke: #1a1a1a; stroke-width: 0.6"/>
      </g>
     </g>
     <g id="line2d_117">
      <g>
       <use xlink:href="#m8ce5376049" x="285.39" y="196.363636" style="fill: #1a1a1a; stroke: #1a1a1a; stroke-width: 0.6"/>
      </g>
     </g>
    </g>
    <g id="xtick_31">
     <g id="line2d_118">
      <g>
       <use xlink:href="#m8de44d0989" x="307.665" y="236.16" style="fill: #1a1a1a; stroke: #1a1a1a; stroke-width: 0.6"/>
      </g>
     </g>
     <g id="line2d_119">
      <g>
       <use xlink:href="#m8ce5376049" x="307.665" y="196.363636" style="fill: #1a1a1a; stroke: #1a1a1a; stroke-width: 0.6"/>
      </g>
     </g>
    </g>
    <g id="xtick_32">
     <g id="line2d_120">
      <g>
       <use xlink:href="#m8de44d0989" x="352.215" y="236.16" style="fill: #1a1a1a; stroke: #1a1a1a; stroke-width: 0.6"/>
      </g>
     </g>
     <g id="line2d_121">
      <g>
       <use xlink:href="#m8ce5376049" x="352.215" y="196.363636" style="fill: #1a1a1a; stroke: #1a1a1a; stroke-width: 0.6"/>
      </g>
     </g>
    </g>
    <g id="xtick_33">
     <g id="line2d_122">
      <g>
       <use xlink:href="#m8de44d0989" x="374.49" y="236.16" style="fill: #1a1a1a; stroke: #1a1a1a; stroke-width: 0.6"/>
      </g>
     </g>
     <g id="line2d_123">
      <g>
       <use xlink:href="#m8ce5376049" x="374.49" y="196.363636" style="fill: #1a1a1a; stroke: #1a1a1a; stroke-width: 0.6"/>
      </g>
     </g>
    </g>
    <g id="xtick_34">
     <g id="line2d_124">
      <g>
       <use xlink:href="#m8de44d0989" x="396.765" y="236.16" style="fill: #1a1a1a; stroke: #1a1a1a; stroke-width: 0.6"/>
      </g>
     </g>
     <g id="line2d_125">
      <g>
       <use xlink:href="#m8ce5376049" x="396.765" y="196.363636" style="fill: #1a1a1a; stroke: #1a1a1a; stroke-width: 0.6"/>
      </g>
     </g>
    </g>
    <g id="text_25">
     <!-- (variable_1 $\times$ variable_2) bin -->
     <g style="fill: #1a1a1a" transform="translate(79.47 279.397187) scale(0.22 -0.22)">
      <defs>
       <path id="DejaVuSerif-28" d="M 2041 -997 
Q 1281 -656 893 83 
Q 506 822 506 1931 
Q 506 3044 893 3783 
Q 1281 4522 2041 4863 
L 2041 4556 
Q 1559 4225 1350 3623 
Q 1141 3022 1141 1931 
Q 1141 844 1350 242 
Q 1559 -359 2041 -691 
L 2041 -997 
z
" transform="scale(0.015625)"/>
       <path id="DejaVuSerif-76" d="M 1581 0 
L 359 2988 
L -19 2988 
L -19 3322 
L 1509 3322 
L 1509 2988 
L 978 2988 
L 1913 703 
L 2847 2988 
L 2350 2988 
L 2350 3322 
L 3597 3322 
L 3597 2988 
L 3225 2988 
L 2003 0 
L 1581 0 
z
" transform="scale(0.015625)"/>
       <path id="DejaVuSerif-62" d="M 738 331 
L 738 4531 
L 184 4531 
L 184 4863 
L 1313 4863 
L 1313 2803 
Q 1481 3116 1742 3264 
Q 2003 3413 2388 3413 
Q 3000 3413 3387 2928 
Q 3775 2444 3775 1663 
Q 3775 881 3387 395 
Q 3000 -91 2388 -91 
Q 2003 -91 1742 57 
Q 1481 206 1313 519 
L 1313 0 
L 184 0 
L 184 331 
L 738 331 
z
M 1313 1497 
Q 1313 897 1542 583 
Q 1772 269 2209 269 
Q 2650 269 2876 622 
Q 3103 975 3103 1663 
Q 3103 2353 2876 2703 
Q 2650 3053 2209 3053 
Q 1772 3053 1542 2737 
Q 1313 2422 1313 1825 
L 1313 1497 
z
" transform="scale(0.015625)"/>
       <path id="DejaVuSerif-5f" d="M 3200 -1259 
L 3200 -1509 
L 0 -1509 
L 0 -1259 
L 3200 -1259 
z
" transform="scale(0.015625)"/>
       <path id="DejaVuSerif-29" d="M 453 -997 
L 453 -691 
Q 934 -359 1145 242 
Q 1356 844 1356 1931 
Q 1356 3022 1145 3623 
Q 934 4225 453 4556 
L 453 4863 
Q 1216 4522 1603 3783 
Q 1991 3044 1991 1931 
Q 1991 822 1603 83 
Q 1216 -656 453 -997 
z
" transform="scale(0.015625)"/>
      </defs>
      <use xlink:href="#DejaVuSerif-28" transform="translate(0 0.015625)"/>
      <use xlink:href="#DejaVuSerif-76" transform="translate(39.013672 0.015625)"/>
      <use xlink:href="#DejaVuSerif-61" transform="translate(95.507812 0.015625)"/>
      <use xlink:href="#DejaVuSerif-72" transform="translate(155.126953 0.015625)"/>
      <use xlink:href="#DejaVuSerif-69" transform="translate(202.929688 0.015625)"/>
      <use xlink:href="#DejaVuSerif-61" transform="translate(234.912109 0.015625)"/>
      <use xlink:href="#DejaVuSerif-62" transform="translate(294.53125 0.015625)"/>
      <use xlink:href="#DejaVuSerif-6c" transform="translate(358.544922 0.015625)"/>
      <use xlink:href="#DejaVuSerif-65" transform="translate(390.527344 0.015625)"/>
      <use xlink:href="#DejaVuSerif-5f" transform="translate(449.707031 0.015625)"/>
      <use xlink:href="#DejaVuSerif-31" transform="translate(499.707031 0.015625)"/>
      <use xlink:href="#DejaVuSerif-20" transform="translate(563.330078 0.015625)"/>
      <use xlink:href="#DejaVuSerif-d7" transform="translate(595.117188 0.015625)"/>
      <use xlink:href="#DejaVuSerif-20" transform="translate(678.90625 0.015625)"/>
      <use xlink:href="#DejaVuSerif-76" transform="translate(710.693359 0.015625)"/>
      <use xlink:href="#DejaVuSerif-61" transform="translate(767.1875 0.015625)"/>
      <use xlink:href="#DejaVuSerif-72" transform="translate(826.806641 0.015625)"/>
      <use xlink:href="#DejaVuSerif-69" transform="translate(874.609375 0.015625)"/>
      <use xlink:href="#DejaVuSerif-61" transform="translate(906.591797 0.015625)"/>
      <use xlink:href="#DejaVuSerif-62" transform="translate(966.210938 0.015625)"/>
      <use xlink:href="#DejaVuSerif-6c" transform="translate(1030.224609 0.015625)"/>
      <use xlink:href="#DejaVuSerif-65" transform="translate(1062.207031 0.015625)"/>
      <use xlink:href="#DejaVuSerif-5f" transform="translate(1121.386719 0.015625)"/>
      <use xlink:href="#DejaVuSerif-32" transform="translate(1171.386719 0.015625)"/>
      <use xlink:href="#DejaVuSerif-29" transform="translate(1235.009766 0.015625)"/>
      <use xlink:href="#DejaVuSerif-20" transform="translate(1274.023438 0.015625)"/>
      <use xlink:href="#DejaVuSerif-62" transform="translate(1305.810547 0.015625)"/>
      <use xlink:href="#DejaVuSerif-69" transform="translate(1369.824219 0.015625)"/>
      <use xlink:href="#DejaVuSerif-6e" transform="translate(1401.806641 0.015625)"/>
     </g>
    </g>
   </g>
   <g id="matplotlib.axis_4">
    <g id="ytick_27">
     <g id="line2d_126">
      <g>
       <use xlink:href="#mfce50b6cce" x="62.64" y="236.16" style="fill: #1a1a1a; stroke: #1a1a1a; stroke-width: 0.8"/>
      </g>
     </g>
     <g id="line2d_127">
      <g>
       <use xlink:href="#m314a9ee455" x="419.04" y="236.16" style="fill: #1a1a1a; stroke: #1a1a1a; stroke-width: 0.8"/>
      </g>
     </g>
     <g id="text_26">
      <!-- $\mathdefault{0}$ -->
      <g style="fill: #1a1a1a" transform="translate(47.04 241.858828) scale(0.15 -0.15)">
       <use xlink:href="#DejaVuSerif-30" transform="translate(0 0.78125)"/>
      </g>
     </g>
    </g>
    <g id="ytick_28">
     <g id="line2d_128">
      <g>
       <use xlink:href="#mfce50b6cce" x="62.64" y="196.363636" style="fill: #1a1a1a; stroke: #1a1a1a; stroke-width: 0.8"/>
      </g>
     </g>
     <g id="line2d_129">
      <g>
       <use xlink:href="#m314a9ee455" x="419.04" y="196.363636" style="fill: #1a1a1a; stroke: #1a1a1a; stroke-width: 0.8"/>
      </g>
     </g>
     <g id="text_27">
      <!-- $\mathdefault{2}$ -->
      <g style="fill: #1a1a1a" transform="translate(47.04 202.062464) scale(0.15 -0.15)">
       <use xlink:href="#DejaVuSerif-32" transform="translate(0 0.78125)"/>
      </g>
     </g>
    </g>
    <g id="ytick_29">
     <g id="line2d_130">
      <g>
       <use xlink:href="#m08ff7920e0" x="62.64" y="226.210909" style="fill: #1a1a1a; stroke: #1a1a1a; stroke-width: 0.6"/>
      </g>
     </g>
     <g id="line2d_131">
      <g>
       <use xlink:href="#mbc3a3ed620" x="419.04" y="226.210909" style="fill: #1a1a1a; stroke: #1a1a1a; stroke-width: 0.6"/>
      </g>
     </g>
    </g>
    <g id="ytick_30">
     <g id="line2d_132">
      <g>
       <use xlink:href="#m08ff7920e0" x="62.64" y="216.261818" style="fill: #1a1a1a; stroke: #1a1a1a; stroke-width: 0.6"/>
      </g>
     </g>
     <g id="line2d_133">
      <g>
       <use xlink:href="#mbc3a3ed620" x="419.04" y="216.261818" style="fill: #1a1a1a; stroke: #1a1a1a; stroke-width: 0.6"/>
      </g>
     </g>
    </g>
    <g id="ytick_31">
     <g id="line2d_134">
      <g>
       <use xlink:href="#m08ff7920e0" x="62.64" y="206.312727" style="fill: #1a1a1a; stroke: #1a1a1a; stroke-width: 0.6"/>
      </g>
     </g>
     <g id="line2d_135">
      <g>
       <use xlink:href="#mbc3a3ed620" x="419.04" y="206.312727" style="fill: #1a1a1a; stroke: #1a1a1a; stroke-width: 0.6"/>
      </g>
     </g>
    </g>
    <g id="text_28">
     <!-- $\frac{Data}{Simulation}$ -->
     <g style="fill: #1a1a1a" transform="translate(33.48 251.991818) rotate(-90) scale(0.18 -0.18)">
      <defs>
       <path id="DejaVuSerif-6d" d="M 3316 2675 
Q 3481 3041 3739 3227 
Q 3997 3413 4341 3413 
Q 4863 3413 5119 3089 
Q 5375 2766 5375 2113 
L 5375 331 
L 5894 331 
L 5894 0 
L 4300 0 
L 4300 331 
L 4800 331 
L 4800 2047 
Q 4800 2556 4650 2772 
Q 4500 2988 4153 2988 
Q 3769 2988 3567 2697 
Q 3366 2406 3366 1850 
L 3366 331 
L 3866 331 
L 3866 0 
L 2291 0 
L 2291 331 
L 2791 331 
L 2791 2069 
Q 2791 2566 2641 2777 
Q 2491 2988 2144 2988 
Q 1759 2988 1557 2697 
Q 1356 2406 1356 1850 
L 1356 331 
L 1856 331 
L 1856 0 
L 263 0 
L 263 331 
L 781 331 
L 781 2994 
L 231 2994 
L 231 3322 
L 1356 3322 
L 1356 2731 
Q 1516 3063 1762 3238 
Q 2009 3413 2322 3413 
Q 2709 3413 2968 3220 
Q 3228 3028 3316 2675 
z
" transform="scale(0.015625)"/>
       <path id="DejaVuSerif-6f" d="M 1925 219 
Q 2388 219 2623 584 
Q 2859 950 2859 1663 
Q 2859 2375 2623 2739 
Q 2388 3103 1925 3103 
Q 1463 3103 1227 2739 
Q 991 2375 991 1663 
Q 991 950 1228 584 
Q 1466 219 1925 219 
z
M 1925 -91 
Q 1200 -91 759 389 
Q 319 869 319 1663 
Q 319 2456 758 2934 
Q 1197 3413 1925 3413 
Q 2653 3413 3092 2934 
Q 3531 2456 3531 1663 
Q 3531 869 3092 389 
Q 2653 -91 1925 -91 
z
" transform="scale(0.015625)"/>
      </defs>
      <use xlink:href="#DejaVuSerif-44" transform="translate(108 44.965625) scale(0.7)"/>
      <use xlink:href="#DejaVuSerif-61" transform="translate(164.123047 44.965625) scale(0.7)"/>
      <use xlink:href="#DejaVuSerif-74" transform="translate(205.856445 44.965625) scale(0.7)"/>
      <use xlink:href="#DejaVuSerif-61" transform="translate(233.986328 44.965625) scale(0.7)"/>
      <use xlink:href="#DejaVuSerif-53" transform="translate(0 -40.46875) scale(0.7)"/>
      <use xlink:href="#DejaVuSerif-69" transform="translate(47.954102 -40.46875) scale(0.7)"/>
      <use xlink:href="#DejaVuSerif-6d" transform="translate(70.341797 -40.46875) scale(0.7)"/>
      <use xlink:href="#DejaVuSerif-75" transform="translate(136.71875 -40.46875) scale(0.7)"/>
      <use xlink:href="#DejaVuSerif-6c" transform="translate(181.801758 -40.46875) scale(0.7)"/>
      <use xlink:href="#DejaVuSerif-61" transform="translate(204.189453 -40.46875) scale(0.7)"/>
      <use xlink:href="#DejaVuSerif-74" transform="translate(245.922852 -40.46875) scale(0.7)"/>
      <use xlink:href="#DejaVuSerif-69" transform="translate(274.052734 -40.46875) scale(0.7)"/>
      <use xlink:href="#DejaVuSerif-6f" transform="translate(296.44043 -40.46875) scale(0.7)"/>
      <use xlink:href="#DejaVuSerif-6e" transform="translate(338.583984 -40.46875) scale(0.7)"/>
      <path d="M 0 18.970313 
L 0 25.220313 
L 383.666992 25.220313 
L 383.666992 18.970313 
L 0 18.970313 
z
"/>
     </g>
    </g>
   </g>
  </g>
 </g>
 <defs>
  <clipPath id="p67f3b3cf28">
   <rect x="62.64" y="17.28" width="356.4" height="159.185455"/>
  </clipPath>
  <clipPath id="p311b270391">
   <rect x="62.64" y="196.363636" width="356.4" height="39.796364"/>
  </clipPath>
 </defs>
 <defs>
  <pattern id="h3c56dc72de" patternUnits="userSpaceOnUse" x="0" y="0" width="72" height="72">
   <rect x="0" y="0" width="73" height="73" fill="none"/>
   <path d="M -36 36 
L 36 -36 
M -33 39 
L 39 -33 
M -30 42 
L 42 -30 
M -27 45 
L 45 -27 
M -24 48 
L 48 -24 
M -21 51 
L 51 -21 
M -18 54 
L 54 -18 
M -15 57 
L 57 -15 
M -12 60 
L 60 -12 
M -9 63 
L 63 -9 
M -6 66 
L 66 -6 
M -3 69 
L 69 -3 
M 0 72 
L 72 0 
M 3 75 
L 75 3 
M 6 78 
L 78 6 
M 9 81 
L 81 9 
M 12 84 
L 84 12 
M 15 87 
L 87 15 
M 18 90 
L 90 18 
M 21 93 
L 93 21 
M 24 96 
L 96 24 
M 27 99 
L 99 27 
M 30 102 
L 102 30 
M 33 105 
L 105 33 
M 36 108 
L 108 36 
" style="fill: #696969; stroke: #696969; stroke-width: 1.0; stroke-linecap: butt; stroke-linejoin: miter"/>
  </pattern>
 </defs>
</svg>
