<?xml version="1.0" encoding="utf-8" standalone="no"?>
<!DOCTYPE svg PUBLIC "-//W3C//DTD SVG 1.1//EN"
  "http://www.w3.org/Graphics/SVG/1.1/DTD/svg11.dtd">
<svg xmlns:xlink="http://www.w3.org/1999/xlink" width="397.704pt" height="352.784759pt" viewBox="0 0 397.704 352.784759" xmlns="http://www.w3.org/2000/svg" version="1.1">
 <metadata>
  <rdf:RDF xmlns:dc="http://purl.org/dc/elements/1.1/" xmlns:cc="http://creativecommons.org/ns#" xmlns:rdf="http://www.w3.org/1999/02/22-rdf-syntax-ns#">
   <cc:Work>
    <dc:creator>
     <cc:Agent>
      <dc:title>カリビアンカフェ</dc:title>
     </cc:Agent>
    </dc:creator>
   </cc:Work>
  </rdf:RDF>
 </metadata>
 <defs>
  <style type="text/css">*{stroke-linejoin: round; stroke-linecap: butt}</style>
 </defs>
 <g id="figure_1">
  <g id="patch_1">
   <path d="M -0 352.784759 
L 397.704 352.784759 
L 397.704 0 
L -0 0 
z
" style="fill: #ffffff"/>
  </g>
  <g id="axes_1">
   <g id="patch_2">
    <path d="M 55.704 228.991256 
L 390.504 228.991256 
L 390.504 22.702884 
L 55.704 22.702884 
z
" style="fill: #ffffff"/>
   </g>
   <g id="patch_3">
    <path d="M 55.704 228.919739 
L 55.704 228.919739 
L 62.4 228.919739 
L 62.4 228.776705 
L 69.096 228.776705 
L 69.096 228.419121 
L 75.792 228.419121 
L 75.792 228.061536 
L 82.488 228.061536 
L 82.488 227.0603 
L 89.184 227.0603 
L 89.184 225.701479 
L 95.88 225.701479 
L 95.88 223.412939 
L 102.576 223.412939 
L 102.576 217.834622 
L 109.272 217.834622 
L 109.272 210.039282 
L 115.968 210.039282 
L 115.968 203.960347 
L 122.664 203.960347 
L 122.664 183.148933 
L 129.36 183.148933 
L 129.36 168.487972 
L 136.056 168.487972 
L 136.056 145.888637 
L 142.752 145.888637 
L 142.752 123.575369 
L 149.448 123.575369 
L 149.448 101.619686 
L 156.144 101.619686 
L 156.144 87.030242 
L 162.84 87.030242 
L 162.84 78.948834 
L 169.536 78.948834 
L 169.536 78.376699 
L 176.232 78.376699 
L 176.232 87.459343 
L 182.928 87.459343 
L 182.928 94.324964 
L 189.624 94.324964 
L 189.624 103.836709 
L 196.32 103.836709 
L 196.32 110.487779 
L 203.016 110.487779 
L 203.016 124.719639 
L 209.712 124.719639 
L 209.712 119.856491 
L 216.408 119.856491 
L 216.408 122.717167 
L 223.104 122.717167 
L 223.104 120.929245 
L 229.8 120.929245 
L 229.8 129.511271 
L 236.496 129.511271 
L 236.496 140.667904 
L 243.192 140.667904 
L 243.192 150.608751 
L 249.888 150.608751 
L 249.888 162.194486 
L 256.584 162.194486 
L 256.584 172.349884 
L 263.28 172.349884 
L 263.28 190.300622 
L 269.976 190.300622 
L 269.976 201.457256 
L 276.672 201.457256 
L 276.672 210.611417 
L 283.368 210.611417 
L 283.368 216.690352 
L 290.064 216.690352 
L 290.064 221.696534 
L 296.76 221.696534 
L 296.76 224.77176 
L 303.456 224.77176 
L 303.456 226.774232 
L 310.152 226.774232 
L 310.152 227.417884 
L 316.848 227.417884 
L 316.848 228.490638 
L 323.544 228.490638 
L 323.544 228.562155 
L 330.24 228.562155 
L 330.24 228.848222 
L 336.936 228.848222 
L 336.936 228.919739 
L 343.632 228.919739 
L 343.632 228.919739 
L 350.328 228.919739 
L 350.328 228.991256 
L 357.024 228.991256 
L 357.024 228.919739 
L 363.72 228.919739 
L 363.72 228.919739 
L 370.416 228.919739 
L 370.416 228.991256 
L 377.112 228.991256 
L 377.112 228.991256 
L 383.808 228.991256 
L 383.808 228.991256 
L 390.504 228.991256 
L 390.504 228.991256 
L 383.808 228.991256 
L 383.808 228.991256 
L 377.112 228.991256 
L 377.112 228.991256 
L 370.416 228.991256 
L 370.416 228.991256 
L 363.72 228.991256 
L 363.72 228.991256 
L 357.024 228.991256 
L 357.024 228.991256 
L 350.328 228.991256 
L 350.328 228.919739 
L 343.632 228.919739 
L 343.632 228.991256 
L 336.936 228.991256 
L 336.936 228.991256 
L 330.24 228.991256 
L 330.24 228.705188 
L 323.544 228.705188 
L 323.544 228.848222 
L 316.848 228.848222 
L 316.848 228.419121 
L 310.152 228.419121 
L 310.152 228.276087 
L 303.456 228.276087 
L 303.456 227.703952 
L 296.76 227.703952 
L 296.76 225.844513 
L 290.064 225.844513 
L 290.064 223.84204 
L 283.368 223.84204 
L 283.368 220.695297 
L 276.672 220.695297 
L 276.672 215.260014 
L 269.976 215.260014 
L 269.976 209.109562 
L 263.28 209.109562 
L 263.28 199.311749 
L 256.584 199.311749 
L 256.584 192.946746 
L 249.888 192.946746 
L 249.888 186.939328 
L 243.192 186.939328 
L 243.192 182.648315 
L 236.496 182.648315 
L 236.496 175.139042 
L 229.8 175.139042 
L 229.8 168.058871 
L 223.104 168.058871 
L 223.104 165.269712 
L 216.408 165.269712 
L 216.408 161.836902 
L 209.712 161.836902 
L 209.712 162.909655 
L 203.016 162.909655 
L 203.016 148.534762 
L 196.32 148.534762 
L 196.32 139.595151 
L 189.624 139.595151 
L 189.624 134.374419 
L 182.928 134.374419 
L 182.928 126.293011 
L 176.232 126.293011 
L 176.232 122.931717 
L 169.536 122.931717 
L 169.536 123.432335 
L 162.84 123.432335 
L 162.84 126.793629 
L 156.144 126.793629 
L 156.144 135.518689 
L 149.448 135.518689 
L 149.448 148.034143 
L 142.752 148.034143 
L 142.752 162.623588 
L 136.056 162.623588 
L 136.056 180.431292 
L 129.36 180.431292 
L 129.36 190.300622 
L 122.664 190.300622 
L 122.664 207.393157 
L 115.968 207.393157 
L 115.968 211.827204 
L 109.272 211.827204 
L 109.272 218.835858 
L 102.576 218.835858 
L 102.576 223.84204 
L 95.88 223.84204 
L 95.88 225.91603 
L 89.184 225.91603 
L 89.184 227.131817 
L 82.488 227.131817 
L 82.488 228.061536 
L 75.792 228.061536 
L 75.792 228.419121 
L 69.096 228.419121 
L 69.096 228.776705 
L 62.4 228.776705 
L 62.4 228.919739 
z
" clip-path="url(#p85a0447211)" style="fill: #b1dcc2; stroke: #000000; stroke-width: 0.5; stroke-linejoin: miter"/>
   </g>
   <g id="patch_4">
    <path d="M 55.704 228.991256 
L 55.704 228.919739 
L 62.4 228.919739 
L 62.4 228.776705 
L 69.096 228.776705 
L 69.096 228.419121 
L 75.792 228.419121 
L 75.792 228.061536 
L 82.488 228.061536 
L 82.488 227.131817 
L 89.184 227.131817 
L 89.184 225.91603 
L 95.88 225.91603 
L 95.88 223.84204 
L 102.576 223.84204 
L 102.576 218.835858 
L 109.272 218.835858 
L 109.272 211.827204 
L 115.968 211.827204 
L 115.968 207.393157 
L 122.664 207.393157 
L 122.664 190.300622 
L 129.36 190.300622 
L 129.36 180.431292 
L 136.056 180.431292 
L 136.056 162.623588 
L 142.752 162.623588 
L 142.752 148.034143 
L 149.448 148.034143 
L 149.448 135.518689 
L 156.144 135.518689 
L 156.144 126.793629 
L 162.84 126.793629 
L 162.84 123.432335 
L 169.536 123.432335 
L 169.536 122.931717 
L 176.232 122.931717 
L 176.232 126.293011 
L 182.928 126.293011 
L 182.928 134.374419 
L 189.624 134.374419 
L 189.624 139.595151 
L 196.32 139.595151 
L 196.32 148.534762 
L 203.016 148.534762 
L 203.016 162.909655 
L 209.712 162.909655 
L 209.712 161.836902 
L 216.408 161.836902 
L 216.408 165.269712 
L 223.104 165.269712 
L 223.104 168.058871 
L 229.8 168.058871 
L 229.8 175.139042 
L 236.496 175.139042 
L 236.496 182.648315 
L 243.192 182.648315 
L 243.192 186.939328 
L 249.888 186.939328 
L 249.888 192.946746 
L 256.584 192.946746 
L 256.584 199.311749 
L 263.28 199.311749 
L 263.28 209.109562 
L 269.976 209.109562 
L 269.976 215.260014 
L 276.672 215.260014 
L 276.672 220.695297 
L 283.368 220.695297 
L 283.368 223.84204 
L 290.064 223.84204 
L 290.064 225.844513 
L 296.76 225.844513 
L 296.76 227.703952 
L 303.456 227.703952 
L 303.456 228.276087 
L 310.152 228.276087 
L 310.152 228.419121 
L 316.848 228.419121 
L 316.848 228.848222 
L 323.544 228.848222 
L 323.544 228.705188 
L 330.24 228.705188 
L 330.24 228.991256 
L 336.936 228.991256 
L 336.936 228.991256 
L 343.632 228.991256 
L 343.632 228.919739 
L 350.328 228.919739 
L 350.328 228.991256 
L 357.024 228.991256 
L 357.024 228.991256 
L 363.72 228.991256 
L 363.72 228.991256 
L 370.416 228.991256 
L 370.416 228.991256 
L 377.112 228.991256 
L 377.112 228.991256 
L 383.808 228.991256 
L 383.808 228.991256 
L 390.504 228.991256 
L 390.504 228.991256 
L 383.808 228.991256 
L 383.808 228.991256 
L 377.112 228.991256 
L 377.112 228.991256 
L 370.416 228.991256 
L 370.416 228.991256 
L 363.72 228.991256 
L 363.72 228.991256 
L 357.024 228.991256 
L 357.024 228.991256 
L 350.328 228.991256 
L 350.328 228.991256 
L 343.632 228.991256 
L 343.632 228.991256 
L 336.936 228.991256 
L 336.936 228.991256 
L 330.24 228.991256 
L 330.24 228.848222 
L 323.544 228.848222 
L 323.544 228.919739 
L 316.848 228.919739 
L 316.848 228.633671 
L 310.152 228.633671 
L 310.152 228.633671 
L 303.456 228.633671 
L 303.456 228.490638 
L 296.76 228.490638 
L 296.76 226.774232 
L 290.064 226.774232 
L 290.064 226.273614 
L 283.368 226.273614 
L 283.368 223.62749 
L 276.672 223.62749 
L 276.672 220.552264 
L 269.976 220.552264 
L 269.976 216.261251 
L 263.28 216.261251 
L 263.28 208.823495 
L 256.584 208.823495 
L 256.584 205.176134 
L 249.888 205.176134 
L 249.888 202.100908 
L 243.192 202.100908 
L 243.192 199.383266 
L 236.496 199.383266 
L 236.496 192.231578 
L 229.8 192.231578 
L 229.8 192.660679 
L 223.104 192.660679 
L 223.104 191.444892 
L 216.408 191.444892 
L 216.408 191.587926 
L 209.712 191.587926 
L 209.712 193.804949 
L 203.016 193.804949 
L 203.016 189.65697 
L 196.32 189.65697 
L 196.32 187.940565 
L 189.624 187.940565 
L 189.624 184.007136 
L 182.928 184.007136 
L 182.928 182.505281 
L 176.232 182.505281 
L 176.232 179.143988 
L 169.536 179.143988 
L 169.536 182.719832 
L 162.84 182.719832 
L 162.84 184.293203 
L 156.144 184.293203 
L 156.144 188.155115 
L 149.448 188.155115 
L 149.448 191.873993 
L 142.752 191.873993 
L 142.752 200.026918 
L 136.056 200.026918 
L 136.056 208.823495 
L 129.36 208.823495 
L 129.36 213.186025 
L 122.664 213.186025 
L 122.664 220.909848 
L 115.968 220.909848 
L 115.968 222.626253 
L 109.272 222.626253 
L 109.272 224.843277 
L 102.576 224.843277 
L 102.576 227.632435 
L 95.88 227.632435 
L 95.88 227.846986 
L 89.184 227.846986 
L 89.184 228.562155 
L 82.488 228.562155 
L 82.488 228.633671 
L 75.792 228.633671 
L 75.792 228.705188 
L 69.096 228.705188 
L 69.096 228.919739 
L 62.4 228.919739 
L 62.4 228.991256 
z
" clip-path="url(#p85a0447211)" style="fill: #b67b76; stroke: #000000; stroke-width: 0.5; stroke-linejoin: miter"/>
   </g>
   <g id="patch_5">
    <path d="M 55.704 228.991256 
L 55.704 228.991256 
L 62.4 228.991256 
L 62.4 228.919739 
L 69.096 228.919739 
L 69.096 228.705188 
L 75.792 228.705188 
L 75.792 228.633671 
L 82.488 228.633671 
L 82.488 228.562155 
L 89.184 228.562155 
L 89.184 227.846986 
L 95.88 227.846986 
L 95.88 227.632435 
L 102.576 227.632435 
L 102.576 224.843277 
L 109.272 224.843277 
L 109.272 222.626253 
L 115.968 222.626253 
L 115.968 220.909848 
L 122.664 220.909848 
L 122.664 213.186025 
L 129.36 213.186025 
L 129.36 208.823495 
L 136.056 208.823495 
L 136.056 200.026918 
L 142.752 200.026918 
L 142.752 191.873993 
L 149.448 191.873993 
L 149.448 188.155115 
L 156.144 188.155115 
L 156.144 184.293203 
L 162.84 184.293203 
L 162.84 182.719832 
L 169.536 182.719832 
L 169.536 179.143988 
L 176.232 179.143988 
L 176.232 182.505281 
L 182.928 182.505281 
L 182.928 184.007136 
L 189.624 184.007136 
L 189.624 187.940565 
L 196.32 187.940565 
L 196.32 189.65697 
L 203.016 189.65697 
L 203.016 193.804949 
L 209.712 193.804949 
L 209.712 191.587926 
L 216.408 191.587926 
L 216.408 191.444892 
L 223.104 191.444892 
L 223.104 192.660679 
L 229.8 192.660679 
L 229.8 192.231578 
L 236.496 192.231578 
L 236.496 199.383266 
L 243.192 199.383266 
L 243.192 202.100908 
L 249.888 202.100908 
L 249.888 205.176134 
L 256.584 205.176134 
L 256.584 208.823495 
L 263.28 208.823495 
L 263.28 216.261251 
L 269.976 216.261251 
L 269.976 220.552264 
L 276.672 220.552264 
L 276.672 223.62749 
L 283.368 223.62749 
L 283.368 226.273614 
L 290.064 226.273614 
L 290.064 226.774232 
L 296.76 226.774232 
L 296.76 228.490638 
L 303.456 228.490638 
L 303.456 228.633671 
L 310.152 228.633671 
L 310.152 228.633671 
L 316.848 228.633671 
L 316.848 228.919739 
L 323.544 228.919739 
L 323.544 228.848222 
L 330.24 228.848222 
L 330.24 228.991256 
L 336.936 228.991256 
L 336.936 228.991256 
L 343.632 228.991256 
L 343.632 228.991256 
L 350.328 228.991256 
L 350.328 228.991256 
L 357.024 228.991256 
L 357.024 228.991256 
L 363.72 228.991256 
L 363.72 228.991256 
L 370.416 228.991256 
L 370.416 228.991256 
L 377.112 228.991256 
L 377.112 228.991256 
L 383.808 228.991256 
L 383.808 228.991256 
L 390.504 228.991256 
L 390.504 228.991256 
L 383.808 228.991256 
L 383.808 228.991256 
L 377.112 228.991256 
L 377.112 228.991256 
L 370.416 228.991256 
L 370.416 228.991256 
L 363.72 228.991256 
L 363.72 228.991256 
L 357.024 228.991256 
L 357.024 228.991256 
L 350.328 228.991256 
L 350.328 228.991256 
L 343.632 228.991256 
L 343.632 228.991256 
L 336.936 228.991256 
L 336.936 228.991256 
L 330.24 228.991256 
L 330.24 228.991256 
L 323.544 228.991256 
L 323.544 228.991256 
L 316.848 228.991256 
L 316.848 228.991256 
L 310.152 228.991256 
L 310.152 228.991256 
L 303.456 228.991256 
L 303.456 228.991256 
L 296.76 228.991256 
L 296.76 228.991256 
L 290.064 228.991256 
L 290.064 228.991256 
L 283.368 228.991256 
L 283.368 228.991256 
L 276.672 228.991256 
L 276.672 228.991256 
L 269.976 228.991256 
L 269.976 228.991256 
L 263.28 228.991256 
L 263.28 228.991256 
L 256.584 228.991256 
L 256.584 228.991256 
L 249.888 228.991256 
L 249.888 228.991256 
L 243.192 228.991256 
L 243.192 228.991256 
L 236.496 228.991256 
L 236.496 228.991256 
L 229.8 228.991256 
L 229.8 228.991256 
L 223.104 228.991256 
L 223.104 228.991256 
L 216.408 228.991256 
L 216.408 228.991256 
L 209.712 228.991256 
L 209.712 228.991256 
L 203.016 228.991256 
L 203.016 228.991256 
L 196.32 228.991256 
L 196.32 228.991256 
L 189.624 228.991256 
L 189.624 228.991256 
L 182.928 228.991256 
L 182.928 228.991256 
L 176.232 228.991256 
L 176.232 228.991256 
L 169.536 228.991256 
L 169.536 228.991256 
L 162.84 228.991256 
L 162.84 228.991256 
L 156.144 228.991256 
L 156.144 228.991256 
L 149.448 228.991256 
L 149.448 228.991256 
L 142.752 228.991256 
L 142.752 228.991256 
L 136.056 228.991256 
L 136.056 228.991256 
L 129.36 228.991256 
L 129.36 228.991256 
L 122.664 228.991256 
L 122.664 228.991256 
L 115.968 228.991256 
L 115.968 228.991256 
L 109.272 228.991256 
L 109.272 228.991256 
L 102.576 228.991256 
L 102.576 228.991256 
L 95.88 228.991256 
L 95.88 228.991256 
L 89.184 228.991256 
L 89.184 228.991256 
L 82.488 228.991256 
L 82.488 228.991256 
L 75.792 228.991256 
L 75.792 228.991256 
L 69.096 228.991256 
L 69.096 228.991256 
L 62.4 228.991256 
L 62.4 228.991256 
z
" clip-path="url(#p85a0447211)" style="fill: #3d4c74; stroke: #000000; stroke-width: 0.5; stroke-linejoin: miter"/>
   </g>
   <g id="LineCollection_1">
    <path d="M 59.052 228.954152 
L 59.052 228.282596 
" clip-path="url(#p85a0447211)" style="fill: none; stroke: #000000; stroke-width: 1.5"/>
    <path d="M 65.748 228.839154 
L 65.748 227.995154 
" clip-path="url(#p85a0447211)" style="fill: none; stroke: #000000; stroke-width: 1.5"/>
    <path d="M 72.444 228.697593 
L 72.444 227.72017 
" clip-path="url(#p85a0447211)" style="fill: none; stroke: #000000; stroke-width: 1.5"/>
    <path d="M 79.14 228.042261 
L 79.14 226.678056 
" clip-path="url(#p85a0447211)" style="fill: none; stroke: #000000; stroke-width: 1.5"/>
    <path d="M 85.836 226.963481 
L 85.836 225.190238 
" clip-path="url(#p85a0447211)" style="fill: none; stroke: #000000; stroke-width: 1.5"/>
    <path d="M 92.532 222.935024 
L 92.532 220.209464 
" clip-path="url(#p85a0447211)" style="fill: none; stroke: #000000; stroke-width: 1.5"/>
    <path d="M 99.228 219.965506 
L 99.228 216.738781 
" clip-path="url(#p85a0447211)" style="fill: none; stroke: #000000; stroke-width: 1.5"/>
    <path d="M 105.924 214.7389 
L 105.924 210.799974 
" clip-path="url(#p85a0447211)" style="fill: none; stroke: #000000; stroke-width: 1.5"/>
    <path d="M 112.62 205.362604 
L 112.62 200.419505 
" clip-path="url(#p85a0447211)" style="fill: none; stroke: #000000; stroke-width: 1.5"/>
    <path d="M 119.316 189.070868 
L 119.316 182.778775 
" clip-path="url(#p85a0447211)" style="fill: none; stroke: #000000; stroke-width: 1.5"/>
    <path d="M 126.012 179.522651 
L 126.012 172.568329 
" clip-path="url(#p85a0447211)" style="fill: none; stroke: #000000; stroke-width: 1.5"/>
    <path d="M 132.708 155.326776 
L 132.708 146.937328 
" clip-path="url(#p85a0447211)" style="fill: none; stroke: #000000; stroke-width: 1.5"/>
    <path d="M 139.404 119.682594 
L 139.404 109.558586 
" clip-path="url(#p85a0447211)" style="fill: none; stroke: #000000; stroke-width: 1.5"/>
    <path d="M 146.1 100.545044 
L 146.1 89.60722 
" clip-path="url(#p85a0447211)" style="fill: none; stroke: #000000; stroke-width: 1.5"/>
    <path d="M 152.796 66.619156 
L 152.796 54.375634 
" clip-path="url(#p85a0447211)" style="fill: none; stroke: #000000; stroke-width: 1.5"/>
    <path d="M 159.492 60.289872 
L 159.492 47.818417 
" clip-path="url(#p85a0447211)" style="fill: none; stroke: #000000; stroke-width: 1.5"/>
    <path d="M 166.188 54.380659 
L 166.188 41.700225 
" clip-path="url(#p85a0447211)" style="fill: none; stroke: #000000; stroke-width: 1.5"/>
    <path d="M 172.884 45.513631 
L 172.884 32.52614 
" clip-path="url(#p85a0447211)" style="fill: none; stroke: #000000; stroke-width: 1.5"/>
    <path d="M 179.58 55.647067 
L 179.58 43.011118 
" clip-path="url(#p85a0447211)" style="fill: none; stroke: #000000; stroke-width: 1.5"/>
    <path d="M 186.276 64.931557 
L 186.276 52.626833 
" clip-path="url(#p85a0447211)" style="fill: none; stroke: #000000; stroke-width: 1.5"/>
    <path d="M 192.972 99.913611 
L 192.972 88.950006 
" clip-path="url(#p85a0447211)" style="fill: none; stroke: #000000; stroke-width: 1.5"/>
    <path d="M 199.668 119.472473 
L 199.668 109.339159 
" clip-path="url(#p85a0447211)" style="fill: none; stroke: #000000; stroke-width: 1.5"/>
    <path d="M 206.364 134.589191 
L 206.364 125.149866 
" clip-path="url(#p85a0447211)" style="fill: none; stroke: #000000; stroke-width: 1.5"/>
    <path d="M 213.06 143.394628 
L 213.06 134.385386 
" clip-path="url(#p85a0447211)" style="fill: none; stroke: #000000; stroke-width: 1.5"/>
    <path d="M 219.756 170.361553 
L 219.756 162.829662 
" clip-path="url(#p85a0447211)" style="fill: none; stroke: #000000; stroke-width: 1.5"/>
    <path d="M 226.452 173.27899 
L 226.452 165.925801 
" clip-path="url(#p85a0447211)" style="fill: none; stroke: #000000; stroke-width: 1.5"/>
    <path d="M 233.148 176.610376 
L 233.148 169.467057 
" clip-path="url(#p85a0447211)" style="fill: none; stroke: #000000; stroke-width: 1.5"/>
    <path d="M 239.844 184.716175 
L 239.844 178.113238 
" clip-path="url(#p85a0447211)" style="fill: none; stroke: #000000; stroke-width: 1.5"/>
    <path d="M 246.54 194.863771 
L 246.54 189.012743 
" clip-path="url(#p85a0447211)" style="fill: none; stroke: #000000; stroke-width: 1.5"/>
    <path d="M 253.236 197.753451 
L 253.236 192.136442 
" clip-path="url(#p85a0447211)" style="fill: none; stroke: #000000; stroke-width: 1.5"/>
    <path d="M 259.932 207.410491 
L 259.932 202.666711 
" clip-path="url(#p85a0447211)" style="fill: none; stroke: #000000; stroke-width: 1.5"/>
    <path d="M 266.628 209.045503 
L 266.628 204.467729 
" clip-path="url(#p85a0447211)" style="fill: none; stroke: #000000; stroke-width: 1.5"/>
    <path d="M 273.324 214.536511 
L 273.324 210.572894 
" clip-path="url(#p85a0447211)" style="fill: none; stroke: #000000; stroke-width: 1.5"/>
    <path d="M 280.02 216.959286 
L 280.02 213.303638 
" clip-path="url(#p85a0447211)" style="fill: none; stroke: #000000; stroke-width: 1.5"/>
    <path d="M 286.716 221.555037 
L 286.716 218.584235 
" clip-path="url(#p85a0447211)" style="fill: none; stroke: #000000; stroke-width: 1.5"/>
    <path d="M 293.412 224.301353 
L 293.412 221.847747 
" clip-path="url(#p85a0447211)" style="fill: none; stroke: #000000; stroke-width: 1.5"/>
    <path d="M 300.108 225.457287 
L 300.108 223.266357 
" clip-path="url(#p85a0447211)" style="fill: none; stroke: #000000; stroke-width: 1.5"/>
    <path d="M 306.804 227.690455 
L 306.804 226.175496 
" clip-path="url(#p85a0447211)" style="fill: none; stroke: #000000; stroke-width: 1.5"/>
    <path d="M 313.5 228.213751 
L 313.5 226.932918 
" clip-path="url(#p85a0447211)" style="fill: none; stroke: #000000; stroke-width: 1.5"/>
    <path d="M 320.196 228.954152 
L 320.196 228.282596 
" clip-path="url(#p85a0447211)" style="fill: none; stroke: #000000; stroke-width: 1.5"/>
    <path d="M 326.892 228.595848 
" clip-path="url(#p85a0447211)" style="fill: none; stroke: #000000; stroke-width: 1.5"/>
    <path d="M 333.588 228.595848 
" clip-path="url(#p85a0447211)" style="fill: none; stroke: #000000; stroke-width: 1.5"/>
    <path d="M 340.284 228.839154 
L 340.284 227.995154 
" clip-path="url(#p85a0447211)" style="fill: none; stroke: #000000; stroke-width: 1.5"/>
    <path d="M 346.98 228.595848 
" clip-path="url(#p85a0447211)" style="fill: none; stroke: #000000; stroke-width: 1.5"/>
    <path d="M 353.676 228.595848 
" clip-path="url(#p85a0447211)" style="fill: none; stroke: #000000; stroke-width: 1.5"/>
    <path d="M 360.372 228.595848 
" clip-path="url(#p85a0447211)" style="fill: none; stroke: #000000; stroke-width: 1.5"/>
    <path d="M 367.068 228.595848 
" clip-path="url(#p85a0447211)" style="fill: none; stroke: #000000; stroke-width: 1.5"/>
    <path d="M 373.764 228.595848 
" clip-path="url(#p85a0447211)" style="fill: none; stroke: #000000; stroke-width: 1.5"/>
    <path d="M 380.46 228.595848 
" clip-path="url(#p85a0447211)" style="fill: none; stroke: #000000; stroke-width: 1.5"/>
    <path d="M 387.156 228.595848 
" clip-path="url(#p85a0447211)" style="fill: none; stroke: #000000; stroke-width: 1.5"/>
   </g>
   <g id="line2d_1">
    <defs>
     <path id="meae5c0c399" d="M 0 1.5 
C 0.397805 1.5 0.77937 1.341951 1.06066 1.06066 
C 1.341951 0.77937 1.5 0.397805 1.5 0 
C 1.5 -0.397805 1.341951 -0.77937 1.06066 -1.06066 
C 0.77937 -1.341951 0.397805 -1.5 0 -1.5 
C -0.397805 -1.5 -0.77937 -1.341951 -1.06066 -1.06066 
C -1.341951 -0.77937 -1.5 -0.397805 -1.5 0 
C -1.5 0.397805 -1.341951 0.77937 -1.06066 1.06066 
C -0.77937 1.341951 -0.397805 1.5 0 1.5 
z
" style="stroke: #000000"/>
    </defs>
    <g clip-path="url(#p85a0447211)">
     <use xlink:href="#meae5c0c399" x="59.052" y="228.77648" style="stroke: #000000"/>
     <use xlink:href="#meae5c0c399" x="65.748" y="228.561703" style="stroke: #000000"/>
     <use xlink:href="#meae5c0c399" x="72.444" y="228.346927" style="stroke: #000000"/>
     <use xlink:href="#meae5c0c399" x="79.14" y="227.487822" style="stroke: #000000"/>
     <use xlink:href="#meae5c0c399" x="85.836" y="226.199165" style="stroke: #000000"/>
     <use xlink:href="#meae5c0c399" x="92.532" y="221.688864" style="stroke: #000000"/>
     <use xlink:href="#meae5c0c399" x="99.228" y="218.467221" style="stroke: #000000"/>
     <use xlink:href="#meae5c0c399" x="105.924" y="212.88304" style="stroke: #000000"/>
     <use xlink:href="#meae5c0c399" x="112.62" y="203.003334" style="stroke: #000000"/>
     <use xlink:href="#meae5c0c399" x="119.316" y="186.036013" style="stroke: #000000"/>
     <use xlink:href="#meae5c0c399" x="126.012" y="176.156307" style="stroke: #000000"/>
     <use xlink:href="#meae5c0c399" x="132.708" y="151.242266" style="stroke: #000000"/>
     <use xlink:href="#meae5c0c399" x="139.404" y="114.730309" style="stroke: #000000"/>
     <use xlink:href="#meae5c0c399" x="146.1" y="95.185673" style="stroke: #000000"/>
     <use xlink:href="#meae5c0c399" x="152.796" y="60.606703" style="stroke: #000000"/>
     <use xlink:href="#meae5c0c399" x="159.492" y="54.163416" style="stroke: #000000"/>
     <use xlink:href="#meae5c0c399" x="166.188" y="48.149682" style="stroke: #000000"/>
     <use xlink:href="#meae5c0c399" x="172.884" y="39.129081" style="stroke: #000000"/>
     <use xlink:href="#meae5c0c399" x="179.58" y="49.438339" style="stroke: #000000"/>
     <use xlink:href="#meae5c0c399" x="186.276" y="58.888493" style="stroke: #000000"/>
     <use xlink:href="#meae5c0c399" x="192.972" y="94.541345" style="stroke: #000000"/>
     <use xlink:href="#meae5c0c399" x="199.668" y="114.515533" style="stroke: #000000"/>
     <use xlink:href="#meae5c0c399" x="206.364" y="129.97942" style="stroke: #000000"/>
     <use xlink:href="#meae5c0c399" x="213.06" y="139.000021" style="stroke: #000000"/>
     <use xlink:href="#meae5c0c399" x="219.756" y="166.706153" style="stroke: #000000"/>
     <use xlink:href="#meae5c0c399" x="226.452" y="169.71302" style="stroke: #000000"/>
     <use xlink:href="#meae5c0c399" x="233.148" y="173.14944" style="stroke: #000000"/>
     <use xlink:href="#meae5c0c399" x="239.844" y="181.525712" style="stroke: #000000"/>
     <use xlink:href="#meae5c0c399" x="246.54" y="192.049747" style="stroke: #000000"/>
     <use xlink:href="#meae5c0c399" x="253.236" y="195.056614" style="stroke: #000000"/>
     <use xlink:href="#meae5c0c399" x="259.932" y="205.151096" style="stroke: #000000"/>
     <use xlink:href="#meae5c0c399" x="266.628" y="206.869306" style="stroke: #000000"/>
     <use xlink:href="#meae5c0c399" x="273.324" y="212.668263" style="stroke: #000000"/>
     <use xlink:href="#meae5c0c399" x="280.02" y="215.245578" style="stroke: #000000"/>
     <use xlink:href="#meae5c0c399" x="286.716" y="220.185431" style="stroke: #000000"/>
     <use xlink:href="#meae5c0c399" x="293.412" y="223.192298" style="stroke: #000000"/>
     <use xlink:href="#meae5c0c399" x="300.108" y="224.480955" style="stroke: #000000"/>
     <use xlink:href="#meae5c0c399" x="306.804" y="227.05827" style="stroke: #000000"/>
     <use xlink:href="#meae5c0c399" x="313.5" y="227.702599" style="stroke: #000000"/>
     <use xlink:href="#meae5c0c399" x="320.196" y="228.77648" style="stroke: #000000"/>
     <use xlink:href="#meae5c0c399" x="326.892" y="228.991256" style="stroke: #000000"/>
     <use xlink:href="#meae5c0c399" x="333.588" y="228.991256" style="stroke: #000000"/>
     <use xlink:href="#meae5c0c399" x="340.284" y="228.561703" style="stroke: #000000"/>
     <use xlink:href="#meae5c0c399" x="346.98" y="228.991256" style="stroke: #000000"/>
     <use xlink:href="#meae5c0c399" x="353.676" y="228.991256" style="stroke: #000000"/>
     <use xlink:href="#meae5c0c399" x="360.372" y="228.991256" style="stroke: #000000"/>
     <use xlink:href="#meae5c0c399" x="367.068" y="228.991256" style="stroke: #000000"/>
     <use xlink:href="#meae5c0c399" x="373.764" y="228.991256" style="stroke: #000000"/>
     <use xlink:href="#meae5c0c399" x="380.46" y="228.991256" style="stroke: #000000"/>
     <use xlink:href="#meae5c0c399" x="387.156" y="228.991256" style="stroke: #000000"/>
    </g>
   </g>
   <g id="patch_6">
    <path d="M 55.704 228.991256 
L 55.704 22.702884 
" style="fill: none; stroke: #000000; stroke-linejoin: miter; stroke-linecap: square"/>
   </g>
   <g id="patch_7">
    <path d="M 390.504 228.991256 
L 390.504 22.702884 
" style="fill: none; stroke: #000000; stroke-linejoin: miter; stroke-linecap: square"/>
   </g>
   <g id="patch_8">
    <path d="M 55.704 228.991256 
L 390.504 228.991256 
" style="fill: none; stroke: #000000; stroke-linejoin: miter; stroke-linecap: square"/>
   </g>
   <g id="patch_9">
    <path d="M 55.704 22.702884 
L 390.504 22.702884 
" style="fill: none; stroke: #000000; stroke-linejoin: miter; stroke-linecap: square"/>
   </g>
   <g id="matplotlib.axis_1">
    <g id="xtick_1">
     <g id="line2d_2">
      <defs>
       <path id="m8dec1b3d1d" d="M 0 0 
L 0 -6 
" style="stroke: #1a1a1a; stroke-width: 0.8"/>
      </defs>
      <g>
       <use xlink:href="#m8dec1b3d1d" x="119.475429" y="228.991256" style="fill: #1a1a1a; stroke: #1a1a1a; stroke-width: 0.8"/>
      </g>
     </g>
    </g>
    <g id="xtick_2">
     <g id="line2d_3">
      <g>
       <use xlink:href="#m8dec1b3d1d" x="199.189714" y="228.991256" style="fill: #1a1a1a; stroke: #1a1a1a; stroke-width: 0.8"/>
      </g>
     </g>
    </g>
    <g id="xtick_3">
     <g id="line2d_4">
      <g>
       <use xlink:href="#m8dec1b3d1d" x="278.904" y="228.991256" style="fill: #1a1a1a; stroke: #1a1a1a; stroke-width: 0.8"/>
      </g>
     </g>
    </g>
    <g id="xtick_4">
     <g id="line2d_5">
      <g>
       <use xlink:href="#m8dec1b3d1d" x="358.618286" y="228.991256" style="fill: #1a1a1a; stroke: #1a1a1a; stroke-width: 0.8"/>
      </g>
     </g>
    </g>
    <g id="xtick_5">
     <g id="line2d_6">
      <defs>
       <path id="m131efc0c90" d="M 0 0 
L 0 -3 
" style="stroke: #1a1a1a; stroke-width: 0.6"/>
      </defs>
      <g>
       <use xlink:href="#m131efc0c90" x="55.704" y="228.991256" style="fill: #1a1a1a; stroke: #1a1a1a; stroke-width: 0.6"/>
      </g>
     </g>
    </g>
    <g id="xtick_6">
     <g id="line2d_7">
      <g>
       <use xlink:href="#m131efc0c90" x="71.646857" y="228.991256" style="fill: #1a1a1a; stroke: #1a1a1a; stroke-width: 0.6"/>
      </g>
     </g>
    </g>
    <g id="xtick_7">
     <g id="line2d_8">
      <g>
       <use xlink:href="#m131efc0c90" x="87.589714" y="228.991256" style="fill: #1a1a1a; stroke: #1a1a1a; stroke-width: 0.6"/>
      </g>
     </g>
    </g>
    <g id="xtick_8">
     <g id="line2d_9">
      <g>
       <use xlink:href="#m131efc0c90" x="103.532571" y="228.991256" style="fill: #1a1a1a; stroke: #1a1a1a; stroke-width: 0.6"/>
      </g>
     </g>
    </g>
    <g id="xtick_9">
     <g id="line2d_10">
      <g>
       <use xlink:href="#m131efc0c90" x="135.418286" y="228.991256" style="fill: #1a1a1a; stroke: #1a1a1a; stroke-width: 0.6"/>
      </g>
     </g>
    </g>
    <g id="xtick_10">
     <g id="line2d_11">
      <g>
       <use xlink:href="#m131efc0c90" x="151.361143" y="228.991256" style="fill: #1a1a1a; stroke: #1a1a1a; stroke-width: 0.6"/>
      </g>
     </g>
    </g>
    <g id="xtick_11">
     <g id="line2d_12">
      <g>
       <use xlink:href="#m131efc0c90" x="167.304" y="228.991256" style="fill: #1a1a1a; stroke: #1a1a1a; stroke-width: 0.6"/>
      </g>
     </g>
    </g>
    <g id="xtick_12">
     <g id="line2d_13">
      <g>
       <use xlink:href="#m131efc0c90" x="183.246857" y="228.991256" style="fill: #1a1a1a; stroke: #1a1a1a; stroke-width: 0.6"/>
      </g>
     </g>
    </g>
    <g id="xtick_13">
     <g id="line2d_14">
      <g>
       <use xlink:href="#m131efc0c90" x="215.132571" y="228.991256" style="fill: #1a1a1a; stroke: #1a1a1a; stroke-width: 0.6"/>
      </g>
     </g>
    </g>
    <g id="xtick_14">
     <g id="line2d_15">
      <g>
       <use xlink:href="#m131efc0c90" x="231.075429" y="228.991256" style="fill: #1a1a1a; stroke: #1a1a1a; stroke-width: 0.6"/>
      </g>
     </g>
    </g>
    <g id="xtick_15">
     <g id="line2d_16">
      <g>
       <use xlink:href="#m131efc0c90" x="247.018286" y="228.991256" style="fill: #1a1a1a; stroke: #1a1a1a; stroke-width: 0.6"/>
      </g>
     </g>
    </g>
    <g id="xtick_16">
     <g id="line2d_17">
      <g>
       <use xlink:href="#m131efc0c90" x="262.961143" y="228.991256" style="fill: #1a1a1a; stroke: #1a1a1a; stroke-width: 0.6"/>
      </g>
     </g>
    </g>
    <g id="xtick_17">
     <g id="line2d_18">
      <g>
       <use xlink:href="#m131efc0c90" x="294.846857" y="228.991256" style="fill: #1a1a1a; stroke: #1a1a1a; stroke-width: 0.6"/>
      </g>
     </g>
    </g>
    <g id="xtick_18">
     <g id="line2d_19">
      <g>
       <use xlink:href="#m131efc0c90" x="310.789714" y="228.991256" style="fill: #1a1a1a; stroke: #1a1a1a; stroke-width: 0.6"/>
      </g>
     </g>
    </g>
    <g id="xtick_19">
     <g id="line2d_20">
      <g>
       <use xlink:href="#m131efc0c90" x="326.732571" y="228.991256" style="fill: #1a1a1a; stroke: #1a1a1a; stroke-width: 0.6"/>
      </g>
     </g>
    </g>
    <g id="xtick_20">
     <g id="line2d_21">
      <g>
       <use xlink:href="#m131efc0c90" x="342.675429" y="228.991256" style="fill: #1a1a1a; stroke: #1a1a1a; stroke-width: 0.6"/>
      </g>
     </g>
    </g>
    <g id="xtick_21">
     <g id="line2d_22">
      <g>
       <use xlink:href="#m131efc0c90" x="374.561143" y="228.991256" style="fill: #1a1a1a; stroke: #1a1a1a; stroke-width: 0.6"/>
      </g>
     </g>
    </g>
    <g id="xtick_22">
     <g id="line2d_23">
      <g>
       <use xlink:href="#m131efc0c90" x="390.504" y="228.991256" style="fill: #1a1a1a; stroke: #1a1a1a; stroke-width: 0.6"/>
      </g>
     </g>
    </g>
   </g>
   <g id="matplotlib.axis_2">
    <g id="ytick_1">
     <g id="line2d_24">
      <defs>
       <path id="mc947610920" d="M 0 0 
L 6 0 
" style="stroke: #1a1a1a; stroke-width: 0.8"/>
      </defs>
      <g>
       <use xlink:href="#mc947610920" x="55.704" y="228.991256" style="fill: #1a1a1a; stroke: #1a1a1a; stroke-width: 0.8"/>
      </g>
     </g>
     <g id="text_1">
      <!-- $\mathdefault{0}$ -->
      <g style="fill: #1a1a1a" transform="translate(43.204 234.196725) scale(0.15 -0.15)">
       <defs>
        <path id="LatinModernMath-Regular-30" d="M 2944 2048 
C 2944 2560 2912 3072 2688 3546 
C 2394 4160 1869 4262 1600 4262 
C 1216 4262 749 4096 486 3501 
C 282 3059 250 2560 250 2048 
C 250 1568 275 992 538 506 
C 813 -13 1280 -141 1594 -141 
C 1939 -141 2426 -6 2707 602 
C 2912 1043 2944 1542 2944 2048 
z
M 2413 2125 
C 2413 1645 2413 1210 2342 800 
C 2246 192 1882 0 1594 0 
C 1344 0 966 160 851 774 
C 781 1158 781 1747 781 2125 
C 781 2534 781 2957 832 3302 
C 954 4064 1434 4122 1594 4122 
C 1805 4122 2227 4006 2349 3373 
C 2413 3014 2413 2528 2413 2125 
z
" transform="scale(0.015625)"/>
       </defs>
       <use xlink:href="#LatinModernMath-Regular-30" transform="translate(0 0.40625)"/>
      </g>
     </g>
    </g>
    <g id="ytick_2">
     <g id="line2d_25">
      <g>
       <use xlink:href="#mc947610920" x="55.704" y="186.036013" style="fill: #1a1a1a; stroke: #1a1a1a; stroke-width: 0.8"/>
      </g>
     </g>
     <g id="text_2">
      <!-- $\mathdefault{200}$ -->
      <g style="fill: #1a1a1a" transform="translate(28.204 191.241481) scale(0.15 -0.15)">
       <defs>
        <path id="LatinModernMath-Regular-32" d="M 2874 1114 
L 2714 1114 
C 2682 922 2637 640 2573 544 
C 2528 493 2106 493 1965 493 
L 813 493 
L 1491 1152 
C 2490 2035 2874 2381 2874 3021 
C 2874 3750 2298 4262 1517 4262 
C 794 4262 320 3674 320 3104 
C 320 2746 640 2746 659 2746 
C 768 2746 992 2822 992 3085 
C 992 3251 877 3418 653 3418 
C 602 3418 589 3418 570 3411 
C 717 3827 1062 4064 1434 4064 
C 2016 4064 2291 3546 2291 3021 
C 2291 2509 1971 2003 1619 1606 
L 390 237 
C 320 166 320 154 320 0 
L 2694 0 
L 2874 1114 
z
" transform="scale(0.015625)"/>
       </defs>
       <use xlink:href="#LatinModernMath-Regular-32" transform="translate(0 0.40625)"/>
       <use xlink:href="#LatinModernMath-Regular-30" transform="translate(49.999985 0.40625)"/>
       <use xlink:href="#LatinModernMath-Regular-30" transform="translate(99.999969 0.40625)"/>
      </g>
     </g>
    </g>
    <g id="ytick_3">
     <g id="line2d_26">
      <g>
       <use xlink:href="#mc947610920" x="55.704" y="143.080769" style="fill: #1a1a1a; stroke: #1a1a1a; stroke-width: 0.8"/>
      </g>
     </g>
     <g id="text_3">
      <!-- $\mathdefault{400}$ -->
      <g style="fill: #1a1a1a" transform="translate(28.204 148.286238) scale(0.15 -0.15)">
       <defs>
        <path id="LatinModernMath-Regular-34" d="M 3014 1056 
L 3014 1254 
L 2374 1254 
L 2374 4166 
C 2374 4294 2374 4333 2272 4333 
C 2214 4333 2195 4333 2144 4256 
L 179 1254 
L 179 1056 
L 1882 1056 
L 1882 499 
C 1882 269 1869 198 1395 198 
L 1261 198 
L 1261 0 
C 1523 19 1856 19 2125 19 
C 2394 19 2733 19 2995 0 
L 2995 198 
L 2861 198 
C 2387 198 2374 269 2374 499 
L 2374 1056 
L 3014 1056 
z
M 1920 1254 
L 358 1254 
L 1920 3642 
L 1920 1254 
z
" transform="scale(0.015625)"/>
       </defs>
       <use xlink:href="#LatinModernMath-Regular-34" transform="translate(0 0.296875)"/>
       <use xlink:href="#LatinModernMath-Regular-30" transform="translate(49.999985 0.296875)"/>
       <use xlink:href="#LatinModernMath-Regular-30" transform="translate(99.999969 0.296875)"/>
      </g>
     </g>
    </g>
    <g id="ytick_4">
     <g id="line2d_27">
      <g>
       <use xlink:href="#mc947610920" x="55.704" y="100.125526" style="fill: #1a1a1a; stroke: #1a1a1a; stroke-width: 0.8"/>
      </g>
     </g>
     <g id="text_4">
      <!-- $\mathdefault{600}$ -->
      <g style="fill: #1a1a1a" transform="translate(28.204 105.330995) scale(0.15 -0.15)">
       <defs>
        <path id="LatinModernMath-Regular-36" d="M 2925 1306 
C 2925 2118 2355 2733 1645 2733 
C 1210 2733 973 2406 845 2099 
L 845 2253 
C 845 3872 1638 4102 1965 4102 
C 2118 4102 2387 4064 2528 3846 
C 2432 3846 2176 3846 2176 3558 
C 2176 3360 2330 3264 2470 3264 
C 2573 3264 2765 3322 2765 3571 
C 2765 3955 2483 4262 1952 4262 
C 1133 4262 269 3437 269 2022 
C 269 314 1011 -141 1606 -141 
C 2317 -141 2925 461 2925 1306 
z
M 2349 1312 
C 2349 1005 2349 685 2240 454 
C 2048 70 1754 38 1606 38 
C 1203 38 1011 422 973 518 
C 858 819 858 1331 858 1446 
C 858 1946 1062 2586 1638 2586 
C 1741 2586 2035 2586 2234 2189 
C 2349 1952 2349 1626 2349 1312 
z
" transform="scale(0.015625)"/>
       </defs>
       <use xlink:href="#LatinModernMath-Regular-36" transform="translate(0 0.40625)"/>
       <use xlink:href="#LatinModernMath-Regular-30" transform="translate(49.999985 0.40625)"/>
       <use xlink:href="#LatinModernMath-Regular-30" transform="translate(99.999969 0.40625)"/>
      </g>
     </g>
    </g>
    <g id="ytick_5">
     <g id="line2d_28">
      <g>
       <use xlink:href="#mc947610920" x="55.704" y="57.170283" style="fill: #1a1a1a; stroke: #1a1a1a; stroke-width: 0.8"/>
      </g>
     </g>
     <g id="text_5">
      <!-- $\mathdefault{800}$ -->
      <g style="fill: #1a1a1a" transform="translate(28.204 62.375752) scale(0.15 -0.15)">
       <defs>
        <path id="LatinModernMath-Regular-38" d="M 2925 1075 
C 2925 1306 2854 1594 2611 1862 
C 2490 1997 2387 2061 1978 2317 
C 2438 2554 2752 2886 2752 3309 
C 2752 3898 2182 4262 1600 4262 
C 960 4262 442 3789 442 3194 
C 442 3078 454 2790 723 2490 
C 794 2413 1030 2253 1190 2144 
C 819 1958 269 1600 269 966 
C 269 288 922 -141 1594 -141 
C 2317 -141 2925 390 2925 1075 
z
M 2470 3309 
C 2470 2944 2221 2637 1837 2413 
L 1043 2925 
C 749 3117 723 3334 723 3443 
C 723 3834 1139 4102 1594 4102 
C 2061 4102 2470 3770 2470 3309 
z
M 2605 845 
C 2605 371 2125 38 1600 38 
C 1050 38 589 435 589 966 
C 589 1338 794 1747 1338 2048 
L 2125 1549 
C 2304 1427 2605 1235 2605 845 
z
" transform="scale(0.015625)"/>
       </defs>
       <use xlink:href="#LatinModernMath-Regular-38" transform="translate(0 0.40625)"/>
       <use xlink:href="#LatinModernMath-Regular-30" transform="translate(49.999985 0.40625)"/>
       <use xlink:href="#LatinModernMath-Regular-30" transform="translate(99.999969 0.40625)"/>
      </g>
     </g>
    </g>
    <g id="ytick_6">
     <g id="line2d_29">
      <defs>
       <path id="m5f9d1e6504" d="M 0 0 
L 3 0 
" style="stroke: #1a1a1a; stroke-width: 0.6"/>
      </defs>
      <g>
       <use xlink:href="#m5f9d1e6504" x="55.704" y="218.252445" style="fill: #1a1a1a; stroke: #1a1a1a; stroke-width: 0.6"/>
      </g>
     </g>
    </g>
    <g id="ytick_7">
     <g id="line2d_30">
      <g>
       <use xlink:href="#m5f9d1e6504" x="55.704" y="207.513634" style="fill: #1a1a1a; stroke: #1a1a1a; stroke-width: 0.6"/>
      </g>
     </g>
    </g>
    <g id="ytick_8">
     <g id="line2d_31">
      <g>
       <use xlink:href="#m5f9d1e6504" x="55.704" y="196.774823" style="fill: #1a1a1a; stroke: #1a1a1a; stroke-width: 0.6"/>
      </g>
     </g>
    </g>
    <g id="ytick_9">
     <g id="line2d_32">
      <g>
       <use xlink:href="#m5f9d1e6504" x="55.704" y="175.297202" style="fill: #1a1a1a; stroke: #1a1a1a; stroke-width: 0.6"/>
      </g>
     </g>
    </g>
    <g id="ytick_10">
     <g id="line2d_33">
      <g>
       <use xlink:href="#m5f9d1e6504" x="55.704" y="164.558391" style="fill: #1a1a1a; stroke: #1a1a1a; stroke-width: 0.6"/>
      </g>
     </g>
    </g>
    <g id="ytick_11">
     <g id="line2d_34">
      <g>
       <use xlink:href="#m5f9d1e6504" x="55.704" y="153.81958" style="fill: #1a1a1a; stroke: #1a1a1a; stroke-width: 0.6"/>
      </g>
     </g>
    </g>
    <g id="ytick_12">
     <g id="line2d_35">
      <g>
       <use xlink:href="#m5f9d1e6504" x="55.704" y="132.341959" style="fill: #1a1a1a; stroke: #1a1a1a; stroke-width: 0.6"/>
      </g>
     </g>
    </g>
    <g id="ytick_13">
     <g id="line2d_36">
      <g>
       <use xlink:href="#m5f9d1e6504" x="55.704" y="121.603148" style="fill: #1a1a1a; stroke: #1a1a1a; stroke-width: 0.6"/>
      </g>
     </g>
    </g>
    <g id="ytick_14">
     <g id="line2d_37">
      <g>
       <use xlink:href="#m5f9d1e6504" x="55.704" y="110.864337" style="fill: #1a1a1a; stroke: #1a1a1a; stroke-width: 0.6"/>
      </g>
     </g>
    </g>
    <g id="ytick_15">
     <g id="line2d_38">
      <g>
       <use xlink:href="#m5f9d1e6504" x="55.704" y="89.386716" style="fill: #1a1a1a; stroke: #1a1a1a; stroke-width: 0.6"/>
      </g>
     </g>
    </g>
    <g id="ytick_16">
     <g id="line2d_39">
      <g>
       <use xlink:href="#m5f9d1e6504" x="55.704" y="78.647905" style="fill: #1a1a1a; stroke: #1a1a1a; stroke-width: 0.6"/>
      </g>
     </g>
    </g>
    <g id="ytick_17">
     <g id="line2d_40">
      <g>
       <use xlink:href="#m5f9d1e6504" x="55.704" y="67.909094" style="fill: #1a1a1a; stroke: #1a1a1a; stroke-width: 0.6"/>
      </g>
     </g>
    </g>
    <g id="ytick_18">
     <g id="line2d_41">
      <g>
       <use xlink:href="#m5f9d1e6504" x="55.704" y="46.431472" style="fill: #1a1a1a; stroke: #1a1a1a; stroke-width: 0.6"/>
      </g>
     </g>
    </g>
    <g id="ytick_19">
     <g id="line2d_42">
      <g>
       <use xlink:href="#m5f9d1e6504" x="55.704" y="35.692662" style="fill: #1a1a1a; stroke: #1a1a1a; stroke-width: 0.6"/>
      </g>
     </g>
    </g>
    <g id="ytick_20">
     <g id="line2d_43">
      <g>
       <use xlink:href="#m5f9d1e6504" x="55.704" y="24.953851" style="fill: #1a1a1a; stroke: #1a1a1a; stroke-width: 0.6"/>
      </g>
     </g>
    </g>
    <g id="text_6">
     <!-- Hits in the LMN per $4.2\times 10^{-1}\,\,eV/c^2$ -->
     <g style="fill: #1a1a1a" transform="translate(19.104 228.27107) rotate(-90) scale(0.124 -0.124)">
      <defs>
       <path id="LatinModernMath-Regular-48" d="M 4582 0 
L 4582 198 
L 4429 198 
C 3936 198 3923 269 3923 499 
L 3923 3872 
C 3923 4102 3936 4173 4429 4173 
L 4582 4173 
L 4582 4371 
C 4358 4352 3885 4352 3642 4352 
C 3398 4352 2918 4352 2694 4371 
L 2694 4173 
L 2848 4173 
C 3341 4173 3354 4102 3354 3872 
L 3354 2374 
L 1440 2374 
L 1440 3872 
C 1440 4102 1453 4173 1946 4173 
L 2099 4173 
L 2099 4371 
C 1875 4352 1402 4352 1158 4352 
C 915 4352 435 4352 211 4371 
L 211 4173 
L 365 4173 
C 858 4173 870 4102 870 3872 
L 870 499 
C 870 269 858 198 365 198 
L 211 198 
L 211 0 
C 435 19 909 19 1152 19 
C 1395 19 1875 19 2099 0 
L 2099 198 
L 1946 198 
C 1453 198 1440 269 1440 499 
L 1440 2176 
L 3354 2176 
L 3354 499 
C 3354 269 3341 198 2848 198 
L 2694 198 
L 2694 0 
C 2918 19 3392 19 3635 19 
C 3878 19 4358 19 4582 0 
z
" transform="scale(0.015625)"/>
       <path id="LatinModernMath-Regular-69" d="M 1581 0 
L 1581 198 
C 1158 198 1133 230 1133 480 
L 1133 2829 
L 237 2758 
L 237 2560 
C 653 2560 710 2522 710 2208 
L 710 486 
C 710 198 640 198 211 198 
L 211 0 
L 915 19 
C 1139 19 1363 6 1581 0 
z
M 1229 3866 
C 1229 4038 1082 4205 890 4205 
C 672 4205 544 4026 544 3866 
C 544 3693 691 3526 883 3526 
C 1101 3526 1229 3706 1229 3866 
z
" transform="scale(0.015625)"/>
       <path id="LatinModernMath-Regular-74" d="M 2125 794 
L 2125 1158 
L 1965 1158 
L 1965 806 
C 1965 333 1773 90 1536 90 
C 1107 90 1107 672 1107 781 
L 1107 2560 
L 2022 2560 
L 2022 2758 
L 1107 2758 
L 1107 3936 
L 947 3936 
C 941 3411 749 2726 122 2701 
L 122 2560 
L 666 2560 
L 666 794 
C 666 6 1261 -70 1491 -70 
C 1946 -70 2125 384 2125 794 
z
" transform="scale(0.015625)"/>
       <path id="LatinModernMath-Regular-73" d="M 2304 819 
C 2304 1158 2112 1350 2035 1427 
C 1824 1632 1574 1683 1306 1734 
C 947 1805 518 1888 518 2259 
C 518 2483 685 2746 1235 2746 
C 1939 2746 1971 2170 1984 1971 
C 1990 1914 2061 1914 2061 1914 
C 2144 1914 2144 1946 2144 2067 
L 2144 2714 
C 2144 2822 2144 2867 2074 2867 
C 2042 2867 2029 2867 1946 2790 
C 1926 2765 1862 2707 1837 2688 
C 1594 2867 1331 2867 1235 2867 
C 454 2867 211 2438 211 2080 
C 211 1856 314 1677 486 1536 
C 691 1370 870 1331 1331 1242 
C 1472 1216 1997 1114 1997 653 
C 1997 326 1773 70 1274 70 
C 736 70 506 435 384 979 
C 365 1062 358 1088 294 1088 
C 211 1088 211 1043 211 928 
L 211 83 
C 211 -26 211 -70 282 -70 
C 314 -70 320 -64 442 58 
C 454 70 454 83 570 205 
C 851 -64 1139 -70 1274 -70 
C 2010 -70 2304 358 2304 819 
z
" transform="scale(0.015625)"/>
       <path id="LatinModernMath-Regular-20" transform="scale(0.015625)"/>
       <path id="LatinModernMath-Regular-6e" d="M 3424 0 
L 3424 198 
C 3091 198 2931 198 2925 390 
L 2925 1613 
C 2925 2163 2925 2362 2726 2592 
C 2637 2701 2426 2829 2054 2829 
C 1587 2829 1286 2554 1107 2157 
L 1107 2829 
L 205 2758 
L 205 2560 
C 653 2560 704 2515 704 2202 
L 704 486 
C 704 198 634 198 205 198 
L 205 0 
L 928 19 
L 1645 0 
L 1645 198 
C 1216 198 1146 198 1146 486 
L 1146 1664 
C 1146 2330 1600 2688 2010 2688 
C 2413 2688 2483 2342 2483 1978 
L 2483 486 
C 2483 198 2413 198 1984 198 
L 1984 0 
L 2707 19 
L 3424 0 
z
" transform="scale(0.015625)"/>
       <path id="LatinModernMath-Regular-68" d="M 3424 0 
L 3424 198 
C 3091 198 2931 198 2925 390 
L 2925 1613 
C 2925 2163 2925 2362 2726 2592 
C 2637 2701 2426 2829 2054 2829 
C 1517 2829 1235 2445 1133 2214 
L 1126 2214 
L 1126 4442 
L 205 4371 
L 205 4173 
C 653 4173 704 4128 704 3814 
L 704 486 
C 704 198 634 198 205 198 
L 205 0 
L 928 19 
L 1645 0 
L 1645 198 
C 1216 198 1146 198 1146 486 
L 1146 1664 
C 1146 2330 1600 2688 2010 2688 
C 2413 2688 2483 2342 2483 1978 
L 2483 486 
C 2483 198 2413 198 1984 198 
L 1984 0 
L 2707 19 
L 3424 0 
z
" transform="scale(0.015625)"/>
       <path id="LatinModernMath-Regular-65" d="M 2656 762 
C 2656 826 2605 838 2573 838 
C 2515 838 2502 800 2490 749 
C 2266 90 1690 90 1626 90 
C 1306 90 1050 282 902 518 
C 710 826 710 1248 710 1478 
L 2496 1478 
C 2637 1478 2656 1478 2656 1613 
C 2656 2246 2310 2867 1510 2867 
C 768 2867 179 2208 179 1408 
C 179 550 851 -70 1587 -70 
C 2368 -70 2656 640 2656 762 
z
M 2234 1613 
L 717 1613 
C 755 2566 1293 2726 1510 2726 
C 2170 2726 2234 1862 2234 1613 
z
" transform="scale(0.015625)"/>
       <path id="LatinModernMath-Regular-4c" d="M 3725 1651 
L 3565 1651 
C 3494 998 3405 198 2278 198 
L 1754 198 
C 1453 198 1440 243 1440 454 
L 1440 3866 
C 1440 4083 1440 4173 2048 4173 
L 2259 4173 
L 2259 4371 
C 2029 4352 1446 4352 1184 4352 
C 934 4352 435 4352 211 4371 
L 211 4173 
L 365 4173 
C 858 4173 870 4102 870 3872 
L 870 499 
C 870 269 858 198 365 198 
L 211 198 
L 211 0 
L 3546 0 
L 3725 1651 
z
" transform="scale(0.015625)"/>
       <path id="LatinModernMath-Regular-4d" d="M 5626 0 
L 5626 198 
L 5472 198 
C 4979 198 4966 269 4966 499 
L 4966 3872 
C 4966 4102 4979 4173 5472 4173 
L 5626 4173 
L 5626 4371 
L 4544 4371 
C 4378 4371 4378 4365 4333 4250 
L 2931 646 
L 1542 4230 
C 1485 4371 1466 4371 1318 4371 
L 237 4371 
L 237 4173 
L 390 4173 
C 883 4173 896 4102 896 3872 
L 896 672 
C 896 499 896 198 237 198 
L 237 0 
L 986 19 
L 1734 0 
L 1734 198 
C 1075 198 1075 499 1075 672 
L 1075 4122 
L 1082 4122 
L 2624 141 
C 2656 58 2688 0 2752 0 
C 2822 0 2842 51 2867 122 
L 4442 4173 
L 4448 4173 
L 4448 499 
C 4448 269 4435 198 3942 198 
L 3789 198 
L 3789 0 
C 4026 19 4461 19 4710 19 
C 4960 19 5389 19 5626 0 
z
" transform="scale(0.015625)"/>
       <path id="LatinModernMath-Regular-4e" d="M 4582 4173 
L 4582 4371 
L 3834 4352 
L 3085 4371 
L 3085 4173 
C 3744 4173 3744 3872 3744 3699 
L 3744 966 
L 1485 4288 
C 1427 4365 1421 4371 1299 4371 
L 211 4371 
L 211 4173 
L 397 4173 
C 493 4173 621 4166 717 4160 
C 864 4141 870 4134 870 4013 
L 870 672 
C 870 499 870 198 211 198 
L 211 0 
L 960 19 
L 1709 0 
L 1709 198 
C 1050 198 1050 499 1050 672 
L 1050 4000 
C 1082 3968 1088 3962 1114 3923 
L 3725 83 
C 3782 6 3789 0 3834 0 
C 3923 0 3923 45 3923 166 
L 3923 3699 
C 3923 3872 3923 4173 4582 4173 
z
" transform="scale(0.015625)"/>
       <path id="LatinModernMath-Regular-70" d="M 3334 1382 
C 3334 2195 2714 2829 1997 2829 
C 1498 2829 1229 2547 1101 2406 
L 1101 2829 
L 179 2758 
L 179 2560 
C 634 2560 678 2522 678 2240 
L 678 -755 
C 678 -1043 608 -1043 179 -1043 
L 179 -1242 
L 896 -1222 
L 1619 -1242 
L 1619 -1043 
C 1190 -1043 1120 -1043 1120 -755 
L 1120 320 
L 1120 378 
C 1152 275 1421 -70 1907 -70 
C 2669 -70 3334 557 3334 1382 
z
M 2803 1382 
C 2803 608 2355 70 1882 70 
C 1626 70 1382 198 1210 461 
C 1120 595 1120 602 1120 730 
L 1120 2157 
C 1306 2483 1619 2669 1946 2669 
C 2413 2669 2803 2106 2803 1382 
z
" transform="scale(0.015625)"/>
       <path id="LatinModernMath-Regular-72" d="M 2330 2438 
C 2330 2643 2131 2829 1856 2829 
C 1389 2829 1158 2400 1069 2125 
L 1069 2829 
L 179 2758 
L 179 2560 
C 627 2560 678 2515 678 2202 
L 678 486 
C 678 198 608 198 179 198 
L 179 0 
L 909 19 
C 1165 19 1466 19 1722 0 
L 1722 198 
L 1587 198 
C 1114 198 1101 269 1101 499 
L 1101 1485 
C 1101 2118 1370 2688 1856 2688 
C 1901 2688 1914 2688 1926 2682 
C 1907 2675 1779 2598 1779 2432 
C 1779 2253 1914 2157 2054 2157 
C 2170 2157 2330 2234 2330 2438 
z
" transform="scale(0.015625)"/>
       <path id="LatinModernMath-Regular-2e" d="M 1229 339 
C 1229 525 1075 678 890 678 
C 704 678 550 525 550 339 
C 550 154 704 0 890 0 
C 1075 0 1229 154 1229 339 
z
" transform="scale(0.015625)"/>
       <path id="LatinModernMath-Regular-d7" d="M 3994 96 
C 4045 141 4045 224 3994 275 
L 2669 1600 
L 3994 2925 
C 4045 2976 4045 3059 3994 3104 
C 3949 3155 3866 3155 3814 3104 
L 2490 1779 
L 1165 3104 
C 1114 3155 1030 3155 986 3104 
C 934 3059 934 2976 986 2925 
L 2310 1600 
L 986 275 
C 934 224 934 141 986 96 
C 1030 45 1114 45 1165 96 
L 2490 1421 
L 3814 96 
C 3866 45 3949 45 3994 96 
z
" transform="scale(0.015625)"/>
       <path id="LatinModernMath-Regular-31" d="M 2682 0 
L 2682 198 
L 2477 198 
C 1901 198 1882 269 1882 506 
L 1882 4096 
C 1882 4250 1882 4262 1734 4262 
C 1338 3853 774 3853 570 3853 
L 570 3654 
C 698 3654 1075 3654 1408 3821 
L 1408 506 
C 1408 275 1389 198 813 198 
L 608 198 
L 608 0 
C 832 19 1389 19 1645 19 
C 1901 19 2458 19 2682 0 
z
" transform="scale(0.015625)"/>
       <path id="LatinModernMath-Regular-2212" d="M 4621 1600 
C 4621 1670 4563 1728 4493 1728 
L 486 1728 
C 416 1728 358 1670 358 1600 
C 358 1530 416 1472 486 1472 
L 4493 1472 
C 4563 1472 4621 1530 4621 1600 
z
" transform="scale(0.015625)"/>
       <path id="LatinModernMath-Regular-56" d="M 4672 4173 
L 4672 4371 
C 4474 4358 4218 4352 4051 4352 
L 3322 4371 
L 3322 4173 
C 3654 4166 3789 4000 3789 3853 
C 3789 3802 3770 3763 3757 3725 
L 2586 640 
L 1363 3872 
C 1325 3962 1325 3987 1325 3987 
C 1325 4173 1690 4173 1850 4173 
L 1850 4371 
C 1619 4352 1178 4352 934 4352 
L 122 4371 
L 122 4173 
C 538 4173 659 4173 749 3930 
L 2234 0 
C 2278 -122 2310 -141 2394 -141 
C 2502 -141 2515 -109 2547 -19 
L 3974 3744 
C 4064 3981 4237 4166 4672 4173 
z
" transform="scale(0.015625)"/>
       <path id="LatinModernMath-Regular-2f" d="M 2848 4672 
C 2848 4742 2790 4800 2720 4800 
C 2662 4800 2618 4768 2598 4717 
L 365 -1427 
C 358 -1440 358 -1459 358 -1472 
C 358 -1542 416 -1600 486 -1600 
C 544 -1600 589 -1568 608 -1517 
L 2842 4627 
C 2848 4640 2848 4659 2848 4672 
z
" transform="scale(0.015625)"/>
       <path id="LatinModernMath-Regular-63" d="M 2656 762 
C 2656 826 2592 826 2573 826 
C 2515 826 2502 800 2490 762 
C 2304 166 1888 90 1651 90 
C 1312 90 749 365 749 1395 
C 749 2438 1274 2707 1613 2707 
C 1670 2707 2074 2701 2298 2470 
C 2035 2451 1997 2259 1997 2176 
C 1997 2010 2112 1882 2291 1882 
C 2458 1882 2586 1990 2586 2182 
C 2586 2618 2099 2867 1606 2867 
C 806 2867 218 2176 218 1382 
C 218 563 851 -70 1594 -70 
C 2451 -70 2656 698 2656 762 
z
" transform="scale(0.015625)"/>
      </defs>
      <use xlink:href="#LatinModernMath-Regular-48" transform="translate(0 0.21875)"/>
      <use xlink:href="#LatinModernMath-Regular-69" transform="translate(74.999985 0.21875)"/>
      <use xlink:href="#LatinModernMath-Regular-74" transform="translate(102.799973 0.21875)"/>
      <use xlink:href="#LatinModernMath-Regular-73" transform="translate(141.699966 0.21875)"/>
      <use xlink:href="#LatinModernMath-Regular-20" transform="translate(181.09996 0.21875)"/>
      <use xlink:href="#LatinModernMath-Regular-69" transform="translate(214.299957 0.21875)"/>
      <use xlink:href="#LatinModernMath-Regular-6e" transform="translate(242.099945 0.21875)"/>
      <use xlink:href="#LatinModernMath-Regular-20" transform="translate(297.699936 0.21875)"/>
      <use xlink:href="#LatinModernMath-Regular-74" transform="translate(330.899933 0.21875)"/>
      <use xlink:href="#LatinModernMath-Regular-68" transform="translate(369.799927 0.21875)"/>
      <use xlink:href="#LatinModernMath-Regular-65" transform="translate(425.399918 0.21875)"/>
      <use xlink:href="#LatinModernMath-Regular-20" transform="translate(469.799911 0.21875)"/>
      <use xlink:href="#LatinModernMath-Regular-4c" transform="translate(502.999908 0.21875)"/>
      <use xlink:href="#LatinModernMath-Regular-4d" transform="translate(565.499893 0.21875)"/>
      <use xlink:href="#LatinModernMath-Regular-4e" transform="translate(657.199875 0.21875)"/>
      <use xlink:href="#LatinModernMath-Regular-20" transform="translate(732.19986 0.21875)"/>
      <use xlink:href="#LatinModernMath-Regular-70" transform="translate(765.399857 0.21875)"/>
      <use xlink:href="#LatinModernMath-Regular-65" transform="translate(820.999847 0.21875)"/>
      <use xlink:href="#LatinModernMath-Regular-72" transform="translate(865.399841 0.21875)"/>
      <use xlink:href="#LatinModernMath-Regular-20" transform="translate(904.599838 0.21875)"/>
      <use xlink:href="#LatinModernMath-Regular-34" transform="translate(937.799835 0.21875)"/>
      <use xlink:href="#LatinModernMath-Regular-2e" transform="translate(987.79982 0.21875)"/>
      <use xlink:href="#LatinModernMath-Regular-32" transform="translate(1015.599808 0.21875)"/>
      <use xlink:href="#LatinModernMath-Regular-d7" transform="translate(1083.158386 0.21875)"/>
      <use xlink:href="#LatinModernMath-Regular-31" transform="translate(1178.516968 0.21875)"/>
      <use xlink:href="#LatinModernMath-Regular-30" transform="translate(1228.516953 0.21875)"/>
      <use xlink:href="#LatinModernMath-Regular-2212" transform="translate(1279.271078 30.384375) scale(0.7)"/>
      <use xlink:href="#LatinModernMath-Regular-31" transform="translate(1333.731069 30.384375) scale(0.7)"/>
      <use xlink:href="#LatinModernMath-Regular-65" transform="translate(1400.150654 0.21875)"/>
      <use xlink:href="#LatinModernMath-Regular-56" transform="translate(1444.550648 0.21875)"/>
      <use xlink:href="#LatinModernMath-Regular-2f" transform="translate(1519.550633 0.21875)"/>
      <use xlink:href="#LatinModernMath-Regular-63" transform="translate(1569.550618 0.21875)"/>
      <use xlink:href="#LatinModernMath-Regular-32" transform="translate(1614.704752 30.384375) scale(0.7)"/>
     </g>
    </g>
   </g>
   <g id="text_7">
    <!-- $\mathrm{\mathbf{Beast\,\,III}\,\,preliminary}$ $\int\,\mathcal{L}\,\mathrm{dt}=8.2\,zb^{-1}$ -->
    <g style="fill: #1a1a1a" transform="translate(190.704 16.92) scale(0.12 -0.12)">
     <defs>
      <path id="Cmb10-42" d="M 219 0 
L 219 325 
L 819 325 
L 819 4063 
L 219 4063 
L 219 4391 
L 2631 4391 
Q 2991 4391 3306 4270 
Q 3622 4150 3817 3898 
Q 4013 3647 4013 3278 
Q 4013 2888 3752 2636 
Q 3491 2384 3078 2297 
Q 3559 2238 3871 1952 
Q 4184 1666 4184 1197 
Q 4184 625 3789 312 
Q 3394 0 2809 0 
L 219 0 
z
M 1684 325 
L 2631 325 
Q 2838 325 2970 459 
Q 3103 594 3161 794 
Q 3219 994 3219 1197 
Q 3219 1384 3178 1606 
Q 3138 1828 3025 1992 
Q 2913 2156 2719 2156 
L 1684 2156 
L 1684 325 
z
M 1684 2413 
L 2450 2413 
Q 2766 2413 2922 2677 
Q 3078 2941 3078 3278 
Q 3078 3569 2978 3816 
Q 2878 4063 2631 4063 
L 1684 4063 
L 1684 2413 
z
" transform="scale(0.015625)"/>
      <path id="Cmb10-65" d="M 178 1441 
Q 178 1856 350 2189 
Q 522 2522 842 2711 
Q 1163 2900 1581 2900 
Q 2003 2900 2275 2726 
Q 2547 2553 2675 2242 
Q 2803 1931 2803 1522 
Q 2803 1428 2700 1394 
L 1025 1394 
Q 1025 1078 1070 829 
Q 1116 581 1275 412 
Q 1434 244 1741 244 
Q 2000 244 2208 394 
Q 2416 544 2484 788 
Q 2519 847 2578 863 
L 2700 863 
Q 2803 841 2803 750 
Q 2803 744 2797 709 
Q 2722 475 2553 308 
Q 2384 141 2150 51 
Q 1916 -38 1672 -38 
Q 1347 -38 1072 67 
Q 797 172 597 367 
Q 397 563 287 836 
Q 178 1109 178 1441 
z
M 1025 1631 
L 2169 1631 
Q 2169 1869 2120 2095 
Q 2072 2322 1940 2483 
Q 1809 2644 1581 2644 
Q 1250 2644 1137 2341 
Q 1025 2038 1025 1631 
z
" transform="scale(0.015625)"/>
      <path id="Cmb10-61" d="M 178 716 
Q 178 1081 468 1304 
Q 759 1528 1157 1618 
Q 1556 1709 1925 1709 
L 1925 1947 
Q 1925 2228 1803 2436 
Q 1681 2644 1416 2644 
Q 1244 2644 1050 2613 
Q 1184 2488 1184 2297 
Q 1184 2119 1068 2000 
Q 953 1881 775 1881 
Q 597 1881 478 2000 
Q 359 2119 359 2297 
Q 359 2541 529 2675 
Q 700 2809 937 2854 
Q 1175 2900 1422 2900 
Q 1731 2900 2018 2804 
Q 2306 2709 2493 2498 
Q 2681 2288 2681 1966 
L 2681 453 
Q 2709 325 3003 325 
Q 3084 306 3103 225 
L 3103 103 
Q 3084 19 3003 0 
L 2559 0 
Q 2366 0 2200 100 
Q 2034 200 2034 384 
L 2034 434 
Q 1922 219 1709 90 
Q 1497 -38 1253 -38 
Q 850 -38 514 153 
Q 178 344 178 716 
z
M 1331 219 
Q 1497 219 1633 305 
Q 1769 391 1847 533 
Q 1925 675 1925 838 
L 1925 1478 
Q 1697 1478 1472 1389 
Q 1247 1300 1100 1125 
Q 953 950 953 716 
Q 953 534 1058 376 
Q 1163 219 1331 219 
z
" transform="scale(0.015625)"/>
      <path id="Cmb10-73" d="M 213 44 
L 213 934 
Q 228 994 294 1013 
L 459 1013 
Q 522 991 538 934 
Q 703 219 1259 219 
Q 1825 219 1825 684 
Q 1825 800 1765 892 
Q 1706 984 1609 1045 
Q 1513 1106 1403 1131 
L 1019 1209 
Q 672 1294 442 1508 
Q 213 1722 213 2041 
Q 213 2272 292 2440 
Q 372 2609 517 2711 
Q 663 2813 847 2856 
Q 1031 2900 1259 2900 
Q 1559 2900 1759 2791 
L 1966 2894 
L 1991 2900 
L 2069 2900 
Q 2128 2884 2144 2822 
L 2144 2119 
Q 2128 2050 2069 2034 
L 1900 2034 
Q 1834 2050 1819 2119 
Q 1819 2288 1748 2411 
Q 1678 2534 1550 2601 
Q 1422 2669 1247 2669 
Q 691 2669 691 2284 
Q 691 2144 811 2048 
Q 931 1953 1088 1913 
L 1478 1838 
Q 1713 1778 1897 1654 
Q 2081 1531 2192 1339 
Q 2303 1147 2303 909 
Q 2303 428 2022 195 
Q 1741 -38 1259 -38 
Q 897 -38 659 141 
L 391 -31 
L 366 -38 
L 294 -38 
Q 228 -22 213 44 
z
" transform="scale(0.015625)"/>
      <path id="Cmb10-74" d="M 513 750 
L 513 2516 
L 122 2516 
L 122 2772 
Q 416 2772 600 2976 
Q 784 3181 862 3482 
Q 941 3784 941 4063 
L 1269 4063 
L 1269 2841 
L 2028 2841 
L 2028 2516 
L 1269 2516 
L 1269 769 
Q 1269 553 1320 398 
Q 1372 244 1538 244 
Q 1688 244 1747 409 
Q 1806 575 1806 769 
L 1806 1131 
L 2131 1131 
L 2131 750 
Q 2131 563 2051 378 
Q 1972 194 1822 78 
Q 1672 -38 1472 -38 
Q 1047 -38 780 151 
Q 513 341 513 750 
z
" transform="scale(0.015625)"/>
      <path id="Cmb10-49" d="M 166 0 
L 166 325 
L 800 325 
L 800 4063 
L 166 4063 
L 166 4391 
L 2369 4391 
L 2369 4063 
L 1734 4063 
L 1734 325 
L 2369 325 
L 2369 0 
L 166 0 
z
" transform="scale(0.015625)"/>
      <path id="Cmr10-70" d="M 166 -1241 
L 166 -1019 
Q 384 -1019 525 -981 
Q 666 -944 666 -813 
L 666 2272 
Q 666 2447 541 2490 
Q 416 2534 166 2534 
L 166 2759 
L 1113 2828 
L 1113 2431 
Q 1288 2625 1520 2726 
Q 1753 2828 2016 2828 
Q 2394 2828 2697 2623 
Q 3000 2419 3170 2086 
Q 3341 1753 3341 1381 
Q 3341 994 3152 659 
Q 2963 325 2636 126 
Q 2309 -72 1919 -72 
Q 1453 -72 1131 306 
L 1131 -813 
Q 1131 -944 1273 -981 
Q 1416 -1019 1631 -1019 
L 1631 -1241 
L 166 -1241 
z
M 1131 622 
Q 1244 394 1444 245 
Q 1644 97 1881 97 
Q 2103 97 2273 215 
Q 2444 334 2559 534 
Q 2675 734 2729 954 
Q 2784 1175 2784 1381 
Q 2784 1638 2692 1936 
Q 2600 2234 2411 2439 
Q 2222 2644 1953 2644 
Q 1694 2644 1476 2511 
Q 1259 2378 1131 2150 
L 1131 622 
z
" transform="scale(0.015625)"/>
      <path id="Cmr10-72" d="M 166 0 
L 166 225 
Q 384 225 525 259 
Q 666 294 666 428 
L 666 2175 
Q 666 2347 614 2423 
Q 563 2500 466 2517 
Q 369 2534 166 2534 
L 166 2759 
L 1081 2828 
L 1081 2203 
Q 1184 2481 1375 2654 
Q 1566 2828 1838 2828 
Q 2028 2828 2178 2715 
Q 2328 2603 2328 2419 
Q 2328 2303 2245 2217 
Q 2163 2131 2041 2131 
Q 1922 2131 1837 2215 
Q 1753 2300 1753 2419 
Q 1753 2591 1875 2663 
L 1838 2663 
Q 1578 2663 1414 2475 
Q 1250 2288 1181 2009 
Q 1113 1731 1113 1478 
L 1113 428 
Q 1113 225 1734 225 
L 1734 0 
L 166 0 
z
" transform="scale(0.015625)"/>
      <path id="Cmr10-65" d="M 1594 -72 
Q 1203 -72 876 133 
Q 550 338 364 680 
Q 178 1022 178 1403 
Q 178 1778 348 2115 
Q 519 2453 823 2661 
Q 1128 2869 1503 2869 
Q 1797 2869 2014 2770 
Q 2231 2672 2372 2497 
Q 2513 2322 2584 2084 
Q 2656 1847 2656 1563 
Q 2656 1478 2591 1478 
L 738 1478 
L 738 1409 
Q 738 878 952 497 
Q 1166 116 1650 116 
Q 1847 116 2014 203 
Q 2181 291 2304 447 
Q 2428 603 2472 781 
Q 2478 803 2495 820 
Q 2513 838 2534 838 
L 2591 838 
Q 2656 838 2656 756 
Q 2566 394 2266 161 
Q 1966 -72 1594 -72 
z
M 744 1638 
L 2203 1638 
Q 2203 1878 2136 2125 
Q 2069 2372 1912 2536 
Q 1756 2700 1503 2700 
Q 1141 2700 942 2361 
Q 744 2022 744 1638 
z
" transform="scale(0.015625)"/>
      <path id="Cmr10-6c" d="M 197 0 
L 197 225 
Q 416 225 556 259 
Q 697 294 697 428 
L 697 3788 
Q 697 3959 645 4036 
Q 594 4113 497 4130 
Q 400 4147 197 4147 
L 197 4372 
L 1147 4441 
L 1147 428 
Q 1147 294 1287 259 
Q 1428 225 1644 225 
L 1644 0 
L 197 0 
z
" transform="scale(0.015625)"/>
      <path id="Cmr10-69" d="M 197 0 
L 197 225 
Q 416 225 556 259 
Q 697 294 697 428 
L 697 2175 
Q 697 2422 601 2478 
Q 506 2534 225 2534 
L 225 2759 
L 1147 2828 
L 1147 428 
Q 1147 294 1269 259 
Q 1391 225 1594 225 
L 1594 0 
L 197 0 
z
M 469 3928 
Q 469 4069 575 4175 
Q 681 4281 819 4281 
Q 909 4281 993 4234 
Q 1078 4188 1125 4103 
Q 1172 4019 1172 3928 
Q 1172 3791 1065 3684 
Q 959 3578 819 3578 
Q 681 3578 575 3684 
Q 469 3791 469 3928 
z
" transform="scale(0.015625)"/>
      <path id="Cmr10-6d" d="M 191 0 
L 191 225 
Q 409 225 550 259 
Q 691 294 691 428 
L 691 2175 
Q 691 2347 639 2423 
Q 588 2500 491 2517 
Q 394 2534 191 2534 
L 191 2759 
L 1119 2828 
L 1119 2203 
Q 1247 2478 1498 2653 
Q 1750 2828 2047 2828 
Q 2784 2828 2913 2228 
Q 3041 2497 3287 2662 
Q 3534 2828 3828 2828 
Q 4119 2828 4317 2734 
Q 4516 2641 4616 2448 
Q 4716 2256 4716 1966 
L 4716 428 
Q 4716 294 4858 259 
Q 5000 225 5216 225 
L 5216 0 
L 3750 0 
L 3750 225 
Q 3969 225 4109 259 
Q 4250 294 4250 428 
L 4250 1947 
Q 4250 2269 4159 2466 
Q 4069 2663 3788 2663 
Q 3419 2663 3178 2366 
Q 2938 2069 2938 1691 
L 2938 428 
Q 2938 294 3078 259 
Q 3219 225 3438 225 
L 3438 0 
L 1972 0 
L 1972 225 
Q 2191 225 2331 259 
Q 2472 294 2472 428 
L 2472 1947 
Q 2472 2259 2381 2461 
Q 2291 2663 2009 2663 
Q 1638 2663 1398 2366 
Q 1159 2069 1159 1691 
L 1159 428 
Q 1159 294 1300 259 
Q 1441 225 1656 225 
L 1656 0 
L 191 0 
z
" transform="scale(0.015625)"/>
      <path id="Cmr10-6e" d="M 191 0 
L 191 225 
Q 409 225 550 259 
Q 691 294 691 428 
L 691 2175 
Q 691 2347 639 2423 
Q 588 2500 491 2517 
Q 394 2534 191 2534 
L 191 2759 
L 1119 2828 
L 1119 2203 
Q 1247 2478 1498 2653 
Q 1750 2828 2047 2828 
Q 2491 2828 2714 2615 
Q 2938 2403 2938 1966 
L 2938 428 
Q 2938 294 3078 259 
Q 3219 225 3438 225 
L 3438 0 
L 1972 0 
L 1972 225 
Q 2191 225 2331 259 
Q 2472 294 2472 428 
L 2472 1947 
Q 2472 2259 2381 2461 
Q 2291 2663 2009 2663 
Q 1638 2663 1398 2366 
Q 1159 2069 1159 1691 
L 1159 428 
Q 1159 294 1300 259 
Q 1441 225 1656 225 
L 1656 0 
L 191 0 
z
" transform="scale(0.015625)"/>
      <path id="Cmr10-61" d="M 256 628 
Q 256 1009 556 1248 
Q 856 1488 1276 1586 
Q 1697 1684 2075 1684 
L 2075 1947 
Q 2075 2131 1994 2304 
Q 1913 2478 1759 2589 
Q 1606 2700 1422 2700 
Q 997 2700 775 2509 
Q 897 2509 976 2417 
Q 1056 2325 1056 2203 
Q 1056 2075 965 1984 
Q 875 1894 750 1894 
Q 622 1894 531 1984 
Q 441 2075 441 2203 
Q 441 2541 747 2705 
Q 1053 2869 1422 2869 
Q 1681 2869 1943 2758 
Q 2206 2647 2373 2440 
Q 2541 2234 2541 1959 
L 2541 519 
Q 2541 394 2594 289 
Q 2647 184 2759 184 
Q 2866 184 2917 290 
Q 2969 397 2969 519 
L 2969 928 
L 3156 928 
L 3156 519 
Q 3156 375 3081 245 
Q 3006 116 2879 39 
Q 2753 -38 2606 -38 
Q 2419 -38 2283 107 
Q 2147 253 2131 453 
Q 2013 213 1781 70 
Q 1550 -72 1288 -72 
Q 1044 -72 808 0 
Q 572 72 414 226 
Q 256 381 256 628 
z
M 775 628 
Q 775 403 940 250 
Q 1106 97 1331 97 
Q 1538 97 1706 200 
Q 1875 303 1975 481 
Q 2075 659 2075 856 
L 2075 1522 
Q 1784 1522 1479 1426 
Q 1175 1331 975 1128 
Q 775 925 775 628 
z
" transform="scale(0.015625)"/>
      <path id="Cmr10-79" d="M 441 -1050 
Q 563 -1147 709 -1147 
Q 1113 -1147 1369 -538 
L 1588 0 
L 628 2350 
Q 569 2469 447 2501 
Q 325 2534 122 2534 
L 122 2759 
L 1466 2759 
L 1466 2534 
Q 1113 2534 1113 2381 
Q 1113 2356 1119 2344 
L 1831 594 
L 2472 2169 
Q 2491 2219 2491 2278 
Q 2491 2356 2448 2414 
Q 2406 2472 2339 2503 
Q 2272 2534 2188 2534 
L 2188 2759 
L 3250 2759 
L 3250 2534 
Q 3053 2534 2904 2443 
Q 2756 2353 2675 2175 
L 1569 -538 
Q 1481 -744 1364 -917 
Q 1247 -1091 1078 -1202 
Q 909 -1313 709 -1313 
Q 475 -1313 298 -1158 
Q 122 -1003 122 -775 
Q 122 -656 203 -575 
Q 284 -494 403 -494 
Q 484 -494 548 -530 
Q 613 -566 648 -628 
Q 684 -691 684 -775 
Q 684 -878 615 -959 
Q 547 -1041 441 -1050 
z
" transform="scale(0.015625)"/>
      <path id="LatinModernMath-Regular-222b" d="M 3898 4621 
C 3898 4928 3578 5152 3194 5152 
C 2586 5152 2336 4531 2227 4045 
C 2150 3693 1920 1888 1862 1114 
L 1741 -480 
C 1658 -1530 1427 -1818 1062 -1818 
C 979 -1818 787 -1798 653 -1683 
C 838 -1658 890 -1510 890 -1421 
C 890 -1235 749 -1152 627 -1152 
C 499 -1152 358 -1235 358 -1427 
C 358 -1734 678 -1958 1062 -1958 
C 1670 -1958 1978 -1402 2118 -826 
C 2202 -493 2432 1370 2483 2080 
L 2605 3674 
C 2694 4851 2912 5011 3200 5011 
C 3264 5011 3462 4998 3603 4877 
C 3418 4851 3366 4704 3366 4614 
C 3366 4429 3507 4346 3629 4346 
C 3757 4346 3898 4429 3898 4621 
z
" transform="scale(0.015625)"/>
      <path id="Cmsy10-4c" d="M 238 -141 
Q 197 -141 197 -97 
Q 197 -72 219 -38 
Q 266 38 359 130 
Q 453 222 494 275 
Q 656 509 750 691 
Q 913 1028 1031 1466 
Q 1206 2163 1348 2597 
Q 1491 3031 1722 3419 
Q 1903 3719 2168 3967 
Q 2434 4216 2757 4364 
Q 3081 4513 3419 4513 
L 3456 4513 
Q 3622 4513 3734 4430 
Q 3847 4347 3905 4208 
Q 3963 4069 3963 3909 
Q 3963 3666 3884 3572 
Q 3663 3331 3359 3291 
L 3322 3291 
Q 3284 3291 3284 3334 
Q 3284 3341 3300 3431 
Q 3316 3522 3316 3584 
Q 3316 3791 3212 3944 
Q 3109 4097 2906 4097 
Q 2669 4097 2669 4056 
Q 2494 3934 2333 3651 
Q 2172 3369 2051 3039 
Q 1931 2709 1837 2376 
Q 1744 2044 1672 1753 
Q 1594 1438 1470 1148 
Q 1347 859 1178 603 
Q 1253 628 1363 628 
L 1403 628 
Q 1625 628 1847 583 
Q 2069 538 2378 450 
Q 2688 363 2894 320 
Q 3100 278 3328 275 
Q 3397 275 3440 337 
Q 3484 400 3526 511 
Q 3569 622 3597 659 
Q 3694 766 3834 844 
Q 3975 922 4116 941 
L 4153 941 
Q 4172 941 4184 928 
Q 4197 916 4197 897 
Q 4197 897 4191 878 
Q 4128 628 3897 386 
Q 3666 144 3370 1 
Q 3075 -141 2828 -141 
L 2791 -141 
Q 2569 -141 2356 -100 
Q 2144 -59 1834 28 
Q 1525 116 1304 162 
Q 1084 209 863 213 
Q 578 -100 275 -141 
L 238 -141 
z
" transform="scale(0.015625)"/>
      <path id="Cmr10-64" d="M 1563 -72 
Q 1184 -72 871 133 
Q 559 338 386 672 
Q 213 1006 213 1381 
Q 213 1769 402 2101 
Q 591 2434 916 2631 
Q 1241 2828 1631 2828 
Q 1866 2828 2075 2729 
Q 2284 2631 2438 2456 
L 2438 3788 
Q 2438 3959 2386 4036 
Q 2334 4113 2239 4130 
Q 2144 4147 1941 4147 
L 1941 4372 
L 2888 4441 
L 2888 581 
Q 2888 413 2939 336 
Q 2991 259 3086 242 
Q 3181 225 3384 225 
L 3384 0 
L 2419 -72 
L 2419 331 
Q 2253 141 2025 34 
Q 1797 -72 1563 -72 
z
M 909 556 
Q 1019 347 1201 222 
Q 1384 97 1600 97 
Q 1866 97 2087 250 
Q 2309 403 2419 647 
L 2419 2181 
Q 2344 2322 2230 2433 
Q 2116 2544 1973 2603 
Q 1831 2663 1672 2663 
Q 1338 2663 1134 2473 
Q 931 2284 850 1990 
Q 769 1697 769 1375 
Q 769 1119 795 928 
Q 822 738 909 556 
z
" transform="scale(0.015625)"/>
      <path id="Cmr10-74" d="M 653 769 
L 653 2534 
L 122 2534 
L 122 2700 
Q 541 2700 737 3090 
Q 934 3481 934 3938 
L 1119 3938 
L 1119 2759 
L 2022 2759 
L 2022 2534 
L 1119 2534 
L 1119 781 
Q 1119 516 1208 316 
Q 1297 116 1528 116 
Q 1747 116 1844 327 
Q 1941 538 1941 781 
L 1941 1159 
L 2125 1159 
L 2125 769 
Q 2125 569 2051 373 
Q 1978 178 1834 53 
Q 1691 -72 1484 -72 
Q 1100 -72 876 158 
Q 653 388 653 769 
z
" transform="scale(0.015625)"/>
      <path id="LatinModernMath-Regular-3d" d="M 4621 2221 
C 4621 2291 4563 2349 4493 2349 
L 486 2349 
C 416 2349 358 2291 358 2221 
C 358 2150 416 2093 486 2093 
L 4493 2093 
C 4563 2093 4621 2150 4621 2221 
z
M 4621 979 
C 4621 1050 4563 1107 4493 1107 
L 486 1107 
C 416 1107 358 1050 358 979 
C 358 909 416 851 486 851 
L 4493 851 
C 4563 851 4621 909 4621 979 
z
" transform="scale(0.015625)"/>
      <path id="LatinModernMath-Regular-7a" d="M 2566 1197 
L 2406 1197 
C 2349 442 2214 160 1472 160 
L 717 160 
L 2496 2566 
C 2554 2637 2554 2650 2554 2675 
C 2554 2758 2502 2758 2387 2758 
L 339 2758 
L 269 1728 
L 429 1728 
C 467 2381 589 2618 1293 2618 
L 2022 2618 
L 237 205 
C 179 134 179 122 179 90 
C 179 0 224 0 346 0 
L 2458 0 
L 2566 1197 
z
" transform="scale(0.015625)"/>
      <path id="LatinModernMath-Regular-62" d="M 3334 1382 
C 3334 2195 2707 2829 1978 2829 
C 1478 2829 1203 2528 1101 2413 
L 1101 4442 
L 179 4371 
L 179 4173 
C 627 4173 678 4128 678 3814 
L 678 0 
L 838 0 
L 1069 397 
C 1165 250 1434 -70 1907 -70 
C 2669 -70 3334 557 3334 1382 
z
M 2803 1389 
C 2803 1152 2790 768 2605 480 
C 2470 282 2227 70 1882 70 
C 1594 70 1363 224 1210 461 
C 1120 595 1120 614 1120 730 
L 1120 2048 
C 1120 2170 1120 2176 1190 2278 
C 1440 2637 1792 2688 1946 2688 
C 2234 2688 2464 2522 2618 2278 
C 2784 2016 2803 1651 2803 1389 
z
" transform="scale(0.015625)"/>
     </defs>
     <use xlink:href="#Cmb10-42" transform="translate(0 0.5)"/>
     <use xlink:href="#Cmb10-65" transform="translate(71.09375 0.5)"/>
     <use xlink:href="#Cmb10-61" transform="translate(117.675781 0.5)"/>
     <use xlink:href="#Cmb10-73" transform="translate(166.259766 0.5)"/>
     <use xlink:href="#Cmb10-74" transform="translate(205.664062 0.5)"/>
     <use xlink:href="#Cmb10-49" transform="translate(273.942643 0.5)"/>
     <use xlink:href="#Cmb10-49" transform="translate(313.639908 0.5)"/>
     <use xlink:href="#Cmb10-49" transform="translate(353.337174 0.5)"/>
     <use xlink:href="#Cmr10-70" transform="translate(422.299348 0.5)"/>
     <use xlink:href="#Cmr10-72" transform="translate(477.816926 0.5)"/>
     <use xlink:href="#Cmr10-65" transform="translate(516.928254 0.5)"/>
     <use xlink:href="#Cmr10-6c" transform="translate(561.31302 0.5)"/>
     <use xlink:href="#Cmr10-69" transform="translate(588.998566 0.5)"/>
     <use xlink:href="#Cmr10-6d" transform="translate(616.684113 0.5)"/>
     <use xlink:href="#Cmr10-69" transform="translate(699.984895 0.5)"/>
     <use xlink:href="#Cmr10-6e" transform="translate(727.670441 0.5)"/>
     <use xlink:href="#Cmr10-61" transform="translate(783.18802 0.5)"/>
     <use xlink:href="#Cmr10-72" transform="translate(833.18802 0.5)"/>
     <use xlink:href="#Cmr10-79" transform="translate(872.299348 0.5)"/>
     <use xlink:href="#LatinModernMath-Regular-20" transform="translate(924.984895 0.5)"/>
     <use xlink:href="#LatinModernMath-Regular-222b" transform="translate(958.184891 0.5)"/>
     <use xlink:href="#Cmsy10-4c" transform="translate(1039.31733 0.5)"/>
     <use xlink:href="#Cmr10-64" transform="translate(1122.846269 0.5)"/>
     <use xlink:href="#Cmr10-74" transform="translate(1178.363847 0.5)"/>
     <use xlink:href="#LatinModernMath-Regular-3d" transform="translate(1234.7408 0.5)"/>
     <use xlink:href="#LatinModernMath-Regular-38" transform="translate(1330.099382 0.5)"/>
     <use xlink:href="#LatinModernMath-Regular-2e" transform="translate(1380.099366 0.5)"/>
     <use xlink:href="#LatinModernMath-Regular-32" transform="translate(1407.899354 0.5)"/>
     <use xlink:href="#LatinModernMath-Regular-7a" transform="translate(1472.531793 0.5)"/>
     <use xlink:href="#LatinModernMath-Regular-62" transform="translate(1516.931787 0.5)"/>
     <use xlink:href="#LatinModernMath-Regular-2212" transform="translate(1573.285918 30.665625) scale(0.7)"/>
     <use xlink:href="#LatinModernMath-Regular-31" transform="translate(1627.74591 30.665625) scale(0.7)"/>
    </g>
   </g>
   <g id="legend_1">
    <g id="patch_10">
     <path d="M 320.2665 41.902884 
L 344.2665 41.902884 
L 344.2665 33.502884 
L 320.2665 33.502884 
z
" style="fill: #b1dcc2; stroke: #000000; stroke-width: 0.5; stroke-linejoin: miter"/>
    </g>
    <g id="text_8">
     <!-- c2 -->
     <g style="fill: #1a1a1a" transform="translate(353.8665 41.902884) scale(0.12 -0.12)">
      <use xlink:href="#LatinModernMath-Regular-63"/>
      <use xlink:href="#LatinModernMath-Regular-32" x="44.399994"/>
     </g>
    </g>
    <g id="patch_11">
     <path d="M 320.2665 58.631634 
L 344.2665 58.631634 
L 344.2665 50.231634 
L 320.2665 50.231634 
z
" style="fill: #b67b76; stroke: #000000; stroke-width: 0.5; stroke-linejoin: miter"/>
    </g>
    <g id="text_9">
     <!-- c1 -->
     <g style="fill: #1a1a1a" transform="translate(353.8665 58.631634) scale(0.12 -0.12)">
      <use xlink:href="#LatinModernMath-Regular-63"/>
      <use xlink:href="#LatinModernMath-Regular-31" x="44.399994"/>
     </g>
    </g>
    <g id="patch_12">
     <path d="M 320.2665 75.360384 
L 344.2665 75.360384 
L 344.2665 66.960384 
L 320.2665 66.960384 
z
" style="fill: #3d4c74; stroke: #000000; stroke-width: 0.5; stroke-linejoin: miter"/>
    </g>
    <g id="text_10">
     <!-- c0 -->
     <g style="fill: #1a1a1a" transform="translate(353.8665 75.360384) scale(0.12 -0.12)">
      <use xlink:href="#LatinModernMath-Regular-63"/>
      <use xlink:href="#LatinModernMath-Regular-30" x="44.399994"/>
     </g>
    </g>
    <g id="LineCollection_2">
     <path d="M 332.2665 93.889134 
L 332.2665 81.889134 
" style="fill: none; stroke: #000000; stroke-width: 1.5"/>
    </g>
    <g id="line2d_44"/>
    <g id="line2d_45">
     <g>
      <use xlink:href="#meae5c0c399" x="332.2665" y="87.889134" style="stroke: #000000"/>
     </g>
    </g>
    <g id="text_11">
     <!-- Data -->
     <g style="fill: #1a1a1a" transform="translate(353.8665 92.089134) scale(0.12 -0.12)">
      <defs>
       <path id="LatinModernMath-Regular-44" d="M 4525 2150 
C 4525 3366 3661 4371 2566 4371 
L 224 4371 
L 224 4173 
L 378 4173 
C 870 4173 883 4102 883 3872 
L 883 499 
C 883 269 870 198 378 198 
L 224 198 
L 224 0 
L 2566 0 
C 3642 0 4525 947 4525 2150 
z
M 3885 2150 
C 3885 1440 3763 1056 3533 742 
C 3405 570 3040 198 2394 198 
L 1747 198 
C 1446 198 1434 243 1434 454 
L 1434 3917 
C 1434 4128 1446 4173 1747 4173 
L 2387 4173 
C 2784 4173 3226 4032 3552 3578 
C 3827 3200 3885 2650 3885 2150 
z
" transform="scale(0.015625)"/>
       <path id="LatinModernMath-Regular-61" d="M 3091 570 
L 3091 928 
L 2931 928 
L 2931 570 
C 2931 198 2771 160 2701 160 
C 2490 160 2464 448 2464 480 
L 2464 1760 
C 2464 2029 2464 2278 2234 2515 
C 1984 2765 1664 2867 1357 2867 
C 832 2867 390 2566 390 2144 
C 390 1952 518 1843 685 1843 
C 864 1843 979 1971 979 2138 
C 979 2214 947 2426 653 2432 
C 826 2656 1139 2726 1344 2726 
C 1658 2726 2022 2477 2022 1907 
L 2022 1670 
C 1696 1651 1248 1632 845 1440 
C 365 1222 205 890 205 608 
C 205 90 826 -70 1229 -70 
C 1651 -70 1946 186 2067 486 
C 2093 230 2266 -38 2566 -38 
C 2701 -38 3091 51 3091 570 
z
M 2022 896 
C 2022 288 1562 70 1274 70 
C 960 70 698 294 698 614 
C 698 966 966 1498 2022 1536 
L 2022 896 
z
" transform="scale(0.015625)"/>
      </defs>
      <use xlink:href="#LatinModernMath-Regular-44"/>
      <use xlink:href="#LatinModernMath-Regular-61" x="76.399994"/>
      <use xlink:href="#LatinModernMath-Regular-74" x="126.399979"/>
      <use xlink:href="#LatinModernMath-Regular-61" x="165.299973"/>
     </g>
    </g>
   </g>
  </g>
  <g id="axes_2">
   <g id="patch_13">
    <path d="M 55.704 299.902884 
L 390.504 299.902884 
L 390.504 248.330791 
L 55.704 248.330791 
z
" style="fill: #ffffff"/>
   </g>
   <g id="patch_14">
    <path d="M 55.704 274.116837 
L 55.704 269.958529 
L 62.4 269.958529 
L 62.4 270.120423 
L 69.096 270.120423 
L 69.096 273.055094 
L 75.792 273.055094 
L 75.792 268.780333 
L 82.488 268.780333 
L 82.488 268.306344 
L 89.184 268.306344 
L 89.184 257.510697 
L 95.88 257.510697 
L 95.88 257.093301 
L 102.576 257.093301 
L 102.576 260.356996 
L 109.272 260.356996 
L 109.272 258.736719 
L 115.968 258.736719 
L 115.968 243.657542 
L 122.664 243.657542 
L 122.664 263.404196 
L 129.36 263.404196 
L 129.36 252.341958 
L 136.056 252.341958 
L 136.056 241.669187 
L 142.752 241.669187 
L 142.752 246.798032 
L 149.448 246.798032 
L 149.448 238.937765 
L 156.144 238.937765 
L 156.144 246.449765 
L 162.84 246.449765 
L 162.84 248.62522 
L 169.536 248.62522 
L 169.536 242.414028 
L 176.232 242.414028 
L 176.232 242.53512 
L 182.928 242.53512 
L 182.928 243.875012 
L 189.624 243.875012 
L 189.624 265.193574 
L 196.32 265.193574 
L 196.32 278.129679 
L 203.016 278.129679 
L 203.016 279.733462 
L 209.712 279.733462 
L 209.712 295.5112 
L 216.408 295.5112 
L 216.408 332.638943 
L 223.104 332.638943 
L 223.104 340.547667 
L 229.8 340.547667 
L 229.8 335.232482 
L 236.496 335.232482 
L 236.496 335.864489 
L 243.192 335.864489 
L 243.192 344.488795 
L 249.888 344.488795 
L 249.888 332.153442 
L 256.584 332.153442 
L 256.584 342.207214 
L 263.28 342.207214 
L 263.28 309.696865 
L 269.976 309.696865 
L 269.976 301.709824 
L 276.672 301.709824 
L 276.672 286.423776 
L 283.368 286.423776 
L 283.368 285.373953 
L 290.064 285.373953 
L 290.064 279.854044 
L 296.76 279.854044 
L 296.76 272.580741 
L 303.456 272.580741 
L 303.456 275.776198 
L 310.152 275.776198 
L 310.152 276.02455 
L 316.848 276.02455 
L 316.848 277.101643 
L 323.544 277.101643 
L 323.544 279.713505 
L 330.24 279.713505 
L 330.24 275.982393 
L 336.936 275.982393 
L 336.936 267.461738 
L 343.632 267.461738 
L 343.632 275.049615 
L 350.328 275.049615 
L 350.328 274.116837 
L 357.024 274.116837 
L 357.024 275.049615 
L 363.72 275.049615 
L 363.72 275.049615 
L 370.416 275.049615 
L 370.416 274.116837 
L 377.112 274.116837 
L 377.112 274.116837 
L 383.808 274.116837 
L 383.808 274.116837 
L 390.504 274.116837 
L 390.504 274.116837 
L 383.808 274.116837 
L 383.808 274.116837 
L 377.112 274.116837 
L 377.112 274.116837 
L 370.416 274.116837 
L 370.416 274.116837 
L 363.72 274.116837 
L 363.72 274.116837 
L 357.024 274.116837 
L 357.024 274.116837 
L 350.328 274.116837 
L 350.328 274.116837 
L 343.632 274.116837 
L 343.632 274.116837 
L 336.936 274.116837 
L 336.936 274.116837 
L 330.24 274.116837 
L 330.24 274.116837 
L 323.544 274.116837 
L 323.544 274.116837 
L 316.848 274.116837 
L 316.848 274.116837 
L 310.152 274.116837 
L 310.152 274.116837 
L 303.456 274.116837 
L 303.456 274.116837 
L 296.76 274.116837 
L 296.76 274.116837 
L 290.064 274.116837 
L 290.064 274.116837 
L 283.368 274.116837 
L 283.368 274.116837 
L 276.672 274.116837 
L 276.672 274.116837 
L 269.976 274.116837 
L 269.976 274.116837 
L 263.28 274.116837 
L 263.28 274.116837 
L 256.584 274.116837 
L 256.584 274.116837 
L 249.888 274.116837 
L 249.888 274.116837 
L 243.192 274.116837 
L 243.192 274.116837 
L 236.496 274.116837 
L 236.496 274.116837 
L 229.8 274.116837 
L 229.8 274.116837 
L 223.104 274.116837 
L 223.104 274.116837 
L 216.408 274.116837 
L 216.408 274.116837 
L 209.712 274.116837 
L 209.712 274.116837 
L 203.016 274.116837 
L 203.016 274.116837 
L 196.32 274.116837 
L 196.32 274.116837 
L 189.624 274.116837 
L 189.624 274.116837 
L 182.928 274.116837 
L 182.928 274.116837 
L 176.232 274.116837 
L 176.232 274.116837 
L 169.536 274.116837 
L 169.536 274.116837 
L 162.84 274.116837 
L 162.84 274.116837 
L 156.144 274.116837 
L 156.144 274.116837 
L 149.448 274.116837 
L 149.448 274.116837 
L 142.752 274.116837 
L 142.752 274.116837 
L 136.056 274.116837 
L 136.056 274.116837 
L 129.36 274.116837 
L 129.36 274.116837 
L 122.664 274.116837 
L 122.664 274.116837 
L 115.968 274.116837 
L 115.968 274.116837 
L 109.272 274.116837 
L 109.272 274.116837 
L 102.576 274.116837 
L 102.576 274.116837 
L 95.88 274.116837 
L 95.88 274.116837 
L 89.184 274.116837 
L 89.184 274.116837 
L 82.488 274.116837 
L 82.488 274.116837 
L 75.792 274.116837 
L 75.792 274.116837 
L 69.096 274.116837 
L 69.096 274.116837 
L 62.4 274.116837 
L 62.4 274.116837 
z
" clip-path="url(#pc783f8e458)" style="fill: #a9a9a9"/>
   </g>
   <g id="line2d_46">
    <path d="M 55.704 274.116837 
L 390.504 274.116837 
" clip-path="url(#pc783f8e458)" style="fill: none; stroke-dasharray: 3.7,1.6; stroke-dashoffset: 0; stroke: #000000"/>
   </g>
   <g id="patch_15">
    <path d="M 55.704 299.902884 
L 55.704 248.330791 
" style="fill: none; stroke: #000000; stroke-linejoin: miter; stroke-linecap: square"/>
   </g>
   <g id="patch_16">
    <path d="M 390.504 299.902884 
L 390.504 248.330791 
" style="fill: none; stroke: #000000; stroke-linejoin: miter; stroke-linecap: square"/>
   </g>
   <g id="patch_17">
    <path d="M 55.704 299.902884 
L 390.504 299.902884 
" style="fill: none; stroke: #000000; stroke-linejoin: miter; stroke-linecap: square"/>
   </g>
   <g id="patch_18">
    <path d="M 55.704 248.330791 
L 390.504 248.330791 
" style="fill: none; stroke: #000000; stroke-linejoin: miter; stroke-linecap: square"/>
   </g>
   <g id="matplotlib.axis_3">
    <g id="xtick_23">
     <g id="line2d_47">
      <g>
       <use xlink:href="#m8dec1b3d1d" x="119.475429" y="299.902884" style="fill: #1a1a1a; stroke: #1a1a1a; stroke-width: 0.8"/>
      </g>
     </g>
     <g id="text_12">
      <!-- $\mathdefault{−5}$ -->
      <g style="fill: #1a1a1a" transform="translate(109.875429 318.313821) scale(0.15 -0.15)">
       <defs>
        <path id="LatinModernMath-Regular-35" d="M 2874 1286 
C 2874 2048 2349 2688 1658 2688 
C 1350 2688 1075 2586 845 2362 
L 845 3610 
C 973 3571 1184 3526 1389 3526 
C 2176 3526 2624 4109 2624 4192 
C 2624 4230 2605 4262 2560 4262 
C 2560 4262 2541 4262 2509 4243 
C 2381 4186 2067 4058 1638 4058 
C 1382 4058 1088 4102 787 4237 
C 736 4256 710 4256 710 4256 
C 646 4256 646 4205 646 4102 
L 646 2208 
C 646 2093 646 2042 736 2042 
C 781 2042 794 2061 819 2099 
C 890 2202 1126 2547 1645 2547 
C 1978 2547 2138 2253 2189 2138 
C 2291 1901 2304 1651 2304 1331 
C 2304 1107 2304 723 2150 454 
C 1997 205 1760 38 1466 38 
C 998 38 634 378 525 755 
C 544 749 563 742 634 742 
C 845 742 954 902 954 1056 
C 954 1210 845 1370 634 1370 
C 544 1370 320 1325 320 1030 
C 320 480 762 -141 1478 -141 
C 2221 -141 2874 474 2874 1286 
z
" transform="scale(0.015625)"/>
       </defs>
       <use xlink:href="#LatinModernMath-Regular-2212" transform="translate(0 0.40625)"/>
       <use xlink:href="#LatinModernMath-Regular-35" transform="translate(77.799988 0.40625)"/>
      </g>
     </g>
    </g>
    <g id="xtick_24">
     <g id="line2d_48">
      <g>
       <use xlink:href="#m8dec1b3d1d" x="199.189714" y="299.902884" style="fill: #1a1a1a; stroke: #1a1a1a; stroke-width: 0.8"/>
      </g>
     </g>
     <g id="text_13">
      <!-- $\mathdefault{0}$ -->
      <g style="fill: #1a1a1a" transform="translate(195.439714 318.313821) scale(0.15 -0.15)">
       <use xlink:href="#LatinModernMath-Regular-30" transform="translate(0 0.40625)"/>
      </g>
     </g>
    </g>
    <g id="xtick_25">
     <g id="line2d_49">
      <g>
       <use xlink:href="#m8dec1b3d1d" x="278.904" y="299.902884" style="fill: #1a1a1a; stroke: #1a1a1a; stroke-width: 0.8"/>
      </g>
     </g>
     <g id="text_14">
      <!-- $\mathdefault{5}$ -->
      <g style="fill: #1a1a1a" transform="translate(275.154 318.313821) scale(0.15 -0.15)">
       <use xlink:href="#LatinModernMath-Regular-35" transform="translate(0 0.40625)"/>
      </g>
     </g>
    </g>
    <g id="xtick_26">
     <g id="line2d_50">
      <g>
       <use xlink:href="#m8dec1b3d1d" x="358.618286" y="299.902884" style="fill: #1a1a1a; stroke: #1a1a1a; stroke-width: 0.8"/>
      </g>
     </g>
     <g id="text_15">
      <!-- $\mathdefault{10}$ -->
      <g style="fill: #1a1a1a" transform="translate(351.118286 318.313821) scale(0.15 -0.15)">
       <use xlink:href="#LatinModernMath-Regular-31" transform="translate(0 0.40625)"/>
       <use xlink:href="#LatinModernMath-Regular-30" transform="translate(49.999985 0.40625)"/>
      </g>
     </g>
    </g>
    <g id="xtick_27">
     <g id="line2d_51">
      <g>
       <use xlink:href="#m131efc0c90" x="55.704" y="299.902884" style="fill: #1a1a1a; stroke: #1a1a1a; stroke-width: 0.6"/>
      </g>
     </g>
    </g>
    <g id="xtick_28">
     <g id="line2d_52">
      <g>
       <use xlink:href="#m131efc0c90" x="71.646857" y="299.902884" style="fill: #1a1a1a; stroke: #1a1a1a; stroke-width: 0.6"/>
      </g>
     </g>
    </g>
    <g id="xtick_29">
     <g id="line2d_53">
      <g>
       <use xlink:href="#m131efc0c90" x="87.589714" y="299.902884" style="fill: #1a1a1a; stroke: #1a1a1a; stroke-width: 0.6"/>
      </g>
     </g>
    </g>
    <g id="xtick_30">
     <g id="line2d_54">
      <g>
       <use xlink:href="#m131efc0c90" x="103.532571" y="299.902884" style="fill: #1a1a1a; stroke: #1a1a1a; stroke-width: 0.6"/>
      </g>
     </g>
    </g>
    <g id="xtick_31">
     <g id="line2d_55">
      <g>
       <use xlink:href="#m131efc0c90" x="135.418286" y="299.902884" style="fill: #1a1a1a; stroke: #1a1a1a; stroke-width: 0.6"/>
      </g>
     </g>
    </g>
    <g id="xtick_32">
     <g id="line2d_56">
      <g>
       <use xlink:href="#m131efc0c90" x="151.361143" y="299.902884" style="fill: #1a1a1a; stroke: #1a1a1a; stroke-width: 0.6"/>
      </g>
     </g>
    </g>
    <g id="xtick_33">
     <g id="line2d_57">
      <g>
       <use xlink:href="#m131efc0c90" x="167.304" y="299.902884" style="fill: #1a1a1a; stroke: #1a1a1a; stroke-width: 0.6"/>
      </g>
     </g>
    </g>
    <g id="xtick_34">
     <g id="line2d_58">
      <g>
       <use xlink:href="#m131efc0c90" x="183.246857" y="299.902884" style="fill: #1a1a1a; stroke: #1a1a1a; stroke-width: 0.6"/>
      </g>
     </g>
    </g>
    <g id="xtick_35">
     <g id="line2d_59">
      <g>
       <use xlink:href="#m131efc0c90" x="215.132571" y="299.902884" style="fill: #1a1a1a; stroke: #1a1a1a; stroke-width: 0.6"/>
      </g>
     </g>
    </g>
    <g id="xtick_36">
     <g id="line2d_60">
      <g>
       <use xlink:href="#m131efc0c90" x="231.075429" y="299.902884" style="fill: #1a1a1a; stroke: #1a1a1a; stroke-width: 0.6"/>
      </g>
     </g>
    </g>
    <g id="xtick_37">
     <g id="line2d_61">
      <g>
       <use xlink:href="#m131efc0c90" x="247.018286" y="299.902884" style="fill: #1a1a1a; stroke: #1a1a1a; stroke-width: 0.6"/>
      </g>
     </g>
    </g>
    <g id="xtick_38">
     <g id="line2d_62">
      <g>
       <use xlink:href="#m131efc0c90" x="262.961143" y="299.902884" style="fill: #1a1a1a; stroke: #1a1a1a; stroke-width: 0.6"/>
      </g>
     </g>
    </g>
    <g id="xtick_39">
     <g id="line2d_63">
      <g>
       <use xlink:href="#m131efc0c90" x="294.846857" y="299.902884" style="fill: #1a1a1a; stroke: #1a1a1a; stroke-width: 0.6"/>
      </g>
     </g>
    </g>
    <g id="xtick_40">
     <g id="line2d_64">
      <g>
       <use xlink:href="#m131efc0c90" x="310.789714" y="299.902884" style="fill: #1a1a1a; stroke: #1a1a1a; stroke-width: 0.6"/>
      </g>
     </g>
    </g>
    <g id="xtick_41">
     <g id="line2d_65">
      <g>
       <use xlink:href="#m131efc0c90" x="326.732571" y="299.902884" style="fill: #1a1a1a; stroke: #1a1a1a; stroke-width: 0.6"/>
      </g>
     </g>
    </g>
    <g id="xtick_42">
     <g id="line2d_66">
      <g>
       <use xlink:href="#m131efc0c90" x="342.675429" y="299.902884" style="fill: #1a1a1a; stroke: #1a1a1a; stroke-width: 0.6"/>
      </g>
     </g>
    </g>
    <g id="xtick_43">
     <g id="line2d_67">
      <g>
       <use xlink:href="#m131efc0c90" x="374.561143" y="299.902884" style="fill: #1a1a1a; stroke: #1a1a1a; stroke-width: 0.6"/>
      </g>
     </g>
    </g>
    <g id="xtick_44">
     <g id="line2d_68">
      <g>
       <use xlink:href="#m131efc0c90" x="390.504" y="299.902884" style="fill: #1a1a1a; stroke: #1a1a1a; stroke-width: 0.6"/>
      </g>
     </g>
    </g>
    <g id="text_16">
     <!-- $variable_1\,\,[eV/c^2]$ -->
     <g style="fill: #1a1a1a" transform="translate(158.034 341.084759) scale(0.18 -0.18)">
      <defs>
       <path id="LatinModernMath-Regular-76" d="M 3251 2560 
L 3251 2758 
C 3104 2746 2918 2739 2771 2739 
L 2214 2758 
L 2214 2560 
C 2451 2554 2522 2406 2522 2285 
C 2522 2227 2509 2202 2483 2131 
L 1830 499 
L 1114 2285 
C 1075 2368 1075 2394 1075 2394 
C 1075 2560 1325 2560 1440 2560 
L 1440 2758 
L 742 2739 
C 570 2739 314 2746 122 2758 
L 122 2560 
C 525 2560 550 2522 634 2323 
L 1555 51 
C 1594 -38 1606 -70 1690 -70 
C 1773 -70 1798 -13 1824 51 
L 2662 2131 
C 2720 2278 2829 2554 3251 2560 
z
" transform="scale(0.015625)"/>
       <path id="LatinModernMath-Regular-6c" d="M 1632 0 
L 1632 198 
C 1203 198 1133 198 1133 486 
L 1133 4442 
L 211 4371 
L 211 4173 
C 659 4173 710 4128 710 3814 
L 710 486 
C 710 198 640 198 211 198 
L 211 0 
L 922 19 
L 1632 0 
z
" transform="scale(0.015625)"/>
       <path id="LatinModernMath-Regular-5b" d="M 1638 -1472 
C 1638 -1402 1581 -1344 1510 -1344 
L 986 -1344 
L 986 4544 
L 1510 4544 
C 1581 4544 1638 4602 1638 4672 
C 1638 4742 1581 4800 1510 4800 
L 730 4800 
L 730 -1600 
L 1510 -1600 
C 1581 -1600 1638 -1542 1638 -1472 
z
" transform="scale(0.015625)"/>
       <path id="LatinModernMath-Regular-5d" d="M 1050 -1600 
L 1050 4800 
L 269 4800 
C 198 4800 141 4742 141 4672 
C 141 4602 198 4544 269 4544 
L 794 4544 
L 794 -1344 
L 269 -1344 
C 198 -1344 141 -1402 141 -1472 
C 141 -1542 198 -1600 269 -1600 
L 1050 -1600 
z
" transform="scale(0.015625)"/>
      </defs>
      <use xlink:href="#LatinModernMath-Regular-76" transform="translate(0 0.21875)"/>
      <use xlink:href="#LatinModernMath-Regular-61" transform="translate(52.799988 0.21875)"/>
      <use xlink:href="#LatinModernMath-Regular-72" transform="translate(102.799973 0.21875)"/>
      <use xlink:href="#LatinModernMath-Regular-69" transform="translate(141.999969 0.21875)"/>
      <use xlink:href="#LatinModernMath-Regular-61" transform="translate(169.799957 0.21875)"/>
      <use xlink:href="#LatinModernMath-Regular-62" transform="translate(219.799942 0.21875)"/>
      <use xlink:href="#LatinModernMath-Regular-6c" transform="translate(275.399933 0.21875)"/>
      <use xlink:href="#LatinModernMath-Regular-65" transform="translate(303.199921 0.21875)"/>
      <use xlink:href="#LatinModernMath-Regular-31" transform="translate(348.354055 -12.709375) scale(0.7)"/>
      <use xlink:href="#LatinModernMath-Regular-5b" transform="translate(414.77364 0.21875)"/>
      <use xlink:href="#LatinModernMath-Regular-65" transform="translate(442.573628 0.21875)"/>
      <use xlink:href="#LatinModernMath-Regular-56" transform="translate(486.973622 0.21875)"/>
      <use xlink:href="#LatinModernMath-Regular-2f" transform="translate(561.973607 0.21875)"/>
      <use xlink:href="#LatinModernMath-Regular-63" transform="translate(611.973591 0.21875)"/>
      <use xlink:href="#LatinModernMath-Regular-32" transform="translate(657.127726 30.384375) scale(0.7)"/>
      <use xlink:href="#LatinModernMath-Regular-5d" transform="translate(694.282403 0.21875)"/>
     </g>
    </g>
   </g>
   <g id="matplotlib.axis_4">
    <g id="ytick_21">
     <g id="line2d_69">
      <g>
       <use xlink:href="#mc947610920" x="55.704" y="299.902884" style="fill: #1a1a1a; stroke: #1a1a1a; stroke-width: 0.8"/>
      </g>
     </g>
     <g id="text_17">
      <!-- $\mathdefault{−5}$ -->
      <g style="fill: #1a1a1a" transform="translate(31.504 305.108352) scale(0.15 -0.15)">
       <use xlink:href="#LatinModernMath-Regular-2212" transform="translate(0 0.40625)"/>
       <use xlink:href="#LatinModernMath-Regular-35" transform="translate(77.799988 0.40625)"/>
      </g>
     </g>
    </g>
    <g id="ytick_22">
     <g id="line2d_70">
      <g>
       <use xlink:href="#mc947610920" x="55.704" y="274.116837" style="fill: #1a1a1a; stroke: #1a1a1a; stroke-width: 0.8"/>
      </g>
     </g>
     <g id="text_18">
      <!-- $\mathdefault{0}$ -->
      <g style="fill: #1a1a1a" transform="translate(43.204 279.322306) scale(0.15 -0.15)">
       <use xlink:href="#LatinModernMath-Regular-30" transform="translate(0 0.40625)"/>
      </g>
     </g>
    </g>
    <g id="ytick_23">
     <g id="line2d_71">
      <g>
       <use xlink:href="#mc947610920" x="55.704" y="248.330791" style="fill: #1a1a1a; stroke: #1a1a1a; stroke-width: 0.8"/>
      </g>
     </g>
     <g id="text_19">
      <!-- $\mathdefault{5}$ -->
      <g style="fill: #1a1a1a" transform="translate(43.204 253.536259) scale(0.15 -0.15)">
       <use xlink:href="#LatinModernMath-Regular-35" transform="translate(0 0.40625)"/>
      </g>
     </g>
    </g>
    <g id="ytick_24">
     <g id="line2d_72">
      <g>
       <use xlink:href="#m5f9d1e6504" x="55.704" y="294.745674" style="fill: #1a1a1a; stroke: #1a1a1a; stroke-width: 0.6"/>
      </g>
     </g>
    </g>
    <g id="ytick_25">
     <g id="line2d_73">
      <g>
       <use xlink:href="#m5f9d1e6504" x="55.704" y="289.588465" style="fill: #1a1a1a; stroke: #1a1a1a; stroke-width: 0.6"/>
      </g>
     </g>
    </g>
    <g id="ytick_26">
     <g id="line2d_74">
      <g>
       <use xlink:href="#m5f9d1e6504" x="55.704" y="284.431256" style="fill: #1a1a1a; stroke: #1a1a1a; stroke-width: 0.6"/>
      </g>
     </g>
    </g>
    <g id="ytick_27">
     <g id="line2d_75">
      <g>
       <use xlink:href="#m5f9d1e6504" x="55.704" y="279.274047" style="fill: #1a1a1a; stroke: #1a1a1a; stroke-width: 0.6"/>
      </g>
     </g>
    </g>
    <g id="ytick_28">
     <g id="line2d_76">
      <g>
       <use xlink:href="#m5f9d1e6504" x="55.704" y="268.959628" style="fill: #1a1a1a; stroke: #1a1a1a; stroke-width: 0.6"/>
      </g>
     </g>
    </g>
    <g id="ytick_29">
     <g id="line2d_77">
      <g>
       <use xlink:href="#m5f9d1e6504" x="55.704" y="263.802419" style="fill: #1a1a1a; stroke: #1a1a1a; stroke-width: 0.6"/>
      </g>
     </g>
    </g>
    <g id="ytick_30">
     <g id="line2d_78">
      <g>
       <use xlink:href="#m5f9d1e6504" x="55.704" y="258.645209" style="fill: #1a1a1a; stroke: #1a1a1a; stroke-width: 0.6"/>
      </g>
     </g>
    </g>
    <g id="ytick_31">
     <g id="line2d_79">
      <g>
       <use xlink:href="#m5f9d1e6504" x="55.704" y="253.488" style="fill: #1a1a1a; stroke: #1a1a1a; stroke-width: 0.6"/>
      </g>
     </g>
    </g>
    <g id="text_20">
     <!-- $\frac{ Data - Pred. }{ \sigma_{Data} } $ -->
     <g style="fill: #1a1a1a" transform="translate(17.988 300.156837) rotate(-90) scale(0.124 -0.124)">
      <defs>
       <path id="LatinModernMath-Regular-50" d="M 3994 3181 
C 3994 3808 3360 4371 2483 4371 
L 224 4371 
L 224 4173 
L 378 4173 
C 870 4173 883 4102 883 3872 
L 883 499 
C 883 269 870 198 378 198 
L 224 198 
L 224 0 
C 448 19 922 19 1165 19 
C 1408 19 1888 19 2112 0 
L 2112 198 
L 1958 198 
C 1466 198 1453 269 1453 499 
L 1453 2022 
L 2534 2022 
C 3302 2022 3994 2541 3994 3181 
z
M 3334 3181 
C 3334 2880 3334 2189 2317 2189 
L 1434 2189 
L 1434 3917 
C 1434 4128 1446 4173 1747 4173 
L 2317 4173 
C 3334 4173 3334 3494 3334 3181 
z
" transform="scale(0.015625)"/>
       <path id="LatinModernMath-Regular-64" d="M 3373 0 
L 3373 198 
C 2925 198 2874 243 2874 557 
L 2874 4442 
L 1952 4371 
L 1952 4173 
C 2400 4173 2451 4128 2451 3814 
L 2451 2432 
C 2266 2662 1990 2829 1645 2829 
C 890 2829 218 2202 218 1376 
C 218 563 845 -70 1574 -70 
C 1984 -70 2272 147 2432 352 
L 2432 -70 
L 3373 0 
z
M 2432 755 
C 2432 640 2432 627 2362 518 
C 2170 211 1882 70 1606 70 
C 1318 70 1088 237 934 480 
C 768 742 749 1107 749 1370 
C 749 1606 762 1990 947 2278 
C 1082 2477 1325 2688 1670 2688 
C 1894 2688 2163 2592 2362 2304 
C 2432 2195 2432 2182 2432 2067 
L 2432 755 
z
" transform="scale(0.015625)"/>
       <path id="LatinModernMath-Regular-3c3" d="M 3379 2605 
C 3341 2758 3206 2758 3091 2758 
L 1632 2758 
C 666 2758 224 1702 410 941 
C 550 378 1043 -70 1626 -70 
C 2381 -70 3040 704 2790 1690 
C 2765 1798 2688 2106 2419 2387 
L 3123 2387 
C 3206 2387 3437 2387 3379 2605 
z
M 2362 1766 
C 2438 1466 2438 941 2304 614 
C 2150 237 1843 70 1594 70 
C 1280 70 966 301 851 762 
C 806 954 749 1478 883 1856 
C 1037 2298 1402 2387 1619 2387 
C 2157 2387 2310 1965 2362 1766 
z
" transform="scale(0.015625)"/>
      </defs>
      <use xlink:href="#LatinModernMath-Regular-44" transform="translate(0 38.415625) scale(0.7)"/>
      <use xlink:href="#LatinModernMath-Regular-61" transform="translate(53.479996 38.415625) scale(0.7)"/>
      <use xlink:href="#LatinModernMath-Regular-74" transform="translate(88.479985 38.415625) scale(0.7)"/>
      <use xlink:href="#LatinModernMath-Regular-61" transform="translate(115.709981 38.415625) scale(0.7)"/>
      <use xlink:href="#LatinModernMath-Regular-2212" transform="translate(163.000986 38.415625) scale(0.7)"/>
      <use xlink:href="#LatinModernMath-Regular-50" transform="translate(229.751993 38.415625) scale(0.7)"/>
      <use xlink:href="#LatinModernMath-Regular-72" transform="translate(277.421986 38.415625) scale(0.7)"/>
      <use xlink:href="#LatinModernMath-Regular-65" transform="translate(304.861984 38.415625) scale(0.7)"/>
      <use xlink:href="#LatinModernMath-Regular-64" transform="translate(335.94198 38.415625) scale(0.7)"/>
      <use xlink:href="#LatinModernMath-Regular-2e" transform="translate(374.861974 38.415625) scale(0.7)"/>
      <use xlink:href="#LatinModernMath-Regular-3c3" transform="translate(129 -23.765625) scale(0.7)"/>
      <use xlink:href="#LatinModernMath-Regular-44" transform="translate(171.457894 -32.815312) scale(0.49)"/>
      <use xlink:href="#LatinModernMath-Regular-61" transform="translate(208.893891 -32.815312) scale(0.49)"/>
      <use xlink:href="#LatinModernMath-Regular-74" transform="translate(233.393884 -32.815312) scale(0.49)"/>
      <use xlink:href="#LatinModernMath-Regular-61" transform="translate(252.454881 -32.815312) scale(0.49)"/>
      <path d="M 0 12.65 
L 0 18.9 
L 406.612981 18.9 
L 406.612981 12.65 
L 0 12.65 
z
"/>
     </g>
    </g>
   </g>
  </g>
 </g>
 <defs>
  <clipPath id="p85a0447211">
   <rect x="55.704" y="22.702884" width="334.8" height="206.288372"/>
  </clipPath>
  <clipPath id="pc783f8e458">
   <rect x="55.704" y="248.330791" width="334.8" height="51.572093"/>
  </clipPath>
 </defs>
</svg>
