<?xml version="1.0" encoding="utf-8" standalone="no"?>
<!DOCTYPE svg PUBLIC "-//W3C//DTD SVG 1.1//EN"
  "http://www.w3.org/Graphics/SVG/1.1/DTD/svg11.dtd">
<svg xmlns:xlink="http://www.w3.org/1999/xlink" width="406.73pt" height="350.332812pt" viewBox="0 0 406.73 350.332812" xmlns="http://www.w3.org/2000/svg" version="1.1">
 <metadata>
  <rdf:RDF xmlns:dc="http://purl.org/dc/elements/1.1/" xmlns:cc="http://creativecommons.org/ns#" xmlns:rdf="http://www.w3.org/1999/02/22-rdf-syntax-ns#">
   <cc:Work>
    <dc:creator>
     <cc:Agent>
      <dc:title>カリビアンカフェ</dc:title>
     </cc:Agent>
    </dc:creator>
   </cc:Work>
  </rdf:RDF>
 </metadata>
 <defs>
  <style type="text/css">*{stroke-linejoin: round; stroke-linecap: butt}</style>
 </defs>
 <g id="figure_1">
  <g id="patch_1">
   <path d="M 0 350.332812 
L 406.73 350.332812 
L 406.73 0 
L 0 0 
z
" style="fill: #ffffff"/>
  </g>
  <g id="axes_1">
   <g id="patch_2">
    <path d="M 60.98 226.89931 
L 395.78 226.89931 
L 395.78 20.610937 
L 60.98 20.610937 
z
" style="fill: #ffffff"/>
   </g>
   <g id="patch_3">
    <path d="M 60.98 177.23762 
L 60.98 173.701929 
L 102.83 173.701929 
L 102.83 99.700198 
L 144.68 99.700198 
L 144.68 98.613759 
L 186.53 98.613759 
L 186.53 208.201126 
L 228.38 208.201126 
L 228.38 201.863566 
L 270.23 201.863566 
L 270.23 107.124197 
L 312.08 107.124197 
L 312.08 31.797773 
L 353.93 31.797773 
L 353.93 163.476062 
L 395.78 163.476062 
L 395.78 170.089996 
L 395.78 170.089996 
L 395.78 170.089996 
L 353.93 170.089996 
L 353.93 51.001055 
L 312.08 51.001055 
L 312.08 130.41592 
L 270.23 130.41592 
L 270.23 208.954009 
L 228.38 208.954009 
L 228.38 213.128221 
L 186.53 213.128221 
L 186.53 114.80551 
L 144.68 114.80551 
L 144.68 123.563731 
L 102.83 123.563731 
L 102.83 177.23762 
L 60.98 177.23762 
L 60.98 177.23762 
" clip-path="url(#p0fea6b7162)" style="fill: #b1dcc2; stroke: #000000; stroke-width: 0.5; stroke-linejoin: miter"/>
   </g>
   <g id="patch_4">
    <path d="M 60.98 178.581373 
L 60.98 177.23762 
L 102.83 177.23762 
L 102.83 123.563731 
L 144.68 123.563731 
L 144.68 114.80551 
L 186.53 114.80551 
L 186.53 213.128221 
L 228.38 213.128221 
L 228.38 208.954009 
L 270.23 208.954009 
L 270.23 130.41592 
L 312.08 130.41592 
L 312.08 51.001055 
L 353.93 51.001055 
L 353.93 170.089996 
L 395.78 170.089996 
L 395.78 175.874807 
L 395.78 175.874807 
L 395.78 175.874807 
L 353.93 175.874807 
L 353.93 96.755377 
L 312.08 96.755377 
L 312.08 165.467866 
L 270.23 165.467866 
L 270.23 216.101633 
L 228.38 216.101633 
L 228.38 215.091435 
L 186.53 215.091435 
L 186.53 118.760528 
L 144.68 118.760528 
L 144.68 127.909486 
L 102.83 127.909486 
L 102.83 178.581373 
L 60.98 178.581373 
L 60.98 178.581373 
" clip-path="url(#p0fea6b7162)" style="fill: #a9c593; stroke: #000000; stroke-width: 0.5; stroke-linejoin: miter"/>
   </g>
   <g id="patch_5">
    <path d="M 60.98 179.362847 
L 60.98 178.581373 
L 102.83 178.581373 
L 102.83 127.909486 
L 144.68 127.909486 
L 144.68 118.760528 
L 186.53 118.760528 
L 186.53 215.091435 
L 228.38 215.091435 
L 228.38 216.101633 
L 270.23 216.101633 
L 270.23 165.467866 
L 312.08 165.467866 
L 312.08 96.755377 
L 353.93 96.755377 
L 353.93 175.874807 
L 395.78 175.874807 
L 395.78 193.715275 
L 395.78 193.715275 
L 395.78 193.715275 
L 353.93 193.715275 
L 353.93 121.371793 
L 312.08 121.371793 
L 312.08 166.973632 
L 270.23 166.973632 
L 270.23 216.158814 
L 228.38 216.158814 
L 228.38 217.969545 
L 186.53 217.969545 
L 186.53 160.026142 
L 144.68 160.026142 
L 144.68 142.843255 
L 102.83 142.843255 
L 102.83 179.362847 
L 60.98 179.362847 
L 60.98 179.362847 
" clip-path="url(#p0fea6b7162)" style="fill: #b2a275; stroke: #000000; stroke-width: 0.5; stroke-linejoin: miter"/>
   </g>
   <g id="patch_6">
    <path d="M 60.98 192.762259 
L 60.98 179.362847 
L 102.83 179.362847 
L 102.83 142.843255 
L 144.68 142.843255 
L 144.68 160.026142 
L 186.53 160.026142 
L 186.53 217.969545 
L 228.38 217.969545 
L 228.38 216.158814 
L 270.23 216.158814 
L 270.23 166.973632 
L 312.08 166.973632 
L 312.08 121.371793 
L 353.93 121.371793 
L 353.93 193.715275 
L 395.78 193.715275 
L 395.78 208.058174 
L 395.78 208.058174 
L 395.78 208.058174 
L 353.93 208.058174 
L 353.93 162.303852 
L 312.08 162.303852 
L 312.08 187.396776 
L 270.23 187.396776 
L 270.23 218.655717 
L 228.38 218.655717 
L 228.38 218.131558 
L 186.53 218.131558 
L 186.53 163.504652 
L 144.68 163.504652 
L 144.68 151.534765 
L 102.83 151.534765 
L 102.83 192.762259 
L 60.98 192.762259 
L 60.98 192.762259 
" clip-path="url(#p0fea6b7162)" style="fill: #b67b76; stroke: #000000; stroke-width: 0.5; stroke-linejoin: miter"/>
   </g>
   <g id="patch_7">
    <path d="M 60.98 193.276888 
L 60.98 192.762259 
L 102.83 192.762259 
L 102.83 151.534765 
L 144.68 151.534765 
L 144.68 163.504652 
L 186.53 163.504652 
L 186.53 218.131558 
L 228.38 218.131558 
L 228.38 218.655717 
L 270.23 218.655717 
L 270.23 187.396776 
L 312.08 187.396776 
L 312.08 162.303852 
L 353.93 162.303852 
L 353.93 208.058174 
L 395.78 208.058174 
L 395.78 217.531157 
L 395.78 217.531157 
L 395.78 217.531157 
L 353.93 217.531157 
L 353.93 194.315676 
L 312.08 194.315676 
L 312.08 201.768265 
L 270.23 201.768265 
L 270.23 220.161483 
L 228.38 220.161483 
L 228.38 224.926565 
L 186.53 224.926565 
L 186.53 194.220374 
L 144.68 194.220374 
L 144.68 161.60815 
L 102.83 161.60815 
L 102.83 193.276888 
L 60.98 193.276888 
L 60.98 193.276888 
" clip-path="url(#p0fea6b7162)" style="fill: #a15f86; stroke: #000000; stroke-width: 0.5; stroke-linejoin: miter"/>
   </g>
   <g id="patch_8">
    <path d="M 60.98 219.189406 
L 60.98 193.276888 
L 102.83 193.276888 
L 102.83 161.60815 
L 144.68 161.60815 
L 144.68 194.220374 
L 186.53 194.220374 
L 186.53 224.926565 
L 228.38 224.926565 
L 228.38 220.161483 
L 270.23 220.161483 
L 270.23 201.768265 
L 312.08 201.768265 
L 312.08 194.315676 
L 353.93 194.315676 
L 353.93 217.531157 
L 395.78 217.531157 
L 395.78 218.28404 
L 395.78 218.28404 
L 395.78 218.28404 
L 353.93 218.28404 
L 353.93 201.939808 
L 312.08 201.939808 
L 312.08 216.673443 
L 270.23 216.673443 
L 270.23 226.432332 
L 228.38 226.432332 
L 228.38 225.736629 
L 186.53 225.736629 
L 186.53 208.791996 
L 144.68 208.791996 
L 144.68 193.41984 
L 102.83 193.41984 
L 102.83 219.189406 
L 60.98 219.189406 
L 60.98 219.189406 
" clip-path="url(#p0fea6b7162)" style="fill: #73528c; stroke: #000000; stroke-width: 0.5; stroke-linejoin: miter"/>
   </g>
   <g id="patch_9">
    <path d="M 60.98 226.89931 
L 60.98 219.189406 
L 102.83 219.189406 
L 102.83 193.41984 
L 144.68 193.41984 
L 144.68 208.791996 
L 186.53 208.791996 
L 186.53 225.736629 
L 228.38 225.736629 
L 228.38 226.432332 
L 270.23 226.432332 
L 270.23 216.673443 
L 312.08 216.673443 
L 312.08 201.939808 
L 353.93 201.939808 
L 353.93 218.28404 
L 395.78 218.28404 
L 395.78 226.89931 
L 395.78 226.89931 
L 395.78 226.89931 
L 353.93 226.89931 
L 353.93 226.89931 
L 312.08 226.89931 
L 312.08 226.89931 
L 270.23 226.89931 
L 270.23 226.89931 
L 228.38 226.89931 
L 228.38 226.89931 
L 186.53 226.89931 
L 186.53 226.89931 
L 144.68 226.89931 
L 144.68 226.89931 
L 102.83 226.89931 
L 102.83 226.89931 
L 60.98 226.89931 
L 60.98 226.89931 
" clip-path="url(#p0fea6b7162)" style="fill: #3d4c74; stroke: #000000; stroke-width: 0.5; stroke-linejoin: miter"/>
   </g>
   <g id="patch_10">
    <path d="M 60.98 174.413954 
L 102.83 174.413954 
L 102.83 172.989904 
L 60.98 172.989904 
z
" clip-path="url(#p0fea6b7162)" style="fill: url(#h63c8cd6f62)"/>
   </g>
   <g id="patch_11">
    <path d="M 102.83 100.801211 
L 144.68 100.801211 
L 144.68 98.599186 
L 102.83 98.599186 
z
" clip-path="url(#p0fea6b7162)" style="fill: url(#h63c8cd6f62)"/>
   </g>
   <g id="patch_12">
    <path d="M 144.68 99.719464 
L 186.53 99.719464 
L 186.53 97.508055 
L 144.68 97.508055 
z
" clip-path="url(#p0fea6b7162)" style="fill: url(#h63c8cd6f62)"/>
   </g>
   <g id="patch_13">
    <path d="M 186.53 208.62326 
L 228.38 208.62326 
L 228.38 207.778992 
L 186.53 207.778992 
z
" clip-path="url(#p0fea6b7162)" style="fill: url(#h63c8cd6f62)"/>
   </g>
   <g id="patch_14">
    <path d="M 228.38 202.352028 
L 270.23 202.352028 
L 270.23 201.375105 
L 228.38 201.375105 
z
" clip-path="url(#p0fea6b7162)" style="fill: url(#h63c8cd6f62)"/>
   </g>
   <g id="patch_15">
    <path d="M 270.23 108.192596 
L 312.08 108.192596 
L 312.08 106.055798 
L 270.23 106.055798 
z
" clip-path="url(#p0fea6b7162)" style="fill: url(#h63c8cd6f62)"/>
   </g>
   <g id="patch_16">
    <path d="M 312.08 33.161353 
L 353.93 33.161353 
L 353.93 30.434193 
L 312.08 30.434193 
z
" clip-path="url(#p0fea6b7162)" style="fill: url(#h63c8cd6f62)"/>
   </g>
   <g id="patch_17">
    <path d="M 353.93 164.253516 
L 395.78 164.253516 
L 395.78 162.698608 
L 353.93 162.698608 
z
" clip-path="url(#p0fea6b7162)" style="fill: url(#h63c8cd6f62)"/>
   </g>
   <g id="patch_18">
    <path d="M 60.98 226.89931 
L 60.98 224.002139 
L 102.83 224.002139 
L 102.83 221.762551 
L 144.68 221.762551 
L 144.68 213.03292 
L 186.53 213.03292 
L 186.53 219.846988 
L 228.38 219.846988 
L 228.38 219.227527 
L 270.23 219.227527 
L 270.23 198.461297 
L 312.08 198.461297 
L 312.08 198.289754 
L 353.93 198.289754 
L 353.93 216.682973 
L 395.78 216.682973 
L 395.78 226.89931 
" clip-path="url(#p0fea6b7162)" style="fill: none; stroke: #ff0000; stroke-linejoin: miter"/>
   </g>
   <g id="LineCollection_1">
    <path d="M 81.905 225.923558 
L 81.905 225.711265 
" clip-path="url(#p0fea6b7162)" style="fill: none; stroke: #000000; stroke-width: 1.5"/>
    <path d="M 123.755 201.313801 
L 123.755 200.307074 
" clip-path="url(#p0fea6b7162)" style="fill: none; stroke: #000000; stroke-width: 1.5"/>
    <path d="M 165.605 181.994529 
L 165.605 180.667054 
" clip-path="url(#p0fea6b7162)" style="fill: none; stroke: #000000; stroke-width: 1.5"/>
    <path d="M 207.455 222.91517 
L 207.455 222.506206 
" clip-path="url(#p0fea6b7162)" style="fill: none; stroke: #000000; stroke-width: 1.5"/>
    <path d="M 249.305 226.639282 
L 249.305 226.519985 
" clip-path="url(#p0fea6b7162)" style="fill: none; stroke: #000000; stroke-width: 1.5"/>
    <path d="M 291.155 224.223744 
L 291.155 223.88509 
" clip-path="url(#p0fea6b7162)" style="fill: none; stroke: #000000; stroke-width: 1.5"/>
    <path d="M 333.005 215.351687 
L 333.005 214.669036 
" clip-path="url(#p0fea6b7162)" style="fill: none; stroke: #000000; stroke-width: 1.5"/>
    <path d="M 374.855 214.740887 
L 374.855 214.040918 
" clip-path="url(#p0fea6b7162)" style="fill: none; stroke: #000000; stroke-width: 1.5"/>
   </g>
   <g id="line2d_1">
    <defs>
     <path id="meae5c0c399" d="M 0 1.5 
C 0.397805 1.5 0.77937 1.341951 1.06066 1.06066 
C 1.341951 0.77937 1.5 0.397805 1.5 0 
C 1.5 -0.397805 1.341951 -0.77937 1.06066 -1.06066 
C 0.77937 -1.341951 0.397805 -1.5 0 -1.5 
C -0.397805 -1.5 -0.77937 -1.341951 -1.06066 -1.06066 
C -1.341951 -0.77937 -1.5 -0.397805 -1.5 0 
C -1.5 0.397805 -1.341951 0.77937 -1.06066 1.06066 
C -0.77937 1.341951 -0.397805 1.5 0 1.5 
z
" style="stroke: #000000"/>
    </defs>
    <g clip-path="url(#p0fea6b7162)">
     <use xlink:href="#meae5c0c399" x="81.905" y="225.822401" style="stroke: #000000"/>
     <use xlink:href="#meae5c0c399" x="123.755" y="200.815248" style="stroke: #000000"/>
     <use xlink:href="#meae5c0c399" x="165.605" y="181.335591" style="stroke: #000000"/>
     <use xlink:href="#meae5c0c399" x="207.455" y="222.715567" style="stroke: #000000"/>
     <use xlink:href="#meae5c0c399" x="249.305" y="226.584814" style="stroke: #000000"/>
     <use xlink:href="#meae5c0c399" x="291.155" y="224.05932" style="stroke: #000000"/>
     <use xlink:href="#meae5c0c399" x="333.005" y="215.015194" style="stroke: #000000"/>
     <use xlink:href="#meae5c0c399" x="374.855" y="214.395733" style="stroke: #000000"/>
    </g>
   </g>
   <g id="patch_19">
    <path d="M 60.98 226.89931 
L 60.98 20.610937 
" style="fill: none; stroke: #000000; stroke-linejoin: miter; stroke-linecap: square"/>
   </g>
   <g id="patch_20">
    <path d="M 395.78 226.89931 
L 395.78 20.610937 
" style="fill: none; stroke: #000000; stroke-linejoin: miter; stroke-linecap: square"/>
   </g>
   <g id="patch_21">
    <path d="M 60.98 226.89931 
L 395.78 226.89931 
" style="fill: none; stroke: #000000; stroke-linejoin: miter; stroke-linecap: square"/>
   </g>
   <g id="patch_22">
    <path d="M 60.98 20.610937 
L 395.78 20.610937 
" style="fill: none; stroke: #000000; stroke-linejoin: miter; stroke-linecap: square"/>
   </g>
   <g id="matplotlib.axis_1">
    <g id="xtick_1">
     <g id="line2d_2">
      <defs>
       <path id="m8dec1b3d1d" d="M 0 0 
L 0 -6 
" style="stroke: #1a1a1a; stroke-width: 0.8"/>
      </defs>
      <g>
       <use xlink:href="#m8dec1b3d1d" x="60.98" y="226.89931" style="fill: #1a1a1a; stroke: #1a1a1a; stroke-width: 0.8"/>
      </g>
     </g>
    </g>
    <g id="xtick_2">
     <g id="line2d_3">
      <g>
       <use xlink:href="#m8dec1b3d1d" x="144.68" y="226.89931" style="fill: #1a1a1a; stroke: #1a1a1a; stroke-width: 0.8"/>
      </g>
     </g>
    </g>
    <g id="xtick_3">
     <g id="line2d_4">
      <g>
       <use xlink:href="#m8dec1b3d1d" x="228.38" y="226.89931" style="fill: #1a1a1a; stroke: #1a1a1a; stroke-width: 0.8"/>
      </g>
     </g>
    </g>
    <g id="xtick_4">
     <g id="line2d_5">
      <g>
       <use xlink:href="#m8dec1b3d1d" x="312.08" y="226.89931" style="fill: #1a1a1a; stroke: #1a1a1a; stroke-width: 0.8"/>
      </g>
     </g>
    </g>
    <g id="xtick_5">
     <g id="line2d_6">
      <g>
       <use xlink:href="#m8dec1b3d1d" x="395.78" y="226.89931" style="fill: #1a1a1a; stroke: #1a1a1a; stroke-width: 0.8"/>
      </g>
     </g>
    </g>
    <g id="xtick_6">
     <g id="line2d_7">
      <defs>
       <path id="m131efc0c90" d="M 0 0 
L 0 -3 
" style="stroke: #1a1a1a; stroke-width: 0.6"/>
      </defs>
      <g>
       <use xlink:href="#m131efc0c90" x="81.905" y="226.89931" style="fill: #1a1a1a; stroke: #1a1a1a; stroke-width: 0.6"/>
      </g>
     </g>
    </g>
    <g id="xtick_7">
     <g id="line2d_8">
      <g>
       <use xlink:href="#m131efc0c90" x="102.83" y="226.89931" style="fill: #1a1a1a; stroke: #1a1a1a; stroke-width: 0.6"/>
      </g>
     </g>
    </g>
    <g id="xtick_8">
     <g id="line2d_9">
      <g>
       <use xlink:href="#m131efc0c90" x="123.755" y="226.89931" style="fill: #1a1a1a; stroke: #1a1a1a; stroke-width: 0.6"/>
      </g>
     </g>
    </g>
    <g id="xtick_9">
     <g id="line2d_10">
      <g>
       <use xlink:href="#m131efc0c90" x="165.605" y="226.89931" style="fill: #1a1a1a; stroke: #1a1a1a; stroke-width: 0.6"/>
      </g>
     </g>
    </g>
    <g id="xtick_10">
     <g id="line2d_11">
      <g>
       <use xlink:href="#m131efc0c90" x="186.53" y="226.89931" style="fill: #1a1a1a; stroke: #1a1a1a; stroke-width: 0.6"/>
      </g>
     </g>
    </g>
    <g id="xtick_11">
     <g id="line2d_12">
      <g>
       <use xlink:href="#m131efc0c90" x="207.455" y="226.89931" style="fill: #1a1a1a; stroke: #1a1a1a; stroke-width: 0.6"/>
      </g>
     </g>
    </g>
    <g id="xtick_12">
     <g id="line2d_13">
      <g>
       <use xlink:href="#m131efc0c90" x="249.305" y="226.89931" style="fill: #1a1a1a; stroke: #1a1a1a; stroke-width: 0.6"/>
      </g>
     </g>
    </g>
    <g id="xtick_13">
     <g id="line2d_14">
      <g>
       <use xlink:href="#m131efc0c90" x="270.23" y="226.89931" style="fill: #1a1a1a; stroke: #1a1a1a; stroke-width: 0.6"/>
      </g>
     </g>
    </g>
    <g id="xtick_14">
     <g id="line2d_15">
      <g>
       <use xlink:href="#m131efc0c90" x="291.155" y="226.89931" style="fill: #1a1a1a; stroke: #1a1a1a; stroke-width: 0.6"/>
      </g>
     </g>
    </g>
    <g id="xtick_15">
     <g id="line2d_16">
      <g>
       <use xlink:href="#m131efc0c90" x="333.005" y="226.89931" style="fill: #1a1a1a; stroke: #1a1a1a; stroke-width: 0.6"/>
      </g>
     </g>
    </g>
    <g id="xtick_16">
     <g id="line2d_17">
      <g>
       <use xlink:href="#m131efc0c90" x="353.93" y="226.89931" style="fill: #1a1a1a; stroke: #1a1a1a; stroke-width: 0.6"/>
      </g>
     </g>
    </g>
    <g id="xtick_17">
     <g id="line2d_18">
      <g>
       <use xlink:href="#m131efc0c90" x="374.855" y="226.89931" style="fill: #1a1a1a; stroke: #1a1a1a; stroke-width: 0.6"/>
      </g>
     </g>
    </g>
   </g>
   <g id="matplotlib.axis_2">
    <g id="ytick_1">
     <g id="line2d_19">
      <defs>
       <path id="mc947610920" d="M 0 0 
L 6 0 
" style="stroke: #1a1a1a; stroke-width: 0.8"/>
      </defs>
      <g>
       <use xlink:href="#mc947610920" x="60.98" y="226.89931" style="fill: #1a1a1a; stroke: #1a1a1a; stroke-width: 0.8"/>
      </g>
     </g>
     <g id="text_1">
      <!-- $\mathdefault{0.0}$ -->
      <g style="fill: #1a1a1a" transform="translate(36.78 232.104778) scale(0.15 -0.15)">
       <defs>
        <path id="LatinModernMath-Regular-30" d="M 2944 2048 
C 2944 2560 2912 3072 2688 3546 
C 2394 4160 1869 4262 1600 4262 
C 1216 4262 749 4096 486 3501 
C 282 3059 250 2560 250 2048 
C 250 1568 275 992 538 506 
C 813 -13 1280 -141 1594 -141 
C 1939 -141 2426 -6 2707 602 
C 2912 1043 2944 1542 2944 2048 
z
M 2413 2125 
C 2413 1645 2413 1210 2342 800 
C 2246 192 1882 0 1594 0 
C 1344 0 966 160 851 774 
C 781 1158 781 1747 781 2125 
C 781 2534 781 2957 832 3302 
C 954 4064 1434 4122 1594 4122 
C 1805 4122 2227 4006 2349 3373 
C 2413 3014 2413 2528 2413 2125 
z
" transform="scale(0.015625)"/>
        <path id="LatinModernMath-Regular-2e" d="M 1229 339 
C 1229 525 1075 678 890 678 
C 704 678 550 525 550 339 
C 550 154 704 0 890 0 
C 1075 0 1229 154 1229 339 
z
" transform="scale(0.015625)"/>
       </defs>
       <use xlink:href="#LatinModernMath-Regular-30" transform="translate(0 0.40625)"/>
       <use xlink:href="#LatinModernMath-Regular-2e" transform="translate(49.999985 0.40625)"/>
       <use xlink:href="#LatinModernMath-Regular-30" transform="translate(77.799973 0.40625)"/>
      </g>
     </g>
    </g>
    <g id="ytick_2">
     <g id="line2d_20">
      <g>
       <use xlink:href="#mc947610920" x="60.98" y="179.248485" style="fill: #1a1a1a; stroke: #1a1a1a; stroke-width: 0.8"/>
      </g>
     </g>
     <g id="text_2">
      <!-- $\mathdefault{0.5}$ -->
      <g style="fill: #1a1a1a" transform="translate(36.78 184.453954) scale(0.15 -0.15)">
       <defs>
        <path id="LatinModernMath-Regular-35" d="M 2874 1286 
C 2874 2048 2349 2688 1658 2688 
C 1350 2688 1075 2586 845 2362 
L 845 3610 
C 973 3571 1184 3526 1389 3526 
C 2176 3526 2624 4109 2624 4192 
C 2624 4230 2605 4262 2560 4262 
C 2560 4262 2541 4262 2509 4243 
C 2381 4186 2067 4058 1638 4058 
C 1382 4058 1088 4102 787 4237 
C 736 4256 710 4256 710 4256 
C 646 4256 646 4205 646 4102 
L 646 2208 
C 646 2093 646 2042 736 2042 
C 781 2042 794 2061 819 2099 
C 890 2202 1126 2547 1645 2547 
C 1978 2547 2138 2253 2189 2138 
C 2291 1901 2304 1651 2304 1331 
C 2304 1107 2304 723 2150 454 
C 1997 205 1760 38 1466 38 
C 998 38 634 378 525 755 
C 544 749 563 742 634 742 
C 845 742 954 902 954 1056 
C 954 1210 845 1370 634 1370 
C 544 1370 320 1325 320 1030 
C 320 480 762 -141 1478 -141 
C 2221 -141 2874 474 2874 1286 
z
" transform="scale(0.015625)"/>
       </defs>
       <use xlink:href="#LatinModernMath-Regular-30" transform="translate(0 0.40625)"/>
       <use xlink:href="#LatinModernMath-Regular-2e" transform="translate(49.999985 0.40625)"/>
       <use xlink:href="#LatinModernMath-Regular-35" transform="translate(77.799973 0.40625)"/>
      </g>
     </g>
    </g>
    <g id="ytick_3">
     <g id="line2d_21">
      <g>
       <use xlink:href="#mc947610920" x="60.98" y="131.59766" style="fill: #1a1a1a; stroke: #1a1a1a; stroke-width: 0.8"/>
      </g>
     </g>
     <g id="text_3">
      <!-- $\mathdefault{1.0}$ -->
      <g style="fill: #1a1a1a" transform="translate(36.78 136.803129) scale(0.15 -0.15)">
       <defs>
        <path id="LatinModernMath-Regular-31" d="M 2682 0 
L 2682 198 
L 2477 198 
C 1901 198 1882 269 1882 506 
L 1882 4096 
C 1882 4250 1882 4262 1734 4262 
C 1338 3853 774 3853 570 3853 
L 570 3654 
C 698 3654 1075 3654 1408 3821 
L 1408 506 
C 1408 275 1389 198 813 198 
L 608 198 
L 608 0 
C 832 19 1389 19 1645 19 
C 1901 19 2458 19 2682 0 
z
" transform="scale(0.015625)"/>
       </defs>
       <use xlink:href="#LatinModernMath-Regular-31" transform="translate(0 0.40625)"/>
       <use xlink:href="#LatinModernMath-Regular-2e" transform="translate(49.999985 0.40625)"/>
       <use xlink:href="#LatinModernMath-Regular-30" transform="translate(77.799973 0.40625)"/>
      </g>
     </g>
    </g>
    <g id="ytick_4">
     <g id="line2d_22">
      <g>
       <use xlink:href="#mc947610920" x="60.98" y="83.946836" style="fill: #1a1a1a; stroke: #1a1a1a; stroke-width: 0.8"/>
      </g>
     </g>
     <g id="text_4">
      <!-- $\mathdefault{1.5}$ -->
      <g style="fill: #1a1a1a" transform="translate(36.78 89.152304) scale(0.15 -0.15)">
       <use xlink:href="#LatinModernMath-Regular-31" transform="translate(0 0.40625)"/>
       <use xlink:href="#LatinModernMath-Regular-2e" transform="translate(49.999985 0.40625)"/>
       <use xlink:href="#LatinModernMath-Regular-35" transform="translate(77.799973 0.40625)"/>
      </g>
     </g>
    </g>
    <g id="ytick_5">
     <g id="line2d_23">
      <g>
       <use xlink:href="#mc947610920" x="60.98" y="36.296011" style="fill: #1a1a1a; stroke: #1a1a1a; stroke-width: 0.8"/>
      </g>
     </g>
     <g id="text_5">
      <!-- $\mathdefault{2.0}$ -->
      <g style="fill: #1a1a1a" transform="translate(36.78 41.50148) scale(0.15 -0.15)">
       <defs>
        <path id="LatinModernMath-Regular-32" d="M 2874 1114 
L 2714 1114 
C 2682 922 2637 640 2573 544 
C 2528 493 2106 493 1965 493 
L 813 493 
L 1491 1152 
C 2490 2035 2874 2381 2874 3021 
C 2874 3750 2298 4262 1517 4262 
C 794 4262 320 3674 320 3104 
C 320 2746 640 2746 659 2746 
C 768 2746 992 2822 992 3085 
C 992 3251 877 3418 653 3418 
C 602 3418 589 3418 570 3411 
C 717 3827 1062 4064 1434 4064 
C 2016 4064 2291 3546 2291 3021 
C 2291 2509 1971 2003 1619 1606 
L 390 237 
C 320 166 320 154 320 0 
L 2694 0 
L 2874 1114 
z
" transform="scale(0.015625)"/>
       </defs>
       <use xlink:href="#LatinModernMath-Regular-32" transform="translate(0 0.40625)"/>
       <use xlink:href="#LatinModernMath-Regular-2e" transform="translate(49.999985 0.40625)"/>
       <use xlink:href="#LatinModernMath-Regular-30" transform="translate(77.799973 0.40625)"/>
      </g>
     </g>
    </g>
    <g id="ytick_6">
     <g id="line2d_24">
      <defs>
       <path id="m5f9d1e6504" d="M 0 0 
L 3 0 
" style="stroke: #1a1a1a; stroke-width: 0.6"/>
      </defs>
      <g>
       <use xlink:href="#m5f9d1e6504" x="60.98" y="217.369145" style="fill: #1a1a1a; stroke: #1a1a1a; stroke-width: 0.6"/>
      </g>
     </g>
    </g>
    <g id="ytick_7">
     <g id="line2d_25">
      <g>
       <use xlink:href="#m5f9d1e6504" x="60.98" y="207.83898" style="fill: #1a1a1a; stroke: #1a1a1a; stroke-width: 0.6"/>
      </g>
     </g>
    </g>
    <g id="ytick_8">
     <g id="line2d_26">
      <g>
       <use xlink:href="#m5f9d1e6504" x="60.98" y="198.308815" style="fill: #1a1a1a; stroke: #1a1a1a; stroke-width: 0.6"/>
      </g>
     </g>
    </g>
    <g id="ytick_9">
     <g id="line2d_27">
      <g>
       <use xlink:href="#m5f9d1e6504" x="60.98" y="188.77865" style="fill: #1a1a1a; stroke: #1a1a1a; stroke-width: 0.6"/>
      </g>
     </g>
    </g>
    <g id="ytick_10">
     <g id="line2d_28">
      <g>
       <use xlink:href="#m5f9d1e6504" x="60.98" y="169.71832" style="fill: #1a1a1a; stroke: #1a1a1a; stroke-width: 0.6"/>
      </g>
     </g>
    </g>
    <g id="ytick_11">
     <g id="line2d_29">
      <g>
       <use xlink:href="#m5f9d1e6504" x="60.98" y="160.188155" style="fill: #1a1a1a; stroke: #1a1a1a; stroke-width: 0.6"/>
      </g>
     </g>
    </g>
    <g id="ytick_12">
     <g id="line2d_30">
      <g>
       <use xlink:href="#m5f9d1e6504" x="60.98" y="150.65799" style="fill: #1a1a1a; stroke: #1a1a1a; stroke-width: 0.6"/>
      </g>
     </g>
    </g>
    <g id="ytick_13">
     <g id="line2d_31">
      <g>
       <use xlink:href="#m5f9d1e6504" x="60.98" y="141.127825" style="fill: #1a1a1a; stroke: #1a1a1a; stroke-width: 0.6"/>
      </g>
     </g>
    </g>
    <g id="ytick_14">
     <g id="line2d_32">
      <g>
       <use xlink:href="#m5f9d1e6504" x="60.98" y="122.067495" style="fill: #1a1a1a; stroke: #1a1a1a; stroke-width: 0.6"/>
      </g>
     </g>
    </g>
    <g id="ytick_15">
     <g id="line2d_33">
      <g>
       <use xlink:href="#m5f9d1e6504" x="60.98" y="112.53733" style="fill: #1a1a1a; stroke: #1a1a1a; stroke-width: 0.6"/>
      </g>
     </g>
    </g>
    <g id="ytick_16">
     <g id="line2d_34">
      <g>
       <use xlink:href="#m5f9d1e6504" x="60.98" y="103.007165" style="fill: #1a1a1a; stroke: #1a1a1a; stroke-width: 0.6"/>
      </g>
     </g>
    </g>
    <g id="ytick_17">
     <g id="line2d_35">
      <g>
       <use xlink:href="#m5f9d1e6504" x="60.98" y="93.477001" style="fill: #1a1a1a; stroke: #1a1a1a; stroke-width: 0.6"/>
      </g>
     </g>
    </g>
    <g id="ytick_18">
     <g id="line2d_36">
      <g>
       <use xlink:href="#m5f9d1e6504" x="60.98" y="74.416671" style="fill: #1a1a1a; stroke: #1a1a1a; stroke-width: 0.6"/>
      </g>
     </g>
    </g>
    <g id="ytick_19">
     <g id="line2d_37">
      <g>
       <use xlink:href="#m5f9d1e6504" x="60.98" y="64.886506" style="fill: #1a1a1a; stroke: #1a1a1a; stroke-width: 0.6"/>
      </g>
     </g>
    </g>
    <g id="ytick_20">
     <g id="line2d_38">
      <g>
       <use xlink:href="#m5f9d1e6504" x="60.98" y="55.356341" style="fill: #1a1a1a; stroke: #1a1a1a; stroke-width: 0.6"/>
      </g>
     </g>
    </g>
    <g id="ytick_21">
     <g id="line2d_39">
      <g>
       <use xlink:href="#m5f9d1e6504" x="60.98" y="45.826176" style="fill: #1a1a1a; stroke: #1a1a1a; stroke-width: 0.6"/>
      </g>
     </g>
    </g>
    <g id="ytick_22">
     <g id="line2d_40">
      <g>
       <use xlink:href="#m5f9d1e6504" x="60.98" y="26.765846" style="fill: #1a1a1a; stroke: #1a1a1a; stroke-width: 0.6"/>
      </g>
     </g>
    </g>
    <g id="text_6">
     <!-- Entries -->
     <g style="fill: #1a1a1a" transform="translate(27.286875 151.961686) rotate(-90) scale(0.18 -0.18)">
      <defs>
       <path id="LatinModernMath-Regular-45" d="M 4173 1651 
L 4013 1651 
C 3853 666 3706 198 2605 198 
L 1754 198 
C 1453 198 1440 243 1440 454 
L 1440 2163 
L 2016 2163 
C 2637 2163 2707 1958 2707 1414 
L 2867 1414 
L 2867 3110 
L 2707 3110 
C 2707 2560 2637 2362 2016 2362 
L 1440 2362 
L 1440 3898 
C 1440 4109 1453 4154 1754 4154 
L 2579 4154 
C 3558 4154 3731 3802 3834 2912 
L 3994 2912 
L 3814 4352 
L 211 4352 
L 211 4154 
L 365 4154 
C 858 4154 870 4083 870 3853 
L 870 499 
C 870 269 858 198 365 198 
L 211 198 
L 211 0 
L 3904 0 
L 4173 1651 
z
" transform="scale(0.015625)"/>
       <path id="LatinModernMath-Regular-6e" d="M 3424 0 
L 3424 198 
C 3091 198 2931 198 2925 390 
L 2925 1613 
C 2925 2163 2925 2362 2726 2592 
C 2637 2701 2426 2829 2054 2829 
C 1587 2829 1286 2554 1107 2157 
L 1107 2829 
L 205 2758 
L 205 2560 
C 653 2560 704 2515 704 2202 
L 704 486 
C 704 198 634 198 205 198 
L 205 0 
L 928 19 
L 1645 0 
L 1645 198 
C 1216 198 1146 198 1146 486 
L 1146 1664 
C 1146 2330 1600 2688 2010 2688 
C 2413 2688 2483 2342 2483 1978 
L 2483 486 
C 2483 198 2413 198 1984 198 
L 1984 0 
L 2707 19 
L 3424 0 
z
" transform="scale(0.015625)"/>
       <path id="LatinModernMath-Regular-74" d="M 2125 794 
L 2125 1158 
L 1965 1158 
L 1965 806 
C 1965 333 1773 90 1536 90 
C 1107 90 1107 672 1107 781 
L 1107 2560 
L 2022 2560 
L 2022 2758 
L 1107 2758 
L 1107 3936 
L 947 3936 
C 941 3411 749 2726 122 2701 
L 122 2560 
L 666 2560 
L 666 794 
C 666 6 1261 -70 1491 -70 
C 1946 -70 2125 384 2125 794 
z
" transform="scale(0.015625)"/>
       <path id="LatinModernMath-Regular-72" d="M 2330 2438 
C 2330 2643 2131 2829 1856 2829 
C 1389 2829 1158 2400 1069 2125 
L 1069 2829 
L 179 2758 
L 179 2560 
C 627 2560 678 2515 678 2202 
L 678 486 
C 678 198 608 198 179 198 
L 179 0 
L 909 19 
C 1165 19 1466 19 1722 0 
L 1722 198 
L 1587 198 
C 1114 198 1101 269 1101 499 
L 1101 1485 
C 1101 2118 1370 2688 1856 2688 
C 1901 2688 1914 2688 1926 2682 
C 1907 2675 1779 2598 1779 2432 
C 1779 2253 1914 2157 2054 2157 
C 2170 2157 2330 2234 2330 2438 
z
" transform="scale(0.015625)"/>
       <path id="LatinModernMath-Regular-69" d="M 1581 0 
L 1581 198 
C 1158 198 1133 230 1133 480 
L 1133 2829 
L 237 2758 
L 237 2560 
C 653 2560 710 2522 710 2208 
L 710 486 
C 710 198 640 198 211 198 
L 211 0 
L 915 19 
C 1139 19 1363 6 1581 0 
z
M 1229 3866 
C 1229 4038 1082 4205 890 4205 
C 672 4205 544 4026 544 3866 
C 544 3693 691 3526 883 3526 
C 1101 3526 1229 3706 1229 3866 
z
" transform="scale(0.015625)"/>
       <path id="LatinModernMath-Regular-65" d="M 2656 762 
C 2656 826 2605 838 2573 838 
C 2515 838 2502 800 2490 749 
C 2266 90 1690 90 1626 90 
C 1306 90 1050 282 902 518 
C 710 826 710 1248 710 1478 
L 2496 1478 
C 2637 1478 2656 1478 2656 1613 
C 2656 2246 2310 2867 1510 2867 
C 768 2867 179 2208 179 1408 
C 179 550 851 -70 1587 -70 
C 2368 -70 2656 640 2656 762 
z
M 2234 1613 
L 717 1613 
C 755 2566 1293 2726 1510 2726 
C 2170 2726 2234 1862 2234 1613 
z
" transform="scale(0.015625)"/>
       <path id="LatinModernMath-Regular-73" d="M 2304 819 
C 2304 1158 2112 1350 2035 1427 
C 1824 1632 1574 1683 1306 1734 
C 947 1805 518 1888 518 2259 
C 518 2483 685 2746 1235 2746 
C 1939 2746 1971 2170 1984 1971 
C 1990 1914 2061 1914 2061 1914 
C 2144 1914 2144 1946 2144 2067 
L 2144 2714 
C 2144 2822 2144 2867 2074 2867 
C 2042 2867 2029 2867 1946 2790 
C 1926 2765 1862 2707 1837 2688 
C 1594 2867 1331 2867 1235 2867 
C 454 2867 211 2438 211 2080 
C 211 1856 314 1677 486 1536 
C 691 1370 870 1331 1331 1242 
C 1472 1216 1997 1114 1997 653 
C 1997 326 1773 70 1274 70 
C 736 70 506 435 384 979 
C 365 1062 358 1088 294 1088 
C 211 1088 211 1043 211 928 
L 211 83 
C 211 -26 211 -70 282 -70 
C 314 -70 320 -64 442 58 
C 454 70 454 83 570 205 
C 851 -64 1139 -70 1274 -70 
C 2010 -70 2304 358 2304 819 
z
" transform="scale(0.015625)"/>
      </defs>
      <use xlink:href="#LatinModernMath-Regular-45"/>
      <use xlink:href="#LatinModernMath-Regular-6e" x="68.099991"/>
      <use xlink:href="#LatinModernMath-Regular-74" x="123.699982"/>
      <use xlink:href="#LatinModernMath-Regular-72" x="162.599976"/>
      <use xlink:href="#LatinModernMath-Regular-69" x="201.799973"/>
      <use xlink:href="#LatinModernMath-Regular-65" x="229.59996"/>
      <use xlink:href="#LatinModernMath-Regular-73" x="273.999954"/>
     </g>
    </g>
    <g id="text_7">
     <!-- $\times\mathdefault{10^{4}}\mathdefault{}$ -->
     <g style="fill: #1a1a1a" transform="translate(60.98 17.610937) scale(0.15 -0.15)">
      <defs>
       <path id="LatinModernMath-Regular-d7" d="M 3994 96 
C 4045 141 4045 224 3994 275 
L 2669 1600 
L 3994 2925 
C 4045 2976 4045 3059 3994 3104 
C 3949 3155 3866 3155 3814 3104 
L 2490 1779 
L 1165 3104 
C 1114 3155 1030 3155 986 3104 
C 934 3059 934 2976 986 2925 
L 2310 1600 
L 986 275 
C 934 224 934 141 986 96 
C 1030 45 1114 45 1165 96 
L 2490 1421 
L 3814 96 
C 3866 45 3949 45 3994 96 
z
" transform="scale(0.015625)"/>
       <path id="LatinModernMath-Regular-34" d="M 3014 1056 
L 3014 1254 
L 2374 1254 
L 2374 4166 
C 2374 4294 2374 4333 2272 4333 
C 2214 4333 2195 4333 2144 4256 
L 179 1254 
L 179 1056 
L 1882 1056 
L 1882 499 
C 1882 269 1869 198 1395 198 
L 1261 198 
L 1261 0 
C 1523 19 1856 19 2125 19 
C 2394 19 2733 19 2995 0 
L 2995 198 
L 2861 198 
C 2387 198 2374 269 2374 499 
L 2374 1056 
L 3014 1056 
z
M 1920 1254 
L 358 1254 
L 1920 3642 
L 1920 1254 
z
" transform="scale(0.015625)"/>
      </defs>
      <use xlink:href="#LatinModernMath-Regular-d7" transform="translate(0 0.442188)"/>
      <use xlink:href="#LatinModernMath-Regular-31" transform="translate(77.799988 0.442188)"/>
      <use xlink:href="#LatinModernMath-Regular-30" transform="translate(127.799973 0.442188)"/>
      <use xlink:href="#LatinModernMath-Regular-34" transform="translate(178.554098 30.607813) scale(0.7)"/>
     </g>
    </g>
   </g>
   <g id="legend_1">
    <g id="patch_23">
     <path d="M 69.98 36.660937 
L 89.98 36.660937 
L 89.98 29.660937 
L 69.98 29.660937 
z
" style="fill: #b1dcc2; stroke: #000000; stroke-width: 0.5; stroke-linejoin: miter"/>
    </g>
    <g id="text_8">
     <!-- c6 -->
     <g style="fill: #1a1a1a" transform="translate(97.98 36.660937) scale(0.1 -0.1)">
      <defs>
       <path id="LatinModernMath-Regular-63" d="M 2656 762 
C 2656 826 2592 826 2573 826 
C 2515 826 2502 800 2490 762 
C 2304 166 1888 90 1651 90 
C 1312 90 749 365 749 1395 
C 749 2438 1274 2707 1613 2707 
C 1670 2707 2074 2701 2298 2470 
C 2035 2451 1997 2259 1997 2176 
C 1997 2010 2112 1882 2291 1882 
C 2458 1882 2586 1990 2586 2182 
C 2586 2618 2099 2867 1606 2867 
C 806 2867 218 2176 218 1382 
C 218 563 851 -70 1594 -70 
C 2451 -70 2656 698 2656 762 
z
" transform="scale(0.015625)"/>
       <path id="LatinModernMath-Regular-36" d="M 2925 1306 
C 2925 2118 2355 2733 1645 2733 
C 1210 2733 973 2406 845 2099 
L 845 2253 
C 845 3872 1638 4102 1965 4102 
C 2118 4102 2387 4064 2528 3846 
C 2432 3846 2176 3846 2176 3558 
C 2176 3360 2330 3264 2470 3264 
C 2573 3264 2765 3322 2765 3571 
C 2765 3955 2483 4262 1952 4262 
C 1133 4262 269 3437 269 2022 
C 269 314 1011 -141 1606 -141 
C 2317 -141 2925 461 2925 1306 
z
M 2349 1312 
C 2349 1005 2349 685 2240 454 
C 2048 70 1754 38 1606 38 
C 1203 38 1011 422 973 518 
C 858 819 858 1331 858 1446 
C 858 1946 1062 2586 1638 2586 
C 1741 2586 2035 2586 2234 2189 
C 2349 1952 2349 1626 2349 1312 
z
" transform="scale(0.015625)"/>
      </defs>
      <use xlink:href="#LatinModernMath-Regular-63"/>
      <use xlink:href="#LatinModernMath-Regular-36" x="44.399994"/>
     </g>
    </g>
    <g id="patch_24">
     <path d="M 69.98 50.601562 
L 89.98 50.601562 
L 89.98 43.601562 
L 69.98 43.601562 
z
" style="fill: #a9c593; stroke: #000000; stroke-width: 0.5; stroke-linejoin: miter"/>
    </g>
    <g id="text_9">
     <!-- c5 -->
     <g style="fill: #1a1a1a" transform="translate(97.98 50.601562) scale(0.1 -0.1)">
      <use xlink:href="#LatinModernMath-Regular-63"/>
      <use xlink:href="#LatinModernMath-Regular-35" x="44.399994"/>
     </g>
    </g>
    <g id="patch_25">
     <path d="M 69.98 64.542187 
L 89.98 64.542187 
L 89.98 57.542187 
L 69.98 57.542187 
z
" style="fill: #b2a275; stroke: #000000; stroke-width: 0.5; stroke-linejoin: miter"/>
    </g>
    <g id="text_10">
     <!-- c4 -->
     <g style="fill: #1a1a1a" transform="translate(97.98 64.542187) scale(0.1 -0.1)">
      <use xlink:href="#LatinModernMath-Regular-63"/>
      <use xlink:href="#LatinModernMath-Regular-34" x="44.399994"/>
     </g>
    </g>
    <g id="patch_26">
     <path d="M 69.98 78.482812 
L 89.98 78.482812 
L 89.98 71.482812 
L 69.98 71.482812 
z
" style="fill: #b67b76; stroke: #000000; stroke-width: 0.5; stroke-linejoin: miter"/>
    </g>
    <g id="text_11">
     <!-- c3 -->
     <g style="fill: #1a1a1a" transform="translate(97.98 78.482812) scale(0.1 -0.1)">
      <defs>
       <path id="LatinModernMath-Regular-33" d="M 2925 1094 
C 2925 1619 2522 2118 1856 2253 
C 2381 2426 2752 2874 2752 3379 
C 2752 3904 2189 4262 1574 4262 
C 928 4262 442 3878 442 3392 
C 442 3181 582 3059 768 3059 
C 966 3059 1094 3200 1094 3386 
C 1094 3706 794 3706 698 3706 
C 896 4019 1318 4102 1549 4102 
C 1811 4102 2163 3962 2163 3386 
C 2163 3309 2150 2938 1984 2656 
C 1792 2349 1574 2330 1414 2323 
C 1363 2317 1210 2304 1165 2304 
C 1114 2298 1069 2291 1069 2227 
C 1069 2157 1114 2157 1222 2157 
L 1504 2157 
C 2029 2157 2266 1722 2266 1094 
C 2266 224 1824 38 1542 38 
C 1267 38 787 147 563 525 
C 787 493 986 634 986 877 
C 986 1107 813 1235 627 1235 
C 474 1235 269 1146 269 864 
C 269 282 864 -141 1562 -141 
C 2342 -141 2925 442 2925 1094 
z
" transform="scale(0.015625)"/>
      </defs>
      <use xlink:href="#LatinModernMath-Regular-63"/>
      <use xlink:href="#LatinModernMath-Regular-33" x="44.399994"/>
     </g>
    </g>
    <g id="patch_27">
     <path d="M 127.420625 36.660937 
L 147.420625 36.660937 
L 147.420625 29.660937 
L 127.420625 29.660937 
z
" style="fill: #a15f86; stroke: #000000; stroke-width: 0.5; stroke-linejoin: miter"/>
    </g>
    <g id="text_12">
     <!-- c2 -->
     <g style="fill: #1a1a1a" transform="translate(155.420625 36.660937) scale(0.1 -0.1)">
      <use xlink:href="#LatinModernMath-Regular-63"/>
      <use xlink:href="#LatinModernMath-Regular-32" x="44.399994"/>
     </g>
    </g>
    <g id="patch_28">
     <path d="M 127.420625 50.601562 
L 147.420625 50.601562 
L 147.420625 43.601562 
L 127.420625 43.601562 
z
" style="fill: #73528c; stroke: #000000; stroke-width: 0.5; stroke-linejoin: miter"/>
    </g>
    <g id="text_13">
     <!-- c1 -->
     <g style="fill: #1a1a1a" transform="translate(155.420625 50.601562) scale(0.1 -0.1)">
      <use xlink:href="#LatinModernMath-Regular-63"/>
      <use xlink:href="#LatinModernMath-Regular-31" x="44.399994"/>
     </g>
    </g>
    <g id="patch_29">
     <path d="M 127.420625 64.542187 
L 147.420625 64.542187 
L 147.420625 57.542187 
L 127.420625 57.542187 
z
" style="fill: #3d4c74; stroke: #000000; stroke-width: 0.5; stroke-linejoin: miter"/>
    </g>
    <g id="text_14">
     <!-- c0 -->
     <g style="fill: #1a1a1a" transform="translate(155.420625 64.542187) scale(0.1 -0.1)">
      <use xlink:href="#LatinModernMath-Regular-63"/>
      <use xlink:href="#LatinModernMath-Regular-30" x="44.399994"/>
     </g>
    </g>
    <g id="line2d_41">
     <path d="M 184.86125 33.160937 
L 204.86125 33.160937 
" style="fill: none; stroke: #ff0000; stroke-linecap: round"/>
    </g>
    <g id="text_15">
     <!-- Signal -->
     <g style="fill: #1a1a1a" transform="translate(212.86125 36.660937) scale(0.1 -0.1)">
      <defs>
       <path id="LatinModernMath-Regular-53" d="M 3194 1190 
C 3194 1830 2771 2355 2234 2483 
L 1414 2682 
C 1018 2778 768 3123 768 3494 
C 768 3942 1114 4333 1613 4333 
C 2682 4333 2822 3283 2861 2995 
C 2867 2957 2867 2918 2938 2918 
C 3021 2918 3021 2950 3021 3072 
L 3021 4358 
C 3021 4467 3021 4512 2950 4512 
C 2906 4512 2899 4506 2854 4429 
L 2630 4064 
C 2438 4250 2176 4512 1606 4512 
C 896 4512 358 3949 358 3270 
C 358 2739 698 2272 1197 2099 
C 1267 2074 1594 1997 2042 1888 
C 2214 1843 2406 1798 2586 1562 
C 2720 1395 2784 1184 2784 973 
C 2784 518 2464 58 1926 58 
C 1741 58 1254 90 915 403 
C 544 749 525 1158 518 1389 
C 512 1453 461 1453 442 1453 
C 358 1453 358 1408 358 1293 
L 358 13 
C 358 -96 358 -141 429 -141 
C 474 -141 480 -128 525 -58 
C 525 -58 544 -32 755 307 
C 954 90 1363 -141 1933 -141 
C 2682 -141 3194 486 3194 1190 
z
" transform="scale(0.015625)"/>
       <path id="LatinModernMath-Regular-67" d="M 3104 2586 
C 3104 2694 3027 2899 2778 2899 
C 2650 2899 2368 2861 2099 2598 
C 1830 2810 1562 2829 1421 2829 
C 826 2829 384 2387 384 1894 
C 384 1613 525 1370 685 1235 
C 602 1139 486 928 486 704 
C 486 506 570 262 768 134 
C 384 26 179 -250 179 -506 
C 179 -966 813 -1318 1594 -1318 
C 2349 -1318 3014 -992 3014 -493 
C 3014 -269 2925 58 2598 237 
C 2259 416 1888 416 1498 416 
C 1338 416 1062 416 1018 422 
C 813 448 678 646 678 851 
C 678 877 678 1024 787 1152 
C 1037 973 1299 954 1421 954 
C 2016 954 2458 1395 2458 1888 
C 2458 2125 2355 2362 2195 2509 
C 2426 2726 2656 2758 2771 2758 
C 2771 2758 2816 2758 2835 2752 
C 2765 2726 2733 2656 2733 2579 
C 2733 2470 2816 2394 2918 2394 
C 2982 2394 3104 2438 3104 2586 
z
M 1978 1894 
C 1978 1722 1971 1517 1875 1357 
C 1824 1280 1677 1101 1421 1101 
C 864 1101 864 1741 864 1888 
C 864 2061 870 2266 966 2426 
C 1018 2502 1165 2682 1421 2682 
C 1978 2682 1978 2042 1978 1894 
z
M 2682 -506 
C 2682 -851 2227 -1171 1600 -1171 
C 954 -1171 512 -845 512 -506 
C 512 -211 755 26 1037 45 
L 1414 45 
C 1965 45 2682 45 2682 -506 
z
" transform="scale(0.015625)"/>
       <path id="LatinModernMath-Regular-61" d="M 3091 570 
L 3091 928 
L 2931 928 
L 2931 570 
C 2931 198 2771 160 2701 160 
C 2490 160 2464 448 2464 480 
L 2464 1760 
C 2464 2029 2464 2278 2234 2515 
C 1984 2765 1664 2867 1357 2867 
C 832 2867 390 2566 390 2144 
C 390 1952 518 1843 685 1843 
C 864 1843 979 1971 979 2138 
C 979 2214 947 2426 653 2432 
C 826 2656 1139 2726 1344 2726 
C 1658 2726 2022 2477 2022 1907 
L 2022 1670 
C 1696 1651 1248 1632 845 1440 
C 365 1222 205 890 205 608 
C 205 90 826 -70 1229 -70 
C 1651 -70 1946 186 2067 486 
C 2093 230 2266 -38 2566 -38 
C 2701 -38 3091 51 3091 570 
z
M 2022 896 
C 2022 288 1562 70 1274 70 
C 960 70 698 294 698 614 
C 698 966 966 1498 2022 1536 
L 2022 896 
z
" transform="scale(0.015625)"/>
       <path id="LatinModernMath-Regular-6c" d="M 1632 0 
L 1632 198 
C 1203 198 1133 198 1133 486 
L 1133 4442 
L 211 4371 
L 211 4173 
C 659 4173 710 4128 710 3814 
L 710 486 
C 710 198 640 198 211 198 
L 211 0 
L 922 19 
L 1632 0 
z
" transform="scale(0.015625)"/>
      </defs>
      <use xlink:href="#LatinModernMath-Regular-53"/>
      <use xlink:href="#LatinModernMath-Regular-69" x="55.599991"/>
      <use xlink:href="#LatinModernMath-Regular-67" x="83.399979"/>
      <use xlink:href="#LatinModernMath-Regular-6e" x="133.399963"/>
      <use xlink:href="#LatinModernMath-Regular-61" x="188.999954"/>
      <use xlink:href="#LatinModernMath-Regular-6c" x="238.999939"/>
     </g>
    </g>
    <g id="patch_30">
     <path d="M 184.86125 50.720312 
L 204.86125 50.720312 
L 204.86125 43.720312 
L 184.86125 43.720312 
z
" style="fill: url(#h63c8cd6f62)"/>
    </g>
    <g id="text_16">
     <!-- Model stat. unc. -->
     <g style="fill: #1a1a1a" transform="translate(212.86125 50.720312) scale(0.1 -0.1)">
      <defs>
       <path id="LatinModernMath-Regular-4d" d="M 5626 0 
L 5626 198 
L 5472 198 
C 4979 198 4966 269 4966 499 
L 4966 3872 
C 4966 4102 4979 4173 5472 4173 
L 5626 4173 
L 5626 4371 
L 4544 4371 
C 4378 4371 4378 4365 4333 4250 
L 2931 646 
L 1542 4230 
C 1485 4371 1466 4371 1318 4371 
L 237 4371 
L 237 4173 
L 390 4173 
C 883 4173 896 4102 896 3872 
L 896 672 
C 896 499 896 198 237 198 
L 237 0 
L 986 19 
L 1734 0 
L 1734 198 
C 1075 198 1075 499 1075 672 
L 1075 4122 
L 1082 4122 
L 2624 141 
C 2656 58 2688 0 2752 0 
C 2822 0 2842 51 2867 122 
L 4442 4173 
L 4448 4173 
L 4448 499 
C 4448 269 4435 198 3942 198 
L 3789 198 
L 3789 0 
C 4026 19 4461 19 4710 19 
C 4960 19 5389 19 5626 0 
z
" transform="scale(0.015625)"/>
       <path id="LatinModernMath-Regular-6f" d="M 3014 1370 
C 3014 2189 2374 2867 1600 2867 
C 800 2867 179 2170 179 1370 
C 179 544 845 -70 1594 -70 
C 2368 -70 3014 557 3014 1370 
z
M 2483 1421 
C 2483 1190 2483 845 2342 563 
C 2202 275 1920 90 1600 90 
C 1325 90 1043 224 870 518 
C 710 800 710 1190 710 1421 
C 710 1670 710 2016 864 2298 
C 1037 2592 1338 2726 1594 2726 
C 1875 2726 2150 2586 2317 2310 
C 2483 2035 2483 1664 2483 1421 
z
" transform="scale(0.015625)"/>
       <path id="LatinModernMath-Regular-64" d="M 3373 0 
L 3373 198 
C 2925 198 2874 243 2874 557 
L 2874 4442 
L 1952 4371 
L 1952 4173 
C 2400 4173 2451 4128 2451 3814 
L 2451 2432 
C 2266 2662 1990 2829 1645 2829 
C 890 2829 218 2202 218 1376 
C 218 563 845 -70 1574 -70 
C 1984 -70 2272 147 2432 352 
L 2432 -70 
L 3373 0 
z
M 2432 755 
C 2432 640 2432 627 2362 518 
C 2170 211 1882 70 1606 70 
C 1318 70 1088 237 934 480 
C 768 742 749 1107 749 1370 
C 749 1606 762 1990 947 2278 
C 1082 2477 1325 2688 1670 2688 
C 1894 2688 2163 2592 2362 2304 
C 2432 2195 2432 2182 2432 2067 
L 2432 755 
z
" transform="scale(0.015625)"/>
       <path id="LatinModernMath-Regular-20" transform="scale(0.015625)"/>
       <path id="LatinModernMath-Regular-75" d="M 3424 0 
L 3424 198 
C 2976 198 2925 243 2925 557 
L 2925 2829 
L 1984 2758 
L 1984 2560 
C 2432 2560 2483 2515 2483 2202 
L 2483 1062 
C 2483 506 2176 70 1709 70 
C 1171 70 1146 371 1146 704 
L 1146 2829 
L 205 2758 
L 205 2560 
C 704 2560 704 2541 704 1971 
L 704 1011 
C 704 512 704 -70 1677 -70 
C 2035 -70 2317 109 2502 506 
L 2502 -70 
L 3424 0 
z
" transform="scale(0.015625)"/>
      </defs>
      <use xlink:href="#LatinModernMath-Regular-4d"/>
      <use xlink:href="#LatinModernMath-Regular-6f" x="91.699982"/>
      <use xlink:href="#LatinModernMath-Regular-64" x="141.699966"/>
      <use xlink:href="#LatinModernMath-Regular-65" x="197.299957"/>
      <use xlink:href="#LatinModernMath-Regular-6c" x="241.699951"/>
      <use xlink:href="#LatinModernMath-Regular-20" x="269.499939"/>
      <use xlink:href="#LatinModernMath-Regular-73" x="302.699936"/>
      <use xlink:href="#LatinModernMath-Regular-74" x="342.09993"/>
      <use xlink:href="#LatinModernMath-Regular-61" x="380.999924"/>
      <use xlink:href="#LatinModernMath-Regular-74" x="430.999908"/>
      <use xlink:href="#LatinModernMath-Regular-2e" x="469.899902"/>
      <use xlink:href="#LatinModernMath-Regular-20" x="497.69989"/>
      <use xlink:href="#LatinModernMath-Regular-75" x="530.899887"/>
      <use xlink:href="#LatinModernMath-Regular-6e" x="586.499878"/>
      <use xlink:href="#LatinModernMath-Regular-63" x="642.099869"/>
      <use xlink:href="#LatinModernMath-Regular-2e" x="686.499863"/>
     </g>
    </g>
    <g id="LineCollection_2">
     <path d="M 194.86125 66.160937 
L 194.86125 56.160937 
" style="fill: none; stroke: #000000; stroke-width: 1.5"/>
    </g>
    <g id="line2d_42"/>
    <g id="line2d_43">
     <g>
      <use xlink:href="#meae5c0c399" x="194.86125" y="61.160937" style="stroke: #000000"/>
     </g>
    </g>
    <g id="text_17">
     <!-- Data -->
     <g style="fill: #1a1a1a" transform="translate(212.86125 64.660937) scale(0.1 -0.1)">
      <defs>
       <path id="LatinModernMath-Regular-44" d="M 4525 2150 
C 4525 3366 3661 4371 2566 4371 
L 224 4371 
L 224 4173 
L 378 4173 
C 870 4173 883 4102 883 3872 
L 883 499 
C 883 269 870 198 378 198 
L 224 198 
L 224 0 
L 2566 0 
C 3642 0 4525 947 4525 2150 
z
M 3885 2150 
C 3885 1440 3763 1056 3533 742 
C 3405 570 3040 198 2394 198 
L 1747 198 
C 1446 198 1434 243 1434 454 
L 1434 3917 
C 1434 4128 1446 4173 1747 4173 
L 2387 4173 
C 2784 4173 3226 4032 3552 3578 
C 3827 3200 3885 2650 3885 2150 
z
" transform="scale(0.015625)"/>
      </defs>
      <use xlink:href="#LatinModernMath-Regular-44"/>
      <use xlink:href="#LatinModernMath-Regular-61" x="76.399994"/>
      <use xlink:href="#LatinModernMath-Regular-74" x="126.399979"/>
      <use xlink:href="#LatinModernMath-Regular-61" x="165.299973"/>
     </g>
    </g>
   </g>
  </g>
  <g id="axes_2">
   <g id="patch_31">
    <path d="M 60.98 297.810937 
L 395.78 297.810937 
L 395.78 246.238844 
L 60.98 246.238844 
z
" style="fill: #ffffff"/>
   </g>
   <g id="patch_32">
    <path d="M 60.98 272.370027 
L 102.83 272.370027 
L 102.83 271.679755 
L 60.98 271.679755 
z
" clip-path="url(#pae2c404269)" style="fill: url(#h63c8cd6f62)"/>
   </g>
   <g id="patch_33">
    <path d="M 102.83 272.24809 
L 144.68 272.24809 
L 144.68 271.801692 
L 102.83 271.801692 
z
" clip-path="url(#pae2c404269)" style="fill: url(#h63c8cd6f62)"/>
   </g>
   <g id="patch_34">
    <path d="M 144.68 272.247143 
L 186.53 272.247143 
L 186.53 271.802639 
L 144.68 271.802639 
z
" clip-path="url(#pae2c404269)" style="fill: url(#h63c8cd6f62)"/>
   </g>
   <g id="patch_35">
    <path d="M 186.53 272.607041 
L 228.38 272.607041 
L 228.38 271.442741 
L 186.53 271.442741 
z
" clip-path="url(#pae2c404269)" style="fill: url(#h63c8cd6f62)"/>
   </g>
   <g id="patch_36">
    <path d="M 228.38 272.527991 
L 270.23 272.527991 
L 270.23 271.521791 
L 228.38 271.521791 
z
" clip-path="url(#pae2c404269)" style="fill: url(#h63c8cd6f62)"/>
   </g>
   <g id="patch_37">
    <path d="M 270.23 272.254904 
L 312.08 272.254904 
L 312.08 271.794878 
L 270.23 271.794878 
z
" clip-path="url(#pae2c404269)" style="fill: url(#h63c8cd6f62)"/>
   </g>
   <g id="patch_38">
    <path d="M 312.08 272.205112 
L 353.93 272.205112 
L 353.93 271.84467 
L 312.08 271.84467 
z
" clip-path="url(#pae2c404269)" style="fill: url(#h63c8cd6f62)"/>
   </g>
   <g id="patch_39">
    <path d="M 353.93 272.340981 
L 395.78 272.340981 
L 395.78 271.708801 
L 353.93 271.708801 
z
" clip-path="url(#pae2c404269)" style="fill: url(#h63c8cd6f62)"/>
   </g>
   <g id="LineCollection_3">
    <path d="M 81.905 297.337967 
L 81.905 297.235064 
" clip-path="url(#pae2c404269)" style="fill: none; stroke: #000000; stroke-width: 1.5"/>
    <path d="M 123.755 292.624194 
L 123.755 292.420109 
" clip-path="url(#pae2c404269)" style="fill: none; stroke: #000000; stroke-width: 1.5"/>
    <path d="M 165.605 288.784849 
L 165.605 288.51802 
" clip-path="url(#pae2c404269)" style="fill: none; stroke: #000000; stroke-width: 1.5"/>
    <path d="M 207.455 292.316543 
L 207.455 291.752554 
" clip-path="url(#pae2c404269)" style="fill: none; stroke: #000000; stroke-width: 1.5"/>
    <path d="M 249.305 297.543117 
L 249.305 297.420244 
" clip-path="url(#pae2c404269)" style="fill: none; stroke: #000000; stroke-width: 1.5"/>
    <path d="M 291.155 297.234923 
L 291.155 297.162015 
" clip-path="url(#pae2c404269)" style="fill: none; stroke: #000000; stroke-width: 1.5"/>
    <path d="M 333.005 296.284719 
L 333.005 296.194495 
" clip-path="url(#pae2c404269)" style="fill: none; stroke: #000000; stroke-width: 1.5"/>
    <path d="M 374.855 292.867677 
L 374.855 292.58309 
" clip-path="url(#pae2c404269)" style="fill: none; stroke: #000000; stroke-width: 1.5"/>
   </g>
   <g id="line2d_44">
    <path d="M 60.98 272.024891 
L 395.78 272.024891 
" clip-path="url(#pae2c404269)" style="fill: none; stroke-dasharray: 3.7,1.6; stroke-dashoffset: 0; stroke: #000000"/>
   </g>
   <g id="line2d_45">
    <g clip-path="url(#pae2c404269)">
     <use xlink:href="#meae5c0c399" x="81.905" y="297.288934" style="stroke: #000000"/>
     <use xlink:href="#meae5c0c399" x="123.755" y="292.523127" style="stroke: #000000"/>
     <use xlink:href="#meae5c0c399" x="165.605" y="288.652399" style="stroke: #000000"/>
     <use xlink:href="#meae5c0c399" x="207.455" y="292.041277" style="stroke: #000000"/>
     <use xlink:href="#meae5c0c399" x="249.305" y="297.487017" style="stroke: #000000"/>
     <use xlink:href="#meae5c0c399" x="291.155" y="297.199524" style="stroke: #000000"/>
     <use xlink:href="#meae5c0c399" x="333.005" y="296.240246" style="stroke: #000000"/>
     <use xlink:href="#meae5c0c399" x="374.855" y="292.727347" style="stroke: #000000"/>
    </g>
   </g>
   <g id="patch_40">
    <path d="M 60.98 297.810937 
L 60.98 246.238844 
" style="fill: none; stroke: #000000; stroke-linejoin: miter; stroke-linecap: square"/>
   </g>
   <g id="patch_41">
    <path d="M 395.78 297.810937 
L 395.78 246.238844 
" style="fill: none; stroke: #000000; stroke-linejoin: miter; stroke-linecap: square"/>
   </g>
   <g id="patch_42">
    <path d="M 60.98 297.810937 
L 395.78 297.810937 
" style="fill: none; stroke: #000000; stroke-linejoin: miter; stroke-linecap: square"/>
   </g>
   <g id="patch_43">
    <path d="M 60.98 246.238844 
L 395.78 246.238844 
" style="fill: none; stroke: #000000; stroke-linejoin: miter; stroke-linecap: square"/>
   </g>
   <g id="matplotlib.axis_3">
    <g id="xtick_18">
     <g id="line2d_46">
      <g>
       <use xlink:href="#m8dec1b3d1d" x="60.98" y="297.810937" style="fill: #1a1a1a; stroke: #1a1a1a; stroke-width: 0.8"/>
      </g>
     </g>
     <g id="text_18">
      <!-- $\mathdefault{0}$ -->
      <g style="fill: #1a1a1a" transform="translate(57.23 316.221875) scale(0.15 -0.15)">
       <use xlink:href="#LatinModernMath-Regular-30" transform="translate(0 0.40625)"/>
      </g>
     </g>
    </g>
    <g id="xtick_19">
     <g id="line2d_47">
      <g>
       <use xlink:href="#m8dec1b3d1d" x="144.68" y="297.810937" style="fill: #1a1a1a; stroke: #1a1a1a; stroke-width: 0.8"/>
      </g>
     </g>
     <g id="text_19">
      <!-- $\mathdefault{2}$ -->
      <g style="fill: #1a1a1a" transform="translate(140.93 316.221875) scale(0.15 -0.15)">
       <use xlink:href="#LatinModernMath-Regular-32" transform="translate(0 0.40625)"/>
      </g>
     </g>
    </g>
    <g id="xtick_20">
     <g id="line2d_48">
      <g>
       <use xlink:href="#m8dec1b3d1d" x="228.38" y="297.810937" style="fill: #1a1a1a; stroke: #1a1a1a; stroke-width: 0.8"/>
      </g>
     </g>
     <g id="text_20">
      <!-- $\mathdefault{4}$ -->
      <g style="fill: #1a1a1a" transform="translate(224.63 316.221875) scale(0.15 -0.15)">
       <use xlink:href="#LatinModernMath-Regular-34" transform="translate(0 0.296875)"/>
      </g>
     </g>
    </g>
    <g id="xtick_21">
     <g id="line2d_49">
      <g>
       <use xlink:href="#m8dec1b3d1d" x="312.08" y="297.810937" style="fill: #1a1a1a; stroke: #1a1a1a; stroke-width: 0.8"/>
      </g>
     </g>
     <g id="text_21">
      <!-- $\mathdefault{6}$ -->
      <g style="fill: #1a1a1a" transform="translate(308.33 316.221875) scale(0.15 -0.15)">
       <use xlink:href="#LatinModernMath-Regular-36" transform="translate(0 0.40625)"/>
      </g>
     </g>
    </g>
    <g id="xtick_22">
     <g id="line2d_50">
      <g>
       <use xlink:href="#m8dec1b3d1d" x="395.78" y="297.810937" style="fill: #1a1a1a; stroke: #1a1a1a; stroke-width: 0.8"/>
      </g>
     </g>
     <g id="text_22">
      <!-- $\mathdefault{8}$ -->
      <g style="fill: #1a1a1a" transform="translate(392.03 316.221875) scale(0.15 -0.15)">
       <defs>
        <path id="LatinModernMath-Regular-38" d="M 2925 1075 
C 2925 1306 2854 1594 2611 1862 
C 2490 1997 2387 2061 1978 2317 
C 2438 2554 2752 2886 2752 3309 
C 2752 3898 2182 4262 1600 4262 
C 960 4262 442 3789 442 3194 
C 442 3078 454 2790 723 2490 
C 794 2413 1030 2253 1190 2144 
C 819 1958 269 1600 269 966 
C 269 288 922 -141 1594 -141 
C 2317 -141 2925 390 2925 1075 
z
M 2470 3309 
C 2470 2944 2221 2637 1837 2413 
L 1043 2925 
C 749 3117 723 3334 723 3443 
C 723 3834 1139 4102 1594 4102 
C 2061 4102 2470 3770 2470 3309 
z
M 2605 845 
C 2605 371 2125 38 1600 38 
C 1050 38 589 435 589 966 
C 589 1338 794 1747 1338 2048 
L 2125 1549 
C 2304 1427 2605 1235 2605 845 
z
" transform="scale(0.015625)"/>
       </defs>
       <use xlink:href="#LatinModernMath-Regular-38" transform="translate(0 0.40625)"/>
      </g>
     </g>
    </g>
    <g id="xtick_23">
     <g id="line2d_51">
      <g>
       <use xlink:href="#m131efc0c90" x="81.905" y="297.810937" style="fill: #1a1a1a; stroke: #1a1a1a; stroke-width: 0.6"/>
      </g>
     </g>
    </g>
    <g id="xtick_24">
     <g id="line2d_52">
      <g>
       <use xlink:href="#m131efc0c90" x="102.83" y="297.810937" style="fill: #1a1a1a; stroke: #1a1a1a; stroke-width: 0.6"/>
      </g>
     </g>
    </g>
    <g id="xtick_25">
     <g id="line2d_53">
      <g>
       <use xlink:href="#m131efc0c90" x="123.755" y="297.810937" style="fill: #1a1a1a; stroke: #1a1a1a; stroke-width: 0.6"/>
      </g>
     </g>
    </g>
    <g id="xtick_26">
     <g id="line2d_54">
      <g>
       <use xlink:href="#m131efc0c90" x="165.605" y="297.810937" style="fill: #1a1a1a; stroke: #1a1a1a; stroke-width: 0.6"/>
      </g>
     </g>
    </g>
    <g id="xtick_27">
     <g id="line2d_55">
      <g>
       <use xlink:href="#m131efc0c90" x="186.53" y="297.810937" style="fill: #1a1a1a; stroke: #1a1a1a; stroke-width: 0.6"/>
      </g>
     </g>
    </g>
    <g id="xtick_28">
     <g id="line2d_56">
      <g>
       <use xlink:href="#m131efc0c90" x="207.455" y="297.810937" style="fill: #1a1a1a; stroke: #1a1a1a; stroke-width: 0.6"/>
      </g>
     </g>
    </g>
    <g id="xtick_29">
     <g id="line2d_57">
      <g>
       <use xlink:href="#m131efc0c90" x="249.305" y="297.810937" style="fill: #1a1a1a; stroke: #1a1a1a; stroke-width: 0.6"/>
      </g>
     </g>
    </g>
    <g id="xtick_30">
     <g id="line2d_58">
      <g>
       <use xlink:href="#m131efc0c90" x="270.23" y="297.810937" style="fill: #1a1a1a; stroke: #1a1a1a; stroke-width: 0.6"/>
      </g>
     </g>
    </g>
    <g id="xtick_31">
     <g id="line2d_59">
      <g>
       <use xlink:href="#m131efc0c90" x="291.155" y="297.810937" style="fill: #1a1a1a; stroke: #1a1a1a; stroke-width: 0.6"/>
      </g>
     </g>
    </g>
    <g id="xtick_32">
     <g id="line2d_60">
      <g>
       <use xlink:href="#m131efc0c90" x="333.005" y="297.810937" style="fill: #1a1a1a; stroke: #1a1a1a; stroke-width: 0.6"/>
      </g>
     </g>
    </g>
    <g id="xtick_33">
     <g id="line2d_61">
      <g>
       <use xlink:href="#m131efc0c90" x="353.93" y="297.810937" style="fill: #1a1a1a; stroke: #1a1a1a; stroke-width: 0.6"/>
      </g>
     </g>
    </g>
    <g id="xtick_34">
     <g id="line2d_62">
      <g>
       <use xlink:href="#m131efc0c90" x="374.855" y="297.810937" style="fill: #1a1a1a; stroke: #1a1a1a; stroke-width: 0.6"/>
      </g>
     </g>
    </g>
    <g id="text_23">
     <!-- (variable_1 $\times$ variable_2) bin -->
     <g style="fill: #1a1a1a" transform="translate(115.34 338.632812) scale(0.18 -0.18)">
      <defs>
       <path id="LatinModernMath-Regular-28" d="M 2125 -1523 
C 2125 -1504 2112 -1485 2099 -1472 
C 1434 -973 992 307 992 1331 
L 992 1869 
C 992 2893 1434 4173 2099 4672 
C 2112 4685 2125 4704 2125 4723 
C 2125 4755 2093 4787 2061 4787 
C 2048 4787 2035 4781 2022 4774 
C 1318 4243 646 2963 646 1869 
L 646 1331 
C 646 237 1318 -1043 2022 -1574 
C 2035 -1581 2048 -1587 2061 -1587 
C 2093 -1587 2125 -1555 2125 -1523 
z
" transform="scale(0.015625)"/>
       <path id="LatinModernMath-Regular-76" d="M 3251 2560 
L 3251 2758 
C 3104 2746 2918 2739 2771 2739 
L 2214 2758 
L 2214 2560 
C 2451 2554 2522 2406 2522 2285 
C 2522 2227 2509 2202 2483 2131 
L 1830 499 
L 1114 2285 
C 1075 2368 1075 2394 1075 2394 
C 1075 2560 1325 2560 1440 2560 
L 1440 2758 
L 742 2739 
C 570 2739 314 2746 122 2758 
L 122 2560 
C 525 2560 550 2522 634 2323 
L 1555 51 
C 1594 -38 1606 -70 1690 -70 
C 1773 -70 1798 -13 1824 51 
L 2662 2131 
C 2720 2278 2829 2554 3251 2560 
z
" transform="scale(0.015625)"/>
       <path id="LatinModernMath-Regular-62" d="M 3334 1382 
C 3334 2195 2707 2829 1978 2829 
C 1478 2829 1203 2528 1101 2413 
L 1101 4442 
L 179 4371 
L 179 4173 
C 627 4173 678 4128 678 3814 
L 678 0 
L 838 0 
L 1069 397 
C 1165 250 1434 -70 1907 -70 
C 2669 -70 3334 557 3334 1382 
z
M 2803 1389 
C 2803 1152 2790 768 2605 480 
C 2470 282 2227 70 1882 70 
C 1594 70 1363 224 1210 461 
C 1120 595 1120 614 1120 730 
L 1120 2048 
C 1120 2170 1120 2176 1190 2278 
C 1440 2637 1792 2688 1946 2688 
C 2234 2688 2464 2522 2618 2278 
C 2784 2016 2803 1651 2803 1389 
z
" transform="scale(0.015625)"/>
       <path id="LatinModernMath-Regular-5f" d="M 2131 -896 
L 2131 -640 
L 0 -640 
L 0 -896 
L 2131 -896 
z
" transform="scale(0.015625)"/>
       <path id="LatinModernMath-Regular-29" d="M 1843 1331 
L 1843 1869 
C 1843 2963 1171 4243 467 4774 
C 454 4781 442 4787 429 4787 
C 397 4787 365 4755 365 4723 
C 365 4704 378 4685 390 4672 
C 1056 4173 1498 2893 1498 1869 
L 1498 1331 
C 1498 307 1056 -973 390 -1472 
C 378 -1485 365 -1504 365 -1523 
C 365 -1555 397 -1587 429 -1587 
C 442 -1587 454 -1581 467 -1574 
C 1171 -1043 1843 237 1843 1331 
z
" transform="scale(0.015625)"/>
      </defs>
      <use xlink:href="#LatinModernMath-Regular-28" transform="translate(0 0.203125)"/>
      <use xlink:href="#LatinModernMath-Regular-76" transform="translate(38.899994 0.203125)"/>
      <use xlink:href="#LatinModernMath-Regular-61" transform="translate(91.699982 0.203125)"/>
      <use xlink:href="#LatinModernMath-Regular-72" transform="translate(141.699966 0.203125)"/>
      <use xlink:href="#LatinModernMath-Regular-69" transform="translate(180.899963 0.203125)"/>
      <use xlink:href="#LatinModernMath-Regular-61" transform="translate(208.699951 0.203125)"/>
      <use xlink:href="#LatinModernMath-Regular-62" transform="translate(258.699936 0.203125)"/>
      <use xlink:href="#LatinModernMath-Regular-6c" transform="translate(314.299927 0.203125)"/>
      <use xlink:href="#LatinModernMath-Regular-65" transform="translate(342.099915 0.203125)"/>
      <use xlink:href="#LatinModernMath-Regular-5f" transform="translate(386.499908 0.203125)"/>
      <use xlink:href="#LatinModernMath-Regular-31" transform="translate(419.799896 0.203125)"/>
      <use xlink:href="#LatinModernMath-Regular-20" transform="translate(469.799881 0.203125)"/>
      <use xlink:href="#LatinModernMath-Regular-d7" transform="translate(502.999878 0.203125)"/>
      <use xlink:href="#LatinModernMath-Regular-20" transform="translate(580.799866 0.203125)"/>
      <use xlink:href="#LatinModernMath-Regular-76" transform="translate(613.999863 0.203125)"/>
      <use xlink:href="#LatinModernMath-Regular-61" transform="translate(666.79985 0.203125)"/>
      <use xlink:href="#LatinModernMath-Regular-72" transform="translate(716.799835 0.203125)"/>
      <use xlink:href="#LatinModernMath-Regular-69" transform="translate(755.999832 0.203125)"/>
      <use xlink:href="#LatinModernMath-Regular-61" transform="translate(783.79982 0.203125)"/>
      <use xlink:href="#LatinModernMath-Regular-62" transform="translate(833.799805 0.203125)"/>
      <use xlink:href="#LatinModernMath-Regular-6c" transform="translate(889.399796 0.203125)"/>
      <use xlink:href="#LatinModernMath-Regular-65" transform="translate(917.199783 0.203125)"/>
      <use xlink:href="#LatinModernMath-Regular-5f" transform="translate(961.599777 0.203125)"/>
      <use xlink:href="#LatinModernMath-Regular-32" transform="translate(994.899765 0.203125)"/>
      <use xlink:href="#LatinModernMath-Regular-29" transform="translate(1044.89975 0.203125)"/>
      <use xlink:href="#LatinModernMath-Regular-20" transform="translate(1083.799744 0.203125)"/>
      <use xlink:href="#LatinModernMath-Regular-62" transform="translate(1116.999741 0.203125)"/>
      <use xlink:href="#LatinModernMath-Regular-69" transform="translate(1172.599731 0.203125)"/>
      <use xlink:href="#LatinModernMath-Regular-6e" transform="translate(1200.399719 0.203125)"/>
     </g>
    </g>
   </g>
   <g id="matplotlib.axis_4">
    <g id="ytick_23">
     <g id="line2d_63">
      <g>
       <use xlink:href="#mc947610920" x="60.98" y="297.810937" style="fill: #1a1a1a; stroke: #1a1a1a; stroke-width: 0.8"/>
      </g>
     </g>
     <g id="text_24">
      <!-- $\mathdefault{0}$ -->
      <g style="fill: #1a1a1a" transform="translate(48.48 303.016406) scale(0.15 -0.15)">
       <use xlink:href="#LatinModernMath-Regular-30" transform="translate(0 0.40625)"/>
      </g>
     </g>
    </g>
    <g id="ytick_24">
     <g id="line2d_64">
      <g>
       <use xlink:href="#mc947610920" x="60.98" y="246.238844" style="fill: #1a1a1a; stroke: #1a1a1a; stroke-width: 0.8"/>
      </g>
     </g>
     <g id="text_25">
      <!-- $\mathdefault{2}$ -->
      <g style="fill: #1a1a1a" transform="translate(48.48 251.444313) scale(0.15 -0.15)">
       <use xlink:href="#LatinModernMath-Regular-32" transform="translate(0 0.40625)"/>
      </g>
     </g>
    </g>
    <g id="ytick_25">
     <g id="line2d_65">
      <g>
       <use xlink:href="#m5f9d1e6504" x="60.98" y="284.917914" style="fill: #1a1a1a; stroke: #1a1a1a; stroke-width: 0.6"/>
      </g>
     </g>
    </g>
    <g id="ytick_26">
     <g id="line2d_66">
      <g>
       <use xlink:href="#m5f9d1e6504" x="60.98" y="272.024891" style="fill: #1a1a1a; stroke: #1a1a1a; stroke-width: 0.6"/>
      </g>
     </g>
    </g>
    <g id="ytick_27">
     <g id="line2d_67">
      <g>
       <use xlink:href="#m5f9d1e6504" x="60.98" y="259.131868" style="fill: #1a1a1a; stroke: #1a1a1a; stroke-width: 0.6"/>
      </g>
     </g>
    </g>
    <g id="text_26">
     <!-- $\frac{Data}{Pred.}$ -->
     <g style="fill: #1a1a1a" transform="translate(22.86 289.124891) rotate(-90) scale(0.18 -0.18)">
      <defs>
       <path id="LatinModernMath-Regular-50" d="M 3994 3181 
C 3994 3808 3360 4371 2483 4371 
L 224 4371 
L 224 4173 
L 378 4173 
C 870 4173 883 4102 883 3872 
L 883 499 
C 883 269 870 198 378 198 
L 224 198 
L 224 0 
C 448 19 922 19 1165 19 
C 1408 19 1888 19 2112 0 
L 2112 198 
L 1958 198 
C 1466 198 1453 269 1453 499 
L 1453 2022 
L 2534 2022 
C 3302 2022 3994 2541 3994 3181 
z
M 3334 3181 
C 3334 2880 3334 2189 2317 2189 
L 1434 2189 
L 1434 3917 
C 1434 4128 1446 4173 1747 4173 
L 2317 4173 
C 3334 4173 3334 3494 3334 3181 
z
" transform="scale(0.015625)"/>
      </defs>
      <use xlink:href="#LatinModernMath-Regular-44" transform="translate(13 39.192188) scale(0.7)"/>
      <use xlink:href="#LatinModernMath-Regular-61" transform="translate(66.479996 39.192188) scale(0.7)"/>
      <use xlink:href="#LatinModernMath-Regular-74" transform="translate(101.479985 39.192188) scale(0.7)"/>
      <use xlink:href="#LatinModernMath-Regular-61" transform="translate(128.709981 39.192188) scale(0.7)"/>
      <use xlink:href="#LatinModernMath-Regular-50" transform="translate(0 -41.407812) scale(0.7)"/>
      <use xlink:href="#LatinModernMath-Regular-72" transform="translate(47.669994 -41.407812) scale(0.7)"/>
      <use xlink:href="#LatinModernMath-Regular-65" transform="translate(75.109991 -41.407812) scale(0.7)"/>
      <use xlink:href="#LatinModernMath-Regular-64" transform="translate(106.189987 -41.407812) scale(0.7)"/>
      <use xlink:href="#LatinModernMath-Regular-2e" transform="translate(145.109981 -41.407812) scale(0.7)"/>
      <path d="M 0 13.426563 
L 0 19.676563 
L 176.860988 19.676563 
L 176.860988 13.426563 
L 0 13.426563 
z
"/>
     </g>
    </g>
   </g>
  </g>
 </g>
 <defs>
  <clipPath id="p0fea6b7162">
   <rect x="60.98" y="20.610937" width="334.8" height="206.288372"/>
  </clipPath>
  <clipPath id="pae2c404269">
   <rect x="60.98" y="246.238844" width="334.8" height="51.572093"/>
  </clipPath>
 </defs>
 <defs>
  <pattern id="h63c8cd6f62" patternUnits="userSpaceOnUse" x="0" y="0" width="72" height="72">
   <rect x="0" y="0" width="73" height="73" fill="none"/>
   <path d="M -36 36 
L 36 -36 
M -33 39 
L 39 -33 
M -30 42 
L 42 -30 
M -27 45 
L 45 -27 
M -24 48 
L 48 -24 
M -21 51 
L 51 -21 
M -18 54 
L 54 -18 
M -15 57 
L 57 -15 
M -12 60 
L 60 -12 
M -9 63 
L 63 -9 
M -6 66 
L 66 -6 
M -3 69 
L 69 -3 
M 0 72 
L 72 0 
M 3 75 
L 75 3 
M 6 78 
L 78 6 
M 9 81 
L 81 9 
M 12 84 
L 84 12 
M 15 87 
L 87 15 
M 18 90 
L 90 18 
M 21 93 
L 93 21 
M 24 96 
L 96 24 
M 27 99 
L 99 27 
M 30 102 
L 102 30 
M 33 105 
L 105 33 
M 36 108 
L 108 36 
" style="fill: #696969; stroke: #696969; stroke-width: 1.0; stroke-linecap: butt; stroke-linejoin: miter"/>
  </pattern>
 </defs>
</svg>
