<?xml version="1.0" encoding="utf-8" standalone="no"?>
<!DOCTYPE svg PUBLIC "-//W3C//DTD SVG 1.1//EN"
  "http://www.w3.org/Graphics/SVG/1.1/DTD/svg11.dtd">
<svg xmlns:xlink="http://www.w3.org/1999/xlink" width="397.704pt" height="350.144759pt" viewBox="0 0 397.704 350.144759" xmlns="http://www.w3.org/2000/svg" version="1.1">
 <metadata>
  <rdf:RDF xmlns:dc="http://purl.org/dc/elements/1.1/" xmlns:cc="http://creativecommons.org/ns#" xmlns:rdf="http://www.w3.org/1999/02/22-rdf-syntax-ns#">
   <cc:Work>
    <dc:creator>
     <cc:Agent>
      <dc:title>カリビアンカフェ</dc:title>
     </cc:Agent>
    </dc:creator>
   </cc:Work>
  </rdf:RDF>
 </metadata>
 <defs>
  <style type="text/css">*{stroke-linejoin: round; stroke-linecap: butt}</style>
 </defs>
 <g id="figure_1">
  <g id="patch_1">
   <path d="M -0 350.144759 
L 397.704 350.144759 
L 397.704 0 
L -0 0 
z
" style="fill: #ffffff"/>
  </g>
  <g id="axes_1">
   <g id="patch_2">
    <path d="M 55.704 226.351256 
L 390.504 226.351256 
L 390.504 20.062884 
L 55.704 20.062884 
z
" style="fill: #ffffff"/>
   </g>
   <g id="patch_3">
    <path d="M 55.704 226.351256 
L 55.704 226.351256 
L 62.4 226.351256 
L 62.4 226.279739 
L 69.096 226.279739 
L 69.096 226.065188 
L 75.792 226.065188 
L 75.792 225.993671 
L 82.488 225.993671 
L 82.488 225.922155 
L 89.184 225.922155 
L 89.184 225.206986 
L 95.88 225.206986 
L 95.88 224.992435 
L 102.576 224.992435 
L 102.576 222.203277 
L 109.272 222.203277 
L 109.272 219.986253 
L 115.968 219.986253 
L 115.968 218.269848 
L 122.664 218.269848 
L 122.664 210.546025 
L 129.36 210.546025 
L 129.36 206.183495 
L 136.056 206.183495 
L 136.056 197.386918 
L 142.752 197.386918 
L 142.752 189.233993 
L 149.448 189.233993 
L 149.448 185.515115 
L 156.144 185.515115 
L 156.144 181.653203 
L 162.84 181.653203 
L 162.84 180.079832 
L 169.536 180.079832 
L 169.536 176.503988 
L 176.232 176.503988 
L 176.232 179.865281 
L 182.928 179.865281 
L 182.928 181.367136 
L 189.624 181.367136 
L 189.624 185.300565 
L 196.32 185.300565 
L 196.32 187.01697 
L 203.016 187.01697 
L 203.016 191.164949 
L 209.712 191.164949 
L 209.712 188.947926 
L 216.408 188.947926 
L 216.408 188.804892 
L 223.104 188.804892 
L 223.104 190.020679 
L 229.8 190.020679 
L 229.8 189.591578 
L 236.496 189.591578 
L 236.496 196.743266 
L 243.192 196.743266 
L 243.192 199.460908 
L 249.888 199.460908 
L 249.888 202.536134 
L 256.584 202.536134 
L 256.584 206.183495 
L 263.28 206.183495 
L 263.28 213.621251 
L 269.976 213.621251 
L 269.976 217.912264 
L 276.672 217.912264 
L 276.672 220.98749 
L 283.368 220.98749 
L 283.368 223.633614 
L 290.064 223.633614 
L 290.064 224.134232 
L 296.76 224.134232 
L 296.76 225.850638 
L 303.456 225.850638 
L 303.456 225.993671 
L 310.152 225.993671 
L 310.152 225.993671 
L 316.848 225.993671 
L 316.848 226.279739 
L 323.544 226.279739 
L 323.544 226.208222 
L 330.24 226.208222 
L 330.24 226.351256 
L 336.936 226.351256 
L 336.936 226.351256 
L 343.632 226.351256 
L 343.632 226.351256 
L 350.328 226.351256 
L 350.328 226.351256 
L 357.024 226.351256 
L 357.024 226.351256 
L 363.72 226.351256 
L 363.72 226.351256 
L 370.416 226.351256 
L 370.416 226.351256 
L 377.112 226.351256 
L 377.112 226.351256 
L 383.808 226.351256 
L 383.808 226.351256 
L 390.504 226.351256 
L 390.504 226.351256 
L 390.504 226.351256 
L 390.504 226.351256 
L 383.808 226.351256 
L 383.808 226.351256 
L 377.112 226.351256 
L 377.112 226.351256 
L 370.416 226.351256 
L 370.416 226.351256 
L 363.72 226.351256 
L 363.72 226.351256 
L 357.024 226.351256 
L 357.024 226.351256 
L 350.328 226.351256 
L 350.328 226.351256 
L 343.632 226.351256 
L 343.632 226.351256 
L 336.936 226.351256 
L 336.936 226.351256 
L 330.24 226.351256 
L 330.24 226.351256 
L 323.544 226.351256 
L 323.544 226.351256 
L 316.848 226.351256 
L 316.848 226.351256 
L 310.152 226.351256 
L 310.152 226.351256 
L 303.456 226.351256 
L 303.456 226.351256 
L 296.76 226.351256 
L 296.76 226.351256 
L 290.064 226.351256 
L 290.064 226.351256 
L 283.368 226.351256 
L 283.368 226.351256 
L 276.672 226.351256 
L 276.672 226.351256 
L 269.976 226.351256 
L 269.976 226.351256 
L 263.28 226.351256 
L 263.28 226.351256 
L 256.584 226.351256 
L 256.584 226.351256 
L 249.888 226.351256 
L 249.888 226.351256 
L 243.192 226.351256 
L 243.192 226.351256 
L 236.496 226.351256 
L 236.496 226.351256 
L 229.8 226.351256 
L 229.8 226.351256 
L 223.104 226.351256 
L 223.104 226.351256 
L 216.408 226.351256 
L 216.408 226.351256 
L 209.712 226.351256 
L 209.712 226.351256 
L 203.016 226.351256 
L 203.016 226.351256 
L 196.32 226.351256 
L 196.32 226.351256 
L 189.624 226.351256 
L 189.624 226.351256 
L 182.928 226.351256 
L 182.928 226.351256 
L 176.232 226.351256 
L 176.232 226.351256 
L 169.536 226.351256 
L 169.536 226.351256 
L 162.84 226.351256 
L 162.84 226.351256 
L 156.144 226.351256 
L 156.144 226.351256 
L 149.448 226.351256 
L 149.448 226.351256 
L 142.752 226.351256 
L 142.752 226.351256 
L 136.056 226.351256 
L 136.056 226.351256 
L 129.36 226.351256 
L 129.36 226.351256 
L 122.664 226.351256 
L 122.664 226.351256 
L 115.968 226.351256 
L 115.968 226.351256 
L 109.272 226.351256 
L 109.272 226.351256 
L 102.576 226.351256 
L 102.576 226.351256 
L 95.88 226.351256 
L 95.88 226.351256 
L 89.184 226.351256 
L 89.184 226.351256 
L 82.488 226.351256 
L 82.488 226.351256 
L 75.792 226.351256 
L 75.792 226.351256 
L 69.096 226.351256 
L 69.096 226.351256 
L 62.4 226.351256 
L 62.4 226.351256 
L 55.704 226.351256 
L 55.704 226.351256 
" clip-path="url(#pe91539e664)" style="fill: #3d4c74; stroke: #000000; stroke-width: 0.5; stroke-linejoin: miter"/>
   </g>
   <g id="patch_4">
    <path d="M 55.704 226.351256 
L 55.704 226.279739 
L 62.4 226.279739 
L 62.4 226.136705 
L 69.096 226.136705 
L 69.096 225.779121 
L 75.792 225.779121 
L 75.792 225.421536 
L 82.488 225.421536 
L 82.488 224.491817 
L 89.184 224.491817 
L 89.184 223.27603 
L 95.88 223.27603 
L 95.88 221.20204 
L 102.576 221.20204 
L 102.576 216.195858 
L 109.272 216.195858 
L 109.272 209.187204 
L 115.968 209.187204 
L 115.968 204.753157 
L 122.664 204.753157 
L 122.664 187.660622 
L 129.36 187.660622 
L 129.36 177.791292 
L 136.056 177.791292 
L 136.056 159.983588 
L 142.752 159.983588 
L 142.752 145.394143 
L 149.448 145.394143 
L 149.448 132.878689 
L 156.144 132.878689 
L 156.144 124.153629 
L 162.84 124.153629 
L 162.84 120.792335 
L 169.536 120.792335 
L 169.536 120.291717 
L 176.232 120.291717 
L 176.232 123.653011 
L 182.928 123.653011 
L 182.928 131.734419 
L 189.624 131.734419 
L 189.624 136.955151 
L 196.32 136.955151 
L 196.32 145.894762 
L 203.016 145.894762 
L 203.016 160.269655 
L 209.712 160.269655 
L 209.712 159.196902 
L 216.408 159.196902 
L 216.408 162.629712 
L 223.104 162.629712 
L 223.104 165.418871 
L 229.8 165.418871 
L 229.8 172.499042 
L 236.496 172.499042 
L 236.496 180.008315 
L 243.192 180.008315 
L 243.192 184.299328 
L 249.888 184.299328 
L 249.888 190.306746 
L 256.584 190.306746 
L 256.584 196.671749 
L 263.28 196.671749 
L 263.28 206.469562 
L 269.976 206.469562 
L 269.976 212.620014 
L 276.672 212.620014 
L 276.672 218.055297 
L 283.368 218.055297 
L 283.368 221.20204 
L 290.064 221.20204 
L 290.064 223.204513 
L 296.76 223.204513 
L 296.76 225.063952 
L 303.456 225.063952 
L 303.456 225.636087 
L 310.152 225.636087 
L 310.152 225.779121 
L 316.848 225.779121 
L 316.848 226.208222 
L 323.544 226.208222 
L 323.544 226.065188 
L 330.24 226.065188 
L 330.24 226.351256 
L 336.936 226.351256 
L 336.936 226.351256 
L 343.632 226.351256 
L 343.632 226.279739 
L 350.328 226.279739 
L 350.328 226.351256 
L 357.024 226.351256 
L 357.024 226.351256 
L 363.72 226.351256 
L 363.72 226.351256 
L 370.416 226.351256 
L 370.416 226.351256 
L 377.112 226.351256 
L 377.112 226.351256 
L 383.808 226.351256 
L 383.808 226.351256 
L 390.504 226.351256 
L 390.504 226.351256 
L 390.504 226.351256 
L 390.504 226.351256 
L 383.808 226.351256 
L 383.808 226.351256 
L 377.112 226.351256 
L 377.112 226.351256 
L 370.416 226.351256 
L 370.416 226.351256 
L 363.72 226.351256 
L 363.72 226.351256 
L 357.024 226.351256 
L 357.024 226.351256 
L 350.328 226.351256 
L 350.328 226.351256 
L 343.632 226.351256 
L 343.632 226.351256 
L 336.936 226.351256 
L 336.936 226.351256 
L 330.24 226.351256 
L 330.24 226.208222 
L 323.544 226.208222 
L 323.544 226.279739 
L 316.848 226.279739 
L 316.848 225.993671 
L 310.152 225.993671 
L 310.152 225.993671 
L 303.456 225.993671 
L 303.456 225.850638 
L 296.76 225.850638 
L 296.76 224.134232 
L 290.064 224.134232 
L 290.064 223.633614 
L 283.368 223.633614 
L 283.368 220.98749 
L 276.672 220.98749 
L 276.672 217.912264 
L 269.976 217.912264 
L 269.976 213.621251 
L 263.28 213.621251 
L 263.28 206.183495 
L 256.584 206.183495 
L 256.584 202.536134 
L 249.888 202.536134 
L 249.888 199.460908 
L 243.192 199.460908 
L 243.192 196.743266 
L 236.496 196.743266 
L 236.496 189.591578 
L 229.8 189.591578 
L 229.8 190.020679 
L 223.104 190.020679 
L 223.104 188.804892 
L 216.408 188.804892 
L 216.408 188.947926 
L 209.712 188.947926 
L 209.712 191.164949 
L 203.016 191.164949 
L 203.016 187.01697 
L 196.32 187.01697 
L 196.32 185.300565 
L 189.624 185.300565 
L 189.624 181.367136 
L 182.928 181.367136 
L 182.928 179.865281 
L 176.232 179.865281 
L 176.232 176.503988 
L 169.536 176.503988 
L 169.536 180.079832 
L 162.84 180.079832 
L 162.84 181.653203 
L 156.144 181.653203 
L 156.144 185.515115 
L 149.448 185.515115 
L 149.448 189.233993 
L 142.752 189.233993 
L 142.752 197.386918 
L 136.056 197.386918 
L 136.056 206.183495 
L 129.36 206.183495 
L 129.36 210.546025 
L 122.664 210.546025 
L 122.664 218.269848 
L 115.968 218.269848 
L 115.968 219.986253 
L 109.272 219.986253 
L 109.272 222.203277 
L 102.576 222.203277 
L 102.576 224.992435 
L 95.88 224.992435 
L 95.88 225.206986 
L 89.184 225.206986 
L 89.184 225.922155 
L 82.488 225.922155 
L 82.488 225.993671 
L 75.792 225.993671 
L 75.792 226.065188 
L 69.096 226.065188 
L 69.096 226.279739 
L 62.4 226.279739 
L 62.4 226.351256 
L 55.704 226.351256 
L 55.704 226.351256 
" clip-path="url(#pe91539e664)" style="fill: #b67b76; stroke: #000000; stroke-width: 0.5; stroke-linejoin: miter"/>
   </g>
   <g id="patch_5">
    <path d="M 55.704 226.279739 
L 55.704 226.279739 
L 62.4 226.279739 
L 62.4 226.136705 
L 69.096 226.136705 
L 69.096 225.779121 
L 75.792 225.779121 
L 75.792 225.421536 
L 82.488 225.421536 
L 82.488 224.4203 
L 89.184 224.4203 
L 89.184 223.061479 
L 95.88 223.061479 
L 95.88 220.772939 
L 102.576 220.772939 
L 102.576 215.194622 
L 109.272 215.194622 
L 109.272 207.399282 
L 115.968 207.399282 
L 115.968 201.320347 
L 122.664 201.320347 
L 122.664 180.508933 
L 129.36 180.508933 
L 129.36 165.847972 
L 136.056 165.847972 
L 136.056 143.248637 
L 142.752 143.248637 
L 142.752 120.935369 
L 149.448 120.935369 
L 149.448 98.979686 
L 156.144 98.979686 
L 156.144 84.390242 
L 162.84 84.390242 
L 162.84 76.308834 
L 169.536 76.308834 
L 169.536 75.736699 
L 176.232 75.736699 
L 176.232 84.819343 
L 182.928 84.819343 
L 182.928 91.684964 
L 189.624 91.684964 
L 189.624 101.196709 
L 196.32 101.196709 
L 196.32 107.847779 
L 203.016 107.847779 
L 203.016 122.079639 
L 209.712 122.079639 
L 209.712 117.216491 
L 216.408 117.216491 
L 216.408 120.077167 
L 223.104 120.077167 
L 223.104 118.289245 
L 229.8 118.289245 
L 229.8 126.871271 
L 236.496 126.871271 
L 236.496 138.027904 
L 243.192 138.027904 
L 243.192 147.968751 
L 249.888 147.968751 
L 249.888 159.554486 
L 256.584 159.554486 
L 256.584 169.709884 
L 263.28 169.709884 
L 263.28 187.660622 
L 269.976 187.660622 
L 269.976 198.817256 
L 276.672 198.817256 
L 276.672 207.971417 
L 283.368 207.971417 
L 283.368 214.050352 
L 290.064 214.050352 
L 290.064 219.056534 
L 296.76 219.056534 
L 296.76 222.13176 
L 303.456 222.13176 
L 303.456 224.134232 
L 310.152 224.134232 
L 310.152 224.777884 
L 316.848 224.777884 
L 316.848 225.850638 
L 323.544 225.850638 
L 323.544 225.922155 
L 330.24 225.922155 
L 330.24 226.208222 
L 336.936 226.208222 
L 336.936 226.279739 
L 343.632 226.279739 
L 343.632 226.279739 
L 350.328 226.279739 
L 350.328 226.351256 
L 357.024 226.351256 
L 357.024 226.279739 
L 363.72 226.279739 
L 363.72 226.279739 
L 370.416 226.279739 
L 370.416 226.351256 
L 377.112 226.351256 
L 377.112 226.351256 
L 383.808 226.351256 
L 383.808 226.351256 
L 390.504 226.351256 
L 390.504 226.351256 
L 390.504 226.351256 
L 390.504 226.351256 
L 383.808 226.351256 
L 383.808 226.351256 
L 377.112 226.351256 
L 377.112 226.351256 
L 370.416 226.351256 
L 370.416 226.351256 
L 363.72 226.351256 
L 363.72 226.351256 
L 357.024 226.351256 
L 357.024 226.351256 
L 350.328 226.351256 
L 350.328 226.279739 
L 343.632 226.279739 
L 343.632 226.351256 
L 336.936 226.351256 
L 336.936 226.351256 
L 330.24 226.351256 
L 330.24 226.065188 
L 323.544 226.065188 
L 323.544 226.208222 
L 316.848 226.208222 
L 316.848 225.779121 
L 310.152 225.779121 
L 310.152 225.636087 
L 303.456 225.636087 
L 303.456 225.063952 
L 296.76 225.063952 
L 296.76 223.204513 
L 290.064 223.204513 
L 290.064 221.20204 
L 283.368 221.20204 
L 283.368 218.055297 
L 276.672 218.055297 
L 276.672 212.620014 
L 269.976 212.620014 
L 269.976 206.469562 
L 263.28 206.469562 
L 263.28 196.671749 
L 256.584 196.671749 
L 256.584 190.306746 
L 249.888 190.306746 
L 249.888 184.299328 
L 243.192 184.299328 
L 243.192 180.008315 
L 236.496 180.008315 
L 236.496 172.499042 
L 229.8 172.499042 
L 229.8 165.418871 
L 223.104 165.418871 
L 223.104 162.629712 
L 216.408 162.629712 
L 216.408 159.196902 
L 209.712 159.196902 
L 209.712 160.269655 
L 203.016 160.269655 
L 203.016 145.894762 
L 196.32 145.894762 
L 196.32 136.955151 
L 189.624 136.955151 
L 189.624 131.734419 
L 182.928 131.734419 
L 182.928 123.653011 
L 176.232 123.653011 
L 176.232 120.291717 
L 169.536 120.291717 
L 169.536 120.792335 
L 162.84 120.792335 
L 162.84 124.153629 
L 156.144 124.153629 
L 156.144 132.878689 
L 149.448 132.878689 
L 149.448 145.394143 
L 142.752 145.394143 
L 142.752 159.983588 
L 136.056 159.983588 
L 136.056 177.791292 
L 129.36 177.791292 
L 129.36 187.660622 
L 122.664 187.660622 
L 122.664 204.753157 
L 115.968 204.753157 
L 115.968 209.187204 
L 109.272 209.187204 
L 109.272 216.195858 
L 102.576 216.195858 
L 102.576 221.20204 
L 95.88 221.20204 
L 95.88 223.27603 
L 89.184 223.27603 
L 89.184 224.491817 
L 82.488 224.491817 
L 82.488 225.421536 
L 75.792 225.421536 
L 75.792 225.779121 
L 69.096 225.779121 
L 69.096 226.136705 
L 62.4 226.136705 
L 62.4 226.279739 
L 55.704 226.279739 
L 55.704 226.279739 
" clip-path="url(#pe91539e664)" style="fill: #b1dcc2; stroke: #000000; stroke-width: 0.5; stroke-linejoin: miter"/>
   </g>
   <g id="LineCollection_1">
    <path d="M 59.052 226.314152 
L 59.052 225.642596 
" clip-path="url(#pe91539e664)" style="fill: none; stroke: #000000; stroke-width: 1.5"/>
    <path d="M 65.748 226.199154 
L 65.748 225.355154 
" clip-path="url(#pe91539e664)" style="fill: none; stroke: #000000; stroke-width: 1.5"/>
    <path d="M 72.444 226.057593 
L 72.444 225.08017 
" clip-path="url(#pe91539e664)" style="fill: none; stroke: #000000; stroke-width: 1.5"/>
    <path d="M 79.14 225.402261 
L 79.14 224.038056 
" clip-path="url(#pe91539e664)" style="fill: none; stroke: #000000; stroke-width: 1.5"/>
    <path d="M 85.836 224.323481 
L 85.836 222.550238 
" clip-path="url(#pe91539e664)" style="fill: none; stroke: #000000; stroke-width: 1.5"/>
    <path d="M 92.532 220.295024 
L 92.532 217.569464 
" clip-path="url(#pe91539e664)" style="fill: none; stroke: #000000; stroke-width: 1.5"/>
    <path d="M 99.228 217.325506 
L 99.228 214.098781 
" clip-path="url(#pe91539e664)" style="fill: none; stroke: #000000; stroke-width: 1.5"/>
    <path d="M 105.924 212.0989 
L 105.924 208.159974 
" clip-path="url(#pe91539e664)" style="fill: none; stroke: #000000; stroke-width: 1.5"/>
    <path d="M 112.62 202.722604 
L 112.62 197.779505 
" clip-path="url(#pe91539e664)" style="fill: none; stroke: #000000; stroke-width: 1.5"/>
    <path d="M 119.316 186.430868 
L 119.316 180.138775 
" clip-path="url(#pe91539e664)" style="fill: none; stroke: #000000; stroke-width: 1.5"/>
    <path d="M 126.012 176.882651 
L 126.012 169.928329 
" clip-path="url(#pe91539e664)" style="fill: none; stroke: #000000; stroke-width: 1.5"/>
    <path d="M 132.708 152.686776 
L 132.708 144.297328 
" clip-path="url(#pe91539e664)" style="fill: none; stroke: #000000; stroke-width: 1.5"/>
    <path d="M 139.404 117.042594 
L 139.404 106.918586 
" clip-path="url(#pe91539e664)" style="fill: none; stroke: #000000; stroke-width: 1.5"/>
    <path d="M 146.1 97.905044 
L 146.1 86.96722 
" clip-path="url(#pe91539e664)" style="fill: none; stroke: #000000; stroke-width: 1.5"/>
    <path d="M 152.796 63.979156 
L 152.796 51.735634 
" clip-path="url(#pe91539e664)" style="fill: none; stroke: #000000; stroke-width: 1.5"/>
    <path d="M 159.492 57.649872 
L 159.492 45.178417 
" clip-path="url(#pe91539e664)" style="fill: none; stroke: #000000; stroke-width: 1.5"/>
    <path d="M 166.188 51.740659 
L 166.188 39.060225 
" clip-path="url(#pe91539e664)" style="fill: none; stroke: #000000; stroke-width: 1.5"/>
    <path d="M 172.884 42.873631 
L 172.884 29.88614 
" clip-path="url(#pe91539e664)" style="fill: none; stroke: #000000; stroke-width: 1.5"/>
    <path d="M 179.58 53.007067 
L 179.58 40.371118 
" clip-path="url(#pe91539e664)" style="fill: none; stroke: #000000; stroke-width: 1.5"/>
    <path d="M 186.276 62.291557 
L 186.276 49.986833 
" clip-path="url(#pe91539e664)" style="fill: none; stroke: #000000; stroke-width: 1.5"/>
    <path d="M 192.972 97.273611 
L 192.972 86.310006 
" clip-path="url(#pe91539e664)" style="fill: none; stroke: #000000; stroke-width: 1.5"/>
    <path d="M 199.668 116.832473 
L 199.668 106.699159 
" clip-path="url(#pe91539e664)" style="fill: none; stroke: #000000; stroke-width: 1.5"/>
    <path d="M 206.364 131.949191 
L 206.364 122.509866 
" clip-path="url(#pe91539e664)" style="fill: none; stroke: #000000; stroke-width: 1.5"/>
    <path d="M 213.06 140.754628 
L 213.06 131.745386 
" clip-path="url(#pe91539e664)" style="fill: none; stroke: #000000; stroke-width: 1.5"/>
    <path d="M 219.756 167.721553 
L 219.756 160.189662 
" clip-path="url(#pe91539e664)" style="fill: none; stroke: #000000; stroke-width: 1.5"/>
    <path d="M 226.452 170.63899 
L 226.452 163.285801 
" clip-path="url(#pe91539e664)" style="fill: none; stroke: #000000; stroke-width: 1.5"/>
    <path d="M 233.148 173.970376 
L 233.148 166.827057 
" clip-path="url(#pe91539e664)" style="fill: none; stroke: #000000; stroke-width: 1.5"/>
    <path d="M 239.844 182.076175 
L 239.844 175.473238 
" clip-path="url(#pe91539e664)" style="fill: none; stroke: #000000; stroke-width: 1.5"/>
    <path d="M 246.54 192.223771 
L 246.54 186.372743 
" clip-path="url(#pe91539e664)" style="fill: none; stroke: #000000; stroke-width: 1.5"/>
    <path d="M 253.236 195.113451 
L 253.236 189.496442 
" clip-path="url(#pe91539e664)" style="fill: none; stroke: #000000; stroke-width: 1.5"/>
    <path d="M 259.932 204.770491 
L 259.932 200.026711 
" clip-path="url(#pe91539e664)" style="fill: none; stroke: #000000; stroke-width: 1.5"/>
    <path d="M 266.628 206.405503 
L 266.628 201.827729 
" clip-path="url(#pe91539e664)" style="fill: none; stroke: #000000; stroke-width: 1.5"/>
    <path d="M 273.324 211.896511 
L 273.324 207.932894 
" clip-path="url(#pe91539e664)" style="fill: none; stroke: #000000; stroke-width: 1.5"/>
    <path d="M 280.02 214.319286 
L 280.02 210.663638 
" clip-path="url(#pe91539e664)" style="fill: none; stroke: #000000; stroke-width: 1.5"/>
    <path d="M 286.716 218.915037 
L 286.716 215.944235 
" clip-path="url(#pe91539e664)" style="fill: none; stroke: #000000; stroke-width: 1.5"/>
    <path d="M 293.412 221.661353 
L 293.412 219.207747 
" clip-path="url(#pe91539e664)" style="fill: none; stroke: #000000; stroke-width: 1.5"/>
    <path d="M 300.108 222.817287 
L 300.108 220.626357 
" clip-path="url(#pe91539e664)" style="fill: none; stroke: #000000; stroke-width: 1.5"/>
    <path d="M 306.804 225.050455 
L 306.804 223.535496 
" clip-path="url(#pe91539e664)" style="fill: none; stroke: #000000; stroke-width: 1.5"/>
    <path d="M 313.5 225.573751 
L 313.5 224.292918 
" clip-path="url(#pe91539e664)" style="fill: none; stroke: #000000; stroke-width: 1.5"/>
    <path d="M 320.196 226.314152 
L 320.196 225.642596 
" clip-path="url(#pe91539e664)" style="fill: none; stroke: #000000; stroke-width: 1.5"/>
    <path d="M 326.892 225.955848 
" clip-path="url(#pe91539e664)" style="fill: none; stroke: #000000; stroke-width: 1.5"/>
    <path d="M 333.588 225.955848 
" clip-path="url(#pe91539e664)" style="fill: none; stroke: #000000; stroke-width: 1.5"/>
    <path d="M 340.284 226.199154 
L 340.284 225.355154 
" clip-path="url(#pe91539e664)" style="fill: none; stroke: #000000; stroke-width: 1.5"/>
    <path d="M 346.98 225.955848 
" clip-path="url(#pe91539e664)" style="fill: none; stroke: #000000; stroke-width: 1.5"/>
    <path d="M 353.676 225.955848 
" clip-path="url(#pe91539e664)" style="fill: none; stroke: #000000; stroke-width: 1.5"/>
    <path d="M 360.372 225.955848 
" clip-path="url(#pe91539e664)" style="fill: none; stroke: #000000; stroke-width: 1.5"/>
    <path d="M 367.068 225.955848 
" clip-path="url(#pe91539e664)" style="fill: none; stroke: #000000; stroke-width: 1.5"/>
    <path d="M 373.764 225.955848 
" clip-path="url(#pe91539e664)" style="fill: none; stroke: #000000; stroke-width: 1.5"/>
    <path d="M 380.46 225.955848 
" clip-path="url(#pe91539e664)" style="fill: none; stroke: #000000; stroke-width: 1.5"/>
    <path d="M 387.156 225.955848 
" clip-path="url(#pe91539e664)" style="fill: none; stroke: #000000; stroke-width: 1.5"/>
   </g>
   <g id="line2d_1">
    <defs>
     <path id="meae5c0c399" d="M 0 1.5 
C 0.397805 1.5 0.77937 1.341951 1.06066 1.06066 
C 1.341951 0.77937 1.5 0.397805 1.5 0 
C 1.5 -0.397805 1.341951 -0.77937 1.06066 -1.06066 
C 0.77937 -1.341951 0.397805 -1.5 0 -1.5 
C -0.397805 -1.5 -0.77937 -1.341951 -1.06066 -1.06066 
C -1.341951 -0.77937 -1.5 -0.397805 -1.5 0 
C -1.5 0.397805 -1.341951 0.77937 -1.06066 1.06066 
C -0.77937 1.341951 -0.397805 1.5 0 1.5 
z
" style="stroke: #000000"/>
    </defs>
    <g clip-path="url(#pe91539e664)">
     <use xlink:href="#meae5c0c399" x="59.052" y="226.13648" style="stroke: #000000"/>
     <use xlink:href="#meae5c0c399" x="65.748" y="225.921703" style="stroke: #000000"/>
     <use xlink:href="#meae5c0c399" x="72.444" y="225.706927" style="stroke: #000000"/>
     <use xlink:href="#meae5c0c399" x="79.14" y="224.847822" style="stroke: #000000"/>
     <use xlink:href="#meae5c0c399" x="85.836" y="223.559165" style="stroke: #000000"/>
     <use xlink:href="#meae5c0c399" x="92.532" y="219.048864" style="stroke: #000000"/>
     <use xlink:href="#meae5c0c399" x="99.228" y="215.827221" style="stroke: #000000"/>
     <use xlink:href="#meae5c0c399" x="105.924" y="210.24304" style="stroke: #000000"/>
     <use xlink:href="#meae5c0c399" x="112.62" y="200.363334" style="stroke: #000000"/>
     <use xlink:href="#meae5c0c399" x="119.316" y="183.396013" style="stroke: #000000"/>
     <use xlink:href="#meae5c0c399" x="126.012" y="173.516307" style="stroke: #000000"/>
     <use xlink:href="#meae5c0c399" x="132.708" y="148.602266" style="stroke: #000000"/>
     <use xlink:href="#meae5c0c399" x="139.404" y="112.090309" style="stroke: #000000"/>
     <use xlink:href="#meae5c0c399" x="146.1" y="92.545673" style="stroke: #000000"/>
     <use xlink:href="#meae5c0c399" x="152.796" y="57.966703" style="stroke: #000000"/>
     <use xlink:href="#meae5c0c399" x="159.492" y="51.523416" style="stroke: #000000"/>
     <use xlink:href="#meae5c0c399" x="166.188" y="45.509682" style="stroke: #000000"/>
     <use xlink:href="#meae5c0c399" x="172.884" y="36.489081" style="stroke: #000000"/>
     <use xlink:href="#meae5c0c399" x="179.58" y="46.798339" style="stroke: #000000"/>
     <use xlink:href="#meae5c0c399" x="186.276" y="56.248493" style="stroke: #000000"/>
     <use xlink:href="#meae5c0c399" x="192.972" y="91.901345" style="stroke: #000000"/>
     <use xlink:href="#meae5c0c399" x="199.668" y="111.875533" style="stroke: #000000"/>
     <use xlink:href="#meae5c0c399" x="206.364" y="127.33942" style="stroke: #000000"/>
     <use xlink:href="#meae5c0c399" x="213.06" y="136.360021" style="stroke: #000000"/>
     <use xlink:href="#meae5c0c399" x="219.756" y="164.066153" style="stroke: #000000"/>
     <use xlink:href="#meae5c0c399" x="226.452" y="167.07302" style="stroke: #000000"/>
     <use xlink:href="#meae5c0c399" x="233.148" y="170.50944" style="stroke: #000000"/>
     <use xlink:href="#meae5c0c399" x="239.844" y="178.885712" style="stroke: #000000"/>
     <use xlink:href="#meae5c0c399" x="246.54" y="189.409747" style="stroke: #000000"/>
     <use xlink:href="#meae5c0c399" x="253.236" y="192.416614" style="stroke: #000000"/>
     <use xlink:href="#meae5c0c399" x="259.932" y="202.511096" style="stroke: #000000"/>
     <use xlink:href="#meae5c0c399" x="266.628" y="204.229306" style="stroke: #000000"/>
     <use xlink:href="#meae5c0c399" x="273.324" y="210.028263" style="stroke: #000000"/>
     <use xlink:href="#meae5c0c399" x="280.02" y="212.605578" style="stroke: #000000"/>
     <use xlink:href="#meae5c0c399" x="286.716" y="217.545431" style="stroke: #000000"/>
     <use xlink:href="#meae5c0c399" x="293.412" y="220.552298" style="stroke: #000000"/>
     <use xlink:href="#meae5c0c399" x="300.108" y="221.840955" style="stroke: #000000"/>
     <use xlink:href="#meae5c0c399" x="306.804" y="224.41827" style="stroke: #000000"/>
     <use xlink:href="#meae5c0c399" x="313.5" y="225.062599" style="stroke: #000000"/>
     <use xlink:href="#meae5c0c399" x="320.196" y="226.13648" style="stroke: #000000"/>
     <use xlink:href="#meae5c0c399" x="326.892" y="226.351256" style="stroke: #000000"/>
     <use xlink:href="#meae5c0c399" x="333.588" y="226.351256" style="stroke: #000000"/>
     <use xlink:href="#meae5c0c399" x="340.284" y="225.921703" style="stroke: #000000"/>
     <use xlink:href="#meae5c0c399" x="346.98" y="226.351256" style="stroke: #000000"/>
     <use xlink:href="#meae5c0c399" x="353.676" y="226.351256" style="stroke: #000000"/>
     <use xlink:href="#meae5c0c399" x="360.372" y="226.351256" style="stroke: #000000"/>
     <use xlink:href="#meae5c0c399" x="367.068" y="226.351256" style="stroke: #000000"/>
     <use xlink:href="#meae5c0c399" x="373.764" y="226.351256" style="stroke: #000000"/>
     <use xlink:href="#meae5c0c399" x="380.46" y="226.351256" style="stroke: #000000"/>
     <use xlink:href="#meae5c0c399" x="387.156" y="226.351256" style="stroke: #000000"/>
    </g>
   </g>
   <g id="patch_6">
    <path d="M 55.704 226.351256 
L 55.704 20.062884 
" style="fill: none; stroke: #000000; stroke-linejoin: miter; stroke-linecap: square"/>
   </g>
   <g id="patch_7">
    <path d="M 390.504 226.351256 
L 390.504 20.062884 
" style="fill: none; stroke: #000000; stroke-linejoin: miter; stroke-linecap: square"/>
   </g>
   <g id="patch_8">
    <path d="M 55.704 226.351256 
L 390.504 226.351256 
" style="fill: none; stroke: #000000; stroke-linejoin: miter; stroke-linecap: square"/>
   </g>
   <g id="patch_9">
    <path d="M 55.704 20.062884 
L 390.504 20.062884 
" style="fill: none; stroke: #000000; stroke-linejoin: miter; stroke-linecap: square"/>
   </g>
   <g id="matplotlib.axis_1">
    <g id="xtick_1">
     <g id="line2d_2">
      <defs>
       <path id="m8dec1b3d1d" d="M 0 0 
L 0 -6 
" style="stroke: #1a1a1a; stroke-width: 0.8"/>
      </defs>
      <g>
       <use xlink:href="#m8dec1b3d1d" x="119.475429" y="226.351256" style="fill: #1a1a1a; stroke: #1a1a1a; stroke-width: 0.8"/>
      </g>
     </g>
    </g>
    <g id="xtick_2">
     <g id="line2d_3">
      <g>
       <use xlink:href="#m8dec1b3d1d" x="199.189714" y="226.351256" style="fill: #1a1a1a; stroke: #1a1a1a; stroke-width: 0.8"/>
      </g>
     </g>
    </g>
    <g id="xtick_3">
     <g id="line2d_4">
      <g>
       <use xlink:href="#m8dec1b3d1d" x="278.904" y="226.351256" style="fill: #1a1a1a; stroke: #1a1a1a; stroke-width: 0.8"/>
      </g>
     </g>
    </g>
    <g id="xtick_4">
     <g id="line2d_5">
      <g>
       <use xlink:href="#m8dec1b3d1d" x="358.618286" y="226.351256" style="fill: #1a1a1a; stroke: #1a1a1a; stroke-width: 0.8"/>
      </g>
     </g>
    </g>
    <g id="xtick_5">
     <g id="line2d_6">
      <defs>
       <path id="m131efc0c90" d="M 0 0 
L 0 -3 
" style="stroke: #1a1a1a; stroke-width: 0.6"/>
      </defs>
      <g>
       <use xlink:href="#m131efc0c90" x="55.704" y="226.351256" style="fill: #1a1a1a; stroke: #1a1a1a; stroke-width: 0.6"/>
      </g>
     </g>
    </g>
    <g id="xtick_6">
     <g id="line2d_7">
      <g>
       <use xlink:href="#m131efc0c90" x="71.646857" y="226.351256" style="fill: #1a1a1a; stroke: #1a1a1a; stroke-width: 0.6"/>
      </g>
     </g>
    </g>
    <g id="xtick_7">
     <g id="line2d_8">
      <g>
       <use xlink:href="#m131efc0c90" x="87.589714" y="226.351256" style="fill: #1a1a1a; stroke: #1a1a1a; stroke-width: 0.6"/>
      </g>
     </g>
    </g>
    <g id="xtick_8">
     <g id="line2d_9">
      <g>
       <use xlink:href="#m131efc0c90" x="103.532571" y="226.351256" style="fill: #1a1a1a; stroke: #1a1a1a; stroke-width: 0.6"/>
      </g>
     </g>
    </g>
    <g id="xtick_9">
     <g id="line2d_10">
      <g>
       <use xlink:href="#m131efc0c90" x="135.418286" y="226.351256" style="fill: #1a1a1a; stroke: #1a1a1a; stroke-width: 0.6"/>
      </g>
     </g>
    </g>
    <g id="xtick_10">
     <g id="line2d_11">
      <g>
       <use xlink:href="#m131efc0c90" x="151.361143" y="226.351256" style="fill: #1a1a1a; stroke: #1a1a1a; stroke-width: 0.6"/>
      </g>
     </g>
    </g>
    <g id="xtick_11">
     <g id="line2d_12">
      <g>
       <use xlink:href="#m131efc0c90" x="167.304" y="226.351256" style="fill: #1a1a1a; stroke: #1a1a1a; stroke-width: 0.6"/>
      </g>
     </g>
    </g>
    <g id="xtick_12">
     <g id="line2d_13">
      <g>
       <use xlink:href="#m131efc0c90" x="183.246857" y="226.351256" style="fill: #1a1a1a; stroke: #1a1a1a; stroke-width: 0.6"/>
      </g>
     </g>
    </g>
    <g id="xtick_13">
     <g id="line2d_14">
      <g>
       <use xlink:href="#m131efc0c90" x="215.132571" y="226.351256" style="fill: #1a1a1a; stroke: #1a1a1a; stroke-width: 0.6"/>
      </g>
     </g>
    </g>
    <g id="xtick_14">
     <g id="line2d_15">
      <g>
       <use xlink:href="#m131efc0c90" x="231.075429" y="226.351256" style="fill: #1a1a1a; stroke: #1a1a1a; stroke-width: 0.6"/>
      </g>
     </g>
    </g>
    <g id="xtick_15">
     <g id="line2d_16">
      <g>
       <use xlink:href="#m131efc0c90" x="247.018286" y="226.351256" style="fill: #1a1a1a; stroke: #1a1a1a; stroke-width: 0.6"/>
      </g>
     </g>
    </g>
    <g id="xtick_16">
     <g id="line2d_17">
      <g>
       <use xlink:href="#m131efc0c90" x="262.961143" y="226.351256" style="fill: #1a1a1a; stroke: #1a1a1a; stroke-width: 0.6"/>
      </g>
     </g>
    </g>
    <g id="xtick_17">
     <g id="line2d_18">
      <g>
       <use xlink:href="#m131efc0c90" x="294.846857" y="226.351256" style="fill: #1a1a1a; stroke: #1a1a1a; stroke-width: 0.6"/>
      </g>
     </g>
    </g>
    <g id="xtick_18">
     <g id="line2d_19">
      <g>
       <use xlink:href="#m131efc0c90" x="310.789714" y="226.351256" style="fill: #1a1a1a; stroke: #1a1a1a; stroke-width: 0.6"/>
      </g>
     </g>
    </g>
    <g id="xtick_19">
     <g id="line2d_20">
      <g>
       <use xlink:href="#m131efc0c90" x="326.732571" y="226.351256" style="fill: #1a1a1a; stroke: #1a1a1a; stroke-width: 0.6"/>
      </g>
     </g>
    </g>
    <g id="xtick_20">
     <g id="line2d_21">
      <g>
       <use xlink:href="#m131efc0c90" x="342.675429" y="226.351256" style="fill: #1a1a1a; stroke: #1a1a1a; stroke-width: 0.6"/>
      </g>
     </g>
    </g>
    <g id="xtick_21">
     <g id="line2d_22">
      <g>
       <use xlink:href="#m131efc0c90" x="374.561143" y="226.351256" style="fill: #1a1a1a; stroke: #1a1a1a; stroke-width: 0.6"/>
      </g>
     </g>
    </g>
    <g id="xtick_22">
     <g id="line2d_23">
      <g>
       <use xlink:href="#m131efc0c90" x="390.504" y="226.351256" style="fill: #1a1a1a; stroke: #1a1a1a; stroke-width: 0.6"/>
      </g>
     </g>
    </g>
   </g>
   <g id="matplotlib.axis_2">
    <g id="ytick_1">
     <g id="line2d_24">
      <defs>
       <path id="mc947610920" d="M 0 0 
L 6 0 
" style="stroke: #1a1a1a; stroke-width: 0.8"/>
      </defs>
      <g>
       <use xlink:href="#mc947610920" x="55.704" y="226.351256" style="fill: #1a1a1a; stroke: #1a1a1a; stroke-width: 0.8"/>
      </g>
     </g>
     <g id="text_1">
      <!-- $\mathdefault{0}$ -->
      <g style="fill: #1a1a1a" transform="translate(43.204 231.556725) scale(0.15 -0.15)">
       <defs>
        <path id="LatinModernMath-Regular-30" d="M 2944 2048 
C 2944 2560 2912 3072 2688 3546 
C 2394 4160 1869 4262 1600 4262 
C 1216 4262 749 4096 486 3501 
C 282 3059 250 2560 250 2048 
C 250 1568 275 992 538 506 
C 813 -13 1280 -141 1594 -141 
C 1939 -141 2426 -6 2707 602 
C 2912 1043 2944 1542 2944 2048 
z
M 2413 2125 
C 2413 1645 2413 1210 2342 800 
C 2246 192 1882 0 1594 0 
C 1344 0 966 160 851 774 
C 781 1158 781 1747 781 2125 
C 781 2534 781 2957 832 3302 
C 954 4064 1434 4122 1594 4122 
C 1805 4122 2227 4006 2349 3373 
C 2413 3014 2413 2528 2413 2125 
z
" transform="scale(0.015625)"/>
       </defs>
       <use xlink:href="#LatinModernMath-Regular-30" transform="translate(0 0.40625)"/>
      </g>
     </g>
    </g>
    <g id="ytick_2">
     <g id="line2d_25">
      <g>
       <use xlink:href="#mc947610920" x="55.704" y="183.396013" style="fill: #1a1a1a; stroke: #1a1a1a; stroke-width: 0.8"/>
      </g>
     </g>
     <g id="text_2">
      <!-- $\mathdefault{200}$ -->
      <g style="fill: #1a1a1a" transform="translate(28.204 188.601481) scale(0.15 -0.15)">
       <defs>
        <path id="LatinModernMath-Regular-32" d="M 2874 1114 
L 2714 1114 
C 2682 922 2637 640 2573 544 
C 2528 493 2106 493 1965 493 
L 813 493 
L 1491 1152 
C 2490 2035 2874 2381 2874 3021 
C 2874 3750 2298 4262 1517 4262 
C 794 4262 320 3674 320 3104 
C 320 2746 640 2746 659 2746 
C 768 2746 992 2822 992 3085 
C 992 3251 877 3418 653 3418 
C 602 3418 589 3418 570 3411 
C 717 3827 1062 4064 1434 4064 
C 2016 4064 2291 3546 2291 3021 
C 2291 2509 1971 2003 1619 1606 
L 390 237 
C 320 166 320 154 320 0 
L 2694 0 
L 2874 1114 
z
" transform="scale(0.015625)"/>
       </defs>
       <use xlink:href="#LatinModernMath-Regular-32" transform="translate(0 0.40625)"/>
       <use xlink:href="#LatinModernMath-Regular-30" transform="translate(49.999985 0.40625)"/>
       <use xlink:href="#LatinModernMath-Regular-30" transform="translate(99.999969 0.40625)"/>
      </g>
     </g>
    </g>
    <g id="ytick_3">
     <g id="line2d_26">
      <g>
       <use xlink:href="#mc947610920" x="55.704" y="140.440769" style="fill: #1a1a1a; stroke: #1a1a1a; stroke-width: 0.8"/>
      </g>
     </g>
     <g id="text_3">
      <!-- $\mathdefault{400}$ -->
      <g style="fill: #1a1a1a" transform="translate(28.204 145.646238) scale(0.15 -0.15)">
       <defs>
        <path id="LatinModernMath-Regular-34" d="M 3014 1056 
L 3014 1254 
L 2374 1254 
L 2374 4166 
C 2374 4294 2374 4333 2272 4333 
C 2214 4333 2195 4333 2144 4256 
L 179 1254 
L 179 1056 
L 1882 1056 
L 1882 499 
C 1882 269 1869 198 1395 198 
L 1261 198 
L 1261 0 
C 1523 19 1856 19 2125 19 
C 2394 19 2733 19 2995 0 
L 2995 198 
L 2861 198 
C 2387 198 2374 269 2374 499 
L 2374 1056 
L 3014 1056 
z
M 1920 1254 
L 358 1254 
L 1920 3642 
L 1920 1254 
z
" transform="scale(0.015625)"/>
       </defs>
       <use xlink:href="#LatinModernMath-Regular-34" transform="translate(0 0.296875)"/>
       <use xlink:href="#LatinModernMath-Regular-30" transform="translate(49.999985 0.296875)"/>
       <use xlink:href="#LatinModernMath-Regular-30" transform="translate(99.999969 0.296875)"/>
      </g>
     </g>
    </g>
    <g id="ytick_4">
     <g id="line2d_27">
      <g>
       <use xlink:href="#mc947610920" x="55.704" y="97.485526" style="fill: #1a1a1a; stroke: #1a1a1a; stroke-width: 0.8"/>
      </g>
     </g>
     <g id="text_4">
      <!-- $\mathdefault{600}$ -->
      <g style="fill: #1a1a1a" transform="translate(28.204 102.690995) scale(0.15 -0.15)">
       <defs>
        <path id="LatinModernMath-Regular-36" d="M 2925 1306 
C 2925 2118 2355 2733 1645 2733 
C 1210 2733 973 2406 845 2099 
L 845 2253 
C 845 3872 1638 4102 1965 4102 
C 2118 4102 2387 4064 2528 3846 
C 2432 3846 2176 3846 2176 3558 
C 2176 3360 2330 3264 2470 3264 
C 2573 3264 2765 3322 2765 3571 
C 2765 3955 2483 4262 1952 4262 
C 1133 4262 269 3437 269 2022 
C 269 314 1011 -141 1606 -141 
C 2317 -141 2925 461 2925 1306 
z
M 2349 1312 
C 2349 1005 2349 685 2240 454 
C 2048 70 1754 38 1606 38 
C 1203 38 1011 422 973 518 
C 858 819 858 1331 858 1446 
C 858 1946 1062 2586 1638 2586 
C 1741 2586 2035 2586 2234 2189 
C 2349 1952 2349 1626 2349 1312 
z
" transform="scale(0.015625)"/>
       </defs>
       <use xlink:href="#LatinModernMath-Regular-36" transform="translate(0 0.40625)"/>
       <use xlink:href="#LatinModernMath-Regular-30" transform="translate(49.999985 0.40625)"/>
       <use xlink:href="#LatinModernMath-Regular-30" transform="translate(99.999969 0.40625)"/>
      </g>
     </g>
    </g>
    <g id="ytick_5">
     <g id="line2d_28">
      <g>
       <use xlink:href="#mc947610920" x="55.704" y="54.530283" style="fill: #1a1a1a; stroke: #1a1a1a; stroke-width: 0.8"/>
      </g>
     </g>
     <g id="text_5">
      <!-- $\mathdefault{800}$ -->
      <g style="fill: #1a1a1a" transform="translate(28.204 59.735752) scale(0.15 -0.15)">
       <defs>
        <path id="LatinModernMath-Regular-38" d="M 2925 1075 
C 2925 1306 2854 1594 2611 1862 
C 2490 1997 2387 2061 1978 2317 
C 2438 2554 2752 2886 2752 3309 
C 2752 3898 2182 4262 1600 4262 
C 960 4262 442 3789 442 3194 
C 442 3078 454 2790 723 2490 
C 794 2413 1030 2253 1190 2144 
C 819 1958 269 1600 269 966 
C 269 288 922 -141 1594 -141 
C 2317 -141 2925 390 2925 1075 
z
M 2470 3309 
C 2470 2944 2221 2637 1837 2413 
L 1043 2925 
C 749 3117 723 3334 723 3443 
C 723 3834 1139 4102 1594 4102 
C 2061 4102 2470 3770 2470 3309 
z
M 2605 845 
C 2605 371 2125 38 1600 38 
C 1050 38 589 435 589 966 
C 589 1338 794 1747 1338 2048 
L 2125 1549 
C 2304 1427 2605 1235 2605 845 
z
" transform="scale(0.015625)"/>
       </defs>
       <use xlink:href="#LatinModernMath-Regular-38" transform="translate(0 0.40625)"/>
       <use xlink:href="#LatinModernMath-Regular-30" transform="translate(49.999985 0.40625)"/>
       <use xlink:href="#LatinModernMath-Regular-30" transform="translate(99.999969 0.40625)"/>
      </g>
     </g>
    </g>
    <g id="ytick_6">
     <g id="line2d_29">
      <defs>
       <path id="m5f9d1e6504" d="M 0 0 
L 3 0 
" style="stroke: #1a1a1a; stroke-width: 0.6"/>
      </defs>
      <g>
       <use xlink:href="#m5f9d1e6504" x="55.704" y="215.612445" style="fill: #1a1a1a; stroke: #1a1a1a; stroke-width: 0.6"/>
      </g>
     </g>
    </g>
    <g id="ytick_7">
     <g id="line2d_30">
      <g>
       <use xlink:href="#m5f9d1e6504" x="55.704" y="204.873634" style="fill: #1a1a1a; stroke: #1a1a1a; stroke-width: 0.6"/>
      </g>
     </g>
    </g>
    <g id="ytick_8">
     <g id="line2d_31">
      <g>
       <use xlink:href="#m5f9d1e6504" x="55.704" y="194.134823" style="fill: #1a1a1a; stroke: #1a1a1a; stroke-width: 0.6"/>
      </g>
     </g>
    </g>
    <g id="ytick_9">
     <g id="line2d_32">
      <g>
       <use xlink:href="#m5f9d1e6504" x="55.704" y="172.657202" style="fill: #1a1a1a; stroke: #1a1a1a; stroke-width: 0.6"/>
      </g>
     </g>
    </g>
    <g id="ytick_10">
     <g id="line2d_33">
      <g>
       <use xlink:href="#m5f9d1e6504" x="55.704" y="161.918391" style="fill: #1a1a1a; stroke: #1a1a1a; stroke-width: 0.6"/>
      </g>
     </g>
    </g>
    <g id="ytick_11">
     <g id="line2d_34">
      <g>
       <use xlink:href="#m5f9d1e6504" x="55.704" y="151.17958" style="fill: #1a1a1a; stroke: #1a1a1a; stroke-width: 0.6"/>
      </g>
     </g>
    </g>
    <g id="ytick_12">
     <g id="line2d_35">
      <g>
       <use xlink:href="#m5f9d1e6504" x="55.704" y="129.701959" style="fill: #1a1a1a; stroke: #1a1a1a; stroke-width: 0.6"/>
      </g>
     </g>
    </g>
    <g id="ytick_13">
     <g id="line2d_36">
      <g>
       <use xlink:href="#m5f9d1e6504" x="55.704" y="118.963148" style="fill: #1a1a1a; stroke: #1a1a1a; stroke-width: 0.6"/>
      </g>
     </g>
    </g>
    <g id="ytick_14">
     <g id="line2d_37">
      <g>
       <use xlink:href="#m5f9d1e6504" x="55.704" y="108.224337" style="fill: #1a1a1a; stroke: #1a1a1a; stroke-width: 0.6"/>
      </g>
     </g>
    </g>
    <g id="ytick_15">
     <g id="line2d_38">
      <g>
       <use xlink:href="#m5f9d1e6504" x="55.704" y="86.746716" style="fill: #1a1a1a; stroke: #1a1a1a; stroke-width: 0.6"/>
      </g>
     </g>
    </g>
    <g id="ytick_16">
     <g id="line2d_39">
      <g>
       <use xlink:href="#m5f9d1e6504" x="55.704" y="76.007905" style="fill: #1a1a1a; stroke: #1a1a1a; stroke-width: 0.6"/>
      </g>
     </g>
    </g>
    <g id="ytick_17">
     <g id="line2d_40">
      <g>
       <use xlink:href="#m5f9d1e6504" x="55.704" y="65.269094" style="fill: #1a1a1a; stroke: #1a1a1a; stroke-width: 0.6"/>
      </g>
     </g>
    </g>
    <g id="ytick_18">
     <g id="line2d_41">
      <g>
       <use xlink:href="#m5f9d1e6504" x="55.704" y="43.791472" style="fill: #1a1a1a; stroke: #1a1a1a; stroke-width: 0.6"/>
      </g>
     </g>
    </g>
    <g id="ytick_19">
     <g id="line2d_42">
      <g>
       <use xlink:href="#m5f9d1e6504" x="55.704" y="33.052662" style="fill: #1a1a1a; stroke: #1a1a1a; stroke-width: 0.6"/>
      </g>
     </g>
    </g>
    <g id="ytick_20">
     <g id="line2d_43">
      <g>
       <use xlink:href="#m5f9d1e6504" x="55.704" y="22.313851" style="fill: #1a1a1a; stroke: #1a1a1a; stroke-width: 0.6"/>
      </g>
     </g>
    </g>
    <g id="text_6">
     <!-- Hits in the LMN per $4.2\times 10^{-1}\,\,eV/c^2$ -->
     <g style="fill: #1a1a1a" transform="translate(19.104 225.63107) rotate(-90) scale(0.124 -0.124)">
      <defs>
       <path id="LatinModernMath-Regular-48" d="M 4582 0 
L 4582 198 
L 4429 198 
C 3936 198 3923 269 3923 499 
L 3923 3872 
C 3923 4102 3936 4173 4429 4173 
L 4582 4173 
L 4582 4371 
C 4358 4352 3885 4352 3642 4352 
C 3398 4352 2918 4352 2694 4371 
L 2694 4173 
L 2848 4173 
C 3341 4173 3354 4102 3354 3872 
L 3354 2374 
L 1440 2374 
L 1440 3872 
C 1440 4102 1453 4173 1946 4173 
L 2099 4173 
L 2099 4371 
C 1875 4352 1402 4352 1158 4352 
C 915 4352 435 4352 211 4371 
L 211 4173 
L 365 4173 
C 858 4173 870 4102 870 3872 
L 870 499 
C 870 269 858 198 365 198 
L 211 198 
L 211 0 
C 435 19 909 19 1152 19 
C 1395 19 1875 19 2099 0 
L 2099 198 
L 1946 198 
C 1453 198 1440 269 1440 499 
L 1440 2176 
L 3354 2176 
L 3354 499 
C 3354 269 3341 198 2848 198 
L 2694 198 
L 2694 0 
C 2918 19 3392 19 3635 19 
C 3878 19 4358 19 4582 0 
z
" transform="scale(0.015625)"/>
       <path id="LatinModernMath-Regular-69" d="M 1581 0 
L 1581 198 
C 1158 198 1133 230 1133 480 
L 1133 2829 
L 237 2758 
L 237 2560 
C 653 2560 710 2522 710 2208 
L 710 486 
C 710 198 640 198 211 198 
L 211 0 
L 915 19 
C 1139 19 1363 6 1581 0 
z
M 1229 3866 
C 1229 4038 1082 4205 890 4205 
C 672 4205 544 4026 544 3866 
C 544 3693 691 3526 883 3526 
C 1101 3526 1229 3706 1229 3866 
z
" transform="scale(0.015625)"/>
       <path id="LatinModernMath-Regular-74" d="M 2125 794 
L 2125 1158 
L 1965 1158 
L 1965 806 
C 1965 333 1773 90 1536 90 
C 1107 90 1107 672 1107 781 
L 1107 2560 
L 2022 2560 
L 2022 2758 
L 1107 2758 
L 1107 3936 
L 947 3936 
C 941 3411 749 2726 122 2701 
L 122 2560 
L 666 2560 
L 666 794 
C 666 6 1261 -70 1491 -70 
C 1946 -70 2125 384 2125 794 
z
" transform="scale(0.015625)"/>
       <path id="LatinModernMath-Regular-73" d="M 2304 819 
C 2304 1158 2112 1350 2035 1427 
C 1824 1632 1574 1683 1306 1734 
C 947 1805 518 1888 518 2259 
C 518 2483 685 2746 1235 2746 
C 1939 2746 1971 2170 1984 1971 
C 1990 1914 2061 1914 2061 1914 
C 2144 1914 2144 1946 2144 2067 
L 2144 2714 
C 2144 2822 2144 2867 2074 2867 
C 2042 2867 2029 2867 1946 2790 
C 1926 2765 1862 2707 1837 2688 
C 1594 2867 1331 2867 1235 2867 
C 454 2867 211 2438 211 2080 
C 211 1856 314 1677 486 1536 
C 691 1370 870 1331 1331 1242 
C 1472 1216 1997 1114 1997 653 
C 1997 326 1773 70 1274 70 
C 736 70 506 435 384 979 
C 365 1062 358 1088 294 1088 
C 211 1088 211 1043 211 928 
L 211 83 
C 211 -26 211 -70 282 -70 
C 314 -70 320 -64 442 58 
C 454 70 454 83 570 205 
C 851 -64 1139 -70 1274 -70 
C 2010 -70 2304 358 2304 819 
z
" transform="scale(0.015625)"/>
       <path id="LatinModernMath-Regular-20" transform="scale(0.015625)"/>
       <path id="LatinModernMath-Regular-6e" d="M 3424 0 
L 3424 198 
C 3091 198 2931 198 2925 390 
L 2925 1613 
C 2925 2163 2925 2362 2726 2592 
C 2637 2701 2426 2829 2054 2829 
C 1587 2829 1286 2554 1107 2157 
L 1107 2829 
L 205 2758 
L 205 2560 
C 653 2560 704 2515 704 2202 
L 704 486 
C 704 198 634 198 205 198 
L 205 0 
L 928 19 
L 1645 0 
L 1645 198 
C 1216 198 1146 198 1146 486 
L 1146 1664 
C 1146 2330 1600 2688 2010 2688 
C 2413 2688 2483 2342 2483 1978 
L 2483 486 
C 2483 198 2413 198 1984 198 
L 1984 0 
L 2707 19 
L 3424 0 
z
" transform="scale(0.015625)"/>
       <path id="LatinModernMath-Regular-68" d="M 3424 0 
L 3424 198 
C 3091 198 2931 198 2925 390 
L 2925 1613 
C 2925 2163 2925 2362 2726 2592 
C 2637 2701 2426 2829 2054 2829 
C 1517 2829 1235 2445 1133 2214 
L 1126 2214 
L 1126 4442 
L 205 4371 
L 205 4173 
C 653 4173 704 4128 704 3814 
L 704 486 
C 704 198 634 198 205 198 
L 205 0 
L 928 19 
L 1645 0 
L 1645 198 
C 1216 198 1146 198 1146 486 
L 1146 1664 
C 1146 2330 1600 2688 2010 2688 
C 2413 2688 2483 2342 2483 1978 
L 2483 486 
C 2483 198 2413 198 1984 198 
L 1984 0 
L 2707 19 
L 3424 0 
z
" transform="scale(0.015625)"/>
       <path id="LatinModernMath-Regular-65" d="M 2656 762 
C 2656 826 2605 838 2573 838 
C 2515 838 2502 800 2490 749 
C 2266 90 1690 90 1626 90 
C 1306 90 1050 282 902 518 
C 710 826 710 1248 710 1478 
L 2496 1478 
C 2637 1478 2656 1478 2656 1613 
C 2656 2246 2310 2867 1510 2867 
C 768 2867 179 2208 179 1408 
C 179 550 851 -70 1587 -70 
C 2368 -70 2656 640 2656 762 
z
M 2234 1613 
L 717 1613 
C 755 2566 1293 2726 1510 2726 
C 2170 2726 2234 1862 2234 1613 
z
" transform="scale(0.015625)"/>
       <path id="LatinModernMath-Regular-4c" d="M 3725 1651 
L 3565 1651 
C 3494 998 3405 198 2278 198 
L 1754 198 
C 1453 198 1440 243 1440 454 
L 1440 3866 
C 1440 4083 1440 4173 2048 4173 
L 2259 4173 
L 2259 4371 
C 2029 4352 1446 4352 1184 4352 
C 934 4352 435 4352 211 4371 
L 211 4173 
L 365 4173 
C 858 4173 870 4102 870 3872 
L 870 499 
C 870 269 858 198 365 198 
L 211 198 
L 211 0 
L 3546 0 
L 3725 1651 
z
" transform="scale(0.015625)"/>
       <path id="LatinModernMath-Regular-4d" d="M 5626 0 
L 5626 198 
L 5472 198 
C 4979 198 4966 269 4966 499 
L 4966 3872 
C 4966 4102 4979 4173 5472 4173 
L 5626 4173 
L 5626 4371 
L 4544 4371 
C 4378 4371 4378 4365 4333 4250 
L 2931 646 
L 1542 4230 
C 1485 4371 1466 4371 1318 4371 
L 237 4371 
L 237 4173 
L 390 4173 
C 883 4173 896 4102 896 3872 
L 896 672 
C 896 499 896 198 237 198 
L 237 0 
L 986 19 
L 1734 0 
L 1734 198 
C 1075 198 1075 499 1075 672 
L 1075 4122 
L 1082 4122 
L 2624 141 
C 2656 58 2688 0 2752 0 
C 2822 0 2842 51 2867 122 
L 4442 4173 
L 4448 4173 
L 4448 499 
C 4448 269 4435 198 3942 198 
L 3789 198 
L 3789 0 
C 4026 19 4461 19 4710 19 
C 4960 19 5389 19 5626 0 
z
" transform="scale(0.015625)"/>
       <path id="LatinModernMath-Regular-4e" d="M 4582 4173 
L 4582 4371 
L 3834 4352 
L 3085 4371 
L 3085 4173 
C 3744 4173 3744 3872 3744 3699 
L 3744 966 
L 1485 4288 
C 1427 4365 1421 4371 1299 4371 
L 211 4371 
L 211 4173 
L 397 4173 
C 493 4173 621 4166 717 4160 
C 864 4141 870 4134 870 4013 
L 870 672 
C 870 499 870 198 211 198 
L 211 0 
L 960 19 
L 1709 0 
L 1709 198 
C 1050 198 1050 499 1050 672 
L 1050 4000 
C 1082 3968 1088 3962 1114 3923 
L 3725 83 
C 3782 6 3789 0 3834 0 
C 3923 0 3923 45 3923 166 
L 3923 3699 
C 3923 3872 3923 4173 4582 4173 
z
" transform="scale(0.015625)"/>
       <path id="LatinModernMath-Regular-70" d="M 3334 1382 
C 3334 2195 2714 2829 1997 2829 
C 1498 2829 1229 2547 1101 2406 
L 1101 2829 
L 179 2758 
L 179 2560 
C 634 2560 678 2522 678 2240 
L 678 -755 
C 678 -1043 608 -1043 179 -1043 
L 179 -1242 
L 896 -1222 
L 1619 -1242 
L 1619 -1043 
C 1190 -1043 1120 -1043 1120 -755 
L 1120 320 
L 1120 378 
C 1152 275 1421 -70 1907 -70 
C 2669 -70 3334 557 3334 1382 
z
M 2803 1382 
C 2803 608 2355 70 1882 70 
C 1626 70 1382 198 1210 461 
C 1120 595 1120 602 1120 730 
L 1120 2157 
C 1306 2483 1619 2669 1946 2669 
C 2413 2669 2803 2106 2803 1382 
z
" transform="scale(0.015625)"/>
       <path id="LatinModernMath-Regular-72" d="M 2330 2438 
C 2330 2643 2131 2829 1856 2829 
C 1389 2829 1158 2400 1069 2125 
L 1069 2829 
L 179 2758 
L 179 2560 
C 627 2560 678 2515 678 2202 
L 678 486 
C 678 198 608 198 179 198 
L 179 0 
L 909 19 
C 1165 19 1466 19 1722 0 
L 1722 198 
L 1587 198 
C 1114 198 1101 269 1101 499 
L 1101 1485 
C 1101 2118 1370 2688 1856 2688 
C 1901 2688 1914 2688 1926 2682 
C 1907 2675 1779 2598 1779 2432 
C 1779 2253 1914 2157 2054 2157 
C 2170 2157 2330 2234 2330 2438 
z
" transform="scale(0.015625)"/>
       <path id="LatinModernMath-Regular-2e" d="M 1229 339 
C 1229 525 1075 678 890 678 
C 704 678 550 525 550 339 
C 550 154 704 0 890 0 
C 1075 0 1229 154 1229 339 
z
" transform="scale(0.015625)"/>
       <path id="LatinModernMath-Regular-d7" d="M 3994 96 
C 4045 141 4045 224 3994 275 
L 2669 1600 
L 3994 2925 
C 4045 2976 4045 3059 3994 3104 
C 3949 3155 3866 3155 3814 3104 
L 2490 1779 
L 1165 3104 
C 1114 3155 1030 3155 986 3104 
C 934 3059 934 2976 986 2925 
L 2310 1600 
L 986 275 
C 934 224 934 141 986 96 
C 1030 45 1114 45 1165 96 
L 2490 1421 
L 3814 96 
C 3866 45 3949 45 3994 96 
z
" transform="scale(0.015625)"/>
       <path id="LatinModernMath-Regular-31" d="M 2682 0 
L 2682 198 
L 2477 198 
C 1901 198 1882 269 1882 506 
L 1882 4096 
C 1882 4250 1882 4262 1734 4262 
C 1338 3853 774 3853 570 3853 
L 570 3654 
C 698 3654 1075 3654 1408 3821 
L 1408 506 
C 1408 275 1389 198 813 198 
L 608 198 
L 608 0 
C 832 19 1389 19 1645 19 
C 1901 19 2458 19 2682 0 
z
" transform="scale(0.015625)"/>
       <path id="LatinModernMath-Regular-2212" d="M 4621 1600 
C 4621 1670 4563 1728 4493 1728 
L 486 1728 
C 416 1728 358 1670 358 1600 
C 358 1530 416 1472 486 1472 
L 4493 1472 
C 4563 1472 4621 1530 4621 1600 
z
" transform="scale(0.015625)"/>
       <path id="LatinModernMath-Regular-56" d="M 4672 4173 
L 4672 4371 
C 4474 4358 4218 4352 4051 4352 
L 3322 4371 
L 3322 4173 
C 3654 4166 3789 4000 3789 3853 
C 3789 3802 3770 3763 3757 3725 
L 2586 640 
L 1363 3872 
C 1325 3962 1325 3987 1325 3987 
C 1325 4173 1690 4173 1850 4173 
L 1850 4371 
C 1619 4352 1178 4352 934 4352 
L 122 4371 
L 122 4173 
C 538 4173 659 4173 749 3930 
L 2234 0 
C 2278 -122 2310 -141 2394 -141 
C 2502 -141 2515 -109 2547 -19 
L 3974 3744 
C 4064 3981 4237 4166 4672 4173 
z
" transform="scale(0.015625)"/>
       <path id="LatinModernMath-Regular-2f" d="M 2848 4672 
C 2848 4742 2790 4800 2720 4800 
C 2662 4800 2618 4768 2598 4717 
L 365 -1427 
C 358 -1440 358 -1459 358 -1472 
C 358 -1542 416 -1600 486 -1600 
C 544 -1600 589 -1568 608 -1517 
L 2842 4627 
C 2848 4640 2848 4659 2848 4672 
z
" transform="scale(0.015625)"/>
       <path id="LatinModernMath-Regular-63" d="M 2656 762 
C 2656 826 2592 826 2573 826 
C 2515 826 2502 800 2490 762 
C 2304 166 1888 90 1651 90 
C 1312 90 749 365 749 1395 
C 749 2438 1274 2707 1613 2707 
C 1670 2707 2074 2701 2298 2470 
C 2035 2451 1997 2259 1997 2176 
C 1997 2010 2112 1882 2291 1882 
C 2458 1882 2586 1990 2586 2182 
C 2586 2618 2099 2867 1606 2867 
C 806 2867 218 2176 218 1382 
C 218 563 851 -70 1594 -70 
C 2451 -70 2656 698 2656 762 
z
" transform="scale(0.015625)"/>
      </defs>
      <use xlink:href="#LatinModernMath-Regular-48" transform="translate(0 0.21875)"/>
      <use xlink:href="#LatinModernMath-Regular-69" transform="translate(74.999985 0.21875)"/>
      <use xlink:href="#LatinModernMath-Regular-74" transform="translate(102.799973 0.21875)"/>
      <use xlink:href="#LatinModernMath-Regular-73" transform="translate(141.699966 0.21875)"/>
      <use xlink:href="#LatinModernMath-Regular-20" transform="translate(181.09996 0.21875)"/>
      <use xlink:href="#LatinModernMath-Regular-69" transform="translate(214.299957 0.21875)"/>
      <use xlink:href="#LatinModernMath-Regular-6e" transform="translate(242.099945 0.21875)"/>
      <use xlink:href="#LatinModernMath-Regular-20" transform="translate(297.699936 0.21875)"/>
      <use xlink:href="#LatinModernMath-Regular-74" transform="translate(330.899933 0.21875)"/>
      <use xlink:href="#LatinModernMath-Regular-68" transform="translate(369.799927 0.21875)"/>
      <use xlink:href="#LatinModernMath-Regular-65" transform="translate(425.399918 0.21875)"/>
      <use xlink:href="#LatinModernMath-Regular-20" transform="translate(469.799911 0.21875)"/>
      <use xlink:href="#LatinModernMath-Regular-4c" transform="translate(502.999908 0.21875)"/>
      <use xlink:href="#LatinModernMath-Regular-4d" transform="translate(565.499893 0.21875)"/>
      <use xlink:href="#LatinModernMath-Regular-4e" transform="translate(657.199875 0.21875)"/>
      <use xlink:href="#LatinModernMath-Regular-20" transform="translate(732.19986 0.21875)"/>
      <use xlink:href="#LatinModernMath-Regular-70" transform="translate(765.399857 0.21875)"/>
      <use xlink:href="#LatinModernMath-Regular-65" transform="translate(820.999847 0.21875)"/>
      <use xlink:href="#LatinModernMath-Regular-72" transform="translate(865.399841 0.21875)"/>
      <use xlink:href="#LatinModernMath-Regular-20" transform="translate(904.599838 0.21875)"/>
      <use xlink:href="#LatinModernMath-Regular-34" transform="translate(937.799835 0.21875)"/>
      <use xlink:href="#LatinModernMath-Regular-2e" transform="translate(987.79982 0.21875)"/>
      <use xlink:href="#LatinModernMath-Regular-32" transform="translate(1015.599808 0.21875)"/>
      <use xlink:href="#LatinModernMath-Regular-d7" transform="translate(1083.158386 0.21875)"/>
      <use xlink:href="#LatinModernMath-Regular-31" transform="translate(1178.516968 0.21875)"/>
      <use xlink:href="#LatinModernMath-Regular-30" transform="translate(1228.516953 0.21875)"/>
      <use xlink:href="#LatinModernMath-Regular-2212" transform="translate(1279.271078 30.384375) scale(0.7)"/>
      <use xlink:href="#LatinModernMath-Regular-31" transform="translate(1333.731069 30.384375) scale(0.7)"/>
      <use xlink:href="#LatinModernMath-Regular-65" transform="translate(1400.150654 0.21875)"/>
      <use xlink:href="#LatinModernMath-Regular-56" transform="translate(1444.550648 0.21875)"/>
      <use xlink:href="#LatinModernMath-Regular-2f" transform="translate(1519.550633 0.21875)"/>
      <use xlink:href="#LatinModernMath-Regular-63" transform="translate(1569.550618 0.21875)"/>
      <use xlink:href="#LatinModernMath-Regular-32" transform="translate(1614.704752 30.384375) scale(0.7)"/>
     </g>
    </g>
   </g>
   <g id="text_7">
    <!-- $\mathrm{\mathbf{plothist}}$ $\mathrm{simulation}$ -->
    <g style="fill: #1a1a1a" transform="translate(291.744 15.6) scale(0.12 -0.12)">
     <defs>
      <path id="Cmb10-70" d="M 91 -1241 
L 91 -916 
L 531 -916 
L 531 2394 
Q 531 2503 91 2503 
L 91 2828 
L 1247 2881 
L 1247 2619 
Q 1600 2881 2047 2881 
Q 2366 2881 2608 2765 
Q 2850 2650 3011 2453 
Q 3172 2256 3256 1987 
Q 3341 1719 3341 1422 
Q 3341 1000 3170 667 
Q 3000 334 2679 148 
Q 2359 -38 1941 -38 
Q 1566 -38 1288 184 
L 1288 -916 
L 1728 -916 
L 1728 -1241 
L 91 -1241 
z
M 1288 581 
Q 1519 219 1881 219 
Q 2219 219 2358 609 
Q 2497 1000 2497 1422 
Q 2497 1825 2376 2211 
Q 2256 2597 1953 2597 
Q 1763 2597 1588 2508 
Q 1413 2419 1288 2259 
L 1288 581 
z
" transform="scale(0.015625)"/>
      <path id="Cmb10-6c" d="M 153 0 
L 153 325 
L 594 325 
L 594 3884 
Q 594 4003 469 4033 
Q 344 4063 153 4063 
L 153 4391 
L 1313 4441 
L 1313 325 
L 1753 325 
L 1753 0 
L 153 0 
z
" transform="scale(0.015625)"/>
      <path id="Cmb10-6f" d="M 1600 -38 
Q 1172 -38 851 140 
Q 531 319 354 647 
Q 178 975 178 1394 
Q 178 1713 273 1991 
Q 369 2269 553 2472 
Q 738 2675 1006 2787 
Q 1275 2900 1600 2900 
Q 1928 2900 2195 2787 
Q 2463 2675 2644 2472 
Q 2825 2269 2920 1997 
Q 3016 1725 3016 1394 
Q 3016 975 2841 647 
Q 2666 319 2344 140 
Q 2022 -38 1600 -38 
z
M 1600 244 
Q 1859 244 1986 441 
Q 2113 638 2141 891 
Q 2169 1144 2169 1478 
Q 2169 1719 2156 1901 
Q 2144 2084 2092 2253 
Q 2041 2422 1922 2533 
Q 1803 2644 1600 2644 
Q 1338 2644 1209 2459 
Q 1081 2275 1053 2039 
Q 1025 1803 1025 1478 
Q 1025 1144 1053 892 
Q 1081 641 1209 442 
Q 1338 244 1600 244 
z
" transform="scale(0.015625)"/>
      <path id="Cmb10-74" d="M 513 750 
L 513 2516 
L 122 2516 
L 122 2772 
Q 416 2772 600 2976 
Q 784 3181 862 3482 
Q 941 3784 941 4063 
L 1269 4063 
L 1269 2841 
L 2028 2841 
L 2028 2516 
L 1269 2516 
L 1269 769 
Q 1269 553 1320 398 
Q 1372 244 1538 244 
Q 1688 244 1747 409 
Q 1806 575 1806 769 
L 1806 1131 
L 2131 1131 
L 2131 750 
Q 2131 563 2051 378 
Q 1972 194 1822 78 
Q 1672 -38 1472 -38 
Q 1047 -38 780 151 
Q 513 341 513 750 
z
" transform="scale(0.015625)"/>
      <path id="Cmb10-68" d="M 141 0 
L 141 325 
L 581 325 
L 581 3884 
Q 581 4003 456 4033 
Q 331 4063 141 4063 
L 141 4391 
L 1300 4441 
L 1300 2316 
Q 1450 2575 1694 2728 
Q 1938 2881 2228 2881 
Q 2541 2881 2733 2782 
Q 2925 2684 3017 2482 
Q 3109 2281 3109 1966 
L 3109 325 
L 3553 325 
L 3553 0 
L 1966 0 
L 1966 325 
L 2356 325 
L 2356 1947 
L 2356 1966 
Q 2356 2625 2150 2625 
Q 1969 2625 1817 2545 
Q 1666 2466 1558 2327 
Q 1450 2188 1394 2020 
Q 1338 1853 1338 1672 
L 1338 325 
L 1778 325 
L 1778 0 
L 141 0 
z
" transform="scale(0.015625)"/>
      <path id="Cmb10-69" d="M 153 0 
L 153 325 
L 594 325 
L 594 2322 
Q 594 2444 478 2473 
Q 363 2503 172 2503 
L 172 2828 
L 1313 2881 
L 1313 325 
L 1716 325 
L 1716 0 
L 153 0 
z
M 353 3938 
Q 353 4153 500 4300 
Q 647 4447 863 4447 
Q 1081 4447 1228 4300 
Q 1375 4153 1375 3938 
Q 1375 3725 1228 3575 
Q 1081 3425 863 3425 
Q 647 3425 500 3575 
Q 353 3725 353 3938 
z
" transform="scale(0.015625)"/>
      <path id="Cmb10-73" d="M 213 44 
L 213 934 
Q 228 994 294 1013 
L 459 1013 
Q 522 991 538 934 
Q 703 219 1259 219 
Q 1825 219 1825 684 
Q 1825 800 1765 892 
Q 1706 984 1609 1045 
Q 1513 1106 1403 1131 
L 1019 1209 
Q 672 1294 442 1508 
Q 213 1722 213 2041 
Q 213 2272 292 2440 
Q 372 2609 517 2711 
Q 663 2813 847 2856 
Q 1031 2900 1259 2900 
Q 1559 2900 1759 2791 
L 1966 2894 
L 1991 2900 
L 2069 2900 
Q 2128 2884 2144 2822 
L 2144 2119 
Q 2128 2050 2069 2034 
L 1900 2034 
Q 1834 2050 1819 2119 
Q 1819 2288 1748 2411 
Q 1678 2534 1550 2601 
Q 1422 2669 1247 2669 
Q 691 2669 691 2284 
Q 691 2144 811 2048 
Q 931 1953 1088 1913 
L 1478 1838 
Q 1713 1778 1897 1654 
Q 2081 1531 2192 1339 
Q 2303 1147 2303 909 
Q 2303 428 2022 195 
Q 1741 -38 1259 -38 
Q 897 -38 659 141 
L 391 -31 
L 366 -38 
L 294 -38 
Q 228 -22 213 44 
z
" transform="scale(0.015625)"/>
      <path id="Cmr10-73" d="M 213 -19 
L 213 1025 
Q 213 1075 269 1075 
L 347 1075 
Q 384 1075 397 1025 
Q 575 97 1259 97 
Q 1563 97 1767 234 
Q 1972 372 1972 659 
Q 1972 866 1812 1011 
Q 1653 1156 1434 1209 
L 1006 1294 
Q 791 1341 614 1437 
Q 438 1534 325 1695 
Q 213 1856 213 2069 
Q 213 2350 361 2529 
Q 509 2709 746 2789 
Q 984 2869 1259 2869 
Q 1588 2869 1831 2694 
L 2016 2853 
Q 2016 2869 2047 2869 
L 2094 2869 
Q 2113 2869 2128 2851 
Q 2144 2834 2144 2816 
L 2144 1978 
Q 2144 1919 2094 1919 
L 2016 1919 
Q 1959 1919 1959 1978 
Q 1959 2313 1773 2516 
Q 1588 2719 1253 2719 
Q 966 2719 755 2612 
Q 544 2506 544 2247 
Q 544 2069 695 1955 
Q 847 1841 1050 1791 
L 1484 1709 
Q 1703 1659 1892 1540 
Q 2081 1422 2192 1240 
Q 2303 1059 2303 831 
Q 2303 600 2223 429 
Q 2144 259 2001 146 
Q 1859 34 1665 -19 
Q 1472 -72 1259 -72 
Q 859 -72 575 197 
L 341 -56 
Q 341 -72 306 -72 
L 269 -72 
Q 213 -72 213 -19 
z
" transform="scale(0.015625)"/>
      <path id="Cmr10-69" d="M 197 0 
L 197 225 
Q 416 225 556 259 
Q 697 294 697 428 
L 697 2175 
Q 697 2422 601 2478 
Q 506 2534 225 2534 
L 225 2759 
L 1147 2828 
L 1147 428 
Q 1147 294 1269 259 
Q 1391 225 1594 225 
L 1594 0 
L 197 0 
z
M 469 3928 
Q 469 4069 575 4175 
Q 681 4281 819 4281 
Q 909 4281 993 4234 
Q 1078 4188 1125 4103 
Q 1172 4019 1172 3928 
Q 1172 3791 1065 3684 
Q 959 3578 819 3578 
Q 681 3578 575 3684 
Q 469 3791 469 3928 
z
" transform="scale(0.015625)"/>
      <path id="Cmr10-6d" d="M 191 0 
L 191 225 
Q 409 225 550 259 
Q 691 294 691 428 
L 691 2175 
Q 691 2347 639 2423 
Q 588 2500 491 2517 
Q 394 2534 191 2534 
L 191 2759 
L 1119 2828 
L 1119 2203 
Q 1247 2478 1498 2653 
Q 1750 2828 2047 2828 
Q 2784 2828 2913 2228 
Q 3041 2497 3287 2662 
Q 3534 2828 3828 2828 
Q 4119 2828 4317 2734 
Q 4516 2641 4616 2448 
Q 4716 2256 4716 1966 
L 4716 428 
Q 4716 294 4858 259 
Q 5000 225 5216 225 
L 5216 0 
L 3750 0 
L 3750 225 
Q 3969 225 4109 259 
Q 4250 294 4250 428 
L 4250 1947 
Q 4250 2269 4159 2466 
Q 4069 2663 3788 2663 
Q 3419 2663 3178 2366 
Q 2938 2069 2938 1691 
L 2938 428 
Q 2938 294 3078 259 
Q 3219 225 3438 225 
L 3438 0 
L 1972 0 
L 1972 225 
Q 2191 225 2331 259 
Q 2472 294 2472 428 
L 2472 1947 
Q 2472 2259 2381 2461 
Q 2291 2663 2009 2663 
Q 1638 2663 1398 2366 
Q 1159 2069 1159 1691 
L 1159 428 
Q 1159 294 1300 259 
Q 1441 225 1656 225 
L 1656 0 
L 191 0 
z
" transform="scale(0.015625)"/>
      <path id="Cmr10-75" d="M 691 763 
L 691 2175 
Q 691 2347 639 2423 
Q 588 2500 491 2517 
Q 394 2534 191 2534 
L 191 2759 
L 1159 2828 
L 1159 763 
Q 1159 513 1195 373 
Q 1231 234 1348 165 
Q 1466 97 1722 97 
Q 2066 97 2269 384 
Q 2472 672 2472 1038 
L 2472 2175 
Q 2472 2347 2419 2423 
Q 2366 2500 2270 2517 
Q 2175 2534 1972 2534 
L 1972 2759 
L 2938 2828 
L 2938 581 
Q 2938 413 2989 336 
Q 3041 259 3137 242 
Q 3234 225 3438 225 
L 3438 0 
L 2491 -72 
L 2491 469 
Q 2372 228 2159 78 
Q 1947 -72 1691 -72 
Q 1231 -72 961 123 
Q 691 319 691 763 
z
" transform="scale(0.015625)"/>
      <path id="Cmr10-6c" d="M 197 0 
L 197 225 
Q 416 225 556 259 
Q 697 294 697 428 
L 697 3788 
Q 697 3959 645 4036 
Q 594 4113 497 4130 
Q 400 4147 197 4147 
L 197 4372 
L 1147 4441 
L 1147 428 
Q 1147 294 1287 259 
Q 1428 225 1644 225 
L 1644 0 
L 197 0 
z
" transform="scale(0.015625)"/>
      <path id="Cmr10-61" d="M 256 628 
Q 256 1009 556 1248 
Q 856 1488 1276 1586 
Q 1697 1684 2075 1684 
L 2075 1947 
Q 2075 2131 1994 2304 
Q 1913 2478 1759 2589 
Q 1606 2700 1422 2700 
Q 997 2700 775 2509 
Q 897 2509 976 2417 
Q 1056 2325 1056 2203 
Q 1056 2075 965 1984 
Q 875 1894 750 1894 
Q 622 1894 531 1984 
Q 441 2075 441 2203 
Q 441 2541 747 2705 
Q 1053 2869 1422 2869 
Q 1681 2869 1943 2758 
Q 2206 2647 2373 2440 
Q 2541 2234 2541 1959 
L 2541 519 
Q 2541 394 2594 289 
Q 2647 184 2759 184 
Q 2866 184 2917 290 
Q 2969 397 2969 519 
L 2969 928 
L 3156 928 
L 3156 519 
Q 3156 375 3081 245 
Q 3006 116 2879 39 
Q 2753 -38 2606 -38 
Q 2419 -38 2283 107 
Q 2147 253 2131 453 
Q 2013 213 1781 70 
Q 1550 -72 1288 -72 
Q 1044 -72 808 0 
Q 572 72 414 226 
Q 256 381 256 628 
z
M 775 628 
Q 775 403 940 250 
Q 1106 97 1331 97 
Q 1538 97 1706 200 
Q 1875 303 1975 481 
Q 2075 659 2075 856 
L 2075 1522 
Q 1784 1522 1479 1426 
Q 1175 1331 975 1128 
Q 775 925 775 628 
z
" transform="scale(0.015625)"/>
      <path id="Cmr10-74" d="M 653 769 
L 653 2534 
L 122 2534 
L 122 2700 
Q 541 2700 737 3090 
Q 934 3481 934 3938 
L 1119 3938 
L 1119 2759 
L 2022 2759 
L 2022 2534 
L 1119 2534 
L 1119 781 
Q 1119 516 1208 316 
Q 1297 116 1528 116 
Q 1747 116 1844 327 
Q 1941 538 1941 781 
L 1941 1159 
L 2125 1159 
L 2125 769 
Q 2125 569 2051 373 
Q 1978 178 1834 53 
Q 1691 -72 1484 -72 
Q 1100 -72 876 158 
Q 653 388 653 769 
z
" transform="scale(0.015625)"/>
      <path id="Cmr10-6f" d="M 1600 -72 
Q 1216 -72 887 123 
Q 559 319 368 647 
Q 178 975 178 1363 
Q 178 1656 283 1928 
Q 388 2200 583 2414 
Q 778 2628 1037 2748 
Q 1297 2869 1600 2869 
Q 1994 2869 2317 2661 
Q 2641 2453 2828 2104 
Q 3016 1756 3016 1363 
Q 3016 978 2825 648 
Q 2634 319 2307 123 
Q 1981 -72 1600 -72 
z
M 1600 116 
Q 2113 116 2284 487 
Q 2456 859 2456 1434 
Q 2456 1756 2422 1967 
Q 2388 2178 2272 2350 
Q 2200 2456 2089 2536 
Q 1978 2616 1854 2658 
Q 1731 2700 1600 2700 
Q 1400 2700 1220 2609 
Q 1041 2519 922 2350 
Q 803 2169 770 1951 
Q 738 1734 738 1434 
Q 738 1075 800 789 
Q 863 503 1052 309 
Q 1241 116 1600 116 
z
" transform="scale(0.015625)"/>
      <path id="Cmr10-6e" d="M 191 0 
L 191 225 
Q 409 225 550 259 
Q 691 294 691 428 
L 691 2175 
Q 691 2347 639 2423 
Q 588 2500 491 2517 
Q 394 2534 191 2534 
L 191 2759 
L 1119 2828 
L 1119 2203 
Q 1247 2478 1498 2653 
Q 1750 2828 2047 2828 
Q 2491 2828 2714 2615 
Q 2938 2403 2938 1966 
L 2938 428 
Q 2938 294 3078 259 
Q 3219 225 3438 225 
L 3438 0 
L 1972 0 
L 1972 225 
Q 2191 225 2331 259 
Q 2472 294 2472 428 
L 2472 1947 
Q 2472 2259 2381 2461 
Q 2291 2663 2009 2663 
Q 1638 2663 1398 2366 
Q 1159 2069 1159 1691 
L 1159 428 
Q 1159 294 1300 259 
Q 1441 225 1656 225 
L 1656 0 
L 191 0 
z
" transform="scale(0.015625)"/>
     </defs>
     <use xlink:href="#Cmb10-70" transform="translate(0 0.515625)"/>
     <use xlink:href="#Cmb10-6c" transform="translate(55.517578 0.515625)"/>
     <use xlink:href="#Cmb10-6f" transform="translate(83.203125 0.515625)"/>
     <use xlink:href="#Cmb10-74" transform="translate(133.203125 0.515625)"/>
     <use xlink:href="#Cmb10-68" transform="translate(172.216797 0.515625)"/>
     <use xlink:href="#Cmb10-69" transform="translate(227.734375 0.515625)"/>
     <use xlink:href="#Cmb10-73" transform="translate(255.419922 0.515625)"/>
     <use xlink:href="#Cmb10-74" transform="translate(294.824219 0.515625)"/>
     <use xlink:href="#LatinModernMath-Regular-20" transform="translate(333.837891 0.515625)"/>
     <use xlink:href="#Cmr10-73" transform="translate(367.037888 0.515625)"/>
     <use xlink:href="#Cmr10-69" transform="translate(406.442184 0.515625)"/>
     <use xlink:href="#Cmr10-6d" transform="translate(434.127731 0.515625)"/>
     <use xlink:href="#Cmr10-75" transform="translate(517.428513 0.515625)"/>
     <use xlink:href="#Cmr10-6c" transform="translate(572.946091 0.515625)"/>
     <use xlink:href="#Cmr10-61" transform="translate(600.631638 0.515625)"/>
     <use xlink:href="#Cmr10-74" transform="translate(650.631638 0.515625)"/>
     <use xlink:href="#Cmr10-69" transform="translate(689.449997 0.515625)"/>
     <use xlink:href="#Cmr10-6f" transform="translate(717.135544 0.515625)"/>
     <use xlink:href="#Cmr10-6e" transform="translate(767.135544 0.515625)"/>
    </g>
   </g>
   <g id="legend_1">
    <g id="patch_10">
     <path d="M 320.2665 39.262884 
L 344.2665 39.262884 
L 344.2665 30.862884 
L 320.2665 30.862884 
z
" style="fill: #3d4c74; stroke: #000000; stroke-width: 0.5; stroke-linejoin: miter"/>
    </g>
    <g id="text_8">
     <!-- c0 -->
     <g style="fill: #1a1a1a" transform="translate(353.8665 39.262884) scale(0.12 -0.12)">
      <use xlink:href="#LatinModernMath-Regular-63"/>
      <use xlink:href="#LatinModernMath-Regular-30" x="44.399994"/>
     </g>
    </g>
    <g id="patch_11">
     <path d="M 320.2665 55.991634 
L 344.2665 55.991634 
L 344.2665 47.591634 
L 320.2665 47.591634 
z
" style="fill: #b67b76; stroke: #000000; stroke-width: 0.5; stroke-linejoin: miter"/>
    </g>
    <g id="text_9">
     <!-- c1 -->
     <g style="fill: #1a1a1a" transform="translate(353.8665 55.991634) scale(0.12 -0.12)">
      <use xlink:href="#LatinModernMath-Regular-63"/>
      <use xlink:href="#LatinModernMath-Regular-31" x="44.399994"/>
     </g>
    </g>
    <g id="patch_12">
     <path d="M 320.2665 72.720384 
L 344.2665 72.720384 
L 344.2665 64.320384 
L 320.2665 64.320384 
z
" style="fill: #b1dcc2; stroke: #000000; stroke-width: 0.5; stroke-linejoin: miter"/>
    </g>
    <g id="text_10">
     <!-- c2 -->
     <g style="fill: #1a1a1a" transform="translate(353.8665 72.720384) scale(0.12 -0.12)">
      <use xlink:href="#LatinModernMath-Regular-63"/>
      <use xlink:href="#LatinModernMath-Regular-32" x="44.399994"/>
     </g>
    </g>
    <g id="LineCollection_2">
     <path d="M 332.2665 91.249134 
L 332.2665 79.249134 
" style="fill: none; stroke: #000000; stroke-width: 1.5"/>
    </g>
    <g id="line2d_44"/>
    <g id="line2d_45">
     <g>
      <use xlink:href="#meae5c0c399" x="332.2665" y="85.249134" style="stroke: #000000"/>
     </g>
    </g>
    <g id="text_11">
     <!-- Data -->
     <g style="fill: #1a1a1a" transform="translate(353.8665 89.449134) scale(0.12 -0.12)">
      <defs>
       <path id="LatinModernMath-Regular-44" d="M 4525 2150 
C 4525 3366 3661 4371 2566 4371 
L 224 4371 
L 224 4173 
L 378 4173 
C 870 4173 883 4102 883 3872 
L 883 499 
C 883 269 870 198 378 198 
L 224 198 
L 224 0 
L 2566 0 
C 3642 0 4525 947 4525 2150 
z
M 3885 2150 
C 3885 1440 3763 1056 3533 742 
C 3405 570 3040 198 2394 198 
L 1747 198 
C 1446 198 1434 243 1434 454 
L 1434 3917 
C 1434 4128 1446 4173 1747 4173 
L 2387 4173 
C 2784 4173 3226 4032 3552 3578 
C 3827 3200 3885 2650 3885 2150 
z
" transform="scale(0.015625)"/>
       <path id="LatinModernMath-Regular-61" d="M 3091 570 
L 3091 928 
L 2931 928 
L 2931 570 
C 2931 198 2771 160 2701 160 
C 2490 160 2464 448 2464 480 
L 2464 1760 
C 2464 2029 2464 2278 2234 2515 
C 1984 2765 1664 2867 1357 2867 
C 832 2867 390 2566 390 2144 
C 390 1952 518 1843 685 1843 
C 864 1843 979 1971 979 2138 
C 979 2214 947 2426 653 2432 
C 826 2656 1139 2726 1344 2726 
C 1658 2726 2022 2477 2022 1907 
L 2022 1670 
C 1696 1651 1248 1632 845 1440 
C 365 1222 205 890 205 608 
C 205 90 826 -70 1229 -70 
C 1651 -70 1946 186 2067 486 
C 2093 230 2266 -38 2566 -38 
C 2701 -38 3091 51 3091 570 
z
M 2022 896 
C 2022 288 1562 70 1274 70 
C 960 70 698 294 698 614 
C 698 966 966 1498 2022 1536 
L 2022 896 
z
" transform="scale(0.015625)"/>
      </defs>
      <use xlink:href="#LatinModernMath-Regular-44"/>
      <use xlink:href="#LatinModernMath-Regular-61" x="76.399994"/>
      <use xlink:href="#LatinModernMath-Regular-74" x="126.399979"/>
      <use xlink:href="#LatinModernMath-Regular-61" x="165.299973"/>
     </g>
    </g>
   </g>
  </g>
  <g id="axes_2">
   <g id="patch_13">
    <path d="M 55.704 297.262884 
L 390.504 297.262884 
L 390.504 245.690791 
L 55.704 245.690791 
z
" style="fill: #ffffff"/>
   </g>
   <g id="patch_14">
    <path d="M 55.704 271.476837 
L 55.704 267.318529 
L 62.4 267.318529 
L 62.4 267.480423 
L 69.096 267.480423 
L 69.096 270.415094 
L 75.792 270.415094 
L 75.792 266.140333 
L 82.488 266.140333 
L 82.488 265.666344 
L 89.184 265.666344 
L 89.184 254.870697 
L 95.88 254.870697 
L 95.88 254.453301 
L 102.576 254.453301 
L 102.576 257.716996 
L 109.272 257.716996 
L 109.272 256.096719 
L 115.968 256.096719 
L 115.968 241.017542 
L 122.664 241.017542 
L 122.664 260.764196 
L 129.36 260.764196 
L 129.36 249.701958 
L 136.056 249.701958 
L 136.056 239.029187 
L 142.752 239.029187 
L 142.752 244.158032 
L 149.448 244.158032 
L 149.448 236.297765 
L 156.144 236.297765 
L 156.144 243.809765 
L 162.84 243.809765 
L 162.84 245.98522 
L 169.536 245.98522 
L 169.536 239.774028 
L 176.232 239.774028 
L 176.232 239.89512 
L 182.928 239.89512 
L 182.928 241.235012 
L 189.624 241.235012 
L 189.624 262.553574 
L 196.32 262.553574 
L 196.32 275.489679 
L 203.016 275.489679 
L 203.016 277.093462 
L 209.712 277.093462 
L 209.712 292.8712 
L 216.408 292.8712 
L 216.408 329.998943 
L 223.104 329.998943 
L 223.104 337.907667 
L 229.8 337.907667 
L 229.8 332.592482 
L 236.496 332.592482 
L 236.496 333.224489 
L 243.192 333.224489 
L 243.192 341.848795 
L 249.888 341.848795 
L 249.888 329.513442 
L 256.584 329.513442 
L 256.584 339.567214 
L 263.28 339.567214 
L 263.28 307.056865 
L 269.976 307.056865 
L 269.976 299.069824 
L 276.672 299.069824 
L 276.672 283.783776 
L 283.368 283.783776 
L 283.368 282.733953 
L 290.064 282.733953 
L 290.064 277.214044 
L 296.76 277.214044 
L 296.76 269.940741 
L 303.456 269.940741 
L 303.456 273.136198 
L 310.152 273.136198 
L 310.152 273.38455 
L 316.848 273.38455 
L 316.848 274.461643 
L 323.544 274.461643 
L 323.544 277.073505 
L 330.24 277.073505 
L 330.24 273.342393 
L 336.936 273.342393 
L 336.936 264.821738 
L 343.632 264.821738 
L 343.632 272.409615 
L 350.328 272.409615 
L 350.328 271.476837 
L 350.328 271.476837 
L 350.328 271.476837 
L 343.632 271.476837 
L 343.632 271.476837 
L 336.936 271.476837 
L 336.936 271.476837 
L 330.24 271.476837 
L 330.24 271.476837 
L 323.544 271.476837 
L 323.544 271.476837 
L 316.848 271.476837 
L 316.848 271.476837 
L 310.152 271.476837 
L 310.152 271.476837 
L 303.456 271.476837 
L 303.456 271.476837 
L 296.76 271.476837 
L 296.76 271.476837 
L 290.064 271.476837 
L 290.064 271.476837 
L 283.368 271.476837 
L 283.368 271.476837 
L 276.672 271.476837 
L 276.672 271.476837 
L 269.976 271.476837 
L 269.976 271.476837 
L 263.28 271.476837 
L 263.28 271.476837 
L 256.584 271.476837 
L 256.584 271.476837 
L 249.888 271.476837 
L 249.888 271.476837 
L 243.192 271.476837 
L 243.192 271.476837 
L 236.496 271.476837 
L 236.496 271.476837 
L 229.8 271.476837 
L 229.8 271.476837 
L 223.104 271.476837 
L 223.104 271.476837 
L 216.408 271.476837 
L 216.408 271.476837 
L 209.712 271.476837 
L 209.712 271.476837 
L 203.016 271.476837 
L 203.016 271.476837 
L 196.32 271.476837 
L 196.32 271.476837 
L 189.624 271.476837 
L 189.624 271.476837 
L 182.928 271.476837 
L 182.928 271.476837 
L 176.232 271.476837 
L 176.232 271.476837 
L 169.536 271.476837 
L 169.536 271.476837 
L 162.84 271.476837 
L 162.84 271.476837 
L 156.144 271.476837 
L 156.144 271.476837 
L 149.448 271.476837 
L 149.448 271.476837 
L 142.752 271.476837 
L 142.752 271.476837 
L 136.056 271.476837 
L 136.056 271.476837 
L 129.36 271.476837 
L 129.36 271.476837 
L 122.664 271.476837 
L 122.664 271.476837 
L 115.968 271.476837 
L 115.968 271.476837 
L 109.272 271.476837 
L 109.272 271.476837 
L 102.576 271.476837 
L 102.576 271.476837 
L 95.88 271.476837 
L 95.88 271.476837 
L 89.184 271.476837 
L 89.184 271.476837 
L 82.488 271.476837 
L 82.488 271.476837 
L 75.792 271.476837 
L 75.792 271.476837 
L 69.096 271.476837 
L 69.096 271.476837 
L 62.4 271.476837 
L 62.4 271.476837 
L 55.704 271.476837 
L 55.704 271.476837 
M 357.024 271.476837 
L 357.024 272.409615 
L 363.72 272.409615 
L 363.72 272.409615 
L 370.416 272.409615 
L 370.416 271.476837 
L 370.416 271.476837 
L 370.416 271.476837 
L 363.72 271.476837 
L 363.72 271.476837 
L 357.024 271.476837 
L 357.024 271.476837 
" clip-path="url(#pd64d3fd484)" style="fill: #a9a9a9"/>
   </g>
   <g id="line2d_46">
    <path d="M 55.704 271.476837 
L 390.504 271.476837 
" clip-path="url(#pd64d3fd484)" style="fill: none; stroke-dasharray: 3.7,1.6; stroke-dashoffset: 0; stroke: #000000"/>
   </g>
   <g id="patch_15">
    <path d="M 55.704 297.262884 
L 55.704 245.690791 
" style="fill: none; stroke: #000000; stroke-linejoin: miter; stroke-linecap: square"/>
   </g>
   <g id="patch_16">
    <path d="M 390.504 297.262884 
L 390.504 245.690791 
" style="fill: none; stroke: #000000; stroke-linejoin: miter; stroke-linecap: square"/>
   </g>
   <g id="patch_17">
    <path d="M 55.704 297.262884 
L 390.504 297.262884 
" style="fill: none; stroke: #000000; stroke-linejoin: miter; stroke-linecap: square"/>
   </g>
   <g id="patch_18">
    <path d="M 55.704 245.690791 
L 390.504 245.690791 
" style="fill: none; stroke: #000000; stroke-linejoin: miter; stroke-linecap: square"/>
   </g>
   <g id="matplotlib.axis_3">
    <g id="xtick_23">
     <g id="line2d_47">
      <g>
       <use xlink:href="#m8dec1b3d1d" x="119.475429" y="297.262884" style="fill: #1a1a1a; stroke: #1a1a1a; stroke-width: 0.8"/>
      </g>
     </g>
     <g id="text_12">
      <!-- $\mathdefault{−5}$ -->
      <g style="fill: #1a1a1a" transform="translate(109.875429 315.673821) scale(0.15 -0.15)">
       <defs>
        <path id="LatinModernMath-Regular-35" d="M 2874 1286 
C 2874 2048 2349 2688 1658 2688 
C 1350 2688 1075 2586 845 2362 
L 845 3610 
C 973 3571 1184 3526 1389 3526 
C 2176 3526 2624 4109 2624 4192 
C 2624 4230 2605 4262 2560 4262 
C 2560 4262 2541 4262 2509 4243 
C 2381 4186 2067 4058 1638 4058 
C 1382 4058 1088 4102 787 4237 
C 736 4256 710 4256 710 4256 
C 646 4256 646 4205 646 4102 
L 646 2208 
C 646 2093 646 2042 736 2042 
C 781 2042 794 2061 819 2099 
C 890 2202 1126 2547 1645 2547 
C 1978 2547 2138 2253 2189 2138 
C 2291 1901 2304 1651 2304 1331 
C 2304 1107 2304 723 2150 454 
C 1997 205 1760 38 1466 38 
C 998 38 634 378 525 755 
C 544 749 563 742 634 742 
C 845 742 954 902 954 1056 
C 954 1210 845 1370 634 1370 
C 544 1370 320 1325 320 1030 
C 320 480 762 -141 1478 -141 
C 2221 -141 2874 474 2874 1286 
z
" transform="scale(0.015625)"/>
       </defs>
       <use xlink:href="#LatinModernMath-Regular-2212" transform="translate(0 0.40625)"/>
       <use xlink:href="#LatinModernMath-Regular-35" transform="translate(77.799988 0.40625)"/>
      </g>
     </g>
    </g>
    <g id="xtick_24">
     <g id="line2d_48">
      <g>
       <use xlink:href="#m8dec1b3d1d" x="199.189714" y="297.262884" style="fill: #1a1a1a; stroke: #1a1a1a; stroke-width: 0.8"/>
      </g>
     </g>
     <g id="text_13">
      <!-- $\mathdefault{0}$ -->
      <g style="fill: #1a1a1a" transform="translate(195.439714 315.673821) scale(0.15 -0.15)">
       <use xlink:href="#LatinModernMath-Regular-30" transform="translate(0 0.40625)"/>
      </g>
     </g>
    </g>
    <g id="xtick_25">
     <g id="line2d_49">
      <g>
       <use xlink:href="#m8dec1b3d1d" x="278.904" y="297.262884" style="fill: #1a1a1a; stroke: #1a1a1a; stroke-width: 0.8"/>
      </g>
     </g>
     <g id="text_14">
      <!-- $\mathdefault{5}$ -->
      <g style="fill: #1a1a1a" transform="translate(275.154 315.673821) scale(0.15 -0.15)">
       <use xlink:href="#LatinModernMath-Regular-35" transform="translate(0 0.40625)"/>
      </g>
     </g>
    </g>
    <g id="xtick_26">
     <g id="line2d_50">
      <g>
       <use xlink:href="#m8dec1b3d1d" x="358.618286" y="297.262884" style="fill: #1a1a1a; stroke: #1a1a1a; stroke-width: 0.8"/>
      </g>
     </g>
     <g id="text_15">
      <!-- $\mathdefault{10}$ -->
      <g style="fill: #1a1a1a" transform="translate(351.118286 315.673821) scale(0.15 -0.15)">
       <use xlink:href="#LatinModernMath-Regular-31" transform="translate(0 0.40625)"/>
       <use xlink:href="#LatinModernMath-Regular-30" transform="translate(49.999985 0.40625)"/>
      </g>
     </g>
    </g>
    <g id="xtick_27">
     <g id="line2d_51">
      <g>
       <use xlink:href="#m131efc0c90" x="55.704" y="297.262884" style="fill: #1a1a1a; stroke: #1a1a1a; stroke-width: 0.6"/>
      </g>
     </g>
    </g>
    <g id="xtick_28">
     <g id="line2d_52">
      <g>
       <use xlink:href="#m131efc0c90" x="71.646857" y="297.262884" style="fill: #1a1a1a; stroke: #1a1a1a; stroke-width: 0.6"/>
      </g>
     </g>
    </g>
    <g id="xtick_29">
     <g id="line2d_53">
      <g>
       <use xlink:href="#m131efc0c90" x="87.589714" y="297.262884" style="fill: #1a1a1a; stroke: #1a1a1a; stroke-width: 0.6"/>
      </g>
     </g>
    </g>
    <g id="xtick_30">
     <g id="line2d_54">
      <g>
       <use xlink:href="#m131efc0c90" x="103.532571" y="297.262884" style="fill: #1a1a1a; stroke: #1a1a1a; stroke-width: 0.6"/>
      </g>
     </g>
    </g>
    <g id="xtick_31">
     <g id="line2d_55">
      <g>
       <use xlink:href="#m131efc0c90" x="135.418286" y="297.262884" style="fill: #1a1a1a; stroke: #1a1a1a; stroke-width: 0.6"/>
      </g>
     </g>
    </g>
    <g id="xtick_32">
     <g id="line2d_56">
      <g>
       <use xlink:href="#m131efc0c90" x="151.361143" y="297.262884" style="fill: #1a1a1a; stroke: #1a1a1a; stroke-width: 0.6"/>
      </g>
     </g>
    </g>
    <g id="xtick_33">
     <g id="line2d_57">
      <g>
       <use xlink:href="#m131efc0c90" x="167.304" y="297.262884" style="fill: #1a1a1a; stroke: #1a1a1a; stroke-width: 0.6"/>
      </g>
     </g>
    </g>
    <g id="xtick_34">
     <g id="line2d_58">
      <g>
       <use xlink:href="#m131efc0c90" x="183.246857" y="297.262884" style="fill: #1a1a1a; stroke: #1a1a1a; stroke-width: 0.6"/>
      </g>
     </g>
    </g>
    <g id="xtick_35">
     <g id="line2d_59">
      <g>
       <use xlink:href="#m131efc0c90" x="215.132571" y="297.262884" style="fill: #1a1a1a; stroke: #1a1a1a; stroke-width: 0.6"/>
      </g>
     </g>
    </g>
    <g id="xtick_36">
     <g id="line2d_60">
      <g>
       <use xlink:href="#m131efc0c90" x="231.075429" y="297.262884" style="fill: #1a1a1a; stroke: #1a1a1a; stroke-width: 0.6"/>
      </g>
     </g>
    </g>
    <g id="xtick_37">
     <g id="line2d_61">
      <g>
       <use xlink:href="#m131efc0c90" x="247.018286" y="297.262884" style="fill: #1a1a1a; stroke: #1a1a1a; stroke-width: 0.6"/>
      </g>
     </g>
    </g>
    <g id="xtick_38">
     <g id="line2d_62">
      <g>
       <use xlink:href="#m131efc0c90" x="262.961143" y="297.262884" style="fill: #1a1a1a; stroke: #1a1a1a; stroke-width: 0.6"/>
      </g>
     </g>
    </g>
    <g id="xtick_39">
     <g id="line2d_63">
      <g>
       <use xlink:href="#m131efc0c90" x="294.846857" y="297.262884" style="fill: #1a1a1a; stroke: #1a1a1a; stroke-width: 0.6"/>
      </g>
     </g>
    </g>
    <g id="xtick_40">
     <g id="line2d_64">
      <g>
       <use xlink:href="#m131efc0c90" x="310.789714" y="297.262884" style="fill: #1a1a1a; stroke: #1a1a1a; stroke-width: 0.6"/>
      </g>
     </g>
    </g>
    <g id="xtick_41">
     <g id="line2d_65">
      <g>
       <use xlink:href="#m131efc0c90" x="326.732571" y="297.262884" style="fill: #1a1a1a; stroke: #1a1a1a; stroke-width: 0.6"/>
      </g>
     </g>
    </g>
    <g id="xtick_42">
     <g id="line2d_66">
      <g>
       <use xlink:href="#m131efc0c90" x="342.675429" y="297.262884" style="fill: #1a1a1a; stroke: #1a1a1a; stroke-width: 0.6"/>
      </g>
     </g>
    </g>
    <g id="xtick_43">
     <g id="line2d_67">
      <g>
       <use xlink:href="#m131efc0c90" x="374.561143" y="297.262884" style="fill: #1a1a1a; stroke: #1a1a1a; stroke-width: 0.6"/>
      </g>
     </g>
    </g>
    <g id="xtick_44">
     <g id="line2d_68">
      <g>
       <use xlink:href="#m131efc0c90" x="390.504" y="297.262884" style="fill: #1a1a1a; stroke: #1a1a1a; stroke-width: 0.6"/>
      </g>
     </g>
    </g>
    <g id="text_16">
     <!-- $variable_1\,\,[eV/c^2]$ -->
     <g style="fill: #1a1a1a" transform="translate(158.034 338.444759) scale(0.18 -0.18)">
      <defs>
       <path id="LatinModernMath-Regular-76" d="M 3251 2560 
L 3251 2758 
C 3104 2746 2918 2739 2771 2739 
L 2214 2758 
L 2214 2560 
C 2451 2554 2522 2406 2522 2285 
C 2522 2227 2509 2202 2483 2131 
L 1830 499 
L 1114 2285 
C 1075 2368 1075 2394 1075 2394 
C 1075 2560 1325 2560 1440 2560 
L 1440 2758 
L 742 2739 
C 570 2739 314 2746 122 2758 
L 122 2560 
C 525 2560 550 2522 634 2323 
L 1555 51 
C 1594 -38 1606 -70 1690 -70 
C 1773 -70 1798 -13 1824 51 
L 2662 2131 
C 2720 2278 2829 2554 3251 2560 
z
" transform="scale(0.015625)"/>
       <path id="LatinModernMath-Regular-62" d="M 3334 1382 
C 3334 2195 2707 2829 1978 2829 
C 1478 2829 1203 2528 1101 2413 
L 1101 4442 
L 179 4371 
L 179 4173 
C 627 4173 678 4128 678 3814 
L 678 0 
L 838 0 
L 1069 397 
C 1165 250 1434 -70 1907 -70 
C 2669 -70 3334 557 3334 1382 
z
M 2803 1389 
C 2803 1152 2790 768 2605 480 
C 2470 282 2227 70 1882 70 
C 1594 70 1363 224 1210 461 
C 1120 595 1120 614 1120 730 
L 1120 2048 
C 1120 2170 1120 2176 1190 2278 
C 1440 2637 1792 2688 1946 2688 
C 2234 2688 2464 2522 2618 2278 
C 2784 2016 2803 1651 2803 1389 
z
" transform="scale(0.015625)"/>
       <path id="LatinModernMath-Regular-6c" d="M 1632 0 
L 1632 198 
C 1203 198 1133 198 1133 486 
L 1133 4442 
L 211 4371 
L 211 4173 
C 659 4173 710 4128 710 3814 
L 710 486 
C 710 198 640 198 211 198 
L 211 0 
L 922 19 
L 1632 0 
z
" transform="scale(0.015625)"/>
       <path id="LatinModernMath-Regular-5b" d="M 1638 -1472 
C 1638 -1402 1581 -1344 1510 -1344 
L 986 -1344 
L 986 4544 
L 1510 4544 
C 1581 4544 1638 4602 1638 4672 
C 1638 4742 1581 4800 1510 4800 
L 730 4800 
L 730 -1600 
L 1510 -1600 
C 1581 -1600 1638 -1542 1638 -1472 
z
" transform="scale(0.015625)"/>
       <path id="LatinModernMath-Regular-5d" d="M 1050 -1600 
L 1050 4800 
L 269 4800 
C 198 4800 141 4742 141 4672 
C 141 4602 198 4544 269 4544 
L 794 4544 
L 794 -1344 
L 269 -1344 
C 198 -1344 141 -1402 141 -1472 
C 141 -1542 198 -1600 269 -1600 
L 1050 -1600 
z
" transform="scale(0.015625)"/>
      </defs>
      <use xlink:href="#LatinModernMath-Regular-76" transform="translate(0 0.21875)"/>
      <use xlink:href="#LatinModernMath-Regular-61" transform="translate(52.799988 0.21875)"/>
      <use xlink:href="#LatinModernMath-Regular-72" transform="translate(102.799973 0.21875)"/>
      <use xlink:href="#LatinModernMath-Regular-69" transform="translate(141.999969 0.21875)"/>
      <use xlink:href="#LatinModernMath-Regular-61" transform="translate(169.799957 0.21875)"/>
      <use xlink:href="#LatinModernMath-Regular-62" transform="translate(219.799942 0.21875)"/>
      <use xlink:href="#LatinModernMath-Regular-6c" transform="translate(275.399933 0.21875)"/>
      <use xlink:href="#LatinModernMath-Regular-65" transform="translate(303.199921 0.21875)"/>
      <use xlink:href="#LatinModernMath-Regular-31" transform="translate(348.354055 -12.709375) scale(0.7)"/>
      <use xlink:href="#LatinModernMath-Regular-5b" transform="translate(414.77364 0.21875)"/>
      <use xlink:href="#LatinModernMath-Regular-65" transform="translate(442.573628 0.21875)"/>
      <use xlink:href="#LatinModernMath-Regular-56" transform="translate(486.973622 0.21875)"/>
      <use xlink:href="#LatinModernMath-Regular-2f" transform="translate(561.973607 0.21875)"/>
      <use xlink:href="#LatinModernMath-Regular-63" transform="translate(611.973591 0.21875)"/>
      <use xlink:href="#LatinModernMath-Regular-32" transform="translate(657.127726 30.384375) scale(0.7)"/>
      <use xlink:href="#LatinModernMath-Regular-5d" transform="translate(694.282403 0.21875)"/>
     </g>
    </g>
   </g>
   <g id="matplotlib.axis_4">
    <g id="ytick_21">
     <g id="line2d_69">
      <g>
       <use xlink:href="#mc947610920" x="55.704" y="297.262884" style="fill: #1a1a1a; stroke: #1a1a1a; stroke-width: 0.8"/>
      </g>
     </g>
     <g id="text_17">
      <!-- $\mathdefault{−5}$ -->
      <g style="fill: #1a1a1a" transform="translate(31.504 302.468352) scale(0.15 -0.15)">
       <use xlink:href="#LatinModernMath-Regular-2212" transform="translate(0 0.40625)"/>
       <use xlink:href="#LatinModernMath-Regular-35" transform="translate(77.799988 0.40625)"/>
      </g>
     </g>
    </g>
    <g id="ytick_22">
     <g id="line2d_70">
      <g>
       <use xlink:href="#mc947610920" x="55.704" y="271.476837" style="fill: #1a1a1a; stroke: #1a1a1a; stroke-width: 0.8"/>
      </g>
     </g>
     <g id="text_18">
      <!-- $\mathdefault{0}$ -->
      <g style="fill: #1a1a1a" transform="translate(43.204 276.682306) scale(0.15 -0.15)">
       <use xlink:href="#LatinModernMath-Regular-30" transform="translate(0 0.40625)"/>
      </g>
     </g>
    </g>
    <g id="ytick_23">
     <g id="line2d_71">
      <g>
       <use xlink:href="#mc947610920" x="55.704" y="245.690791" style="fill: #1a1a1a; stroke: #1a1a1a; stroke-width: 0.8"/>
      </g>
     </g>
     <g id="text_19">
      <!-- $\mathdefault{5}$ -->
      <g style="fill: #1a1a1a" transform="translate(43.204 250.896259) scale(0.15 -0.15)">
       <use xlink:href="#LatinModernMath-Regular-35" transform="translate(0 0.40625)"/>
      </g>
     </g>
    </g>
    <g id="ytick_24">
     <g id="line2d_72">
      <g>
       <use xlink:href="#m5f9d1e6504" x="55.704" y="292.105674" style="fill: #1a1a1a; stroke: #1a1a1a; stroke-width: 0.6"/>
      </g>
     </g>
    </g>
    <g id="ytick_25">
     <g id="line2d_73">
      <g>
       <use xlink:href="#m5f9d1e6504" x="55.704" y="286.948465" style="fill: #1a1a1a; stroke: #1a1a1a; stroke-width: 0.6"/>
      </g>
     </g>
    </g>
    <g id="ytick_26">
     <g id="line2d_74">
      <g>
       <use xlink:href="#m5f9d1e6504" x="55.704" y="281.791256" style="fill: #1a1a1a; stroke: #1a1a1a; stroke-width: 0.6"/>
      </g>
     </g>
    </g>
    <g id="ytick_27">
     <g id="line2d_75">
      <g>
       <use xlink:href="#m5f9d1e6504" x="55.704" y="276.634047" style="fill: #1a1a1a; stroke: #1a1a1a; stroke-width: 0.6"/>
      </g>
     </g>
    </g>
    <g id="ytick_28">
     <g id="line2d_76">
      <g>
       <use xlink:href="#m5f9d1e6504" x="55.704" y="266.319628" style="fill: #1a1a1a; stroke: #1a1a1a; stroke-width: 0.6"/>
      </g>
     </g>
    </g>
    <g id="ytick_29">
     <g id="line2d_77">
      <g>
       <use xlink:href="#m5f9d1e6504" x="55.704" y="261.162419" style="fill: #1a1a1a; stroke: #1a1a1a; stroke-width: 0.6"/>
      </g>
     </g>
    </g>
    <g id="ytick_30">
     <g id="line2d_78">
      <g>
       <use xlink:href="#m5f9d1e6504" x="55.704" y="256.005209" style="fill: #1a1a1a; stroke: #1a1a1a; stroke-width: 0.6"/>
      </g>
     </g>
    </g>
    <g id="ytick_31">
     <g id="line2d_79">
      <g>
       <use xlink:href="#m5f9d1e6504" x="55.704" y="250.848" style="fill: #1a1a1a; stroke: #1a1a1a; stroke-width: 0.6"/>
      </g>
     </g>
    </g>
    <g id="text_20">
     <!-- $\frac{ Data - Pred. }{ \sigma_{Data} } $ -->
     <g style="fill: #1a1a1a" transform="translate(17.988 297.516837) rotate(-90) scale(0.124 -0.124)">
      <defs>
       <path id="LatinModernMath-Regular-50" d="M 3994 3181 
C 3994 3808 3360 4371 2483 4371 
L 224 4371 
L 224 4173 
L 378 4173 
C 870 4173 883 4102 883 3872 
L 883 499 
C 883 269 870 198 378 198 
L 224 198 
L 224 0 
C 448 19 922 19 1165 19 
C 1408 19 1888 19 2112 0 
L 2112 198 
L 1958 198 
C 1466 198 1453 269 1453 499 
L 1453 2022 
L 2534 2022 
C 3302 2022 3994 2541 3994 3181 
z
M 3334 3181 
C 3334 2880 3334 2189 2317 2189 
L 1434 2189 
L 1434 3917 
C 1434 4128 1446 4173 1747 4173 
L 2317 4173 
C 3334 4173 3334 3494 3334 3181 
z
" transform="scale(0.015625)"/>
       <path id="LatinModernMath-Regular-64" d="M 3373 0 
L 3373 198 
C 2925 198 2874 243 2874 557 
L 2874 4442 
L 1952 4371 
L 1952 4173 
C 2400 4173 2451 4128 2451 3814 
L 2451 2432 
C 2266 2662 1990 2829 1645 2829 
C 890 2829 218 2202 218 1376 
C 218 563 845 -70 1574 -70 
C 1984 -70 2272 147 2432 352 
L 2432 -70 
L 3373 0 
z
M 2432 755 
C 2432 640 2432 627 2362 518 
C 2170 211 1882 70 1606 70 
C 1318 70 1088 237 934 480 
C 768 742 749 1107 749 1370 
C 749 1606 762 1990 947 2278 
C 1082 2477 1325 2688 1670 2688 
C 1894 2688 2163 2592 2362 2304 
C 2432 2195 2432 2182 2432 2067 
L 2432 755 
z
" transform="scale(0.015625)"/>
       <path id="LatinModernMath-Regular-3c3" d="M 3379 2605 
C 3341 2758 3206 2758 3091 2758 
L 1632 2758 
C 666 2758 224 1702 410 941 
C 550 378 1043 -70 1626 -70 
C 2381 -70 3040 704 2790 1690 
C 2765 1798 2688 2106 2419 2387 
L 3123 2387 
C 3206 2387 3437 2387 3379 2605 
z
M 2362 1766 
C 2438 1466 2438 941 2304 614 
C 2150 237 1843 70 1594 70 
C 1280 70 966 301 851 762 
C 806 954 749 1478 883 1856 
C 1037 2298 1402 2387 1619 2387 
C 2157 2387 2310 1965 2362 1766 
z
" transform="scale(0.015625)"/>
      </defs>
      <use xlink:href="#LatinModernMath-Regular-44" transform="translate(0 38.415625) scale(0.7)"/>
      <use xlink:href="#LatinModernMath-Regular-61" transform="translate(53.479996 38.415625) scale(0.7)"/>
      <use xlink:href="#LatinModernMath-Regular-74" transform="translate(88.479985 38.415625) scale(0.7)"/>
      <use xlink:href="#LatinModernMath-Regular-61" transform="translate(115.709981 38.415625) scale(0.7)"/>
      <use xlink:href="#LatinModernMath-Regular-2212" transform="translate(163.000986 38.415625) scale(0.7)"/>
      <use xlink:href="#LatinModernMath-Regular-50" transform="translate(229.751993 38.415625) scale(0.7)"/>
      <use xlink:href="#LatinModernMath-Regular-72" transform="translate(277.421986 38.415625) scale(0.7)"/>
      <use xlink:href="#LatinModernMath-Regular-65" transform="translate(304.861984 38.415625) scale(0.7)"/>
      <use xlink:href="#LatinModernMath-Regular-64" transform="translate(335.94198 38.415625) scale(0.7)"/>
      <use xlink:href="#LatinModernMath-Regular-2e" transform="translate(374.861974 38.415625) scale(0.7)"/>
      <use xlink:href="#LatinModernMath-Regular-3c3" transform="translate(129 -23.765625) scale(0.7)"/>
      <use xlink:href="#LatinModernMath-Regular-44" transform="translate(171.457894 -32.815312) scale(0.49)"/>
      <use xlink:href="#LatinModernMath-Regular-61" transform="translate(208.893891 -32.815312) scale(0.49)"/>
      <use xlink:href="#LatinModernMath-Regular-74" transform="translate(233.393884 -32.815312) scale(0.49)"/>
      <use xlink:href="#LatinModernMath-Regular-61" transform="translate(252.454881 -32.815312) scale(0.49)"/>
      <path d="M 0 12.65 
L 0 18.9 
L 406.612981 18.9 
L 406.612981 12.65 
L 0 12.65 
z
"/>
     </g>
    </g>
   </g>
  </g>
 </g>
 <defs>
  <clipPath id="pe91539e664">
   <rect x="55.704" y="20.062884" width="334.8" height="206.288372"/>
  </clipPath>
  <clipPath id="pd64d3fd484">
   <rect x="55.704" y="245.690791" width="334.8" height="51.572093"/>
  </clipPath>
 </defs>
</svg>
