<?xml version="1.0" encoding="utf-8" standalone="no"?>
<!DOCTYPE svg PUBLIC "-//W3C//DTD SVG 1.1//EN"
  "http://www.w3.org/Graphics/SVG/1.1/DTD/svg11.dtd">
<svg xmlns:xlink="http://www.w3.org/1999/xlink" width="406.18625pt" height="292.616975pt" viewBox="0 0 406.18625 292.616975" xmlns="http://www.w3.org/2000/svg" version="1.1">
 <metadata>
  <rdf:RDF xmlns:dc="http://purl.org/dc/elements/1.1/" xmlns:cc="http://creativecommons.org/ns#" xmlns:rdf="http://www.w3.org/1999/02/22-rdf-syntax-ns#">
   <cc:Work>
    <dc:creator>
     <cc:Agent>
      <dc:title>カリビアンカフェ</dc:title>
     </cc:Agent>
    </dc:creator>
   </cc:Work>
  </rdf:RDF>
 </metadata>
 <defs>
  <style type="text/css">*{stroke-linejoin: round; stroke-linecap: butt}</style>
 </defs>
 <g id="figure_1">
  <g id="patch_1">
   <path d="M 0 292.616975 
L 406.18625 292.616975 
L 406.18625 0 
L 0 0 
z
" style="fill: #ffffff"/>
  </g>
  <g id="axes_1">
   <g id="patch_2">
    <path d="M 64.18625 242.10885 
L 398.98625 242.10885 
L 398.98625 20.34885 
L 64.18625 20.34885 
z
" style="fill: #ffffff"/>
   </g>
   <g id="patch_3">
    <path d="M 64.18625 242.059481 
L 64.18625 242.059481 
L 70.88225 242.059481 
L 70.88225 241.960743 
L 77.57825 241.960743 
L 77.57825 241.713898 
L 84.27425 241.713898 
L 84.27425 241.467052 
L 90.97025 241.467052 
L 90.97025 240.775886 
L 97.66625 240.775886 
L 97.66625 239.837874 
L 104.36225 239.837874 
L 104.36225 238.258064 
L 111.05825 238.258064 
L 111.05825 234.407278 
L 117.75425 234.407278 
L 117.75425 229.026052 
L 124.45025 229.026052 
L 124.45025 224.829683 
L 131.14625 224.829683 
L 131.14625 210.46329 
L 137.84225 210.46329 
L 137.84225 200.342635 
L 144.53825 200.342635 
L 144.53825 184.742016 
L 151.23425 184.742016 
L 151.23425 169.338873 
L 157.93025 169.338873 
L 157.93025 154.182575 
L 164.62625 154.182575 
L 164.62625 144.111289 
L 171.32225 144.111289 
L 171.32225 138.532587 
L 178.01825 138.532587 
L 178.01825 138.137634 
L 184.71425 138.137634 
L 184.71425 144.407503 
L 191.41025 144.407503 
L 191.41025 149.146932 
L 198.10625 149.146932 
L 198.10625 155.713015 
L 204.80225 155.713015 
L 204.80225 160.304337 
L 211.49825 160.304337 
L 211.49825 170.128778 
L 218.19425 170.128778 
L 218.19425 166.771682 
L 224.89025 166.771682 
L 224.89025 168.746444 
L 231.58625 168.746444 
L 231.58625 167.512218 
L 238.28225 167.512218 
L 238.28225 173.436504 
L 244.97825 173.436504 
L 244.97825 181.138075 
L 251.67425 181.138075 
L 251.67425 188.000373 
L 258.37025 188.000373 
L 258.37025 195.998159 
L 265.06625 195.998159 
L 265.06625 203.008564 
L 271.76225 203.008564 
L 271.76225 215.400195 
L 278.45825 215.400195 
L 278.45825 223.101766 
L 285.15425 223.101766 
L 285.15425 229.421005 
L 291.85025 229.421005 
L 291.85025 233.617374 
L 298.54625 233.617374 
L 298.54625 237.073207 
L 305.24225 237.073207 
L 305.24225 239.196076 
L 311.93825 239.196076 
L 311.93825 240.57841 
L 318.63425 240.57841 
L 318.63425 241.022731 
L 325.33025 241.022731 
L 325.33025 241.763267 
L 332.02625 241.763267 
L 332.02625 241.812636 
L 338.72225 241.812636 
L 338.72225 242.010112 
L 345.41825 242.010112 
L 345.41825 242.059481 
L 352.11425 242.059481 
L 352.11425 242.059481 
L 358.81025 242.059481 
L 358.81025 242.10885 
L 365.50625 242.10885 
L 365.50625 242.059481 
L 372.20225 242.059481 
L 372.20225 242.059481 
L 378.89825 242.059481 
L 378.89825 242.10885 
L 385.59425 242.10885 
L 385.59425 242.10885 
L 392.29025 242.10885 
L 392.29025 242.10885 
L 398.98625 242.10885 
L 398.98625 242.10885 
L 398.98625 242.10885 
L 398.98625 242.10885 
L 392.29025 242.10885 
L 392.29025 242.10885 
L 385.59425 242.10885 
L 385.59425 242.10885 
L 378.89825 242.10885 
L 378.89825 242.10885 
L 372.20225 242.10885 
L 372.20225 242.10885 
L 365.50625 242.10885 
L 365.50625 242.10885 
L 358.81025 242.10885 
L 358.81025 242.059481 
L 352.11425 242.059481 
L 352.11425 242.10885 
L 345.41825 242.10885 
L 345.41825 242.10885 
L 338.72225 242.10885 
L 338.72225 241.911374 
L 332.02625 241.911374 
L 332.02625 242.010112 
L 325.33025 242.010112 
L 325.33025 241.713898 
L 318.63425 241.713898 
L 318.63425 241.61516 
L 311.93825 241.61516 
L 311.93825 241.220207 
L 305.24225 241.220207 
L 305.24225 239.936612 
L 298.54625 239.936612 
L 298.54625 238.554279 
L 291.85025 238.554279 
L 291.85025 236.38204 
L 285.15425 236.38204 
L 285.15425 232.629993 
L 278.45825 232.629993 
L 278.45825 228.384255 
L 271.76225 228.384255 
L 271.76225 221.620695 
L 265.06625 221.620695 
L 265.06625 217.22685 
L 258.37025 217.22685 
L 258.37025 213.07985 
L 251.67425 213.07985 
L 251.67425 210.117707 
L 244.97825 210.117707 
L 244.97825 204.933957 
L 238.28225 204.933957 
L 238.28225 200.046421 
L 231.58625 200.046421 
L 231.58625 198.121028 
L 224.89025 198.121028 
L 224.89025 195.751314 
L 218.19425 195.751314 
L 218.19425 196.491849 
L 211.49825 196.491849 
L 211.49825 186.568671 
L 204.80225 186.568671 
L 204.80225 180.39754 
L 198.10625 180.39754 
L 198.10625 176.793599 
L 191.41025 176.793599 
L 191.41025 171.214897 
L 184.71425 171.214897 
L 184.71425 168.894551 
L 178.01825 168.894551 
L 178.01825 169.240135 
L 171.32225 169.240135 
L 171.32225 171.56048 
L 164.62625 171.56048 
L 164.62625 177.583504 
L 157.93025 177.583504 
L 157.93025 186.223087 
L 151.23425 186.223087 
L 151.23425 196.294373 
L 144.53825 196.294373 
L 144.53825 208.587266 
L 137.84225 208.587266 
L 137.84225 215.400195 
L 131.14625 215.400195 
L 131.14625 227.199397 
L 124.45025 227.199397 
L 124.45025 230.260278 
L 117.75425 230.260278 
L 117.75425 235.098445 
L 111.05825 235.098445 
L 111.05825 238.554279 
L 104.36225 238.554279 
L 104.36225 239.985981 
L 97.66625 239.985981 
L 97.66625 240.825255 
L 90.97025 240.825255 
L 90.97025 241.467052 
L 84.27425 241.467052 
L 84.27425 241.713898 
L 77.57825 241.713898 
L 77.57825 241.960743 
L 70.88225 241.960743 
L 70.88225 242.059481 
L 64.18625 242.059481 
L 64.18625 242.059481 
" clip-path="url(#p543c3fde6b)" style="fill: #b1dcc2; stroke: #000000; stroke-width: 0.5; stroke-linejoin: miter"/>
   </g>
   <g id="patch_4">
    <path d="M 64.18625 242.10885 
L 64.18625 242.059481 
L 70.88225 242.059481 
L 70.88225 241.960743 
L 77.57825 241.960743 
L 77.57825 241.713898 
L 84.27425 241.713898 
L 84.27425 241.467052 
L 90.97025 241.467052 
L 90.97025 240.825255 
L 97.66625 240.825255 
L 97.66625 239.985981 
L 104.36225 239.985981 
L 104.36225 238.554279 
L 111.05825 238.554279 
L 111.05825 235.098445 
L 117.75425 235.098445 
L 117.75425 230.260278 
L 124.45025 230.260278 
L 124.45025 227.199397 
L 131.14625 227.199397 
L 131.14625 215.400195 
L 137.84225 215.400195 
L 137.84225 208.587266 
L 144.53825 208.587266 
L 144.53825 196.294373 
L 151.23425 196.294373 
L 151.23425 186.223087 
L 157.93025 186.223087 
L 157.93025 177.583504 
L 164.62625 177.583504 
L 164.62625 171.56048 
L 171.32225 171.56048 
L 171.32225 169.240135 
L 178.01825 169.240135 
L 178.01825 168.894551 
L 184.71425 168.894551 
L 184.71425 171.214897 
L 191.41025 171.214897 
L 191.41025 176.793599 
L 198.10625 176.793599 
L 198.10625 180.39754 
L 204.80225 180.39754 
L 204.80225 186.568671 
L 211.49825 186.568671 
L 211.49825 196.491849 
L 218.19425 196.491849 
L 218.19425 195.751314 
L 224.89025 195.751314 
L 224.89025 198.121028 
L 231.58625 198.121028 
L 231.58625 200.046421 
L 238.28225 200.046421 
L 238.28225 204.933957 
L 244.97825 204.933957 
L 244.97825 210.117707 
L 251.67425 210.117707 
L 251.67425 213.07985 
L 258.37025 213.07985 
L 258.37025 217.22685 
L 265.06625 217.22685 
L 265.06625 221.620695 
L 271.76225 221.620695 
L 271.76225 228.384255 
L 278.45825 228.384255 
L 278.45825 232.629993 
L 285.15425 232.629993 
L 285.15425 236.38204 
L 291.85025 236.38204 
L 291.85025 238.554279 
L 298.54625 238.554279 
L 298.54625 239.936612 
L 305.24225 239.936612 
L 305.24225 241.220207 
L 311.93825 241.220207 
L 311.93825 241.61516 
L 318.63425 241.61516 
L 318.63425 241.713898 
L 325.33025 241.713898 
L 325.33025 242.010112 
L 332.02625 242.010112 
L 332.02625 241.911374 
L 338.72225 241.911374 
L 338.72225 242.10885 
L 345.41825 242.10885 
L 345.41825 242.10885 
L 352.11425 242.10885 
L 352.11425 242.059481 
L 358.81025 242.059481 
L 358.81025 242.10885 
L 365.50625 242.10885 
L 365.50625 242.10885 
L 372.20225 242.10885 
L 372.20225 242.10885 
L 378.89825 242.10885 
L 378.89825 242.10885 
L 385.59425 242.10885 
L 385.59425 242.10885 
L 392.29025 242.10885 
L 392.29025 242.10885 
L 398.98625 242.10885 
L 398.98625 242.10885 
L 398.98625 242.10885 
L 398.98625 242.10885 
L 392.29025 242.10885 
L 392.29025 242.10885 
L 385.59425 242.10885 
L 385.59425 242.10885 
L 378.89825 242.10885 
L 378.89825 242.10885 
L 372.20225 242.10885 
L 372.20225 242.10885 
L 365.50625 242.10885 
L 365.50625 242.10885 
L 358.81025 242.10885 
L 358.81025 242.10885 
L 352.11425 242.10885 
L 352.11425 242.10885 
L 345.41825 242.10885 
L 345.41825 242.10885 
L 338.72225 242.10885 
L 338.72225 242.010112 
L 332.02625 242.010112 
L 332.02625 242.059481 
L 325.33025 242.059481 
L 325.33025 241.862005 
L 318.63425 241.862005 
L 318.63425 241.862005 
L 311.93825 241.862005 
L 311.93825 241.763267 
L 305.24225 241.763267 
L 305.24225 240.57841 
L 298.54625 240.57841 
L 298.54625 240.232826 
L 291.85025 240.232826 
L 291.85025 238.406171 
L 285.15425 238.406171 
L 285.15425 236.283302 
L 278.45825 236.283302 
L 278.45825 233.321159 
L 271.76225 233.321159 
L 271.76225 228.186778 
L 265.06625 228.186778 
L 265.06625 225.668957 
L 258.37025 225.668957 
L 258.37025 223.546088 
L 251.67425 223.546088 
L 251.67425 221.670064 
L 244.97825 221.670064 
L 244.97825 216.733159 
L 238.28225 216.733159 
L 238.28225 217.029373 
L 231.58625 217.029373 
L 231.58625 216.1901 
L 224.89025 216.1901 
L 224.89025 216.288838 
L 218.19425 216.288838 
L 218.19425 217.819278 
L 211.49825 217.819278 
L 211.49825 214.955873 
L 204.80225 214.955873 
L 204.80225 213.771016 
L 198.10625 213.771016 
L 198.10625 211.055719 
L 191.41025 211.055719 
L 191.41025 210.018969 
L 184.71425 210.018969 
L 184.71425 207.698623 
L 178.01825 207.698623 
L 178.01825 210.167076 
L 171.32225 210.167076 
L 171.32225 211.253195 
L 164.62625 211.253195 
L 164.62625 213.919123 
L 157.93025 213.919123 
L 157.93025 216.486314 
L 151.23425 216.486314 
L 151.23425 222.114385 
L 144.53825 222.114385 
L 144.53825 228.186778 
L 137.84225 228.186778 
L 137.84225 231.19829 
L 131.14625 231.19829 
L 131.14625 236.530148 
L 124.45025 236.530148 
L 124.45025 237.715005 
L 117.75425 237.715005 
L 117.75425 239.245445 
L 111.05825 239.245445 
L 111.05825 241.170838 
L 104.36225 241.170838 
L 104.36225 241.318945 
L 97.66625 241.318945 
L 97.66625 241.812636 
L 90.97025 241.812636 
L 90.97025 241.862005 
L 84.27425 241.862005 
L 84.27425 241.911374 
L 77.57825 241.911374 
L 77.57825 242.059481 
L 70.88225 242.059481 
L 70.88225 242.10885 
L 64.18625 242.10885 
L 64.18625 242.10885 
" clip-path="url(#p543c3fde6b)" style="fill: #b67b76; stroke: #000000; stroke-width: 0.5; stroke-linejoin: miter"/>
   </g>
   <g id="patch_5">
    <path d="M 64.18625 242.10885 
L 64.18625 242.10885 
L 70.88225 242.10885 
L 70.88225 242.059481 
L 77.57825 242.059481 
L 77.57825 241.911374 
L 84.27425 241.911374 
L 84.27425 241.862005 
L 90.97025 241.862005 
L 90.97025 241.812636 
L 97.66625 241.812636 
L 97.66625 241.318945 
L 104.36225 241.318945 
L 104.36225 241.170838 
L 111.05825 241.170838 
L 111.05825 239.245445 
L 117.75425 239.245445 
L 117.75425 237.715005 
L 124.45025 237.715005 
L 124.45025 236.530148 
L 131.14625 236.530148 
L 131.14625 231.19829 
L 137.84225 231.19829 
L 137.84225 228.186778 
L 144.53825 228.186778 
L 144.53825 222.114385 
L 151.23425 222.114385 
L 151.23425 216.486314 
L 157.93025 216.486314 
L 157.93025 213.919123 
L 164.62625 213.919123 
L 164.62625 211.253195 
L 171.32225 211.253195 
L 171.32225 210.167076 
L 178.01825 210.167076 
L 178.01825 207.698623 
L 184.71425 207.698623 
L 184.71425 210.018969 
L 191.41025 210.018969 
L 191.41025 211.055719 
L 198.10625 211.055719 
L 198.10625 213.771016 
L 204.80225 213.771016 
L 204.80225 214.955873 
L 211.49825 214.955873 
L 211.49825 217.819278 
L 218.19425 217.819278 
L 218.19425 216.288838 
L 224.89025 216.288838 
L 224.89025 216.1901 
L 231.58625 216.1901 
L 231.58625 217.029373 
L 238.28225 217.029373 
L 238.28225 216.733159 
L 244.97825 216.733159 
L 244.97825 221.670064 
L 251.67425 221.670064 
L 251.67425 223.546088 
L 258.37025 223.546088 
L 258.37025 225.668957 
L 265.06625 225.668957 
L 265.06625 228.186778 
L 271.76225 228.186778 
L 271.76225 233.321159 
L 278.45825 233.321159 
L 278.45825 236.283302 
L 285.15425 236.283302 
L 285.15425 238.406171 
L 291.85025 238.406171 
L 291.85025 240.232826 
L 298.54625 240.232826 
L 298.54625 240.57841 
L 305.24225 240.57841 
L 305.24225 241.763267 
L 311.93825 241.763267 
L 311.93825 241.862005 
L 318.63425 241.862005 
L 318.63425 241.862005 
L 325.33025 241.862005 
L 325.33025 242.059481 
L 332.02625 242.059481 
L 332.02625 242.010112 
L 338.72225 242.010112 
L 338.72225 242.10885 
L 345.41825 242.10885 
L 345.41825 242.10885 
L 352.11425 242.10885 
L 352.11425 242.10885 
L 358.81025 242.10885 
L 358.81025 242.10885 
L 365.50625 242.10885 
L 365.50625 242.10885 
L 372.20225 242.10885 
L 372.20225 242.10885 
L 378.89825 242.10885 
L 378.89825 242.10885 
L 385.59425 242.10885 
L 385.59425 242.10885 
L 392.29025 242.10885 
L 392.29025 242.10885 
L 398.98625 242.10885 
L 398.98625 242.10885 
L 398.98625 242.10885 
L 398.98625 242.10885 
L 392.29025 242.10885 
L 392.29025 242.10885 
L 385.59425 242.10885 
L 385.59425 242.10885 
L 378.89825 242.10885 
L 378.89825 242.10885 
L 372.20225 242.10885 
L 372.20225 242.10885 
L 365.50625 242.10885 
L 365.50625 242.10885 
L 358.81025 242.10885 
L 358.81025 242.10885 
L 352.11425 242.10885 
L 352.11425 242.10885 
L 345.41825 242.10885 
L 345.41825 242.10885 
L 338.72225 242.10885 
L 338.72225 242.10885 
L 332.02625 242.10885 
L 332.02625 242.10885 
L 325.33025 242.10885 
L 325.33025 242.10885 
L 318.63425 242.10885 
L 318.63425 242.10885 
L 311.93825 242.10885 
L 311.93825 242.10885 
L 305.24225 242.10885 
L 305.24225 242.10885 
L 298.54625 242.10885 
L 298.54625 242.10885 
L 291.85025 242.10885 
L 291.85025 242.10885 
L 285.15425 242.10885 
L 285.15425 242.10885 
L 278.45825 242.10885 
L 278.45825 242.10885 
L 271.76225 242.10885 
L 271.76225 242.10885 
L 265.06625 242.10885 
L 265.06625 242.10885 
L 258.37025 242.10885 
L 258.37025 242.10885 
L 251.67425 242.10885 
L 251.67425 242.10885 
L 244.97825 242.10885 
L 244.97825 242.10885 
L 238.28225 242.10885 
L 238.28225 242.10885 
L 231.58625 242.10885 
L 231.58625 242.10885 
L 224.89025 242.10885 
L 224.89025 242.10885 
L 218.19425 242.10885 
L 218.19425 242.10885 
L 211.49825 242.10885 
L 211.49825 242.10885 
L 204.80225 242.10885 
L 204.80225 242.10885 
L 198.10625 242.10885 
L 198.10625 242.10885 
L 191.41025 242.10885 
L 191.41025 242.10885 
L 184.71425 242.10885 
L 184.71425 242.10885 
L 178.01825 242.10885 
L 178.01825 242.10885 
L 171.32225 242.10885 
L 171.32225 242.10885 
L 164.62625 242.10885 
L 164.62625 242.10885 
L 157.93025 242.10885 
L 157.93025 242.10885 
L 151.23425 242.10885 
L 151.23425 242.10885 
L 144.53825 242.10885 
L 144.53825 242.10885 
L 137.84225 242.10885 
L 137.84225 242.10885 
L 131.14625 242.10885 
L 131.14625 242.10885 
L 124.45025 242.10885 
L 124.45025 242.10885 
L 117.75425 242.10885 
L 117.75425 242.10885 
L 111.05825 242.10885 
L 111.05825 242.10885 
L 104.36225 242.10885 
L 104.36225 242.10885 
L 97.66625 242.10885 
L 97.66625 242.10885 
L 90.97025 242.10885 
L 90.97025 242.10885 
L 84.27425 242.10885 
L 84.27425 242.10885 
L 77.57825 242.10885 
L 77.57825 242.10885 
L 70.88225 242.10885 
L 70.88225 242.10885 
L 64.18625 242.10885 
L 64.18625 242.10885 
" clip-path="url(#p543c3fde6b)" style="fill: #3d4c74; stroke: #000000; stroke-width: 0.5; stroke-linejoin: miter"/>
   </g>
   <g id="patch_6">
    <path d="M 64.18625 242.10885 
L 64.18625 242.10885 
L 70.88225 242.10885 
L 70.88225 242.10885 
L 77.57825 242.10885 
L 77.57825 242.10885 
L 84.27425 242.10885 
L 84.27425 242.10885 
L 90.97025 242.10885 
L 90.97025 242.10885 
L 97.66625 242.10885 
L 97.66625 241.960801 
L 104.36225 241.960801 
L 104.36225 241.664702 
L 111.05825 241.664702 
L 111.05825 240.628356 
L 117.75425 240.628356 
L 117.75425 239.74006 
L 124.45025 239.74006 
L 124.45025 237.815418 
L 131.14625 237.815418 
L 131.14625 234.262232 
L 137.84225 234.262232 
L 137.84225 228.044158 
L 144.53825 228.044158 
L 144.53825 225.675367 
L 151.23425 225.675367 
L 151.23425 217.236552 
L 157.93025 217.236552 
L 157.93025 205.392601 
L 164.62625 205.392601 
L 164.62625 203.912107 
L 171.32225 203.912107 
L 171.32225 188.959118 
L 178.01825 188.959118 
L 178.01825 192.660353 
L 184.71425 192.660353 
L 184.71425 186.442278 
L 191.41025 186.442278 
L 191.41025 180.076154 
L 198.10625 180.076154 
L 198.10625 179.335907 
L 204.80225 179.335907 
L 204.80225 162.754375 
L 211.49825 162.754375 
L 211.49825 151.058473 
L 218.19425 151.058473 
L 218.19425 133.440596 
L 224.89025 133.440596 
L 224.89025 120.560298 
L 231.58625 120.560298 
L 231.58625 116.118817 
L 238.28225 116.118817 
L 238.28225 104.570964 
L 244.97825 104.570964 
L 244.97825 115.970767 
L 251.67425 115.970767 
L 251.67425 132.552299 
L 258.37025 132.552299 
L 258.37025 144.5443 
L 265.06625 144.5443 
L 265.06625 170.600993 
L 271.76225 170.600993 
L 271.76225 190.291562 
L 278.45825 190.291562 
L 278.45825 207.169193 
L 285.15425 207.169193 
L 285.15425 218.865095 
L 291.85025 218.865095 
L 291.85025 225.379269 
L 298.54625 225.379269 
L 298.54625 232.929788 
L 305.24225 232.929788 
L 305.24225 236.927121 
L 311.93825 236.927121 
L 311.93825 239.888109 
L 318.63425 239.888109 
L 318.63425 240.036158 
L 325.33025 240.036158 
L 325.33025 241.368603 
L 332.02625 241.368603 
L 332.02625 241.812751 
L 338.72225 241.812751 
L 338.72225 242.10885 
L 345.41825 242.10885 
L 345.41825 242.10885 
L 352.11425 242.10885 
L 352.11425 242.10885 
L 358.81025 242.10885 
L 358.81025 242.10885 
L 365.50625 242.10885 
L 365.50625 242.10885 
L 372.20225 242.10885 
L 372.20225 242.10885 
L 378.89825 242.10885 
L 378.89825 242.10885 
L 385.59425 242.10885 
L 385.59425 242.10885 
L 392.29025 242.10885 
L 392.29025 242.10885 
L 398.98625 242.10885 
L 398.98625 242.10885 
" clip-path="url(#p543c3fde6b)" style="fill: none; stroke-dasharray: 1.5,2.475; stroke-dashoffset: 0; stroke: #000000; stroke-width: 1.5; stroke-linejoin: miter"/>
   </g>
   <g id="patch_7">
    <path d="M 64.18625 242.10885 
L 64.18625 242.059481 
L 70.88225 242.059481 
L 70.88225 241.960743 
L 77.57825 241.960743 
L 77.57825 241.713898 
L 84.27425 241.713898 
L 84.27425 241.467052 
L 90.97025 241.467052 
L 90.97025 240.775886 
L 97.66625 240.775886 
L 97.66625 239.689824 
L 104.36225 239.689824 
L 104.36225 237.813916 
L 111.05825 237.813916 
L 111.05825 232.926785 
L 117.75425 232.926785 
L 117.75425 226.657262 
L 124.45025 226.657262 
L 124.45025 220.536251 
L 131.14625 220.536251 
L 131.14625 202.616672 
L 137.84225 202.616672 
L 137.84225 186.277943 
L 144.53825 186.277943 
L 144.53825 168.308533 
L 151.23425 168.308533 
L 151.23425 144.466575 
L 157.93025 144.466575 
L 157.93025 117.466325 
L 164.62625 117.466325 
L 164.62625 105.914546 
L 171.32225 105.914546 
L 171.32225 85.382855 
L 178.01825 85.382855 
L 178.01825 88.689137 
L 184.71425 88.689137 
L 184.71425 88.740932 
L 191.41025 88.740932 
L 191.41025 87.114236 
L 198.10625 87.114236 
L 198.10625 92.940073 
L 204.80225 92.940073 
L 204.80225 80.949862 
L 211.49825 80.949862 
L 211.49825 79.078401 
L 218.19425 79.078401 
L 218.19425 58.103428 
L 224.89025 58.103428 
L 224.89025 47.197893 
L 231.58625 47.197893 
L 231.58625 41.522185 
L 238.28225 41.522185 
L 238.28225 35.898618 
L 244.97825 35.898618 
L 244.97825 54.999992 
L 251.67425 54.999992 
L 251.67425 78.443822 
L 258.37025 78.443822 
L 258.37025 98.433609 
L 265.06625 98.433609 
L 265.06625 131.500707 
L 271.76225 131.500707 
L 271.76225 163.582907 
L 278.45825 163.582907 
L 278.45825 188.16211 
L 285.15425 188.16211 
L 285.15425 206.17725 
L 291.85025 206.17725 
L 291.85025 216.887792 
L 298.54625 216.887792 
L 298.54625 227.894145 
L 305.24225 227.894145 
L 305.24225 234.014347 
L 311.93825 234.014347 
L 311.93825 238.357669 
L 318.63425 238.357669 
L 318.63425 238.950039 
L 325.33025 238.950039 
L 325.33025 241.02302 
L 332.02625 241.02302 
L 332.02625 241.516537 
L 338.72225 241.516537 
L 338.72225 242.010112 
L 345.41825 242.010112 
L 345.41825 242.059481 
L 352.11425 242.059481 
L 352.11425 242.059481 
L 358.81025 242.059481 
L 358.81025 242.10885 
L 365.50625 242.10885 
L 365.50625 242.059481 
L 372.20225 242.059481 
L 372.20225 242.059481 
L 378.89825 242.059481 
L 378.89825 242.10885 
L 385.59425 242.10885 
L 385.59425 242.10885 
L 392.29025 242.10885 
L 392.29025 242.10885 
L 398.98625 242.10885 
L 398.98625 242.10885 
" clip-path="url(#p543c3fde6b)" style="fill: none; stroke: #000080; stroke-width: 1.5; stroke-linejoin: miter"/>
   </g>
   <g id="patch_8">
    <path d="M 64.18625 242.100321 
L 64.18625 241.945956 
L 70.88225 241.945956 
L 70.88225 241.816675 
L 77.57825 241.816675 
L 77.57825 241.51913 
L 84.27425 241.51913 
L 84.27425 241.235138 
L 90.97025 241.235138 
L 90.97025 240.466823 
L 97.66625 240.466823 
L 97.66625 239.265513 
L 104.36225 239.265513 
L 104.36225 237.24617 
L 111.05825 237.24617 
L 111.05825 232.085455 
L 117.75425 232.085455 
L 117.75425 225.593084 
L 124.45025 225.593084 
L 124.45025 219.245819 
L 131.14625 219.245819 
L 131.14625 200.896281 
L 137.84225 200.896281 
L 137.84225 184.167074 
L 144.53825 184.167074 
L 144.53825 165.941867 
L 151.23425 165.941867 
L 151.23425 141.694178 
L 157.93025 141.694178 
L 157.93025 114.260467 
L 164.62625 114.260467 
L 164.62625 102.597592 
L 171.32225 102.597592 
L 171.32225 81.696297 
L 178.01825 81.696297 
L 178.01825 85.078348 
L 184.71425 85.078348 
L 184.71425 85.040546 
L 191.41025 85.040546 
L 191.41025 83.313418 
L 198.10625 83.313418 
L 198.10625 89.166205 
L 204.80225 89.166205 
L 204.80225 76.877813 
L 211.49825 76.877813 
L 211.49825 74.845867 
L 218.19425 74.845867 
L 218.19425 53.54434 
L 224.89025 53.54434 
L 224.89025 42.436692 
L 231.58625 42.436692 
L 231.58625 36.683912 
L 238.28225 36.683912 
L 238.28225 30.90885 
L 244.97825 30.90885 
L 244.97825 50.22645 
L 251.67425 50.22645 
L 251.67425 73.980989 
L 258.37025 73.980989 
L 258.37025 94.227016 
L 265.06625 94.227016 
L 265.06625 127.848391 
L 271.76225 127.848391 
L 271.76225 160.468614 
L 278.45825 160.468614 
L 278.45825 185.575021 
L 285.15425 185.575021 
L 285.15425 204.045094 
L 291.85025 204.045094 
L 291.85025 215.068612 
L 298.54625 215.068612 
L 298.54625 226.509792 
L 305.24225 226.509792 
L 305.24225 232.942943 
L 311.93825 232.942943 
L 311.93825 237.607917 
L 318.63425 237.607917 
L 318.63425 238.228295 
L 325.33025 238.228295 
L 325.33025 240.537847 
L 332.02625 240.537847 
L 332.02625 241.162811 
L 338.72225 241.162811 
L 338.72225 241.879883 
L 345.41825 241.879883 
L 345.41825 241.945956 
L 352.11425 241.945956 
L 352.11425 241.945956 
L 358.81025 241.945956 
L 358.81025 242.017961 
L 365.50625 242.017961 
L 365.50625 241.945956 
L 372.20225 241.945956 
L 372.20225 241.945956 
L 378.89825 241.945956 
L 378.89825 242.017961 
L 385.59425 242.017961 
L 385.59425 242.017961 
L 392.29025 242.017961 
L 392.29025 242.017961 
L 398.98625 242.017961 
L 398.98625 242.10885 
L 398.98625 242.10885 
L 398.98625 242.10885 
L 392.29025 242.10885 
L 392.29025 242.10885 
L 385.59425 242.10885 
L 385.59425 242.10885 
L 378.89825 242.10885 
L 378.89825 242.100321 
L 372.20225 242.100321 
L 372.20225 242.100321 
L 365.50625 242.100321 
L 365.50625 242.10885 
L 358.81025 242.10885 
L 358.81025 242.100321 
L 352.11425 242.100321 
L 352.11425 242.100321 
L 345.41825 242.100321 
L 345.41825 242.073888 
L 338.72225 242.073888 
L 338.72225 241.751459 
L 332.02625 241.751459 
L 332.02625 241.372423 
L 325.33025 241.372423 
L 325.33025 239.546791 
L 318.63425 239.546791 
L 318.63425 238.990472 
L 311.93825 238.990472 
L 311.93825 234.966562 
L 305.24225 234.966562 
L 305.24225 229.160352 
L 298.54625 229.160352 
L 298.54625 218.588267 
L 291.85025 218.588267 
L 291.85025 208.19302 
L 285.15425 208.19302 
L 285.15425 190.633318 
L 278.45825 190.633318 
L 278.45825 166.580527 
L 271.76225 166.580527 
L 271.76225 135.038045 
L 265.06625 135.038045 
L 265.06625 102.522165 
L 258.37025 102.522165 
L 258.37025 82.789696 
L 251.67425 82.789696 
L 251.67425 59.656198 
L 244.97825 59.656198 
L 244.97825 40.771837 
L 238.28225 40.771837 
L 238.28225 46.247793 
L 231.58625 46.247793 
L 231.58625 51.846862 
L 224.89025 51.846862 
L 224.89025 62.553566 
L 218.19425 62.553566 
L 218.19425 83.205131 
L 211.49825 83.205131 
L 211.49825 84.922744 
L 204.80225 84.922744 
L 204.80225 96.621923 
L 198.10625 96.621923 
L 198.10625 90.825127 
L 191.41025 90.825127 
L 191.41025 92.355126 
L 184.71425 92.355126 
L 184.71425 92.217817 
L 178.01825 92.217817 
L 178.01825 88.985625 
L 171.32225 88.985625 
L 171.32225 109.153538 
L 164.62625 109.153538 
L 164.62625 120.592761 
L 157.93025 120.592761 
L 157.93025 147.163436 
L 151.23425 147.163436 
L 151.23425 170.602746 
L 144.53825 170.602746 
L 144.53825 188.313229 
L 137.84225 188.313229 
L 137.84225 204.266645 
L 131.14625 204.266645 
L 131.14625 221.75572 
L 124.45025 221.75572 
L 124.45025 227.654855 
L 117.75425 227.654855 
L 117.75425 233.700076 
L 111.05825 233.700076 
L 111.05825 238.318572 
L 104.36225 238.318572 
L 104.36225 240.054524 
L 97.66625 240.054524 
L 97.66625 241.030816 
L 90.97025 241.030816 
L 90.97025 241.64274 
L 84.27425 241.64274 
L 84.27425 241.85057 
L 77.57825 241.85057 
L 77.57825 242.041348 
L 70.88225 242.041348 
L 70.88225 242.100321 
L 64.18625 242.100321 
L 64.18625 242.100321 
" clip-path="url(#p543c3fde6b)" style="fill: url(#h172048cdb3); opacity: 0.5"/>
   </g>
   <g id="LineCollection_1">
    <path d="M 67.53425 242.10885 
L 67.53425 241.836288 
" clip-path="url(#p543c3fde6b)" style="fill: none; stroke: #000000; stroke-width: 1.5"/>
    <path d="M 74.23025 242.10885 
L 74.23025 241.836288 
" clip-path="url(#p543c3fde6b)" style="fill: none; stroke: #000000; stroke-width: 1.5"/>
    <path d="M 80.92625 242.10885 
L 80.92625 241.836288 
" clip-path="url(#p543c3fde6b)" style="fill: none; stroke: #000000; stroke-width: 1.5"/>
    <path d="M 87.62225 242.10885 
L 87.62225 241.836288 
" clip-path="url(#p543c3fde6b)" style="fill: none; stroke: #000000; stroke-width: 1.5"/>
    <path d="M 94.31825 242.10885 
L 94.31825 241.836288 
" clip-path="url(#p543c3fde6b)" style="fill: none; stroke: #000000; stroke-width: 1.5"/>
    <path d="M 101.01425 242.083274 
L 101.01425 241.620357 
" clip-path="url(#p543c3fde6b)" style="fill: none; stroke: #000000; stroke-width: 1.5"/>
    <path d="M 107.71025 241.906423 
L 107.71025 241.232666 
" clip-path="url(#p543c3fde6b)" style="fill: none; stroke: #000000; stroke-width: 1.5"/>
    <path d="M 114.40625 241.088596 
L 114.40625 239.996637 
" clip-path="url(#p543c3fde6b)" style="fill: none; stroke: #000000; stroke-width: 1.5"/>
    <path d="M 121.10225 240.32601 
L 121.10225 238.987515 
" clip-path="url(#p543c3fde6b)" style="fill: none; stroke: #000000; stroke-width: 1.5"/>
    <path d="M 127.79825 238.608064 
L 127.79825 236.86094 
" clip-path="url(#p543c3fde6b)" style="fill: none; stroke: #000000; stroke-width: 1.5"/>
    <path d="M 134.49425 235.336636 
L 134.49425 233.029585 
" clip-path="url(#p543c3fde6b)" style="fill: none; stroke: #000000; stroke-width: 1.5"/>
    <path d="M 141.19025 229.484621 
L 141.19025 226.448034 
" clip-path="url(#p543c3fde6b)" style="fill: none; stroke: #000000; stroke-width: 1.5"/>
    <path d="M 147.88625 227.232812 
L 147.88625 223.962833 
" clip-path="url(#p543c3fde6b)" style="fill: none; stroke: #000000; stroke-width: 1.5"/>
    <path d="M 154.58225 219.153581 
L 154.58225 215.165752 
" clip-path="url(#p543c3fde6b)" style="fill: none; stroke: #000000; stroke-width: 1.5"/>
    <path d="M 161.27825 207.722513 
L 161.27825 202.909931 
" clip-path="url(#p543c3fde6b)" style="fill: none; stroke: #000000; stroke-width: 1.5"/>
    <path d="M 167.97425 206.288591 
L 167.97425 201.382957 
" clip-path="url(#p543c3fde6b)" style="fill: none; stroke: #000000; stroke-width: 1.5"/>
    <path d="M 174.67025 191.762948 
L 174.67025 186.003326 
" clip-path="url(#p543c3fde6b)" style="fill: none; stroke: #000000; stroke-width: 1.5"/>
    <path d="M 181.36625 195.364701 
L 181.36625 189.803899 
" clip-path="url(#p543c3fde6b)" style="fill: none; stroke: #000000; stroke-width: 1.5"/>
    <path d="M 188.06225 189.311787 
L 188.06225 183.420898 
" clip-path="url(#p543c3fde6b)" style="fill: none; stroke: #000000; stroke-width: 1.5"/>
    <path d="M 194.75825 183.105442 
L 194.75825 176.895197 
" clip-path="url(#p543c3fde6b)" style="fill: none; stroke: #000000; stroke-width: 1.5"/>
    <path d="M 201.45425 182.38323 
L 201.45425 176.136936 
" clip-path="url(#p543c3fde6b)" style="fill: none; stroke: #000000; stroke-width: 1.5"/>
    <path d="M 208.15025 166.180899 
L 208.15025 159.176602 
" clip-path="url(#p543c3fde6b)" style="fill: none; stroke: #000000; stroke-width: 1.5"/>
    <path d="M 214.84625 154.728982 
L 214.84625 147.236927 
" clip-path="url(#p543c3fde6b)" style="fill: none; stroke: #000000; stroke-width: 1.5"/>
    <path d="M 221.54225 137.450702 
L 221.54225 129.279705 
" clip-path="url(#p543c3fde6b)" style="fill: none; stroke: #000000; stroke-width: 1.5"/>
    <path d="M 228.23825 124.80151 
L 228.23825 116.168452 
" clip-path="url(#p543c3fde6b)" style="fill: none; stroke: #000000; stroke-width: 1.5"/>
    <path d="M 234.93425 120.436852 
L 234.93425 111.650192 
" clip-path="url(#p543c3fde6b)" style="fill: none; stroke: #000000; stroke-width: 1.5"/>
    <path d="M 241.63025 109.082625 
L 241.63025 99.908823 
" clip-path="url(#p543c3fde6b)" style="fill: none; stroke: #000000; stroke-width: 1.5"/>
    <path d="M 248.32625 120.29134 
L 248.32625 111.499607 
" clip-path="url(#p543c3fde6b)" style="fill: none; stroke: #000000; stroke-width: 1.5"/>
    <path d="M 255.02225 136.578769 
L 255.02225 128.375056 
" clip-path="url(#p543c3fde6b)" style="fill: none; stroke: #000000; stroke-width: 1.5"/>
    <path d="M 261.71825 148.343912 
L 261.71825 140.593752 
" clip-path="url(#p543c3fde6b)" style="fill: none; stroke: #000000; stroke-width: 1.5"/>
    <path d="M 268.41425 173.853588 
L 268.41425 167.196977 
" clip-path="url(#p543c3fde6b)" style="fill: none; stroke: #000000; stroke-width: 1.5"/>
    <path d="M 275.11025 193.059991 
L 275.11025 187.371123 
" clip-path="url(#p543c3fde6b)" style="fill: none; stroke: #000000; stroke-width: 1.5"/>
    <path d="M 281.80625 209.44196 
L 281.80625 204.743551 
" clip-path="url(#p543c3fde6b)" style="fill: none; stroke: #000000; stroke-width: 1.5"/>
    <path d="M 288.50225 220.718172 
L 288.50225 216.85805 
" clip-path="url(#p543c3fde6b)" style="fill: none; stroke: #000000; stroke-width: 1.5"/>
    <path d="M 295.19825 226.950724 
L 295.19825 223.652786 
" clip-path="url(#p543c3fde6b)" style="fill: none; stroke: #000000; stroke-width: 1.5"/>
    <path d="M 301.89425 234.092377 
L 301.89425 231.609725 
" clip-path="url(#p543c3fde6b)" style="fill: none; stroke: #000000; stroke-width: 1.5"/>
    <path d="M 308.59025 237.798788 
L 308.59025 235.89486 
" clip-path="url(#p543c3fde6b)" style="fill: none; stroke: #000000; stroke-width: 1.5"/>
    <path d="M 315.28625 240.455047 
L 315.28625 239.153971 
" clip-path="url(#p543c3fde6b)" style="fill: none; stroke: #000000; stroke-width: 1.5"/>
    <path d="M 321.98225 240.583423 
L 321.98225 239.321024 
" clip-path="url(#p543c3fde6b)" style="fill: none; stroke: #000000; stroke-width: 1.5"/>
    <path d="M 328.67825 241.688344 
L 328.67825 240.86783 
" clip-path="url(#p543c3fde6b)" style="fill: none; stroke: #000000; stroke-width: 1.5"/>
    <path d="M 335.37425 242.004004 
L 335.37425 241.422218 
" clip-path="url(#p543c3fde6b)" style="fill: none; stroke: #000000; stroke-width: 1.5"/>
    <path d="M 342.07025 242.10885 
L 342.07025 241.836288 
" clip-path="url(#p543c3fde6b)" style="fill: none; stroke: #000000; stroke-width: 1.5"/>
    <path d="M 348.76625 242.10885 
L 348.76625 241.836288 
" clip-path="url(#p543c3fde6b)" style="fill: none; stroke: #000000; stroke-width: 1.5"/>
    <path d="M 355.46225 242.10885 
L 355.46225 241.836288 
" clip-path="url(#p543c3fde6b)" style="fill: none; stroke: #000000; stroke-width: 1.5"/>
    <path d="M 362.15825 242.10885 
L 362.15825 241.836288 
" clip-path="url(#p543c3fde6b)" style="fill: none; stroke: #000000; stroke-width: 1.5"/>
    <path d="M 368.85425 242.10885 
L 368.85425 241.836288 
" clip-path="url(#p543c3fde6b)" style="fill: none; stroke: #000000; stroke-width: 1.5"/>
    <path d="M 375.55025 242.10885 
L 375.55025 241.836288 
" clip-path="url(#p543c3fde6b)" style="fill: none; stroke: #000000; stroke-width: 1.5"/>
    <path d="M 382.24625 242.10885 
L 382.24625 241.836288 
" clip-path="url(#p543c3fde6b)" style="fill: none; stroke: #000000; stroke-width: 1.5"/>
    <path d="M 388.94225 242.10885 
L 388.94225 241.836288 
" clip-path="url(#p543c3fde6b)" style="fill: none; stroke: #000000; stroke-width: 1.5"/>
    <path d="M 395.63825 242.10885 
L 395.63825 241.836288 
" clip-path="url(#p543c3fde6b)" style="fill: none; stroke: #000000; stroke-width: 1.5"/>
   </g>
   <g id="LineCollection_2"/>
   <g id="LineCollection_3">
    <path d="M 67.53425 242.100321 
L 67.53425 241.945956 
" clip-path="url(#p543c3fde6b)" style="fill: none; stroke: #000080; stroke-width: 1.5"/>
    <path d="M 74.23025 242.041348 
L 74.23025 241.816675 
" clip-path="url(#p543c3fde6b)" style="fill: none; stroke: #000080; stroke-width: 1.5"/>
    <path d="M 80.92625 241.85057 
L 80.92625 241.51913 
" clip-path="url(#p543c3fde6b)" style="fill: none; stroke: #000080; stroke-width: 1.5"/>
    <path d="M 87.62225 241.64274 
L 87.62225 241.235138 
" clip-path="url(#p543c3fde6b)" style="fill: none; stroke: #000080; stroke-width: 1.5"/>
    <path d="M 94.31825 241.030816 
L 94.31825 240.466823 
" clip-path="url(#p543c3fde6b)" style="fill: none; stroke: #000080; stroke-width: 1.5"/>
    <path d="M 101.01425 240.054524 
L 101.01425 239.265513 
" clip-path="url(#p543c3fde6b)" style="fill: none; stroke: #000080; stroke-width: 1.5"/>
    <path d="M 107.71025 238.318572 
L 107.71025 237.24617 
" clip-path="url(#p543c3fde6b)" style="fill: none; stroke: #000080; stroke-width: 1.5"/>
    <path d="M 114.40625 233.700076 
L 114.40625 232.085455 
" clip-path="url(#p543c3fde6b)" style="fill: none; stroke: #000080; stroke-width: 1.5"/>
    <path d="M 121.10225 227.654855 
L 121.10225 225.593084 
" clip-path="url(#p543c3fde6b)" style="fill: none; stroke: #000080; stroke-width: 1.5"/>
    <path d="M 127.79825 221.75572 
L 127.79825 219.245819 
" clip-path="url(#p543c3fde6b)" style="fill: none; stroke: #000080; stroke-width: 1.5"/>
    <path d="M 134.49425 204.266645 
L 134.49425 200.896281 
" clip-path="url(#p543c3fde6b)" style="fill: none; stroke: #000080; stroke-width: 1.5"/>
    <path d="M 141.19025 188.313229 
L 141.19025 184.167074 
" clip-path="url(#p543c3fde6b)" style="fill: none; stroke: #000080; stroke-width: 1.5"/>
    <path d="M 147.88625 170.602746 
L 147.88625 165.941867 
" clip-path="url(#p543c3fde6b)" style="fill: none; stroke: #000080; stroke-width: 1.5"/>
    <path d="M 154.58225 147.163436 
L 154.58225 141.694178 
" clip-path="url(#p543c3fde6b)" style="fill: none; stroke: #000080; stroke-width: 1.5"/>
    <path d="M 161.27825 120.592761 
L 161.27825 114.260467 
" clip-path="url(#p543c3fde6b)" style="fill: none; stroke: #000080; stroke-width: 1.5"/>
    <path d="M 167.97425 109.153538 
L 167.97425 102.597592 
" clip-path="url(#p543c3fde6b)" style="fill: none; stroke: #000080; stroke-width: 1.5"/>
    <path d="M 174.67025 88.985625 
L 174.67025 81.696297 
" clip-path="url(#p543c3fde6b)" style="fill: none; stroke: #000080; stroke-width: 1.5"/>
    <path d="M 181.36625 92.217817 
L 181.36625 85.078348 
" clip-path="url(#p543c3fde6b)" style="fill: none; stroke: #000080; stroke-width: 1.5"/>
    <path d="M 188.06225 92.355126 
L 188.06225 85.040546 
" clip-path="url(#p543c3fde6b)" style="fill: none; stroke: #000080; stroke-width: 1.5"/>
    <path d="M 194.75825 90.825127 
L 194.75825 83.313418 
" clip-path="url(#p543c3fde6b)" style="fill: none; stroke: #000080; stroke-width: 1.5"/>
    <path d="M 201.45425 96.621923 
L 201.45425 89.166205 
" clip-path="url(#p543c3fde6b)" style="fill: none; stroke: #000080; stroke-width: 1.5"/>
    <path d="M 208.15025 84.922744 
L 208.15025 76.877813 
" clip-path="url(#p543c3fde6b)" style="fill: none; stroke: #000080; stroke-width: 1.5"/>
    <path d="M 214.84625 83.205131 
L 214.84625 74.845867 
" clip-path="url(#p543c3fde6b)" style="fill: none; stroke: #000080; stroke-width: 1.5"/>
    <path d="M 221.54225 62.553566 
L 221.54225 53.54434 
" clip-path="url(#p543c3fde6b)" style="fill: none; stroke: #000080; stroke-width: 1.5"/>
    <path d="M 228.23825 51.846862 
L 228.23825 42.436692 
" clip-path="url(#p543c3fde6b)" style="fill: none; stroke: #000080; stroke-width: 1.5"/>
    <path d="M 234.93425 46.247793 
L 234.93425 36.683912 
" clip-path="url(#p543c3fde6b)" style="fill: none; stroke: #000080; stroke-width: 1.5"/>
    <path d="M 241.63025 40.771837 
L 241.63025 30.90885 
" clip-path="url(#p543c3fde6b)" style="fill: none; stroke: #000080; stroke-width: 1.5"/>
    <path d="M 248.32625 59.656198 
L 248.32625 50.22645 
" clip-path="url(#p543c3fde6b)" style="fill: none; stroke: #000080; stroke-width: 1.5"/>
    <path d="M 255.02225 82.789696 
L 255.02225 73.980989 
" clip-path="url(#p543c3fde6b)" style="fill: none; stroke: #000080; stroke-width: 1.5"/>
    <path d="M 261.71825 102.522165 
L 261.71825 94.227016 
" clip-path="url(#p543c3fde6b)" style="fill: none; stroke: #000080; stroke-width: 1.5"/>
    <path d="M 268.41425 135.038045 
L 268.41425 127.848391 
" clip-path="url(#p543c3fde6b)" style="fill: none; stroke: #000080; stroke-width: 1.5"/>
    <path d="M 275.11025 166.580527 
L 275.11025 160.468614 
" clip-path="url(#p543c3fde6b)" style="fill: none; stroke: #000080; stroke-width: 1.5"/>
    <path d="M 281.80625 190.633318 
L 281.80625 185.575021 
" clip-path="url(#p543c3fde6b)" style="fill: none; stroke: #000080; stroke-width: 1.5"/>
    <path d="M 288.50225 208.19302 
L 288.50225 204.045094 
" clip-path="url(#p543c3fde6b)" style="fill: none; stroke: #000080; stroke-width: 1.5"/>
    <path d="M 295.19825 218.588267 
L 295.19825 215.068612 
" clip-path="url(#p543c3fde6b)" style="fill: none; stroke: #000080; stroke-width: 1.5"/>
    <path d="M 301.89425 229.160352 
L 301.89425 226.509792 
" clip-path="url(#p543c3fde6b)" style="fill: none; stroke: #000080; stroke-width: 1.5"/>
    <path d="M 308.59025 234.966562 
L 308.59025 232.942943 
" clip-path="url(#p543c3fde6b)" style="fill: none; stroke: #000080; stroke-width: 1.5"/>
    <path d="M 315.28625 238.990472 
L 315.28625 237.607917 
" clip-path="url(#p543c3fde6b)" style="fill: none; stroke: #000080; stroke-width: 1.5"/>
    <path d="M 321.98225 239.546791 
L 321.98225 238.228295 
" clip-path="url(#p543c3fde6b)" style="fill: none; stroke: #000080; stroke-width: 1.5"/>
    <path d="M 328.67825 241.372423 
L 328.67825 240.537847 
" clip-path="url(#p543c3fde6b)" style="fill: none; stroke: #000080; stroke-width: 1.5"/>
    <path d="M 335.37425 241.751459 
L 335.37425 241.162811 
" clip-path="url(#p543c3fde6b)" style="fill: none; stroke: #000080; stroke-width: 1.5"/>
    <path d="M 342.07025 242.073888 
L 342.07025 241.879883 
" clip-path="url(#p543c3fde6b)" style="fill: none; stroke: #000080; stroke-width: 1.5"/>
    <path d="M 348.76625 242.100321 
L 348.76625 241.945956 
" clip-path="url(#p543c3fde6b)" style="fill: none; stroke: #000080; stroke-width: 1.5"/>
    <path d="M 355.46225 242.100321 
L 355.46225 241.945956 
" clip-path="url(#p543c3fde6b)" style="fill: none; stroke: #000080; stroke-width: 1.5"/>
    <path d="M 362.15825 242.10885 
L 362.15825 242.017961 
" clip-path="url(#p543c3fde6b)" style="fill: none; stroke: #000080; stroke-width: 1.5"/>
    <path d="M 368.85425 242.100321 
L 368.85425 241.945956 
" clip-path="url(#p543c3fde6b)" style="fill: none; stroke: #000080; stroke-width: 1.5"/>
    <path d="M 375.55025 242.100321 
L 375.55025 241.945956 
" clip-path="url(#p543c3fde6b)" style="fill: none; stroke: #000080; stroke-width: 1.5"/>
    <path d="M 382.24625 242.10885 
L 382.24625 242.017961 
" clip-path="url(#p543c3fde6b)" style="fill: none; stroke: #000080; stroke-width: 1.5"/>
    <path d="M 388.94225 242.10885 
L 388.94225 242.017961 
" clip-path="url(#p543c3fde6b)" style="fill: none; stroke: #000080; stroke-width: 1.5"/>
    <path d="M 395.63825 242.10885 
L 395.63825 242.017961 
" clip-path="url(#p543c3fde6b)" style="fill: none; stroke: #000080; stroke-width: 1.5"/>
   </g>
   <g id="LineCollection_4"/>
   <g id="line2d_1"/>
   <g id="line2d_2"/>
   <g id="line2d_3"/>
   <g id="line2d_4"/>
   <g id="patch_9">
    <path d="M 64.18625 242.10885 
L 64.18625 20.34885 
" style="fill: none; stroke: #000000; stroke-linejoin: miter; stroke-linecap: square"/>
   </g>
   <g id="patch_10">
    <path d="M 398.98625 242.10885 
L 398.98625 20.34885 
" style="fill: none; stroke: #000000; stroke-linejoin: miter; stroke-linecap: square"/>
   </g>
   <g id="patch_11">
    <path d="M 64.18625 242.10885 
L 398.98625 242.10885 
" style="fill: none; stroke: #000000; stroke-linejoin: miter; stroke-linecap: square"/>
   </g>
   <g id="patch_12">
    <path d="M 64.18625 20.34885 
L 398.98625 20.34885 
" style="fill: none; stroke: #000000; stroke-linejoin: miter; stroke-linecap: square"/>
   </g>
   <g id="matplotlib.axis_1">
    <g id="xtick_1">
     <g id="line2d_5">
      <defs>
       <path id="m8dec1b3d1d" d="M 0 0 
L 0 -6 
" style="stroke: #1a1a1a; stroke-width: 0.8"/>
      </defs>
      <g>
       <use xlink:href="#m8dec1b3d1d" x="127.957679" y="242.10885" style="fill: #1a1a1a; stroke: #1a1a1a; stroke-width: 0.8"/>
      </g>
     </g>
     <g id="text_1">
      <!-- $\mathdefault{−5}$ -->
      <g style="fill: #1a1a1a" transform="translate(118.357679 260.519787) scale(0.15 -0.15)">
       <defs>
        <path id="LatinModernMath-Regular-2212" d="M 4621 1600 
C 4621 1670 4563 1728 4493 1728 
L 486 1728 
C 416 1728 358 1670 358 1600 
C 358 1530 416 1472 486 1472 
L 4493 1472 
C 4563 1472 4621 1530 4621 1600 
z
" transform="scale(0.015625)"/>
        <path id="LatinModernMath-Regular-35" d="M 2874 1286 
C 2874 2048 2349 2688 1658 2688 
C 1350 2688 1075 2586 845 2362 
L 845 3610 
C 973 3571 1184 3526 1389 3526 
C 2176 3526 2624 4109 2624 4192 
C 2624 4230 2605 4262 2560 4262 
C 2560 4262 2541 4262 2509 4243 
C 2381 4186 2067 4058 1638 4058 
C 1382 4058 1088 4102 787 4237 
C 736 4256 710 4256 710 4256 
C 646 4256 646 4205 646 4102 
L 646 2208 
C 646 2093 646 2042 736 2042 
C 781 2042 794 2061 819 2099 
C 890 2202 1126 2547 1645 2547 
C 1978 2547 2138 2253 2189 2138 
C 2291 1901 2304 1651 2304 1331 
C 2304 1107 2304 723 2150 454 
C 1997 205 1760 38 1466 38 
C 998 38 634 378 525 755 
C 544 749 563 742 634 742 
C 845 742 954 902 954 1056 
C 954 1210 845 1370 634 1370 
C 544 1370 320 1325 320 1030 
C 320 480 762 -141 1478 -141 
C 2221 -141 2874 474 2874 1286 
z
" transform="scale(0.015625)"/>
       </defs>
       <use xlink:href="#LatinModernMath-Regular-2212" transform="translate(0 0.40625)"/>
       <use xlink:href="#LatinModernMath-Regular-35" transform="translate(77.799988 0.40625)"/>
      </g>
     </g>
    </g>
    <g id="xtick_2">
     <g id="line2d_6">
      <g>
       <use xlink:href="#m8dec1b3d1d" x="207.671964" y="242.10885" style="fill: #1a1a1a; stroke: #1a1a1a; stroke-width: 0.8"/>
      </g>
     </g>
     <g id="text_2">
      <!-- $\mathdefault{0}$ -->
      <g style="fill: #1a1a1a" transform="translate(203.921964 260.519787) scale(0.15 -0.15)">
       <defs>
        <path id="LatinModernMath-Regular-30" d="M 2944 2048 
C 2944 2560 2912 3072 2688 3546 
C 2394 4160 1869 4262 1600 4262 
C 1216 4262 749 4096 486 3501 
C 282 3059 250 2560 250 2048 
C 250 1568 275 992 538 506 
C 813 -13 1280 -141 1594 -141 
C 1939 -141 2426 -6 2707 602 
C 2912 1043 2944 1542 2944 2048 
z
M 2413 2125 
C 2413 1645 2413 1210 2342 800 
C 2246 192 1882 0 1594 0 
C 1344 0 966 160 851 774 
C 781 1158 781 1747 781 2125 
C 781 2534 781 2957 832 3302 
C 954 4064 1434 4122 1594 4122 
C 1805 4122 2227 4006 2349 3373 
C 2413 3014 2413 2528 2413 2125 
z
" transform="scale(0.015625)"/>
       </defs>
       <use xlink:href="#LatinModernMath-Regular-30" transform="translate(0 0.40625)"/>
      </g>
     </g>
    </g>
    <g id="xtick_3">
     <g id="line2d_7">
      <g>
       <use xlink:href="#m8dec1b3d1d" x="287.38625" y="242.10885" style="fill: #1a1a1a; stroke: #1a1a1a; stroke-width: 0.8"/>
      </g>
     </g>
     <g id="text_3">
      <!-- $\mathdefault{5}$ -->
      <g style="fill: #1a1a1a" transform="translate(283.63625 260.519787) scale(0.15 -0.15)">
       <use xlink:href="#LatinModernMath-Regular-35" transform="translate(0 0.40625)"/>
      </g>
     </g>
    </g>
    <g id="xtick_4">
     <g id="line2d_8">
      <g>
       <use xlink:href="#m8dec1b3d1d" x="367.100536" y="242.10885" style="fill: #1a1a1a; stroke: #1a1a1a; stroke-width: 0.8"/>
      </g>
     </g>
     <g id="text_4">
      <!-- $\mathdefault{10}$ -->
      <g style="fill: #1a1a1a" transform="translate(359.600536 260.519787) scale(0.15 -0.15)">
       <defs>
        <path id="LatinModernMath-Regular-31" d="M 2682 0 
L 2682 198 
L 2477 198 
C 1901 198 1882 269 1882 506 
L 1882 4096 
C 1882 4250 1882 4262 1734 4262 
C 1338 3853 774 3853 570 3853 
L 570 3654 
C 698 3654 1075 3654 1408 3821 
L 1408 506 
C 1408 275 1389 198 813 198 
L 608 198 
L 608 0 
C 832 19 1389 19 1645 19 
C 1901 19 2458 19 2682 0 
z
" transform="scale(0.015625)"/>
       </defs>
       <use xlink:href="#LatinModernMath-Regular-31" transform="translate(0 0.40625)"/>
       <use xlink:href="#LatinModernMath-Regular-30" transform="translate(49.999985 0.40625)"/>
      </g>
     </g>
    </g>
    <g id="xtick_5">
     <g id="line2d_9">
      <defs>
       <path id="m131efc0c90" d="M 0 0 
L 0 -3 
" style="stroke: #1a1a1a; stroke-width: 0.6"/>
      </defs>
      <g>
       <use xlink:href="#m131efc0c90" x="64.18625" y="242.10885" style="fill: #1a1a1a; stroke: #1a1a1a; stroke-width: 0.6"/>
      </g>
     </g>
    </g>
    <g id="xtick_6">
     <g id="line2d_10">
      <g>
       <use xlink:href="#m131efc0c90" x="80.129107" y="242.10885" style="fill: #1a1a1a; stroke: #1a1a1a; stroke-width: 0.6"/>
      </g>
     </g>
    </g>
    <g id="xtick_7">
     <g id="line2d_11">
      <g>
       <use xlink:href="#m131efc0c90" x="96.071964" y="242.10885" style="fill: #1a1a1a; stroke: #1a1a1a; stroke-width: 0.6"/>
      </g>
     </g>
    </g>
    <g id="xtick_8">
     <g id="line2d_12">
      <g>
       <use xlink:href="#m131efc0c90" x="112.014821" y="242.10885" style="fill: #1a1a1a; stroke: #1a1a1a; stroke-width: 0.6"/>
      </g>
     </g>
    </g>
    <g id="xtick_9">
     <g id="line2d_13">
      <g>
       <use xlink:href="#m131efc0c90" x="143.900536" y="242.10885" style="fill: #1a1a1a; stroke: #1a1a1a; stroke-width: 0.6"/>
      </g>
     </g>
    </g>
    <g id="xtick_10">
     <g id="line2d_14">
      <g>
       <use xlink:href="#m131efc0c90" x="159.843393" y="242.10885" style="fill: #1a1a1a; stroke: #1a1a1a; stroke-width: 0.6"/>
      </g>
     </g>
    </g>
    <g id="xtick_11">
     <g id="line2d_15">
      <g>
       <use xlink:href="#m131efc0c90" x="175.78625" y="242.10885" style="fill: #1a1a1a; stroke: #1a1a1a; stroke-width: 0.6"/>
      </g>
     </g>
    </g>
    <g id="xtick_12">
     <g id="line2d_16">
      <g>
       <use xlink:href="#m131efc0c90" x="191.729107" y="242.10885" style="fill: #1a1a1a; stroke: #1a1a1a; stroke-width: 0.6"/>
      </g>
     </g>
    </g>
    <g id="xtick_13">
     <g id="line2d_17">
      <g>
       <use xlink:href="#m131efc0c90" x="223.614821" y="242.10885" style="fill: #1a1a1a; stroke: #1a1a1a; stroke-width: 0.6"/>
      </g>
     </g>
    </g>
    <g id="xtick_14">
     <g id="line2d_18">
      <g>
       <use xlink:href="#m131efc0c90" x="239.557679" y="242.10885" style="fill: #1a1a1a; stroke: #1a1a1a; stroke-width: 0.6"/>
      </g>
     </g>
    </g>
    <g id="xtick_15">
     <g id="line2d_19">
      <g>
       <use xlink:href="#m131efc0c90" x="255.500536" y="242.10885" style="fill: #1a1a1a; stroke: #1a1a1a; stroke-width: 0.6"/>
      </g>
     </g>
    </g>
    <g id="xtick_16">
     <g id="line2d_20">
      <g>
       <use xlink:href="#m131efc0c90" x="271.443393" y="242.10885" style="fill: #1a1a1a; stroke: #1a1a1a; stroke-width: 0.6"/>
      </g>
     </g>
    </g>
    <g id="xtick_17">
     <g id="line2d_21">
      <g>
       <use xlink:href="#m131efc0c90" x="303.329107" y="242.10885" style="fill: #1a1a1a; stroke: #1a1a1a; stroke-width: 0.6"/>
      </g>
     </g>
    </g>
    <g id="xtick_18">
     <g id="line2d_22">
      <g>
       <use xlink:href="#m131efc0c90" x="319.271964" y="242.10885" style="fill: #1a1a1a; stroke: #1a1a1a; stroke-width: 0.6"/>
      </g>
     </g>
    </g>
    <g id="xtick_19">
     <g id="line2d_23">
      <g>
       <use xlink:href="#m131efc0c90" x="335.214821" y="242.10885" style="fill: #1a1a1a; stroke: #1a1a1a; stroke-width: 0.6"/>
      </g>
     </g>
    </g>
    <g id="xtick_20">
     <g id="line2d_24">
      <g>
       <use xlink:href="#m131efc0c90" x="351.157679" y="242.10885" style="fill: #1a1a1a; stroke: #1a1a1a; stroke-width: 0.6"/>
      </g>
     </g>
    </g>
    <g id="xtick_21">
     <g id="line2d_25">
      <g>
       <use xlink:href="#m131efc0c90" x="383.043393" y="242.10885" style="fill: #1a1a1a; stroke: #1a1a1a; stroke-width: 0.6"/>
      </g>
     </g>
    </g>
    <g id="xtick_22">
     <g id="line2d_26">
      <g>
       <use xlink:href="#m131efc0c90" x="398.98625" y="242.10885" style="fill: #1a1a1a; stroke: #1a1a1a; stroke-width: 0.6"/>
      </g>
     </g>
    </g>
    <g id="text_5">
     <!-- variable_1 -->
     <g style="fill: #1a1a1a" transform="translate(192.806094 281.92385) scale(0.18 -0.18)">
      <defs>
       <path id="LatinModernMath-Regular-76" d="M 3251 2560 
L 3251 2758 
C 3104 2746 2918 2739 2771 2739 
L 2214 2758 
L 2214 2560 
C 2451 2554 2522 2406 2522 2285 
C 2522 2227 2509 2202 2483 2131 
L 1830 499 
L 1114 2285 
C 1075 2368 1075 2394 1075 2394 
C 1075 2560 1325 2560 1440 2560 
L 1440 2758 
L 742 2739 
C 570 2739 314 2746 122 2758 
L 122 2560 
C 525 2560 550 2522 634 2323 
L 1555 51 
C 1594 -38 1606 -70 1690 -70 
C 1773 -70 1798 -13 1824 51 
L 2662 2131 
C 2720 2278 2829 2554 3251 2560 
z
" transform="scale(0.015625)"/>
       <path id="LatinModernMath-Regular-61" d="M 3091 570 
L 3091 928 
L 2931 928 
L 2931 570 
C 2931 198 2771 160 2701 160 
C 2490 160 2464 448 2464 480 
L 2464 1760 
C 2464 2029 2464 2278 2234 2515 
C 1984 2765 1664 2867 1357 2867 
C 832 2867 390 2566 390 2144 
C 390 1952 518 1843 685 1843 
C 864 1843 979 1971 979 2138 
C 979 2214 947 2426 653 2432 
C 826 2656 1139 2726 1344 2726 
C 1658 2726 2022 2477 2022 1907 
L 2022 1670 
C 1696 1651 1248 1632 845 1440 
C 365 1222 205 890 205 608 
C 205 90 826 -70 1229 -70 
C 1651 -70 1946 186 2067 486 
C 2093 230 2266 -38 2566 -38 
C 2701 -38 3091 51 3091 570 
z
M 2022 896 
C 2022 288 1562 70 1274 70 
C 960 70 698 294 698 614 
C 698 966 966 1498 2022 1536 
L 2022 896 
z
" transform="scale(0.015625)"/>
       <path id="LatinModernMath-Regular-72" d="M 2330 2438 
C 2330 2643 2131 2829 1856 2829 
C 1389 2829 1158 2400 1069 2125 
L 1069 2829 
L 179 2758 
L 179 2560 
C 627 2560 678 2515 678 2202 
L 678 486 
C 678 198 608 198 179 198 
L 179 0 
L 909 19 
C 1165 19 1466 19 1722 0 
L 1722 198 
L 1587 198 
C 1114 198 1101 269 1101 499 
L 1101 1485 
C 1101 2118 1370 2688 1856 2688 
C 1901 2688 1914 2688 1926 2682 
C 1907 2675 1779 2598 1779 2432 
C 1779 2253 1914 2157 2054 2157 
C 2170 2157 2330 2234 2330 2438 
z
" transform="scale(0.015625)"/>
       <path id="LatinModernMath-Regular-69" d="M 1581 0 
L 1581 198 
C 1158 198 1133 230 1133 480 
L 1133 2829 
L 237 2758 
L 237 2560 
C 653 2560 710 2522 710 2208 
L 710 486 
C 710 198 640 198 211 198 
L 211 0 
L 915 19 
C 1139 19 1363 6 1581 0 
z
M 1229 3866 
C 1229 4038 1082 4205 890 4205 
C 672 4205 544 4026 544 3866 
C 544 3693 691 3526 883 3526 
C 1101 3526 1229 3706 1229 3866 
z
" transform="scale(0.015625)"/>
       <path id="LatinModernMath-Regular-62" d="M 3334 1382 
C 3334 2195 2707 2829 1978 2829 
C 1478 2829 1203 2528 1101 2413 
L 1101 4442 
L 179 4371 
L 179 4173 
C 627 4173 678 4128 678 3814 
L 678 0 
L 838 0 
L 1069 397 
C 1165 250 1434 -70 1907 -70 
C 2669 -70 3334 557 3334 1382 
z
M 2803 1389 
C 2803 1152 2790 768 2605 480 
C 2470 282 2227 70 1882 70 
C 1594 70 1363 224 1210 461 
C 1120 595 1120 614 1120 730 
L 1120 2048 
C 1120 2170 1120 2176 1190 2278 
C 1440 2637 1792 2688 1946 2688 
C 2234 2688 2464 2522 2618 2278 
C 2784 2016 2803 1651 2803 1389 
z
" transform="scale(0.015625)"/>
       <path id="LatinModernMath-Regular-6c" d="M 1632 0 
L 1632 198 
C 1203 198 1133 198 1133 486 
L 1133 4442 
L 211 4371 
L 211 4173 
C 659 4173 710 4128 710 3814 
L 710 486 
C 710 198 640 198 211 198 
L 211 0 
L 922 19 
L 1632 0 
z
" transform="scale(0.015625)"/>
       <path id="LatinModernMath-Regular-65" d="M 2656 762 
C 2656 826 2605 838 2573 838 
C 2515 838 2502 800 2490 749 
C 2266 90 1690 90 1626 90 
C 1306 90 1050 282 902 518 
C 710 826 710 1248 710 1478 
L 2496 1478 
C 2637 1478 2656 1478 2656 1613 
C 2656 2246 2310 2867 1510 2867 
C 768 2867 179 2208 179 1408 
C 179 550 851 -70 1587 -70 
C 2368 -70 2656 640 2656 762 
z
M 2234 1613 
L 717 1613 
C 755 2566 1293 2726 1510 2726 
C 2170 2726 2234 1862 2234 1613 
z
" transform="scale(0.015625)"/>
       <path id="LatinModernMath-Regular-5f" d="M 2131 -896 
L 2131 -640 
L 0 -640 
L 0 -896 
L 2131 -896 
z
" transform="scale(0.015625)"/>
      </defs>
      <use xlink:href="#LatinModernMath-Regular-76"/>
      <use xlink:href="#LatinModernMath-Regular-61" x="52.799988"/>
      <use xlink:href="#LatinModernMath-Regular-72" x="102.799973"/>
      <use xlink:href="#LatinModernMath-Regular-69" x="141.999969"/>
      <use xlink:href="#LatinModernMath-Regular-61" x="169.799957"/>
      <use xlink:href="#LatinModernMath-Regular-62" x="219.799942"/>
      <use xlink:href="#LatinModernMath-Regular-6c" x="275.399933"/>
      <use xlink:href="#LatinModernMath-Regular-65" x="303.199921"/>
      <use xlink:href="#LatinModernMath-Regular-5f" x="347.599915"/>
      <use xlink:href="#LatinModernMath-Regular-31" x="380.899902"/>
     </g>
    </g>
   </g>
   <g id="matplotlib.axis_2">
    <g id="ytick_1">
     <g id="line2d_27">
      <defs>
       <path id="mc947610920" d="M 0 0 
L 6 0 
" style="stroke: #1a1a1a; stroke-width: 0.8"/>
      </defs>
      <g>
       <use xlink:href="#mc947610920" x="64.18625" y="242.10885" style="fill: #1a1a1a; stroke: #1a1a1a; stroke-width: 0.8"/>
      </g>
     </g>
     <g id="text_6">
      <!-- $\mathdefault{0}$ -->
      <g style="fill: #1a1a1a" transform="translate(51.68625 247.314319) scale(0.15 -0.15)">
       <use xlink:href="#LatinModernMath-Regular-30" transform="translate(0 0.40625)"/>
      </g>
     </g>
    </g>
    <g id="ytick_2">
     <g id="line2d_28">
      <g>
       <use xlink:href="#mc947610920" x="64.18625" y="205.043136" style="fill: #1a1a1a; stroke: #1a1a1a; stroke-width: 0.8"/>
      </g>
     </g>
     <g id="text_7">
      <!-- $\mathdefault{250}$ -->
      <g style="fill: #1a1a1a" transform="translate(36.68625 210.248605) scale(0.15 -0.15)">
       <defs>
        <path id="LatinModernMath-Regular-32" d="M 2874 1114 
L 2714 1114 
C 2682 922 2637 640 2573 544 
C 2528 493 2106 493 1965 493 
L 813 493 
L 1491 1152 
C 2490 2035 2874 2381 2874 3021 
C 2874 3750 2298 4262 1517 4262 
C 794 4262 320 3674 320 3104 
C 320 2746 640 2746 659 2746 
C 768 2746 992 2822 992 3085 
C 992 3251 877 3418 653 3418 
C 602 3418 589 3418 570 3411 
C 717 3827 1062 4064 1434 4064 
C 2016 4064 2291 3546 2291 3021 
C 2291 2509 1971 2003 1619 1606 
L 390 237 
C 320 166 320 154 320 0 
L 2694 0 
L 2874 1114 
z
" transform="scale(0.015625)"/>
       </defs>
       <use xlink:href="#LatinModernMath-Regular-32" transform="translate(0 0.40625)"/>
       <use xlink:href="#LatinModernMath-Regular-35" transform="translate(49.999985 0.40625)"/>
       <use xlink:href="#LatinModernMath-Regular-30" transform="translate(99.999969 0.40625)"/>
      </g>
     </g>
    </g>
    <g id="ytick_3">
     <g id="line2d_29">
      <g>
       <use xlink:href="#mc947610920" x="64.18625" y="167.977422" style="fill: #1a1a1a; stroke: #1a1a1a; stroke-width: 0.8"/>
      </g>
     </g>
     <g id="text_8">
      <!-- $\mathdefault{500}$ -->
      <g style="fill: #1a1a1a" transform="translate(36.68625 173.182891) scale(0.15 -0.15)">
       <use xlink:href="#LatinModernMath-Regular-35" transform="translate(0 0.40625)"/>
       <use xlink:href="#LatinModernMath-Regular-30" transform="translate(49.999985 0.40625)"/>
       <use xlink:href="#LatinModernMath-Regular-30" transform="translate(99.999969 0.40625)"/>
      </g>
     </g>
    </g>
    <g id="ytick_4">
     <g id="line2d_30">
      <g>
       <use xlink:href="#mc947610920" x="64.18625" y="130.911709" style="fill: #1a1a1a; stroke: #1a1a1a; stroke-width: 0.8"/>
      </g>
     </g>
     <g id="text_9">
      <!-- $\mathdefault{750}$ -->
      <g style="fill: #1a1a1a" transform="translate(36.68625 136.117177) scale(0.15 -0.15)">
       <defs>
        <path id="LatinModernMath-Regular-37" d="M 3104 4122 
L 1549 4122 
C 768 4122 755 4205 730 4326 
L 570 4326 
L 358 3008 
L 518 3008 
C 538 3110 595 3514 678 3590 
C 723 3629 1222 3629 1306 3629 
L 2630 3629 
L 1914 2618 
C 1338 1754 1126 864 1126 211 
C 1126 147 1126 -141 1421 -141 
C 1715 -141 1715 147 1715 211 
L 1715 538 
C 1715 890 1734 1242 1786 1587 
C 1811 1734 1901 2285 2182 2682 
L 3046 3898 
C 3104 3974 3104 3987 3104 4122 
z
" transform="scale(0.015625)"/>
       </defs>
       <use xlink:href="#LatinModernMath-Regular-37" transform="translate(0 0.40625)"/>
       <use xlink:href="#LatinModernMath-Regular-35" transform="translate(49.999985 0.40625)"/>
       <use xlink:href="#LatinModernMath-Regular-30" transform="translate(99.999969 0.40625)"/>
      </g>
     </g>
    </g>
    <g id="ytick_5">
     <g id="line2d_31">
      <g>
       <use xlink:href="#mc947610920" x="64.18625" y="93.845995" style="fill: #1a1a1a; stroke: #1a1a1a; stroke-width: 0.8"/>
      </g>
     </g>
     <g id="text_10">
      <!-- $\mathdefault{1000}$ -->
      <g style="fill: #1a1a1a" transform="translate(29.18625 99.051464) scale(0.15 -0.15)">
       <use xlink:href="#LatinModernMath-Regular-31" transform="translate(0 0.40625)"/>
       <use xlink:href="#LatinModernMath-Regular-30" transform="translate(49.999985 0.40625)"/>
       <use xlink:href="#LatinModernMath-Regular-30" transform="translate(99.999969 0.40625)"/>
       <use xlink:href="#LatinModernMath-Regular-30" transform="translate(149.999954 0.40625)"/>
      </g>
     </g>
    </g>
    <g id="ytick_6">
     <g id="line2d_32">
      <g>
       <use xlink:href="#mc947610920" x="64.18625" y="56.780281" style="fill: #1a1a1a; stroke: #1a1a1a; stroke-width: 0.8"/>
      </g>
     </g>
     <g id="text_11">
      <!-- $\mathdefault{1250}$ -->
      <g style="fill: #1a1a1a" transform="translate(29.18625 61.98575) scale(0.15 -0.15)">
       <use xlink:href="#LatinModernMath-Regular-31" transform="translate(0 0.40625)"/>
       <use xlink:href="#LatinModernMath-Regular-32" transform="translate(49.999985 0.40625)"/>
       <use xlink:href="#LatinModernMath-Regular-35" transform="translate(99.999969 0.40625)"/>
       <use xlink:href="#LatinModernMath-Regular-30" transform="translate(149.999954 0.40625)"/>
      </g>
     </g>
    </g>
    <g id="ytick_7">
     <g id="line2d_33">
      <defs>
       <path id="m5f9d1e6504" d="M 0 0 
L 3 0 
" style="stroke: #1a1a1a; stroke-width: 0.6"/>
      </defs>
      <g>
       <use xlink:href="#m5f9d1e6504" x="64.18625" y="234.695707" style="fill: #1a1a1a; stroke: #1a1a1a; stroke-width: 0.6"/>
      </g>
     </g>
    </g>
    <g id="ytick_8">
     <g id="line2d_34">
      <g>
       <use xlink:href="#m5f9d1e6504" x="64.18625" y="227.282564" style="fill: #1a1a1a; stroke: #1a1a1a; stroke-width: 0.6"/>
      </g>
     </g>
    </g>
    <g id="ytick_9">
     <g id="line2d_35">
      <g>
       <use xlink:href="#m5f9d1e6504" x="64.18625" y="219.869422" style="fill: #1a1a1a; stroke: #1a1a1a; stroke-width: 0.6"/>
      </g>
     </g>
    </g>
    <g id="ytick_10">
     <g id="line2d_36">
      <g>
       <use xlink:href="#m5f9d1e6504" x="64.18625" y="212.456279" style="fill: #1a1a1a; stroke: #1a1a1a; stroke-width: 0.6"/>
      </g>
     </g>
    </g>
    <g id="ytick_11">
     <g id="line2d_37">
      <g>
       <use xlink:href="#m5f9d1e6504" x="64.18625" y="197.629993" style="fill: #1a1a1a; stroke: #1a1a1a; stroke-width: 0.6"/>
      </g>
     </g>
    </g>
    <g id="ytick_12">
     <g id="line2d_38">
      <g>
       <use xlink:href="#m5f9d1e6504" x="64.18625" y="190.216851" style="fill: #1a1a1a; stroke: #1a1a1a; stroke-width: 0.6"/>
      </g>
     </g>
    </g>
    <g id="ytick_13">
     <g id="line2d_39">
      <g>
       <use xlink:href="#m5f9d1e6504" x="64.18625" y="182.803708" style="fill: #1a1a1a; stroke: #1a1a1a; stroke-width: 0.6"/>
      </g>
     </g>
    </g>
    <g id="ytick_14">
     <g id="line2d_40">
      <g>
       <use xlink:href="#m5f9d1e6504" x="64.18625" y="175.390565" style="fill: #1a1a1a; stroke: #1a1a1a; stroke-width: 0.6"/>
      </g>
     </g>
    </g>
    <g id="ytick_15">
     <g id="line2d_41">
      <g>
       <use xlink:href="#m5f9d1e6504" x="64.18625" y="160.56428" style="fill: #1a1a1a; stroke: #1a1a1a; stroke-width: 0.6"/>
      </g>
     </g>
    </g>
    <g id="ytick_16">
     <g id="line2d_42">
      <g>
       <use xlink:href="#m5f9d1e6504" x="64.18625" y="153.151137" style="fill: #1a1a1a; stroke: #1a1a1a; stroke-width: 0.6"/>
      </g>
     </g>
    </g>
    <g id="ytick_17">
     <g id="line2d_43">
      <g>
       <use xlink:href="#m5f9d1e6504" x="64.18625" y="145.737994" style="fill: #1a1a1a; stroke: #1a1a1a; stroke-width: 0.6"/>
      </g>
     </g>
    </g>
    <g id="ytick_18">
     <g id="line2d_44">
      <g>
       <use xlink:href="#m5f9d1e6504" x="64.18625" y="138.324851" style="fill: #1a1a1a; stroke: #1a1a1a; stroke-width: 0.6"/>
      </g>
     </g>
    </g>
    <g id="ytick_19">
     <g id="line2d_45">
      <g>
       <use xlink:href="#m5f9d1e6504" x="64.18625" y="123.498566" style="fill: #1a1a1a; stroke: #1a1a1a; stroke-width: 0.6"/>
      </g>
     </g>
    </g>
    <g id="ytick_20">
     <g id="line2d_46">
      <g>
       <use xlink:href="#m5f9d1e6504" x="64.18625" y="116.085423" style="fill: #1a1a1a; stroke: #1a1a1a; stroke-width: 0.6"/>
      </g>
     </g>
    </g>
    <g id="ytick_21">
     <g id="line2d_47">
      <g>
       <use xlink:href="#m5f9d1e6504" x="64.18625" y="108.67228" style="fill: #1a1a1a; stroke: #1a1a1a; stroke-width: 0.6"/>
      </g>
     </g>
    </g>
    <g id="ytick_22">
     <g id="line2d_48">
      <g>
       <use xlink:href="#m5f9d1e6504" x="64.18625" y="101.259138" style="fill: #1a1a1a; stroke: #1a1a1a; stroke-width: 0.6"/>
      </g>
     </g>
    </g>
    <g id="ytick_23">
     <g id="line2d_49">
      <g>
       <use xlink:href="#m5f9d1e6504" x="64.18625" y="86.432852" style="fill: #1a1a1a; stroke: #1a1a1a; stroke-width: 0.6"/>
      </g>
     </g>
    </g>
    <g id="ytick_24">
     <g id="line2d_50">
      <g>
       <use xlink:href="#m5f9d1e6504" x="64.18625" y="79.019709" style="fill: #1a1a1a; stroke: #1a1a1a; stroke-width: 0.6"/>
      </g>
     </g>
    </g>
    <g id="ytick_25">
     <g id="line2d_51">
      <g>
       <use xlink:href="#m5f9d1e6504" x="64.18625" y="71.606566" style="fill: #1a1a1a; stroke: #1a1a1a; stroke-width: 0.6"/>
      </g>
     </g>
    </g>
    <g id="ytick_26">
     <g id="line2d_52">
      <g>
       <use xlink:href="#m5f9d1e6504" x="64.18625" y="64.193424" style="fill: #1a1a1a; stroke: #1a1a1a; stroke-width: 0.6"/>
      </g>
     </g>
    </g>
    <g id="ytick_27">
     <g id="line2d_53">
      <g>
       <use xlink:href="#m5f9d1e6504" x="64.18625" y="49.367138" style="fill: #1a1a1a; stroke: #1a1a1a; stroke-width: 0.6"/>
      </g>
     </g>
    </g>
    <g id="ytick_28">
     <g id="line2d_54">
      <g>
       <use xlink:href="#m5f9d1e6504" x="64.18625" y="41.953995" style="fill: #1a1a1a; stroke: #1a1a1a; stroke-width: 0.6"/>
      </g>
     </g>
    </g>
    <g id="ytick_29">
     <g id="line2d_55">
      <g>
       <use xlink:href="#m5f9d1e6504" x="64.18625" y="34.540853" style="fill: #1a1a1a; stroke: #1a1a1a; stroke-width: 0.6"/>
      </g>
     </g>
    </g>
    <g id="ytick_30">
     <g id="line2d_56">
      <g>
       <use xlink:href="#m5f9d1e6504" x="64.18625" y="27.12771" style="fill: #1a1a1a; stroke: #1a1a1a; stroke-width: 0.6"/>
      </g>
     </g>
    </g>
    <g id="text_12">
     <!-- Entries -->
     <g style="fill: #1a1a1a" transform="translate(19.693125 159.435412) rotate(-90) scale(0.18 -0.18)">
      <defs>
       <path id="LatinModernMath-Regular-45" d="M 4173 1651 
L 4013 1651 
C 3853 666 3706 198 2605 198 
L 1754 198 
C 1453 198 1440 243 1440 454 
L 1440 2163 
L 2016 2163 
C 2637 2163 2707 1958 2707 1414 
L 2867 1414 
L 2867 3110 
L 2707 3110 
C 2707 2560 2637 2362 2016 2362 
L 1440 2362 
L 1440 3898 
C 1440 4109 1453 4154 1754 4154 
L 2579 4154 
C 3558 4154 3731 3802 3834 2912 
L 3994 2912 
L 3814 4352 
L 211 4352 
L 211 4154 
L 365 4154 
C 858 4154 870 4083 870 3853 
L 870 499 
C 870 269 858 198 365 198 
L 211 198 
L 211 0 
L 3904 0 
L 4173 1651 
z
" transform="scale(0.015625)"/>
       <path id="LatinModernMath-Regular-6e" d="M 3424 0 
L 3424 198 
C 3091 198 2931 198 2925 390 
L 2925 1613 
C 2925 2163 2925 2362 2726 2592 
C 2637 2701 2426 2829 2054 2829 
C 1587 2829 1286 2554 1107 2157 
L 1107 2829 
L 205 2758 
L 205 2560 
C 653 2560 704 2515 704 2202 
L 704 486 
C 704 198 634 198 205 198 
L 205 0 
L 928 19 
L 1645 0 
L 1645 198 
C 1216 198 1146 198 1146 486 
L 1146 1664 
C 1146 2330 1600 2688 2010 2688 
C 2413 2688 2483 2342 2483 1978 
L 2483 486 
C 2483 198 2413 198 1984 198 
L 1984 0 
L 2707 19 
L 3424 0 
z
" transform="scale(0.015625)"/>
       <path id="LatinModernMath-Regular-74" d="M 2125 794 
L 2125 1158 
L 1965 1158 
L 1965 806 
C 1965 333 1773 90 1536 90 
C 1107 90 1107 672 1107 781 
L 1107 2560 
L 2022 2560 
L 2022 2758 
L 1107 2758 
L 1107 3936 
L 947 3936 
C 941 3411 749 2726 122 2701 
L 122 2560 
L 666 2560 
L 666 794 
C 666 6 1261 -70 1491 -70 
C 1946 -70 2125 384 2125 794 
z
" transform="scale(0.015625)"/>
       <path id="LatinModernMath-Regular-73" d="M 2304 819 
C 2304 1158 2112 1350 2035 1427 
C 1824 1632 1574 1683 1306 1734 
C 947 1805 518 1888 518 2259 
C 518 2483 685 2746 1235 2746 
C 1939 2746 1971 2170 1984 1971 
C 1990 1914 2061 1914 2061 1914 
C 2144 1914 2144 1946 2144 2067 
L 2144 2714 
C 2144 2822 2144 2867 2074 2867 
C 2042 2867 2029 2867 1946 2790 
C 1926 2765 1862 2707 1837 2688 
C 1594 2867 1331 2867 1235 2867 
C 454 2867 211 2438 211 2080 
C 211 1856 314 1677 486 1536 
C 691 1370 870 1331 1331 1242 
C 1472 1216 1997 1114 1997 653 
C 1997 326 1773 70 1274 70 
C 736 70 506 435 384 979 
C 365 1062 358 1088 294 1088 
C 211 1088 211 1043 211 928 
L 211 83 
C 211 -26 211 -70 282 -70 
C 314 -70 320 -64 442 58 
C 454 70 454 83 570 205 
C 851 -64 1139 -70 1274 -70 
C 2010 -70 2304 358 2304 819 
z
" transform="scale(0.015625)"/>
      </defs>
      <use xlink:href="#LatinModernMath-Regular-45"/>
      <use xlink:href="#LatinModernMath-Regular-6e" x="68.099991"/>
      <use xlink:href="#LatinModernMath-Regular-74" x="123.699982"/>
      <use xlink:href="#LatinModernMath-Regular-72" x="162.599976"/>
      <use xlink:href="#LatinModernMath-Regular-69" x="201.799973"/>
      <use xlink:href="#LatinModernMath-Regular-65" x="229.59996"/>
      <use xlink:href="#LatinModernMath-Regular-73" x="273.999954"/>
     </g>
    </g>
   </g>
   <g id="text_13">
    <!-- Model made of histograms -->
    <g style="fill: #1a1a1a" transform="translate(64.18625 15.66) scale(0.12 -0.12)">
     <defs>
      <path id="LatinModernMath-Regular-4d" d="M 5626 0 
L 5626 198 
L 5472 198 
C 4979 198 4966 269 4966 499 
L 4966 3872 
C 4966 4102 4979 4173 5472 4173 
L 5626 4173 
L 5626 4371 
L 4544 4371 
C 4378 4371 4378 4365 4333 4250 
L 2931 646 
L 1542 4230 
C 1485 4371 1466 4371 1318 4371 
L 237 4371 
L 237 4173 
L 390 4173 
C 883 4173 896 4102 896 3872 
L 896 672 
C 896 499 896 198 237 198 
L 237 0 
L 986 19 
L 1734 0 
L 1734 198 
C 1075 198 1075 499 1075 672 
L 1075 4122 
L 1082 4122 
L 2624 141 
C 2656 58 2688 0 2752 0 
C 2822 0 2842 51 2867 122 
L 4442 4173 
L 4448 4173 
L 4448 499 
C 4448 269 4435 198 3942 198 
L 3789 198 
L 3789 0 
C 4026 19 4461 19 4710 19 
C 4960 19 5389 19 5626 0 
z
" transform="scale(0.015625)"/>
      <path id="LatinModernMath-Regular-6f" d="M 3014 1370 
C 3014 2189 2374 2867 1600 2867 
C 800 2867 179 2170 179 1370 
C 179 544 845 -70 1594 -70 
C 2368 -70 3014 557 3014 1370 
z
M 2483 1421 
C 2483 1190 2483 845 2342 563 
C 2202 275 1920 90 1600 90 
C 1325 90 1043 224 870 518 
C 710 800 710 1190 710 1421 
C 710 1670 710 2016 864 2298 
C 1037 2592 1338 2726 1594 2726 
C 1875 2726 2150 2586 2317 2310 
C 2483 2035 2483 1664 2483 1421 
z
" transform="scale(0.015625)"/>
      <path id="LatinModernMath-Regular-64" d="M 3373 0 
L 3373 198 
C 2925 198 2874 243 2874 557 
L 2874 4442 
L 1952 4371 
L 1952 4173 
C 2400 4173 2451 4128 2451 3814 
L 2451 2432 
C 2266 2662 1990 2829 1645 2829 
C 890 2829 218 2202 218 1376 
C 218 563 845 -70 1574 -70 
C 1984 -70 2272 147 2432 352 
L 2432 -70 
L 3373 0 
z
M 2432 755 
C 2432 640 2432 627 2362 518 
C 2170 211 1882 70 1606 70 
C 1318 70 1088 237 934 480 
C 768 742 749 1107 749 1370 
C 749 1606 762 1990 947 2278 
C 1082 2477 1325 2688 1670 2688 
C 1894 2688 2163 2592 2362 2304 
C 2432 2195 2432 2182 2432 2067 
L 2432 755 
z
" transform="scale(0.015625)"/>
      <path id="LatinModernMath-Regular-20" transform="scale(0.015625)"/>
      <path id="LatinModernMath-Regular-6d" d="M 5203 0 
L 5203 198 
C 4870 198 4710 198 4704 390 
L 4704 1613 
C 4704 2163 4704 2362 4506 2592 
C 4416 2701 4205 2829 3834 2829 
C 3296 2829 3014 2445 2906 2202 
C 2816 2758 2342 2829 2054 2829 
C 1587 2829 1286 2554 1107 2157 
L 1107 2829 
L 205 2758 
L 205 2560 
C 653 2560 704 2515 704 2202 
L 704 486 
C 704 198 634 198 205 198 
L 205 0 
L 928 19 
L 1645 0 
L 1645 198 
C 1216 198 1146 198 1146 486 
L 1146 1664 
C 1146 2330 1600 2688 2010 2688 
C 2413 2688 2483 2342 2483 1978 
L 2483 486 
C 2483 198 2413 198 1984 198 
L 1984 0 
L 2707 19 
L 3424 0 
L 3424 198 
C 2995 198 2925 198 2925 486 
L 2925 1664 
C 2925 2330 3379 2688 3789 2688 
C 4192 2688 4262 2342 4262 1978 
L 4262 486 
C 4262 198 4192 198 3763 198 
L 3763 0 
L 4486 19 
L 5203 0 
z
" transform="scale(0.015625)"/>
      <path id="LatinModernMath-Regular-66" d="M 2285 4064 
C 2285 4301 2048 4512 1709 4512 
C 1261 4512 717 4173 717 3494 
L 717 2758 
L 211 2758 
L 211 2560 
L 717 2560 
L 717 486 
C 717 198 646 198 218 198 
L 218 0 
L 947 19 
C 1203 19 1504 19 1760 0 
L 1760 198 
L 1626 198 
C 1152 198 1139 269 1139 499 
L 1139 2560 
L 1869 2560 
L 1869 2758 
L 1120 2758 
L 1120 3501 
C 1120 4064 1427 4371 1709 4371 
C 1728 4371 1824 4371 1920 4326 
C 1843 4301 1728 4218 1728 4058 
C 1728 3910 1830 3782 2003 3782 
C 2189 3782 2285 3910 2285 4064 
z
" transform="scale(0.015625)"/>
      <path id="LatinModernMath-Regular-68" d="M 3424 0 
L 3424 198 
C 3091 198 2931 198 2925 390 
L 2925 1613 
C 2925 2163 2925 2362 2726 2592 
C 2637 2701 2426 2829 2054 2829 
C 1517 2829 1235 2445 1133 2214 
L 1126 2214 
L 1126 4442 
L 205 4371 
L 205 4173 
C 653 4173 704 4128 704 3814 
L 704 486 
C 704 198 634 198 205 198 
L 205 0 
L 928 19 
L 1645 0 
L 1645 198 
C 1216 198 1146 198 1146 486 
L 1146 1664 
C 1146 2330 1600 2688 2010 2688 
C 2413 2688 2483 2342 2483 1978 
L 2483 486 
C 2483 198 2413 198 1984 198 
L 1984 0 
L 2707 19 
L 3424 0 
z
" transform="scale(0.015625)"/>
      <path id="LatinModernMath-Regular-67" d="M 3104 2586 
C 3104 2694 3027 2899 2778 2899 
C 2650 2899 2368 2861 2099 2598 
C 1830 2810 1562 2829 1421 2829 
C 826 2829 384 2387 384 1894 
C 384 1613 525 1370 685 1235 
C 602 1139 486 928 486 704 
C 486 506 570 262 768 134 
C 384 26 179 -250 179 -506 
C 179 -966 813 -1318 1594 -1318 
C 2349 -1318 3014 -992 3014 -493 
C 3014 -269 2925 58 2598 237 
C 2259 416 1888 416 1498 416 
C 1338 416 1062 416 1018 422 
C 813 448 678 646 678 851 
C 678 877 678 1024 787 1152 
C 1037 973 1299 954 1421 954 
C 2016 954 2458 1395 2458 1888 
C 2458 2125 2355 2362 2195 2509 
C 2426 2726 2656 2758 2771 2758 
C 2771 2758 2816 2758 2835 2752 
C 2765 2726 2733 2656 2733 2579 
C 2733 2470 2816 2394 2918 2394 
C 2982 2394 3104 2438 3104 2586 
z
M 1978 1894 
C 1978 1722 1971 1517 1875 1357 
C 1824 1280 1677 1101 1421 1101 
C 864 1101 864 1741 864 1888 
C 864 2061 870 2266 966 2426 
C 1018 2502 1165 2682 1421 2682 
C 1978 2682 1978 2042 1978 1894 
z
M 2682 -506 
C 2682 -851 2227 -1171 1600 -1171 
C 954 -1171 512 -845 512 -506 
C 512 -211 755 26 1037 45 
L 1414 45 
C 1965 45 2682 45 2682 -506 
z
" transform="scale(0.015625)"/>
     </defs>
     <use xlink:href="#LatinModernMath-Regular-4d"/>
     <use xlink:href="#LatinModernMath-Regular-6f" x="91.699982"/>
     <use xlink:href="#LatinModernMath-Regular-64" x="141.699966"/>
     <use xlink:href="#LatinModernMath-Regular-65" x="197.299957"/>
     <use xlink:href="#LatinModernMath-Regular-6c" x="241.699951"/>
     <use xlink:href="#LatinModernMath-Regular-20" x="269.499939"/>
     <use xlink:href="#LatinModernMath-Regular-6d" x="302.699936"/>
     <use xlink:href="#LatinModernMath-Regular-61" x="385.999924"/>
     <use xlink:href="#LatinModernMath-Regular-64" x="435.999908"/>
     <use xlink:href="#LatinModernMath-Regular-65" x="491.599899"/>
     <use xlink:href="#LatinModernMath-Regular-20" x="535.999893"/>
     <use xlink:href="#LatinModernMath-Regular-6f" x="569.19989"/>
     <use xlink:href="#LatinModernMath-Regular-66" x="619.199875"/>
     <use xlink:href="#LatinModernMath-Regular-20" x="649.799866"/>
     <use xlink:href="#LatinModernMath-Regular-68" x="682.999863"/>
     <use xlink:href="#LatinModernMath-Regular-69" x="738.599854"/>
     <use xlink:href="#LatinModernMath-Regular-73" x="766.399841"/>
     <use xlink:href="#LatinModernMath-Regular-74" x="805.799835"/>
     <use xlink:href="#LatinModernMath-Regular-6f" x="844.699829"/>
     <use xlink:href="#LatinModernMath-Regular-67" x="894.699814"/>
     <use xlink:href="#LatinModernMath-Regular-72" x="944.699799"/>
     <use xlink:href="#LatinModernMath-Regular-61" x="983.899796"/>
     <use xlink:href="#LatinModernMath-Regular-6d" x="1033.89978"/>
     <use xlink:href="#LatinModernMath-Regular-73" x="1117.199768"/>
    </g>
   </g>
   <g id="legend_1">
    <g id="patch_13">
     <path d="M 303.250625 39.54885 
L 327.250625 39.54885 
L 327.250625 31.14885 
L 303.250625 31.14885 
z
" style="fill: #b1dcc2; stroke: #000000; stroke-width: 0.5; stroke-linejoin: miter"/>
    </g>
    <g id="text_14">
     <!-- c2 -->
     <g style="fill: #1a1a1a" transform="translate(336.850625 39.54885) scale(0.12 -0.12)">
      <defs>
       <path id="LatinModernMath-Regular-63" d="M 2656 762 
C 2656 826 2592 826 2573 826 
C 2515 826 2502 800 2490 762 
C 2304 166 1888 90 1651 90 
C 1312 90 749 365 749 1395 
C 749 2438 1274 2707 1613 2707 
C 1670 2707 2074 2701 2298 2470 
C 2035 2451 1997 2259 1997 2176 
C 1997 2010 2112 1882 2291 1882 
C 2458 1882 2586 1990 2586 2182 
C 2586 2618 2099 2867 1606 2867 
C 806 2867 218 2176 218 1382 
C 218 563 851 -70 1594 -70 
C 2451 -70 2656 698 2656 762 
z
" transform="scale(0.015625)"/>
      </defs>
      <use xlink:href="#LatinModernMath-Regular-63"/>
      <use xlink:href="#LatinModernMath-Regular-32" x="44.399994"/>
     </g>
    </g>
    <g id="patch_14">
     <path d="M 303.250625 56.2776 
L 327.250625 56.2776 
L 327.250625 47.8776 
L 303.250625 47.8776 
z
" style="fill: #b67b76; stroke: #000000; stroke-width: 0.5; stroke-linejoin: miter"/>
    </g>
    <g id="text_15">
     <!-- c1 -->
     <g style="fill: #1a1a1a" transform="translate(336.850625 56.2776) scale(0.12 -0.12)">
      <use xlink:href="#LatinModernMath-Regular-63"/>
      <use xlink:href="#LatinModernMath-Regular-31" x="44.399994"/>
     </g>
    </g>
    <g id="patch_15">
     <path d="M 303.250625 73.00635 
L 327.250625 73.00635 
L 327.250625 64.60635 
L 303.250625 64.60635 
z
" style="fill: #3d4c74; stroke: #000000; stroke-width: 0.5; stroke-linejoin: miter"/>
    </g>
    <g id="text_16">
     <!-- c0 -->
     <g style="fill: #1a1a1a" transform="translate(336.850625 73.00635) scale(0.12 -0.12)">
      <use xlink:href="#LatinModernMath-Regular-63"/>
      <use xlink:href="#LatinModernMath-Regular-30" x="44.399994"/>
     </g>
    </g>
    <g id="patch_16">
     <path d="M 303.250625 89.7351 
L 327.250625 89.7351 
L 327.250625 81.3351 
L 303.250625 81.3351 
z
" style="fill: url(#h172048cdb3); opacity: 0.5"/>
    </g>
    <g id="text_17">
     <!-- Stat. unc. -->
     <g style="fill: #1a1a1a" transform="translate(336.850625 89.7351) scale(0.12 -0.12)">
      <defs>
       <path id="LatinModernMath-Regular-53" d="M 3194 1190 
C 3194 1830 2771 2355 2234 2483 
L 1414 2682 
C 1018 2778 768 3123 768 3494 
C 768 3942 1114 4333 1613 4333 
C 2682 4333 2822 3283 2861 2995 
C 2867 2957 2867 2918 2938 2918 
C 3021 2918 3021 2950 3021 3072 
L 3021 4358 
C 3021 4467 3021 4512 2950 4512 
C 2906 4512 2899 4506 2854 4429 
L 2630 4064 
C 2438 4250 2176 4512 1606 4512 
C 896 4512 358 3949 358 3270 
C 358 2739 698 2272 1197 2099 
C 1267 2074 1594 1997 2042 1888 
C 2214 1843 2406 1798 2586 1562 
C 2720 1395 2784 1184 2784 973 
C 2784 518 2464 58 1926 58 
C 1741 58 1254 90 915 403 
C 544 749 525 1158 518 1389 
C 512 1453 461 1453 442 1453 
C 358 1453 358 1408 358 1293 
L 358 13 
C 358 -96 358 -141 429 -141 
C 474 -141 480 -128 525 -58 
C 525 -58 544 -32 755 307 
C 954 90 1363 -141 1933 -141 
C 2682 -141 3194 486 3194 1190 
z
" transform="scale(0.015625)"/>
       <path id="LatinModernMath-Regular-2e" d="M 1229 339 
C 1229 525 1075 678 890 678 
C 704 678 550 525 550 339 
C 550 154 704 0 890 0 
C 1075 0 1229 154 1229 339 
z
" transform="scale(0.015625)"/>
       <path id="LatinModernMath-Regular-75" d="M 3424 0 
L 3424 198 
C 2976 198 2925 243 2925 557 
L 2925 2829 
L 1984 2758 
L 1984 2560 
C 2432 2560 2483 2515 2483 2202 
L 2483 1062 
C 2483 506 2176 70 1709 70 
C 1171 70 1146 371 1146 704 
L 1146 2829 
L 205 2758 
L 205 2560 
C 704 2560 704 2541 704 1971 
L 704 1011 
C 704 512 704 -70 1677 -70 
C 2035 -70 2317 109 2502 506 
L 2502 -70 
L 3424 0 
z
" transform="scale(0.015625)"/>
      </defs>
      <use xlink:href="#LatinModernMath-Regular-53"/>
      <use xlink:href="#LatinModernMath-Regular-74" x="55.599991"/>
      <use xlink:href="#LatinModernMath-Regular-61" x="94.499985"/>
      <use xlink:href="#LatinModernMath-Regular-74" x="144.499969"/>
      <use xlink:href="#LatinModernMath-Regular-2e" x="183.399963"/>
      <use xlink:href="#LatinModernMath-Regular-20" x="211.199951"/>
      <use xlink:href="#LatinModernMath-Regular-75" x="244.399948"/>
      <use xlink:href="#LatinModernMath-Regular-6e" x="299.999939"/>
      <use xlink:href="#LatinModernMath-Regular-63" x="355.59993"/>
      <use xlink:href="#LatinModernMath-Regular-2e" x="399.999924"/>
     </g>
    </g>
    <g id="LineCollection_5">
     <path d="M 315.250625 108.32385 
L 315.250625 96.32385 
" style="fill: none; stroke: #000000; stroke-width: 1.5"/>
    </g>
    <g id="line2d_57">
     <path d="M 303.250625 102.32385 
L 327.250625 102.32385 
" style="fill: none; stroke-dasharray: 1.5,2.475; stroke-dashoffset: 0; stroke: #000000; stroke-width: 1.5"/>
    </g>
    <g id="line2d_58"/>
    <g id="text_18">
     <!-- Signal -->
     <g style="fill: #1a1a1a" transform="translate(336.850625 106.52385) scale(0.12 -0.12)">
      <use xlink:href="#LatinModernMath-Regular-53"/>
      <use xlink:href="#LatinModernMath-Regular-69" x="55.599991"/>
      <use xlink:href="#LatinModernMath-Regular-67" x="83.399979"/>
      <use xlink:href="#LatinModernMath-Regular-6e" x="133.399963"/>
      <use xlink:href="#LatinModernMath-Regular-61" x="188.999954"/>
      <use xlink:href="#LatinModernMath-Regular-6c" x="238.999939"/>
     </g>
    </g>
    <g id="LineCollection_6">
     <path d="M 315.250625 125.1951 
L 315.250625 113.1951 
" style="fill: none; stroke: #000080; stroke-width: 1.5"/>
    </g>
    <g id="line2d_59">
     <path d="M 303.250625 119.1951 
L 327.250625 119.1951 
" style="fill: none; stroke: #000080; stroke-width: 1.5; stroke-linecap: round"/>
    </g>
    <g id="line2d_60"/>
    <g id="text_19">
     <!-- Model -->
     <g style="fill: #1a1a1a" transform="translate(336.850625 123.3951) scale(0.12 -0.12)">
      <use xlink:href="#LatinModernMath-Regular-4d"/>
      <use xlink:href="#LatinModernMath-Regular-6f" x="91.699982"/>
      <use xlink:href="#LatinModernMath-Regular-64" x="141.699966"/>
      <use xlink:href="#LatinModernMath-Regular-65" x="197.299957"/>
      <use xlink:href="#LatinModernMath-Regular-6c" x="241.699951"/>
     </g>
    </g>
   </g>
  </g>
 </g>
 <defs>
  <clipPath id="p543c3fde6b">
   <rect x="64.18625" y="20.34885" width="334.8" height="221.76"/>
  </clipPath>
 </defs>
 <defs>
  <pattern id="h172048cdb3" patternUnits="userSpaceOnUse" x="0" y="0" width="72" height="72">
   <rect x="0" y="0" width="73" height="73" fill="#f5f5f5"/>
   <path d="M -36 36 
L 36 -36 
M -33.6 38.4 
L 38.4 -33.6 
M -31.2 40.8 
L 40.8 -31.2 
M -28.8 43.2 
L 43.2 -28.8 
M -26.4 45.6 
L 45.6 -26.4 
M -24 48 
L 48 -24 
M -21.6 50.4 
L 50.4 -21.6 
M -19.2 52.8 
L 52.8 -19.2 
M -16.8 55.2 
L 55.2 -16.8 
M -14.4 57.6 
L 57.6 -14.4 
M -12 60 
L 60 -12 
M -9.6 62.4 
L 62.4 -9.6 
M -7.2 64.8 
L 64.8 -7.2 
M -4.8 67.2 
L 67.2 -4.8 
M -2.4 69.6 
L 69.6 -2.4 
M 0 72 
L 72 0 
M 2.4 74.4 
L 74.4 2.4 
M 4.8 76.8 
L 76.8 4.8 
M 7.2 79.2 
L 79.2 7.2 
M 9.6 81.6 
L 81.6 9.6 
M 12 84 
L 84 12 
M 14.4 86.4 
L 86.4 14.4 
M 16.8 88.8 
L 88.8 16.8 
M 19.2 91.2 
L 91.2 19.2 
M 21.6 93.6 
L 93.6 21.6 
M 24 96 
L 96 24 
M 26.4 98.4 
L 98.4 26.4 
M 28.8 100.8 
L 100.8 28.8 
M 31.2 103.2 
L 103.2 31.2 
M 33.6 105.6 
L 105.6 33.6 
M 36 108 
L 108 36 
" style="fill: #a9a9a9; stroke: #a9a9a9; stroke-width: 1.0; stroke-linecap: butt; stroke-linejoin: miter; stroke-opacity: 0.5"/>
  </pattern>
 </defs>
</svg>
