<?xml version="1.0" encoding="utf-8" standalone="no"?>
<!DOCTYPE svg PUBLIC "-//W3C//DTD SVG 1.1//EN"
  "http://www.w3.org/Graphics/SVG/1.1/DTD/svg11.dtd">
<svg xmlns:xlink="http://www.w3.org/1999/xlink" width="413.261pt" height="337.281875pt" viewBox="0 0 413.261 337.281875" xmlns="http://www.w3.org/2000/svg" version="1.1">
 <metadata>
  <rdf:RDF xmlns:dc="http://purl.org/dc/elements/1.1/" xmlns:cc="http://creativecommons.org/ns#" xmlns:rdf="http://www.w3.org/1999/02/22-rdf-syntax-ns#">
   <cc:Work>
    <dc:creator>
     <cc:Agent>
      <dc:title>カリビアンカフェ</dc:title>
     </cc:Agent>
    </dc:creator>
   </cc:Work>
  </rdf:RDF>
 </metadata>
 <defs>
  <style type="text/css">*{stroke-linejoin: round; stroke-linecap: butt}</style>
 </defs>
 <g id="figure_1">
  <g id="patch_1">
   <path d="M 0 337.281875 
L 413.261 337.281875 
L 413.261 0 
L 0 0 
z
" style="fill: #ffffff"/>
  </g>
  <g id="axes_1">
   <g id="patch_2">
    <path d="M 71.261 213.488372 
L 406.061 213.488372 
L 406.061 7.2 
L 71.261 7.2 
z
" style="fill: #ffffff"/>
   </g>
   <g id="patch_3">
    <path d="M 71.261 213.416855 
L 71.261 213.416855 
L 77.957 213.416855 
L 77.957 213.273821 
L 84.653 213.273821 
L 84.653 212.916237 
L 91.349 212.916237 
L 91.349 212.558653 
L 98.045 212.558653 
L 98.045 211.557416 
L 104.741 211.557416 
L 104.741 210.198595 
L 111.437 210.198595 
L 111.437 207.910055 
L 118.133 207.910055 
L 118.133 202.331738 
L 124.829 202.331738 
L 124.829 194.536398 
L 131.525 194.536398 
L 131.525 188.457463 
L 138.221 188.457463 
L 138.221 167.64605 
L 144.917 167.64605 
L 144.917 152.985088 
L 151.613 152.985088 
L 151.613 130.385753 
L 158.309 130.385753 
L 158.309 108.072485 
L 165.005 108.072485 
L 165.005 86.116802 
L 171.701 86.116802 
L 171.701 71.527358 
L 178.397 71.527358 
L 178.397 63.44595 
L 185.093 63.44595 
L 185.093 62.873815 
L 191.789 62.873815 
L 191.789 71.956459 
L 198.485 71.956459 
L 198.485 78.82208 
L 205.181 78.82208 
L 205.181 88.333826 
L 211.877 88.333826 
L 211.877 94.984896 
L 218.573 94.984896 
L 218.573 109.216756 
L 225.269 109.216756 
L 225.269 104.353608 
L 231.965 104.353608 
L 231.965 107.214283 
L 238.661 107.214283 
L 238.661 105.426361 
L 245.357 105.426361 
L 245.357 114.008387 
L 252.053 114.008387 
L 252.053 125.165021 
L 258.749 125.165021 
L 258.749 135.105868 
L 265.445 135.105868 
L 265.445 146.691603 
L 272.141 146.691603 
L 272.141 156.847 
L 278.837 156.847 
L 278.837 174.797738 
L 285.533 174.797738 
L 285.533 185.954372 
L 292.229 185.954372 
L 292.229 195.108533 
L 298.925 195.108533 
L 298.925 201.187468 
L 305.621 201.187468 
L 305.621 206.19365 
L 312.317 206.19365 
L 312.317 209.268876 
L 319.013 209.268876 
L 319.013 211.271349 
L 325.709 211.271349 
L 325.709 211.915001 
L 332.405 211.915001 
L 332.405 212.987754 
L 339.101 212.987754 
L 339.101 213.059271 
L 345.797 213.059271 
L 345.797 213.345338 
L 352.493 213.345338 
L 352.493 213.416855 
L 359.189 213.416855 
L 359.189 213.416855 
L 365.885 213.416855 
L 365.885 213.488372 
L 372.581 213.488372 
L 372.581 213.416855 
L 379.277 213.416855 
L 379.277 213.416855 
L 385.973 213.416855 
L 385.973 213.488372 
L 392.669 213.488372 
L 392.669 213.488372 
L 399.365 213.488372 
L 399.365 213.488372 
L 406.061 213.488372 
L 406.061 213.488372 
L 406.061 213.488372 
L 406.061 213.488372 
L 399.365 213.488372 
L 399.365 213.488372 
L 392.669 213.488372 
L 392.669 213.488372 
L 385.973 213.488372 
L 385.973 213.488372 
L 379.277 213.488372 
L 379.277 213.488372 
L 372.581 213.488372 
L 372.581 213.488372 
L 365.885 213.488372 
L 365.885 213.416855 
L 359.189 213.416855 
L 359.189 213.488372 
L 352.493 213.488372 
L 352.493 213.488372 
L 345.797 213.488372 
L 345.797 213.202305 
L 339.101 213.202305 
L 339.101 213.345338 
L 332.405 213.345338 
L 332.405 212.916237 
L 325.709 212.916237 
L 325.709 212.773203 
L 319.013 212.773203 
L 319.013 212.201068 
L 312.317 212.201068 
L 312.317 210.341629 
L 305.621 210.341629 
L 305.621 208.339156 
L 298.925 208.339156 
L 298.925 205.192414 
L 292.229 205.192414 
L 292.229 199.75713 
L 285.533 199.75713 
L 285.533 193.606678 
L 278.837 193.606678 
L 278.837 183.808865 
L 272.141 183.808865 
L 272.141 177.443863 
L 265.445 177.443863 
L 265.445 171.436444 
L 258.749 171.436444 
L 258.749 167.145431 
L 252.053 167.145431 
L 252.053 159.636159 
L 245.357 159.636159 
L 245.357 152.555987 
L 238.661 152.555987 
L 238.661 149.766829 
L 231.965 149.766829 
L 231.965 146.334018 
L 225.269 146.334018 
L 225.269 147.406772 
L 218.573 147.406772 
L 218.573 133.031878 
L 211.877 133.031878 
L 211.877 124.092267 
L 205.181 124.092267 
L 205.181 118.871535 
L 198.485 118.871535 
L 198.485 110.790127 
L 191.789 110.790127 
L 191.789 107.428834 
L 185.093 107.428834 
L 185.093 107.929452 
L 178.397 107.929452 
L 178.397 111.290745 
L 171.701 111.290745 
L 171.701 120.015805 
L 165.005 120.015805 
L 165.005 132.53126 
L 158.309 132.53126 
L 158.309 147.120704 
L 151.613 147.120704 
L 151.613 164.928408 
L 144.917 164.928408 
L 144.917 174.797738 
L 138.221 174.797738 
L 138.221 191.890273 
L 131.525 191.890273 
L 131.525 196.32432 
L 124.829 196.32432 
L 124.829 203.332975 
L 118.133 203.332975 
L 118.133 208.339156 
L 111.437 208.339156 
L 111.437 210.413146 
L 104.741 210.413146 
L 104.741 211.628933 
L 98.045 211.628933 
L 98.045 212.558653 
L 91.349 212.558653 
L 91.349 212.916237 
L 84.653 212.916237 
L 84.653 213.273821 
L 77.957 213.273821 
L 77.957 213.416855 
L 71.261 213.416855 
L 71.261 213.416855 
" clip-path="url(#p83c8b15f2d)" style="fill: #b1dcc2; stroke: #000000; stroke-width: 0.5; stroke-linejoin: miter"/>
   </g>
   <g id="patch_4">
    <path d="M 71.261 213.488372 
L 71.261 213.416855 
L 77.957 213.416855 
L 77.957 213.273821 
L 84.653 213.273821 
L 84.653 212.916237 
L 91.349 212.916237 
L 91.349 212.558653 
L 98.045 212.558653 
L 98.045 211.628933 
L 104.741 211.628933 
L 104.741 210.413146 
L 111.437 210.413146 
L 111.437 208.339156 
L 118.133 208.339156 
L 118.133 203.332975 
L 124.829 203.332975 
L 124.829 196.32432 
L 131.525 196.32432 
L 131.525 191.890273 
L 138.221 191.890273 
L 138.221 174.797738 
L 144.917 174.797738 
L 144.917 164.928408 
L 151.613 164.928408 
L 151.613 147.120704 
L 158.309 147.120704 
L 158.309 132.53126 
L 165.005 132.53126 
L 165.005 120.015805 
L 171.701 120.015805 
L 171.701 111.290745 
L 178.397 111.290745 
L 178.397 107.929452 
L 185.093 107.929452 
L 185.093 107.428834 
L 191.789 107.428834 
L 191.789 110.790127 
L 198.485 110.790127 
L 198.485 118.871535 
L 205.181 118.871535 
L 205.181 124.092267 
L 211.877 124.092267 
L 211.877 133.031878 
L 218.573 133.031878 
L 218.573 147.406772 
L 225.269 147.406772 
L 225.269 146.334018 
L 231.965 146.334018 
L 231.965 149.766829 
L 238.661 149.766829 
L 238.661 152.555987 
L 245.357 152.555987 
L 245.357 159.636159 
L 252.053 159.636159 
L 252.053 167.145431 
L 258.749 167.145431 
L 258.749 171.436444 
L 265.445 171.436444 
L 265.445 177.443863 
L 272.141 177.443863 
L 272.141 183.808865 
L 278.837 183.808865 
L 278.837 193.606678 
L 285.533 193.606678 
L 285.533 199.75713 
L 292.229 199.75713 
L 292.229 205.192414 
L 298.925 205.192414 
L 298.925 208.339156 
L 305.621 208.339156 
L 305.621 210.341629 
L 312.317 210.341629 
L 312.317 212.201068 
L 319.013 212.201068 
L 319.013 212.773203 
L 325.709 212.773203 
L 325.709 212.916237 
L 332.405 212.916237 
L 332.405 213.345338 
L 339.101 213.345338 
L 339.101 213.202305 
L 345.797 213.202305 
L 345.797 213.488372 
L 352.493 213.488372 
L 352.493 213.488372 
L 359.189 213.488372 
L 359.189 213.416855 
L 365.885 213.416855 
L 365.885 213.488372 
L 372.581 213.488372 
L 372.581 213.488372 
L 379.277 213.488372 
L 379.277 213.488372 
L 385.973 213.488372 
L 385.973 213.488372 
L 392.669 213.488372 
L 392.669 213.488372 
L 399.365 213.488372 
L 399.365 213.488372 
L 406.061 213.488372 
L 406.061 213.488372 
L 406.061 213.488372 
L 406.061 213.488372 
L 399.365 213.488372 
L 399.365 213.488372 
L 392.669 213.488372 
L 392.669 213.488372 
L 385.973 213.488372 
L 385.973 213.488372 
L 379.277 213.488372 
L 379.277 213.488372 
L 372.581 213.488372 
L 372.581 213.488372 
L 365.885 213.488372 
L 365.885 213.488372 
L 359.189 213.488372 
L 359.189 213.488372 
L 352.493 213.488372 
L 352.493 213.488372 
L 345.797 213.488372 
L 345.797 213.345338 
L 339.101 213.345338 
L 339.101 213.416855 
L 332.405 213.416855 
L 332.405 213.130788 
L 325.709 213.130788 
L 325.709 213.130788 
L 319.013 213.130788 
L 319.013 212.987754 
L 312.317 212.987754 
L 312.317 211.271349 
L 305.621 211.271349 
L 305.621 210.770731 
L 298.925 210.770731 
L 298.925 208.124606 
L 292.229 208.124606 
L 292.229 205.04938 
L 285.533 205.04938 
L 285.533 200.758367 
L 278.837 200.758367 
L 278.837 193.320611 
L 272.141 193.320611 
L 272.141 189.67325 
L 265.445 189.67325 
L 265.445 186.598024 
L 258.749 186.598024 
L 258.749 183.880382 
L 252.053 183.880382 
L 252.053 176.728694 
L 245.357 176.728694 
L 245.357 177.157795 
L 238.661 177.157795 
L 238.661 175.942008 
L 231.965 175.942008 
L 231.965 176.085042 
L 225.269 176.085042 
L 225.269 178.302065 
L 218.573 178.302065 
L 218.573 174.154086 
L 211.877 174.154086 
L 211.877 172.437681 
L 205.181 172.437681 
L 205.181 168.504252 
L 198.485 168.504252 
L 198.485 167.002398 
L 191.789 167.002398 
L 191.789 163.641104 
L 185.093 163.641104 
L 185.093 167.216948 
L 178.397 167.216948 
L 178.397 168.79032 
L 171.701 168.79032 
L 171.701 172.652231 
L 165.005 172.652231 
L 165.005 176.371109 
L 158.309 176.371109 
L 158.309 184.524034 
L 151.613 184.524034 
L 151.613 193.320611 
L 144.917 193.320611 
L 144.917 197.683141 
L 138.221 197.683141 
L 138.221 205.406964 
L 131.525 205.406964 
L 131.525 207.123369 
L 124.829 207.123369 
L 124.829 209.340393 
L 118.133 209.340393 
L 118.133 212.129551 
L 111.437 212.129551 
L 111.437 212.344102 
L 104.741 212.344102 
L 104.741 213.059271 
L 98.045 213.059271 
L 98.045 213.130788 
L 91.349 213.130788 
L 91.349 213.202305 
L 84.653 213.202305 
L 84.653 213.416855 
L 77.957 213.416855 
L 77.957 213.488372 
L 71.261 213.488372 
L 71.261 213.488372 
" clip-path="url(#p83c8b15f2d)" style="fill: #b67b76; stroke: #000000; stroke-width: 0.5; stroke-linejoin: miter"/>
   </g>
   <g id="patch_5">
    <path d="M 71.261 213.488372 
L 71.261 213.488372 
L 77.957 213.488372 
L 77.957 213.416855 
L 84.653 213.416855 
L 84.653 213.202305 
L 91.349 213.202305 
L 91.349 213.130788 
L 98.045 213.130788 
L 98.045 213.059271 
L 104.741 213.059271 
L 104.741 212.344102 
L 111.437 212.344102 
L 111.437 212.129551 
L 118.133 212.129551 
L 118.133 209.340393 
L 124.829 209.340393 
L 124.829 207.123369 
L 131.525 207.123369 
L 131.525 205.406964 
L 138.221 205.406964 
L 138.221 197.683141 
L 144.917 197.683141 
L 144.917 193.320611 
L 151.613 193.320611 
L 151.613 184.524034 
L 158.309 184.524034 
L 158.309 176.371109 
L 165.005 176.371109 
L 165.005 172.652231 
L 171.701 172.652231 
L 171.701 168.79032 
L 178.397 168.79032 
L 178.397 167.216948 
L 185.093 167.216948 
L 185.093 163.641104 
L 191.789 163.641104 
L 191.789 167.002398 
L 198.485 167.002398 
L 198.485 168.504252 
L 205.181 168.504252 
L 205.181 172.437681 
L 211.877 172.437681 
L 211.877 174.154086 
L 218.573 174.154086 
L 218.573 178.302065 
L 225.269 178.302065 
L 225.269 176.085042 
L 231.965 176.085042 
L 231.965 175.942008 
L 238.661 175.942008 
L 238.661 177.157795 
L 245.357 177.157795 
L 245.357 176.728694 
L 252.053 176.728694 
L 252.053 183.880382 
L 258.749 183.880382 
L 258.749 186.598024 
L 265.445 186.598024 
L 265.445 189.67325 
L 272.141 189.67325 
L 272.141 193.320611 
L 278.837 193.320611 
L 278.837 200.758367 
L 285.533 200.758367 
L 285.533 205.04938 
L 292.229 205.04938 
L 292.229 208.124606 
L 298.925 208.124606 
L 298.925 210.770731 
L 305.621 210.770731 
L 305.621 211.271349 
L 312.317 211.271349 
L 312.317 212.987754 
L 319.013 212.987754 
L 319.013 213.130788 
L 325.709 213.130788 
L 325.709 213.130788 
L 332.405 213.130788 
L 332.405 213.416855 
L 339.101 213.416855 
L 339.101 213.345338 
L 345.797 213.345338 
L 345.797 213.488372 
L 352.493 213.488372 
L 352.493 213.488372 
L 359.189 213.488372 
L 359.189 213.488372 
L 365.885 213.488372 
L 365.885 213.488372 
L 372.581 213.488372 
L 372.581 213.488372 
L 379.277 213.488372 
L 379.277 213.488372 
L 385.973 213.488372 
L 385.973 213.488372 
L 392.669 213.488372 
L 392.669 213.488372 
L 399.365 213.488372 
L 399.365 213.488372 
L 406.061 213.488372 
L 406.061 213.488372 
L 406.061 213.488372 
L 406.061 213.488372 
L 399.365 213.488372 
L 399.365 213.488372 
L 392.669 213.488372 
L 392.669 213.488372 
L 385.973 213.488372 
L 385.973 213.488372 
L 379.277 213.488372 
L 379.277 213.488372 
L 372.581 213.488372 
L 372.581 213.488372 
L 365.885 213.488372 
L 365.885 213.488372 
L 359.189 213.488372 
L 359.189 213.488372 
L 352.493 213.488372 
L 352.493 213.488372 
L 345.797 213.488372 
L 345.797 213.488372 
L 339.101 213.488372 
L 339.101 213.488372 
L 332.405 213.488372 
L 332.405 213.488372 
L 325.709 213.488372 
L 325.709 213.488372 
L 319.013 213.488372 
L 319.013 213.488372 
L 312.317 213.488372 
L 312.317 213.488372 
L 305.621 213.488372 
L 305.621 213.488372 
L 298.925 213.488372 
L 298.925 213.488372 
L 292.229 213.488372 
L 292.229 213.488372 
L 285.533 213.488372 
L 285.533 213.488372 
L 278.837 213.488372 
L 278.837 213.488372 
L 272.141 213.488372 
L 272.141 213.488372 
L 265.445 213.488372 
L 265.445 213.488372 
L 258.749 213.488372 
L 258.749 213.488372 
L 252.053 213.488372 
L 252.053 213.488372 
L 245.357 213.488372 
L 245.357 213.488372 
L 238.661 213.488372 
L 238.661 213.488372 
L 231.965 213.488372 
L 231.965 213.488372 
L 225.269 213.488372 
L 225.269 213.488372 
L 218.573 213.488372 
L 218.573 213.488372 
L 211.877 213.488372 
L 211.877 213.488372 
L 205.181 213.488372 
L 205.181 213.488372 
L 198.485 213.488372 
L 198.485 213.488372 
L 191.789 213.488372 
L 191.789 213.488372 
L 185.093 213.488372 
L 185.093 213.488372 
L 178.397 213.488372 
L 178.397 213.488372 
L 171.701 213.488372 
L 171.701 213.488372 
L 165.005 213.488372 
L 165.005 213.488372 
L 158.309 213.488372 
L 158.309 213.488372 
L 151.613 213.488372 
L 151.613 213.488372 
L 144.917 213.488372 
L 144.917 213.488372 
L 138.221 213.488372 
L 138.221 213.488372 
L 131.525 213.488372 
L 131.525 213.488372 
L 124.829 213.488372 
L 124.829 213.488372 
L 118.133 213.488372 
L 118.133 213.488372 
L 111.437 213.488372 
L 111.437 213.488372 
L 104.741 213.488372 
L 104.741 213.488372 
L 98.045 213.488372 
L 98.045 213.488372 
L 91.349 213.488372 
L 91.349 213.488372 
L 84.653 213.488372 
L 84.653 213.488372 
L 77.957 213.488372 
L 77.957 213.488372 
L 71.261 213.488372 
L 71.261 213.488372 
" clip-path="url(#p83c8b15f2d)" style="fill: #3d4c74; stroke: #000000; stroke-width: 0.5; stroke-linejoin: miter"/>
   </g>
   <g id="patch_6">
    <path d="M 71.261 213.476017 
L 71.261 213.2524 
L 77.957 213.2524 
L 77.957 213.065122 
L 84.653 213.065122 
L 84.653 212.634093 
L 91.349 212.634093 
L 91.349 212.222697 
L 98.045 212.222697 
L 98.045 211.109703 
L 104.741 211.109703 
L 104.741 209.638512 
L 111.437 209.638512 
L 111.437 207.204217 
L 118.133 207.204217 
L 118.133 201.365065 
L 124.829 201.365065 
L 124.829 193.299205 
L 131.525 193.299205 
L 131.525 187.046712 
L 138.221 187.046712 
L 138.221 165.762928 
L 144.917 165.762928 
L 144.917 150.832606 
L 151.613 150.832606 
L 151.613 127.87566 
L 158.309 127.87566 
L 158.309 105.254621 
L 165.005 105.254621 
L 165.005 83.026572 
L 171.701 83.026572 
L 171.701 68.26899 
L 178.397 68.26899 
L 178.397 60.098158 
L 185.093 60.098158 
L 185.093 59.519785 
L 191.789 59.519785 
L 191.789 68.70291 
L 198.485 68.70291 
L 198.485 75.646642 
L 205.181 75.646642 
L 205.181 85.269973 
L 211.877 85.269973 
L 211.877 92.001608 
L 218.573 92.001608 
L 218.573 106.41383 
L 225.269 106.41383 
L 225.269 101.487741 
L 231.965 101.487741 
L 231.965 104.385267 
L 238.661 104.385267 
L 238.661 102.574256 
L 245.357 102.574256 
L 245.357 111.268929 
L 252.053 111.268929 
L 252.053 122.579538 
L 258.749 122.579538 
L 258.749 132.666 
L 265.445 132.666 
L 265.445 144.433648 
L 272.141 144.433648 
L 272.141 154.761972 
L 278.837 154.761972 
L 278.837 173.061755 
L 285.533 173.061755 
L 285.533 184.478377 
L 292.229 184.478377 
L 292.229 193.889025 
L 298.925 193.889025 
L 298.925 200.176197 
L 305.621 200.176197 
L 305.621 205.397486 
L 312.317 205.397486 
L 312.317 208.644922 
L 319.013 208.644922 
L 319.013 210.797363 
L 325.709 210.797363 
L 325.709 211.502966 
L 332.405 211.502966 
L 332.405 212.718115 
L 339.101 212.718115 
L 339.101 212.80298 
L 345.797 212.80298 
L 345.797 213.156687 
L 352.493 213.156687 
L 352.493 213.2524 
L 359.189 213.2524 
L 359.189 213.2524 
L 365.885 213.2524 
L 365.885 213.356708 
L 372.581 213.356708 
L 372.581 213.2524 
L 379.277 213.2524 
L 379.277 213.2524 
L 385.973 213.2524 
L 385.973 213.356708 
L 392.669 213.356708 
L 392.669 213.356708 
L 399.365 213.356708 
L 399.365 213.356708 
L 406.061 213.356708 
L 406.061 213.488372 
L 406.061 213.488372 
L 406.061 213.488372 
L 399.365 213.488372 
L 399.365 213.488372 
L 392.669 213.488372 
L 392.669 213.488372 
L 385.973 213.488372 
L 385.973 213.476017 
L 379.277 213.476017 
L 379.277 213.476017 
L 372.581 213.476017 
L 372.581 213.488372 
L 365.885 213.488372 
L 365.885 213.476017 
L 359.189 213.476017 
L 359.189 213.476017 
L 352.493 213.476017 
L 352.493 213.437725 
L 345.797 213.437725 
L 345.797 213.229476 
L 339.101 213.229476 
L 339.101 213.172373 
L 332.405 213.172373 
L 332.405 212.247876 
L 325.709 212.247876 
L 325.709 211.667378 
L 319.013 211.667378 
L 319.013 209.816646 
L 312.317 209.816646 
L 312.317 206.914749 
L 305.621 206.914749 
L 305.621 202.124491 
L 298.925 202.124491 
L 298.925 196.25429 
L 292.229 196.25429 
L 292.229 187.357026 
L 285.533 187.357026 
L 285.533 176.460665 
L 278.837 176.460665 
L 278.837 158.859239 
L 272.141 158.859239 
L 272.141 148.876869 
L 265.445 148.876869 
L 265.445 137.473137 
L 258.749 137.473137 
L 258.749 127.677968 
L 252.053 127.677968 
L 252.053 116.675369 
L 245.357 116.675369 
L 245.357 108.206028 
L 238.661 108.206028 
L 238.661 109.970854 
L 231.965 109.970854 
L 231.965 107.147041 
L 225.269 107.147041 
L 225.269 111.947227 
L 218.573 111.947227 
L 218.573 97.895788 
L 211.877 97.895788 
L 211.877 91.325306 
L 205.181 91.325306 
L 205.181 81.925176 
L 198.485 81.925176 
L 198.485 75.137688 
L 191.789 75.137688 
L 191.789 66.155549 
L 185.093 66.155549 
L 185.093 66.721444 
L 178.397 66.721444 
L 178.397 74.713406 
L 171.701 74.713406 
L 171.701 89.134668 
L 165.005 89.134668 
L 165.005 110.817901 
L 158.309 110.817901 
L 158.309 132.823279 
L 151.613 132.823279 
L 151.613 155.064824 
L 144.917 155.064824 
L 144.917 169.456241 
L 138.221 169.456241 
L 138.221 189.794782 
L 131.525 189.794782 
L 131.525 195.699874 
L 124.829 195.699874 
L 124.829 203.224026 
L 118.133 203.224026 
L 118.133 208.540318 
L 111.437 208.540318 
L 111.437 210.681877 
L 104.741 210.681877 
L 104.741 211.926713 
L 98.045 211.926713 
L 98.045 212.813157 
L 91.349 212.813157 
L 91.349 213.114223 
L 84.653 213.114223 
L 84.653 213.390587 
L 77.957 213.390587 
L 77.957 213.476017 
L 71.261 213.476017 
L 71.261 213.476017 
" clip-path="url(#p83c8b15f2d)" style="fill: url(#hef62bb72f3); opacity: 0.5"/>
   </g>
   <g id="LineCollection_1">
    <path d="M 74.609 213.451269 
L 74.609 212.779712 
" clip-path="url(#p83c8b15f2d)" style="fill: none; stroke: #000000"/>
    <path d="M 81.305 213.336271 
L 81.305 212.49227 
" clip-path="url(#p83c8b15f2d)" style="fill: none; stroke: #000000"/>
    <path d="M 88.001 213.19471 
L 88.001 212.217287 
" clip-path="url(#p83c8b15f2d)" style="fill: none; stroke: #000000"/>
    <path d="M 94.697 212.539377 
L 94.697 211.175172 
" clip-path="url(#p83c8b15f2d)" style="fill: none; stroke: #000000"/>
    <path d="M 101.393 211.460597 
L 101.393 209.687354 
" clip-path="url(#p83c8b15f2d)" style="fill: none; stroke: #000000"/>
    <path d="M 108.089 207.43214 
L 108.089 204.706581 
" clip-path="url(#p83c8b15f2d)" style="fill: none; stroke: #000000"/>
    <path d="M 114.785 204.462622 
L 114.785 201.235897 
" clip-path="url(#p83c8b15f2d)" style="fill: none; stroke: #000000"/>
    <path d="M 121.481 199.236016 
L 121.481 195.297091 
" clip-path="url(#p83c8b15f2d)" style="fill: none; stroke: #000000"/>
    <path d="M 128.177 189.85972 
L 128.177 184.916621 
" clip-path="url(#p83c8b15f2d)" style="fill: none; stroke: #000000"/>
    <path d="M 134.873 173.567984 
L 134.873 167.275892 
" clip-path="url(#p83c8b15f2d)" style="fill: none; stroke: #000000"/>
    <path d="M 141.569 164.019767 
L 141.569 157.065445 
" clip-path="url(#p83c8b15f2d)" style="fill: none; stroke: #000000"/>
    <path d="M 148.265 139.823892 
L 148.265 131.434444 
" clip-path="url(#p83c8b15f2d)" style="fill: none; stroke: #000000"/>
    <path d="M 154.961 104.179711 
L 154.961 94.055703 
" clip-path="url(#p83c8b15f2d)" style="fill: none; stroke: #000000"/>
    <path d="M 161.657 85.04216 
L 161.657 74.104336 
" clip-path="url(#p83c8b15f2d)" style="fill: none; stroke: #000000"/>
    <path d="M 168.353 51.116272 
L 168.353 38.87275 
" clip-path="url(#p83c8b15f2d)" style="fill: none; stroke: #000000"/>
    <path d="M 175.049 44.786988 
L 175.049 32.315533 
" clip-path="url(#p83c8b15f2d)" style="fill: none; stroke: #000000"/>
    <path d="M 181.745 38.877775 
L 181.745 26.197341 
" clip-path="url(#p83c8b15f2d)" style="fill: none; stroke: #000000"/>
    <path d="M 188.441 30.010748 
L 188.441 17.023256 
" clip-path="url(#p83c8b15f2d)" style="fill: none; stroke: #000000"/>
    <path d="M 195.137 40.144183 
L 195.137 27.508234 
" clip-path="url(#p83c8b15f2d)" style="fill: none; stroke: #000000"/>
    <path d="M 201.833 49.428674 
L 201.833 37.123949 
" clip-path="url(#p83c8b15f2d)" style="fill: none; stroke: #000000"/>
    <path d="M 208.529 84.410727 
L 208.529 73.447122 
" clip-path="url(#p83c8b15f2d)" style="fill: none; stroke: #000000"/>
    <path d="M 215.225 103.969589 
L 215.225 93.836276 
" clip-path="url(#p83c8b15f2d)" style="fill: none; stroke: #000000"/>
    <path d="M 221.921 119.086307 
L 221.921 109.646983 
" clip-path="url(#p83c8b15f2d)" style="fill: none; stroke: #000000"/>
    <path d="M 228.617 127.891745 
L 228.617 118.882502 
" clip-path="url(#p83c8b15f2d)" style="fill: none; stroke: #000000"/>
    <path d="M 235.313 154.858669 
L 235.313 147.326779 
" clip-path="url(#p83c8b15f2d)" style="fill: none; stroke: #000000"/>
    <path d="M 242.009 157.776106 
L 242.009 150.422917 
" clip-path="url(#p83c8b15f2d)" style="fill: none; stroke: #000000"/>
    <path d="M 248.705 161.107492 
L 248.705 153.964174 
" clip-path="url(#p83c8b15f2d)" style="fill: none; stroke: #000000"/>
    <path d="M 255.401 169.213291 
L 255.401 162.610354 
" clip-path="url(#p83c8b15f2d)" style="fill: none; stroke: #000000"/>
    <path d="M 262.097 179.360888 
L 262.097 173.509859 
" clip-path="url(#p83c8b15f2d)" style="fill: none; stroke: #000000"/>
    <path d="M 268.793 182.250567 
L 268.793 176.633558 
" clip-path="url(#p83c8b15f2d)" style="fill: none; stroke: #000000"/>
    <path d="M 275.489 191.907607 
L 275.489 187.163827 
" clip-path="url(#p83c8b15f2d)" style="fill: none; stroke: #000000"/>
    <path d="M 282.185 193.542619 
L 282.185 188.964845 
" clip-path="url(#p83c8b15f2d)" style="fill: none; stroke: #000000"/>
    <path d="M 288.881 199.033627 
L 288.881 195.07001 
" clip-path="url(#p83c8b15f2d)" style="fill: none; stroke: #000000"/>
    <path d="M 295.577 201.456403 
L 295.577 197.800754 
" clip-path="url(#p83c8b15f2d)" style="fill: none; stroke: #000000"/>
    <path d="M 302.273 206.052153 
L 302.273 203.081351 
" clip-path="url(#p83c8b15f2d)" style="fill: none; stroke: #000000"/>
    <path d="M 308.969 208.79847 
L 308.969 206.344863 
" clip-path="url(#p83c8b15f2d)" style="fill: none; stroke: #000000"/>
    <path d="M 315.665 209.954403 
L 315.665 207.763473 
" clip-path="url(#p83c8b15f2d)" style="fill: none; stroke: #000000"/>
    <path d="M 322.361 212.187572 
L 322.361 210.672612 
" clip-path="url(#p83c8b15f2d)" style="fill: none; stroke: #000000"/>
    <path d="M 329.057 212.710867 
L 329.057 211.430034 
" clip-path="url(#p83c8b15f2d)" style="fill: none; stroke: #000000"/>
    <path d="M 335.753 213.451269 
L 335.753 212.779712 
" clip-path="url(#p83c8b15f2d)" style="fill: none; stroke: #000000"/>
    <path d="M 342.449 213.092964 
" clip-path="url(#p83c8b15f2d)" style="fill: none; stroke: #000000"/>
    <path d="M 349.145 213.092964 
" clip-path="url(#p83c8b15f2d)" style="fill: none; stroke: #000000"/>
    <path d="M 355.841 213.336271 
L 355.841 212.49227 
" clip-path="url(#p83c8b15f2d)" style="fill: none; stroke: #000000"/>
    <path d="M 362.537 213.092964 
" clip-path="url(#p83c8b15f2d)" style="fill: none; stroke: #000000"/>
    <path d="M 369.233 213.092964 
" clip-path="url(#p83c8b15f2d)" style="fill: none; stroke: #000000"/>
    <path d="M 375.929 213.092964 
" clip-path="url(#p83c8b15f2d)" style="fill: none; stroke: #000000"/>
    <path d="M 382.625 213.092964 
" clip-path="url(#p83c8b15f2d)" style="fill: none; stroke: #000000"/>
    <path d="M 389.321 213.092964 
" clip-path="url(#p83c8b15f2d)" style="fill: none; stroke: #000000"/>
    <path d="M 396.017 213.092964 
" clip-path="url(#p83c8b15f2d)" style="fill: none; stroke: #000000"/>
    <path d="M 402.713 213.092964 
" clip-path="url(#p83c8b15f2d)" style="fill: none; stroke: #000000"/>
   </g>
   <g id="line2d_1">
    <defs>
     <path id="mb27cb91d61" d="M 0 2.5 
C 0.663008 2.5 1.29895 2.236584 1.767767 1.767767 
C 2.236584 1.29895 2.5 0.663008 2.5 0 
C 2.5 -0.663008 2.236584 -1.29895 1.767767 -1.767767 
C 1.29895 -2.236584 0.663008 -2.5 0 -2.5 
C -0.663008 -2.5 -1.29895 -2.236584 -1.767767 -1.767767 
C -2.236584 -1.29895 -2.5 -0.663008 -2.5 0 
C -2.5 0.663008 -2.236584 1.29895 -1.767767 1.767767 
C -1.29895 2.236584 -0.663008 2.5 0 2.5 
z
" style="stroke: #000000"/>
    </defs>
    <g clip-path="url(#p83c8b15f2d)">
     <use xlink:href="#mb27cb91d61" x="74.609" y="213.273596" style="stroke: #000000"/>
     <use xlink:href="#mb27cb91d61" x="81.305" y="213.05882" style="stroke: #000000"/>
     <use xlink:href="#mb27cb91d61" x="88.001" y="212.844043" style="stroke: #000000"/>
     <use xlink:href="#mb27cb91d61" x="94.697" y="211.984939" style="stroke: #000000"/>
     <use xlink:href="#mb27cb91d61" x="101.393" y="210.696281" style="stroke: #000000"/>
     <use xlink:href="#mb27cb91d61" x="108.089" y="206.185981" style="stroke: #000000"/>
     <use xlink:href="#mb27cb91d61" x="114.785" y="202.964338" style="stroke: #000000"/>
     <use xlink:href="#mb27cb91d61" x="121.481" y="197.380156" style="stroke: #000000"/>
     <use xlink:href="#mb27cb91d61" x="128.177" y="187.50045" style="stroke: #000000"/>
     <use xlink:href="#mb27cb91d61" x="134.873" y="170.533129" style="stroke: #000000"/>
     <use xlink:href="#mb27cb91d61" x="141.569" y="160.653423" style="stroke: #000000"/>
     <use xlink:href="#mb27cb91d61" x="148.265" y="135.739382" style="stroke: #000000"/>
     <use xlink:href="#mb27cb91d61" x="154.961" y="99.227425" style="stroke: #000000"/>
     <use xlink:href="#mb27cb91d61" x="161.657" y="79.68279" style="stroke: #000000"/>
     <use xlink:href="#mb27cb91d61" x="168.353" y="45.103819" style="stroke: #000000"/>
     <use xlink:href="#mb27cb91d61" x="175.049" y="38.660532" style="stroke: #000000"/>
     <use xlink:href="#mb27cb91d61" x="181.745" y="32.646798" style="stroke: #000000"/>
     <use xlink:href="#mb27cb91d61" x="188.441" y="23.626197" style="stroke: #000000"/>
     <use xlink:href="#mb27cb91d61" x="195.137" y="33.935456" style="stroke: #000000"/>
     <use xlink:href="#mb27cb91d61" x="201.833" y="43.385609" style="stroke: #000000"/>
     <use xlink:href="#mb27cb91d61" x="208.529" y="79.038461" style="stroke: #000000"/>
     <use xlink:href="#mb27cb91d61" x="215.225" y="99.012649" style="stroke: #000000"/>
     <use xlink:href="#mb27cb91d61" x="221.921" y="114.476537" style="stroke: #000000"/>
     <use xlink:href="#mb27cb91d61" x="228.617" y="123.497138" style="stroke: #000000"/>
     <use xlink:href="#mb27cb91d61" x="235.313" y="151.20327" style="stroke: #000000"/>
     <use xlink:href="#mb27cb91d61" x="242.009" y="154.210137" style="stroke: #000000"/>
     <use xlink:href="#mb27cb91d61" x="248.705" y="157.646556" style="stroke: #000000"/>
     <use xlink:href="#mb27cb91d61" x="255.401" y="166.022828" style="stroke: #000000"/>
     <use xlink:href="#mb27cb91d61" x="262.097" y="176.546863" style="stroke: #000000"/>
     <use xlink:href="#mb27cb91d61" x="268.793" y="179.55373" style="stroke: #000000"/>
     <use xlink:href="#mb27cb91d61" x="275.489" y="189.648212" style="stroke: #000000"/>
     <use xlink:href="#mb27cb91d61" x="282.185" y="191.366422" style="stroke: #000000"/>
     <use xlink:href="#mb27cb91d61" x="288.881" y="197.16538" style="stroke: #000000"/>
     <use xlink:href="#mb27cb91d61" x="295.577" y="199.742694" style="stroke: #000000"/>
     <use xlink:href="#mb27cb91d61" x="302.273" y="204.682547" style="stroke: #000000"/>
     <use xlink:href="#mb27cb91d61" x="308.969" y="207.689414" style="stroke: #000000"/>
     <use xlink:href="#mb27cb91d61" x="315.665" y="208.978072" style="stroke: #000000"/>
     <use xlink:href="#mb27cb91d61" x="322.361" y="211.555386" style="stroke: #000000"/>
     <use xlink:href="#mb27cb91d61" x="329.057" y="212.199715" style="stroke: #000000"/>
     <use xlink:href="#mb27cb91d61" x="335.753" y="213.273596" style="stroke: #000000"/>
     <use xlink:href="#mb27cb91d61" x="342.449" y="213.488372" style="stroke: #000000"/>
     <use xlink:href="#mb27cb91d61" x="349.145" y="213.488372" style="stroke: #000000"/>
     <use xlink:href="#mb27cb91d61" x="355.841" y="213.05882" style="stroke: #000000"/>
     <use xlink:href="#mb27cb91d61" x="362.537" y="213.488372" style="stroke: #000000"/>
     <use xlink:href="#mb27cb91d61" x="369.233" y="213.488372" style="stroke: #000000"/>
     <use xlink:href="#mb27cb91d61" x="375.929" y="213.488372" style="stroke: #000000"/>
     <use xlink:href="#mb27cb91d61" x="382.625" y="213.488372" style="stroke: #000000"/>
     <use xlink:href="#mb27cb91d61" x="389.321" y="213.488372" style="stroke: #000000"/>
     <use xlink:href="#mb27cb91d61" x="396.017" y="213.488372" style="stroke: #000000"/>
     <use xlink:href="#mb27cb91d61" x="402.713" y="213.488372" style="stroke: #000000"/>
    </g>
   </g>
   <g id="patch_7">
    <path d="M 71.261 213.488372 
L 71.261 7.2 
" style="fill: none; stroke: #000000; stroke-linejoin: miter; stroke-linecap: square"/>
   </g>
   <g id="patch_8">
    <path d="M 406.061 213.488372 
L 406.061 7.2 
" style="fill: none; stroke: #000000; stroke-linejoin: miter; stroke-linecap: square"/>
   </g>
   <g id="patch_9">
    <path d="M 71.261 213.488372 
L 406.061 213.488372 
" style="fill: none; stroke: #000000; stroke-linejoin: miter; stroke-linecap: square"/>
   </g>
   <g id="patch_10">
    <path d="M 71.261 7.2 
L 406.061 7.2 
" style="fill: none; stroke: #000000; stroke-linejoin: miter; stroke-linecap: square"/>
   </g>
   <g id="matplotlib.axis_1">
    <g id="xtick_1">
     <g id="line2d_2">
      <defs>
       <path id="m8dec1b3d1d" d="M 0 0 
L 0 -6 
" style="stroke: #1a1a1a; stroke-width: 0.8"/>
      </defs>
      <g>
       <use xlink:href="#m8dec1b3d1d" x="135.032429" y="213.488372" style="fill: #1a1a1a; stroke: #1a1a1a; stroke-width: 0.8"/>
      </g>
     </g>
    </g>
    <g id="xtick_2">
     <g id="line2d_3">
      <g>
       <use xlink:href="#m8dec1b3d1d" x="214.746714" y="213.488372" style="fill: #1a1a1a; stroke: #1a1a1a; stroke-width: 0.8"/>
      </g>
     </g>
    </g>
    <g id="xtick_3">
     <g id="line2d_4">
      <g>
       <use xlink:href="#m8dec1b3d1d" x="294.461" y="213.488372" style="fill: #1a1a1a; stroke: #1a1a1a; stroke-width: 0.8"/>
      </g>
     </g>
    </g>
    <g id="xtick_4">
     <g id="line2d_5">
      <g>
       <use xlink:href="#m8dec1b3d1d" x="374.175286" y="213.488372" style="fill: #1a1a1a; stroke: #1a1a1a; stroke-width: 0.8"/>
      </g>
     </g>
    </g>
    <g id="xtick_5">
     <g id="line2d_6">
      <defs>
       <path id="m131efc0c90" d="M 0 0 
L 0 -3 
" style="stroke: #1a1a1a; stroke-width: 0.6"/>
      </defs>
      <g>
       <use xlink:href="#m131efc0c90" x="71.261" y="213.488372" style="fill: #1a1a1a; stroke: #1a1a1a; stroke-width: 0.6"/>
      </g>
     </g>
    </g>
    <g id="xtick_6">
     <g id="line2d_7">
      <g>
       <use xlink:href="#m131efc0c90" x="87.203857" y="213.488372" style="fill: #1a1a1a; stroke: #1a1a1a; stroke-width: 0.6"/>
      </g>
     </g>
    </g>
    <g id="xtick_7">
     <g id="line2d_8">
      <g>
       <use xlink:href="#m131efc0c90" x="103.146714" y="213.488372" style="fill: #1a1a1a; stroke: #1a1a1a; stroke-width: 0.6"/>
      </g>
     </g>
    </g>
    <g id="xtick_8">
     <g id="line2d_9">
      <g>
       <use xlink:href="#m131efc0c90" x="119.089571" y="213.488372" style="fill: #1a1a1a; stroke: #1a1a1a; stroke-width: 0.6"/>
      </g>
     </g>
    </g>
    <g id="xtick_9">
     <g id="line2d_10">
      <g>
       <use xlink:href="#m131efc0c90" x="150.975286" y="213.488372" style="fill: #1a1a1a; stroke: #1a1a1a; stroke-width: 0.6"/>
      </g>
     </g>
    </g>
    <g id="xtick_10">
     <g id="line2d_11">
      <g>
       <use xlink:href="#m131efc0c90" x="166.918143" y="213.488372" style="fill: #1a1a1a; stroke: #1a1a1a; stroke-width: 0.6"/>
      </g>
     </g>
    </g>
    <g id="xtick_11">
     <g id="line2d_12">
      <g>
       <use xlink:href="#m131efc0c90" x="182.861" y="213.488372" style="fill: #1a1a1a; stroke: #1a1a1a; stroke-width: 0.6"/>
      </g>
     </g>
    </g>
    <g id="xtick_12">
     <g id="line2d_13">
      <g>
       <use xlink:href="#m131efc0c90" x="198.803857" y="213.488372" style="fill: #1a1a1a; stroke: #1a1a1a; stroke-width: 0.6"/>
      </g>
     </g>
    </g>
    <g id="xtick_13">
     <g id="line2d_14">
      <g>
       <use xlink:href="#m131efc0c90" x="230.689571" y="213.488372" style="fill: #1a1a1a; stroke: #1a1a1a; stroke-width: 0.6"/>
      </g>
     </g>
    </g>
    <g id="xtick_14">
     <g id="line2d_15">
      <g>
       <use xlink:href="#m131efc0c90" x="246.632429" y="213.488372" style="fill: #1a1a1a; stroke: #1a1a1a; stroke-width: 0.6"/>
      </g>
     </g>
    </g>
    <g id="xtick_15">
     <g id="line2d_16">
      <g>
       <use xlink:href="#m131efc0c90" x="262.575286" y="213.488372" style="fill: #1a1a1a; stroke: #1a1a1a; stroke-width: 0.6"/>
      </g>
     </g>
    </g>
    <g id="xtick_16">
     <g id="line2d_17">
      <g>
       <use xlink:href="#m131efc0c90" x="278.518143" y="213.488372" style="fill: #1a1a1a; stroke: #1a1a1a; stroke-width: 0.6"/>
      </g>
     </g>
    </g>
    <g id="xtick_17">
     <g id="line2d_18">
      <g>
       <use xlink:href="#m131efc0c90" x="310.403857" y="213.488372" style="fill: #1a1a1a; stroke: #1a1a1a; stroke-width: 0.6"/>
      </g>
     </g>
    </g>
    <g id="xtick_18">
     <g id="line2d_19">
      <g>
       <use xlink:href="#m131efc0c90" x="326.346714" y="213.488372" style="fill: #1a1a1a; stroke: #1a1a1a; stroke-width: 0.6"/>
      </g>
     </g>
    </g>
    <g id="xtick_19">
     <g id="line2d_20">
      <g>
       <use xlink:href="#m131efc0c90" x="342.289571" y="213.488372" style="fill: #1a1a1a; stroke: #1a1a1a; stroke-width: 0.6"/>
      </g>
     </g>
    </g>
    <g id="xtick_20">
     <g id="line2d_21">
      <g>
       <use xlink:href="#m131efc0c90" x="358.232429" y="213.488372" style="fill: #1a1a1a; stroke: #1a1a1a; stroke-width: 0.6"/>
      </g>
     </g>
    </g>
    <g id="xtick_21">
     <g id="line2d_22">
      <g>
       <use xlink:href="#m131efc0c90" x="390.118143" y="213.488372" style="fill: #1a1a1a; stroke: #1a1a1a; stroke-width: 0.6"/>
      </g>
     </g>
    </g>
    <g id="xtick_22">
     <g id="line2d_23">
      <g>
       <use xlink:href="#m131efc0c90" x="406.061" y="213.488372" style="fill: #1a1a1a; stroke: #1a1a1a; stroke-width: 0.6"/>
      </g>
     </g>
    </g>
   </g>
   <g id="matplotlib.axis_2">
    <g id="ytick_1">
     <g id="line2d_24">
      <defs>
       <path id="mc947610920" d="M 0 0 
L 6 0 
" style="stroke: #1a1a1a; stroke-width: 0.8"/>
      </defs>
      <g>
       <use xlink:href="#mc947610920" x="71.261" y="213.488372" style="fill: #1a1a1a; stroke: #1a1a1a; stroke-width: 0.8"/>
      </g>
     </g>
     <g id="text_1">
      <!-- $\mathdefault{0}$ -->
      <g style="fill: #1a1a1a" transform="translate(58.761 218.693841) scale(0.15 -0.15)">
       <defs>
        <path id="LatinModernMath-Regular-30" d="M 2944 2048 
C 2944 2560 2912 3072 2688 3546 
C 2394 4160 1869 4262 1600 4262 
C 1216 4262 749 4096 486 3501 
C 282 3059 250 2560 250 2048 
C 250 1568 275 992 538 506 
C 813 -13 1280 -141 1594 -141 
C 1939 -141 2426 -6 2707 602 
C 2912 1043 2944 1542 2944 2048 
z
M 2413 2125 
C 2413 1645 2413 1210 2342 800 
C 2246 192 1882 0 1594 0 
C 1344 0 966 160 851 774 
C 781 1158 781 1747 781 2125 
C 781 2534 781 2957 832 3302 
C 954 4064 1434 4122 1594 4122 
C 1805 4122 2227 4006 2349 3373 
C 2413 3014 2413 2528 2413 2125 
z
" transform="scale(0.015625)"/>
       </defs>
       <use xlink:href="#LatinModernMath-Regular-30" transform="translate(0 0.40625)"/>
      </g>
     </g>
    </g>
    <g id="ytick_2">
     <g id="line2d_25">
      <g>
       <use xlink:href="#mc947610920" x="71.261" y="170.533129" style="fill: #1a1a1a; stroke: #1a1a1a; stroke-width: 0.8"/>
      </g>
     </g>
     <g id="text_2">
      <!-- $\mathdefault{200}$ -->
      <g style="fill: #1a1a1a" transform="translate(43.761 175.738598) scale(0.15 -0.15)">
       <defs>
        <path id="LatinModernMath-Regular-32" d="M 2874 1114 
L 2714 1114 
C 2682 922 2637 640 2573 544 
C 2528 493 2106 493 1965 493 
L 813 493 
L 1491 1152 
C 2490 2035 2874 2381 2874 3021 
C 2874 3750 2298 4262 1517 4262 
C 794 4262 320 3674 320 3104 
C 320 2746 640 2746 659 2746 
C 768 2746 992 2822 992 3085 
C 992 3251 877 3418 653 3418 
C 602 3418 589 3418 570 3411 
C 717 3827 1062 4064 1434 4064 
C 2016 4064 2291 3546 2291 3021 
C 2291 2509 1971 2003 1619 1606 
L 390 237 
C 320 166 320 154 320 0 
L 2694 0 
L 2874 1114 
z
" transform="scale(0.015625)"/>
       </defs>
       <use xlink:href="#LatinModernMath-Regular-32" transform="translate(0 0.40625)"/>
       <use xlink:href="#LatinModernMath-Regular-30" transform="translate(49.999985 0.40625)"/>
       <use xlink:href="#LatinModernMath-Regular-30" transform="translate(99.999969 0.40625)"/>
      </g>
     </g>
    </g>
    <g id="ytick_3">
     <g id="line2d_26">
      <g>
       <use xlink:href="#mc947610920" x="71.261" y="127.577886" style="fill: #1a1a1a; stroke: #1a1a1a; stroke-width: 0.8"/>
      </g>
     </g>
     <g id="text_3">
      <!-- $\mathdefault{400}$ -->
      <g style="fill: #1a1a1a" transform="translate(43.761 132.783355) scale(0.15 -0.15)">
       <defs>
        <path id="LatinModernMath-Regular-34" d="M 3014 1056 
L 3014 1254 
L 2374 1254 
L 2374 4166 
C 2374 4294 2374 4333 2272 4333 
C 2214 4333 2195 4333 2144 4256 
L 179 1254 
L 179 1056 
L 1882 1056 
L 1882 499 
C 1882 269 1869 198 1395 198 
L 1261 198 
L 1261 0 
C 1523 19 1856 19 2125 19 
C 2394 19 2733 19 2995 0 
L 2995 198 
L 2861 198 
C 2387 198 2374 269 2374 499 
L 2374 1056 
L 3014 1056 
z
M 1920 1254 
L 358 1254 
L 1920 3642 
L 1920 1254 
z
" transform="scale(0.015625)"/>
       </defs>
       <use xlink:href="#LatinModernMath-Regular-34" transform="translate(0 0.296875)"/>
       <use xlink:href="#LatinModernMath-Regular-30" transform="translate(49.999985 0.296875)"/>
       <use xlink:href="#LatinModernMath-Regular-30" transform="translate(99.999969 0.296875)"/>
      </g>
     </g>
    </g>
    <g id="ytick_4">
     <g id="line2d_27">
      <g>
       <use xlink:href="#mc947610920" x="71.261" y="84.622643" style="fill: #1a1a1a; stroke: #1a1a1a; stroke-width: 0.8"/>
      </g>
     </g>
     <g id="text_4">
      <!-- $\mathdefault{600}$ -->
      <g style="fill: #1a1a1a" transform="translate(43.761 89.828111) scale(0.15 -0.15)">
       <defs>
        <path id="LatinModernMath-Regular-36" d="M 2925 1306 
C 2925 2118 2355 2733 1645 2733 
C 1210 2733 973 2406 845 2099 
L 845 2253 
C 845 3872 1638 4102 1965 4102 
C 2118 4102 2387 4064 2528 3846 
C 2432 3846 2176 3846 2176 3558 
C 2176 3360 2330 3264 2470 3264 
C 2573 3264 2765 3322 2765 3571 
C 2765 3955 2483 4262 1952 4262 
C 1133 4262 269 3437 269 2022 
C 269 314 1011 -141 1606 -141 
C 2317 -141 2925 461 2925 1306 
z
M 2349 1312 
C 2349 1005 2349 685 2240 454 
C 2048 70 1754 38 1606 38 
C 1203 38 1011 422 973 518 
C 858 819 858 1331 858 1446 
C 858 1946 1062 2586 1638 2586 
C 1741 2586 2035 2586 2234 2189 
C 2349 1952 2349 1626 2349 1312 
z
" transform="scale(0.015625)"/>
       </defs>
       <use xlink:href="#LatinModernMath-Regular-36" transform="translate(0 0.40625)"/>
       <use xlink:href="#LatinModernMath-Regular-30" transform="translate(49.999985 0.40625)"/>
       <use xlink:href="#LatinModernMath-Regular-30" transform="translate(99.999969 0.40625)"/>
      </g>
     </g>
    </g>
    <g id="ytick_5">
     <g id="line2d_28">
      <g>
       <use xlink:href="#mc947610920" x="71.261" y="41.667399" style="fill: #1a1a1a; stroke: #1a1a1a; stroke-width: 0.8"/>
      </g>
     </g>
     <g id="text_5">
      <!-- $\mathdefault{800}$ -->
      <g style="fill: #1a1a1a" transform="translate(43.761 46.872868) scale(0.15 -0.15)">
       <defs>
        <path id="LatinModernMath-Regular-38" d="M 2925 1075 
C 2925 1306 2854 1594 2611 1862 
C 2490 1997 2387 2061 1978 2317 
C 2438 2554 2752 2886 2752 3309 
C 2752 3898 2182 4262 1600 4262 
C 960 4262 442 3789 442 3194 
C 442 3078 454 2790 723 2490 
C 794 2413 1030 2253 1190 2144 
C 819 1958 269 1600 269 966 
C 269 288 922 -141 1594 -141 
C 2317 -141 2925 390 2925 1075 
z
M 2470 3309 
C 2470 2944 2221 2637 1837 2413 
L 1043 2925 
C 749 3117 723 3334 723 3443 
C 723 3834 1139 4102 1594 4102 
C 2061 4102 2470 3770 2470 3309 
z
M 2605 845 
C 2605 371 2125 38 1600 38 
C 1050 38 589 435 589 966 
C 589 1338 794 1747 1338 2048 
L 2125 1549 
C 2304 1427 2605 1235 2605 845 
z
" transform="scale(0.015625)"/>
       </defs>
       <use xlink:href="#LatinModernMath-Regular-38" transform="translate(0 0.40625)"/>
       <use xlink:href="#LatinModernMath-Regular-30" transform="translate(49.999985 0.40625)"/>
       <use xlink:href="#LatinModernMath-Regular-30" transform="translate(99.999969 0.40625)"/>
      </g>
     </g>
    </g>
    <g id="ytick_6">
     <g id="line2d_29">
      <defs>
       <path id="m5f9d1e6504" d="M 0 0 
L 3 0 
" style="stroke: #1a1a1a; stroke-width: 0.6"/>
      </defs>
      <g>
       <use xlink:href="#m5f9d1e6504" x="71.261" y="202.749561" style="fill: #1a1a1a; stroke: #1a1a1a; stroke-width: 0.6"/>
      </g>
     </g>
    </g>
    <g id="ytick_7">
     <g id="line2d_30">
      <g>
       <use xlink:href="#m5f9d1e6504" x="71.261" y="192.010751" style="fill: #1a1a1a; stroke: #1a1a1a; stroke-width: 0.6"/>
      </g>
     </g>
    </g>
    <g id="ytick_8">
     <g id="line2d_31">
      <g>
       <use xlink:href="#m5f9d1e6504" x="71.261" y="181.27194" style="fill: #1a1a1a; stroke: #1a1a1a; stroke-width: 0.6"/>
      </g>
     </g>
    </g>
    <g id="ytick_9">
     <g id="line2d_32">
      <g>
       <use xlink:href="#m5f9d1e6504" x="71.261" y="159.794318" style="fill: #1a1a1a; stroke: #1a1a1a; stroke-width: 0.6"/>
      </g>
     </g>
    </g>
    <g id="ytick_10">
     <g id="line2d_33">
      <g>
       <use xlink:href="#m5f9d1e6504" x="71.261" y="149.055507" style="fill: #1a1a1a; stroke: #1a1a1a; stroke-width: 0.6"/>
      </g>
     </g>
    </g>
    <g id="ytick_11">
     <g id="line2d_34">
      <g>
       <use xlink:href="#m5f9d1e6504" x="71.261" y="138.316697" style="fill: #1a1a1a; stroke: #1a1a1a; stroke-width: 0.6"/>
      </g>
     </g>
    </g>
    <g id="ytick_12">
     <g id="line2d_35">
      <g>
       <use xlink:href="#m5f9d1e6504" x="71.261" y="116.839075" style="fill: #1a1a1a; stroke: #1a1a1a; stroke-width: 0.6"/>
      </g>
     </g>
    </g>
    <g id="ytick_13">
     <g id="line2d_36">
      <g>
       <use xlink:href="#m5f9d1e6504" x="71.261" y="106.100264" style="fill: #1a1a1a; stroke: #1a1a1a; stroke-width: 0.6"/>
      </g>
     </g>
    </g>
    <g id="ytick_14">
     <g id="line2d_37">
      <g>
       <use xlink:href="#m5f9d1e6504" x="71.261" y="95.361453" style="fill: #1a1a1a; stroke: #1a1a1a; stroke-width: 0.6"/>
      </g>
     </g>
    </g>
    <g id="ytick_15">
     <g id="line2d_38">
      <g>
       <use xlink:href="#m5f9d1e6504" x="71.261" y="73.883832" style="fill: #1a1a1a; stroke: #1a1a1a; stroke-width: 0.6"/>
      </g>
     </g>
    </g>
    <g id="ytick_16">
     <g id="line2d_39">
      <g>
       <use xlink:href="#m5f9d1e6504" x="71.261" y="63.145021" style="fill: #1a1a1a; stroke: #1a1a1a; stroke-width: 0.6"/>
      </g>
     </g>
    </g>
    <g id="ytick_17">
     <g id="line2d_40">
      <g>
       <use xlink:href="#m5f9d1e6504" x="71.261" y="52.40621" style="fill: #1a1a1a; stroke: #1a1a1a; stroke-width: 0.6"/>
      </g>
     </g>
    </g>
    <g id="ytick_18">
     <g id="line2d_41">
      <g>
       <use xlink:href="#m5f9d1e6504" x="71.261" y="30.928589" style="fill: #1a1a1a; stroke: #1a1a1a; stroke-width: 0.6"/>
      </g>
     </g>
    </g>
    <g id="ytick_19">
     <g id="line2d_42">
      <g>
       <use xlink:href="#m5f9d1e6504" x="71.261" y="20.189778" style="fill: #1a1a1a; stroke: #1a1a1a; stroke-width: 0.6"/>
      </g>
     </g>
    </g>
    <g id="ytick_20">
     <g id="line2d_43">
      <g>
       <use xlink:href="#m5f9d1e6504" x="71.261" y="9.450967" style="fill: #1a1a1a; stroke: #1a1a1a; stroke-width: 0.6"/>
      </g>
     </g>
    </g>
    <g id="text_6">
     <!-- Candidates per 0.42 $TeV/c^2$ -->
     <g style="fill: #1a1a1a" transform="translate(33.586 213.132686) rotate(-90) scale(0.167 -0.167)">
      <defs>
       <path id="LatinModernMath-Regular-43" d="M 4256 1491 
C 4256 1555 4256 1600 4173 1600 
C 4102 1600 4102 1562 4096 1498 
C 4045 582 3360 58 2662 58 
C 2272 58 1018 275 1018 2182 
C 1018 4096 2266 4314 2656 4314 
C 3354 4314 3923 3731 4051 2797 
C 4064 2707 4064 2688 4154 2688 
C 4256 2688 4256 2707 4256 2842 
L 4256 4358 
C 4256 4467 4256 4512 4186 4512 
C 4160 4512 4134 4512 4083 4435 
L 3763 3962 
C 3526 4192 3200 4512 2586 4512 
C 1389 4512 358 3494 358 2189 
C 358 864 1395 -141 2586 -141 
C 3629 -141 4256 749 4256 1491 
z
" transform="scale(0.015625)"/>
       <path id="LatinModernMath-Regular-61" d="M 3091 570 
L 3091 928 
L 2931 928 
L 2931 570 
C 2931 198 2771 160 2701 160 
C 2490 160 2464 448 2464 480 
L 2464 1760 
C 2464 2029 2464 2278 2234 2515 
C 1984 2765 1664 2867 1357 2867 
C 832 2867 390 2566 390 2144 
C 390 1952 518 1843 685 1843 
C 864 1843 979 1971 979 2138 
C 979 2214 947 2426 653 2432 
C 826 2656 1139 2726 1344 2726 
C 1658 2726 2022 2477 2022 1907 
L 2022 1670 
C 1696 1651 1248 1632 845 1440 
C 365 1222 205 890 205 608 
C 205 90 826 -70 1229 -70 
C 1651 -70 1946 186 2067 486 
C 2093 230 2266 -38 2566 -38 
C 2701 -38 3091 51 3091 570 
z
M 2022 896 
C 2022 288 1562 70 1274 70 
C 960 70 698 294 698 614 
C 698 966 966 1498 2022 1536 
L 2022 896 
z
" transform="scale(0.015625)"/>
       <path id="LatinModernMath-Regular-6e" d="M 3424 0 
L 3424 198 
C 3091 198 2931 198 2925 390 
L 2925 1613 
C 2925 2163 2925 2362 2726 2592 
C 2637 2701 2426 2829 2054 2829 
C 1587 2829 1286 2554 1107 2157 
L 1107 2829 
L 205 2758 
L 205 2560 
C 653 2560 704 2515 704 2202 
L 704 486 
C 704 198 634 198 205 198 
L 205 0 
L 928 19 
L 1645 0 
L 1645 198 
C 1216 198 1146 198 1146 486 
L 1146 1664 
C 1146 2330 1600 2688 2010 2688 
C 2413 2688 2483 2342 2483 1978 
L 2483 486 
C 2483 198 2413 198 1984 198 
L 1984 0 
L 2707 19 
L 3424 0 
z
" transform="scale(0.015625)"/>
       <path id="LatinModernMath-Regular-64" d="M 3373 0 
L 3373 198 
C 2925 198 2874 243 2874 557 
L 2874 4442 
L 1952 4371 
L 1952 4173 
C 2400 4173 2451 4128 2451 3814 
L 2451 2432 
C 2266 2662 1990 2829 1645 2829 
C 890 2829 218 2202 218 1376 
C 218 563 845 -70 1574 -70 
C 1984 -70 2272 147 2432 352 
L 2432 -70 
L 3373 0 
z
M 2432 755 
C 2432 640 2432 627 2362 518 
C 2170 211 1882 70 1606 70 
C 1318 70 1088 237 934 480 
C 768 742 749 1107 749 1370 
C 749 1606 762 1990 947 2278 
C 1082 2477 1325 2688 1670 2688 
C 1894 2688 2163 2592 2362 2304 
C 2432 2195 2432 2182 2432 2067 
L 2432 755 
z
" transform="scale(0.015625)"/>
       <path id="LatinModernMath-Regular-69" d="M 1581 0 
L 1581 198 
C 1158 198 1133 230 1133 480 
L 1133 2829 
L 237 2758 
L 237 2560 
C 653 2560 710 2522 710 2208 
L 710 486 
C 710 198 640 198 211 198 
L 211 0 
L 915 19 
C 1139 19 1363 6 1581 0 
z
M 1229 3866 
C 1229 4038 1082 4205 890 4205 
C 672 4205 544 4026 544 3866 
C 544 3693 691 3526 883 3526 
C 1101 3526 1229 3706 1229 3866 
z
" transform="scale(0.015625)"/>
       <path id="LatinModernMath-Regular-74" d="M 2125 794 
L 2125 1158 
L 1965 1158 
L 1965 806 
C 1965 333 1773 90 1536 90 
C 1107 90 1107 672 1107 781 
L 1107 2560 
L 2022 2560 
L 2022 2758 
L 1107 2758 
L 1107 3936 
L 947 3936 
C 941 3411 749 2726 122 2701 
L 122 2560 
L 666 2560 
L 666 794 
C 666 6 1261 -70 1491 -70 
C 1946 -70 2125 384 2125 794 
z
" transform="scale(0.015625)"/>
       <path id="LatinModernMath-Regular-65" d="M 2656 762 
C 2656 826 2605 838 2573 838 
C 2515 838 2502 800 2490 749 
C 2266 90 1690 90 1626 90 
C 1306 90 1050 282 902 518 
C 710 826 710 1248 710 1478 
L 2496 1478 
C 2637 1478 2656 1478 2656 1613 
C 2656 2246 2310 2867 1510 2867 
C 768 2867 179 2208 179 1408 
C 179 550 851 -70 1587 -70 
C 2368 -70 2656 640 2656 762 
z
M 2234 1613 
L 717 1613 
C 755 2566 1293 2726 1510 2726 
C 2170 2726 2234 1862 2234 1613 
z
" transform="scale(0.015625)"/>
       <path id="LatinModernMath-Regular-73" d="M 2304 819 
C 2304 1158 2112 1350 2035 1427 
C 1824 1632 1574 1683 1306 1734 
C 947 1805 518 1888 518 2259 
C 518 2483 685 2746 1235 2746 
C 1939 2746 1971 2170 1984 1971 
C 1990 1914 2061 1914 2061 1914 
C 2144 1914 2144 1946 2144 2067 
L 2144 2714 
C 2144 2822 2144 2867 2074 2867 
C 2042 2867 2029 2867 1946 2790 
C 1926 2765 1862 2707 1837 2688 
C 1594 2867 1331 2867 1235 2867 
C 454 2867 211 2438 211 2080 
C 211 1856 314 1677 486 1536 
C 691 1370 870 1331 1331 1242 
C 1472 1216 1997 1114 1997 653 
C 1997 326 1773 70 1274 70 
C 736 70 506 435 384 979 
C 365 1062 358 1088 294 1088 
C 211 1088 211 1043 211 928 
L 211 83 
C 211 -26 211 -70 282 -70 
C 314 -70 320 -64 442 58 
C 454 70 454 83 570 205 
C 851 -64 1139 -70 1274 -70 
C 2010 -70 2304 358 2304 819 
z
" transform="scale(0.015625)"/>
       <path id="LatinModernMath-Regular-20" transform="scale(0.015625)"/>
       <path id="LatinModernMath-Regular-70" d="M 3334 1382 
C 3334 2195 2714 2829 1997 2829 
C 1498 2829 1229 2547 1101 2406 
L 1101 2829 
L 179 2758 
L 179 2560 
C 634 2560 678 2522 678 2240 
L 678 -755 
C 678 -1043 608 -1043 179 -1043 
L 179 -1242 
L 896 -1222 
L 1619 -1242 
L 1619 -1043 
C 1190 -1043 1120 -1043 1120 -755 
L 1120 320 
L 1120 378 
C 1152 275 1421 -70 1907 -70 
C 2669 -70 3334 557 3334 1382 
z
M 2803 1382 
C 2803 608 2355 70 1882 70 
C 1626 70 1382 198 1210 461 
C 1120 595 1120 602 1120 730 
L 1120 2157 
C 1306 2483 1619 2669 1946 2669 
C 2413 2669 2803 2106 2803 1382 
z
" transform="scale(0.015625)"/>
       <path id="LatinModernMath-Regular-72" d="M 2330 2438 
C 2330 2643 2131 2829 1856 2829 
C 1389 2829 1158 2400 1069 2125 
L 1069 2829 
L 179 2758 
L 179 2560 
C 627 2560 678 2515 678 2202 
L 678 486 
C 678 198 608 198 179 198 
L 179 0 
L 909 19 
C 1165 19 1466 19 1722 0 
L 1722 198 
L 1587 198 
C 1114 198 1101 269 1101 499 
L 1101 1485 
C 1101 2118 1370 2688 1856 2688 
C 1901 2688 1914 2688 1926 2682 
C 1907 2675 1779 2598 1779 2432 
C 1779 2253 1914 2157 2054 2157 
C 2170 2157 2330 2234 2330 2438 
z
" transform="scale(0.015625)"/>
       <path id="LatinModernMath-Regular-2e" d="M 1229 339 
C 1229 525 1075 678 890 678 
C 704 678 550 525 550 339 
C 550 154 704 0 890 0 
C 1075 0 1229 154 1229 339 
z
" transform="scale(0.015625)"/>
       <path id="LatinModernMath-Regular-54" d="M 4384 2893 
L 4262 4333 
L 352 4333 
L 230 2893 
L 390 2893 
C 480 3923 576 4134 1542 4134 
C 1658 4134 1824 4134 1888 4122 
C 2022 4096 2022 4026 2022 3878 
L 2022 506 
C 2022 288 2022 198 1350 198 
L 1094 198 
L 1094 0 
C 1357 19 2010 19 2304 19 
C 2598 19 3258 19 3520 0 
L 3520 198 
L 3264 198 
C 2592 198 2592 288 2592 506 
L 2592 3878 
C 2592 4006 2592 4096 2707 4122 
C 2778 4134 2950 4134 3072 4134 
C 4038 4134 4134 3923 4224 2893 
L 4384 2893 
z
" transform="scale(0.015625)"/>
       <path id="LatinModernMath-Regular-56" d="M 4672 4173 
L 4672 4371 
C 4474 4358 4218 4352 4051 4352 
L 3322 4371 
L 3322 4173 
C 3654 4166 3789 4000 3789 3853 
C 3789 3802 3770 3763 3757 3725 
L 2586 640 
L 1363 3872 
C 1325 3962 1325 3987 1325 3987 
C 1325 4173 1690 4173 1850 4173 
L 1850 4371 
C 1619 4352 1178 4352 934 4352 
L 122 4371 
L 122 4173 
C 538 4173 659 4173 749 3930 
L 2234 0 
C 2278 -122 2310 -141 2394 -141 
C 2502 -141 2515 -109 2547 -19 
L 3974 3744 
C 4064 3981 4237 4166 4672 4173 
z
" transform="scale(0.015625)"/>
       <path id="LatinModernMath-Regular-2f" d="M 2848 4672 
C 2848 4742 2790 4800 2720 4800 
C 2662 4800 2618 4768 2598 4717 
L 365 -1427 
C 358 -1440 358 -1459 358 -1472 
C 358 -1542 416 -1600 486 -1600 
C 544 -1600 589 -1568 608 -1517 
L 2842 4627 
C 2848 4640 2848 4659 2848 4672 
z
" transform="scale(0.015625)"/>
       <path id="LatinModernMath-Regular-63" d="M 2656 762 
C 2656 826 2592 826 2573 826 
C 2515 826 2502 800 2490 762 
C 2304 166 1888 90 1651 90 
C 1312 90 749 365 749 1395 
C 749 2438 1274 2707 1613 2707 
C 1670 2707 2074 2701 2298 2470 
C 2035 2451 1997 2259 1997 2176 
C 1997 2010 2112 1882 2291 1882 
C 2458 1882 2586 1990 2586 2182 
C 2586 2618 2099 2867 1606 2867 
C 806 2867 218 2176 218 1382 
C 218 563 851 -70 1594 -70 
C 2451 -70 2656 698 2656 762 
z
" transform="scale(0.015625)"/>
      </defs>
      <use xlink:href="#LatinModernMath-Regular-43" transform="translate(0 0.21875)"/>
      <use xlink:href="#LatinModernMath-Regular-61" transform="translate(72.199982 0.21875)"/>
      <use xlink:href="#LatinModernMath-Regular-6e" transform="translate(122.199966 0.21875)"/>
      <use xlink:href="#LatinModernMath-Regular-64" transform="translate(177.799957 0.21875)"/>
      <use xlink:href="#LatinModernMath-Regular-69" transform="translate(233.399948 0.21875)"/>
      <use xlink:href="#LatinModernMath-Regular-64" transform="translate(261.199936 0.21875)"/>
      <use xlink:href="#LatinModernMath-Regular-61" transform="translate(316.799927 0.21875)"/>
      <use xlink:href="#LatinModernMath-Regular-74" transform="translate(366.799911 0.21875)"/>
      <use xlink:href="#LatinModernMath-Regular-65" transform="translate(405.699905 0.21875)"/>
      <use xlink:href="#LatinModernMath-Regular-73" transform="translate(450.099899 0.21875)"/>
      <use xlink:href="#LatinModernMath-Regular-20" transform="translate(489.499893 0.21875)"/>
      <use xlink:href="#LatinModernMath-Regular-70" transform="translate(522.69989 0.21875)"/>
      <use xlink:href="#LatinModernMath-Regular-65" transform="translate(578.299881 0.21875)"/>
      <use xlink:href="#LatinModernMath-Regular-72" transform="translate(622.699875 0.21875)"/>
      <use xlink:href="#LatinModernMath-Regular-20" transform="translate(661.899872 0.21875)"/>
      <use xlink:href="#LatinModernMath-Regular-30" transform="translate(695.099869 0.21875)"/>
      <use xlink:href="#LatinModernMath-Regular-2e" transform="translate(745.099854 0.21875)"/>
      <use xlink:href="#LatinModernMath-Regular-34" transform="translate(772.899841 0.21875)"/>
      <use xlink:href="#LatinModernMath-Regular-32" transform="translate(822.899826 0.21875)"/>
      <use xlink:href="#LatinModernMath-Regular-20" transform="translate(872.899811 0.21875)"/>
      <use xlink:href="#LatinModernMath-Regular-54" transform="translate(906.099808 0.21875)"/>
      <use xlink:href="#LatinModernMath-Regular-65" transform="translate(978.299789 0.21875)"/>
      <use xlink:href="#LatinModernMath-Regular-56" transform="translate(1022.699783 0.21875)"/>
      <use xlink:href="#LatinModernMath-Regular-2f" transform="translate(1097.699768 0.21875)"/>
      <use xlink:href="#LatinModernMath-Regular-63" transform="translate(1147.699753 0.21875)"/>
      <use xlink:href="#LatinModernMath-Regular-32" transform="translate(1192.853887 30.384375) scale(0.7)"/>
     </g>
    </g>
   </g>
   <g id="legend_1">
    <g id="patch_11">
     <path d="M 275.9435 26.4 
L 299.9435 26.4 
L 299.9435 18 
L 275.9435 18 
z
" style="fill: #b1dcc2; stroke: #000000; stroke-width: 0.5; stroke-linejoin: miter"/>
    </g>
    <g id="text_7">
     <!-- c2 -->
     <g style="fill: #1a1a1a" transform="translate(309.5435 26.4) scale(0.12 -0.12)">
      <use xlink:href="#LatinModernMath-Regular-63"/>
      <use xlink:href="#LatinModernMath-Regular-32" transform="translate(44.399994 0)"/>
     </g>
    </g>
    <g id="patch_12">
     <path d="M 275.9435 43.12875 
L 299.9435 43.12875 
L 299.9435 34.72875 
L 275.9435 34.72875 
z
" style="fill: #b67b76; stroke: #000000; stroke-width: 0.5; stroke-linejoin: miter"/>
    </g>
    <g id="text_8">
     <!-- c1 -->
     <g style="fill: #1a1a1a" transform="translate(309.5435 43.12875) scale(0.12 -0.12)">
      <defs>
       <path id="LatinModernMath-Regular-31" d="M 2682 0 
L 2682 198 
L 2477 198 
C 1901 198 1882 269 1882 506 
L 1882 4096 
C 1882 4250 1882 4262 1734 4262 
C 1338 3853 774 3853 570 3853 
L 570 3654 
C 698 3654 1075 3654 1408 3821 
L 1408 506 
C 1408 275 1389 198 813 198 
L 608 198 
L 608 0 
C 832 19 1389 19 1645 19 
C 1901 19 2458 19 2682 0 
z
" transform="scale(0.015625)"/>
      </defs>
      <use xlink:href="#LatinModernMath-Regular-63"/>
      <use xlink:href="#LatinModernMath-Regular-31" transform="translate(44.399994 0)"/>
     </g>
    </g>
    <g id="patch_13">
     <path d="M 275.9435 59.8575 
L 299.9435 59.8575 
L 299.9435 51.4575 
L 275.9435 51.4575 
z
" style="fill: #3d4c74; stroke: #000000; stroke-width: 0.5; stroke-linejoin: miter"/>
    </g>
    <g id="text_9">
     <!-- c0 -->
     <g style="fill: #1a1a1a" transform="translate(309.5435 59.8575) scale(0.12 -0.12)">
      <use xlink:href="#LatinModernMath-Regular-63"/>
      <use xlink:href="#LatinModernMath-Regular-30" transform="translate(44.399994 0)"/>
     </g>
    </g>
    <g id="patch_14">
     <path d="M 275.9435 76.58625 
L 299.9435 76.58625 
L 299.9435 68.18625 
L 275.9435 68.18625 
z
" style="fill: url(#hef62bb72f3); opacity: 0.5"/>
    </g>
    <g id="text_10">
     <!-- Model stat. unc. -->
     <g style="fill: #1a1a1a" transform="translate(309.5435 76.58625) scale(0.12 -0.12)">
      <defs>
       <path id="LatinModernMath-Regular-4d" d="M 5626 0 
L 5626 198 
L 5472 198 
C 4979 198 4966 269 4966 499 
L 4966 3872 
C 4966 4102 4979 4173 5472 4173 
L 5626 4173 
L 5626 4371 
L 4544 4371 
C 4378 4371 4378 4365 4333 4250 
L 2931 646 
L 1542 4230 
C 1485 4371 1466 4371 1318 4371 
L 237 4371 
L 237 4173 
L 390 4173 
C 883 4173 896 4102 896 3872 
L 896 672 
C 896 499 896 198 237 198 
L 237 0 
L 986 19 
L 1734 0 
L 1734 198 
C 1075 198 1075 499 1075 672 
L 1075 4122 
L 1082 4122 
L 2624 141 
C 2656 58 2688 0 2752 0 
C 2822 0 2842 51 2867 122 
L 4442 4173 
L 4448 4173 
L 4448 499 
C 4448 269 4435 198 3942 198 
L 3789 198 
L 3789 0 
C 4026 19 4461 19 4710 19 
C 4960 19 5389 19 5626 0 
z
" transform="scale(0.015625)"/>
       <path id="LatinModernMath-Regular-6f" d="M 3014 1370 
C 3014 2189 2374 2867 1600 2867 
C 800 2867 179 2170 179 1370 
C 179 544 845 -70 1594 -70 
C 2368 -70 3014 557 3014 1370 
z
M 2483 1421 
C 2483 1190 2483 845 2342 563 
C 2202 275 1920 90 1600 90 
C 1325 90 1043 224 870 518 
C 710 800 710 1190 710 1421 
C 710 1670 710 2016 864 2298 
C 1037 2592 1338 2726 1594 2726 
C 1875 2726 2150 2586 2317 2310 
C 2483 2035 2483 1664 2483 1421 
z
" transform="scale(0.015625)"/>
       <path id="LatinModernMath-Regular-6c" d="M 1632 0 
L 1632 198 
C 1203 198 1133 198 1133 486 
L 1133 4442 
L 211 4371 
L 211 4173 
C 659 4173 710 4128 710 3814 
L 710 486 
C 710 198 640 198 211 198 
L 211 0 
L 922 19 
L 1632 0 
z
" transform="scale(0.015625)"/>
       <path id="LatinModernMath-Regular-75" d="M 3424 0 
L 3424 198 
C 2976 198 2925 243 2925 557 
L 2925 2829 
L 1984 2758 
L 1984 2560 
C 2432 2560 2483 2515 2483 2202 
L 2483 1062 
C 2483 506 2176 70 1709 70 
C 1171 70 1146 371 1146 704 
L 1146 2829 
L 205 2758 
L 205 2560 
C 704 2560 704 2541 704 1971 
L 704 1011 
C 704 512 704 -70 1677 -70 
C 2035 -70 2317 109 2502 506 
L 2502 -70 
L 3424 0 
z
" transform="scale(0.015625)"/>
      </defs>
      <use xlink:href="#LatinModernMath-Regular-4d"/>
      <use xlink:href="#LatinModernMath-Regular-6f" transform="translate(91.699982 0)"/>
      <use xlink:href="#LatinModernMath-Regular-64" transform="translate(141.699966 0)"/>
      <use xlink:href="#LatinModernMath-Regular-65" transform="translate(197.299957 0)"/>
      <use xlink:href="#LatinModernMath-Regular-6c" transform="translate(241.699951 0)"/>
      <use xlink:href="#LatinModernMath-Regular-20" transform="translate(269.499939 0)"/>
      <use xlink:href="#LatinModernMath-Regular-73" transform="translate(302.699936 0)"/>
      <use xlink:href="#LatinModernMath-Regular-74" transform="translate(342.09993 0)"/>
      <use xlink:href="#LatinModernMath-Regular-61" transform="translate(380.999924 0)"/>
      <use xlink:href="#LatinModernMath-Regular-74" transform="translate(430.999908 0)"/>
      <use xlink:href="#LatinModernMath-Regular-2e" transform="translate(469.899902 0)"/>
      <use xlink:href="#LatinModernMath-Regular-20" transform="translate(497.69989 0)"/>
      <use xlink:href="#LatinModernMath-Regular-75" transform="translate(530.899887 0)"/>
      <use xlink:href="#LatinModernMath-Regular-6e" transform="translate(586.499878 0)"/>
      <use xlink:href="#LatinModernMath-Regular-63" transform="translate(642.099869 0)"/>
      <use xlink:href="#LatinModernMath-Regular-2e" transform="translate(686.499863 0)"/>
     </g>
    </g>
    <g id="LineCollection_2">
     <path d="M 287.9435 95.115 
L 287.9435 83.115 
" style="fill: none; stroke: #000000"/>
    </g>
    <g id="line2d_44"/>
    <g id="line2d_45">
     <g>
      <use xlink:href="#mb27cb91d61" x="287.9435" y="89.115" style="stroke: #000000"/>
     </g>
    </g>
    <g id="text_11">
     <!-- Data -->
     <g style="fill: #1a1a1a" transform="translate(309.5435 93.315) scale(0.12 -0.12)">
      <defs>
       <path id="LatinModernMath-Regular-44" d="M 4525 2150 
C 4525 3366 3661 4371 2566 4371 
L 224 4371 
L 224 4173 
L 378 4173 
C 870 4173 883 4102 883 3872 
L 883 499 
C 883 269 870 198 378 198 
L 224 198 
L 224 0 
L 2566 0 
C 3642 0 4525 947 4525 2150 
z
M 3885 2150 
C 3885 1440 3763 1056 3533 742 
C 3405 570 3040 198 2394 198 
L 1747 198 
C 1446 198 1434 243 1434 454 
L 1434 3917 
C 1434 4128 1446 4173 1747 4173 
L 2387 4173 
C 2784 4173 3226 4032 3552 3578 
C 3827 3200 3885 2650 3885 2150 
z
" transform="scale(0.015625)"/>
      </defs>
      <use xlink:href="#LatinModernMath-Regular-44"/>
      <use xlink:href="#LatinModernMath-Regular-61" transform="translate(76.399994 0)"/>
      <use xlink:href="#LatinModernMath-Regular-74" transform="translate(126.399979 0)"/>
      <use xlink:href="#LatinModernMath-Regular-61" transform="translate(165.299973 0)"/>
     </g>
    </g>
   </g>
  </g>
  <g id="axes_2">
   <g id="patch_15">
    <path d="M 71.261 284.4 
L 406.061 284.4 
L 406.061 232.827907 
L 71.261 232.827907 
z
" style="fill: #ffffff"/>
   </g>
   <g id="patch_16">
    <path d="M 71.261 258.613953 
L 71.261 254.756422 
L 77.957 254.756422 
L 77.957 254.96472 
L 84.653 254.96472 
L 84.653 257.694256 
L 91.349 257.694256 
L 91.349 253.775164 
L 98.045 253.775164 
L 98.045 253.388371 
L 104.741 253.388371 
L 104.741 243.138773 
L 111.437 243.138773 
L 111.437 242.92732 
L 118.133 242.92732 
L 118.133 246.215486 
L 124.829 246.215486 
L 124.829 244.821678 
L 131.525 244.821678 
L 131.525 230.742987 
L 138.221 230.742987 
L 138.221 249.179462 
L 144.917 249.179462 
L 144.917 239.210442 
L 151.613 239.210442 
L 151.613 229.502473 
L 158.309 229.502473 
L 158.309 234.30029 
L 165.005 234.30029 
L 165.005 227.173809 
L 171.701 227.173809 
L 171.701 234.068179 
L 178.397 234.068179 
L 178.397 236.050427 
L 185.093 236.050427 
L 185.093 230.418358 
L 191.789 230.418358 
L 191.789 230.507459 
L 198.485 230.507459 
L 198.485 231.712142 
L 205.181 231.712142 
L 205.181 250.818042 
L 211.877 250.818042 
L 211.877 262.1116 
L 218.573 262.1116 
L 218.573 263.503129 
L 225.269 263.503129 
L 225.269 276.915655 
L 231.965 276.915655 
L 231.965 306.305315 
L 238.661 306.305315 
L 238.661 312.166028 
L 245.357 312.166028 
L 245.357 308.109306 
L 252.053 308.109306 
L 252.053 308.332385 
L 258.749 308.332385 
L 258.749 314.113327 
L 265.445 314.113327 
L 265.445 305.077369 
L 272.141 305.077369 
L 272.141 311.52128 
L 278.837 311.52128 
L 278.837 287.862956 
L 285.533 287.862956 
L 285.533 281.540592 
L 292.229 281.540592 
L 292.229 269.21173 
L 298.925 269.21173 
L 298.925 268.32729 
L 305.621 268.32729 
L 305.621 263.66807 
L 312.317 263.66807 
L 312.317 257.275214 
L 319.013 257.275214 
L 319.013 260.126556 
L 325.709 260.126556 
L 325.709 260.362795 
L 332.405 260.362795 
L 332.405 261.401205 
L 339.101 261.401205 
L 339.101 263.730924 
L 345.797 263.730924 
L 345.797 260.421321 
L 352.493 260.421321 
L 352.493 252.169503 
L 359.189 252.169503 
L 359.189 259.531839 
L 365.885 259.531839 
L 365.885 258.613953 
L 365.885 258.613953 
L 365.885 258.613953 
L 359.189 258.613953 
L 359.189 258.613953 
L 352.493 258.613953 
L 352.493 258.613953 
L 345.797 258.613953 
L 345.797 258.613953 
L 339.101 258.613953 
L 339.101 258.613953 
L 332.405 258.613953 
L 332.405 258.613953 
L 325.709 258.613953 
L 325.709 258.613953 
L 319.013 258.613953 
L 319.013 258.613953 
L 312.317 258.613953 
L 312.317 258.613953 
L 305.621 258.613953 
L 305.621 258.613953 
L 298.925 258.613953 
L 298.925 258.613953 
L 292.229 258.613953 
L 292.229 258.613953 
L 285.533 258.613953 
L 285.533 258.613953 
L 278.837 258.613953 
L 278.837 258.613953 
L 272.141 258.613953 
L 272.141 258.613953 
L 265.445 258.613953 
L 265.445 258.613953 
L 258.749 258.613953 
L 258.749 258.613953 
L 252.053 258.613953 
L 252.053 258.613953 
L 245.357 258.613953 
L 245.357 258.613953 
L 238.661 258.613953 
L 238.661 258.613953 
L 231.965 258.613953 
L 231.965 258.613953 
L 225.269 258.613953 
L 225.269 258.613953 
L 218.573 258.613953 
L 218.573 258.613953 
L 211.877 258.613953 
L 211.877 258.613953 
L 205.181 258.613953 
L 205.181 258.613953 
L 198.485 258.613953 
L 198.485 258.613953 
L 191.789 258.613953 
L 191.789 258.613953 
L 185.093 258.613953 
L 185.093 258.613953 
L 178.397 258.613953 
L 178.397 258.613953 
L 171.701 258.613953 
L 171.701 258.613953 
L 165.005 258.613953 
L 165.005 258.613953 
L 158.309 258.613953 
L 158.309 258.613953 
L 151.613 258.613953 
L 151.613 258.613953 
L 144.917 258.613953 
L 144.917 258.613953 
L 138.221 258.613953 
L 138.221 258.613953 
L 131.525 258.613953 
L 131.525 258.613953 
L 124.829 258.613953 
L 124.829 258.613953 
L 118.133 258.613953 
L 118.133 258.613953 
L 111.437 258.613953 
L 111.437 258.613953 
L 104.741 258.613953 
L 104.741 258.613953 
L 98.045 258.613953 
L 98.045 258.613953 
L 91.349 258.613953 
L 91.349 258.613953 
L 84.653 258.613953 
L 84.653 258.613953 
L 77.957 258.613953 
L 77.957 258.613953 
L 71.261 258.613953 
L 71.261 258.613953 
M 372.581 258.613953 
L 372.581 259.531839 
L 379.277 259.531839 
L 379.277 259.531839 
L 385.973 259.531839 
L 385.973 258.613953 
L 385.973 258.613953 
L 385.973 258.613953 
L 379.277 258.613953 
L 379.277 258.613953 
L 372.581 258.613953 
L 372.581 258.613953 
" clip-path="url(#p02669db1c3)" style="fill: #a9a9a9"/>
   </g>
   <g id="line2d_46">
    <path d="M 71.261 258.613953 
L 406.061 258.613953 
" clip-path="url(#p02669db1c3)" style="fill: none; stroke-dasharray: 3.7,1.6; stroke-dashoffset: 0; stroke: #000000"/>
   </g>
   <g id="patch_17">
    <path d="M 71.261 284.4 
L 71.261 232.827907 
" style="fill: none; stroke: #000000; stroke-linejoin: miter; stroke-linecap: square"/>
   </g>
   <g id="patch_18">
    <path d="M 406.061 284.4 
L 406.061 232.827907 
" style="fill: none; stroke: #000000; stroke-linejoin: miter; stroke-linecap: square"/>
   </g>
   <g id="patch_19">
    <path d="M 71.261 284.4 
L 406.061 284.4 
" style="fill: none; stroke: #000000; stroke-linejoin: miter; stroke-linecap: square"/>
   </g>
   <g id="patch_20">
    <path d="M 71.261 232.827907 
L 406.061 232.827907 
" style="fill: none; stroke: #000000; stroke-linejoin: miter; stroke-linecap: square"/>
   </g>
   <g id="matplotlib.axis_3">
    <g id="xtick_23">
     <g id="line2d_47">
      <g>
       <use xlink:href="#m8dec1b3d1d" x="135.032429" y="284.4" style="fill: #1a1a1a; stroke: #1a1a1a; stroke-width: 0.8"/>
      </g>
     </g>
     <g id="text_12">
      <!-- $\mathdefault{−5}$ -->
      <g style="fill: #1a1a1a" transform="translate(125.432429 302.810938) scale(0.15 -0.15)">
       <defs>
        <path id="LatinModernMath-Regular-2212" d="M 4621 1600 
C 4621 1670 4563 1728 4493 1728 
L 486 1728 
C 416 1728 358 1670 358 1600 
C 358 1530 416 1472 486 1472 
L 4493 1472 
C 4563 1472 4621 1530 4621 1600 
z
" transform="scale(0.015625)"/>
        <path id="LatinModernMath-Regular-35" d="M 2874 1286 
C 2874 2048 2349 2688 1658 2688 
C 1350 2688 1075 2586 845 2362 
L 845 3610 
C 973 3571 1184 3526 1389 3526 
C 2176 3526 2624 4109 2624 4192 
C 2624 4230 2605 4262 2560 4262 
C 2560 4262 2541 4262 2509 4243 
C 2381 4186 2067 4058 1638 4058 
C 1382 4058 1088 4102 787 4237 
C 736 4256 710 4256 710 4256 
C 646 4256 646 4205 646 4102 
L 646 2208 
C 646 2093 646 2042 736 2042 
C 781 2042 794 2061 819 2099 
C 890 2202 1126 2547 1645 2547 
C 1978 2547 2138 2253 2189 2138 
C 2291 1901 2304 1651 2304 1331 
C 2304 1107 2304 723 2150 454 
C 1997 205 1760 38 1466 38 
C 998 38 634 378 525 755 
C 544 749 563 742 634 742 
C 845 742 954 902 954 1056 
C 954 1210 845 1370 634 1370 
C 544 1370 320 1325 320 1030 
C 320 480 762 -141 1478 -141 
C 2221 -141 2874 474 2874 1286 
z
" transform="scale(0.015625)"/>
       </defs>
       <use xlink:href="#LatinModernMath-Regular-2212" transform="translate(0 0.40625)"/>
       <use xlink:href="#LatinModernMath-Regular-35" transform="translate(77.799988 0.40625)"/>
      </g>
     </g>
    </g>
    <g id="xtick_24">
     <g id="line2d_48">
      <g>
       <use xlink:href="#m8dec1b3d1d" x="214.746714" y="284.4" style="fill: #1a1a1a; stroke: #1a1a1a; stroke-width: 0.8"/>
      </g>
     </g>
     <g id="text_13">
      <!-- $\mathdefault{0}$ -->
      <g style="fill: #1a1a1a" transform="translate(210.996714 302.810938) scale(0.15 -0.15)">
       <use xlink:href="#LatinModernMath-Regular-30" transform="translate(0 0.40625)"/>
      </g>
     </g>
    </g>
    <g id="xtick_25">
     <g id="line2d_49">
      <g>
       <use xlink:href="#m8dec1b3d1d" x="294.461" y="284.4" style="fill: #1a1a1a; stroke: #1a1a1a; stroke-width: 0.8"/>
      </g>
     </g>
     <g id="text_14">
      <!-- $\mathdefault{5}$ -->
      <g style="fill: #1a1a1a" transform="translate(290.711 302.810938) scale(0.15 -0.15)">
       <use xlink:href="#LatinModernMath-Regular-35" transform="translate(0 0.40625)"/>
      </g>
     </g>
    </g>
    <g id="xtick_26">
     <g id="line2d_50">
      <g>
       <use xlink:href="#m8dec1b3d1d" x="374.175286" y="284.4" style="fill: #1a1a1a; stroke: #1a1a1a; stroke-width: 0.8"/>
      </g>
     </g>
     <g id="text_15">
      <!-- $\mathdefault{10}$ -->
      <g style="fill: #1a1a1a" transform="translate(366.675286 302.810938) scale(0.15 -0.15)">
       <use xlink:href="#LatinModernMath-Regular-31" transform="translate(0 0.40625)"/>
       <use xlink:href="#LatinModernMath-Regular-30" transform="translate(49.999985 0.40625)"/>
      </g>
     </g>
    </g>
    <g id="xtick_27">
     <g id="line2d_51">
      <g>
       <use xlink:href="#m131efc0c90" x="71.261" y="284.4" style="fill: #1a1a1a; stroke: #1a1a1a; stroke-width: 0.6"/>
      </g>
     </g>
    </g>
    <g id="xtick_28">
     <g id="line2d_52">
      <g>
       <use xlink:href="#m131efc0c90" x="87.203857" y="284.4" style="fill: #1a1a1a; stroke: #1a1a1a; stroke-width: 0.6"/>
      </g>
     </g>
    </g>
    <g id="xtick_29">
     <g id="line2d_53">
      <g>
       <use xlink:href="#m131efc0c90" x="103.146714" y="284.4" style="fill: #1a1a1a; stroke: #1a1a1a; stroke-width: 0.6"/>
      </g>
     </g>
    </g>
    <g id="xtick_30">
     <g id="line2d_54">
      <g>
       <use xlink:href="#m131efc0c90" x="119.089571" y="284.4" style="fill: #1a1a1a; stroke: #1a1a1a; stroke-width: 0.6"/>
      </g>
     </g>
    </g>
    <g id="xtick_31">
     <g id="line2d_55">
      <g>
       <use xlink:href="#m131efc0c90" x="150.975286" y="284.4" style="fill: #1a1a1a; stroke: #1a1a1a; stroke-width: 0.6"/>
      </g>
     </g>
    </g>
    <g id="xtick_32">
     <g id="line2d_56">
      <g>
       <use xlink:href="#m131efc0c90" x="166.918143" y="284.4" style="fill: #1a1a1a; stroke: #1a1a1a; stroke-width: 0.6"/>
      </g>
     </g>
    </g>
    <g id="xtick_33">
     <g id="line2d_57">
      <g>
       <use xlink:href="#m131efc0c90" x="182.861" y="284.4" style="fill: #1a1a1a; stroke: #1a1a1a; stroke-width: 0.6"/>
      </g>
     </g>
    </g>
    <g id="xtick_34">
     <g id="line2d_58">
      <g>
       <use xlink:href="#m131efc0c90" x="198.803857" y="284.4" style="fill: #1a1a1a; stroke: #1a1a1a; stroke-width: 0.6"/>
      </g>
     </g>
    </g>
    <g id="xtick_35">
     <g id="line2d_59">
      <g>
       <use xlink:href="#m131efc0c90" x="230.689571" y="284.4" style="fill: #1a1a1a; stroke: #1a1a1a; stroke-width: 0.6"/>
      </g>
     </g>
    </g>
    <g id="xtick_36">
     <g id="line2d_60">
      <g>
       <use xlink:href="#m131efc0c90" x="246.632429" y="284.4" style="fill: #1a1a1a; stroke: #1a1a1a; stroke-width: 0.6"/>
      </g>
     </g>
    </g>
    <g id="xtick_37">
     <g id="line2d_61">
      <g>
       <use xlink:href="#m131efc0c90" x="262.575286" y="284.4" style="fill: #1a1a1a; stroke: #1a1a1a; stroke-width: 0.6"/>
      </g>
     </g>
    </g>
    <g id="xtick_38">
     <g id="line2d_62">
      <g>
       <use xlink:href="#m131efc0c90" x="278.518143" y="284.4" style="fill: #1a1a1a; stroke: #1a1a1a; stroke-width: 0.6"/>
      </g>
     </g>
    </g>
    <g id="xtick_39">
     <g id="line2d_63">
      <g>
       <use xlink:href="#m131efc0c90" x="310.403857" y="284.4" style="fill: #1a1a1a; stroke: #1a1a1a; stroke-width: 0.6"/>
      </g>
     </g>
    </g>
    <g id="xtick_40">
     <g id="line2d_64">
      <g>
       <use xlink:href="#m131efc0c90" x="326.346714" y="284.4" style="fill: #1a1a1a; stroke: #1a1a1a; stroke-width: 0.6"/>
      </g>
     </g>
    </g>
    <g id="xtick_41">
     <g id="line2d_65">
      <g>
       <use xlink:href="#m131efc0c90" x="342.289571" y="284.4" style="fill: #1a1a1a; stroke: #1a1a1a; stroke-width: 0.6"/>
      </g>
     </g>
    </g>
    <g id="xtick_42">
     <g id="line2d_66">
      <g>
       <use xlink:href="#m131efc0c90" x="358.232429" y="284.4" style="fill: #1a1a1a; stroke: #1a1a1a; stroke-width: 0.6"/>
      </g>
     </g>
    </g>
    <g id="xtick_43">
     <g id="line2d_67">
      <g>
       <use xlink:href="#m131efc0c90" x="390.118143" y="284.4" style="fill: #1a1a1a; stroke: #1a1a1a; stroke-width: 0.6"/>
      </g>
     </g>
    </g>
    <g id="xtick_44">
     <g id="line2d_68">
      <g>
       <use xlink:href="#m131efc0c90" x="406.061" y="284.4" style="fill: #1a1a1a; stroke: #1a1a1a; stroke-width: 0.6"/>
      </g>
     </g>
    </g>
    <g id="text_16">
     <!-- $variable_1\,\,[TeV/c^2]$ -->
     <g style="fill: #1a1a1a" transform="translate(167.111 325.581875) scale(0.18 -0.18)">
      <defs>
       <path id="LatinModernMath-Regular-76" d="M 3251 2560 
L 3251 2758 
C 3104 2746 2918 2739 2771 2739 
L 2214 2758 
L 2214 2560 
C 2451 2554 2522 2406 2522 2285 
C 2522 2227 2509 2202 2483 2131 
L 1830 499 
L 1114 2285 
C 1075 2368 1075 2394 1075 2394 
C 1075 2560 1325 2560 1440 2560 
L 1440 2758 
L 742 2739 
C 570 2739 314 2746 122 2758 
L 122 2560 
C 525 2560 550 2522 634 2323 
L 1555 51 
C 1594 -38 1606 -70 1690 -70 
C 1773 -70 1798 -13 1824 51 
L 2662 2131 
C 2720 2278 2829 2554 3251 2560 
z
" transform="scale(0.015625)"/>
       <path id="LatinModernMath-Regular-62" d="M 3334 1382 
C 3334 2195 2707 2829 1978 2829 
C 1478 2829 1203 2528 1101 2413 
L 1101 4442 
L 179 4371 
L 179 4173 
C 627 4173 678 4128 678 3814 
L 678 0 
L 838 0 
L 1069 397 
C 1165 250 1434 -70 1907 -70 
C 2669 -70 3334 557 3334 1382 
z
M 2803 1389 
C 2803 1152 2790 768 2605 480 
C 2470 282 2227 70 1882 70 
C 1594 70 1363 224 1210 461 
C 1120 595 1120 614 1120 730 
L 1120 2048 
C 1120 2170 1120 2176 1190 2278 
C 1440 2637 1792 2688 1946 2688 
C 2234 2688 2464 2522 2618 2278 
C 2784 2016 2803 1651 2803 1389 
z
" transform="scale(0.015625)"/>
       <path id="LatinModernMath-Regular-5b" d="M 1638 -1472 
C 1638 -1402 1581 -1344 1510 -1344 
L 986 -1344 
L 986 4544 
L 1510 4544 
C 1581 4544 1638 4602 1638 4672 
C 1638 4742 1581 4800 1510 4800 
L 730 4800 
L 730 -1600 
L 1510 -1600 
C 1581 -1600 1638 -1542 1638 -1472 
z
" transform="scale(0.015625)"/>
       <path id="LatinModernMath-Regular-5d" d="M 1050 -1600 
L 1050 4800 
L 269 4800 
C 198 4800 141 4742 141 4672 
C 141 4602 198 4544 269 4544 
L 794 4544 
L 794 -1344 
L 269 -1344 
C 198 -1344 141 -1402 141 -1472 
C 141 -1542 198 -1600 269 -1600 
L 1050 -1600 
z
" transform="scale(0.015625)"/>
      </defs>
      <use xlink:href="#LatinModernMath-Regular-76" transform="translate(0 0.21875)"/>
      <use xlink:href="#LatinModernMath-Regular-61" transform="translate(52.799988 0.21875)"/>
      <use xlink:href="#LatinModernMath-Regular-72" transform="translate(102.799973 0.21875)"/>
      <use xlink:href="#LatinModernMath-Regular-69" transform="translate(141.999969 0.21875)"/>
      <use xlink:href="#LatinModernMath-Regular-61" transform="translate(169.799957 0.21875)"/>
      <use xlink:href="#LatinModernMath-Regular-62" transform="translate(219.799942 0.21875)"/>
      <use xlink:href="#LatinModernMath-Regular-6c" transform="translate(275.399933 0.21875)"/>
      <use xlink:href="#LatinModernMath-Regular-65" transform="translate(303.199921 0.21875)"/>
      <use xlink:href="#LatinModernMath-Regular-31" transform="translate(348.354055 -12.709375) scale(0.7)"/>
      <use xlink:href="#LatinModernMath-Regular-5b" transform="translate(414.77364 0.21875)"/>
      <use xlink:href="#LatinModernMath-Regular-54" transform="translate(442.573628 0.21875)"/>
      <use xlink:href="#LatinModernMath-Regular-65" transform="translate(514.77361 0.21875)"/>
      <use xlink:href="#LatinModernMath-Regular-56" transform="translate(559.173604 0.21875)"/>
      <use xlink:href="#LatinModernMath-Regular-2f" transform="translate(634.173588 0.21875)"/>
      <use xlink:href="#LatinModernMath-Regular-63" transform="translate(684.173573 0.21875)"/>
      <use xlink:href="#LatinModernMath-Regular-32" transform="translate(729.327708 30.384375) scale(0.7)"/>
      <use xlink:href="#LatinModernMath-Regular-5d" transform="translate(766.482384 0.21875)"/>
     </g>
    </g>
   </g>
   <g id="matplotlib.axis_4">
    <g id="ytick_21">
     <g id="line2d_69">
      <g>
       <use xlink:href="#mc947610920" x="71.261" y="284.4" style="fill: #1a1a1a; stroke: #1a1a1a; stroke-width: 0.8"/>
      </g>
     </g>
     <g id="text_17">
      <!-- $\mathdefault{−5}$ -->
      <g style="fill: #1a1a1a" transform="translate(47.061 289.605469) scale(0.15 -0.15)">
       <use xlink:href="#LatinModernMath-Regular-2212" transform="translate(0 0.40625)"/>
       <use xlink:href="#LatinModernMath-Regular-35" transform="translate(77.799988 0.40625)"/>
      </g>
     </g>
    </g>
    <g id="ytick_22">
     <g id="line2d_70">
      <g>
       <use xlink:href="#mc947610920" x="71.261" y="258.613953" style="fill: #1a1a1a; stroke: #1a1a1a; stroke-width: 0.8"/>
      </g>
     </g>
     <g id="text_18">
      <!-- $\mathdefault{0}$ -->
      <g style="fill: #1a1a1a" transform="translate(58.761 263.819422) scale(0.15 -0.15)">
       <use xlink:href="#LatinModernMath-Regular-30" transform="translate(0 0.40625)"/>
      </g>
     </g>
    </g>
    <g id="ytick_23">
     <g id="line2d_71">
      <g>
       <use xlink:href="#mc947610920" x="71.261" y="232.827907" style="fill: #1a1a1a; stroke: #1a1a1a; stroke-width: 0.8"/>
      </g>
     </g>
     <g id="text_19">
      <!-- $\mathdefault{5}$ -->
      <g style="fill: #1a1a1a" transform="translate(58.761 238.033376) scale(0.15 -0.15)">
       <use xlink:href="#LatinModernMath-Regular-35" transform="translate(0 0.40625)"/>
      </g>
     </g>
    </g>
    <g id="ytick_24">
     <g id="line2d_72">
      <g>
       <use xlink:href="#m5f9d1e6504" x="71.261" y="279.242791" style="fill: #1a1a1a; stroke: #1a1a1a; stroke-width: 0.6"/>
      </g>
     </g>
    </g>
    <g id="ytick_25">
     <g id="line2d_73">
      <g>
       <use xlink:href="#m5f9d1e6504" x="71.261" y="274.085581" style="fill: #1a1a1a; stroke: #1a1a1a; stroke-width: 0.6"/>
      </g>
     </g>
    </g>
    <g id="ytick_26">
     <g id="line2d_74">
      <g>
       <use xlink:href="#m5f9d1e6504" x="71.261" y="268.928372" style="fill: #1a1a1a; stroke: #1a1a1a; stroke-width: 0.6"/>
      </g>
     </g>
    </g>
    <g id="ytick_27">
     <g id="line2d_75">
      <g>
       <use xlink:href="#m5f9d1e6504" x="71.261" y="263.771163" style="fill: #1a1a1a; stroke: #1a1a1a; stroke-width: 0.6"/>
      </g>
     </g>
    </g>
    <g id="ytick_28">
     <g id="line2d_76">
      <g>
       <use xlink:href="#m5f9d1e6504" x="71.261" y="253.456744" style="fill: #1a1a1a; stroke: #1a1a1a; stroke-width: 0.6"/>
      </g>
     </g>
    </g>
    <g id="ytick_29">
     <g id="line2d_77">
      <g>
       <use xlink:href="#m5f9d1e6504" x="71.261" y="248.299535" style="fill: #1a1a1a; stroke: #1a1a1a; stroke-width: 0.6"/>
      </g>
     </g>
    </g>
    <g id="ytick_30">
     <g id="line2d_78">
      <g>
       <use xlink:href="#m5f9d1e6504" x="71.261" y="243.142326" style="fill: #1a1a1a; stroke: #1a1a1a; stroke-width: 0.6"/>
      </g>
     </g>
    </g>
    <g id="ytick_31">
     <g id="line2d_79">
      <g>
       <use xlink:href="#m5f9d1e6504" x="71.261" y="237.985116" style="fill: #1a1a1a; stroke: #1a1a1a; stroke-width: 0.6"/>
      </g>
     </g>
    </g>
    <g id="text_20">
     <!-- $\frac{ Data - Pred. }{ \sqrt{\sigma^2_{Data} + \sigma^2_{Pred.}} } $ -->
     <g style="fill: #1a1a1a" transform="translate(21.729 298.777453) rotate(-90) scale(0.167 -0.167)">
      <defs>
       <path id="LatinModernMath-Regular-50" d="M 3994 3181 
C 3994 3808 3360 4371 2483 4371 
L 224 4371 
L 224 4173 
L 378 4173 
C 870 4173 883 4102 883 3872 
L 883 499 
C 883 269 870 198 378 198 
L 224 198 
L 224 0 
C 448 19 922 19 1165 19 
C 1408 19 1888 19 2112 0 
L 2112 198 
L 1958 198 
C 1466 198 1453 269 1453 499 
L 1453 2022 
L 2534 2022 
C 3302 2022 3994 2541 3994 3181 
z
M 3334 3181 
C 3334 2880 3334 2189 2317 2189 
L 1434 2189 
L 1434 3917 
C 1434 4128 1446 4173 1747 4173 
L 2317 4173 
C 3334 4173 3334 3494 3334 3181 
z
" transform="scale(0.015625)"/>
       <path id="Cmex10-71" d="M 2713 -11263 
L 1259 -6188 
L 819 -6700 
L 703 -6578 
L 1619 -5503 
L 2981 -10266 
L 6284 178 
Q 6306 256 6400 256 
Q 6453 256 6490 218 
Q 6528 181 6528 128 
L 6528 103 
L 2963 -11188 
Q 2925 -11263 2853 -11263 
L 2713 -11263 
z
" transform="scale(0.015625)"/>
       <path id="LatinModernMath-Regular-3c3" d="M 3379 2605 
C 3341 2758 3206 2758 3091 2758 
L 1632 2758 
C 666 2758 224 1702 410 941 
C 550 378 1043 -70 1626 -70 
C 2381 -70 3040 704 2790 1690 
C 2765 1798 2688 2106 2419 2387 
L 3123 2387 
C 3206 2387 3437 2387 3379 2605 
z
M 2362 1766 
C 2438 1466 2438 941 2304 614 
C 2150 237 1843 70 1594 70 
C 1280 70 966 301 851 762 
C 806 954 749 1478 883 1856 
C 1037 2298 1402 2387 1619 2387 
C 2157 2387 2310 1965 2362 1766 
z
" transform="scale(0.015625)"/>
       <path id="LatinModernMath-Regular-2b" d="M 4621 1600 
C 4621 1670 4563 1728 4493 1728 
L 2618 1728 
L 2618 3603 
C 2618 3674 2560 3731 2490 3731 
C 2419 3731 2362 3674 2362 3603 
L 2362 1728 
L 486 1728 
C 416 1728 358 1670 358 1600 
C 358 1530 416 1472 486 1472 
L 2362 1472 
L 2362 -403 
C 2362 -474 2419 -531 2490 -531 
C 2560 -531 2618 -474 2618 -403 
L 2618 1472 
L 4493 1472 
C 4563 1472 4621 1530 4621 1600 
z
" transform="scale(0.015625)"/>
      </defs>
      <use xlink:href="#LatinModernMath-Regular-44" transform="translate(31 38.415625) scale(0.7)"/>
      <use xlink:href="#LatinModernMath-Regular-61" transform="translate(84.479996 38.415625) scale(0.7)"/>
      <use xlink:href="#LatinModernMath-Regular-74" transform="translate(119.479985 38.415625) scale(0.7)"/>
      <use xlink:href="#LatinModernMath-Regular-61" transform="translate(146.709981 38.415625) scale(0.7)"/>
      <use xlink:href="#LatinModernMath-Regular-2212" transform="translate(194.000986 38.415625) scale(0.7)"/>
      <use xlink:href="#LatinModernMath-Regular-50" transform="translate(260.751993 38.415625) scale(0.7)"/>
      <use xlink:href="#LatinModernMath-Regular-72" transform="translate(308.421986 38.415625) scale(0.7)"/>
      <use xlink:href="#LatinModernMath-Regular-65" transform="translate(335.861984 38.415625) scale(0.7)"/>
      <use xlink:href="#LatinModernMath-Regular-64" transform="translate(366.94198 38.415625) scale(0.7)"/>
      <use xlink:href="#LatinModernMath-Regular-2e" transform="translate(405.861974 38.415625) scale(0.7)"/>
      <use xlink:href="#Cmex10-71" transform="translate(0 0.0125) scale(0.543386)"/>
      <use xlink:href="#LatinModernMath-Regular-3c3" transform="translate(63.0875 -80.282187) scale(0.7)"/>
      <use xlink:href="#LatinModernMath-Regular-32" transform="translate(105.545394 -53.149531) scale(0.49)"/>
      <use xlink:href="#LatinModernMath-Regular-44" transform="translate(105.545394 -95.365) scale(0.49)"/>
      <use xlink:href="#LatinModernMath-Regular-61" transform="translate(142.981391 -95.365) scale(0.49)"/>
      <use xlink:href="#LatinModernMath-Regular-74" transform="translate(167.481384 -95.365) scale(0.49)"/>
      <use xlink:href="#LatinModernMath-Regular-61" transform="translate(186.542381 -95.365) scale(0.49)"/>
      <use xlink:href="#LatinModernMath-Regular-2b" transform="translate(224.84167 -80.282187) scale(0.7)"/>
      <use xlink:href="#LatinModernMath-Regular-3c3" transform="translate(291.592677 -80.282187) scale(0.7)"/>
      <use xlink:href="#LatinModernMath-Regular-32" transform="translate(334.050571 -52.605937) scale(0.49)"/>
      <use xlink:href="#LatinModernMath-Regular-50" transform="translate(334.050571 -95.365) scale(0.49)"/>
      <use xlink:href="#LatinModernMath-Regular-72" transform="translate(367.419567 -95.365) scale(0.49)"/>
      <use xlink:href="#LatinModernMath-Regular-65" transform="translate(386.627565 -95.365) scale(0.49)"/>
      <use xlink:href="#LatinModernMath-Regular-64" transform="translate(408.383562 -95.365) scale(0.49)"/>
      <use xlink:href="#LatinModernMath-Regular-2e" transform="translate(435.627558 -95.365) scale(0.49)"/>
      <path d="M 0 12.65 
L 0 18.9 
L 468.111544 18.9 
L 468.111544 12.65 
L 0 12.65 
z
"/>
      <path d="M 54.3375 -2.35 
L 54.3375 2.025 
L 468.111544 2.025 
L 468.111544 -2.35 
L 54.3375 -2.35 
z
"/>
     </g>
    </g>
   </g>
  </g>
 </g>
 <defs>
  <clipPath id="p83c8b15f2d">
   <rect x="71.261" y="7.2" width="334.8" height="206.288372"/>
  </clipPath>
  <clipPath id="p02669db1c3">
   <rect x="71.261" y="232.827907" width="334.8" height="51.572093"/>
  </clipPath>
 </defs>
 <defs>
  <pattern id="hef62bb72f3" patternUnits="userSpaceOnUse" x="0" y="0" width="72" height="72">
   <rect x="0" y="0" width="73" height="73" fill="#f5f5f5"/>
   <path d="M -36 36 
L 36 -36 
M -33.6 38.4 
L 38.4 -33.6 
M -31.2 40.8 
L 40.8 -31.2 
M -28.8 43.2 
L 43.2 -28.8 
M -26.4 45.6 
L 45.6 -26.4 
M -24 48 
L 48 -24 
M -21.6 50.4 
L 50.4 -21.6 
M -19.2 52.8 
L 52.8 -19.2 
M -16.8 55.2 
L 55.2 -16.8 
M -14.4 57.6 
L 57.6 -14.4 
M -12 60 
L 60 -12 
M -9.6 62.4 
L 62.4 -9.6 
M -7.2 64.8 
L 64.8 -7.2 
M -4.8 67.2 
L 67.2 -4.8 
M -2.4 69.6 
L 69.6 -2.4 
M 0 72 
L 72 0 
M 2.4 74.4 
L 74.4 2.4 
M 4.8 76.8 
L 76.8 4.8 
M 7.2 79.2 
L 79.2 7.2 
M 9.6 81.6 
L 81.6 9.6 
M 12 84 
L 84 12 
M 14.4 86.4 
L 86.4 14.4 
M 16.8 88.8 
L 88.8 16.8 
M 19.2 91.2 
L 91.2 19.2 
M 21.6 93.6 
L 93.6 21.6 
M 24 96 
L 96 24 
M 26.4 98.4 
L 98.4 26.4 
M 28.8 100.8 
L 100.8 28.8 
M 31.2 103.2 
L 103.2 31.2 
M 33.6 105.6 
L 105.6 33.6 
M 36 108 
L 108 36 
" style="fill: #a9a9a9; stroke: #a9a9a9; stroke-width: 1.0; stroke-linecap: butt; stroke-linejoin: miter; stroke-opacity: 0.5"/>
  </pattern>
 </defs>
</svg>
