<?xml version="1.0" encoding="utf-8" standalone="no"?>
<!DOCTYPE svg PUBLIC "-//W3C//DTD SVG 1.1//EN"
  "http://www.w3.org/Graphics/SVG/1.1/DTD/svg11.dtd">
<svg xmlns:xlink="http://www.w3.org/1999/xlink" width="468pt" height="69.84pt" viewBox="0 0 468 69.84" xmlns="http://www.w3.org/2000/svg" version="1.1">
 <metadata>
  <rdf:RDF xmlns:dc="http://purl.org/dc/elements/1.1/" xmlns:cc="http://creativecommons.org/ns#" xmlns:rdf="http://www.w3.org/1999/02/22-rdf-syntax-ns#">
   <cc:Work>
    <dc:creator>
     <cc:Agent>
      <dc:title>カリビアンカフェ</dc:title>
     </cc:Agent>
    </dc:creator>
   </cc:Work>
  </rdf:RDF>
 </metadata>
 <defs>
  <style type="text/css">*{stroke-linejoin: round; stroke-linecap: butt}</style>
 </defs>
 <g id="figure_1">
  <g id="patch_1">
   <path d="M 0 69.84 
L 468 69.84 
L 468 0 
L 0 0 
z
" style="fill: #ffffff"/>
  </g>
  <g id="axes_1">
   <g id="patch_2">
    <path d="M 35.2 62.64 
L 91.2 62.64 
L 91.2 7.2 
L 35.2 7.2 
z
" clip-path="url(#p5f6f316120)" style="fill: #440154; stroke: #440154; stroke-linejoin: miter"/>
   </g>
   <g id="patch_3">
    <path d="M 96.8 62.64 
L 152.8 62.64 
L 152.8 7.2 
L 96.8 7.2 
z
" clip-path="url(#p5f6f316120)" style="fill: #443983; stroke: #443983; stroke-linejoin: miter"/>
   </g>
   <g id="patch_4">
    <path d="M 158.4 62.64 
L 214.4 62.64 
L 214.4 7.2 
L 158.4 7.2 
z
" clip-path="url(#p5f6f316120)" style="fill: #31688e; stroke: #31688e; stroke-linejoin: miter"/>
   </g>
   <g id="patch_5">
    <path d="M 220 62.64 
L 276 62.64 
L 276 7.2 
L 220 7.2 
z
" clip-path="url(#p5f6f316120)" style="fill: #21918c; stroke: #21918c; stroke-linejoin: miter"/>
   </g>
   <g id="patch_6">
    <path d="M 281.6 62.64 
L 337.6 62.64 
L 337.6 7.2 
L 281.6 7.2 
z
" clip-path="url(#p5f6f316120)" style="fill: #35b779; stroke: #35b779; stroke-linejoin: miter"/>
   </g>
   <g id="patch_7">
    <path d="M 343.2 62.64 
L 399.2 62.64 
L 399.2 7.2 
L 343.2 7.2 
z
" clip-path="url(#p5f6f316120)" style="fill: #90d743; stroke: #90d743; stroke-linejoin: miter"/>
   </g>
   <g id="patch_8">
    <path d="M 404.8 62.64 
L 460.8 62.64 
L 460.8 7.2 
L 404.8 7.2 
z
" clip-path="url(#p5f6f316120)" style="fill: #fde725; stroke: #fde725; stroke-linejoin: miter"/>
   </g>
  </g>
 </g>
 <defs>
  <clipPath id="p5f6f316120">
   <rect x="7.2" y="7.2" width="453.6" height="55.44"/>
  </clipPath>
 </defs>
</svg>
